<?xml version="1.0" encoding="utf-8" standalone="no"?>
<!DOCTYPE svg PUBLIC "-//W3C//DTD SVG 1.1//EN"
  "http://www.w3.org/Graphics/SVG/1.1/DTD/svg11.dtd">
<svg xmlns:xlink="http://www.w3.org/1999/xlink" width="252pt" height="288pt" viewBox="0 0 252 288" xmlns="http://www.w3.org/2000/svg" version="1.1">
 <metadata>
  <rdf:RDF xmlns:dc="http://purl.org/dc/elements/1.1/" xmlns:cc="http://creativecommons.org/ns#" xmlns:rdf="http://www.w3.org/1999/02/22-rdf-syntax-ns#">
   <cc:Work>
    <dc:type rdf:resource="http://purl.org/dc/dcmitype/StillImage"/>
    <dc:date>2025-05-13T14:54:53.631051</dc:date>
    <dc:format>image/svg+xml</dc:format>
    <dc:creator>
     <cc:Agent>
      <dc:title>Matplotlib v3.8.4, https://matplotlib.org/</dc:title>
     </cc:Agent>
    </dc:creator>
   </cc:Work>
  </rdf:RDF>
 </metadata>
 <defs>
  <style type="text/css">*{stroke-linejoin: round; stroke-linecap: butt}</style>
 </defs>
 <g id="figure_1">
  <g id="patch_1">
   <path d="M 0 288 
L 252 288 
L 252 0 
L 0 0 
L 0 288 
z
" style="fill: none"/>
  </g>
  <g id="axes_1">
   <g id="patch_2">
    <path d="M 50.4 214.02 
L 221.846029 214.02 
L 221.846029 20.16 
L 50.4 20.16 
L 50.4 214.02 
z
" style="fill: none"/>
   </g>
   <g id="PathCollection_1">
    <defs>
     <path id="C0_0_e3f0924dca" d="M 0 2.738613 
C 0.726289 2.738613 1.422928 2.450055 1.936492 1.936492 
C 2.450055 1.422928 2.738613 0.726289 2.738613 -0 
C 2.738613 -0.726289 2.450055 -1.422928 1.936492 -1.936492 
C 1.422928 -2.450055 0.726289 -2.738613 0 -2.738613 
C -0.726289 -2.738613 -1.422928 -2.450055 -1.936492 -1.936492 
C -2.450055 -1.422928 -2.738613 -0.726289 -2.738613 0 
C -2.738613 0.726289 -2.450055 1.422928 -1.936492 1.936492 
C -1.422928 2.450055 -0.726289 2.738613 0 2.738613 
z
"/>
    </defs>
    <g clip-path="url(#pdcd36bc7e9)">
     <use xlink:href="#C0_0_e3f0924dca" x="51.660633" y="117.09" style="fill: #fde725; stroke: #ffffff"/>
    </g>
    <g clip-path="url(#pdcd36bc7e9)">
     <use xlink:href="#C0_0_e3f0924dca" x="54.181898" y="117.09" style="fill: #f6e620; stroke: #ffffff"/>
    </g>
    <g clip-path="url(#pdcd36bc7e9)">
     <use xlink:href="#C0_0_e3f0924dca" x="56.703163" y="165.555" style="fill: #ece51b; stroke: #ffffff"/>
    </g>
    <g clip-path="url(#pdcd36bc7e9)">
     <use xlink:href="#C0_0_e3f0924dca" x="59.224428" y="68.625" style="fill: #e2e418; stroke: #ffffff"/>
    </g>
    <g clip-path="url(#pdcd36bc7e9)">
     <use xlink:href="#C0_0_e3f0924dca" x="61.745693" y="125.1675" style="fill: #d8e219; stroke: #ffffff"/>
    </g>
    <g clip-path="url(#pdcd36bc7e9)">
     <use xlink:href="#C0_0_e3f0924dca" x="64.266958" y="76.7025" style="fill: #cde11d; stroke: #ffffff"/>
    </g>
    <g clip-path="url(#pdcd36bc7e9)">
     <use xlink:href="#C0_0_e3f0924dca" x="66.788223" y="117.09" style="fill: #c5e021; stroke: #ffffff"/>
    </g>
    <g clip-path="url(#pdcd36bc7e9)">
     <use xlink:href="#C0_0_e3f0924dca" x="69.309489" y="76.7025" style="fill: #bade28; stroke: #ffffff"/>
    </g>
    <g clip-path="url(#pdcd36bc7e9)">
     <use xlink:href="#C0_0_e3f0924dca" x="71.830754" y="68.625" style="fill: #b0dd2f; stroke: #ffffff"/>
    </g>
    <g clip-path="url(#pdcd36bc7e9)">
     <use xlink:href="#C0_0_e3f0924dca" x="74.352019" y="76.7025" style="fill: #a5db36; stroke: #ffffff"/>
    </g>
    <g clip-path="url(#pdcd36bc7e9)">
     <use xlink:href="#C0_0_e3f0924dca" x="76.873284" y="84.78" style="fill: #9bd93c; stroke: #ffffff"/>
    </g>
    <g clip-path="url(#pdcd36bc7e9)">
     <use xlink:href="#C0_0_e3f0924dca" x="79.394549" y="76.7025" style="fill: #90d743; stroke: #ffffff"/>
    </g>
    <g clip-path="url(#pdcd36bc7e9)">
     <use xlink:href="#C0_0_e3f0924dca" x="81.915814" y="76.7025" style="fill: #89d548; stroke: #ffffff"/>
    </g>
    <g clip-path="url(#pdcd36bc7e9)">
     <use xlink:href="#C0_0_e3f0924dca" x="84.437079" y="68.625" style="fill: #7fd34e; stroke: #ffffff"/>
    </g>
    <g clip-path="url(#pdcd36bc7e9)">
     <use xlink:href="#C0_0_e3f0924dca" x="86.958345" y="117.09" style="fill: #75d054; stroke: #ffffff"/>
    </g>
    <g clip-path="url(#pdcd36bc7e9)">
     <use xlink:href="#C0_0_e3f0924dca" x="89.47961" y="84.78" style="fill: #6ccd5a; stroke: #ffffff"/>
    </g>
    <g clip-path="url(#pdcd36bc7e9)">
     <use xlink:href="#C0_0_e3f0924dca" x="92.000875" y="68.625" style="fill: #63cb5f; stroke: #ffffff"/>
    </g>
    <g clip-path="url(#pdcd36bc7e9)">
     <use xlink:href="#C0_0_e3f0924dca" x="94.52214" y="76.7025" style="fill: #5cc863; stroke: #ffffff"/>
    </g>
    <g clip-path="url(#pdcd36bc7e9)">
     <use xlink:href="#C0_0_e3f0924dca" x="97.043405" y="165.555" style="fill: #54c568; stroke: #ffffff"/>
    </g>
    <g clip-path="url(#pdcd36bc7e9)">
     <use xlink:href="#C0_0_e3f0924dca" x="99.56467" y="76.7025" style="fill: #4cc26c; stroke: #ffffff"/>
    </g>
    <g clip-path="url(#pdcd36bc7e9)">
     <use xlink:href="#C0_0_e3f0924dca" x="102.085935" y="100.935" style="fill: #44bf70; stroke: #ffffff"/>
    </g>
    <g clip-path="url(#pdcd36bc7e9)">
     <use xlink:href="#C0_0_e3f0924dca" x="104.6072" y="76.7025" style="fill: #3dbc74; stroke: #ffffff"/>
    </g>
    <g clip-path="url(#pdcd36bc7e9)">
     <use xlink:href="#C0_0_e3f0924dca" x="107.128466" y="165.555" style="fill: #37b878; stroke: #ffffff"/>
    </g>
    <g clip-path="url(#pdcd36bc7e9)">
     <use xlink:href="#C0_0_e3f0924dca" x="109.649731" y="68.625" style="fill: #32b67a; stroke: #ffffff"/>
    </g>
    <g clip-path="url(#pdcd36bc7e9)">
     <use xlink:href="#C0_0_e3f0924dca" x="112.170996" y="76.7025" style="fill: #2db27d; stroke: #ffffff"/>
    </g>
    <g clip-path="url(#pdcd36bc7e9)">
     <use xlink:href="#C0_0_e3f0924dca" x="114.692261" y="165.555" style="fill: #28ae80; stroke: #ffffff"/>
    </g>
    <g clip-path="url(#pdcd36bc7e9)">
     <use xlink:href="#C0_0_e3f0924dca" x="117.213526" y="117.09" style="fill: #25ab82; stroke: #ffffff"/>
    </g>
    <g clip-path="url(#pdcd36bc7e9)">
     <use xlink:href="#C0_0_e3f0924dca" x="119.734791" y="117.09" style="fill: #22a785; stroke: #ffffff"/>
    </g>
    <g clip-path="url(#pdcd36bc7e9)">
     <use xlink:href="#C0_0_e3f0924dca" x="122.256056" y="68.625" style="fill: #20a486; stroke: #ffffff"/>
    </g>
    <g clip-path="url(#pdcd36bc7e9)">
     <use xlink:href="#C0_0_e3f0924dca" x="124.777322" y="68.625" style="fill: #1fa188; stroke: #ffffff"/>
    </g>
    <g clip-path="url(#pdcd36bc7e9)">
     <use xlink:href="#C0_0_e3f0924dca" x="127.298587" y="68.625" style="fill: #1e9d89; stroke: #ffffff"/>
    </g>
    <g clip-path="url(#pdcd36bc7e9)">
     <use xlink:href="#C0_0_e3f0924dca" x="129.819852" y="117.09" style="fill: #1f998a; stroke: #ffffff"/>
    </g>
    <g clip-path="url(#pdcd36bc7e9)">
     <use xlink:href="#C0_0_e3f0924dca" x="132.341117" y="117.09" style="fill: #1f958b; stroke: #ffffff"/>
    </g>
    <g clip-path="url(#pdcd36bc7e9)">
     <use xlink:href="#C0_0_e3f0924dca" x="134.862382" y="117.09" style="fill: #20928c; stroke: #ffffff"/>
    </g>
    <g clip-path="url(#pdcd36bc7e9)">
     <use xlink:href="#C0_0_e3f0924dca" x="137.383647" y="68.625" style="fill: #218f8d; stroke: #ffffff"/>
    </g>
    <g clip-path="url(#pdcd36bc7e9)">
     <use xlink:href="#C0_0_e3f0924dca" x="139.904912" y="117.09" style="fill: #228b8d; stroke: #ffffff"/>
    </g>
    <g clip-path="url(#pdcd36bc7e9)">
     <use xlink:href="#C0_0_e3f0924dca" x="142.426178" y="165.555" style="fill: #24878e; stroke: #ffffff"/>
    </g>
    <g clip-path="url(#pdcd36bc7e9)">
     <use xlink:href="#C0_0_e3f0924dca" x="144.947443" y="117.09" style="fill: #25838e; stroke: #ffffff"/>
    </g>
    <g clip-path="url(#pdcd36bc7e9)">
     <use xlink:href="#C0_0_e3f0924dca" x="147.468708" y="117.09" style="fill: #27808e; stroke: #ffffff"/>
    </g>
    <g clip-path="url(#pdcd36bc7e9)">
     <use xlink:href="#C0_0_e3f0924dca" x="149.989973" y="117.09" style="fill: #287c8e; stroke: #ffffff"/>
    </g>
    <g clip-path="url(#pdcd36bc7e9)">
     <use xlink:href="#C0_0_e3f0924dca" x="152.511238" y="84.78" style="fill: #29798e; stroke: #ffffff"/>
    </g>
    <g clip-path="url(#pdcd36bc7e9)">
     <use xlink:href="#C0_0_e3f0924dca" x="155.032503" y="117.09" style="fill: #2b758e; stroke: #ffffff"/>
    </g>
    <g clip-path="url(#pdcd36bc7e9)">
     <use xlink:href="#C0_0_e3f0924dca" x="157.553768" y="117.09" style="fill: #2c718e; stroke: #ffffff"/>
    </g>
    <g clip-path="url(#pdcd36bc7e9)">
     <use xlink:href="#C0_0_e3f0924dca" x="160.075034" y="117.09" style="fill: #2e6e8e; stroke: #ffffff"/>
    </g>
    <g clip-path="url(#pdcd36bc7e9)">
     <use xlink:href="#C0_0_e3f0924dca" x="162.596299" y="117.09" style="fill: #306a8e; stroke: #ffffff"/>
    </g>
    <g clip-path="url(#pdcd36bc7e9)">
     <use xlink:href="#C0_0_e3f0924dca" x="165.117564" y="117.09" style="fill: #31678e; stroke: #ffffff"/>
    </g>
    <g clip-path="url(#pdcd36bc7e9)">
     <use xlink:href="#C0_0_e3f0924dca" x="167.638829" y="117.09" style="fill: #33638d; stroke: #ffffff"/>
    </g>
    <g clip-path="url(#pdcd36bc7e9)">
     <use xlink:href="#C0_0_e3f0924dca" x="170.160094" y="117.09" style="fill: #355f8d; stroke: #ffffff"/>
    </g>
    <g clip-path="url(#pdcd36bc7e9)">
     <use xlink:href="#C0_0_e3f0924dca" x="172.681359" y="84.78" style="fill: #375b8d; stroke: #ffffff"/>
    </g>
    <g clip-path="url(#pdcd36bc7e9)">
     <use xlink:href="#C0_0_e3f0924dca" x="175.202624" y="117.09" style="fill: #39568c; stroke: #ffffff"/>
    </g>
    <g clip-path="url(#pdcd36bc7e9)">
     <use xlink:href="#C0_0_e3f0924dca" x="177.723889" y="117.09" style="fill: #3b528b; stroke: #ffffff"/>
    </g>
    <g clip-path="url(#pdcd36bc7e9)">
     <use xlink:href="#C0_0_e3f0924dca" x="180.245155" y="117.09" style="fill: #3c4f8a; stroke: #ffffff"/>
    </g>
    <g clip-path="url(#pdcd36bc7e9)">
     <use xlink:href="#C0_0_e3f0924dca" x="182.76642" y="117.09" style="fill: #3e4a89; stroke: #ffffff"/>
    </g>
    <g clip-path="url(#pdcd36bc7e9)">
     <use xlink:href="#C0_0_e3f0924dca" x="185.287685" y="117.09" style="fill: #404688; stroke: #ffffff"/>
    </g>
    <g clip-path="url(#pdcd36bc7e9)">
     <use xlink:href="#C0_0_e3f0924dca" x="187.80895" y="117.09" style="fill: #424186; stroke: #ffffff"/>
    </g>
    <g clip-path="url(#pdcd36bc7e9)">
     <use xlink:href="#C0_0_e3f0924dca" x="190.330215" y="117.09" style="fill: #433d84; stroke: #ffffff"/>
    </g>
    <g clip-path="url(#pdcd36bc7e9)">
     <use xlink:href="#C0_0_e3f0924dca" x="192.85148" y="117.09" style="fill: #443983; stroke: #ffffff"/>
    </g>
    <g clip-path="url(#pdcd36bc7e9)">
     <use xlink:href="#C0_0_e3f0924dca" x="195.372745" y="117.09" style="fill: #463480; stroke: #ffffff"/>
    </g>
    <g clip-path="url(#pdcd36bc7e9)">
     <use xlink:href="#C0_0_e3f0924dca" x="197.894011" y="117.09" style="fill: #472f7d; stroke: #ffffff"/>
    </g>
    <g clip-path="url(#pdcd36bc7e9)">
     <use xlink:href="#C0_0_e3f0924dca" x="200.415276" y="165.555" style="fill: #472a7a; stroke: #ffffff"/>
    </g>
    <g clip-path="url(#pdcd36bc7e9)">
     <use xlink:href="#C0_0_e3f0924dca" x="202.936541" y="117.09" style="fill: #482576; stroke: #ffffff"/>
    </g>
    <g clip-path="url(#pdcd36bc7e9)">
     <use xlink:href="#C0_0_e3f0924dca" x="205.457806" y="117.09" style="fill: #482071; stroke: #ffffff"/>
    </g>
    <g clip-path="url(#pdcd36bc7e9)">
     <use xlink:href="#C0_0_e3f0924dca" x="207.979071" y="117.09" style="fill: #481c6e; stroke: #ffffff"/>
    </g>
    <g clip-path="url(#pdcd36bc7e9)">
     <use xlink:href="#C0_0_e3f0924dca" x="210.500336" y="117.09" style="fill: #481769; stroke: #ffffff"/>
    </g>
    <g clip-path="url(#pdcd36bc7e9)">
     <use xlink:href="#C0_0_e3f0924dca" x="213.021601" y="117.09" style="fill: #471164; stroke: #ffffff"/>
    </g>
    <g clip-path="url(#pdcd36bc7e9)">
     <use xlink:href="#C0_0_e3f0924dca" x="215.542867" y="117.09" style="fill: #460b5e; stroke: #ffffff"/>
    </g>
    <g clip-path="url(#pdcd36bc7e9)">
     <use xlink:href="#C0_0_e3f0924dca" x="218.064132" y="117.09" style="fill: #450559; stroke: #ffffff"/>
    </g>
    <g clip-path="url(#pdcd36bc7e9)">
     <use xlink:href="#C0_0_e3f0924dca" x="220.585397" y="117.09" style="fill: #440154; stroke: #ffffff"/>
    </g>
   </g>
   <g id="matplotlib.axis_1">
    <g id="xtick_1">
     <g id="line2d_1">
      <path d="M 220.585397 214.02 
L 220.585397 20.16 
" clip-path="url(#pdcd36bc7e9)" style="fill: none; stroke-dasharray: 2.96,1.28; stroke-dashoffset: 0; stroke: #b0b0b0; stroke-opacity: 0.5; stroke-width: 0.8"/>
     </g>
     <g id="line2d_2">
      <defs>
       <path id="m923e4f9a66" d="M 0 0 
L 0 6 
" style="stroke: #000000; stroke-width: 1.5"/>
      </defs>
      <g>
       <use xlink:href="#m923e4f9a66" x="220.585397" y="214.02" style="stroke: #000000; stroke-width: 1.5"/>
      </g>
     </g>
     <g id="text_1">
      <!-- 127 -->
      <g transform="translate(199.731881 241.414531) scale(0.25 -0.25)">
       <defs>
        <path id="ArialMT-31" d="M 2384 0 
L 1822 0 
L 1822 3584 
Q 1619 3391 1289 3197 
Q 959 3003 697 2906 
L 697 3450 
Q 1169 3672 1522 3987 
Q 1875 4303 2022 4600 
L 2384 4600 
L 2384 0 
z
" transform="scale(0.015625)"/>
        <path id="ArialMT-32" d="M 3222 541 
L 3222 0 
L 194 0 
Q 188 203 259 391 
Q 375 700 629 1000 
Q 884 1300 1366 1694 
Q 2113 2306 2375 2664 
Q 2638 3022 2638 3341 
Q 2638 3675 2398 3904 
Q 2159 4134 1775 4134 
Q 1369 4134 1125 3890 
Q 881 3647 878 3216 
L 300 3275 
Q 359 3922 746 4261 
Q 1134 4600 1788 4600 
Q 2447 4600 2831 4234 
Q 3216 3869 3216 3328 
Q 3216 3053 3103 2787 
Q 2991 2522 2730 2228 
Q 2469 1934 1863 1422 
Q 1356 997 1212 845 
Q 1069 694 975 541 
L 3222 541 
z
" transform="scale(0.015625)"/>
        <path id="ArialMT-37" d="M 303 3981 
L 303 4522 
L 3269 4522 
L 3269 4084 
Q 2831 3619 2401 2847 
Q 1972 2075 1738 1259 
Q 1569 684 1522 0 
L 944 0 
Q 953 541 1156 1306 
Q 1359 2072 1739 2783 
Q 2119 3494 2547 3981 
L 303 3981 
z
" transform="scale(0.015625)"/>
       </defs>
       <use xlink:href="#ArialMT-31"/>
       <use xlink:href="#ArialMT-32" x="55.615234"/>
       <use xlink:href="#ArialMT-37" x="111.230469"/>
      </g>
     </g>
    </g>
    <g id="text_2">
     <!-- Trial -->
     <g transform="translate(109.428952 270.425156) scale(0.28 -0.28)">
      <defs>
       <path id="ArialMT-54" d="M 1659 0 
L 1659 4041 
L 150 4041 
L 150 4581 
L 3781 4581 
L 3781 4041 
L 2266 4041 
L 2266 0 
L 1659 0 
z
" transform="scale(0.015625)"/>
       <path id="ArialMT-72" d="M 416 0 
L 416 3319 
L 922 3319 
L 922 2816 
Q 1116 3169 1280 3281 
Q 1444 3394 1641 3394 
Q 1925 3394 2219 3213 
L 2025 2691 
Q 1819 2813 1613 2813 
Q 1428 2813 1281 2702 
Q 1134 2591 1072 2394 
Q 978 2094 978 1738 
L 978 0 
L 416 0 
z
" transform="scale(0.015625)"/>
       <path id="ArialMT-69" d="M 425 3934 
L 425 4581 
L 988 4581 
L 988 3934 
L 425 3934 
z
M 425 0 
L 425 3319 
L 988 3319 
L 988 0 
L 425 0 
z
" transform="scale(0.015625)"/>
       <path id="ArialMT-61" d="M 2588 409 
Q 2275 144 1986 34 
Q 1697 -75 1366 -75 
Q 819 -75 525 192 
Q 231 459 231 875 
Q 231 1119 342 1320 
Q 453 1522 633 1644 
Q 813 1766 1038 1828 
Q 1203 1872 1538 1913 
Q 2219 1994 2541 2106 
Q 2544 2222 2544 2253 
Q 2544 2597 2384 2738 
Q 2169 2928 1744 2928 
Q 1347 2928 1158 2789 
Q 969 2650 878 2297 
L 328 2372 
Q 403 2725 575 2942 
Q 747 3159 1072 3276 
Q 1397 3394 1825 3394 
Q 2250 3394 2515 3294 
Q 2781 3194 2906 3042 
Q 3031 2891 3081 2659 
Q 3109 2516 3109 2141 
L 3109 1391 
Q 3109 606 3145 398 
Q 3181 191 3288 0 
L 2700 0 
Q 2613 175 2588 409 
z
M 2541 1666 
Q 2234 1541 1622 1453 
Q 1275 1403 1131 1340 
Q 988 1278 909 1158 
Q 831 1038 831 891 
Q 831 666 1001 516 
Q 1172 366 1500 366 
Q 1825 366 2078 508 
Q 2331 650 2450 897 
Q 2541 1088 2541 1459 
L 2541 1666 
z
" transform="scale(0.015625)"/>
       <path id="ArialMT-6c" d="M 409 0 
L 409 4581 
L 972 4581 
L 972 0 
L 409 0 
z
" transform="scale(0.015625)"/>
      </defs>
      <use xlink:href="#ArialMT-54"/>
      <use xlink:href="#ArialMT-72" x="57.333984"/>
      <use xlink:href="#ArialMT-69" x="90.634766"/>
      <use xlink:href="#ArialMT-61" x="112.851562"/>
      <use xlink:href="#ArialMT-6c" x="168.466797"/>
     </g>
    </g>
   </g>
   <g id="matplotlib.axis_2">
    <g id="ytick_1">
     <g id="line2d_3">
      <path d="M 50.4 214.02 
L 221.846029 214.02 
" clip-path="url(#pdcd36bc7e9)" style="fill: none; stroke-dasharray: 2.96,1.28; stroke-dashoffset: 0; stroke: #b0b0b0; stroke-opacity: 0.5; stroke-width: 0.8"/>
     </g>
     <g id="line2d_4">
      <defs>
       <path id="m35d0857ed0" d="M 0 0 
L -6 0 
" style="stroke: #000000; stroke-width: 1.5"/>
      </defs>
      <g>
       <use xlink:href="#m35d0857ed0" x="50.4" y="214.02" style="stroke: #000000; stroke-width: 1.5"/>
      </g>
     </g>
     <g id="text_3">
      <!-- 0 -->
      <g transform="translate(26.997656 222.967266) scale(0.25 -0.25)">
       <defs>
        <path id="ArialMT-30" d="M 266 2259 
Q 266 3072 433 3567 
Q 600 4063 929 4331 
Q 1259 4600 1759 4600 
Q 2128 4600 2406 4451 
Q 2684 4303 2865 4023 
Q 3047 3744 3150 3342 
Q 3253 2941 3253 2259 
Q 3253 1453 3087 958 
Q 2922 463 2592 192 
Q 2263 -78 1759 -78 
Q 1097 -78 719 397 
Q 266 969 266 2259 
z
M 844 2259 
Q 844 1131 1108 757 
Q 1372 384 1759 384 
Q 2147 384 2411 759 
Q 2675 1134 2675 2259 
Q 2675 3391 2411 3762 
Q 2147 4134 1753 4134 
Q 1366 4134 1134 3806 
Q 844 3388 844 2259 
z
" transform="scale(0.015625)"/>
       </defs>
       <use xlink:href="#ArialMT-30"/>
      </g>
     </g>
    </g>
    <g id="ytick_2">
     <g id="line2d_5">
      <path d="M 50.4 117.09 
L 221.846029 117.09 
" clip-path="url(#pdcd36bc7e9)" style="fill: none; stroke-dasharray: 2.96,1.28; stroke-dashoffset: 0; stroke: #b0b0b0; stroke-opacity: 0.5; stroke-width: 0.8"/>
     </g>
     <g id="line2d_6">
      <g>
       <use xlink:href="#m35d0857ed0" x="50.4" y="117.09" style="stroke: #000000; stroke-width: 1.5"/>
      </g>
     </g>
     <g id="text_4">
      <!-- 0.5 -->
      <g transform="translate(6.15 126.037266) scale(0.25 -0.25)">
       <defs>
        <path id="ArialMT-2e" d="M 581 0 
L 581 641 
L 1222 641 
L 1222 0 
L 581 0 
z
" transform="scale(0.015625)"/>
        <path id="ArialMT-35" d="M 266 1200 
L 856 1250 
Q 922 819 1161 601 
Q 1400 384 1738 384 
Q 2144 384 2425 690 
Q 2706 997 2706 1503 
Q 2706 1984 2436 2262 
Q 2166 2541 1728 2541 
Q 1456 2541 1237 2417 
Q 1019 2294 894 2097 
L 366 2166 
L 809 4519 
L 3088 4519 
L 3088 3981 
L 1259 3981 
L 1013 2750 
Q 1425 3038 1878 3038 
Q 2478 3038 2890 2622 
Q 3303 2206 3303 1553 
Q 3303 931 2941 478 
Q 2500 -78 1738 -78 
Q 1113 -78 717 272 
Q 322 622 266 1200 
z
" transform="scale(0.015625)"/>
       </defs>
       <use xlink:href="#ArialMT-30"/>
       <use xlink:href="#ArialMT-2e" x="55.615234"/>
       <use xlink:href="#ArialMT-35" x="83.398438"/>
      </g>
     </g>
    </g>
    <g id="ytick_3">
     <g id="line2d_7">
      <path d="M 50.4 20.16 
L 221.846029 20.16 
" clip-path="url(#pdcd36bc7e9)" style="fill: none; stroke-dasharray: 2.96,1.28; stroke-dashoffset: 0; stroke: #b0b0b0; stroke-opacity: 0.5; stroke-width: 0.8"/>
     </g>
     <g id="line2d_8">
      <g>
       <use xlink:href="#m35d0857ed0" x="50.4" y="20.16" style="stroke: #000000; stroke-width: 1.5"/>
      </g>
     </g>
     <g id="text_5">
      <!-- 1 -->
      <g transform="translate(26.997656 29.107266) scale(0.25 -0.25)">
       <use xlink:href="#ArialMT-31"/>
      </g>
     </g>
    </g>
   </g>
   <g id="LineCollection_1">
    <path d="M 51.660633 117.09 
L 54.181898 117.09 
" clip-path="url(#pdcd36bc7e9)" style="fill: none; stroke: #fde725; stroke-width: 2"/>
    <path d="M 54.181898 117.09 
L 56.703163 165.555 
" clip-path="url(#pdcd36bc7e9)" style="fill: none; stroke: #f6e620; stroke-width: 2"/>
    <path d="M 56.703163 165.555 
L 59.224428 68.625 
" clip-path="url(#pdcd36bc7e9)" style="fill: none; stroke: #ece51b; stroke-width: 2"/>
    <path d="M 59.224428 68.625 
L 61.745693 125.1675 
" clip-path="url(#pdcd36bc7e9)" style="fill: none; stroke: #e2e418; stroke-width: 2"/>
    <path d="M 61.745693 125.1675 
L 64.266958 76.7025 
" clip-path="url(#pdcd36bc7e9)" style="fill: none; stroke: #d8e219; stroke-width: 2"/>
    <path d="M 64.266958 76.7025 
L 66.788223 117.09 
" clip-path="url(#pdcd36bc7e9)" style="fill: none; stroke: #cde11d; stroke-width: 2"/>
    <path d="M 66.788223 117.09 
L 69.309489 76.7025 
" clip-path="url(#pdcd36bc7e9)" style="fill: none; stroke: #c2df23; stroke-width: 2"/>
    <path d="M 69.309489 76.7025 
L 71.830754 68.625 
" clip-path="url(#pdcd36bc7e9)" style="fill: none; stroke: #b8de29; stroke-width: 2"/>
    <path d="M 71.830754 68.625 
L 74.352019 76.7025 
" clip-path="url(#pdcd36bc7e9)" style="fill: none; stroke: #addc30; stroke-width: 2"/>
    <path d="M 74.352019 76.7025 
L 76.873284 84.78 
" clip-path="url(#pdcd36bc7e9)" style="fill: none; stroke: #a5db36; stroke-width: 2"/>
    <path d="M 76.873284 84.78 
L 79.394549 76.7025 
" clip-path="url(#pdcd36bc7e9)" style="fill: none; stroke: #9bd93c; stroke-width: 2"/>
    <path d="M 79.394549 76.7025 
L 81.915814 76.7025 
" clip-path="url(#pdcd36bc7e9)" style="fill: none; stroke: #90d743; stroke-width: 2"/>
    <path d="M 81.915814 76.7025 
L 84.437079 68.625 
" clip-path="url(#pdcd36bc7e9)" style="fill: none; stroke: #86d549; stroke-width: 2"/>
    <path d="M 84.437079 68.625 
L 86.958345 117.09 
" clip-path="url(#pdcd36bc7e9)" style="fill: none; stroke: #7cd250; stroke-width: 2"/>
    <path d="M 86.958345 117.09 
L 89.47961 84.78 
" clip-path="url(#pdcd36bc7e9)" style="fill: none; stroke: #73d056; stroke-width: 2"/>
    <path d="M 89.47961 84.78 
L 92.000875 68.625 
" clip-path="url(#pdcd36bc7e9)" style="fill: none; stroke: #69cd5b; stroke-width: 2"/>
    <path d="M 92.000875 68.625 
L 94.52214 76.7025 
" clip-path="url(#pdcd36bc7e9)" style="fill: none; stroke: #60ca60; stroke-width: 2"/>
    <path d="M 94.52214 76.7025 
L 97.043405 165.555 
" clip-path="url(#pdcd36bc7e9)" style="fill: none; stroke: #5ac864; stroke-width: 2"/>
    <path d="M 97.043405 165.555 
L 99.56467 76.7025 
" clip-path="url(#pdcd36bc7e9)" style="fill: none; stroke: #52c569; stroke-width: 2"/>
    <path d="M 99.56467 76.7025 
L 102.085935 100.935 
" clip-path="url(#pdcd36bc7e9)" style="fill: none; stroke: #4ac16d; stroke-width: 2"/>
    <path d="M 102.085935 100.935 
L 104.6072 76.7025 
" clip-path="url(#pdcd36bc7e9)" style="fill: none; stroke: #42be71; stroke-width: 2"/>
    <path d="M 104.6072 76.7025 
L 107.128466 165.555 
" clip-path="url(#pdcd36bc7e9)" style="fill: none; stroke: #3bbb75; stroke-width: 2"/>
    <path d="M 107.128466 165.555 
L 109.649731 68.625 
" clip-path="url(#pdcd36bc7e9)" style="fill: none; stroke: #35b779; stroke-width: 2"/>
    <path d="M 109.649731 68.625 
L 112.170996 76.7025 
" clip-path="url(#pdcd36bc7e9)" style="fill: none; stroke: #2fb47c; stroke-width: 2"/>
    <path d="M 112.170996 76.7025 
L 114.692261 165.555 
" clip-path="url(#pdcd36bc7e9)" style="fill: none; stroke: #2ab07f; stroke-width: 2"/>
    <path d="M 114.692261 165.555 
L 117.213526 117.09 
" clip-path="url(#pdcd36bc7e9)" style="fill: none; stroke: #27ad81; stroke-width: 2"/>
    <path d="M 117.213526 117.09 
L 119.734791 117.09 
" clip-path="url(#pdcd36bc7e9)" style="fill: none; stroke: #24aa83; stroke-width: 2"/>
    <path d="M 119.734791 117.09 
L 122.256056 68.625 
" clip-path="url(#pdcd36bc7e9)" style="fill: none; stroke: #21a685; stroke-width: 2"/>
    <path d="M 122.256056 68.625 
L 124.777322 68.625 
" clip-path="url(#pdcd36bc7e9)" style="fill: none; stroke: #1fa287; stroke-width: 2"/>
    <path d="M 124.777322 68.625 
L 127.298587 68.625 
" clip-path="url(#pdcd36bc7e9)" style="fill: none; stroke: #1f9f88; stroke-width: 2"/>
    <path d="M 127.298587 68.625 
L 129.819852 117.09 
" clip-path="url(#pdcd36bc7e9)" style="fill: none; stroke: #1e9b8a; stroke-width: 2"/>
    <path d="M 129.819852 117.09 
L 132.341117 117.09 
" clip-path="url(#pdcd36bc7e9)" style="fill: none; stroke: #1f978b; stroke-width: 2"/>
    <path d="M 132.341117 117.09 
L 134.862382 117.09 
" clip-path="url(#pdcd36bc7e9)" style="fill: none; stroke: #20938c; stroke-width: 2"/>
    <path d="M 134.862382 117.09 
L 137.383647 68.625 
" clip-path="url(#pdcd36bc7e9)" style="fill: none; stroke: #21908d; stroke-width: 2"/>
    <path d="M 137.383647 68.625 
L 139.904912 117.09 
" clip-path="url(#pdcd36bc7e9)" style="fill: none; stroke: #228d8d; stroke-width: 2"/>
    <path d="M 139.904912 117.09 
L 142.426178 165.555 
" clip-path="url(#pdcd36bc7e9)" style="fill: none; stroke: #23898e; stroke-width: 2"/>
    <path d="M 142.426178 165.555 
L 144.947443 117.09 
" clip-path="url(#pdcd36bc7e9)" style="fill: none; stroke: #25858e; stroke-width: 2"/>
    <path d="M 144.947443 117.09 
L 147.468708 117.09 
" clip-path="url(#pdcd36bc7e9)" style="fill: none; stroke: #26828e; stroke-width: 2"/>
    <path d="M 147.468708 117.09 
L 149.989973 117.09 
" clip-path="url(#pdcd36bc7e9)" style="fill: none; stroke: #277e8e; stroke-width: 2"/>
    <path d="M 149.989973 117.09 
L 152.511238 84.78 
" clip-path="url(#pdcd36bc7e9)" style="fill: none; stroke: #297a8e; stroke-width: 2"/>
    <path d="M 152.511238 84.78 
L 155.032503 117.09 
" clip-path="url(#pdcd36bc7e9)" style="fill: none; stroke: #2a768e; stroke-width: 2"/>
    <path d="M 155.032503 117.09 
L 157.553768 117.09 
" clip-path="url(#pdcd36bc7e9)" style="fill: none; stroke: #2c728e; stroke-width: 2"/>
    <path d="M 157.553768 117.09 
L 160.075034 117.09 
" clip-path="url(#pdcd36bc7e9)" style="fill: none; stroke: #2d708e; stroke-width: 2"/>
    <path d="M 160.075034 117.09 
L 162.596299 117.09 
" clip-path="url(#pdcd36bc7e9)" style="fill: none; stroke: #2f6c8e; stroke-width: 2"/>
    <path d="M 162.596299 117.09 
L 165.117564 117.09 
" clip-path="url(#pdcd36bc7e9)" style="fill: none; stroke: #31688e; stroke-width: 2"/>
    <path d="M 165.117564 117.09 
L 167.638829 117.09 
" clip-path="url(#pdcd36bc7e9)" style="fill: none; stroke: #32648e; stroke-width: 2"/>
    <path d="M 167.638829 117.09 
L 170.160094 117.09 
" clip-path="url(#pdcd36bc7e9)" style="fill: none; stroke: #34608d; stroke-width: 2"/>
    <path d="M 170.160094 117.09 
L 172.681359 84.78 
" clip-path="url(#pdcd36bc7e9)" style="fill: none; stroke: #365c8d; stroke-width: 2"/>
    <path d="M 172.681359 84.78 
L 175.202624 117.09 
" clip-path="url(#pdcd36bc7e9)" style="fill: none; stroke: #38588c; stroke-width: 2"/>
    <path d="M 175.202624 117.09 
L 177.723889 117.09 
" clip-path="url(#pdcd36bc7e9)" style="fill: none; stroke: #3a538b; stroke-width: 2"/>
    <path d="M 177.723889 117.09 
L 180.245155 117.09 
" clip-path="url(#pdcd36bc7e9)" style="fill: none; stroke: #3c508b; stroke-width: 2"/>
    <path d="M 180.245155 117.09 
L 182.76642 117.09 
" clip-path="url(#pdcd36bc7e9)" style="fill: none; stroke: #3e4c8a; stroke-width: 2"/>
    <path d="M 182.76642 117.09 
L 185.287685 117.09 
" clip-path="url(#pdcd36bc7e9)" style="fill: none; stroke: #3f4788; stroke-width: 2"/>
    <path d="M 185.287685 117.09 
L 187.80895 117.09 
" clip-path="url(#pdcd36bc7e9)" style="fill: none; stroke: #414287; stroke-width: 2"/>
    <path d="M 187.80895 117.09 
L 190.330215 117.09 
" clip-path="url(#pdcd36bc7e9)" style="fill: none; stroke: #433e85; stroke-width: 2"/>
    <path d="M 190.330215 117.09 
L 192.85148 117.09 
" clip-path="url(#pdcd36bc7e9)" style="fill: none; stroke: #443983; stroke-width: 2"/>
    <path d="M 192.85148 117.09 
L 195.372745 117.09 
" clip-path="url(#pdcd36bc7e9)" style="fill: none; stroke: #463480; stroke-width: 2"/>
    <path d="M 195.372745 117.09 
L 197.894011 117.09 
" clip-path="url(#pdcd36bc7e9)" style="fill: none; stroke: #472f7d; stroke-width: 2"/>
    <path d="M 197.894011 117.09 
L 200.415276 165.555 
" clip-path="url(#pdcd36bc7e9)" style="fill: none; stroke: #472c7a; stroke-width: 2"/>
    <path d="M 200.415276 165.555 
L 202.936541 117.09 
" clip-path="url(#pdcd36bc7e9)" style="fill: none; stroke: #482677; stroke-width: 2"/>
    <path d="M 202.936541 117.09 
L 205.457806 117.09 
" clip-path="url(#pdcd36bc7e9)" style="fill: none; stroke: #482173; stroke-width: 2"/>
    <path d="M 205.457806 117.09 
L 207.979071 117.09 
" clip-path="url(#pdcd36bc7e9)" style="fill: none; stroke: #481c6e; stroke-width: 2"/>
    <path d="M 207.979071 117.09 
L 210.500336 117.09 
" clip-path="url(#pdcd36bc7e9)" style="fill: none; stroke: #481769; stroke-width: 2"/>
    <path d="M 210.500336 117.09 
L 213.021601 117.09 
" clip-path="url(#pdcd36bc7e9)" style="fill: none; stroke: #471164; stroke-width: 2"/>
    <path d="M 213.021601 117.09 
L 215.542867 117.09 
" clip-path="url(#pdcd36bc7e9)" style="fill: none; stroke: #460b5e; stroke-width: 2"/>
    <path d="M 215.542867 117.09 
L 218.064132 117.09 
" clip-path="url(#pdcd36bc7e9)" style="fill: none; stroke: #450559; stroke-width: 2"/>
    <path d="M 218.064132 117.09 
L 220.585397 117.09 
" clip-path="url(#pdcd36bc7e9)" style="fill: none; stroke: #440154; stroke-width: 2"/>
   </g>
   <g id="patch_3">
    <path d="M 50.4 214.02 
L 50.4 20.16 
" style="fill: none; stroke: #000000; stroke-width: 2; stroke-linejoin: miter; stroke-linecap: square"/>
   </g>
   <g id="patch_4">
    <path d="M 221.846029 214.02 
L 221.846029 20.16 
" style="fill: none; stroke: #000000; stroke-width: 2; stroke-linejoin: miter; stroke-linecap: square"/>
   </g>
   <g id="patch_5">
    <path d="M 50.4 214.02 
L 221.846029 214.02 
" style="fill: none; stroke: #000000; stroke-width: 2; stroke-linejoin: miter; stroke-linecap: square"/>
   </g>
   <g id="patch_6">
    <path d="M 50.4 20.16 
L 221.846029 20.16 
" style="fill: none; stroke: #000000; stroke-width: 2; stroke-linejoin: miter; stroke-linecap: square"/>
   </g>
   <g id="text_6">
    <!-- feat$_4$ -->
    <g transform="translate(152.793728 49.894875) scale(0.28 -0.28)">
     <defs>
      <path id="ArialMT-66" d="M 556 0 
L 556 2881 
L 59 2881 
L 59 3319 
L 556 3319 
L 556 3672 
Q 556 4006 616 4169 
Q 697 4388 901 4523 
Q 1106 4659 1475 4659 
Q 1713 4659 2000 4603 
L 1916 4113 
Q 1741 4144 1584 4144 
Q 1328 4144 1222 4034 
Q 1116 3925 1116 3625 
L 1116 3319 
L 1763 3319 
L 1763 2881 
L 1116 2881 
L 1116 0 
L 556 0 
z
" transform="scale(0.015625)"/>
      <path id="ArialMT-65" d="M 2694 1069 
L 3275 997 
Q 3138 488 2766 206 
Q 2394 -75 1816 -75 
Q 1088 -75 661 373 
Q 234 822 234 1631 
Q 234 2469 665 2931 
Q 1097 3394 1784 3394 
Q 2450 3394 2872 2941 
Q 3294 2488 3294 1666 
Q 3294 1616 3291 1516 
L 816 1516 
Q 847 969 1125 678 
Q 1403 388 1819 388 
Q 2128 388 2347 550 
Q 2566 713 2694 1069 
z
M 847 1978 
L 2700 1978 
Q 2663 2397 2488 2606 
Q 2219 2931 1791 2931 
Q 1403 2931 1139 2672 
Q 875 2413 847 1978 
z
" transform="scale(0.015625)"/>
      <path id="ArialMT-74" d="M 1650 503 
L 1731 6 
Q 1494 -44 1306 -44 
Q 1000 -44 831 53 
Q 663 150 594 308 
Q 525 466 525 972 
L 525 2881 
L 113 2881 
L 113 3319 
L 525 3319 
L 525 4141 
L 1084 4478 
L 1084 3319 
L 1650 3319 
L 1650 2881 
L 1084 2881 
L 1084 941 
Q 1084 700 1114 631 
Q 1144 563 1211 522 
Q 1278 481 1403 481 
Q 1497 481 1650 503 
z
" transform="scale(0.015625)"/>
      <path id="DejaVuSans-34" d="M 2419 4116 
L 825 1625 
L 2419 1625 
L 2419 4116 
z
M 2253 4666 
L 3047 4666 
L 3047 1625 
L 3713 1625 
L 3713 1100 
L 3047 1100 
L 3047 0 
L 2419 0 
L 2419 1100 
L 313 1100 
L 313 1709 
L 2253 4666 
z
" transform="scale(0.015625)"/>
     </defs>
     <use xlink:href="#ArialMT-66" transform="translate(0 0.203125)"/>
     <use xlink:href="#ArialMT-65" transform="translate(27.783203 0.203125)"/>
     <use xlink:href="#ArialMT-61" transform="translate(83.398438 0.203125)"/>
     <use xlink:href="#ArialMT-74" transform="translate(139.013672 0.203125)"/>
     <use xlink:href="#DejaVuSans-34" transform="translate(167.753906 -16.203125) scale(0.7)"/>
    </g>
   </g>
  </g>
 </g>
 <defs>
  <clipPath id="pdcd36bc7e9">
   <rect x="50.4" y="20.16" width="171.446029" height="193.86"/>
  </clipPath>
 </defs>
</svg>
