<?xml version="1.0" encoding="utf-8" standalone="no"?>
<!DOCTYPE svg PUBLIC "-//W3C//DTD SVG 1.1//EN"
  "http://www.w3.org/Graphics/SVG/1.1/DTD/svg11.dtd">
<svg xmlns:xlink="http://www.w3.org/1999/xlink" width="252pt" height="288pt" viewBox="0 0 252 288" xmlns="http://www.w3.org/2000/svg" version="1.1">
 <metadata>
  <rdf:RDF xmlns:dc="http://purl.org/dc/elements/1.1/" xmlns:cc="http://creativecommons.org/ns#" xmlns:rdf="http://www.w3.org/1999/02/22-rdf-syntax-ns#">
   <cc:Work>
    <dc:type rdf:resource="http://purl.org/dc/dcmitype/StillImage"/>
    <dc:date>2025-05-11T10:42:58.740960</dc:date>
    <dc:format>image/svg+xml</dc:format>
    <dc:creator>
     <cc:Agent>
      <dc:title>Matplotlib v3.8.4, https://matplotlib.org/</dc:title>
     </cc:Agent>
    </dc:creator>
   </cc:Work>
  </rdf:RDF>
 </metadata>
 <defs>
  <style type="text/css">*{stroke-linejoin: round; stroke-linecap: butt}</style>
 </defs>
 <g id="figure_1">
  <g id="patch_1">
   <path d="M 0 288 
L 252 288 
L 252 0 
L 0 0 
L 0 288 
z
" style="fill: none"/>
  </g>
  <g id="axes_1">
   <g id="patch_2">
    <path d="M 50.4 226.98 
L 241.2 226.98 
L 241.2 17.28 
L 50.4 17.28 
L 50.4 226.98 
z
" style="fill: none"/>
   </g>
   <g id="PathCollection_1">
    <defs>
     <path id="C0_0_b812cc07fb" d="M 0 2.738613 
C 0.726289 2.738613 1.422928 2.450055 1.936492 1.936492 
C 2.450055 1.422928 2.738613 0.726289 2.738613 -0 
C 2.738613 -0.726289 2.450055 -1.422928 1.936492 -1.936492 
C 1.422928 -2.450055 0.726289 -2.738613 0 -2.738613 
C -0.726289 -2.738613 -1.422928 -2.450055 -1.936492 -1.936492 
C -2.450055 -1.422928 -2.738613 -0.726289 -2.738613 0 
C -2.738613 0.726289 -2.450055 1.422928 -1.936492 1.936492 
C -1.422928 2.450055 -0.726289 2.738613 0 2.738613 
z
"/>
    </defs>
    <g clip-path="url(#p58d4f33a3d)">
     <use xlink:href="#C0_0_b812cc07fb" x="51.549398" y="122.13" style="fill: #f0f921; stroke: #ffffff"/>
    </g>
    <g clip-path="url(#p58d4f33a3d)">
     <use xlink:href="#C0_0_b812cc07fb" x="53.848193" y="69.705" style="fill: #f1f426; stroke: #ffffff"/>
    </g>
    <g clip-path="url(#p58d4f33a3d)">
     <use xlink:href="#C0_0_b812cc07fb" x="56.146988" y="122.13" style="fill: #f3ee27; stroke: #ffffff"/>
    </g>
    <g clip-path="url(#p58d4f33a3d)">
     <use xlink:href="#C0_0_b812cc07fb" x="58.445783" y="69.705" style="fill: #f5e926; stroke: #ffffff"/>
    </g>
    <g clip-path="url(#p58d4f33a3d)">
     <use xlink:href="#C0_0_b812cc07fb" x="60.744578" y="69.705" style="fill: #f7e425; stroke: #ffffff"/>
    </g>
    <g clip-path="url(#p58d4f33a3d)">
     <use xlink:href="#C0_0_b812cc07fb" x="63.043373" y="69.705" style="fill: #f8df25; stroke: #ffffff"/>
    </g>
    <g clip-path="url(#p58d4f33a3d)">
     <use xlink:href="#C0_0_b812cc07fb" x="65.342169" y="69.705" style="fill: #fada24; stroke: #ffffff"/>
    </g>
    <g clip-path="url(#p58d4f33a3d)">
     <use xlink:href="#C0_0_b812cc07fb" x="67.640964" y="69.705" style="fill: #fbd324; stroke: #ffffff"/>
    </g>
    <g clip-path="url(#p58d4f33a3d)">
     <use xlink:href="#C0_0_b812cc07fb" x="69.939759" y="69.705" style="fill: #fcce25; stroke: #ffffff"/>
    </g>
    <g clip-path="url(#p58d4f33a3d)">
     <use xlink:href="#C0_0_b812cc07fb" x="72.238554" y="69.705" style="fill: #fdca26; stroke: #ffffff"/>
    </g>
    <g clip-path="url(#p58d4f33a3d)">
     <use xlink:href="#C0_0_b812cc07fb" x="74.537349" y="174.555" style="fill: #fdc527; stroke: #ffffff"/>
    </g>
    <g clip-path="url(#p58d4f33a3d)">
     <use xlink:href="#C0_0_b812cc07fb" x="76.836145" y="174.555" style="fill: #fec029; stroke: #ffffff"/>
    </g>
    <g clip-path="url(#p58d4f33a3d)">
     <use xlink:href="#C0_0_b812cc07fb" x="79.13494" y="69.705" style="fill: #febb2b; stroke: #ffffff"/>
    </g>
    <g clip-path="url(#p58d4f33a3d)">
     <use xlink:href="#C0_0_b812cc07fb" x="81.433735" y="174.555" style="fill: #fdb52e; stroke: #ffffff"/>
    </g>
    <g clip-path="url(#p58d4f33a3d)">
     <use xlink:href="#C0_0_b812cc07fb" x="83.73253" y="69.705" style="fill: #fdb130; stroke: #ffffff"/>
    </g>
    <g clip-path="url(#p58d4f33a3d)">
     <use xlink:href="#C0_0_b812cc07fb" x="86.031325" y="69.705" style="fill: #fdac33; stroke: #ffffff"/>
    </g>
    <g clip-path="url(#p58d4f33a3d)">
     <use xlink:href="#C0_0_b812cc07fb" x="88.33012" y="143.1" style="fill: #fca835; stroke: #ffffff"/>
    </g>
    <g clip-path="url(#p58d4f33a3d)">
     <use xlink:href="#C0_0_b812cc07fb" x="90.628916" y="143.1" style="fill: #fca338; stroke: #ffffff"/>
    </g>
    <g clip-path="url(#p58d4f33a3d)">
     <use xlink:href="#C0_0_b812cc07fb" x="92.927711" y="59.22" style="fill: #fb9f3a; stroke: #ffffff"/>
    </g>
    <g clip-path="url(#p58d4f33a3d)">
     <use xlink:href="#C0_0_b812cc07fb" x="95.226506" y="143.1" style="fill: #f99a3e; stroke: #ffffff"/>
    </g>
    <g clip-path="url(#p58d4f33a3d)">
     <use xlink:href="#C0_0_b812cc07fb" x="97.525301" y="69.705" style="fill: #f89540; stroke: #ffffff"/>
    </g>
    <g clip-path="url(#p58d4f33a3d)">
     <use xlink:href="#C0_0_b812cc07fb" x="99.824096" y="69.705" style="fill: #f79143; stroke: #ffffff"/>
    </g>
    <g clip-path="url(#p58d4f33a3d)">
     <use xlink:href="#C0_0_b812cc07fb" x="102.122892" y="69.705" style="fill: #f68d45; stroke: #ffffff"/>
    </g>
    <g clip-path="url(#p58d4f33a3d)">
     <use xlink:href="#C0_0_b812cc07fb" x="104.421687" y="143.1" style="fill: #f48948; stroke: #ffffff"/>
    </g>
    <g clip-path="url(#p58d4f33a3d)">
     <use xlink:href="#C0_0_b812cc07fb" x="106.720482" y="59.22" style="fill: #f3854b; stroke: #ffffff"/>
    </g>
    <g clip-path="url(#p58d4f33a3d)">
     <use xlink:href="#C0_0_b812cc07fb" x="109.019277" y="122.13" style="fill: #f0804e; stroke: #ffffff"/>
    </g>
    <g clip-path="url(#p58d4f33a3d)">
     <use xlink:href="#C0_0_b812cc07fb" x="111.318072" y="59.22" style="fill: #ef7c51; stroke: #ffffff"/>
    </g>
    <g clip-path="url(#p58d4f33a3d)">
     <use xlink:href="#C0_0_b812cc07fb" x="113.616867" y="59.22" style="fill: #ed7953; stroke: #ffffff"/>
    </g>
    <g clip-path="url(#p58d4f33a3d)">
     <use xlink:href="#C0_0_b812cc07fb" x="115.915663" y="69.705" style="fill: #eb7556; stroke: #ffffff"/>
    </g>
    <g clip-path="url(#p58d4f33a3d)">
     <use xlink:href="#C0_0_b812cc07fb" x="118.214458" y="122.13" style="fill: #e97158; stroke: #ffffff"/>
    </g>
    <g clip-path="url(#p58d4f33a3d)">
     <use xlink:href="#C0_0_b812cc07fb" x="120.513253" y="143.1" style="fill: #e76e5b; stroke: #ffffff"/>
    </g>
    <g clip-path="url(#p58d4f33a3d)">
     <use xlink:href="#C0_0_b812cc07fb" x="122.812048" y="122.13" style="fill: #e56a5d; stroke: #ffffff"/>
    </g>
    <g clip-path="url(#p58d4f33a3d)">
     <use xlink:href="#C0_0_b812cc07fb" x="125.110843" y="59.22" style="fill: #e26561; stroke: #ffffff"/>
    </g>
    <g clip-path="url(#p58d4f33a3d)">
     <use xlink:href="#C0_0_b812cc07fb" x="127.409639" y="122.13" style="fill: #df6263; stroke: #ffffff"/>
    </g>
    <g clip-path="url(#p58d4f33a3d)">
     <use xlink:href="#C0_0_b812cc07fb" x="129.708434" y="122.13" style="fill: #dd5e66; stroke: #ffffff"/>
    </g>
    <g clip-path="url(#p58d4f33a3d)">
     <use xlink:href="#C0_0_b812cc07fb" x="132.007229" y="122.13" style="fill: #da5b69; stroke: #ffffff"/>
    </g>
    <g clip-path="url(#p58d4f33a3d)">
     <use xlink:href="#C0_0_b812cc07fb" x="134.306024" y="122.13" style="fill: #d8576b; stroke: #ffffff"/>
    </g>
    <g clip-path="url(#p58d4f33a3d)">
     <use xlink:href="#C0_0_b812cc07fb" x="136.604819" y="143.1" style="fill: #d5546e; stroke: #ffffff"/>
    </g>
    <g clip-path="url(#p58d4f33a3d)">
     <use xlink:href="#C0_0_b812cc07fb" x="141.20241" y="122.13" style="fill: #d24f71; stroke: #ffffff"/>
    </g>
    <g clip-path="url(#p58d4f33a3d)">
     <use xlink:href="#C0_0_b812cc07fb" x="143.501205" y="122.13" style="fill: #cf4c74; stroke: #ffffff"/>
    </g>
    <g clip-path="url(#p58d4f33a3d)">
     <use xlink:href="#C0_0_b812cc07fb" x="145.8" y="174.555" style="fill: #cc4977; stroke: #ffffff"/>
    </g>
    <g clip-path="url(#p58d4f33a3d)">
     <use xlink:href="#C0_0_b812cc07fb" x="148.098795" y="174.555" style="fill: #ca457a; stroke: #ffffff"/>
    </g>
    <g clip-path="url(#p58d4f33a3d)">
     <use xlink:href="#C0_0_b812cc07fb" x="150.39759" y="174.555" style="fill: #c7427c; stroke: #ffffff"/>
    </g>
    <g clip-path="url(#p58d4f33a3d)">
     <use xlink:href="#C0_0_b812cc07fb" x="152.696386" y="174.555" style="fill: #c43e7f; stroke: #ffffff"/>
    </g>
    <g clip-path="url(#p58d4f33a3d)">
     <use xlink:href="#C0_0_b812cc07fb" x="154.995181" y="122.13" style="fill: #c03a83; stroke: #ffffff"/>
    </g>
    <g clip-path="url(#p58d4f33a3d)">
     <use xlink:href="#C0_0_b812cc07fb" x="157.293976" y="59.22" style="fill: #bd3786; stroke: #ffffff"/>
    </g>
    <g clip-path="url(#p58d4f33a3d)">
     <use xlink:href="#C0_0_b812cc07fb" x="159.592771" y="122.13" style="fill: #ba3388; stroke: #ffffff"/>
    </g>
    <g clip-path="url(#p58d4f33a3d)">
     <use xlink:href="#C0_0_b812cc07fb" x="161.891566" y="59.22" style="fill: #b6308b; stroke: #ffffff"/>
    </g>
    <g clip-path="url(#p58d4f33a3d)">
     <use xlink:href="#C0_0_b812cc07fb" x="164.190361" y="122.13" style="fill: #b32c8e; stroke: #ffffff"/>
    </g>
    <g clip-path="url(#p58d4f33a3d)">
     <use xlink:href="#C0_0_b812cc07fb" x="166.489157" y="122.13" style="fill: #b02991; stroke: #ffffff"/>
    </g>
    <g clip-path="url(#p58d4f33a3d)">
     <use xlink:href="#C0_0_b812cc07fb" x="168.787952" y="59.22" style="fill: #ab2494; stroke: #ffffff"/>
    </g>
    <g clip-path="url(#p58d4f33a3d)">
     <use xlink:href="#C0_0_b812cc07fb" x="171.086747" y="59.22" style="fill: #a72197; stroke: #ffffff"/>
    </g>
    <g clip-path="url(#p58d4f33a3d)">
     <use xlink:href="#C0_0_b812cc07fb" x="173.385542" y="122.13" style="fill: #a31e9a; stroke: #ffffff"/>
    </g>
    <g clip-path="url(#p58d4f33a3d)">
     <use xlink:href="#C0_0_b812cc07fb" x="175.684337" y="122.13" style="fill: #a01a9c; stroke: #ffffff"/>
    </g>
    <g clip-path="url(#p58d4f33a3d)">
     <use xlink:href="#C0_0_b812cc07fb" x="177.983133" y="122.13" style="fill: #9c179e; stroke: #ffffff"/>
    </g>
    <g clip-path="url(#p58d4f33a3d)">
     <use xlink:href="#C0_0_b812cc07fb" x="180.281928" y="122.13" style="fill: #9814a0; stroke: #ffffff"/>
    </g>
    <g clip-path="url(#p58d4f33a3d)">
     <use xlink:href="#C0_0_b812cc07fb" x="182.580723" y="122.13" style="fill: #9410a2; stroke: #ffffff"/>
    </g>
    <g clip-path="url(#p58d4f33a3d)">
     <use xlink:href="#C0_0_b812cc07fb" x="184.879518" y="122.13" style="fill: #8e0ca4; stroke: #ffffff"/>
    </g>
    <g clip-path="url(#p58d4f33a3d)">
     <use xlink:href="#C0_0_b812cc07fb" x="187.178313" y="122.13" style="fill: #8a09a5; stroke: #ffffff"/>
    </g>
    <g clip-path="url(#p58d4f33a3d)">
     <use xlink:href="#C0_0_b812cc07fb" x="189.477108" y="122.13" style="fill: #8606a6; stroke: #ffffff"/>
    </g>
    <g clip-path="url(#p58d4f33a3d)">
     <use xlink:href="#C0_0_b812cc07fb" x="191.775904" y="122.13" style="fill: #8104a7; stroke: #ffffff"/>
    </g>
    <g clip-path="url(#p58d4f33a3d)">
     <use xlink:href="#C0_0_b812cc07fb" x="194.074699" y="122.13" style="fill: #7d03a8; stroke: #ffffff"/>
    </g>
    <g clip-path="url(#p58d4f33a3d)">
     <use xlink:href="#C0_0_b812cc07fb" x="196.373494" y="122.13" style="fill: #7801a8; stroke: #ffffff"/>
    </g>
    <g clip-path="url(#p58d4f33a3d)">
     <use xlink:href="#C0_0_b812cc07fb" x="198.672289" y="122.13" style="fill: #7201a8; stroke: #ffffff"/>
    </g>
    <g clip-path="url(#p58d4f33a3d)">
     <use xlink:href="#C0_0_b812cc07fb" x="200.971084" y="122.13" style="fill: #6e00a8; stroke: #ffffff"/>
    </g>
    <g clip-path="url(#p58d4f33a3d)">
     <use xlink:href="#C0_0_b812cc07fb" x="203.26988" y="122.13" style="fill: #6900a8; stroke: #ffffff"/>
    </g>
    <g clip-path="url(#p58d4f33a3d)">
     <use xlink:href="#C0_0_b812cc07fb" x="205.568675" y="122.13" style="fill: #6400a7; stroke: #ffffff"/>
    </g>
    <g clip-path="url(#p58d4f33a3d)">
     <use xlink:href="#C0_0_b812cc07fb" x="207.86747" y="122.13" style="fill: #6001a6; stroke: #ffffff"/>
    </g>
    <g clip-path="url(#p58d4f33a3d)">
     <use xlink:href="#C0_0_b812cc07fb" x="210.166265" y="122.13" style="fill: #5b01a5; stroke: #ffffff"/>
    </g>
    <g clip-path="url(#p58d4f33a3d)">
     <use xlink:href="#C0_0_b812cc07fb" x="212.46506" y="122.13" style="fill: #5502a4; stroke: #ffffff"/>
    </g>
    <g clip-path="url(#p58d4f33a3d)">
     <use xlink:href="#C0_0_b812cc07fb" x="214.763855" y="122.13" style="fill: #5002a2; stroke: #ffffff"/>
    </g>
    <g clip-path="url(#p58d4f33a3d)">
     <use xlink:href="#C0_0_b812cc07fb" x="217.062651" y="122.13" style="fill: #4b03a1; stroke: #ffffff"/>
    </g>
    <g clip-path="url(#p58d4f33a3d)">
     <use xlink:href="#C0_0_b812cc07fb" x="219.361446" y="122.13" style="fill: #46039f; stroke: #ffffff"/>
    </g>
    <g clip-path="url(#p58d4f33a3d)">
     <use xlink:href="#C0_0_b812cc07fb" x="221.660241" y="122.13" style="fill: #41049d; stroke: #ffffff"/>
    </g>
    <g clip-path="url(#p58d4f33a3d)">
     <use xlink:href="#C0_0_b812cc07fb" x="223.959036" y="122.13" style="fill: #3c049b; stroke: #ffffff"/>
    </g>
    <g clip-path="url(#p58d4f33a3d)">
     <use xlink:href="#C0_0_b812cc07fb" x="226.257831" y="122.13" style="fill: #350498; stroke: #ffffff"/>
    </g>
    <g clip-path="url(#p58d4f33a3d)">
     <use xlink:href="#C0_0_b812cc07fb" x="228.556627" y="122.13" style="fill: #2f0596; stroke: #ffffff"/>
    </g>
    <g clip-path="url(#p58d4f33a3d)">
     <use xlink:href="#C0_0_b812cc07fb" x="230.855422" y="122.13" style="fill: #2a0593; stroke: #ffffff"/>
    </g>
    <g clip-path="url(#p58d4f33a3d)">
     <use xlink:href="#C0_0_b812cc07fb" x="233.154217" y="122.13" style="fill: #240691; stroke: #ffffff"/>
    </g>
    <g clip-path="url(#p58d4f33a3d)">
     <use xlink:href="#C0_0_b812cc07fb" x="235.453012" y="122.13" style="fill: #1d068e; stroke: #ffffff"/>
    </g>
    <g clip-path="url(#p58d4f33a3d)">
     <use xlink:href="#C0_0_b812cc07fb" x="237.751807" y="122.13" style="fill: #16078a; stroke: #ffffff"/>
    </g>
    <g clip-path="url(#p58d4f33a3d)">
     <use xlink:href="#C0_0_b812cc07fb" x="240.050602" y="122.13" style="fill: #0d0887; stroke: #ffffff"/>
    </g>
   </g>
   <g id="matplotlib.axis_1">
    <g id="xtick_1">
     <g id="line2d_1">
      <path d="M 118.214458 226.98 
L 118.214458 17.28 
" clip-path="url(#p58d4f33a3d)" style="fill: none; stroke-dasharray: 2.96,1.28; stroke-dashoffset: 0; stroke: #b0b0b0; stroke-opacity: 0.5; stroke-width: 0.8"/>
     </g>
     <g id="line2d_2">
      <defs>
       <path id="m86531e598c" d="M 0 0 
L 0 6 
" style="stroke: #000000; stroke-width: 1.5"/>
      </defs>
      <g>
       <use xlink:href="#m86531e598c" x="118.214458" y="226.98" style="stroke: #000000; stroke-width: 1.5"/>
      </g>
     </g>
     <g id="text_1">
      <!-- 30 -->
      <g transform="translate(108.20477 249.364062) scale(0.18 -0.18)">
       <defs>
        <path id="ArialMT-33" d="M 269 1209 
L 831 1284 
Q 928 806 1161 595 
Q 1394 384 1728 384 
Q 2125 384 2398 659 
Q 2672 934 2672 1341 
Q 2672 1728 2419 1979 
Q 2166 2231 1775 2231 
Q 1616 2231 1378 2169 
L 1441 2663 
Q 1497 2656 1531 2656 
Q 1891 2656 2178 2843 
Q 2466 3031 2466 3422 
Q 2466 3731 2256 3934 
Q 2047 4138 1716 4138 
Q 1388 4138 1169 3931 
Q 950 3725 888 3313 
L 325 3413 
Q 428 3978 793 4289 
Q 1159 4600 1703 4600 
Q 2078 4600 2393 4439 
Q 2709 4278 2876 4000 
Q 3044 3722 3044 3409 
Q 3044 3113 2884 2869 
Q 2725 2625 2413 2481 
Q 2819 2388 3044 2092 
Q 3269 1797 3269 1353 
Q 3269 753 2831 336 
Q 2394 -81 1725 -81 
Q 1122 -81 723 278 
Q 325 638 269 1209 
z
" transform="scale(0.015625)"/>
        <path id="ArialMT-30" d="M 266 2259 
Q 266 3072 433 3567 
Q 600 4063 929 4331 
Q 1259 4600 1759 4600 
Q 2128 4600 2406 4451 
Q 2684 4303 2865 4023 
Q 3047 3744 3150 3342 
Q 3253 2941 3253 2259 
Q 3253 1453 3087 958 
Q 2922 463 2592 192 
Q 2263 -78 1759 -78 
Q 1097 -78 719 397 
Q 266 969 266 2259 
z
M 844 2259 
Q 844 1131 1108 757 
Q 1372 384 1759 384 
Q 2147 384 2411 759 
Q 2675 1134 2675 2259 
Q 2675 3391 2411 3762 
Q 2147 4134 1753 4134 
Q 1366 4134 1134 3806 
Q 844 3388 844 2259 
z
" transform="scale(0.015625)"/>
       </defs>
       <use xlink:href="#ArialMT-33"/>
       <use xlink:href="#ArialMT-30" x="55.615234"/>
      </g>
     </g>
    </g>
    <g id="text_2">
     <!-- Trial -->
     <g transform="translate(125.779453 271.972969) scale(0.21 -0.21)">
      <defs>
       <path id="ArialMT-54" d="M 1659 0 
L 1659 4041 
L 150 4041 
L 150 4581 
L 3781 4581 
L 3781 4041 
L 2266 4041 
L 2266 0 
L 1659 0 
z
" transform="scale(0.015625)"/>
       <path id="ArialMT-72" d="M 416 0 
L 416 3319 
L 922 3319 
L 922 2816 
Q 1116 3169 1280 3281 
Q 1444 3394 1641 3394 
Q 1925 3394 2219 3213 
L 2025 2691 
Q 1819 2813 1613 2813 
Q 1428 2813 1281 2702 
Q 1134 2591 1072 2394 
Q 978 2094 978 1738 
L 978 0 
L 416 0 
z
" transform="scale(0.015625)"/>
       <path id="ArialMT-69" d="M 425 3934 
L 425 4581 
L 988 4581 
L 988 3934 
L 425 3934 
z
M 425 0 
L 425 3319 
L 988 3319 
L 988 0 
L 425 0 
z
" transform="scale(0.015625)"/>
       <path id="ArialMT-61" d="M 2588 409 
Q 2275 144 1986 34 
Q 1697 -75 1366 -75 
Q 819 -75 525 192 
Q 231 459 231 875 
Q 231 1119 342 1320 
Q 453 1522 633 1644 
Q 813 1766 1038 1828 
Q 1203 1872 1538 1913 
Q 2219 1994 2541 2106 
Q 2544 2222 2544 2253 
Q 2544 2597 2384 2738 
Q 2169 2928 1744 2928 
Q 1347 2928 1158 2789 
Q 969 2650 878 2297 
L 328 2372 
Q 403 2725 575 2942 
Q 747 3159 1072 3276 
Q 1397 3394 1825 3394 
Q 2250 3394 2515 3294 
Q 2781 3194 2906 3042 
Q 3031 2891 3081 2659 
Q 3109 2516 3109 2141 
L 3109 1391 
Q 3109 606 3145 398 
Q 3181 191 3288 0 
L 2700 0 
Q 2613 175 2588 409 
z
M 2541 1666 
Q 2234 1541 1622 1453 
Q 1275 1403 1131 1340 
Q 988 1278 909 1158 
Q 831 1038 831 891 
Q 831 666 1001 516 
Q 1172 366 1500 366 
Q 1825 366 2078 508 
Q 2331 650 2450 897 
Q 2541 1088 2541 1459 
L 2541 1666 
z
" transform="scale(0.015625)"/>
       <path id="ArialMT-6c" d="M 409 0 
L 409 4581 
L 972 4581 
L 972 0 
L 409 0 
z
" transform="scale(0.015625)"/>
      </defs>
      <use xlink:href="#ArialMT-54"/>
      <use xlink:href="#ArialMT-72" x="57.333984"/>
      <use xlink:href="#ArialMT-69" x="90.634766"/>
      <use xlink:href="#ArialMT-61" x="112.851562"/>
      <use xlink:href="#ArialMT-6c" x="168.466797"/>
     </g>
    </g>
   </g>
   <g id="matplotlib.axis_2">
    <g id="ytick_1">
     <g id="line2d_3">
      <path d="M 50.4 226.98 
L 241.2 226.98 
" clip-path="url(#p58d4f33a3d)" style="fill: none; stroke-dasharray: 2.96,1.28; stroke-dashoffset: 0; stroke: #b0b0b0; stroke-opacity: 0.5; stroke-width: 0.8"/>
     </g>
     <g id="line2d_4">
      <defs>
       <path id="ma1619f735c" d="M 0 0 
L -6 0 
" style="stroke: #000000; stroke-width: 1.5"/>
      </defs>
      <g>
       <use xlink:href="#ma1619f735c" x="50.4" y="226.98" style="stroke: #000000; stroke-width: 1.5"/>
      </g>
     </g>
     <g id="text_3">
      <!-- 0 -->
      <g transform="translate(30.890313 233.422031) scale(0.18 -0.18)">
       <use xlink:href="#ArialMT-30"/>
      </g>
     </g>
    </g>
    <g id="ytick_2">
     <g id="line2d_5">
      <path d="M 50.4 122.13 
L 241.2 122.13 
" clip-path="url(#p58d4f33a3d)" style="fill: none; stroke-dasharray: 2.96,1.28; stroke-dashoffset: 0; stroke: #b0b0b0; stroke-opacity: 0.5; stroke-width: 0.8"/>
     </g>
     <g id="line2d_6">
      <g>
       <use xlink:href="#ma1619f735c" x="50.4" y="122.13" style="stroke: #000000; stroke-width: 1.5"/>
      </g>
     </g>
     <g id="text_4">
      <!-- 0.5 -->
      <g transform="translate(15.88 128.572031) scale(0.18 -0.18)">
       <defs>
        <path id="ArialMT-2e" d="M 581 0 
L 581 641 
L 1222 641 
L 1222 0 
L 581 0 
z
" transform="scale(0.015625)"/>
        <path id="ArialMT-35" d="M 266 1200 
L 856 1250 
Q 922 819 1161 601 
Q 1400 384 1738 384 
Q 2144 384 2425 690 
Q 2706 997 2706 1503 
Q 2706 1984 2436 2262 
Q 2166 2541 1728 2541 
Q 1456 2541 1237 2417 
Q 1019 2294 894 2097 
L 366 2166 
L 809 4519 
L 3088 4519 
L 3088 3981 
L 1259 3981 
L 1013 2750 
Q 1425 3038 1878 3038 
Q 2478 3038 2890 2622 
Q 3303 2206 3303 1553 
Q 3303 931 2941 478 
Q 2500 -78 1738 -78 
Q 1113 -78 717 272 
Q 322 622 266 1200 
z
" transform="scale(0.015625)"/>
       </defs>
       <use xlink:href="#ArialMT-30"/>
       <use xlink:href="#ArialMT-2e" x="55.615234"/>
       <use xlink:href="#ArialMT-35" x="83.398438"/>
      </g>
     </g>
    </g>
    <g id="ytick_3">
     <g id="line2d_7">
      <path d="M 50.4 17.28 
L 241.2 17.28 
" clip-path="url(#p58d4f33a3d)" style="fill: none; stroke-dasharray: 2.96,1.28; stroke-dashoffset: 0; stroke: #b0b0b0; stroke-opacity: 0.5; stroke-width: 0.8"/>
     </g>
     <g id="line2d_8">
      <g>
       <use xlink:href="#ma1619f735c" x="50.4" y="17.28" style="stroke: #000000; stroke-width: 1.5"/>
      </g>
     </g>
     <g id="text_5">
      <!-- 1 -->
      <g transform="translate(30.890313 23.722031) scale(0.18 -0.18)">
       <defs>
        <path id="ArialMT-31" d="M 2384 0 
L 1822 0 
L 1822 3584 
Q 1619 3391 1289 3197 
Q 959 3003 697 2906 
L 697 3450 
Q 1169 3672 1522 3987 
Q 1875 4303 2022 4600 
L 2384 4600 
L 2384 0 
z
" transform="scale(0.015625)"/>
       </defs>
       <use xlink:href="#ArialMT-31"/>
      </g>
     </g>
    </g>
   </g>
   <g id="LineCollection_1">
    <path d="M 51.549398 122.13 
L 53.848193 69.705 
" clip-path="url(#p58d4f33a3d)" style="fill: none; stroke: #f0f921; stroke-width: 2"/>
    <path d="M 53.848193 69.705 
L 56.146988 122.13 
" clip-path="url(#p58d4f33a3d)" style="fill: none; stroke: #f1f426; stroke-width: 2"/>
    <path d="M 56.146988 122.13 
L 58.445783 69.705 
" clip-path="url(#p58d4f33a3d)" style="fill: none; stroke: #f3ee27; stroke-width: 2"/>
    <path d="M 58.445783 69.705 
L 60.744578 69.705 
" clip-path="url(#p58d4f33a3d)" style="fill: none; stroke: #f5e926; stroke-width: 2"/>
    <path d="M 60.744578 69.705 
L 63.043373 69.705 
" clip-path="url(#p58d4f33a3d)" style="fill: none; stroke: #f7e425; stroke-width: 2"/>
    <path d="M 63.043373 69.705 
L 65.342169 69.705 
" clip-path="url(#p58d4f33a3d)" style="fill: none; stroke: #f9dd25; stroke-width: 2"/>
    <path d="M 65.342169 69.705 
L 67.640964 69.705 
" clip-path="url(#p58d4f33a3d)" style="fill: none; stroke: #fad824; stroke-width: 2"/>
    <path d="M 67.640964 69.705 
L 69.939759 69.705 
" clip-path="url(#p58d4f33a3d)" style="fill: none; stroke: #fbd324; stroke-width: 2"/>
    <path d="M 69.939759 69.705 
L 72.238554 69.705 
" clip-path="url(#p58d4f33a3d)" style="fill: none; stroke: #fcce25; stroke-width: 2"/>
    <path d="M 72.238554 69.705 
L 74.537349 174.555 
" clip-path="url(#p58d4f33a3d)" style="fill: none; stroke: #fdca26; stroke-width: 2"/>
    <path d="M 74.537349 174.555 
L 76.836145 174.555 
" clip-path="url(#p58d4f33a3d)" style="fill: none; stroke: #fdc328; stroke-width: 2"/>
    <path d="M 76.836145 174.555 
L 79.13494 69.705 
" clip-path="url(#p58d4f33a3d)" style="fill: none; stroke: #febe2a; stroke-width: 2"/>
    <path d="M 79.13494 69.705 
L 81.433735 174.555 
" clip-path="url(#p58d4f33a3d)" style="fill: none; stroke: #feba2c; stroke-width: 2"/>
    <path d="M 81.433735 174.555 
L 83.73253 69.705 
" clip-path="url(#p58d4f33a3d)" style="fill: none; stroke: #fdb52e; stroke-width: 2"/>
    <path d="M 83.73253 69.705 
L 86.031325 69.705 
" clip-path="url(#p58d4f33a3d)" style="fill: none; stroke: #fdb130; stroke-width: 2"/>
    <path d="M 86.031325 69.705 
L 88.33012 143.1 
" clip-path="url(#p58d4f33a3d)" style="fill: none; stroke: #fdab33; stroke-width: 2"/>
    <path d="M 88.33012 143.1 
L 90.628916 143.1 
" clip-path="url(#p58d4f33a3d)" style="fill: none; stroke: #fca636; stroke-width: 2"/>
    <path d="M 90.628916 143.1 
L 92.927711 59.22 
" clip-path="url(#p58d4f33a3d)" style="fill: none; stroke: #fba238; stroke-width: 2"/>
    <path d="M 92.927711 59.22 
L 95.226506 143.1 
" clip-path="url(#p58d4f33a3d)" style="fill: none; stroke: #fa9e3b; stroke-width: 2"/>
    <path d="M 95.226506 143.1 
L 97.525301 69.705 
" clip-path="url(#p58d4f33a3d)" style="fill: none; stroke: #f99a3e; stroke-width: 2"/>
    <path d="M 97.525301 69.705 
L 99.824096 69.705 
" clip-path="url(#p58d4f33a3d)" style="fill: none; stroke: #f89441; stroke-width: 2"/>
    <path d="M 99.824096 69.705 
L 102.122892 69.705 
" clip-path="url(#p58d4f33a3d)" style="fill: none; stroke: #f79044; stroke-width: 2"/>
    <path d="M 102.122892 69.705 
L 104.421687 143.1 
" clip-path="url(#p58d4f33a3d)" style="fill: none; stroke: #f58c46; stroke-width: 2"/>
    <path d="M 104.421687 143.1 
L 106.720482 59.22 
" clip-path="url(#p58d4f33a3d)" style="fill: none; stroke: #f48849; stroke-width: 2"/>
    <path d="M 106.720482 59.22 
L 109.019277 122.13 
" clip-path="url(#p58d4f33a3d)" style="fill: none; stroke: #f2844b; stroke-width: 2"/>
    <path d="M 109.019277 122.13 
L 111.318072 59.22 
" clip-path="url(#p58d4f33a3d)" style="fill: none; stroke: #f07f4f; stroke-width: 2"/>
    <path d="M 111.318072 59.22 
L 113.616867 59.22 
" clip-path="url(#p58d4f33a3d)" style="fill: none; stroke: #ee7b51; stroke-width: 2"/>
    <path d="M 113.616867 59.22 
L 115.915663 69.705 
" clip-path="url(#p58d4f33a3d)" style="fill: none; stroke: #ec7754; stroke-width: 2"/>
    <path d="M 115.915663 69.705 
L 118.214458 122.13 
" clip-path="url(#p58d4f33a3d)" style="fill: none; stroke: #ea7457; stroke-width: 2"/>
    <path d="M 118.214458 122.13 
L 120.513253 143.1 
" clip-path="url(#p58d4f33a3d)" style="fill: none; stroke: #e87059; stroke-width: 2"/>
    <path d="M 120.513253 143.1 
L 122.812048 122.13 
" clip-path="url(#p58d4f33a3d)" style="fill: none; stroke: #e56b5d; stroke-width: 2"/>
    <path d="M 122.812048 122.13 
L 125.110843 59.22 
" clip-path="url(#p58d4f33a3d)" style="fill: none; stroke: #e3685f; stroke-width: 2"/>
    <path d="M 125.110843 59.22 
L 127.409639 122.13 
" clip-path="url(#p58d4f33a3d)" style="fill: none; stroke: #e16462; stroke-width: 2"/>
    <path d="M 127.409639 122.13 
L 129.708434 122.13 
" clip-path="url(#p58d4f33a3d)" style="fill: none; stroke: #de6164; stroke-width: 2"/>
    <path d="M 129.708434 122.13 
L 132.007229 122.13 
" clip-path="url(#p58d4f33a3d)" style="fill: none; stroke: #dc5d67; stroke-width: 2"/>
    <path d="M 132.007229 122.13 
L 134.306024 122.13 
" clip-path="url(#p58d4f33a3d)" style="fill: none; stroke: #d9586a; stroke-width: 2"/>
    <path d="M 134.306024 122.13 
L 136.604819 143.1 
" clip-path="url(#p58d4f33a3d)" style="fill: none; stroke: #d6556d; stroke-width: 2"/>
    <path d="M 136.604819 143.1 
L 141.20241 122.13 
" clip-path="url(#p58d4f33a3d)" style="fill: none; stroke: #d45270; stroke-width: 2"/>
    <path d="M 141.20241 122.13 
L 143.501205 122.13 
" clip-path="url(#p58d4f33a3d)" style="fill: none; stroke: #d14e72; stroke-width: 2"/>
    <path d="M 143.501205 122.13 
L 145.8 174.555 
" clip-path="url(#p58d4f33a3d)" style="fill: none; stroke: #ce4b75; stroke-width: 2"/>
    <path d="M 145.8 174.555 
L 148.098795 174.555 
" clip-path="url(#p58d4f33a3d)" style="fill: none; stroke: #cb4679; stroke-width: 2"/>
    <path d="M 148.098795 174.555 
L 150.39759 174.555 
" clip-path="url(#p58d4f33a3d)" style="fill: none; stroke: #c8437b; stroke-width: 2"/>
    <path d="M 150.39759 174.555 
L 152.696386 174.555 
" clip-path="url(#p58d4f33a3d)" style="fill: none; stroke: #c5407e; stroke-width: 2"/>
    <path d="M 152.696386 174.555 
L 154.995181 122.13 
" clip-path="url(#p58d4f33a3d)" style="fill: none; stroke: #c23c81; stroke-width: 2"/>
    <path d="M 154.995181 122.13 
L 157.293976 59.22 
" clip-path="url(#p58d4f33a3d)" style="fill: none; stroke: #bf3984; stroke-width: 2"/>
    <path d="M 157.293976 59.22 
L 159.592771 122.13 
" clip-path="url(#p58d4f33a3d)" style="fill: none; stroke: #bb3488; stroke-width: 2"/>
    <path d="M 159.592771 122.13 
L 161.891566 59.22 
" clip-path="url(#p58d4f33a3d)" style="fill: none; stroke: #b7318a; stroke-width: 2"/>
    <path d="M 161.891566 59.22 
L 164.190361 122.13 
" clip-path="url(#p58d4f33a3d)" style="fill: none; stroke: #b42e8d; stroke-width: 2"/>
    <path d="M 164.190361 122.13 
L 166.489157 122.13 
" clip-path="url(#p58d4f33a3d)" style="fill: none; stroke: #b12a90; stroke-width: 2"/>
    <path d="M 166.489157 122.13 
L 168.787952 59.22 
" clip-path="url(#p58d4f33a3d)" style="fill: none; stroke: #ad2793; stroke-width: 2"/>
    <path d="M 168.787952 59.22 
L 171.086747 59.22 
" clip-path="url(#p58d4f33a3d)" style="fill: none; stroke: #a82296; stroke-width: 2"/>
    <path d="M 171.086747 59.22 
L 173.385542 122.13 
" clip-path="url(#p58d4f33a3d)" style="fill: none; stroke: #a51f99; stroke-width: 2"/>
    <path d="M 173.385542 122.13 
L 175.684337 122.13 
" clip-path="url(#p58d4f33a3d)" style="fill: none; stroke: #a11b9b; stroke-width: 2"/>
    <path d="M 175.684337 122.13 
L 177.983133 122.13 
" clip-path="url(#p58d4f33a3d)" style="fill: none; stroke: #9d189d; stroke-width: 2"/>
    <path d="M 177.983133 122.13 
L 180.281928 122.13 
" clip-path="url(#p58d4f33a3d)" style="fill: none; stroke: #99159f; stroke-width: 2"/>
    <path d="M 180.281928 122.13 
L 182.580723 122.13 
" clip-path="url(#p58d4f33a3d)" style="fill: none; stroke: #9410a2; stroke-width: 2"/>
    <path d="M 182.580723 122.13 
L 184.879518 122.13 
" clip-path="url(#p58d4f33a3d)" style="fill: none; stroke: #8f0da4; stroke-width: 2"/>
    <path d="M 184.879518 122.13 
L 187.178313 122.13 
" clip-path="url(#p58d4f33a3d)" style="fill: none; stroke: #8b0aa5; stroke-width: 2"/>
    <path d="M 187.178313 122.13 
L 189.477108 122.13 
" clip-path="url(#p58d4f33a3d)" style="fill: none; stroke: #8707a6; stroke-width: 2"/>
    <path d="M 189.477108 122.13 
L 191.775904 122.13 
" clip-path="url(#p58d4f33a3d)" style="fill: none; stroke: #8305a7; stroke-width: 2"/>
    <path d="M 191.775904 122.13 
L 194.074699 122.13 
" clip-path="url(#p58d4f33a3d)" style="fill: none; stroke: #7d03a8; stroke-width: 2"/>
    <path d="M 194.074699 122.13 
L 196.373494 122.13 
" clip-path="url(#p58d4f33a3d)" style="fill: none; stroke: #7801a8; stroke-width: 2"/>
    <path d="M 196.373494 122.13 
L 198.672289 122.13 
" clip-path="url(#p58d4f33a3d)" style="fill: none; stroke: #7401a8; stroke-width: 2"/>
    <path d="M 198.672289 122.13 
L 200.971084 122.13 
" clip-path="url(#p58d4f33a3d)" style="fill: none; stroke: #6f00a8; stroke-width: 2"/>
    <path d="M 200.971084 122.13 
L 203.26988 122.13 
" clip-path="url(#p58d4f33a3d)" style="fill: none; stroke: #6a00a8; stroke-width: 2"/>
    <path d="M 203.26988 122.13 
L 205.568675 122.13 
" clip-path="url(#p58d4f33a3d)" style="fill: none; stroke: #6400a7; stroke-width: 2"/>
    <path d="M 205.568675 122.13 
L 207.86747 122.13 
" clip-path="url(#p58d4f33a3d)" style="fill: none; stroke: #6001a6; stroke-width: 2"/>
    <path d="M 207.86747 122.13 
L 210.166265 122.13 
" clip-path="url(#p58d4f33a3d)" style="fill: none; stroke: #5b01a5; stroke-width: 2"/>
    <path d="M 210.166265 122.13 
L 212.46506 122.13 
" clip-path="url(#p58d4f33a3d)" style="fill: none; stroke: #5601a4; stroke-width: 2"/>
    <path d="M 212.46506 122.13 
L 214.763855 122.13 
" clip-path="url(#p58d4f33a3d)" style="fill: none; stroke: #5102a3; stroke-width: 2"/>
    <path d="M 214.763855 122.13 
L 217.062651 122.13 
" clip-path="url(#p58d4f33a3d)" style="fill: none; stroke: #4b03a1; stroke-width: 2"/>
    <path d="M 217.062651 122.13 
L 219.361446 122.13 
" clip-path="url(#p58d4f33a3d)" style="fill: none; stroke: #46039f; stroke-width: 2"/>
    <path d="M 219.361446 122.13 
L 221.660241 122.13 
" clip-path="url(#p58d4f33a3d)" style="fill: none; stroke: #41049d; stroke-width: 2"/>
    <path d="M 221.660241 122.13 
L 223.959036 122.13 
" clip-path="url(#p58d4f33a3d)" style="fill: none; stroke: #3c049b; stroke-width: 2"/>
    <path d="M 223.959036 122.13 
L 226.257831 122.13 
" clip-path="url(#p58d4f33a3d)" style="fill: none; stroke: #370499; stroke-width: 2"/>
    <path d="M 226.257831 122.13 
L 228.556627 122.13 
" clip-path="url(#p58d4f33a3d)" style="fill: none; stroke: #2f0596; stroke-width: 2"/>
    <path d="M 228.556627 122.13 
L 230.855422 122.13 
" clip-path="url(#p58d4f33a3d)" style="fill: none; stroke: #2a0593; stroke-width: 2"/>
    <path d="M 230.855422 122.13 
L 233.154217 122.13 
" clip-path="url(#p58d4f33a3d)" style="fill: none; stroke: #240691; stroke-width: 2"/>
    <path d="M 233.154217 122.13 
L 235.453012 122.13 
" clip-path="url(#p58d4f33a3d)" style="fill: none; stroke: #1d068e; stroke-width: 2"/>
    <path d="M 235.453012 122.13 
L 237.751807 122.13 
" clip-path="url(#p58d4f33a3d)" style="fill: none; stroke: #16078a; stroke-width: 2"/>
    <path d="M 237.751807 122.13 
L 240.050602 122.13 
" clip-path="url(#p58d4f33a3d)" style="fill: none; stroke: #0d0887; stroke-width: 2"/>
   </g>
   <g id="patch_3">
    <path d="M 50.4 226.98 
L 50.4 17.28 
" style="fill: none; stroke: #000000; stroke-width: 2; stroke-linejoin: miter; stroke-linecap: square"/>
   </g>
   <g id="patch_4">
    <path d="M 241.2 226.98 
L 241.2 17.28 
" style="fill: none; stroke: #000000; stroke-width: 2; stroke-linejoin: miter; stroke-linecap: square"/>
   </g>
   <g id="patch_5">
    <path d="M 50.4 226.98 
L 241.2 226.98 
" style="fill: none; stroke: #000000; stroke-width: 2; stroke-linejoin: miter; stroke-linecap: square"/>
   </g>
   <g id="patch_6">
    <path d="M 50.4 17.28 
L 241.2 17.28 
" style="fill: none; stroke: #000000; stroke-width: 2; stroke-linejoin: miter; stroke-linecap: square"/>
   </g>
   <g id="text_6">
    <!-- feat$_4$ -->
    <g transform="translate(186.3 42.796406) scale(0.21 -0.21)">
     <defs>
      <path id="ArialMT-66" d="M 556 0 
L 556 2881 
L 59 2881 
L 59 3319 
L 556 3319 
L 556 3672 
Q 556 4006 616 4169 
Q 697 4388 901 4523 
Q 1106 4659 1475 4659 
Q 1713 4659 2000 4603 
L 1916 4113 
Q 1741 4144 1584 4144 
Q 1328 4144 1222 4034 
Q 1116 3925 1116 3625 
L 1116 3319 
L 1763 3319 
L 1763 2881 
L 1116 2881 
L 1116 0 
L 556 0 
z
" transform="scale(0.015625)"/>
      <path id="ArialMT-65" d="M 2694 1069 
L 3275 997 
Q 3138 488 2766 206 
Q 2394 -75 1816 -75 
Q 1088 -75 661 373 
Q 234 822 234 1631 
Q 234 2469 665 2931 
Q 1097 3394 1784 3394 
Q 2450 3394 2872 2941 
Q 3294 2488 3294 1666 
Q 3294 1616 3291 1516 
L 816 1516 
Q 847 969 1125 678 
Q 1403 388 1819 388 
Q 2128 388 2347 550 
Q 2566 713 2694 1069 
z
M 847 1978 
L 2700 1978 
Q 2663 2397 2488 2606 
Q 2219 2931 1791 2931 
Q 1403 2931 1139 2672 
Q 875 2413 847 1978 
z
" transform="scale(0.015625)"/>
      <path id="ArialMT-74" d="M 1650 503 
L 1731 6 
Q 1494 -44 1306 -44 
Q 1000 -44 831 53 
Q 663 150 594 308 
Q 525 466 525 972 
L 525 2881 
L 113 2881 
L 113 3319 
L 525 3319 
L 525 4141 
L 1084 4478 
L 1084 3319 
L 1650 3319 
L 1650 2881 
L 1084 2881 
L 1084 941 
Q 1084 700 1114 631 
Q 1144 563 1211 522 
Q 1278 481 1403 481 
Q 1497 481 1650 503 
z
" transform="scale(0.015625)"/>
      <path id="DejaVuSans-34" d="M 2419 4116 
L 825 1625 
L 2419 1625 
L 2419 4116 
z
M 2253 4666 
L 3047 4666 
L 3047 1625 
L 3713 1625 
L 3713 1100 
L 3047 1100 
L 3047 0 
L 2419 0 
L 2419 1100 
L 313 1100 
L 313 1709 
L 2253 4666 
z
" transform="scale(0.015625)"/>
     </defs>
     <use xlink:href="#ArialMT-66" transform="translate(0 0.203125)"/>
     <use xlink:href="#ArialMT-65" transform="translate(27.783203 0.203125)"/>
     <use xlink:href="#ArialMT-61" transform="translate(83.398438 0.203125)"/>
     <use xlink:href="#ArialMT-74" transform="translate(139.013672 0.203125)"/>
     <use xlink:href="#DejaVuSans-34" transform="translate(167.753906 -16.203125) scale(0.7)"/>
    </g>
   </g>
  </g>
 </g>
 <defs>
  <clipPath id="p58d4f33a3d">
   <rect x="50.4" y="17.28" width="190.8" height="209.7"/>
  </clipPath>
 </defs>
</svg>
