<?xml version="1.0" encoding="utf-8" standalone="no"?>
<!DOCTYPE svg PUBLIC "-//W3C//DTD SVG 1.1//EN"
  "http://www.w3.org/Graphics/SVG/1.1/DTD/svg11.dtd">
<svg xmlns:xlink="http://www.w3.org/1999/xlink" width="252pt" height="288pt" viewBox="0 0 252 288" xmlns="http://www.w3.org/2000/svg" version="1.1">
 <metadata>
  <rdf:RDF xmlns:dc="http://purl.org/dc/elements/1.1/" xmlns:cc="http://creativecommons.org/ns#" xmlns:rdf="http://www.w3.org/1999/02/22-rdf-syntax-ns#">
   <cc:Work>
    <dc:type rdf:resource="http://purl.org/dc/dcmitype/StillImage"/>
    <dc:date>2025-05-11T11:41:55.016722</dc:date>
    <dc:format>image/svg+xml</dc:format>
    <dc:creator>
     <cc:Agent>
      <dc:title>Matplotlib v3.8.4, https://matplotlib.org/</dc:title>
     </cc:Agent>
    </dc:creator>
   </cc:Work>
  </rdf:RDF>
 </metadata>
 <defs>
  <style type="text/css">*{stroke-linejoin: round; stroke-linecap: butt}</style>
 </defs>
 <g id="figure_1">
  <g id="patch_1">
   <path d="M 0 288 
L 252 288 
L 252 0 
L 0 0 
L 0 288 
z
" style="fill: none"/>
  </g>
  <g id="axes_1">
   <g id="patch_2">
    <path d="M 50.4 214.02 
L 223.002478 214.02 
L 223.002478 20.16 
L 50.4 20.16 
L 50.4 214.02 
z
" style="fill: none"/>
   </g>
   <g id="PathCollection_1">
    <defs>
     <path id="C0_0_532ab04947" d="M 0 2.738613 
C 0.726289 2.738613 1.422928 2.450055 1.936492 1.936492 
C 2.450055 1.422928 2.738613 0.726289 2.738613 -0 
C 2.738613 -0.726289 2.450055 -1.422928 1.936492 -1.936492 
C 1.422928 -2.450055 0.726289 -2.738613 0 -2.738613 
C -0.726289 -2.738613 -1.422928 -2.450055 -1.936492 -1.936492 
C -2.450055 -1.422928 -2.738613 -0.726289 -2.738613 0 
C -2.738613 0.726289 -2.450055 1.422928 -1.936492 1.936492 
C -1.422928 2.450055 -0.726289 2.738613 0 2.738613 
z
"/>
    </defs>
    <g clip-path="url(#pdee41f33dc)">
     <use xlink:href="#C0_0_532ab04947" x="51.163728" y="117.09" style="fill: #f0f921; stroke: #ffffff"/>
    </g>
    <g clip-path="url(#pdee41f33dc)">
     <use xlink:href="#C0_0_532ab04947" x="52.691183" y="68.625" style="fill: #f1f525; stroke: #ffffff"/>
    </g>
    <g clip-path="url(#pdee41f33dc)">
     <use xlink:href="#C0_0_532ab04947" x="54.218639" y="117.09" style="fill: #f2f227; stroke: #ffffff"/>
    </g>
    <g clip-path="url(#pdee41f33dc)">
     <use xlink:href="#C0_0_532ab04947" x="55.746094" y="68.625" style="fill: #f3ee27; stroke: #ffffff"/>
    </g>
    <g clip-path="url(#pdee41f33dc)">
     <use xlink:href="#C0_0_532ab04947" x="57.27355" y="68.625" style="fill: #f5e926; stroke: #ffffff"/>
    </g>
    <g clip-path="url(#pdee41f33dc)">
     <use xlink:href="#C0_0_532ab04947" x="58.801006" y="68.625" style="fill: #f6e626; stroke: #ffffff"/>
    </g>
    <g clip-path="url(#pdee41f33dc)">
     <use xlink:href="#C0_0_532ab04947" x="60.328461" y="68.625" style="fill: #f7e225; stroke: #ffffff"/>
    </g>
    <g clip-path="url(#pdee41f33dc)">
     <use xlink:href="#C0_0_532ab04947" x="61.855917" y="68.625" style="fill: #f9dd25; stroke: #ffffff"/>
    </g>
    <g clip-path="url(#pdee41f33dc)">
     <use xlink:href="#C0_0_532ab04947" x="63.383372" y="68.625" style="fill: #fada24; stroke: #ffffff"/>
    </g>
    <g clip-path="url(#pdee41f33dc)">
     <use xlink:href="#C0_0_532ab04947" x="64.910828" y="68.625" style="fill: #fbd724; stroke: #ffffff"/>
    </g>
    <g clip-path="url(#pdee41f33dc)">
     <use xlink:href="#C0_0_532ab04947" x="66.438283" y="165.555" style="fill: #fcd225; stroke: #ffffff"/>
    </g>
    <g clip-path="url(#pdee41f33dc)">
     <use xlink:href="#C0_0_532ab04947" x="67.965739" y="165.555" style="fill: #fcce25; stroke: #ffffff"/>
    </g>
    <g clip-path="url(#pdee41f33dc)">
     <use xlink:href="#C0_0_532ab04947" x="69.493194" y="68.625" style="fill: #fdcb26; stroke: #ffffff"/>
    </g>
    <g clip-path="url(#pdee41f33dc)">
     <use xlink:href="#C0_0_532ab04947" x="71.02065" y="165.555" style="fill: #fdc827; stroke: #ffffff"/>
    </g>
    <g clip-path="url(#pdee41f33dc)">
     <use xlink:href="#C0_0_532ab04947" x="72.548106" y="68.625" style="fill: #fdc328; stroke: #ffffff"/>
    </g>
    <g clip-path="url(#pdee41f33dc)">
     <use xlink:href="#C0_0_532ab04947" x="74.075561" y="68.625" style="fill: #fec029; stroke: #ffffff"/>
    </g>
    <g clip-path="url(#pdee41f33dc)">
     <use xlink:href="#C0_0_532ab04947" x="75.603017" y="136.476" style="fill: #febd2a; stroke: #ffffff"/>
    </g>
    <g clip-path="url(#pdee41f33dc)">
     <use xlink:href="#C0_0_532ab04947" x="77.130472" y="136.476" style="fill: #feb82c; stroke: #ffffff"/>
    </g>
    <g clip-path="url(#pdee41f33dc)">
     <use xlink:href="#C0_0_532ab04947" x="78.657928" y="58.932" style="fill: #fdb52e; stroke: #ffffff"/>
    </g>
    <g clip-path="url(#pdee41f33dc)">
     <use xlink:href="#C0_0_532ab04947" x="80.185383" y="136.476" style="fill: #fdb22f; stroke: #ffffff"/>
    </g>
    <g clip-path="url(#pdee41f33dc)">
     <use xlink:href="#C0_0_532ab04947" x="81.712839" y="68.625" style="fill: #fdae32; stroke: #ffffff"/>
    </g>
    <g clip-path="url(#pdee41f33dc)">
     <use xlink:href="#C0_0_532ab04947" x="83.240294" y="68.625" style="fill: #fdab33; stroke: #ffffff"/>
    </g>
    <g clip-path="url(#pdee41f33dc)">
     <use xlink:href="#C0_0_532ab04947" x="84.76775" y="68.625" style="fill: #fca835; stroke: #ffffff"/>
    </g>
    <g clip-path="url(#pdee41f33dc)">
     <use xlink:href="#C0_0_532ab04947" x="86.295206" y="136.476" style="fill: #fca338; stroke: #ffffff"/>
    </g>
    <g clip-path="url(#pdee41f33dc)">
     <use xlink:href="#C0_0_532ab04947" x="87.822661" y="58.932" style="fill: #fba139; stroke: #ffffff"/>
    </g>
    <g clip-path="url(#pdee41f33dc)">
     <use xlink:href="#C0_0_532ab04947" x="89.350117" y="117.09" style="fill: #fa9e3b; stroke: #ffffff"/>
    </g>
    <g clip-path="url(#pdee41f33dc)">
     <use xlink:href="#C0_0_532ab04947" x="90.877572" y="58.932" style="fill: #fa9b3d; stroke: #ffffff"/>
    </g>
    <g clip-path="url(#pdee41f33dc)">
     <use xlink:href="#C0_0_532ab04947" x="92.405028" y="58.932" style="fill: #f9973f; stroke: #ffffff"/>
    </g>
    <g clip-path="url(#pdee41f33dc)">
     <use xlink:href="#C0_0_532ab04947" x="93.932483" y="68.625" style="fill: #f89441; stroke: #ffffff"/>
    </g>
    <g clip-path="url(#pdee41f33dc)">
     <use xlink:href="#C0_0_532ab04947" x="95.459939" y="117.09" style="fill: #f79143; stroke: #ffffff"/>
    </g>
    <g clip-path="url(#pdee41f33dc)">
     <use xlink:href="#C0_0_532ab04947" x="96.987394" y="136.476" style="fill: #f68d45; stroke: #ffffff"/>
    </g>
    <g clip-path="url(#pdee41f33dc)">
     <use xlink:href="#C0_0_532ab04947" x="98.51485" y="117.09" style="fill: #f58b47; stroke: #ffffff"/>
    </g>
    <g clip-path="url(#pdee41f33dc)">
     <use xlink:href="#C0_0_532ab04947" x="100.042306" y="58.932" style="fill: #f48849; stroke: #ffffff"/>
    </g>
    <g clip-path="url(#pdee41f33dc)">
     <use xlink:href="#C0_0_532ab04947" x="101.569761" y="117.09" style="fill: #f2844b; stroke: #ffffff"/>
    </g>
    <g clip-path="url(#pdee41f33dc)">
     <use xlink:href="#C0_0_532ab04947" x="103.097217" y="117.09" style="fill: #f1814d; stroke: #ffffff"/>
    </g>
    <g clip-path="url(#pdee41f33dc)">
     <use xlink:href="#C0_0_532ab04947" x="104.624672" y="117.09" style="fill: #f07f4f; stroke: #ffffff"/>
    </g>
    <g clip-path="url(#pdee41f33dc)">
     <use xlink:href="#C0_0_532ab04947" x="106.152128" y="117.09" style="fill: #ee7b51; stroke: #ffffff"/>
    </g>
    <g clip-path="url(#pdee41f33dc)">
     <use xlink:href="#C0_0_532ab04947" x="107.679583" y="136.476" style="fill: #ed7953; stroke: #ffffff"/>
    </g>
    <g clip-path="url(#pdee41f33dc)">
     <use xlink:href="#C0_0_532ab04947" x="110.734494" y="117.09" style="fill: #eb7655; stroke: #ffffff"/>
    </g>
    <g clip-path="url(#pdee41f33dc)">
     <use xlink:href="#C0_0_532ab04947" x="112.26195" y="117.09" style="fill: #ea7457; stroke: #ffffff"/>
    </g>
    <g clip-path="url(#pdee41f33dc)">
     <use xlink:href="#C0_0_532ab04947" x="113.789406" y="165.555" style="fill: #e87059; stroke: #ffffff"/>
    </g>
    <g clip-path="url(#pdee41f33dc)">
     <use xlink:href="#C0_0_532ab04947" x="115.316861" y="165.555" style="fill: #e76e5b; stroke: #ffffff"/>
    </g>
    <g clip-path="url(#pdee41f33dc)">
     <use xlink:href="#C0_0_532ab04947" x="116.844317" y="165.555" style="fill: #e56b5d; stroke: #ffffff"/>
    </g>
    <g clip-path="url(#pdee41f33dc)">
     <use xlink:href="#C0_0_532ab04947" x="118.371772" y="165.555" style="fill: #e3685f; stroke: #ffffff"/>
    </g>
    <g clip-path="url(#pdee41f33dc)">
     <use xlink:href="#C0_0_532ab04947" x="119.899228" y="117.09" style="fill: #e26561; stroke: #ffffff"/>
    </g>
    <g clip-path="url(#pdee41f33dc)">
     <use xlink:href="#C0_0_532ab04947" x="121.426683" y="58.932" style="fill: #e06363; stroke: #ffffff"/>
    </g>
    <g clip-path="url(#pdee41f33dc)">
     <use xlink:href="#C0_0_532ab04947" x="122.954139" y="117.09" style="fill: #de5f65; stroke: #ffffff"/>
    </g>
    <g clip-path="url(#pdee41f33dc)">
     <use xlink:href="#C0_0_532ab04947" x="124.481594" y="58.932" style="fill: #dc5d67; stroke: #ffffff"/>
    </g>
    <g clip-path="url(#pdee41f33dc)">
     <use xlink:href="#C0_0_532ab04947" x="126.00905" y="117.09" style="fill: #da5b69; stroke: #ffffff"/>
    </g>
    <g clip-path="url(#pdee41f33dc)">
     <use xlink:href="#C0_0_532ab04947" x="127.536506" y="117.09" style="fill: #d8576b; stroke: #ffffff"/>
    </g>
    <g clip-path="url(#pdee41f33dc)">
     <use xlink:href="#C0_0_532ab04947" x="129.063961" y="58.932" style="fill: #d6556d; stroke: #ffffff"/>
    </g>
    <g clip-path="url(#pdee41f33dc)">
     <use xlink:href="#C0_0_532ab04947" x="130.591417" y="58.932" style="fill: #d5536f; stroke: #ffffff"/>
    </g>
    <g clip-path="url(#pdee41f33dc)">
     <use xlink:href="#C0_0_532ab04947" x="132.118872" y="117.09" style="fill: #d35171; stroke: #ffffff"/>
    </g>
    <g clip-path="url(#pdee41f33dc)">
     <use xlink:href="#C0_0_532ab04947" x="133.646328" y="117.09" style="fill: #d04d73; stroke: #ffffff"/>
    </g>
    <g clip-path="url(#pdee41f33dc)">
     <use xlink:href="#C0_0_532ab04947" x="135.173783" y="117.09" style="fill: #ce4b75; stroke: #ffffff"/>
    </g>
    <g clip-path="url(#pdee41f33dc)">
     <use xlink:href="#C0_0_532ab04947" x="136.701239" y="117.09" style="fill: #cc4977; stroke: #ffffff"/>
    </g>
    <g clip-path="url(#pdee41f33dc)">
     <use xlink:href="#C0_0_532ab04947" x="138.228694" y="117.09" style="fill: #ca457a; stroke: #ffffff"/>
    </g>
    <g clip-path="url(#pdee41f33dc)">
     <use xlink:href="#C0_0_532ab04947" x="139.75615" y="117.09" style="fill: #c8437b; stroke: #ffffff"/>
    </g>
    <g clip-path="url(#pdee41f33dc)">
     <use xlink:href="#C0_0_532ab04947" x="141.283606" y="117.09" style="fill: #c6417d; stroke: #ffffff"/>
    </g>
    <g clip-path="url(#pdee41f33dc)">
     <use xlink:href="#C0_0_532ab04947" x="142.811061" y="117.09" style="fill: #c33d80; stroke: #ffffff"/>
    </g>
    <g clip-path="url(#pdee41f33dc)">
     <use xlink:href="#C0_0_532ab04947" x="144.338517" y="117.09" style="fill: #c13b82; stroke: #ffffff"/>
    </g>
    <g clip-path="url(#pdee41f33dc)">
     <use xlink:href="#C0_0_532ab04947" x="145.865972" y="117.09" style="fill: #bf3984; stroke: #ffffff"/>
    </g>
    <g clip-path="url(#pdee41f33dc)">
     <use xlink:href="#C0_0_532ab04947" x="147.393428" y="117.09" style="fill: #bd3786; stroke: #ffffff"/>
    </g>
    <g clip-path="url(#pdee41f33dc)">
     <use xlink:href="#C0_0_532ab04947" x="148.920883" y="117.09" style="fill: #ba3388; stroke: #ffffff"/>
    </g>
    <g clip-path="url(#pdee41f33dc)">
     <use xlink:href="#C0_0_532ab04947" x="150.448339" y="117.09" style="fill: #b7318a; stroke: #ffffff"/>
    </g>
    <g clip-path="url(#pdee41f33dc)">
     <use xlink:href="#C0_0_532ab04947" x="151.975795" y="117.09" style="fill: #b52f8c; stroke: #ffffff"/>
    </g>
    <g clip-path="url(#pdee41f33dc)">
     <use xlink:href="#C0_0_532ab04947" x="153.50325" y="117.09" style="fill: #b22b8f; stroke: #ffffff"/>
    </g>
    <g clip-path="url(#pdee41f33dc)">
     <use xlink:href="#C0_0_532ab04947" x="155.030706" y="117.09" style="fill: #b02991; stroke: #ffffff"/>
    </g>
    <g clip-path="url(#pdee41f33dc)">
     <use xlink:href="#C0_0_532ab04947" x="156.558161" y="117.09" style="fill: #ad2793; stroke: #ffffff"/>
    </g>
    <g clip-path="url(#pdee41f33dc)">
     <use xlink:href="#C0_0_532ab04947" x="158.085617" y="117.09" style="fill: #aa2395; stroke: #ffffff"/>
    </g>
    <g clip-path="url(#pdee41f33dc)">
     <use xlink:href="#C0_0_532ab04947" x="159.613072" y="117.09" style="fill: #a72197; stroke: #ffffff"/>
    </g>
    <g clip-path="url(#pdee41f33dc)">
     <use xlink:href="#C0_0_532ab04947" x="161.140528" y="117.09" style="fill: #a51f99; stroke: #ffffff"/>
    </g>
    <g clip-path="url(#pdee41f33dc)">
     <use xlink:href="#C0_0_532ab04947" x="162.667983" y="117.09" style="fill: #a11b9b; stroke: #ffffff"/>
    </g>
    <g clip-path="url(#pdee41f33dc)">
     <use xlink:href="#C0_0_532ab04947" x="164.195439" y="117.09" style="fill: #9e199d; stroke: #ffffff"/>
    </g>
    <g clip-path="url(#pdee41f33dc)">
     <use xlink:href="#C0_0_532ab04947" x="165.722895" y="117.09" style="fill: #9c179e; stroke: #ffffff"/>
    </g>
    <g clip-path="url(#pdee41f33dc)">
     <use xlink:href="#C0_0_532ab04947" x="167.25035" y="117.09" style="fill: #99159f; stroke: #ffffff"/>
    </g>
    <g clip-path="url(#pdee41f33dc)">
     <use xlink:href="#C0_0_532ab04947" x="168.777806" y="117.09" style="fill: #9511a1; stroke: #ffffff"/>
    </g>
    <g clip-path="url(#pdee41f33dc)">
     <use xlink:href="#C0_0_532ab04947" x="170.305261" y="117.09" style="fill: #920fa3; stroke: #ffffff"/>
    </g>
    <g clip-path="url(#pdee41f33dc)">
     <use xlink:href="#C0_0_532ab04947" x="171.832717" y="117.09" style="fill: #8f0da4; stroke: #ffffff"/>
    </g>
    <g clip-path="url(#pdee41f33dc)">
     <use xlink:href="#C0_0_532ab04947" x="173.360172" y="117.09" style="fill: #8b0aa5; stroke: #ffffff"/>
    </g>
    <g clip-path="url(#pdee41f33dc)">
     <use xlink:href="#C0_0_532ab04947" x="174.887628" y="117.09" style="fill: #8808a6; stroke: #ffffff"/>
    </g>
    <g clip-path="url(#pdee41f33dc)">
     <use xlink:href="#C0_0_532ab04947" x="176.415083" y="117.09" style="fill: #8606a6; stroke: #ffffff"/>
    </g>
    <g clip-path="url(#pdee41f33dc)">
     <use xlink:href="#C0_0_532ab04947" x="177.942539" y="117.09" style="fill: #8104a7; stroke: #ffffff"/>
    </g>
    <g clip-path="url(#pdee41f33dc)">
     <use xlink:href="#C0_0_532ab04947" x="179.469995" y="117.09" style="fill: #7e03a8; stroke: #ffffff"/>
    </g>
    <g clip-path="url(#pdee41f33dc)">
     <use xlink:href="#C0_0_532ab04947" x="180.99745" y="117.09" style="fill: #7b02a8; stroke: #ffffff"/>
    </g>
    <g clip-path="url(#pdee41f33dc)">
     <use xlink:href="#C0_0_532ab04947" x="182.524906" y="117.09" style="fill: #7701a8; stroke: #ffffff"/>
    </g>
    <g clip-path="url(#pdee41f33dc)">
     <use xlink:href="#C0_0_532ab04947" x="184.052361" y="117.09" style="fill: #7401a8; stroke: #ffffff"/>
    </g>
    <g clip-path="url(#pdee41f33dc)">
     <use xlink:href="#C0_0_532ab04947" x="185.579817" y="117.09" style="fill: #7100a8; stroke: #ffffff"/>
    </g>
    <g clip-path="url(#pdee41f33dc)">
     <use xlink:href="#C0_0_532ab04947" x="187.107272" y="117.09" style="fill: #6e00a8; stroke: #ffffff"/>
    </g>
    <g clip-path="url(#pdee41f33dc)">
     <use xlink:href="#C0_0_532ab04947" x="188.634728" y="117.09" style="fill: #6900a8; stroke: #ffffff"/>
    </g>
    <g clip-path="url(#pdee41f33dc)">
     <use xlink:href="#C0_0_532ab04947" x="190.162183" y="117.09" style="fill: #6600a7; stroke: #ffffff"/>
    </g>
    <g clip-path="url(#pdee41f33dc)">
     <use xlink:href="#C0_0_532ab04947" x="191.689639" y="117.09" style="fill: #6300a7; stroke: #ffffff"/>
    </g>
    <g clip-path="url(#pdee41f33dc)">
     <use xlink:href="#C0_0_532ab04947" x="193.217095" y="117.09" style="fill: #5e01a6; stroke: #ffffff"/>
    </g>
    <g clip-path="url(#pdee41f33dc)">
     <use xlink:href="#C0_0_532ab04947" x="194.74455" y="117.09" style="fill: #5b01a5; stroke: #ffffff"/>
    </g>
    <g clip-path="url(#pdee41f33dc)">
     <use xlink:href="#C0_0_532ab04947" x="196.272006" y="117.09" style="fill: #5801a4; stroke: #ffffff"/>
    </g>
    <g clip-path="url(#pdee41f33dc)">
     <use xlink:href="#C0_0_532ab04947" x="197.799461" y="117.09" style="fill: #5302a3; stroke: #ffffff"/>
    </g>
    <g clip-path="url(#pdee41f33dc)">
     <use xlink:href="#C0_0_532ab04947" x="199.326917" y="117.09" style="fill: #5002a2; stroke: #ffffff"/>
    </g>
    <g clip-path="url(#pdee41f33dc)">
     <use xlink:href="#C0_0_532ab04947" x="200.854372" y="117.09" style="fill: #4c02a1; stroke: #ffffff"/>
    </g>
    <g clip-path="url(#pdee41f33dc)">
     <use xlink:href="#C0_0_532ab04947" x="202.381828" y="117.09" style="fill: #48039f; stroke: #ffffff"/>
    </g>
    <g clip-path="url(#pdee41f33dc)">
     <use xlink:href="#C0_0_532ab04947" x="203.909283" y="117.09" style="fill: #44039e; stroke: #ffffff"/>
    </g>
    <g clip-path="url(#pdee41f33dc)">
     <use xlink:href="#C0_0_532ab04947" x="205.436739" y="117.09" style="fill: #41049d; stroke: #ffffff"/>
    </g>
    <g clip-path="url(#pdee41f33dc)">
     <use xlink:href="#C0_0_532ab04947" x="206.964195" y="117.09" style="fill: #3e049c; stroke: #ffffff"/>
    </g>
    <g clip-path="url(#pdee41f33dc)">
     <use xlink:href="#C0_0_532ab04947" x="208.49165" y="117.09" style="fill: #38049a; stroke: #ffffff"/>
    </g>
    <g clip-path="url(#pdee41f33dc)">
     <use xlink:href="#C0_0_532ab04947" x="210.019106" y="117.09" style="fill: #350498; stroke: #ffffff"/>
    </g>
    <g clip-path="url(#pdee41f33dc)">
     <use xlink:href="#C0_0_532ab04947" x="211.546561" y="117.09" style="fill: #310597; stroke: #ffffff"/>
    </g>
    <g clip-path="url(#pdee41f33dc)">
     <use xlink:href="#C0_0_532ab04947" x="213.074017" y="117.09" style="fill: #2c0594; stroke: #ffffff"/>
    </g>
    <g clip-path="url(#pdee41f33dc)">
     <use xlink:href="#C0_0_532ab04947" x="214.601472" y="117.09" style="fill: #280592; stroke: #ffffff"/>
    </g>
    <g clip-path="url(#pdee41f33dc)">
     <use xlink:href="#C0_0_532ab04947" x="216.128928" y="117.09" style="fill: #240691; stroke: #ffffff"/>
    </g>
    <g clip-path="url(#pdee41f33dc)">
     <use xlink:href="#C0_0_532ab04947" x="217.656383" y="117.09" style="fill: #1d068e; stroke: #ffffff"/>
    </g>
    <g clip-path="url(#pdee41f33dc)">
     <use xlink:href="#C0_0_532ab04947" x="219.183839" y="117.09" style="fill: #19068c; stroke: #ffffff"/>
    </g>
    <g clip-path="url(#pdee41f33dc)">
     <use xlink:href="#C0_0_532ab04947" x="220.711295" y="117.09" style="fill: #130789; stroke: #ffffff"/>
    </g>
    <g clip-path="url(#pdee41f33dc)">
     <use xlink:href="#C0_0_532ab04947" x="222.23875" y="117.09" style="fill: #0d0887; stroke: #ffffff"/>
    </g>
   </g>
   <g id="matplotlib.axis_1">
    <g id="xtick_1">
     <g id="line2d_1">
      <path d="M 220.711295 214.02 
L 220.711295 20.16 
" clip-path="url(#pdee41f33dc)" style="fill: none; stroke-dasharray: 2.96,1.28; stroke-dashoffset: 0; stroke: #b0b0b0; stroke-opacity: 0.5; stroke-width: 0.8"/>
     </g>
     <g id="line2d_2">
      <defs>
       <path id="mf9991102cc" d="M 0 0 
L 0 6 
" style="stroke: #000000; stroke-width: 1.5"/>
      </defs>
      <g>
       <use xlink:href="#mf9991102cc" x="220.711295" y="214.02" style="stroke: #000000; stroke-width: 1.5"/>
      </g>
     </g>
     <g id="text_1">
      <!-- 248 -->
      <g transform="translate(199.857779 241.414531) scale(0.25 -0.25)">
       <defs>
        <path id="ArialMT-32" d="M 3222 541 
L 3222 0 
L 194 0 
Q 188 203 259 391 
Q 375 700 629 1000 
Q 884 1300 1366 1694 
Q 2113 2306 2375 2664 
Q 2638 3022 2638 3341 
Q 2638 3675 2398 3904 
Q 2159 4134 1775 4134 
Q 1369 4134 1125 3890 
Q 881 3647 878 3216 
L 300 3275 
Q 359 3922 746 4261 
Q 1134 4600 1788 4600 
Q 2447 4600 2831 4234 
Q 3216 3869 3216 3328 
Q 3216 3053 3103 2787 
Q 2991 2522 2730 2228 
Q 2469 1934 1863 1422 
Q 1356 997 1212 845 
Q 1069 694 975 541 
L 3222 541 
z
" transform="scale(0.015625)"/>
        <path id="ArialMT-34" d="M 2069 0 
L 2069 1097 
L 81 1097 
L 81 1613 
L 2172 4581 
L 2631 4581 
L 2631 1613 
L 3250 1613 
L 3250 1097 
L 2631 1097 
L 2631 0 
L 2069 0 
z
M 2069 1613 
L 2069 3678 
L 634 1613 
L 2069 1613 
z
" transform="scale(0.015625)"/>
        <path id="ArialMT-38" d="M 1131 2484 
Q 781 2613 612 2850 
Q 444 3088 444 3419 
Q 444 3919 803 4259 
Q 1163 4600 1759 4600 
Q 2359 4600 2725 4251 
Q 3091 3903 3091 3403 
Q 3091 3084 2923 2848 
Q 2756 2613 2416 2484 
Q 2838 2347 3058 2040 
Q 3278 1734 3278 1309 
Q 3278 722 2862 322 
Q 2447 -78 1769 -78 
Q 1091 -78 675 323 
Q 259 725 259 1325 
Q 259 1772 486 2073 
Q 713 2375 1131 2484 
z
M 1019 3438 
Q 1019 3113 1228 2906 
Q 1438 2700 1772 2700 
Q 2097 2700 2305 2904 
Q 2513 3109 2513 3406 
Q 2513 3716 2298 3927 
Q 2084 4138 1766 4138 
Q 1444 4138 1231 3931 
Q 1019 3725 1019 3438 
z
M 838 1322 
Q 838 1081 952 856 
Q 1066 631 1291 507 
Q 1516 384 1775 384 
Q 2178 384 2440 643 
Q 2703 903 2703 1303 
Q 2703 1709 2433 1975 
Q 2163 2241 1756 2241 
Q 1359 2241 1098 1978 
Q 838 1716 838 1322 
z
" transform="scale(0.015625)"/>
       </defs>
       <use xlink:href="#ArialMT-32"/>
       <use xlink:href="#ArialMT-34" x="55.615234"/>
       <use xlink:href="#ArialMT-38" x="111.230469"/>
      </g>
     </g>
    </g>
    <g id="text_2">
     <!-- Trial -->
     <g transform="translate(110.007176 270.425156) scale(0.28 -0.28)">
      <defs>
       <path id="ArialMT-54" d="M 1659 0 
L 1659 4041 
L 150 4041 
L 150 4581 
L 3781 4581 
L 3781 4041 
L 2266 4041 
L 2266 0 
L 1659 0 
z
" transform="scale(0.015625)"/>
       <path id="ArialMT-72" d="M 416 0 
L 416 3319 
L 922 3319 
L 922 2816 
Q 1116 3169 1280 3281 
Q 1444 3394 1641 3394 
Q 1925 3394 2219 3213 
L 2025 2691 
Q 1819 2813 1613 2813 
Q 1428 2813 1281 2702 
Q 1134 2591 1072 2394 
Q 978 2094 978 1738 
L 978 0 
L 416 0 
z
" transform="scale(0.015625)"/>
       <path id="ArialMT-69" d="M 425 3934 
L 425 4581 
L 988 4581 
L 988 3934 
L 425 3934 
z
M 425 0 
L 425 3319 
L 988 3319 
L 988 0 
L 425 0 
z
" transform="scale(0.015625)"/>
       <path id="ArialMT-61" d="M 2588 409 
Q 2275 144 1986 34 
Q 1697 -75 1366 -75 
Q 819 -75 525 192 
Q 231 459 231 875 
Q 231 1119 342 1320 
Q 453 1522 633 1644 
Q 813 1766 1038 1828 
Q 1203 1872 1538 1913 
Q 2219 1994 2541 2106 
Q 2544 2222 2544 2253 
Q 2544 2597 2384 2738 
Q 2169 2928 1744 2928 
Q 1347 2928 1158 2789 
Q 969 2650 878 2297 
L 328 2372 
Q 403 2725 575 2942 
Q 747 3159 1072 3276 
Q 1397 3394 1825 3394 
Q 2250 3394 2515 3294 
Q 2781 3194 2906 3042 
Q 3031 2891 3081 2659 
Q 3109 2516 3109 2141 
L 3109 1391 
Q 3109 606 3145 398 
Q 3181 191 3288 0 
L 2700 0 
Q 2613 175 2588 409 
z
M 2541 1666 
Q 2234 1541 1622 1453 
Q 1275 1403 1131 1340 
Q 988 1278 909 1158 
Q 831 1038 831 891 
Q 831 666 1001 516 
Q 1172 366 1500 366 
Q 1825 366 2078 508 
Q 2331 650 2450 897 
Q 2541 1088 2541 1459 
L 2541 1666 
z
" transform="scale(0.015625)"/>
       <path id="ArialMT-6c" d="M 409 0 
L 409 4581 
L 972 4581 
L 972 0 
L 409 0 
z
" transform="scale(0.015625)"/>
      </defs>
      <use xlink:href="#ArialMT-54"/>
      <use xlink:href="#ArialMT-72" x="57.333984"/>
      <use xlink:href="#ArialMT-69" x="90.634766"/>
      <use xlink:href="#ArialMT-61" x="112.851562"/>
      <use xlink:href="#ArialMT-6c" x="168.466797"/>
     </g>
    </g>
   </g>
   <g id="matplotlib.axis_2">
    <g id="ytick_1">
     <g id="line2d_3">
      <path d="M 50.4 214.02 
L 223.002478 214.02 
" clip-path="url(#pdee41f33dc)" style="fill: none; stroke-dasharray: 2.96,1.28; stroke-dashoffset: 0; stroke: #b0b0b0; stroke-opacity: 0.5; stroke-width: 0.8"/>
     </g>
     <g id="line2d_4">
      <defs>
       <path id="m63301aef32" d="M 0 0 
L -6 0 
" style="stroke: #000000; stroke-width: 1.5"/>
      </defs>
      <g>
       <use xlink:href="#m63301aef32" x="50.4" y="214.02" style="stroke: #000000; stroke-width: 1.5"/>
      </g>
     </g>
     <g id="text_3">
      <!-- 0 -->
      <g transform="translate(26.997656 222.967266) scale(0.25 -0.25)">
       <defs>
        <path id="ArialMT-30" d="M 266 2259 
Q 266 3072 433 3567 
Q 600 4063 929 4331 
Q 1259 4600 1759 4600 
Q 2128 4600 2406 4451 
Q 2684 4303 2865 4023 
Q 3047 3744 3150 3342 
Q 3253 2941 3253 2259 
Q 3253 1453 3087 958 
Q 2922 463 2592 192 
Q 2263 -78 1759 -78 
Q 1097 -78 719 397 
Q 266 969 266 2259 
z
M 844 2259 
Q 844 1131 1108 757 
Q 1372 384 1759 384 
Q 2147 384 2411 759 
Q 2675 1134 2675 2259 
Q 2675 3391 2411 3762 
Q 2147 4134 1753 4134 
Q 1366 4134 1134 3806 
Q 844 3388 844 2259 
z
" transform="scale(0.015625)"/>
       </defs>
       <use xlink:href="#ArialMT-30"/>
      </g>
     </g>
    </g>
    <g id="ytick_2">
     <g id="line2d_5">
      <path d="M 50.4 117.09 
L 223.002478 117.09 
" clip-path="url(#pdee41f33dc)" style="fill: none; stroke-dasharray: 2.96,1.28; stroke-dashoffset: 0; stroke: #b0b0b0; stroke-opacity: 0.5; stroke-width: 0.8"/>
     </g>
     <g id="line2d_6">
      <g>
       <use xlink:href="#m63301aef32" x="50.4" y="117.09" style="stroke: #000000; stroke-width: 1.5"/>
      </g>
     </g>
     <g id="text_4">
      <!-- 0.5 -->
      <g transform="translate(6.15 126.037266) scale(0.25 -0.25)">
       <defs>
        <path id="ArialMT-2e" d="M 581 0 
L 581 641 
L 1222 641 
L 1222 0 
L 581 0 
z
" transform="scale(0.015625)"/>
        <path id="ArialMT-35" d="M 266 1200 
L 856 1250 
Q 922 819 1161 601 
Q 1400 384 1738 384 
Q 2144 384 2425 690 
Q 2706 997 2706 1503 
Q 2706 1984 2436 2262 
Q 2166 2541 1728 2541 
Q 1456 2541 1237 2417 
Q 1019 2294 894 2097 
L 366 2166 
L 809 4519 
L 3088 4519 
L 3088 3981 
L 1259 3981 
L 1013 2750 
Q 1425 3038 1878 3038 
Q 2478 3038 2890 2622 
Q 3303 2206 3303 1553 
Q 3303 931 2941 478 
Q 2500 -78 1738 -78 
Q 1113 -78 717 272 
Q 322 622 266 1200 
z
" transform="scale(0.015625)"/>
       </defs>
       <use xlink:href="#ArialMT-30"/>
       <use xlink:href="#ArialMT-2e" x="55.615234"/>
       <use xlink:href="#ArialMT-35" x="83.398438"/>
      </g>
     </g>
    </g>
    <g id="ytick_3">
     <g id="line2d_7">
      <path d="M 50.4 20.16 
L 223.002478 20.16 
" clip-path="url(#pdee41f33dc)" style="fill: none; stroke-dasharray: 2.96,1.28; stroke-dashoffset: 0; stroke: #b0b0b0; stroke-opacity: 0.5; stroke-width: 0.8"/>
     </g>
     <g id="line2d_8">
      <g>
       <use xlink:href="#m63301aef32" x="50.4" y="20.16" style="stroke: #000000; stroke-width: 1.5"/>
      </g>
     </g>
     <g id="text_5">
      <!-- 1 -->
      <g transform="translate(26.997656 29.107266) scale(0.25 -0.25)">
       <defs>
        <path id="ArialMT-31" d="M 2384 0 
L 1822 0 
L 1822 3584 
Q 1619 3391 1289 3197 
Q 959 3003 697 2906 
L 697 3450 
Q 1169 3672 1522 3987 
Q 1875 4303 2022 4600 
L 2384 4600 
L 2384 0 
z
" transform="scale(0.015625)"/>
       </defs>
       <use xlink:href="#ArialMT-31"/>
      </g>
     </g>
    </g>
   </g>
   <g id="LineCollection_1">
    <path d="M 51.163728 117.09 
L 52.691183 68.625 
" clip-path="url(#pdee41f33dc)" style="fill: none; stroke: #f0f921; stroke-width: 2"/>
    <path d="M 52.691183 68.625 
L 54.218639 117.09 
" clip-path="url(#pdee41f33dc)" style="fill: none; stroke: #f1f525; stroke-width: 2"/>
    <path d="M 54.218639 117.09 
L 55.746094 68.625 
" clip-path="url(#pdee41f33dc)" style="fill: none; stroke: #f2f227; stroke-width: 2"/>
    <path d="M 55.746094 68.625 
L 57.27355 68.625 
" clip-path="url(#pdee41f33dc)" style="fill: none; stroke: #f3ee27; stroke-width: 2"/>
    <path d="M 57.27355 68.625 
L 58.801006 68.625 
" clip-path="url(#pdee41f33dc)" style="fill: none; stroke: #f5e926; stroke-width: 2"/>
    <path d="M 58.801006 68.625 
L 60.328461 68.625 
" clip-path="url(#pdee41f33dc)" style="fill: none; stroke: #f6e626; stroke-width: 2"/>
    <path d="M 60.328461 68.625 
L 61.855917 68.625 
" clip-path="url(#pdee41f33dc)" style="fill: none; stroke: #f7e225; stroke-width: 2"/>
    <path d="M 61.855917 68.625 
L 63.383372 68.625 
" clip-path="url(#pdee41f33dc)" style="fill: none; stroke: #f9dd25; stroke-width: 2"/>
    <path d="M 63.383372 68.625 
L 64.910828 68.625 
" clip-path="url(#pdee41f33dc)" style="fill: none; stroke: #fada24; stroke-width: 2"/>
    <path d="M 64.910828 68.625 
L 66.438283 165.555 
" clip-path="url(#pdee41f33dc)" style="fill: none; stroke: #fbd724; stroke-width: 2"/>
    <path d="M 66.438283 165.555 
L 67.965739 165.555 
" clip-path="url(#pdee41f33dc)" style="fill: none; stroke: #fcd225; stroke-width: 2"/>
    <path d="M 67.965739 165.555 
L 69.493194 68.625 
" clip-path="url(#pdee41f33dc)" style="fill: none; stroke: #fcce25; stroke-width: 2"/>
    <path d="M 69.493194 68.625 
L 71.02065 165.555 
" clip-path="url(#pdee41f33dc)" style="fill: none; stroke: #fdcb26; stroke-width: 2"/>
    <path d="M 71.02065 165.555 
L 72.548106 68.625 
" clip-path="url(#pdee41f33dc)" style="fill: none; stroke: #fdc627; stroke-width: 2"/>
    <path d="M 72.548106 68.625 
L 74.075561 68.625 
" clip-path="url(#pdee41f33dc)" style="fill: none; stroke: #fdc328; stroke-width: 2"/>
    <path d="M 74.075561 68.625 
L 75.603017 136.476 
" clip-path="url(#pdee41f33dc)" style="fill: none; stroke: #fec029; stroke-width: 2"/>
    <path d="M 75.603017 136.476 
L 77.130472 136.476 
" clip-path="url(#pdee41f33dc)" style="fill: none; stroke: #febb2b; stroke-width: 2"/>
    <path d="M 77.130472 136.476 
L 78.657928 58.932 
" clip-path="url(#pdee41f33dc)" style="fill: none; stroke: #feb82c; stroke-width: 2"/>
    <path d="M 78.657928 58.932 
L 80.185383 136.476 
" clip-path="url(#pdee41f33dc)" style="fill: none; stroke: #fdb52e; stroke-width: 2"/>
    <path d="M 80.185383 136.476 
L 81.712839 68.625 
" clip-path="url(#pdee41f33dc)" style="fill: none; stroke: #fdb130; stroke-width: 2"/>
    <path d="M 81.712839 68.625 
L 83.240294 68.625 
" clip-path="url(#pdee41f33dc)" style="fill: none; stroke: #fdae32; stroke-width: 2"/>
    <path d="M 83.240294 68.625 
L 84.76775 68.625 
" clip-path="url(#pdee41f33dc)" style="fill: none; stroke: #fdab33; stroke-width: 2"/>
    <path d="M 84.76775 68.625 
L 86.295206 136.476 
" clip-path="url(#pdee41f33dc)" style="fill: none; stroke: #fca636; stroke-width: 2"/>
    <path d="M 86.295206 136.476 
L 87.822661 58.932 
" clip-path="url(#pdee41f33dc)" style="fill: none; stroke: #fca338; stroke-width: 2"/>
    <path d="M 87.822661 58.932 
L 89.350117 117.09 
" clip-path="url(#pdee41f33dc)" style="fill: none; stroke: #fba139; stroke-width: 2"/>
    <path d="M 89.350117 117.09 
L 90.877572 58.932 
" clip-path="url(#pdee41f33dc)" style="fill: none; stroke: #fa9c3c; stroke-width: 2"/>
    <path d="M 90.877572 58.932 
L 92.405028 58.932 
" clip-path="url(#pdee41f33dc)" style="fill: none; stroke: #f99a3e; stroke-width: 2"/>
    <path d="M 92.405028 58.932 
L 93.932483 68.625 
" clip-path="url(#pdee41f33dc)" style="fill: none; stroke: #f9973f; stroke-width: 2"/>
    <path d="M 93.932483 68.625 
L 95.459939 117.09 
" clip-path="url(#pdee41f33dc)" style="fill: none; stroke: #f79342; stroke-width: 2"/>
    <path d="M 95.459939 117.09 
L 96.987394 136.476 
" clip-path="url(#pdee41f33dc)" style="fill: none; stroke: #f79044; stroke-width: 2"/>
    <path d="M 96.987394 136.476 
L 98.51485 117.09 
" clip-path="url(#pdee41f33dc)" style="fill: none; stroke: #f68d45; stroke-width: 2"/>
    <path d="M 98.51485 117.09 
L 100.042306 58.932 
" clip-path="url(#pdee41f33dc)" style="fill: none; stroke: #f48948; stroke-width: 2"/>
    <path d="M 100.042306 58.932 
L 101.569761 117.09 
" clip-path="url(#pdee41f33dc)" style="fill: none; stroke: #f3874a; stroke-width: 2"/>
    <path d="M 101.569761 117.09 
L 103.097217 117.09 
" clip-path="url(#pdee41f33dc)" style="fill: none; stroke: #f2844b; stroke-width: 2"/>
    <path d="M 103.097217 117.09 
L 104.624672 117.09 
" clip-path="url(#pdee41f33dc)" style="fill: none; stroke: #f0804e; stroke-width: 2"/>
    <path d="M 104.624672 117.09 
L 106.152128 117.09 
" clip-path="url(#pdee41f33dc)" style="fill: none; stroke: #ef7e50; stroke-width: 2"/>
    <path d="M 106.152128 117.09 
L 107.679583 136.476 
" clip-path="url(#pdee41f33dc)" style="fill: none; stroke: #ee7b51; stroke-width: 2"/>
    <path d="M 107.679583 136.476 
L 110.734494 117.09 
" clip-path="url(#pdee41f33dc)" style="fill: none; stroke: #ec7754; stroke-width: 2"/>
    <path d="M 110.734494 117.09 
L 112.26195 117.09 
" clip-path="url(#pdee41f33dc)" style="fill: none; stroke: #eb7556; stroke-width: 2"/>
    <path d="M 112.26195 117.09 
L 113.789406 165.555 
" clip-path="url(#pdee41f33dc)" style="fill: none; stroke: #e97257; stroke-width: 2"/>
    <path d="M 113.789406 165.555 
L 115.316861 165.555 
" clip-path="url(#pdee41f33dc)" style="fill: none; stroke: #e76f5a; stroke-width: 2"/>
    <path d="M 115.316861 165.555 
L 116.844317 165.555 
" clip-path="url(#pdee41f33dc)" style="fill: none; stroke: #e66c5c; stroke-width: 2"/>
    <path d="M 116.844317 165.555 
L 118.371772 165.555 
" clip-path="url(#pdee41f33dc)" style="fill: none; stroke: #e56a5d; stroke-width: 2"/>
    <path d="M 118.371772 165.555 
L 119.899228 117.09 
" clip-path="url(#pdee41f33dc)" style="fill: none; stroke: #e26660; stroke-width: 2"/>
    <path d="M 119.899228 117.09 
L 121.426683 58.932 
" clip-path="url(#pdee41f33dc)" style="fill: none; stroke: #e16462; stroke-width: 2"/>
    <path d="M 121.426683 58.932 
L 122.954139 117.09 
" clip-path="url(#pdee41f33dc)" style="fill: none; stroke: #df6263; stroke-width: 2"/>
    <path d="M 122.954139 117.09 
L 124.481594 58.932 
" clip-path="url(#pdee41f33dc)" style="fill: none; stroke: #dd5e66; stroke-width: 2"/>
    <path d="M 124.481594 58.932 
L 126.00905 117.09 
" clip-path="url(#pdee41f33dc)" style="fill: none; stroke: #db5c68; stroke-width: 2"/>
    <path d="M 126.00905 117.09 
L 127.536506 117.09 
" clip-path="url(#pdee41f33dc)" style="fill: none; stroke: #da5a6a; stroke-width: 2"/>
    <path d="M 127.536506 117.09 
L 129.063961 58.932 
" clip-path="url(#pdee41f33dc)" style="fill: none; stroke: #d7566c; stroke-width: 2"/>
    <path d="M 129.063961 58.932 
L 130.591417 58.932 
" clip-path="url(#pdee41f33dc)" style="fill: none; stroke: #d5546e; stroke-width: 2"/>
    <path d="M 130.591417 58.932 
L 132.118872 117.09 
" clip-path="url(#pdee41f33dc)" style="fill: none; stroke: #d45270; stroke-width: 2"/>
    <path d="M 132.118872 117.09 
L 133.646328 117.09 
" clip-path="url(#pdee41f33dc)" style="fill: none; stroke: #d14e72; stroke-width: 2"/>
    <path d="M 133.646328 117.09 
L 135.173783 117.09 
" clip-path="url(#pdee41f33dc)" style="fill: none; stroke: #cf4c74; stroke-width: 2"/>
    <path d="M 135.173783 117.09 
L 136.701239 117.09 
" clip-path="url(#pdee41f33dc)" style="fill: none; stroke: #cd4a76; stroke-width: 2"/>
    <path d="M 136.701239 117.09 
L 138.228694 117.09 
" clip-path="url(#pdee41f33dc)" style="fill: none; stroke: #cb4679; stroke-width: 2"/>
    <path d="M 138.228694 117.09 
L 139.75615 117.09 
" clip-path="url(#pdee41f33dc)" style="fill: none; stroke: #c9447a; stroke-width: 2"/>
    <path d="M 139.75615 117.09 
L 141.283606 117.09 
" clip-path="url(#pdee41f33dc)" style="fill: none; stroke: #c7427c; stroke-width: 2"/>
    <path d="M 141.283606 117.09 
L 142.811061 117.09 
" clip-path="url(#pdee41f33dc)" style="fill: none; stroke: #c5407e; stroke-width: 2"/>
    <path d="M 142.811061 117.09 
L 144.338517 117.09 
" clip-path="url(#pdee41f33dc)" style="fill: none; stroke: #c23c81; stroke-width: 2"/>
    <path d="M 144.338517 117.09 
L 145.865972 117.09 
" clip-path="url(#pdee41f33dc)" style="fill: none; stroke: #c03a83; stroke-width: 2"/>
    <path d="M 145.865972 117.09 
L 147.393428 117.09 
" clip-path="url(#pdee41f33dc)" style="fill: none; stroke: #be3885; stroke-width: 2"/>
    <path d="M 147.393428 117.09 
L 148.920883 117.09 
" clip-path="url(#pdee41f33dc)" style="fill: none; stroke: #bb3488; stroke-width: 2"/>
    <path d="M 148.920883 117.09 
L 150.448339 117.09 
" clip-path="url(#pdee41f33dc)" style="fill: none; stroke: #b83289; stroke-width: 2"/>
    <path d="M 150.448339 117.09 
L 151.975795 117.09 
" clip-path="url(#pdee41f33dc)" style="fill: none; stroke: #b6308b; stroke-width: 2"/>
    <path d="M 151.975795 117.09 
L 153.50325 117.09 
" clip-path="url(#pdee41f33dc)" style="fill: none; stroke: #b32c8e; stroke-width: 2"/>
    <path d="M 153.50325 117.09 
L 155.030706 117.09 
" clip-path="url(#pdee41f33dc)" style="fill: none; stroke: #b12a90; stroke-width: 2"/>
    <path d="M 155.030706 117.09 
L 156.558161 117.09 
" clip-path="url(#pdee41f33dc)" style="fill: none; stroke: #ae2892; stroke-width: 2"/>
    <path d="M 156.558161 117.09 
L 158.085617 117.09 
" clip-path="url(#pdee41f33dc)" style="fill: none; stroke: #ab2494; stroke-width: 2"/>
    <path d="M 158.085617 117.09 
L 159.613072 117.09 
" clip-path="url(#pdee41f33dc)" style="fill: none; stroke: #a82296; stroke-width: 2"/>
    <path d="M 159.613072 117.09 
L 161.140528 117.09 
" clip-path="url(#pdee41f33dc)" style="fill: none; stroke: #a62098; stroke-width: 2"/>
    <path d="M 161.140528 117.09 
L 162.667983 117.09 
" clip-path="url(#pdee41f33dc)" style="fill: none; stroke: #a21d9a; stroke-width: 2"/>
    <path d="M 162.667983 117.09 
L 164.195439 117.09 
" clip-path="url(#pdee41f33dc)" style="fill: none; stroke: #a01a9c; stroke-width: 2"/>
    <path d="M 164.195439 117.09 
L 165.722895 117.09 
" clip-path="url(#pdee41f33dc)" style="fill: none; stroke: #9d189d; stroke-width: 2"/>
    <path d="M 165.722895 117.09 
L 167.25035 117.09 
" clip-path="url(#pdee41f33dc)" style="fill: none; stroke: #99159f; stroke-width: 2"/>
    <path d="M 167.25035 117.09 
L 168.777806 117.09 
" clip-path="url(#pdee41f33dc)" style="fill: none; stroke: #9613a1; stroke-width: 2"/>
    <path d="M 168.777806 117.09 
L 170.305261 117.09 
" clip-path="url(#pdee41f33dc)" style="fill: none; stroke: #9410a2; stroke-width: 2"/>
    <path d="M 170.305261 117.09 
L 171.832717 117.09 
" clip-path="url(#pdee41f33dc)" style="fill: none; stroke: #8f0da4; stroke-width: 2"/>
    <path d="M 171.832717 117.09 
L 173.360172 117.09 
" clip-path="url(#pdee41f33dc)" style="fill: none; stroke: #8d0ba5; stroke-width: 2"/>
    <path d="M 173.360172 117.09 
L 174.887628 117.09 
" clip-path="url(#pdee41f33dc)" style="fill: none; stroke: #8a09a5; stroke-width: 2"/>
    <path d="M 174.887628 117.09 
L 176.415083 117.09 
" clip-path="url(#pdee41f33dc)" style="fill: none; stroke: #8606a6; stroke-width: 2"/>
    <path d="M 176.415083 117.09 
L 177.942539 117.09 
" clip-path="url(#pdee41f33dc)" style="fill: none; stroke: #8305a7; stroke-width: 2"/>
    <path d="M 177.942539 117.09 
L 179.469995 117.09 
" clip-path="url(#pdee41f33dc)" style="fill: none; stroke: #8004a8; stroke-width: 2"/>
    <path d="M 179.469995 117.09 
L 180.99745 117.09 
" clip-path="url(#pdee41f33dc)" style="fill: none; stroke: #7b02a8; stroke-width: 2"/>
    <path d="M 180.99745 117.09 
L 182.524906 117.09 
" clip-path="url(#pdee41f33dc)" style="fill: none; stroke: #7801a8; stroke-width: 2"/>
    <path d="M 182.524906 117.09 
L 184.052361 117.09 
" clip-path="url(#pdee41f33dc)" style="fill: none; stroke: #7501a8; stroke-width: 2"/>
    <path d="M 184.052361 117.09 
L 185.579817 117.09 
" clip-path="url(#pdee41f33dc)" style="fill: none; stroke: #7100a8; stroke-width: 2"/>
    <path d="M 185.579817 117.09 
L 187.107272 117.09 
" clip-path="url(#pdee41f33dc)" style="fill: none; stroke: #6e00a8; stroke-width: 2"/>
    <path d="M 187.107272 117.09 
L 188.634728 117.09 
" clip-path="url(#pdee41f33dc)" style="fill: none; stroke: #6a00a8; stroke-width: 2"/>
    <path d="M 188.634728 117.09 
L 190.162183 117.09 
" clip-path="url(#pdee41f33dc)" style="fill: none; stroke: #6600a7; stroke-width: 2"/>
    <path d="M 190.162183 117.09 
L 191.689639 117.09 
" clip-path="url(#pdee41f33dc)" style="fill: none; stroke: #6300a7; stroke-width: 2"/>
    <path d="M 191.689639 117.09 
L 193.217095 117.09 
" clip-path="url(#pdee41f33dc)" style="fill: none; stroke: #6001a6; stroke-width: 2"/>
    <path d="M 193.217095 117.09 
L 194.74455 117.09 
" clip-path="url(#pdee41f33dc)" style="fill: none; stroke: #5b01a5; stroke-width: 2"/>
    <path d="M 194.74455 117.09 
L 196.272006 117.09 
" clip-path="url(#pdee41f33dc)" style="fill: none; stroke: #5801a4; stroke-width: 2"/>
    <path d="M 196.272006 117.09 
L 197.799461 117.09 
" clip-path="url(#pdee41f33dc)" style="fill: none; stroke: #5502a4; stroke-width: 2"/>
    <path d="M 197.799461 117.09 
L 199.326917 117.09 
" clip-path="url(#pdee41f33dc)" style="fill: none; stroke: #5002a2; stroke-width: 2"/>
    <path d="M 199.326917 117.09 
L 200.854372 117.09 
" clip-path="url(#pdee41f33dc)" style="fill: none; stroke: #4c02a1; stroke-width: 2"/>
    <path d="M 200.854372 117.09 
L 202.381828 117.09 
" clip-path="url(#pdee41f33dc)" style="fill: none; stroke: #4903a0; stroke-width: 2"/>
    <path d="M 202.381828 117.09 
L 203.909283 117.09 
" clip-path="url(#pdee41f33dc)" style="fill: none; stroke: #44039e; stroke-width: 2"/>
    <path d="M 203.909283 117.09 
L 205.436739 117.09 
" clip-path="url(#pdee41f33dc)" style="fill: none; stroke: #41049d; stroke-width: 2"/>
    <path d="M 205.436739 117.09 
L 206.964195 117.09 
" clip-path="url(#pdee41f33dc)" style="fill: none; stroke: #3e049c; stroke-width: 2"/>
    <path d="M 206.964195 117.09 
L 208.49165 117.09 
" clip-path="url(#pdee41f33dc)" style="fill: none; stroke: #38049a; stroke-width: 2"/>
    <path d="M 208.49165 117.09 
L 210.019106 117.09 
" clip-path="url(#pdee41f33dc)" style="fill: none; stroke: #350498; stroke-width: 2"/>
    <path d="M 210.019106 117.09 
L 211.546561 117.09 
" clip-path="url(#pdee41f33dc)" style="fill: none; stroke: #310597; stroke-width: 2"/>
    <path d="M 211.546561 117.09 
L 213.074017 117.09 
" clip-path="url(#pdee41f33dc)" style="fill: none; stroke: #2c0594; stroke-width: 2"/>
    <path d="M 213.074017 117.09 
L 214.601472 117.09 
" clip-path="url(#pdee41f33dc)" style="fill: none; stroke: #280592; stroke-width: 2"/>
    <path d="M 214.601472 117.09 
L 216.128928 117.09 
" clip-path="url(#pdee41f33dc)" style="fill: none; stroke: #240691; stroke-width: 2"/>
    <path d="M 216.128928 117.09 
L 217.656383 117.09 
" clip-path="url(#pdee41f33dc)" style="fill: none; stroke: #1d068e; stroke-width: 2"/>
    <path d="M 217.656383 117.09 
L 219.183839 117.09 
" clip-path="url(#pdee41f33dc)" style="fill: none; stroke: #19068c; stroke-width: 2"/>
    <path d="M 219.183839 117.09 
L 220.711295 117.09 
" clip-path="url(#pdee41f33dc)" style="fill: none; stroke: #130789; stroke-width: 2"/>
    <path d="M 220.711295 117.09 
L 222.23875 117.09 
" clip-path="url(#pdee41f33dc)" style="fill: none; stroke: #0d0887; stroke-width: 2"/>
   </g>
   <g id="patch_3">
    <path d="M 50.4 214.02 
L 50.4 20.16 
" style="fill: none; stroke: #000000; stroke-width: 2; stroke-linejoin: miter; stroke-linecap: square"/>
   </g>
   <g id="patch_4">
    <path d="M 223.002478 214.02 
L 223.002478 20.16 
" style="fill: none; stroke: #000000; stroke-width: 2; stroke-linejoin: miter; stroke-linecap: square"/>
   </g>
   <g id="patch_5">
    <path d="M 50.4 214.02 
L 223.002478 214.02 
" style="fill: none; stroke: #000000; stroke-width: 2; stroke-linejoin: miter; stroke-linecap: square"/>
   </g>
   <g id="patch_6">
    <path d="M 50.4 20.16 
L 223.002478 20.16 
" style="fill: none; stroke: #000000; stroke-width: 2; stroke-linejoin: miter; stroke-linecap: square"/>
   </g>
   <g id="text_6">
    <!-- feat$_4$ -->
    <g transform="translate(153.892354 49.894875) scale(0.28 -0.28)">
     <defs>
      <path id="ArialMT-66" d="M 556 0 
L 556 2881 
L 59 2881 
L 59 3319 
L 556 3319 
L 556 3672 
Q 556 4006 616 4169 
Q 697 4388 901 4523 
Q 1106 4659 1475 4659 
Q 1713 4659 2000 4603 
L 1916 4113 
Q 1741 4144 1584 4144 
Q 1328 4144 1222 4034 
Q 1116 3925 1116 3625 
L 1116 3319 
L 1763 3319 
L 1763 2881 
L 1116 2881 
L 1116 0 
L 556 0 
z
" transform="scale(0.015625)"/>
      <path id="ArialMT-65" d="M 2694 1069 
L 3275 997 
Q 3138 488 2766 206 
Q 2394 -75 1816 -75 
Q 1088 -75 661 373 
Q 234 822 234 1631 
Q 234 2469 665 2931 
Q 1097 3394 1784 3394 
Q 2450 3394 2872 2941 
Q 3294 2488 3294 1666 
Q 3294 1616 3291 1516 
L 816 1516 
Q 847 969 1125 678 
Q 1403 388 1819 388 
Q 2128 388 2347 550 
Q 2566 713 2694 1069 
z
M 847 1978 
L 2700 1978 
Q 2663 2397 2488 2606 
Q 2219 2931 1791 2931 
Q 1403 2931 1139 2672 
Q 875 2413 847 1978 
z
" transform="scale(0.015625)"/>
      <path id="ArialMT-74" d="M 1650 503 
L 1731 6 
Q 1494 -44 1306 -44 
Q 1000 -44 831 53 
Q 663 150 594 308 
Q 525 466 525 972 
L 525 2881 
L 113 2881 
L 113 3319 
L 525 3319 
L 525 4141 
L 1084 4478 
L 1084 3319 
L 1650 3319 
L 1650 2881 
L 1084 2881 
L 1084 941 
Q 1084 700 1114 631 
Q 1144 563 1211 522 
Q 1278 481 1403 481 
Q 1497 481 1650 503 
z
" transform="scale(0.015625)"/>
      <path id="DejaVuSans-34" d="M 2419 4116 
L 825 1625 
L 2419 1625 
L 2419 4116 
z
M 2253 4666 
L 3047 4666 
L 3047 1625 
L 3713 1625 
L 3713 1100 
L 3047 1100 
L 3047 0 
L 2419 0 
L 2419 1100 
L 313 1100 
L 313 1709 
L 2253 4666 
z
" transform="scale(0.015625)"/>
     </defs>
     <use xlink:href="#ArialMT-66" transform="translate(0 0.203125)"/>
     <use xlink:href="#ArialMT-65" transform="translate(27.783203 0.203125)"/>
     <use xlink:href="#ArialMT-61" transform="translate(83.398438 0.203125)"/>
     <use xlink:href="#ArialMT-74" transform="translate(139.013672 0.203125)"/>
     <use xlink:href="#DejaVuSans-34" transform="translate(167.753906 -16.203125) scale(0.7)"/>
    </g>
   </g>
  </g>
 </g>
 <defs>
  <clipPath id="pdee41f33dc">
   <rect x="50.4" y="20.16" width="172.602478" height="193.86"/>
  </clipPath>
 </defs>
</svg>
