<?xml version="1.0" encoding="utf-8" standalone="no"?>
<!DOCTYPE svg PUBLIC "-//W3C//DTD SVG 1.1//EN"
  "http://www.w3.org/Graphics/SVG/1.1/DTD/svg11.dtd">
<svg xmlns:xlink="http://www.w3.org/1999/xlink" width="252pt" height="288pt" viewBox="0 0 252 288" xmlns="http://www.w3.org/2000/svg" version="1.1">
 <metadata>
  <rdf:RDF xmlns:dc="http://purl.org/dc/elements/1.1/" xmlns:cc="http://creativecommons.org/ns#" xmlns:rdf="http://www.w3.org/1999/02/22-rdf-syntax-ns#">
   <cc:Work>
    <dc:type rdf:resource="http://purl.org/dc/dcmitype/StillImage"/>
    <dc:date>2025-05-13T14:58:59.076325</dc:date>
    <dc:format>image/svg+xml</dc:format>
    <dc:creator>
     <cc:Agent>
      <dc:title>Matplotlib v3.8.4, https://matplotlib.org/</dc:title>
     </cc:Agent>
    </dc:creator>
   </cc:Work>
  </rdf:RDF>
 </metadata>
 <defs>
  <style type="text/css">*{stroke-linejoin: round; stroke-linecap: butt}</style>
 </defs>
 <g id="figure_1">
  <g id="patch_1">
   <path d="M 0 288 
L 252 288 
L 252 0 
L 0 0 
L 0 288 
z
" style="fill: none"/>
  </g>
  <g id="axes_1">
   <g id="patch_2">
    <path d="M 50.4 214.02 
L 230.595 214.02 
L 230.595 20.16 
L 50.4 20.16 
L 50.4 214.02 
z
" style="fill: none"/>
   </g>
   <g id="PathCollection_1">
    <defs>
     <path id="C0_0_8faae2d537" d="M 0 2.738613 
C 0.726289 2.738613 1.422928 2.450055 1.936492 1.936492 
C 2.450055 1.422928 2.738613 0.726289 2.738613 -0 
C 2.738613 -0.726289 2.450055 -1.422928 1.936492 -1.936492 
C 1.422928 -2.450055 0.726289 -2.738613 0 -2.738613 
C -0.726289 -2.738613 -1.422928 -2.450055 -1.936492 -1.936492 
C -2.450055 -1.422928 -2.738613 -0.726289 -2.738613 0 
C -2.738613 0.726289 -2.450055 1.422928 -1.936492 1.936492 
C -1.422928 2.450055 -0.726289 2.738613 0 2.738613 
z
"/>
    </defs>
    <g clip-path="url(#pe78aa84ba1)">
     <use xlink:href="#C0_0_8faae2d537" x="53.40325" y="84.78" style="fill: #fde725; stroke: #ffffff"/>
    </g>
    <g clip-path="url(#pe78aa84ba1)">
     <use xlink:href="#C0_0_8faae2d537" x="59.40975" y="84.78" style="fill: #eae51a; stroke: #ffffff"/>
    </g>
    <g clip-path="url(#pe78aa84ba1)">
     <use xlink:href="#C0_0_8faae2d537" x="65.41625" y="84.78" style="fill: #d2e21b; stroke: #ffffff"/>
    </g>
    <g clip-path="url(#pe78aa84ba1)">
     <use xlink:href="#C0_0_8faae2d537" x="71.42275" y="84.78" style="fill: #bade28; stroke: #ffffff"/>
    </g>
    <g clip-path="url(#pe78aa84ba1)">
     <use xlink:href="#C0_0_8faae2d537" x="77.42925" y="84.78" style="fill: #a2da37; stroke: #ffffff"/>
    </g>
    <g clip-path="url(#pe78aa84ba1)">
     <use xlink:href="#C0_0_8faae2d537" x="83.43575" y="84.78" style="fill: #8bd646; stroke: #ffffff"/>
    </g>
    <g clip-path="url(#pe78aa84ba1)">
     <use xlink:href="#C0_0_8faae2d537" x="89.44225" y="84.78" style="fill: #77d153; stroke: #ffffff"/>
    </g>
    <g clip-path="url(#pe78aa84ba1)">
     <use xlink:href="#C0_0_8faae2d537" x="95.44875" y="84.78" style="fill: #63cb5f; stroke: #ffffff"/>
    </g>
    <g clip-path="url(#pe78aa84ba1)">
     <use xlink:href="#C0_0_8faae2d537" x="101.45525" y="84.78" style="fill: #50c46a; stroke: #ffffff"/>
    </g>
    <g clip-path="url(#pe78aa84ba1)">
     <use xlink:href="#C0_0_8faae2d537" x="107.46175" y="117.09" style="fill: #3fbc73; stroke: #ffffff"/>
    </g>
    <g clip-path="url(#pe78aa84ba1)">
     <use xlink:href="#C0_0_8faae2d537" x="113.46825" y="117.09" style="fill: #31b57b; stroke: #ffffff"/>
    </g>
    <g clip-path="url(#pe78aa84ba1)">
     <use xlink:href="#C0_0_8faae2d537" x="119.47475" y="117.09" style="fill: #26ad81; stroke: #ffffff"/>
    </g>
    <g clip-path="url(#pe78aa84ba1)">
     <use xlink:href="#C0_0_8faae2d537" x="125.48125" y="117.09" style="fill: #21a585; stroke: #ffffff"/>
    </g>
    <g clip-path="url(#pe78aa84ba1)">
     <use xlink:href="#C0_0_8faae2d537" x="131.48775" y="117.09" style="fill: #1e9d89; stroke: #ffffff"/>
    </g>
    <g clip-path="url(#pe78aa84ba1)">
     <use xlink:href="#C0_0_8faae2d537" x="137.49425" y="117.09" style="fill: #1f948c; stroke: #ffffff"/>
    </g>
    <g clip-path="url(#pe78aa84ba1)">
     <use xlink:href="#C0_0_8faae2d537" x="143.50075" y="117.09" style="fill: #228c8d; stroke: #ffffff"/>
    </g>
    <g clip-path="url(#pe78aa84ba1)">
     <use xlink:href="#C0_0_8faae2d537" x="149.50725" y="117.09" style="fill: #25838e; stroke: #ffffff"/>
    </g>
    <g clip-path="url(#pe78aa84ba1)">
     <use xlink:href="#C0_0_8faae2d537" x="155.51375" y="117.09" style="fill: #297b8e; stroke: #ffffff"/>
    </g>
    <g clip-path="url(#pe78aa84ba1)">
     <use xlink:href="#C0_0_8faae2d537" x="161.52025" y="117.09" style="fill: #2c738e; stroke: #ffffff"/>
    </g>
    <g clip-path="url(#pe78aa84ba1)">
     <use xlink:href="#C0_0_8faae2d537" x="167.52675" y="117.09" style="fill: #2f6b8e; stroke: #ffffff"/>
    </g>
    <g clip-path="url(#pe78aa84ba1)">
     <use xlink:href="#C0_0_8faae2d537" x="173.53325" y="117.09" style="fill: #33628d; stroke: #ffffff"/>
    </g>
    <g clip-path="url(#pe78aa84ba1)">
     <use xlink:href="#C0_0_8faae2d537" x="179.53975" y="117.09" style="fill: #38598c; stroke: #ffffff"/>
    </g>
    <g clip-path="url(#pe78aa84ba1)">
     <use xlink:href="#C0_0_8faae2d537" x="185.54625" y="117.09" style="fill: #3c4f8a; stroke: #ffffff"/>
    </g>
    <g clip-path="url(#pe78aa84ba1)">
     <use xlink:href="#C0_0_8faae2d537" x="191.55275" y="117.09" style="fill: #404588; stroke: #ffffff"/>
    </g>
    <g clip-path="url(#pe78aa84ba1)">
     <use xlink:href="#C0_0_8faae2d537" x="197.55925" y="117.09" style="fill: #443b84; stroke: #ffffff"/>
    </g>
    <g clip-path="url(#pe78aa84ba1)">
     <use xlink:href="#C0_0_8faae2d537" x="203.56575" y="117.09" style="fill: #46307e; stroke: #ffffff"/>
    </g>
    <g clip-path="url(#pe78aa84ba1)">
     <use xlink:href="#C0_0_8faae2d537" x="209.57225" y="117.09" style="fill: #482576; stroke: #ffffff"/>
    </g>
    <g clip-path="url(#pe78aa84ba1)">
     <use xlink:href="#C0_0_8faae2d537" x="215.57875" y="117.09" style="fill: #481a6c; stroke: #ffffff"/>
    </g>
    <g clip-path="url(#pe78aa84ba1)">
     <use xlink:href="#C0_0_8faae2d537" x="221.58525" y="117.09" style="fill: #470d60; stroke: #ffffff"/>
    </g>
    <g clip-path="url(#pe78aa84ba1)">
     <use xlink:href="#C0_0_8faae2d537" x="227.59175" y="117.09" style="fill: #440154; stroke: #ffffff"/>
    </g>
   </g>
   <g id="matplotlib.axis_1">
    <g id="xtick_1">
     <g id="line2d_1">
      <path d="M 227.59175 214.02 
L 227.59175 20.16 
" clip-path="url(#pe78aa84ba1)" style="fill: none; stroke-dasharray: 2.96,1.28; stroke-dashoffset: 0; stroke: #b0b0b0; stroke-opacity: 0.5; stroke-width: 0.8"/>
     </g>
     <g id="line2d_2">
      <defs>
       <path id="m85d57db927" d="M 0 0 
L 0 6 
" style="stroke: #000000; stroke-width: 1.5"/>
      </defs>
      <g>
       <use xlink:href="#m85d57db927" x="227.59175" y="214.02" style="stroke: #000000; stroke-width: 1.5"/>
      </g>
     </g>
     <g id="text_1">
      <!-- 30 -->
      <g transform="translate(213.689406 241.414531) scale(0.25 -0.25)">
       <defs>
        <path id="ArialMT-33" d="M 269 1209 
L 831 1284 
Q 928 806 1161 595 
Q 1394 384 1728 384 
Q 2125 384 2398 659 
Q 2672 934 2672 1341 
Q 2672 1728 2419 1979 
Q 2166 2231 1775 2231 
Q 1616 2231 1378 2169 
L 1441 2663 
Q 1497 2656 1531 2656 
Q 1891 2656 2178 2843 
Q 2466 3031 2466 3422 
Q 2466 3731 2256 3934 
Q 2047 4138 1716 4138 
Q 1388 4138 1169 3931 
Q 950 3725 888 3313 
L 325 3413 
Q 428 3978 793 4289 
Q 1159 4600 1703 4600 
Q 2078 4600 2393 4439 
Q 2709 4278 2876 4000 
Q 3044 3722 3044 3409 
Q 3044 3113 2884 2869 
Q 2725 2625 2413 2481 
Q 2819 2388 3044 2092 
Q 3269 1797 3269 1353 
Q 3269 753 2831 336 
Q 2394 -81 1725 -81 
Q 1122 -81 723 278 
Q 325 638 269 1209 
z
" transform="scale(0.015625)"/>
        <path id="ArialMT-30" d="M 266 2259 
Q 266 3072 433 3567 
Q 600 4063 929 4331 
Q 1259 4600 1759 4600 
Q 2128 4600 2406 4451 
Q 2684 4303 2865 4023 
Q 3047 3744 3150 3342 
Q 3253 2941 3253 2259 
Q 3253 1453 3087 958 
Q 2922 463 2592 192 
Q 2263 -78 1759 -78 
Q 1097 -78 719 397 
Q 266 969 266 2259 
z
M 844 2259 
Q 844 1131 1108 757 
Q 1372 384 1759 384 
Q 2147 384 2411 759 
Q 2675 1134 2675 2259 
Q 2675 3391 2411 3762 
Q 2147 4134 1753 4134 
Q 1366 4134 1134 3806 
Q 844 3388 844 2259 
z
" transform="scale(0.015625)"/>
       </defs>
       <use xlink:href="#ArialMT-33"/>
       <use xlink:href="#ArialMT-30" x="55.615234"/>
      </g>
     </g>
    </g>
    <g id="text_2">
     <!-- Trial -->
     <g transform="translate(113.803438 270.425156) scale(0.28 -0.28)">
      <defs>
       <path id="ArialMT-54" d="M 1659 0 
L 1659 4041 
L 150 4041 
L 150 4581 
L 3781 4581 
L 3781 4041 
L 2266 4041 
L 2266 0 
L 1659 0 
z
" transform="scale(0.015625)"/>
       <path id="ArialMT-72" d="M 416 0 
L 416 3319 
L 922 3319 
L 922 2816 
Q 1116 3169 1280 3281 
Q 1444 3394 1641 3394 
Q 1925 3394 2219 3213 
L 2025 2691 
Q 1819 2813 1613 2813 
Q 1428 2813 1281 2702 
Q 1134 2591 1072 2394 
Q 978 2094 978 1738 
L 978 0 
L 416 0 
z
" transform="scale(0.015625)"/>
       <path id="ArialMT-69" d="M 425 3934 
L 425 4581 
L 988 4581 
L 988 3934 
L 425 3934 
z
M 425 0 
L 425 3319 
L 988 3319 
L 988 0 
L 425 0 
z
" transform="scale(0.015625)"/>
       <path id="ArialMT-61" d="M 2588 409 
Q 2275 144 1986 34 
Q 1697 -75 1366 -75 
Q 819 -75 525 192 
Q 231 459 231 875 
Q 231 1119 342 1320 
Q 453 1522 633 1644 
Q 813 1766 1038 1828 
Q 1203 1872 1538 1913 
Q 2219 1994 2541 2106 
Q 2544 2222 2544 2253 
Q 2544 2597 2384 2738 
Q 2169 2928 1744 2928 
Q 1347 2928 1158 2789 
Q 969 2650 878 2297 
L 328 2372 
Q 403 2725 575 2942 
Q 747 3159 1072 3276 
Q 1397 3394 1825 3394 
Q 2250 3394 2515 3294 
Q 2781 3194 2906 3042 
Q 3031 2891 3081 2659 
Q 3109 2516 3109 2141 
L 3109 1391 
Q 3109 606 3145 398 
Q 3181 191 3288 0 
L 2700 0 
Q 2613 175 2588 409 
z
M 2541 1666 
Q 2234 1541 1622 1453 
Q 1275 1403 1131 1340 
Q 988 1278 909 1158 
Q 831 1038 831 891 
Q 831 666 1001 516 
Q 1172 366 1500 366 
Q 1825 366 2078 508 
Q 2331 650 2450 897 
Q 2541 1088 2541 1459 
L 2541 1666 
z
" transform="scale(0.015625)"/>
       <path id="ArialMT-6c" d="M 409 0 
L 409 4581 
L 972 4581 
L 972 0 
L 409 0 
z
" transform="scale(0.015625)"/>
      </defs>
      <use xlink:href="#ArialMT-54"/>
      <use xlink:href="#ArialMT-72" x="57.333984"/>
      <use xlink:href="#ArialMT-69" x="90.634766"/>
      <use xlink:href="#ArialMT-61" x="112.851562"/>
      <use xlink:href="#ArialMT-6c" x="168.466797"/>
     </g>
    </g>
   </g>
   <g id="matplotlib.axis_2">
    <g id="ytick_1">
     <g id="line2d_3">
      <path d="M 50.4 214.02 
L 230.595 214.02 
" clip-path="url(#pe78aa84ba1)" style="fill: none; stroke-dasharray: 2.96,1.28; stroke-dashoffset: 0; stroke: #b0b0b0; stroke-opacity: 0.5; stroke-width: 0.8"/>
     </g>
     <g id="line2d_4">
      <defs>
       <path id="m806f92af58" d="M 0 0 
L -6 0 
" style="stroke: #000000; stroke-width: 1.5"/>
      </defs>
      <g>
       <use xlink:href="#m806f92af58" x="50.4" y="214.02" style="stroke: #000000; stroke-width: 1.5"/>
      </g>
     </g>
     <g id="text_3">
      <!-- 0 -->
      <g transform="translate(26.997656 222.967266) scale(0.25 -0.25)">
       <use xlink:href="#ArialMT-30"/>
      </g>
     </g>
    </g>
    <g id="ytick_2">
     <g id="line2d_5">
      <path d="M 50.4 117.09 
L 230.595 117.09 
" clip-path="url(#pe78aa84ba1)" style="fill: none; stroke-dasharray: 2.96,1.28; stroke-dashoffset: 0; stroke: #b0b0b0; stroke-opacity: 0.5; stroke-width: 0.8"/>
     </g>
     <g id="line2d_6">
      <g>
       <use xlink:href="#m806f92af58" x="50.4" y="117.09" style="stroke: #000000; stroke-width: 1.5"/>
      </g>
     </g>
     <g id="text_4">
      <!-- 0.5 -->
      <g transform="translate(6.15 126.037266) scale(0.25 -0.25)">
       <defs>
        <path id="ArialMT-2e" d="M 581 0 
L 581 641 
L 1222 641 
L 1222 0 
L 581 0 
z
" transform="scale(0.015625)"/>
        <path id="ArialMT-35" d="M 266 1200 
L 856 1250 
Q 922 819 1161 601 
Q 1400 384 1738 384 
Q 2144 384 2425 690 
Q 2706 997 2706 1503 
Q 2706 1984 2436 2262 
Q 2166 2541 1728 2541 
Q 1456 2541 1237 2417 
Q 1019 2294 894 2097 
L 366 2166 
L 809 4519 
L 3088 4519 
L 3088 3981 
L 1259 3981 
L 1013 2750 
Q 1425 3038 1878 3038 
Q 2478 3038 2890 2622 
Q 3303 2206 3303 1553 
Q 3303 931 2941 478 
Q 2500 -78 1738 -78 
Q 1113 -78 717 272 
Q 322 622 266 1200 
z
" transform="scale(0.015625)"/>
       </defs>
       <use xlink:href="#ArialMT-30"/>
       <use xlink:href="#ArialMT-2e" x="55.615234"/>
       <use xlink:href="#ArialMT-35" x="83.398438"/>
      </g>
     </g>
    </g>
    <g id="ytick_3">
     <g id="line2d_7">
      <path d="M 50.4 20.16 
L 230.595 20.16 
" clip-path="url(#pe78aa84ba1)" style="fill: none; stroke-dasharray: 2.96,1.28; stroke-dashoffset: 0; stroke: #b0b0b0; stroke-opacity: 0.5; stroke-width: 0.8"/>
     </g>
     <g id="line2d_8">
      <g>
       <use xlink:href="#m806f92af58" x="50.4" y="20.16" style="stroke: #000000; stroke-width: 1.5"/>
      </g>
     </g>
     <g id="text_5">
      <!-- 1 -->
      <g transform="translate(26.997656 29.107266) scale(0.25 -0.25)">
       <defs>
        <path id="ArialMT-31" d="M 2384 0 
L 1822 0 
L 1822 3584 
Q 1619 3391 1289 3197 
Q 959 3003 697 2906 
L 697 3450 
Q 1169 3672 1522 3987 
Q 1875 4303 2022 4600 
L 2384 4600 
L 2384 0 
z
" transform="scale(0.015625)"/>
       </defs>
       <use xlink:href="#ArialMT-31"/>
      </g>
     </g>
    </g>
   </g>
   <g id="LineCollection_1">
    <path d="M 53.40325 84.78 
L 59.40975 84.78 
" clip-path="url(#pe78aa84ba1)" style="fill: none; stroke: #fde725; stroke-width: 2"/>
    <path d="M 59.40975 84.78 
L 65.41625 84.78 
" clip-path="url(#pe78aa84ba1)" style="fill: none; stroke: #e7e419; stroke-width: 2"/>
    <path d="M 65.41625 84.78 
L 71.42275 84.78 
" clip-path="url(#pe78aa84ba1)" style="fill: none; stroke: #d0e11c; stroke-width: 2"/>
    <path d="M 71.42275 84.78 
L 77.42925 84.78 
" clip-path="url(#pe78aa84ba1)" style="fill: none; stroke: #b8de29; stroke-width: 2"/>
    <path d="M 77.42925 84.78 
L 83.43575 84.78 
" clip-path="url(#pe78aa84ba1)" style="fill: none; stroke: #a0da39; stroke-width: 2"/>
    <path d="M 83.43575 84.78 
L 89.44225 84.78 
" clip-path="url(#pe78aa84ba1)" style="fill: none; stroke: #89d548; stroke-width: 2"/>
    <path d="M 89.44225 84.78 
L 95.44875 84.78 
" clip-path="url(#pe78aa84ba1)" style="fill: none; stroke: #73d056; stroke-width: 2"/>
    <path d="M 95.44875 84.78 
L 101.45525 84.78 
" clip-path="url(#pe78aa84ba1)" style="fill: none; stroke: #5ec962; stroke-width: 2"/>
    <path d="M 101.45525 84.78 
L 107.46175 117.09 
" clip-path="url(#pe78aa84ba1)" style="fill: none; stroke: #4ac16d; stroke-width: 2"/>
    <path d="M 107.46175 117.09 
L 113.46825 117.09 
" clip-path="url(#pe78aa84ba1)" style="fill: none; stroke: #3aba76; stroke-width: 2"/>
    <path d="M 113.46825 117.09 
L 119.47475 117.09 
" clip-path="url(#pe78aa84ba1)" style="fill: none; stroke: #2db27d; stroke-width: 2"/>
    <path d="M 119.47475 117.09 
L 125.48125 117.09 
" clip-path="url(#pe78aa84ba1)" style="fill: none; stroke: #24aa83; stroke-width: 2"/>
    <path d="M 125.48125 117.09 
L 131.48775 117.09 
" clip-path="url(#pe78aa84ba1)" style="fill: none; stroke: #1fa187; stroke-width: 2"/>
    <path d="M 131.48775 117.09 
L 137.49425 117.09 
" clip-path="url(#pe78aa84ba1)" style="fill: none; stroke: #1f998a; stroke-width: 2"/>
    <path d="M 137.49425 117.09 
L 143.50075 117.09 
" clip-path="url(#pe78aa84ba1)" style="fill: none; stroke: #21908d; stroke-width: 2"/>
    <path d="M 143.50075 117.09 
L 149.50725 117.09 
" clip-path="url(#pe78aa84ba1)" style="fill: none; stroke: #24878e; stroke-width: 2"/>
    <path d="M 149.50725 117.09 
L 155.51375 117.09 
" clip-path="url(#pe78aa84ba1)" style="fill: none; stroke: #277f8e; stroke-width: 2"/>
    <path d="M 155.51375 117.09 
L 161.52025 117.09 
" clip-path="url(#pe78aa84ba1)" style="fill: none; stroke: #2a768e; stroke-width: 2"/>
    <path d="M 161.52025 117.09 
L 167.52675 117.09 
" clip-path="url(#pe78aa84ba1)" style="fill: none; stroke: #2e6e8e; stroke-width: 2"/>
    <path d="M 167.52675 117.09 
L 173.53325 117.09 
" clip-path="url(#pe78aa84ba1)" style="fill: none; stroke: #32658e; stroke-width: 2"/>
    <path d="M 173.53325 117.09 
L 179.53975 117.09 
" clip-path="url(#pe78aa84ba1)" style="fill: none; stroke: #365c8d; stroke-width: 2"/>
    <path d="M 179.53975 117.09 
L 185.54625 117.09 
" clip-path="url(#pe78aa84ba1)" style="fill: none; stroke: #3b518b; stroke-width: 2"/>
    <path d="M 185.54625 117.09 
L 191.55275 117.09 
" clip-path="url(#pe78aa84ba1)" style="fill: none; stroke: #3f4788; stroke-width: 2"/>
    <path d="M 191.55275 117.09 
L 197.55925 117.09 
" clip-path="url(#pe78aa84ba1)" style="fill: none; stroke: #433d84; stroke-width: 2"/>
    <path d="M 197.55925 117.09 
L 203.56575 117.09 
" clip-path="url(#pe78aa84ba1)" style="fill: none; stroke: #46327e; stroke-width: 2"/>
    <path d="M 203.56575 117.09 
L 209.57225 117.09 
" clip-path="url(#pe78aa84ba1)" style="fill: none; stroke: #482677; stroke-width: 2"/>
    <path d="M 209.57225 117.09 
L 215.57875 117.09 
" clip-path="url(#pe78aa84ba1)" style="fill: none; stroke: #481b6d; stroke-width: 2"/>
    <path d="M 215.57875 117.09 
L 221.58525 117.09 
" clip-path="url(#pe78aa84ba1)" style="fill: none; stroke: #470e61; stroke-width: 2"/>
    <path d="M 221.58525 117.09 
L 227.59175 117.09 
" clip-path="url(#pe78aa84ba1)" style="fill: none; stroke: #440154; stroke-width: 2"/>
   </g>
   <g id="patch_3">
    <path d="M 50.4 214.02 
L 50.4 20.16 
" style="fill: none; stroke: #000000; stroke-width: 2; stroke-linejoin: miter; stroke-linecap: square"/>
   </g>
   <g id="patch_4">
    <path d="M 230.595 214.02 
L 230.595 20.16 
" style="fill: none; stroke: #000000; stroke-width: 2; stroke-linejoin: miter; stroke-linecap: square"/>
   </g>
   <g id="patch_5">
    <path d="M 50.4 214.02 
L 230.595 214.02 
" style="fill: none; stroke: #000000; stroke-width: 2; stroke-linejoin: miter; stroke-linecap: square"/>
   </g>
   <g id="patch_6">
    <path d="M 50.4 20.16 
L 230.595 20.16 
" style="fill: none; stroke: #000000; stroke-width: 2; stroke-linejoin: miter; stroke-linecap: square"/>
   </g>
   <g id="text_6">
    <!-- feat$_4$ -->
    <g transform="translate(161.10525 49.894875) scale(0.28 -0.28)">
     <defs>
      <path id="ArialMT-66" d="M 556 0 
L 556 2881 
L 59 2881 
L 59 3319 
L 556 3319 
L 556 3672 
Q 556 4006 616 4169 
Q 697 4388 901 4523 
Q 1106 4659 1475 4659 
Q 1713 4659 2000 4603 
L 1916 4113 
Q 1741 4144 1584 4144 
Q 1328 4144 1222 4034 
Q 1116 3925 1116 3625 
L 1116 3319 
L 1763 3319 
L 1763 2881 
L 1116 2881 
L 1116 0 
L 556 0 
z
" transform="scale(0.015625)"/>
      <path id="ArialMT-65" d="M 2694 1069 
L 3275 997 
Q 3138 488 2766 206 
Q 2394 -75 1816 -75 
Q 1088 -75 661 373 
Q 234 822 234 1631 
Q 234 2469 665 2931 
Q 1097 3394 1784 3394 
Q 2450 3394 2872 2941 
Q 3294 2488 3294 1666 
Q 3294 1616 3291 1516 
L 816 1516 
Q 847 969 1125 678 
Q 1403 388 1819 388 
Q 2128 388 2347 550 
Q 2566 713 2694 1069 
z
M 847 1978 
L 2700 1978 
Q 2663 2397 2488 2606 
Q 2219 2931 1791 2931 
Q 1403 2931 1139 2672 
Q 875 2413 847 1978 
z
" transform="scale(0.015625)"/>
      <path id="ArialMT-74" d="M 1650 503 
L 1731 6 
Q 1494 -44 1306 -44 
Q 1000 -44 831 53 
Q 663 150 594 308 
Q 525 466 525 972 
L 525 2881 
L 113 2881 
L 113 3319 
L 525 3319 
L 525 4141 
L 1084 4478 
L 1084 3319 
L 1650 3319 
L 1650 2881 
L 1084 2881 
L 1084 941 
Q 1084 700 1114 631 
Q 1144 563 1211 522 
Q 1278 481 1403 481 
Q 1497 481 1650 503 
z
" transform="scale(0.015625)"/>
      <path id="DejaVuSans-34" d="M 2419 4116 
L 825 1625 
L 2419 1625 
L 2419 4116 
z
M 2253 4666 
L 3047 4666 
L 3047 1625 
L 3713 1625 
L 3713 1100 
L 3047 1100 
L 3047 0 
L 2419 0 
L 2419 1100 
L 313 1100 
L 313 1709 
L 2253 4666 
z
" transform="scale(0.015625)"/>
     </defs>
     <use xlink:href="#ArialMT-66" transform="translate(0 0.203125)"/>
     <use xlink:href="#ArialMT-65" transform="translate(27.783203 0.203125)"/>
     <use xlink:href="#ArialMT-61" transform="translate(83.398438 0.203125)"/>
     <use xlink:href="#ArialMT-74" transform="translate(139.013672 0.203125)"/>
     <use xlink:href="#DejaVuSans-34" transform="translate(167.753906 -16.203125) scale(0.7)"/>
    </g>
   </g>
  </g>
 </g>
 <defs>
  <clipPath id="pe78aa84ba1">
   <rect x="50.4" y="20.16" width="180.195" height="193.86"/>
  </clipPath>
 </defs>
</svg>
