<?xml version="1.0" encoding="utf-8" standalone="no"?>
<!DOCTYPE svg PUBLIC "-//W3C//DTD SVG 1.1//EN"
  "http://www.w3.org/Graphics/SVG/1.1/DTD/svg11.dtd">
<svg xmlns:xlink="http://www.w3.org/1999/xlink" width="252pt" height="288pt" viewBox="0 0 252 288" xmlns="http://www.w3.org/2000/svg" version="1.1">
 <metadata>
  <rdf:RDF xmlns:dc="http://purl.org/dc/elements/1.1/" xmlns:cc="http://creativecommons.org/ns#" xmlns:rdf="http://www.w3.org/1999/02/22-rdf-syntax-ns#">
   <cc:Work>
    <dc:type rdf:resource="http://purl.org/dc/dcmitype/StillImage"/>
    <dc:date>2025-05-13T14:58:36.356914</dc:date>
    <dc:format>image/svg+xml</dc:format>
    <dc:creator>
     <cc:Agent>
      <dc:title>Matplotlib v3.8.4, https://matplotlib.org/</dc:title>
     </cc:Agent>
    </dc:creator>
   </cc:Work>
  </rdf:RDF>
 </metadata>
 <defs>
  <style type="text/css">*{stroke-linejoin: round; stroke-linecap: butt}</style>
 </defs>
 <g id="figure_1">
  <g id="patch_1">
   <path d="M 0 288 
L 252 288 
L 252 0 
L 0 0 
L 0 288 
z
" style="fill: none"/>
  </g>
  <g id="axes_1">
   <g id="patch_2">
    <path d="M 50.4 214.02 
L 231.095769 214.02 
L 231.095769 20.16 
L 50.4 20.16 
L 50.4 214.02 
z
" style="fill: none"/>
   </g>
   <g id="PathCollection_1">
    <defs>
     <path id="C0_0_07c046acff" d="M 0 2.738613 
C 0.726289 2.738613 1.422928 2.450055 1.936492 1.936492 
C 2.450055 1.422928 2.738613 0.726289 2.738613 -0 
C 2.738613 -0.726289 2.450055 -1.422928 1.936492 -1.936492 
C 1.422928 -2.450055 0.726289 -2.738613 0 -2.738613 
C -0.726289 -2.738613 -1.422928 -2.450055 -1.936492 -1.936492 
C -2.450055 -1.422928 -2.738613 -0.726289 -2.738613 0 
C -2.738613 0.726289 -2.450055 1.422928 -1.936492 1.936492 
C -1.422928 2.450055 -0.726289 2.738613 0 2.738613 
z
"/>
    </defs>
    <g clip-path="url(#p936d7b4a10)">
     <use xlink:href="#C0_0_07c046acff" x="53.874919" y="84.78" style="fill: #fde725; stroke: #ffffff"/>
    </g>
    <g clip-path="url(#p936d7b4a10)">
     <use xlink:href="#C0_0_07c046acff" x="60.824756" y="84.78" style="fill: #e5e419; stroke: #ffffff"/>
    </g>
    <g clip-path="url(#p936d7b4a10)">
     <use xlink:href="#C0_0_07c046acff" x="67.774593" y="84.78" style="fill: #cae11f; stroke: #ffffff"/>
    </g>
    <g clip-path="url(#p936d7b4a10)">
     <use xlink:href="#C0_0_07c046acff" x="74.72443" y="84.78" style="fill: #b0dd2f; stroke: #ffffff"/>
    </g>
    <g clip-path="url(#p936d7b4a10)">
     <use xlink:href="#C0_0_07c046acff" x="81.674268" y="84.78" style="fill: #95d840; stroke: #ffffff"/>
    </g>
    <g clip-path="url(#p936d7b4a10)">
     <use xlink:href="#C0_0_07c046acff" x="88.624105" y="84.78" style="fill: #7ad151; stroke: #ffffff"/>
    </g>
    <g clip-path="url(#p936d7b4a10)">
     <use xlink:href="#C0_0_07c046acff" x="95.573942" y="84.78" style="fill: #63cb5f; stroke: #ffffff"/>
    </g>
    <g clip-path="url(#p936d7b4a10)">
     <use xlink:href="#C0_0_07c046acff" x="102.52378" y="84.78" style="fill: #4ec36b; stroke: #ffffff"/>
    </g>
    <g clip-path="url(#p936d7b4a10)">
     <use xlink:href="#C0_0_07c046acff" x="109.473617" y="84.78" style="fill: #3bbb75; stroke: #ffffff"/>
    </g>
    <g clip-path="url(#p936d7b4a10)">
     <use xlink:href="#C0_0_07c046acff" x="116.423454" y="117.09" style="fill: #2cb17e; stroke: #ffffff"/>
    </g>
    <g clip-path="url(#p936d7b4a10)">
     <use xlink:href="#C0_0_07c046acff" x="123.373291" y="117.09" style="fill: #22a884; stroke: #ffffff"/>
    </g>
    <g clip-path="url(#p936d7b4a10)">
     <use xlink:href="#C0_0_07c046acff" x="130.323129" y="117.09" style="fill: #1f9f88; stroke: #ffffff"/>
    </g>
    <g clip-path="url(#p936d7b4a10)">
     <use xlink:href="#C0_0_07c046acff" x="137.272966" y="117.09" style="fill: #1f958b; stroke: #ffffff"/>
    </g>
    <g clip-path="url(#p936d7b4a10)">
     <use xlink:href="#C0_0_07c046acff" x="144.222803" y="117.09" style="fill: #228b8d; stroke: #ffffff"/>
    </g>
    <g clip-path="url(#p936d7b4a10)">
     <use xlink:href="#C0_0_07c046acff" x="151.172641" y="117.09" style="fill: #26828e; stroke: #ffffff"/>
    </g>
    <g clip-path="url(#p936d7b4a10)">
     <use xlink:href="#C0_0_07c046acff" x="158.122478" y="117.09" style="fill: #2a788e; stroke: #ffffff"/>
    </g>
    <g clip-path="url(#p936d7b4a10)">
     <use xlink:href="#C0_0_07c046acff" x="165.072315" y="117.09" style="fill: #2e6f8e; stroke: #ffffff"/>
    </g>
    <g clip-path="url(#p936d7b4a10)">
     <use xlink:href="#C0_0_07c046acff" x="172.022152" y="117.09" style="fill: #32648e; stroke: #ffffff"/>
    </g>
    <g clip-path="url(#p936d7b4a10)">
     <use xlink:href="#C0_0_07c046acff" x="178.97199" y="117.09" style="fill: #375a8c; stroke: #ffffff"/>
    </g>
    <g clip-path="url(#p936d7b4a10)">
     <use xlink:href="#C0_0_07c046acff" x="185.921827" y="117.09" style="fill: #3c4f8a; stroke: #ffffff"/>
    </g>
    <g clip-path="url(#p936d7b4a10)">
     <use xlink:href="#C0_0_07c046acff" x="192.871664" y="117.09" style="fill: #414487; stroke: #ffffff"/>
    </g>
    <g clip-path="url(#p936d7b4a10)">
     <use xlink:href="#C0_0_07c046acff" x="199.821501" y="117.09" style="fill: #453781; stroke: #ffffff"/>
    </g>
    <g clip-path="url(#p936d7b4a10)">
     <use xlink:href="#C0_0_07c046acff" x="206.771339" y="117.09" style="fill: #472a7a; stroke: #ffffff"/>
    </g>
    <g clip-path="url(#p936d7b4a10)">
     <use xlink:href="#C0_0_07c046acff" x="213.721176" y="117.09" style="fill: #481d6f; stroke: #ffffff"/>
    </g>
    <g clip-path="url(#p936d7b4a10)">
     <use xlink:href="#C0_0_07c046acff" x="220.671013" y="117.09" style="fill: #471063; stroke: #ffffff"/>
    </g>
    <g clip-path="url(#p936d7b4a10)">
     <use xlink:href="#C0_0_07c046acff" x="227.620851" y="117.09" style="fill: #440154; stroke: #ffffff"/>
    </g>
   </g>
   <g id="matplotlib.axis_1">
    <g id="xtick_1">
     <g id="line2d_1">
      <path d="M 227.620851 214.02 
L 227.620851 20.16 
" clip-path="url(#p936d7b4a10)" style="fill: none; stroke-dasharray: 2.96,1.28; stroke-dashoffset: 0; stroke: #b0b0b0; stroke-opacity: 0.5; stroke-width: 0.8"/>
     </g>
     <g id="line2d_2">
      <defs>
       <path id="m9df2bbacc9" d="M 0 0 
L 0 6 
" style="stroke: #000000; stroke-width: 1.5"/>
      </defs>
      <g>
       <use xlink:href="#m9df2bbacc9" x="227.620851" y="214.02" style="stroke: #000000; stroke-width: 1.5"/>
      </g>
     </g>
     <g id="text_1">
      <!-- 26 -->
      <g transform="translate(213.718507 241.414531) scale(0.25 -0.25)">
       <defs>
        <path id="ArialMT-32" d="M 3222 541 
L 3222 0 
L 194 0 
Q 188 203 259 391 
Q 375 700 629 1000 
Q 884 1300 1366 1694 
Q 2113 2306 2375 2664 
Q 2638 3022 2638 3341 
Q 2638 3675 2398 3904 
Q 2159 4134 1775 4134 
Q 1369 4134 1125 3890 
Q 881 3647 878 3216 
L 300 3275 
Q 359 3922 746 4261 
Q 1134 4600 1788 4600 
Q 2447 4600 2831 4234 
Q 3216 3869 3216 3328 
Q 3216 3053 3103 2787 
Q 2991 2522 2730 2228 
Q 2469 1934 1863 1422 
Q 1356 997 1212 845 
Q 1069 694 975 541 
L 3222 541 
z
" transform="scale(0.015625)"/>
        <path id="ArialMT-36" d="M 3184 3459 
L 2625 3416 
Q 2550 3747 2413 3897 
Q 2184 4138 1850 4138 
Q 1581 4138 1378 3988 
Q 1113 3794 959 3422 
Q 806 3050 800 2363 
Q 1003 2672 1297 2822 
Q 1591 2972 1913 2972 
Q 2475 2972 2870 2558 
Q 3266 2144 3266 1488 
Q 3266 1056 3080 686 
Q 2894 316 2569 119 
Q 2244 -78 1831 -78 
Q 1128 -78 684 439 
Q 241 956 241 2144 
Q 241 3472 731 4075 
Q 1159 4600 1884 4600 
Q 2425 4600 2770 4297 
Q 3116 3994 3184 3459 
z
M 888 1484 
Q 888 1194 1011 928 
Q 1134 663 1356 523 
Q 1578 384 1822 384 
Q 2178 384 2434 671 
Q 2691 959 2691 1453 
Q 2691 1928 2437 2201 
Q 2184 2475 1800 2475 
Q 1419 2475 1153 2201 
Q 888 1928 888 1484 
z
" transform="scale(0.015625)"/>
       </defs>
       <use xlink:href="#ArialMT-32"/>
       <use xlink:href="#ArialMT-36" x="55.615234"/>
      </g>
     </g>
    </g>
    <g id="text_2">
     <!-- Trial -->
     <g transform="translate(114.053822 270.425156) scale(0.28 -0.28)">
      <defs>
       <path id="ArialMT-54" d="M 1659 0 
L 1659 4041 
L 150 4041 
L 150 4581 
L 3781 4581 
L 3781 4041 
L 2266 4041 
L 2266 0 
L 1659 0 
z
" transform="scale(0.015625)"/>
       <path id="ArialMT-72" d="M 416 0 
L 416 3319 
L 922 3319 
L 922 2816 
Q 1116 3169 1280 3281 
Q 1444 3394 1641 3394 
Q 1925 3394 2219 3213 
L 2025 2691 
Q 1819 2813 1613 2813 
Q 1428 2813 1281 2702 
Q 1134 2591 1072 2394 
Q 978 2094 978 1738 
L 978 0 
L 416 0 
z
" transform="scale(0.015625)"/>
       <path id="ArialMT-69" d="M 425 3934 
L 425 4581 
L 988 4581 
L 988 3934 
L 425 3934 
z
M 425 0 
L 425 3319 
L 988 3319 
L 988 0 
L 425 0 
z
" transform="scale(0.015625)"/>
       <path id="ArialMT-61" d="M 2588 409 
Q 2275 144 1986 34 
Q 1697 -75 1366 -75 
Q 819 -75 525 192 
Q 231 459 231 875 
Q 231 1119 342 1320 
Q 453 1522 633 1644 
Q 813 1766 1038 1828 
Q 1203 1872 1538 1913 
Q 2219 1994 2541 2106 
Q 2544 2222 2544 2253 
Q 2544 2597 2384 2738 
Q 2169 2928 1744 2928 
Q 1347 2928 1158 2789 
Q 969 2650 878 2297 
L 328 2372 
Q 403 2725 575 2942 
Q 747 3159 1072 3276 
Q 1397 3394 1825 3394 
Q 2250 3394 2515 3294 
Q 2781 3194 2906 3042 
Q 3031 2891 3081 2659 
Q 3109 2516 3109 2141 
L 3109 1391 
Q 3109 606 3145 398 
Q 3181 191 3288 0 
L 2700 0 
Q 2613 175 2588 409 
z
M 2541 1666 
Q 2234 1541 1622 1453 
Q 1275 1403 1131 1340 
Q 988 1278 909 1158 
Q 831 1038 831 891 
Q 831 666 1001 516 
Q 1172 366 1500 366 
Q 1825 366 2078 508 
Q 2331 650 2450 897 
Q 2541 1088 2541 1459 
L 2541 1666 
z
" transform="scale(0.015625)"/>
       <path id="ArialMT-6c" d="M 409 0 
L 409 4581 
L 972 4581 
L 972 0 
L 409 0 
z
" transform="scale(0.015625)"/>
      </defs>
      <use xlink:href="#ArialMT-54"/>
      <use xlink:href="#ArialMT-72" x="57.333984"/>
      <use xlink:href="#ArialMT-69" x="90.634766"/>
      <use xlink:href="#ArialMT-61" x="112.851562"/>
      <use xlink:href="#ArialMT-6c" x="168.466797"/>
     </g>
    </g>
   </g>
   <g id="matplotlib.axis_2">
    <g id="ytick_1">
     <g id="line2d_3">
      <path d="M 50.4 214.02 
L 231.095769 214.02 
" clip-path="url(#p936d7b4a10)" style="fill: none; stroke-dasharray: 2.96,1.28; stroke-dashoffset: 0; stroke: #b0b0b0; stroke-opacity: 0.5; stroke-width: 0.8"/>
     </g>
     <g id="line2d_4">
      <defs>
       <path id="mcc3e12729d" d="M 0 0 
L -6 0 
" style="stroke: #000000; stroke-width: 1.5"/>
      </defs>
      <g>
       <use xlink:href="#mcc3e12729d" x="50.4" y="214.02" style="stroke: #000000; stroke-width: 1.5"/>
      </g>
     </g>
     <g id="text_3">
      <!-- 0 -->
      <g transform="translate(26.997656 222.967266) scale(0.25 -0.25)">
       <defs>
        <path id="ArialMT-30" d="M 266 2259 
Q 266 3072 433 3567 
Q 600 4063 929 4331 
Q 1259 4600 1759 4600 
Q 2128 4600 2406 4451 
Q 2684 4303 2865 4023 
Q 3047 3744 3150 3342 
Q 3253 2941 3253 2259 
Q 3253 1453 3087 958 
Q 2922 463 2592 192 
Q 2263 -78 1759 -78 
Q 1097 -78 719 397 
Q 266 969 266 2259 
z
M 844 2259 
Q 844 1131 1108 757 
Q 1372 384 1759 384 
Q 2147 384 2411 759 
Q 2675 1134 2675 2259 
Q 2675 3391 2411 3762 
Q 2147 4134 1753 4134 
Q 1366 4134 1134 3806 
Q 844 3388 844 2259 
z
" transform="scale(0.015625)"/>
       </defs>
       <use xlink:href="#ArialMT-30"/>
      </g>
     </g>
    </g>
    <g id="ytick_2">
     <g id="line2d_5">
      <path d="M 50.4 117.09 
L 231.095769 117.09 
" clip-path="url(#p936d7b4a10)" style="fill: none; stroke-dasharray: 2.96,1.28; stroke-dashoffset: 0; stroke: #b0b0b0; stroke-opacity: 0.5; stroke-width: 0.8"/>
     </g>
     <g id="line2d_6">
      <g>
       <use xlink:href="#mcc3e12729d" x="50.4" y="117.09" style="stroke: #000000; stroke-width: 1.5"/>
      </g>
     </g>
     <g id="text_4">
      <!-- 0.5 -->
      <g transform="translate(6.15 126.037266) scale(0.25 -0.25)">
       <defs>
        <path id="ArialMT-2e" d="M 581 0 
L 581 641 
L 1222 641 
L 1222 0 
L 581 0 
z
" transform="scale(0.015625)"/>
        <path id="ArialMT-35" d="M 266 1200 
L 856 1250 
Q 922 819 1161 601 
Q 1400 384 1738 384 
Q 2144 384 2425 690 
Q 2706 997 2706 1503 
Q 2706 1984 2436 2262 
Q 2166 2541 1728 2541 
Q 1456 2541 1237 2417 
Q 1019 2294 894 2097 
L 366 2166 
L 809 4519 
L 3088 4519 
L 3088 3981 
L 1259 3981 
L 1013 2750 
Q 1425 3038 1878 3038 
Q 2478 3038 2890 2622 
Q 3303 2206 3303 1553 
Q 3303 931 2941 478 
Q 2500 -78 1738 -78 
Q 1113 -78 717 272 
Q 322 622 266 1200 
z
" transform="scale(0.015625)"/>
       </defs>
       <use xlink:href="#ArialMT-30"/>
       <use xlink:href="#ArialMT-2e" x="55.615234"/>
       <use xlink:href="#ArialMT-35" x="83.398438"/>
      </g>
     </g>
    </g>
    <g id="ytick_3">
     <g id="line2d_7">
      <path d="M 50.4 20.16 
L 231.095769 20.16 
" clip-path="url(#p936d7b4a10)" style="fill: none; stroke-dasharray: 2.96,1.28; stroke-dashoffset: 0; stroke: #b0b0b0; stroke-opacity: 0.5; stroke-width: 0.8"/>
     </g>
     <g id="line2d_8">
      <g>
       <use xlink:href="#mcc3e12729d" x="50.4" y="20.16" style="stroke: #000000; stroke-width: 1.5"/>
      </g>
     </g>
     <g id="text_5">
      <!-- 1 -->
      <g transform="translate(26.997656 29.107266) scale(0.25 -0.25)">
       <defs>
        <path id="ArialMT-31" d="M 2384 0 
L 1822 0 
L 1822 3584 
Q 1619 3391 1289 3197 
Q 959 3003 697 2906 
L 697 3450 
Q 1169 3672 1522 3987 
Q 1875 4303 2022 4600 
L 2384 4600 
L 2384 0 
z
" transform="scale(0.015625)"/>
       </defs>
       <use xlink:href="#ArialMT-31"/>
      </g>
     </g>
    </g>
   </g>
   <g id="LineCollection_1">
    <path d="M 53.874919 84.78 
L 60.824756 84.78 
" clip-path="url(#p936d7b4a10)" style="fill: none; stroke: #fde725; stroke-width: 2"/>
    <path d="M 60.824756 84.78 
L 67.774593 84.78 
" clip-path="url(#p936d7b4a10)" style="fill: none; stroke: #e5e419; stroke-width: 2"/>
    <path d="M 67.774593 84.78 
L 74.72443 84.78 
" clip-path="url(#p936d7b4a10)" style="fill: none; stroke: #c8e020; stroke-width: 2"/>
    <path d="M 74.72443 84.78 
L 81.674268 84.78 
" clip-path="url(#p936d7b4a10)" style="fill: none; stroke: #addc30; stroke-width: 2"/>
    <path d="M 81.674268 84.78 
L 88.624105 84.78 
" clip-path="url(#p936d7b4a10)" style="fill: none; stroke: #90d743; stroke-width: 2"/>
    <path d="M 88.624105 84.78 
L 95.573942 84.78 
" clip-path="url(#p936d7b4a10)" style="fill: none; stroke: #75d054; stroke-width: 2"/>
    <path d="M 95.573942 84.78 
L 102.52378 84.78 
" clip-path="url(#p936d7b4a10)" style="fill: none; stroke: #5ec962; stroke-width: 2"/>
    <path d="M 102.52378 84.78 
L 109.473617 84.78 
" clip-path="url(#p936d7b4a10)" style="fill: none; stroke: #48c16e; stroke-width: 2"/>
    <path d="M 109.473617 84.78 
L 116.423454 117.09 
" clip-path="url(#p936d7b4a10)" style="fill: none; stroke: #35b779; stroke-width: 2"/>
    <path d="M 116.423454 117.09 
L 123.373291 117.09 
" clip-path="url(#p936d7b4a10)" style="fill: none; stroke: #27ad81; stroke-width: 2"/>
    <path d="M 123.373291 117.09 
L 130.323129 117.09 
" clip-path="url(#p936d7b4a10)" style="fill: none; stroke: #20a486; stroke-width: 2"/>
    <path d="M 130.323129 117.09 
L 137.272966 117.09 
" clip-path="url(#p936d7b4a10)" style="fill: none; stroke: #1f9a8a; stroke-width: 2"/>
    <path d="M 137.272966 117.09 
L 144.222803 117.09 
" clip-path="url(#p936d7b4a10)" style="fill: none; stroke: #21908d; stroke-width: 2"/>
    <path d="M 144.222803 117.09 
L 151.172641 117.09 
" clip-path="url(#p936d7b4a10)" style="fill: none; stroke: #24868e; stroke-width: 2"/>
    <path d="M 151.172641 117.09 
L 158.122478 117.09 
" clip-path="url(#p936d7b4a10)" style="fill: none; stroke: #287c8e; stroke-width: 2"/>
    <path d="M 158.122478 117.09 
L 165.072315 117.09 
" clip-path="url(#p936d7b4a10)" style="fill: none; stroke: #2c728e; stroke-width: 2"/>
    <path d="M 165.072315 117.09 
L 172.022152 117.09 
" clip-path="url(#p936d7b4a10)" style="fill: none; stroke: #31688e; stroke-width: 2"/>
    <path d="M 172.022152 117.09 
L 178.97199 117.09 
" clip-path="url(#p936d7b4a10)" style="fill: none; stroke: #365d8d; stroke-width: 2"/>
    <path d="M 178.97199 117.09 
L 185.921827 117.09 
" clip-path="url(#p936d7b4a10)" style="fill: none; stroke: #3b518b; stroke-width: 2"/>
    <path d="M 185.921827 117.09 
L 192.871664 117.09 
" clip-path="url(#p936d7b4a10)" style="fill: none; stroke: #404688; stroke-width: 2"/>
    <path d="M 192.871664 117.09 
L 199.821501 117.09 
" clip-path="url(#p936d7b4a10)" style="fill: none; stroke: #443983; stroke-width: 2"/>
    <path d="M 199.821501 117.09 
L 206.771339 117.09 
" clip-path="url(#p936d7b4a10)" style="fill: none; stroke: #472c7a; stroke-width: 2"/>
    <path d="M 206.771339 117.09 
L 213.721176 117.09 
" clip-path="url(#p936d7b4a10)" style="fill: none; stroke: #481f70; stroke-width: 2"/>
    <path d="M 213.721176 117.09 
L 220.671013 117.09 
" clip-path="url(#p936d7b4a10)" style="fill: none; stroke: #471063; stroke-width: 2"/>
    <path d="M 220.671013 117.09 
L 227.620851 117.09 
" clip-path="url(#p936d7b4a10)" style="fill: none; stroke: #440154; stroke-width: 2"/>
   </g>
   <g id="patch_3">
    <path d="M 50.4 214.02 
L 50.4 20.16 
" style="fill: none; stroke: #000000; stroke-width: 2; stroke-linejoin: miter; stroke-linecap: square"/>
   </g>
   <g id="patch_4">
    <path d="M 231.095769 214.02 
L 231.095769 20.16 
" style="fill: none; stroke: #000000; stroke-width: 2; stroke-linejoin: miter; stroke-linecap: square"/>
   </g>
   <g id="patch_5">
    <path d="M 50.4 214.02 
L 231.095769 214.02 
" style="fill: none; stroke: #000000; stroke-width: 2; stroke-linejoin: miter; stroke-linecap: square"/>
   </g>
   <g id="patch_6">
    <path d="M 50.4 20.16 
L 231.095769 20.16 
" style="fill: none; stroke: #000000; stroke-width: 2; stroke-linejoin: miter; stroke-linecap: square"/>
   </g>
   <g id="text_6">
    <!-- feat$_4$ -->
    <g transform="translate(161.580981 49.894875) scale(0.28 -0.28)">
     <defs>
      <path id="ArialMT-66" d="M 556 0 
L 556 2881 
L 59 2881 
L 59 3319 
L 556 3319 
L 556 3672 
Q 556 4006 616 4169 
Q 697 4388 901 4523 
Q 1106 4659 1475 4659 
Q 1713 4659 2000 4603 
L 1916 4113 
Q 1741 4144 1584 4144 
Q 1328 4144 1222 4034 
Q 1116 3925 1116 3625 
L 1116 3319 
L 1763 3319 
L 1763 2881 
L 1116 2881 
L 1116 0 
L 556 0 
z
" transform="scale(0.015625)"/>
      <path id="ArialMT-65" d="M 2694 1069 
L 3275 997 
Q 3138 488 2766 206 
Q 2394 -75 1816 -75 
Q 1088 -75 661 373 
Q 234 822 234 1631 
Q 234 2469 665 2931 
Q 1097 3394 1784 3394 
Q 2450 3394 2872 2941 
Q 3294 2488 3294 1666 
Q 3294 1616 3291 1516 
L 816 1516 
Q 847 969 1125 678 
Q 1403 388 1819 388 
Q 2128 388 2347 550 
Q 2566 713 2694 1069 
z
M 847 1978 
L 2700 1978 
Q 2663 2397 2488 2606 
Q 2219 2931 1791 2931 
Q 1403 2931 1139 2672 
Q 875 2413 847 1978 
z
" transform="scale(0.015625)"/>
      <path id="ArialMT-74" d="M 1650 503 
L 1731 6 
Q 1494 -44 1306 -44 
Q 1000 -44 831 53 
Q 663 150 594 308 
Q 525 466 525 972 
L 525 2881 
L 113 2881 
L 113 3319 
L 525 3319 
L 525 4141 
L 1084 4478 
L 1084 3319 
L 1650 3319 
L 1650 2881 
L 1084 2881 
L 1084 941 
Q 1084 700 1114 631 
Q 1144 563 1211 522 
Q 1278 481 1403 481 
Q 1497 481 1650 503 
z
" transform="scale(0.015625)"/>
      <path id="DejaVuSans-34" d="M 2419 4116 
L 825 1625 
L 2419 1625 
L 2419 4116 
z
M 2253 4666 
L 3047 4666 
L 3047 1625 
L 3713 1625 
L 3713 1100 
L 3047 1100 
L 3047 0 
L 2419 0 
L 2419 1100 
L 313 1100 
L 313 1709 
L 2253 4666 
z
" transform="scale(0.015625)"/>
     </defs>
     <use xlink:href="#ArialMT-66" transform="translate(0 0.203125)"/>
     <use xlink:href="#ArialMT-65" transform="translate(27.783203 0.203125)"/>
     <use xlink:href="#ArialMT-61" transform="translate(83.398438 0.203125)"/>
     <use xlink:href="#ArialMT-74" transform="translate(139.013672 0.203125)"/>
     <use xlink:href="#DejaVuSans-34" transform="translate(167.753906 -16.203125) scale(0.7)"/>
    </g>
   </g>
  </g>
 </g>
 <defs>
  <clipPath id="p936d7b4a10">
   <rect x="50.4" y="20.16" width="180.695769" height="193.86"/>
  </clipPath>
 </defs>
</svg>
