<?xml version="1.0" encoding="utf-8" standalone="no"?>
<!DOCTYPE svg PUBLIC "-//W3C//DTD SVG 1.1//EN"
  "http://www.w3.org/Graphics/SVG/1.1/DTD/svg11.dtd">
<svg xmlns:xlink="http://www.w3.org/1999/xlink" width="719.792031pt" height="421.84875pt" viewBox="0 0 719.792031 421.84875" xmlns="http://www.w3.org/2000/svg" version="1.1">
 <metadata>
  <rdf:RDF xmlns:dc="http://purl.org/dc/elements/1.1/" xmlns:cc="http://creativecommons.org/ns#" xmlns:rdf="http://www.w3.org/1999/02/22-rdf-syntax-ns#">
   <cc:Work>
    <dc:type rdf:resource="http://purl.org/dc/dcmitype/StillImage"/>
    <dc:date>2025-05-11T16:12:31.581892</dc:date>
    <dc:format>image/svg+xml</dc:format>
    <dc:creator>
     <cc:Agent>
      <dc:title>Matplotlib v3.8.4, https://matplotlib.org/</dc:title>
     </cc:Agent>
    </dc:creator>
   </cc:Work>
  </rdf:RDF>
 </metadata>
 <defs>
  <style type="text/css">*{stroke-linejoin: round; stroke-linecap: butt}</style>
 </defs>
 <g id="figure_1">
  <g id="patch_1">
   <path d="M 0 421.84875 
L 719.792031 421.84875 
L 719.792031 0 
L 0 0 
L 0 421.84875 
z
" style="fill: none"/>
  </g>
  <g id="axes_1">
   <g id="patch_2">
    <path d="M 9.717031 131.92 
L 219.392031 131.92 
L 219.392031 3.6 
L 9.717031 3.6 
L 9.717031 131.92 
z
" style="fill: none"/>
   </g>
   <g id="matplotlib.axis_1">
    <g id="xtick_1">
     <g id="line2d_1">
      <defs>
       <path id="m2ce85c458a" d="M 0 0 
L 0 3.5 
" style="stroke: #000000; stroke-width: 0.8"/>
      </defs>
      <g>
       <use xlink:href="#m2ce85c458a" x="9.717031" y="131.92" style="stroke: #000000; stroke-width: 0.8"/>
      </g>
     </g>
    </g>
    <g id="xtick_2">
     <g id="line2d_2">
      <g>
       <use xlink:href="#m2ce85c458a" x="69.624174" y="131.92" style="stroke: #000000; stroke-width: 0.8"/>
      </g>
     </g>
    </g>
    <g id="xtick_3">
     <g id="line2d_3">
      <g>
       <use xlink:href="#m2ce85c458a" x="129.531317" y="131.92" style="stroke: #000000; stroke-width: 0.8"/>
      </g>
     </g>
    </g>
    <g id="xtick_4">
     <g id="line2d_4">
      <g>
       <use xlink:href="#m2ce85c458a" x="189.43846" y="131.92" style="stroke: #000000; stroke-width: 0.8"/>
      </g>
     </g>
    </g>
   </g>
   <g id="matplotlib.axis_2">
    <g id="ytick_1">
     <g id="line2d_5">
      <defs>
       <path id="mbfb08fa9bd" d="M 0 0 
L -3.5 0 
" style="stroke: #000000; stroke-width: 0.8"/>
      </defs>
      <g>
       <use xlink:href="#mbfb08fa9bd" x="9.717031" y="131.92" style="stroke: #000000; stroke-width: 0.8"/>
      </g>
     </g>
    </g>
    <g id="ytick_2">
     <g id="line2d_6">
      <g>
       <use xlink:href="#mbfb08fa9bd" x="9.717031" y="67.76" style="stroke: #000000; stroke-width: 0.8"/>
      </g>
     </g>
    </g>
    <g id="ytick_3">
     <g id="line2d_7">
      <g>
       <use xlink:href="#mbfb08fa9bd" x="9.717031" y="3.6" style="stroke: #000000; stroke-width: 0.8"/>
      </g>
     </g>
    </g>
   </g>
   <g id="line2d_8">
    <path d="M 17.205424 35.68 
L 18.609498 35.68 
L 19.077522 43.7 
L 19.545547 43.7 
L 20.481596 59.74 
L 20.949621 51.72 
L 21.417645 59.74 
L 21.88567 59.74 
L 22.353694 67.76 
L 23.757768 67.76 
L 24.225792 59.74 
L 26.097891 59.74 
L 26.565915 51.72 
L 27.03394 59.74 
L 27.501964 59.74 
L 27.969989 51.72 
L 28.438013 59.74 
L 29.374063 43.7 
L 30.778136 43.7 
L 31.246161 51.72 
L 32.650234 51.72 
L 33.118259 59.74 
L 33.586283 59.74 
L 34.054308 67.76 
L 34.522333 67.76 
L 34.990357 59.74 
L 35.458382 59.74 
L 35.926406 51.72 
L 36.394431 51.72 
L 36.862455 59.74 
L 37.33048 51.72 
L 37.798504 59.74 
L 38.734554 43.7 
L 43.414799 43.7 
L 43.882824 51.72 
L 44.350848 43.7 
L 44.818873 43.7 
L 45.286897 35.68 
L 45.754922 35.68 
L 46.690971 51.72 
L 49.031094 51.72 
L 49.499118 43.7 
L 50.903192 67.76 
L 51.371217 59.74 
L 52.77529 59.74 
L 53.243315 67.76 
L 53.711339 67.76 
L 54.179364 59.74 
L 54.647388 59.74 
L 55.115413 67.76 
L 55.583438 59.74 
L 56.051462 59.74 
L 56.519487 51.72 
L 57.455536 51.72 
L 57.92356 43.7 
L 59.327634 43.7 
L 60.263683 59.74 
L 60.731708 59.74 
L 61.199732 51.72 
L 64.007879 51.72 
L 64.475904 59.74 
L 65.411953 59.74 
L 65.879978 51.72 
L 66.816027 67.76 
L 68.2201 43.7 
L 68.688125 51.72 
L 69.624174 51.72 
L 70.092199 43.7 
L 71.496272 43.7 
L 72.432321 27.66 
L 73.368371 27.66 
L 74.30442 11.62 
L 75.708493 11.62 
L 76.176518 3.6 
L 77.112567 3.6 
L 77.580592 11.62 
L 84.60096 11.62 
L 85.068984 3.6 
L 89.281205 3.6 
L 89.74923 11.62 
L 93.961451 11.62 
L 94.429475 19.64 
L 96.769598 19.64 
L 97.237623 11.62 
L 99.109721 11.62 
L 99.577746 19.64 
L 101.449844 19.64 
L 101.917868 11.62 
L 105.19404 11.62 
L 105.662065 19.64 
L 106.598114 19.64 
L 107.066138 11.62 
L 107.534163 11.62 
L 108.002188 19.64 
L 112.682433 19.64 
L 113.150458 11.62 
L 115.022556 11.62 
L 115.49058 3.6 
L 122.978973 3.6 
L 123.446998 11.62 
L 129.531317 11.62 
L 129.531317 11.62 
" style="fill: none; stroke: #595959; stroke-opacity: 0.6; stroke-width: 2; stroke-linecap: square"/>
   </g>
   <g id="line2d_9">
    <path d="M 39.670603 131.92 
L 39.670603 3.6 
" clip-path="url(#p6a97867db5)" style="fill: none; stroke-dasharray: 3.7,1.6; stroke-dashoffset: 0; stroke: #808080; stroke-opacity: 0.3"/>
   </g>
   <g id="line2d_10">
    <path d="M 69.624174 131.92 
L 69.624174 3.6 
" clip-path="url(#p6a97867db5)" style="fill: none; stroke-dasharray: 3.7,1.6; stroke-dashoffset: 0; stroke: #808080; stroke-opacity: 0.3"/>
   </g>
   <g id="line2d_11">
    <path d="M 99.577746 131.92 
L 99.577746 3.6 
" clip-path="url(#p6a97867db5)" style="fill: none; stroke-dasharray: 3.7,1.6; stroke-dashoffset: 0; stroke: #808080; stroke-opacity: 0.3"/>
   </g>
   <g id="line2d_12">
    <path d="M 129.531317 131.92 
L 129.531317 3.6 
" clip-path="url(#p6a97867db5)" style="fill: none; stroke-dasharray: 3.7,1.6; stroke-dashoffset: 0; stroke: #808080; stroke-opacity: 0.3"/>
   </g>
   <g id="line2d_13">
    <path d="M 159.484888 131.92 
L 159.484888 3.6 
" clip-path="url(#p6a97867db5)" style="fill: none; stroke-dasharray: 3.7,1.6; stroke-dashoffset: 0; stroke: #808080; stroke-opacity: 0.3"/>
   </g>
   <g id="line2d_14">
    <path d="M 189.43846 131.92 
L 189.43846 3.6 
" clip-path="url(#p6a97867db5)" style="fill: none; stroke-dasharray: 3.7,1.6; stroke-dashoffset: 0; stroke: #808080; stroke-opacity: 0.3"/>
   </g>
   <g id="line2d_15">
    <path d="M 219.392031 131.92 
L 219.392031 3.6 
" clip-path="url(#p6a97867db5)" style="fill: none; stroke-dasharray: 3.7,1.6; stroke-dashoffset: 0; stroke: #808080; stroke-opacity: 0.3"/>
   </g>
   <g id="patch_3">
    <path d="M 9.717031 131.92 
L 9.717031 3.6 
" style="fill: none; stroke: #000000; stroke-width: 2; stroke-linejoin: miter; stroke-linecap: square"/>
   </g>
   <g id="patch_4">
    <path d="M 9.717031 131.92 
L 219.392031 131.92 
" style="fill: none; stroke: #000000; stroke-width: 2; stroke-linejoin: miter; stroke-linecap: square"/>
   </g>
   <g id="text_1">
    <!-- S3 -->
    <g transform="translate(178.330156 120.53525) scale(0.25 -0.25)">
     <defs>
      <path id="ArialMT-53" d="M 288 1472 
L 859 1522 
Q 900 1178 1048 958 
Q 1197 738 1509 602 
Q 1822 466 2213 466 
Q 2559 466 2825 569 
Q 3091 672 3220 851 
Q 3350 1031 3350 1244 
Q 3350 1459 3225 1620 
Q 3100 1781 2813 1891 
Q 2628 1963 1997 2114 
Q 1366 2266 1113 2400 
Q 784 2572 623 2826 
Q 463 3081 463 3397 
Q 463 3744 659 4045 
Q 856 4347 1234 4503 
Q 1613 4659 2075 4659 
Q 2584 4659 2973 4495 
Q 3363 4331 3572 4012 
Q 3781 3694 3797 3291 
L 3216 3247 
Q 3169 3681 2898 3903 
Q 2628 4125 2100 4125 
Q 1550 4125 1298 3923 
Q 1047 3722 1047 3438 
Q 1047 3191 1225 3031 
Q 1400 2872 2139 2705 
Q 2878 2538 3153 2413 
Q 3553 2228 3743 1945 
Q 3934 1663 3934 1294 
Q 3934 928 3725 604 
Q 3516 281 3123 101 
Q 2731 -78 2241 -78 
Q 1619 -78 1198 103 
Q 778 284 539 648 
Q 300 1013 288 1472 
z
" transform="scale(0.015625)"/>
      <path id="ArialMT-33" d="M 269 1209 
L 831 1284 
Q 928 806 1161 595 
Q 1394 384 1728 384 
Q 2125 384 2398 659 
Q 2672 934 2672 1341 
Q 2672 1728 2419 1979 
Q 2166 2231 1775 2231 
Q 1616 2231 1378 2169 
L 1441 2663 
Q 1497 2656 1531 2656 
Q 1891 2656 2178 2843 
Q 2466 3031 2466 3422 
Q 2466 3731 2256 3934 
Q 2047 4138 1716 4138 
Q 1388 4138 1169 3931 
Q 950 3725 888 3313 
L 325 3413 
Q 428 3978 793 4289 
Q 1159 4600 1703 4600 
Q 2078 4600 2393 4439 
Q 2709 4278 2876 4000 
Q 3044 3722 3044 3409 
Q 3044 3113 2884 2869 
Q 2725 2625 2413 2481 
Q 2819 2388 3044 2092 
Q 3269 1797 3269 1353 
Q 3269 753 2831 336 
Q 2394 -81 1725 -81 
Q 1122 -81 723 278 
Q 325 638 269 1209 
z
" transform="scale(0.015625)"/>
     </defs>
     <use xlink:href="#ArialMT-53"/>
     <use xlink:href="#ArialMT-33" x="66.699219"/>
    </g>
   </g>
  </g>
  <g id="axes_2">
   <g id="patch_5">
    <path d="M 258.117031 131.92 
L 467.792031 131.92 
L 467.792031 3.6 
L 258.117031 3.6 
L 258.117031 131.92 
z
" style="fill: none"/>
   </g>
   <g id="matplotlib.axis_3">
    <g id="xtick_5">
     <g id="line2d_16">
      <g>
       <use xlink:href="#m2ce85c458a" x="258.117031" y="131.92" style="stroke: #000000; stroke-width: 0.8"/>
      </g>
     </g>
    </g>
    <g id="xtick_6">
     <g id="line2d_17">
      <g>
       <use xlink:href="#m2ce85c458a" x="318.024174" y="131.92" style="stroke: #000000; stroke-width: 0.8"/>
      </g>
     </g>
    </g>
    <g id="xtick_7">
     <g id="line2d_18">
      <g>
       <use xlink:href="#m2ce85c458a" x="377.931317" y="131.92" style="stroke: #000000; stroke-width: 0.8"/>
      </g>
     </g>
    </g>
    <g id="xtick_8">
     <g id="line2d_19">
      <g>
       <use xlink:href="#m2ce85c458a" x="437.83846" y="131.92" style="stroke: #000000; stroke-width: 0.8"/>
      </g>
     </g>
    </g>
   </g>
   <g id="matplotlib.axis_4">
    <g id="ytick_4">
     <g id="line2d_20">
      <g>
       <use xlink:href="#mbfb08fa9bd" x="258.117031" y="131.92" style="stroke: #000000; stroke-width: 0.8"/>
      </g>
     </g>
    </g>
    <g id="ytick_5">
     <g id="line2d_21">
      <g>
       <use xlink:href="#mbfb08fa9bd" x="258.117031" y="67.76" style="stroke: #000000; stroke-width: 0.8"/>
      </g>
     </g>
    </g>
    <g id="ytick_6">
     <g id="line2d_22">
      <g>
       <use xlink:href="#mbfb08fa9bd" x="258.117031" y="3.6" style="stroke: #000000; stroke-width: 0.8"/>
      </g>
     </g>
    </g>
   </g>
   <g id="line2d_23">
    <path d="M 265.605424 43.7 
L 266.541473 43.7 
L 267.477522 59.74 
L 268.413571 59.74 
L 269.349621 75.78 
L 270.753694 75.78 
L 271.221719 67.76 
L 271.689743 75.78 
L 272.157768 75.78 
L 273.093817 59.74 
L 274.497891 59.74 
L 275.43394 43.7 
L 275.901964 51.72 
L 276.838013 35.68 
L 278.710112 35.68 
L 279.178136 27.66 
L 279.646161 27.66 
L 280.114185 35.68 
L 281.050234 35.68 
L 281.518259 43.7 
L 283.390357 43.7 
L 283.858382 51.72 
L 284.326406 51.72 
L 285.262455 67.76 
L 285.73048 67.76 
L 286.198504 75.78 
L 286.666529 75.78 
L 287.134554 83.8 
L 287.602578 75.78 
L 288.538627 75.78 
L 289.006652 67.76 
L 289.942701 67.76 
L 290.410725 75.78 
L 291.346775 59.74 
L 291.814799 59.74 
L 292.750848 43.7 
L 294.154922 43.7 
L 294.622946 35.68 
L 295.090971 35.68 
L 296.02702 51.72 
L 297.899118 51.72 
L 298.367143 59.74 
L 299.771217 59.74 
L 300.239241 67.76 
L 301.17529 51.72 
L 301.643315 51.72 
L 302.111339 59.74 
L 303.047388 59.74 
L 303.515413 51.72 
L 304.451462 51.72 
L 304.919487 59.74 
L 305.855536 43.7 
L 306.32356 43.7 
L 306.791585 51.72 
L 307.259609 51.72 
L 307.727634 43.7 
L 308.195658 43.7 
L 308.663683 51.72 
L 309.131708 51.72 
L 309.599732 43.7 
L 310.067757 51.72 
L 311.003806 51.72 
L 311.47183 59.74 
L 311.939855 59.74 
L 312.407879 51.72 
L 312.875904 51.72 
L 313.811953 67.76 
L 314.279978 59.74 
L 314.748002 67.76 
L 315.684051 67.76 
L 316.152076 59.74 
L 317.088125 59.74 
L 318.024174 43.7 
L 318.492199 43.7 
L 319.428248 27.66 
L 320.364297 27.66 
L 321.300346 11.62 
L 321.768371 11.62 
L 322.236395 3.6 
L 324.576518 3.6 
L 325.044542 11.62 
L 332.064911 11.62 
L 332.532935 3.6 
L 343.2975 3.6 
L 343.765525 11.62 
L 347.977746 11.62 
L 347.977746 11.62 
" style="fill: none; stroke: #595959; stroke-opacity: 0.6; stroke-width: 2; stroke-linecap: square"/>
   </g>
   <g id="line2d_24">
    <path d="M 288.070603 131.92 
L 288.070603 3.6 
" clip-path="url(#p7c16f63654)" style="fill: none; stroke-dasharray: 3.7,1.6; stroke-dashoffset: 0; stroke: #808080; stroke-opacity: 0.3"/>
   </g>
   <g id="line2d_25">
    <path d="M 318.024174 131.92 
L 318.024174 3.6 
" clip-path="url(#p7c16f63654)" style="fill: none; stroke-dasharray: 3.7,1.6; stroke-dashoffset: 0; stroke: #808080; stroke-opacity: 0.3"/>
   </g>
   <g id="line2d_26">
    <path d="M 347.977746 131.92 
L 347.977746 3.6 
" clip-path="url(#p7c16f63654)" style="fill: none; stroke-dasharray: 3.7,1.6; stroke-dashoffset: 0; stroke: #808080; stroke-opacity: 0.3"/>
   </g>
   <g id="line2d_27">
    <path d="M 377.931317 131.92 
L 377.931317 3.6 
" clip-path="url(#p7c16f63654)" style="fill: none; stroke-dasharray: 3.7,1.6; stroke-dashoffset: 0; stroke: #808080; stroke-opacity: 0.3"/>
   </g>
   <g id="line2d_28">
    <path d="M 407.884888 131.92 
L 407.884888 3.6 
" clip-path="url(#p7c16f63654)" style="fill: none; stroke-dasharray: 3.7,1.6; stroke-dashoffset: 0; stroke: #808080; stroke-opacity: 0.3"/>
   </g>
   <g id="line2d_29">
    <path d="M 437.83846 131.92 
L 437.83846 3.6 
" clip-path="url(#p7c16f63654)" style="fill: none; stroke-dasharray: 3.7,1.6; stroke-dashoffset: 0; stroke: #808080; stroke-opacity: 0.3"/>
   </g>
   <g id="line2d_30">
    <path d="M 467.792031 131.92 
L 467.792031 3.6 
" clip-path="url(#p7c16f63654)" style="fill: none; stroke-dasharray: 3.7,1.6; stroke-dashoffset: 0; stroke: #808080; stroke-opacity: 0.3"/>
   </g>
   <g id="patch_6">
    <path d="M 258.117031 131.92 
L 258.117031 3.6 
" style="fill: none; stroke: #000000; stroke-width: 2; stroke-linejoin: miter; stroke-linecap: square"/>
   </g>
   <g id="patch_7">
    <path d="M 258.117031 131.92 
L 467.792031 131.92 
" style="fill: none; stroke: #000000; stroke-width: 2; stroke-linejoin: miter; stroke-linecap: square"/>
   </g>
   <g id="text_2">
    <!-- S4 -->
    <g transform="translate(426.730156 120.53525) scale(0.25 -0.25)">
     <defs>
      <path id="ArialMT-34" d="M 2069 0 
L 2069 1097 
L 81 1097 
L 81 1613 
L 2172 4581 
L 2631 4581 
L 2631 1613 
L 3250 1613 
L 3250 1097 
L 2631 1097 
L 2631 0 
L 2069 0 
z
M 2069 1613 
L 2069 3678 
L 634 1613 
L 2069 1613 
z
" transform="scale(0.015625)"/>
     </defs>
     <use xlink:href="#ArialMT-53"/>
     <use xlink:href="#ArialMT-34" x="66.699219"/>
    </g>
   </g>
  </g>
  <g id="axes_3">
   <g id="patch_8">
    <path d="M 506.517031 131.92 
L 716.192031 131.92 
L 716.192031 3.6 
L 506.517031 3.6 
L 506.517031 131.92 
z
" style="fill: none"/>
   </g>
   <g id="matplotlib.axis_5">
    <g id="xtick_9">
     <g id="line2d_31">
      <g>
       <use xlink:href="#m2ce85c458a" x="506.517031" y="131.92" style="stroke: #000000; stroke-width: 0.8"/>
      </g>
     </g>
    </g>
    <g id="xtick_10">
     <g id="line2d_32">
      <g>
       <use xlink:href="#m2ce85c458a" x="566.424174" y="131.92" style="stroke: #000000; stroke-width: 0.8"/>
      </g>
     </g>
    </g>
    <g id="xtick_11">
     <g id="line2d_33">
      <g>
       <use xlink:href="#m2ce85c458a" x="626.331317" y="131.92" style="stroke: #000000; stroke-width: 0.8"/>
      </g>
     </g>
    </g>
    <g id="xtick_12">
     <g id="line2d_34">
      <g>
       <use xlink:href="#m2ce85c458a" x="686.23846" y="131.92" style="stroke: #000000; stroke-width: 0.8"/>
      </g>
     </g>
    </g>
   </g>
   <g id="matplotlib.axis_6">
    <g id="ytick_7">
     <g id="line2d_35">
      <g>
       <use xlink:href="#mbfb08fa9bd" x="506.517031" y="131.92" style="stroke: #000000; stroke-width: 0.8"/>
      </g>
     </g>
    </g>
    <g id="ytick_8">
     <g id="line2d_36">
      <g>
       <use xlink:href="#mbfb08fa9bd" x="506.517031" y="67.76" style="stroke: #000000; stroke-width: 0.8"/>
      </g>
     </g>
    </g>
    <g id="ytick_9">
     <g id="line2d_37">
      <g>
       <use xlink:href="#mbfb08fa9bd" x="506.517031" y="3.6" style="stroke: #000000; stroke-width: 0.8"/>
      </g>
     </g>
    </g>
   </g>
   <g id="line2d_38">
    <path d="M 514.005424 75.78 
L 514.473449 83.8 
L 514.941473 75.78 
L 515.877522 91.82 
L 516.345547 91.82 
L 517.281596 75.78 
L 517.749621 75.78 
L 518.217645 83.8 
L 518.68567 83.8 
L 519.153694 91.82 
L 520.089743 75.78 
L 520.557768 75.78 
L 521.025792 67.76 
L 521.493817 67.76 
L 521.961842 59.74 
L 522.429866 59.74 
L 523.83394 35.68 
L 525.238013 35.68 
L 525.706038 27.66 
L 527.110112 27.66 
L 527.578136 35.68 
L 528.046161 27.66 
L 529.918259 27.66 
L 530.854308 43.7 
L 533.194431 43.7 
L 533.662455 51.72 
L 534.13048 43.7 
L 534.598504 43.7 
L 535.066529 35.68 
L 535.534554 35.68 
L 536.002578 43.7 
L 536.470603 43.7 
L 536.938627 51.72 
L 537.406652 51.72 
L 538.342701 35.68 
L 538.810725 35.68 
L 539.27875 43.7 
L 539.746775 43.7 
L 540.214799 35.68 
L 540.682824 35.68 
L 541.150848 27.66 
L 542.554922 27.66 
L 543.022946 35.68 
L 543.490971 35.68 
L 543.958996 43.7 
L 544.42702 35.68 
L 546.767143 35.68 
L 547.235167 43.7 
L 550.043315 43.7 
L 550.979364 27.66 
L 551.915413 27.66 
L 552.383438 35.68 
L 552.851462 35.68 
L 553.787511 51.72 
L 554.255536 43.7 
L 554.72356 43.7 
L 555.191585 51.72 
L 556.127634 51.72 
L 556.595658 59.74 
L 558.467757 59.74 
L 558.935781 51.72 
L 559.403806 51.72 
L 559.87183 43.7 
L 560.339855 51.72 
L 561.275904 35.68 
L 561.743929 43.7 
L 563.148002 43.7 
L 563.616027 51.72 
L 564.084051 43.7 
L 564.552076 43.7 
L 565.488125 59.74 
L 565.95615 59.74 
L 566.424174 67.76 
L 567.828248 67.76 
L 568.764297 83.8 
L 570.168371 59.74 
L 570.636395 67.76 
L 571.10442 59.74 
L 572.508493 59.74 
L 572.976518 51.72 
L 573.444542 59.74 
L 574.848616 59.74 
L 575.316641 51.72 
L 575.784665 51.72 
L 576.25269 43.7 
L 576.720714 43.7 
L 577.656763 59.74 
L 578.124788 51.72 
L 579.060837 67.76 
L 579.528862 67.76 
L 579.996886 59.74 
L 581.40096 59.74 
L 581.868984 67.76 
L 582.337009 67.76 
L 582.805033 75.78 
L 583.273058 67.76 
L 584.209107 67.76 
L 584.677132 59.74 
L 585.145156 59.74 
L 585.613181 67.76 
L 586.081205 59.74 
L 586.54923 59.74 
L 587.485279 75.78 
L 588.889353 75.78 
L 589.357377 67.76 
L 589.825402 75.78 
L 590.293426 67.76 
L 591.6975 67.76 
L 592.165525 75.78 
L 592.633549 67.76 
L 593.569598 67.76 
L 594.973672 43.7 
L 595.909721 43.7 
L 596.377746 35.68 
L 596.84577 35.68 
L 597.313795 27.66 
L 599.185893 27.66 
L 599.653917 19.64 
L 600.121942 19.64 
L 600.589967 11.62 
L 602.930089 11.62 
L 603.398114 3.6 
L 625.395268 3.6 
L 625.863292 11.62 
L 626.331317 11.62 
L 626.331317 11.62 
" style="fill: none; stroke: #595959; stroke-opacity: 0.6; stroke-width: 2; stroke-linecap: square"/>
   </g>
   <g id="line2d_39">
    <path d="M 536.470603 131.92 
L 536.470603 3.6 
" clip-path="url(#p273fa81aaf)" style="fill: none; stroke-dasharray: 3.7,1.6; stroke-dashoffset: 0; stroke: #808080; stroke-opacity: 0.3"/>
   </g>
   <g id="line2d_40">
    <path d="M 566.424174 131.92 
L 566.424174 3.6 
" clip-path="url(#p273fa81aaf)" style="fill: none; stroke-dasharray: 3.7,1.6; stroke-dashoffset: 0; stroke: #808080; stroke-opacity: 0.3"/>
   </g>
   <g id="line2d_41">
    <path d="M 596.377746 131.92 
L 596.377746 3.6 
" clip-path="url(#p273fa81aaf)" style="fill: none; stroke-dasharray: 3.7,1.6; stroke-dashoffset: 0; stroke: #808080; stroke-opacity: 0.3"/>
   </g>
   <g id="line2d_42">
    <path d="M 626.331317 131.92 
L 626.331317 3.6 
" clip-path="url(#p273fa81aaf)" style="fill: none; stroke-dasharray: 3.7,1.6; stroke-dashoffset: 0; stroke: #808080; stroke-opacity: 0.3"/>
   </g>
   <g id="line2d_43">
    <path d="M 656.284888 131.92 
L 656.284888 3.6 
" clip-path="url(#p273fa81aaf)" style="fill: none; stroke-dasharray: 3.7,1.6; stroke-dashoffset: 0; stroke: #808080; stroke-opacity: 0.3"/>
   </g>
   <g id="line2d_44">
    <path d="M 686.23846 131.92 
L 686.23846 3.6 
" clip-path="url(#p273fa81aaf)" style="fill: none; stroke-dasharray: 3.7,1.6; stroke-dashoffset: 0; stroke: #808080; stroke-opacity: 0.3"/>
   </g>
   <g id="line2d_45">
    <path d="M 716.192031 131.92 
L 716.192031 3.6 
" clip-path="url(#p273fa81aaf)" style="fill: none; stroke-dasharray: 3.7,1.6; stroke-dashoffset: 0; stroke: #808080; stroke-opacity: 0.3"/>
   </g>
   <g id="patch_9">
    <path d="M 506.517031 131.92 
L 506.517031 3.6 
" style="fill: none; stroke: #000000; stroke-width: 2; stroke-linejoin: miter; stroke-linecap: square"/>
   </g>
   <g id="patch_10">
    <path d="M 506.517031 131.92 
L 716.192031 131.92 
" style="fill: none; stroke: #000000; stroke-width: 2; stroke-linejoin: miter; stroke-linecap: square"/>
   </g>
   <g id="text_3">
    <!-- S5 -->
    <g transform="translate(675.130156 120.53525) scale(0.25 -0.25)">
     <defs>
      <path id="ArialMT-35" d="M 266 1200 
L 856 1250 
Q 922 819 1161 601 
Q 1400 384 1738 384 
Q 2144 384 2425 690 
Q 2706 997 2706 1503 
Q 2706 1984 2436 2262 
Q 2166 2541 1728 2541 
Q 1456 2541 1237 2417 
Q 1019 2294 894 2097 
L 366 2166 
L 809 4519 
L 3088 4519 
L 3088 3981 
L 1259 3981 
L 1013 2750 
Q 1425 3038 1878 3038 
Q 2478 3038 2890 2622 
Q 3303 2206 3303 1553 
Q 3303 931 2941 478 
Q 2500 -78 1738 -78 
Q 1113 -78 717 272 
Q 322 622 266 1200 
z
" transform="scale(0.015625)"/>
     </defs>
     <use xlink:href="#ArialMT-53"/>
     <use xlink:href="#ArialMT-35" x="66.699219"/>
    </g>
   </g>
  </g>
  <g id="axes_4">
   <g id="patch_11">
    <path d="M 9.717031 359.12 
L 219.392031 359.12 
L 219.392031 230.8 
L 9.717031 230.8 
L 9.717031 359.12 
z
" style="fill: none"/>
   </g>
   <g id="matplotlib.axis_7">
    <g id="xtick_13">
     <g id="line2d_46">
      <g>
       <use xlink:href="#m2ce85c458a" x="9.717031" y="359.12" style="stroke: #000000; stroke-width: 0.8"/>
      </g>
     </g>
     <g id="text_4">
      <!-- 0 -->
      <g transform="translate(3.6 381.867187) scale(0.22 -0.22)">
       <defs>
        <path id="ArialMT-30" d="M 266 2259 
Q 266 3072 433 3567 
Q 600 4063 929 4331 
Q 1259 4600 1759 4600 
Q 2128 4600 2406 4451 
Q 2684 4303 2865 4023 
Q 3047 3744 3150 3342 
Q 3253 2941 3253 2259 
Q 3253 1453 3087 958 
Q 2922 463 2592 192 
Q 2263 -78 1759 -78 
Q 1097 -78 719 397 
Q 266 969 266 2259 
z
M 844 2259 
Q 844 1131 1108 757 
Q 1372 384 1759 384 
Q 2147 384 2411 759 
Q 2675 1134 2675 2259 
Q 2675 3391 2411 3762 
Q 2147 4134 1753 4134 
Q 1366 4134 1134 3806 
Q 844 3388 844 2259 
z
" transform="scale(0.015625)"/>
       </defs>
       <use xlink:href="#ArialMT-30"/>
      </g>
     </g>
    </g>
    <g id="xtick_14">
     <g id="line2d_47">
      <g>
       <use xlink:href="#m2ce85c458a" x="69.624174" y="359.12" style="stroke: #000000; stroke-width: 0.8"/>
      </g>
     </g>
     <g id="text_5">
      <!-- 128 -->
      <g transform="translate(51.27308 381.867187) scale(0.22 -0.22)">
       <defs>
        <path id="ArialMT-31" d="M 2384 0 
L 1822 0 
L 1822 3584 
Q 1619 3391 1289 3197 
Q 959 3003 697 2906 
L 697 3450 
Q 1169 3672 1522 3987 
Q 1875 4303 2022 4600 
L 2384 4600 
L 2384 0 
z
" transform="scale(0.015625)"/>
        <path id="ArialMT-32" d="M 3222 541 
L 3222 0 
L 194 0 
Q 188 203 259 391 
Q 375 700 629 1000 
Q 884 1300 1366 1694 
Q 2113 2306 2375 2664 
Q 2638 3022 2638 3341 
Q 2638 3675 2398 3904 
Q 2159 4134 1775 4134 
Q 1369 4134 1125 3890 
Q 881 3647 878 3216 
L 300 3275 
Q 359 3922 746 4261 
Q 1134 4600 1788 4600 
Q 2447 4600 2831 4234 
Q 3216 3869 3216 3328 
Q 3216 3053 3103 2787 
Q 2991 2522 2730 2228 
Q 2469 1934 1863 1422 
Q 1356 997 1212 845 
Q 1069 694 975 541 
L 3222 541 
z
" transform="scale(0.015625)"/>
        <path id="ArialMT-38" d="M 1131 2484 
Q 781 2613 612 2850 
Q 444 3088 444 3419 
Q 444 3919 803 4259 
Q 1163 4600 1759 4600 
Q 2359 4600 2725 4251 
Q 3091 3903 3091 3403 
Q 3091 3084 2923 2848 
Q 2756 2613 2416 2484 
Q 2838 2347 3058 2040 
Q 3278 1734 3278 1309 
Q 3278 722 2862 322 
Q 2447 -78 1769 -78 
Q 1091 -78 675 323 
Q 259 725 259 1325 
Q 259 1772 486 2073 
Q 713 2375 1131 2484 
z
M 1019 3438 
Q 1019 3113 1228 2906 
Q 1438 2700 1772 2700 
Q 2097 2700 2305 2904 
Q 2513 3109 2513 3406 
Q 2513 3716 2298 3927 
Q 2084 4138 1766 4138 
Q 1444 4138 1231 3931 
Q 1019 3725 1019 3438 
z
M 838 1322 
Q 838 1081 952 856 
Q 1066 631 1291 507 
Q 1516 384 1775 384 
Q 2178 384 2440 643 
Q 2703 903 2703 1303 
Q 2703 1709 2433 1975 
Q 2163 2241 1756 2241 
Q 1359 2241 1098 1978 
Q 838 1716 838 1322 
z
" transform="scale(0.015625)"/>
       </defs>
       <use xlink:href="#ArialMT-31"/>
       <use xlink:href="#ArialMT-32" x="55.615234"/>
       <use xlink:href="#ArialMT-38" x="111.230469"/>
      </g>
     </g>
    </g>
    <g id="xtick_15">
     <g id="line2d_48">
      <g>
       <use xlink:href="#m2ce85c458a" x="129.531317" y="359.12" style="stroke: #000000; stroke-width: 0.8"/>
      </g>
     </g>
     <g id="text_6">
      <!-- 256 -->
      <g transform="translate(111.180223 381.867187) scale(0.22 -0.22)">
       <defs>
        <path id="ArialMT-36" d="M 3184 3459 
L 2625 3416 
Q 2550 3747 2413 3897 
Q 2184 4138 1850 4138 
Q 1581 4138 1378 3988 
Q 1113 3794 959 3422 
Q 806 3050 800 2363 
Q 1003 2672 1297 2822 
Q 1591 2972 1913 2972 
Q 2475 2972 2870 2558 
Q 3266 2144 3266 1488 
Q 3266 1056 3080 686 
Q 2894 316 2569 119 
Q 2244 -78 1831 -78 
Q 1128 -78 684 439 
Q 241 956 241 2144 
Q 241 3472 731 4075 
Q 1159 4600 1884 4600 
Q 2425 4600 2770 4297 
Q 3116 3994 3184 3459 
z
M 888 1484 
Q 888 1194 1011 928 
Q 1134 663 1356 523 
Q 1578 384 1822 384 
Q 2178 384 2434 671 
Q 2691 959 2691 1453 
Q 2691 1928 2437 2201 
Q 2184 2475 1800 2475 
Q 1419 2475 1153 2201 
Q 888 1928 888 1484 
z
" transform="scale(0.015625)"/>
       </defs>
       <use xlink:href="#ArialMT-32"/>
       <use xlink:href="#ArialMT-35" x="55.615234"/>
       <use xlink:href="#ArialMT-36" x="111.230469"/>
      </g>
     </g>
    </g>
    <g id="xtick_16">
     <g id="line2d_49">
      <g>
       <use xlink:href="#m2ce85c458a" x="189.43846" y="359.12" style="stroke: #000000; stroke-width: 0.8"/>
      </g>
     </g>
     <g id="text_7">
      <!-- 384 -->
      <g transform="translate(171.087366 381.867187) scale(0.22 -0.22)">
       <use xlink:href="#ArialMT-33"/>
       <use xlink:href="#ArialMT-38" x="55.615234"/>
       <use xlink:href="#ArialMT-34" x="111.230469"/>
      </g>
     </g>
    </g>
   </g>
   <g id="matplotlib.axis_8">
    <g id="ytick_10">
     <g id="line2d_50">
      <g>
       <use xlink:href="#mbfb08fa9bd" x="9.717031" y="359.12" style="stroke: #000000; stroke-width: 0.8"/>
      </g>
     </g>
    </g>
    <g id="ytick_11">
     <g id="line2d_51">
      <g>
       <use xlink:href="#mbfb08fa9bd" x="9.717031" y="294.96" style="stroke: #000000; stroke-width: 0.8"/>
      </g>
     </g>
    </g>
    <g id="ytick_12">
     <g id="line2d_52">
      <g>
       <use xlink:href="#mbfb08fa9bd" x="9.717031" y="230.8" style="stroke: #000000; stroke-width: 0.8"/>
      </g>
     </g>
    </g>
   </g>
   <g id="line2d_53">
    <path d="M 17.205424 311 
L 17.673449 311 
L 18.609498 294.96 
L 19.077522 302.98 
L 19.545547 294.96 
L 20.013571 302.98 
L 20.481596 294.96 
L 20.949621 302.98 
L 21.417645 302.98 
L 21.88567 294.96 
L 22.353694 302.98 
L 22.821719 302.98 
L 23.289743 294.96 
L 24.225792 294.96 
L 24.693817 302.98 
L 26.565915 302.98 
L 27.03394 311 
L 27.501964 302.98 
L 27.969989 311 
L 28.438013 302.98 
L 29.842087 302.98 
L 30.310112 294.96 
L 30.778136 302.98 
L 31.246161 302.98 
L 31.714185 294.96 
L 32.18221 294.96 
L 33.118259 311 
L 33.586283 311 
L 34.054308 302.98 
L 34.522333 302.98 
L 34.990357 311 
L 35.458382 302.98 
L 35.926406 311 
L 36.394431 311 
L 36.862455 319.02 
L 37.33048 311 
L 37.798504 319.02 
L 38.734554 302.98 
L 39.202578 302.98 
L 39.670603 294.96 
L 40.606652 294.96 
L 41.074676 302.98 
L 41.542701 302.98 
L 42.47875 286.94 
L 42.946775 286.94 
L 44.350848 262.88 
L 44.818873 270.9 
L 45.286897 270.9 
L 46.690971 294.96 
L 47.62702 294.96 
L 48.563069 278.92 
L 49.031094 286.94 
L 49.499118 286.94 
L 49.967143 294.96 
L 50.435167 294.96 
L 51.839241 319.02 
L 52.307266 311 
L 53.243315 311 
L 53.711339 302.98 
L 54.647388 302.98 
L 55.115413 294.96 
L 56.051462 294.96 
L 56.519487 286.94 
L 56.987511 294.96 
L 57.92356 294.96 
L 59.327634 270.9 
L 59.795658 270.9 
L 60.731708 254.86 
L 61.199732 254.86 
L 61.667757 246.84 
L 63.539855 246.84 
L 64.007879 254.86 
L 64.943929 238.82 
L 65.879978 238.82 
L 66.348002 246.84 
L 68.688125 246.84 
L 69.15615 254.86 
L 69.624174 254.86 
L 70.092199 262.88 
L 70.560223 262.88 
L 71.028248 270.9 
L 71.496272 262.88 
L 72.900346 262.88 
L 73.368371 270.9 
L 73.836395 262.88 
L 75.708493 262.88 
L 76.176518 270.9 
L 76.644542 262.88 
L 77.112567 262.88 
L 77.580592 254.86 
L 78.048616 254.86 
L 78.516641 246.84 
L 80.388739 246.84 
L 80.856763 238.82 
L 81.324788 246.84 
L 82.728862 246.84 
L 83.196886 254.86 
L 83.664911 246.84 
L 88.345156 246.84 
L 88.813181 238.82 
L 89.281205 238.82 
L 89.74923 246.84 
L 90.217254 246.84 
L 90.685279 238.82 
L 92.089353 238.82 
L 92.557377 246.84 
L 96.769598 246.84 
L 97.237623 238.82 
L 99.577746 238.82 
L 99.577746 238.82 
" style="fill: none; stroke: #0d0d0d; stroke-opacity: 0.6; stroke-width: 2; stroke-linecap: square"/>
   </g>
   <g id="line2d_54">
    <path d="M 39.670603 359.12 
L 39.670603 230.8 
" clip-path="url(#p771fd1510c)" style="fill: none; stroke-dasharray: 3.7,1.6; stroke-dashoffset: 0; stroke: #808080; stroke-opacity: 0.3"/>
   </g>
   <g id="line2d_55">
    <path d="M 69.624174 359.12 
L 69.624174 230.8 
" clip-path="url(#p771fd1510c)" style="fill: none; stroke-dasharray: 3.7,1.6; stroke-dashoffset: 0; stroke: #808080; stroke-opacity: 0.3"/>
   </g>
   <g id="line2d_56">
    <path d="M 99.577746 359.12 
L 99.577746 230.8 
" clip-path="url(#p771fd1510c)" style="fill: none; stroke-dasharray: 3.7,1.6; stroke-dashoffset: 0; stroke: #808080; stroke-opacity: 0.3"/>
   </g>
   <g id="line2d_57">
    <path d="M 129.531317 359.12 
L 129.531317 230.8 
" clip-path="url(#p771fd1510c)" style="fill: none; stroke-dasharray: 3.7,1.6; stroke-dashoffset: 0; stroke: #808080; stroke-opacity: 0.3"/>
   </g>
   <g id="line2d_58">
    <path d="M 159.484888 359.12 
L 159.484888 230.8 
" clip-path="url(#p771fd1510c)" style="fill: none; stroke-dasharray: 3.7,1.6; stroke-dashoffset: 0; stroke: #808080; stroke-opacity: 0.3"/>
   </g>
   <g id="line2d_59">
    <path d="M 189.43846 359.12 
L 189.43846 230.8 
" clip-path="url(#p771fd1510c)" style="fill: none; stroke-dasharray: 3.7,1.6; stroke-dashoffset: 0; stroke: #808080; stroke-opacity: 0.3"/>
   </g>
   <g id="line2d_60">
    <path d="M 219.392031 359.12 
L 219.392031 230.8 
" clip-path="url(#p771fd1510c)" style="fill: none; stroke-dasharray: 3.7,1.6; stroke-dashoffset: 0; stroke: #808080; stroke-opacity: 0.3"/>
   </g>
   <g id="patch_12">
    <path d="M 9.717031 359.12 
L 9.717031 230.8 
" style="fill: none; stroke: #000000; stroke-width: 2; stroke-linejoin: miter; stroke-linecap: square"/>
   </g>
   <g id="patch_13">
    <path d="M 9.717031 359.12 
L 219.392031 359.12 
" style="fill: none; stroke: #000000; stroke-width: 2; stroke-linejoin: miter; stroke-linecap: square"/>
   </g>
   <g id="text_8">
    <!-- S6 -->
    <g transform="translate(178.330156 347.73525) scale(0.25 -0.25)">
     <use xlink:href="#ArialMT-53"/>
     <use xlink:href="#ArialMT-36" x="66.699219"/>
    </g>
   </g>
  </g>
  <g id="axes_5">
   <g id="patch_14">
    <path d="M 258.117031 359.12 
L 467.792031 359.12 
L 467.792031 230.8 
L 258.117031 230.8 
L 258.117031 359.12 
z
" style="fill: none"/>
   </g>
   <g id="matplotlib.axis_9">
    <g id="xtick_17">
     <g id="line2d_61">
      <g>
       <use xlink:href="#m2ce85c458a" x="258.117031" y="359.12" style="stroke: #000000; stroke-width: 0.8"/>
      </g>
     </g>
     <g id="text_9">
      <!-- 0 -->
      <g transform="translate(252 381.867187) scale(0.22 -0.22)">
       <use xlink:href="#ArialMT-30"/>
      </g>
     </g>
    </g>
    <g id="xtick_18">
     <g id="line2d_62">
      <g>
       <use xlink:href="#m2ce85c458a" x="318.024174" y="359.12" style="stroke: #000000; stroke-width: 0.8"/>
      </g>
     </g>
     <g id="text_10">
      <!-- 128 -->
      <g transform="translate(299.67308 381.867187) scale(0.22 -0.22)">
       <use xlink:href="#ArialMT-31"/>
       <use xlink:href="#ArialMT-32" x="55.615234"/>
       <use xlink:href="#ArialMT-38" x="111.230469"/>
      </g>
     </g>
    </g>
    <g id="xtick_19">
     <g id="line2d_63">
      <g>
       <use xlink:href="#m2ce85c458a" x="377.931317" y="359.12" style="stroke: #000000; stroke-width: 0.8"/>
      </g>
     </g>
     <g id="text_11">
      <!-- 256 -->
      <g transform="translate(359.580223 381.867187) scale(0.22 -0.22)">
       <use xlink:href="#ArialMT-32"/>
       <use xlink:href="#ArialMT-35" x="55.615234"/>
       <use xlink:href="#ArialMT-36" x="111.230469"/>
      </g>
     </g>
    </g>
    <g id="xtick_20">
     <g id="line2d_64">
      <g>
       <use xlink:href="#m2ce85c458a" x="437.83846" y="359.12" style="stroke: #000000; stroke-width: 0.8"/>
      </g>
     </g>
     <g id="text_12">
      <!-- 384 -->
      <g transform="translate(419.487366 381.867187) scale(0.22 -0.22)">
       <use xlink:href="#ArialMT-33"/>
       <use xlink:href="#ArialMT-38" x="55.615234"/>
       <use xlink:href="#ArialMT-34" x="111.230469"/>
      </g>
     </g>
    </g>
   </g>
   <g id="matplotlib.axis_10">
    <g id="ytick_13">
     <g id="line2d_65">
      <g>
       <use xlink:href="#mbfb08fa9bd" x="258.117031" y="359.12" style="stroke: #000000; stroke-width: 0.8"/>
      </g>
     </g>
    </g>
    <g id="ytick_14">
     <g id="line2d_66">
      <g>
       <use xlink:href="#mbfb08fa9bd" x="258.117031" y="294.96" style="stroke: #000000; stroke-width: 0.8"/>
      </g>
     </g>
    </g>
    <g id="ytick_15">
     <g id="line2d_67">
      <g>
       <use xlink:href="#mbfb08fa9bd" x="258.117031" y="230.8" style="stroke: #000000; stroke-width: 0.8"/>
      </g>
     </g>
    </g>
   </g>
   <g id="line2d_68">
    <path d="M 265.605424 262.88 
L 266.073449 254.86 
L 267.009498 254.86 
L 267.477522 262.88 
L 268.413571 262.88 
L 268.881596 254.86 
L 269.349621 262.88 
L 269.817645 254.86 
L 270.28567 254.86 
L 270.753694 262.88 
L 271.689743 262.88 
L 272.157768 270.9 
L 273.561842 270.9 
L 274.029866 278.92 
L 274.497891 278.92 
L 274.965915 270.9 
L 276.369989 270.9 
L 276.838013 262.88 
L 277.306038 270.9 
L 277.774063 270.9 
L 278.242087 262.88 
L 281.050234 262.88 
L 281.518259 254.86 
L 284.794431 254.86 
L 285.262455 262.88 
L 285.73048 262.88 
L 286.198504 270.9 
L 286.666529 270.9 
L 287.134554 262.88 
L 287.602578 270.9 
L 288.070603 270.9 
L 289.006652 286.94 
L 289.942701 286.94 
L 290.87875 302.98 
L 291.346775 302.98 
L 291.814799 311 
L 292.750848 311 
L 293.218873 319.02 
L 293.686897 311 
L 294.622946 311 
L 295.090971 302.98 
L 295.558996 311 
L 296.02702 302.98 
L 297.431094 302.98 
L 297.899118 294.96 
L 298.835167 294.96 
L 299.303192 286.94 
L 299.771217 286.94 
L 300.239241 278.92 
L 303.515413 278.92 
L 303.983438 270.9 
L 307.259609 270.9 
L 307.727634 278.92 
L 308.195658 278.92 
L 308.663683 286.94 
L 310.067757 286.94 
L 310.535781 278.92 
L 311.47183 278.92 
L 311.939855 286.94 
L 314.748002 286.94 
L 316.152076 262.88 
L 317.088125 262.88 
L 317.55615 270.9 
L 319.428248 270.9 
L 319.896272 278.92 
L 320.364297 278.92 
L 320.832321 270.9 
L 322.236395 270.9 
L 322.70442 278.92 
L 323.172444 278.92 
L 323.640469 286.94 
L 324.108493 278.92 
L 324.576518 286.94 
L 325.044542 278.92 
L 328.320714 278.92 
L 329.256763 294.96 
L 330.192813 278.92 
L 330.660837 286.94 
L 331.128862 278.92 
L 331.596886 278.92 
L 332.064911 270.9 
L 333.00096 270.9 
L 333.468984 278.92 
L 333.937009 278.92 
L 334.873058 262.88 
L 335.341083 262.88 
L 335.809107 270.9 
L 336.745156 254.86 
L 337.213181 262.88 
L 337.681205 262.88 
L 338.14923 254.86 
L 339.085279 254.86 
L 339.553304 262.88 
L 340.489353 262.88 
L 340.957377 254.86 
L 342.829475 254.86 
L 343.2975 246.84 
L 344.233549 246.84 
L 344.701574 238.82 
L 345.169598 246.84 
L 346.573672 246.84 
L 347.041696 238.82 
L 347.509721 238.82 
L 347.977746 246.84 
L 349.381819 246.84 
L 349.849844 254.86 
L 352.189967 254.86 
L 352.657991 246.84 
L 353.126016 254.86 
L 354.998114 254.86 
L 355.466138 246.84 
L 355.934163 254.86 
L 356.870212 254.86 
L 357.338237 246.84 
L 357.806261 254.86 
L 358.274286 254.86 
L 358.74231 262.88 
L 360.146384 262.88 
L 360.614408 254.86 
L 361.082433 262.88 
L 362.954531 262.88 
L 363.422556 254.86 
L 364.358605 270.9 
L 364.826629 270.9 
L 365.294654 262.88 
L 365.762679 262.88 
L 366.230703 254.86 
L 366.698728 254.86 
L 367.166752 262.88 
L 368.102801 262.88 
L 368.570826 254.86 
L 370.910949 254.86 
L 371.846998 238.82 
L 374.187121 238.82 
L 374.655145 230.8 
L 376.059219 230.8 
L 376.527243 238.82 
L 377.463292 238.82 
L 378.399342 254.86 
L 381.207489 254.86 
L 382.611563 278.92 
L 383.079587 278.92 
L 383.547612 286.94 
L 384.015636 278.92 
L 384.951685 278.92 
L 385.41971 270.9 
L 385.887734 270.9 
L 386.355759 278.92 
L 388.695882 278.92 
L 390.099955 254.86 
L 390.56798 254.86 
L 391.036004 246.84 
L 392.440078 246.84 
L 392.908103 254.86 
L 393.844152 238.82 
L 398.056373 238.82 
L 398.524397 246.84 
L 399.460446 246.84 
L 399.928471 254.86 
L 401.332545 254.86 
L 402.268594 270.9 
L 402.736618 270.9 
L 403.204643 278.92 
L 403.672667 278.92 
L 404.140692 286.94 
L 406.948839 286.94 
L 407.884888 270.9 
L 408.820938 270.9 
L 409.288962 262.88 
L 410.225011 262.88 
L 410.693036 254.86 
L 411.16106 254.86 
L 411.629085 246.84 
L 412.097109 254.86 
L 413.033158 254.86 
L 413.501183 246.84 
L 416.777355 246.84 
L 417.245379 238.82 
L 418.649453 238.82 
L 419.117478 246.84 
L 419.585502 238.82 
L 426.137846 238.82 
L 426.605871 230.8 
L 437.83846 230.8 
L 437.83846 230.8 
" style="fill: none; stroke: #0d0d0d; stroke-opacity: 0.6; stroke-width: 2; stroke-linecap: square"/>
   </g>
   <g id="line2d_69">
    <path d="M 288.070603 359.12 
L 288.070603 230.8 
" clip-path="url(#pd1c4a579a8)" style="fill: none; stroke-dasharray: 3.7,1.6; stroke-dashoffset: 0; stroke: #808080; stroke-opacity: 0.3"/>
   </g>
   <g id="line2d_70">
    <path d="M 318.024174 359.12 
L 318.024174 230.8 
" clip-path="url(#pd1c4a579a8)" style="fill: none; stroke-dasharray: 3.7,1.6; stroke-dashoffset: 0; stroke: #808080; stroke-opacity: 0.3"/>
   </g>
   <g id="line2d_71">
    <path d="M 347.977746 359.12 
L 347.977746 230.8 
" clip-path="url(#pd1c4a579a8)" style="fill: none; stroke-dasharray: 3.7,1.6; stroke-dashoffset: 0; stroke: #808080; stroke-opacity: 0.3"/>
   </g>
   <g id="line2d_72">
    <path d="M 377.931317 359.12 
L 377.931317 230.8 
" clip-path="url(#pd1c4a579a8)" style="fill: none; stroke-dasharray: 3.7,1.6; stroke-dashoffset: 0; stroke: #808080; stroke-opacity: 0.3"/>
   </g>
   <g id="line2d_73">
    <path d="M 407.884888 359.12 
L 407.884888 230.8 
" clip-path="url(#pd1c4a579a8)" style="fill: none; stroke-dasharray: 3.7,1.6; stroke-dashoffset: 0; stroke: #808080; stroke-opacity: 0.3"/>
   </g>
   <g id="line2d_74">
    <path d="M 437.83846 359.12 
L 437.83846 230.8 
" clip-path="url(#pd1c4a579a8)" style="fill: none; stroke-dasharray: 3.7,1.6; stroke-dashoffset: 0; stroke: #808080; stroke-opacity: 0.3"/>
   </g>
   <g id="line2d_75">
    <path d="M 467.792031 359.12 
L 467.792031 230.8 
" clip-path="url(#pd1c4a579a8)" style="fill: none; stroke-dasharray: 3.7,1.6; stroke-dashoffset: 0; stroke: #808080; stroke-opacity: 0.3"/>
   </g>
   <g id="patch_15">
    <path d="M 258.117031 359.12 
L 258.117031 230.8 
" style="fill: none; stroke: #000000; stroke-width: 2; stroke-linejoin: miter; stroke-linecap: square"/>
   </g>
   <g id="patch_16">
    <path d="M 258.117031 359.12 
L 467.792031 359.12 
" style="fill: none; stroke: #000000; stroke-width: 2; stroke-linejoin: miter; stroke-linecap: square"/>
   </g>
   <g id="text_13">
    <!-- S7 -->
    <g transform="translate(426.730156 347.73525) scale(0.25 -0.25)">
     <defs>
      <path id="ArialMT-37" d="M 303 3981 
L 303 4522 
L 3269 4522 
L 3269 4084 
Q 2831 3619 2401 2847 
Q 1972 2075 1738 1259 
Q 1569 684 1522 0 
L 944 0 
Q 953 541 1156 1306 
Q 1359 2072 1739 2783 
Q 2119 3494 2547 3981 
L 303 3981 
z
" transform="scale(0.015625)"/>
     </defs>
     <use xlink:href="#ArialMT-53"/>
     <use xlink:href="#ArialMT-37" x="66.699219"/>
    </g>
   </g>
  </g>
  <g id="axes_6">
   <g id="patch_17">
    <path d="M 506.517031 359.12 
L 716.192031 359.12 
L 716.192031 230.8 
L 506.517031 230.8 
L 506.517031 359.12 
z
" style="fill: none"/>
   </g>
   <g id="matplotlib.axis_11">
    <g id="xtick_21">
     <g id="line2d_76">
      <g>
       <use xlink:href="#m2ce85c458a" x="506.517031" y="359.12" style="stroke: #000000; stroke-width: 0.8"/>
      </g>
     </g>
     <g id="text_14">
      <!-- 0 -->
      <g transform="translate(500.4 381.867187) scale(0.22 -0.22)">
       <use xlink:href="#ArialMT-30"/>
      </g>
     </g>
    </g>
    <g id="xtick_22">
     <g id="line2d_77">
      <g>
       <use xlink:href="#m2ce85c458a" x="566.424174" y="359.12" style="stroke: #000000; stroke-width: 0.8"/>
      </g>
     </g>
     <g id="text_15">
      <!-- 128 -->
      <g transform="translate(548.07308 381.867187) scale(0.22 -0.22)">
       <use xlink:href="#ArialMT-31"/>
       <use xlink:href="#ArialMT-32" x="55.615234"/>
       <use xlink:href="#ArialMT-38" x="111.230469"/>
      </g>
     </g>
    </g>
    <g id="xtick_23">
     <g id="line2d_78">
      <g>
       <use xlink:href="#m2ce85c458a" x="626.331317" y="359.12" style="stroke: #000000; stroke-width: 0.8"/>
      </g>
     </g>
     <g id="text_16">
      <!-- 256 -->
      <g transform="translate(607.980223 381.867187) scale(0.22 -0.22)">
       <use xlink:href="#ArialMT-32"/>
       <use xlink:href="#ArialMT-35" x="55.615234"/>
       <use xlink:href="#ArialMT-36" x="111.230469"/>
      </g>
     </g>
    </g>
    <g id="xtick_24">
     <g id="line2d_79">
      <g>
       <use xlink:href="#m2ce85c458a" x="686.23846" y="359.12" style="stroke: #000000; stroke-width: 0.8"/>
      </g>
     </g>
     <g id="text_17">
      <!-- 384 -->
      <g transform="translate(667.887366 381.867187) scale(0.22 -0.22)">
       <use xlink:href="#ArialMT-33"/>
       <use xlink:href="#ArialMT-38" x="55.615234"/>
       <use xlink:href="#ArialMT-34" x="111.230469"/>
      </g>
     </g>
    </g>
   </g>
   <g id="matplotlib.axis_12">
    <g id="ytick_16">
     <g id="line2d_80">
      <g>
       <use xlink:href="#mbfb08fa9bd" x="506.517031" y="359.12" style="stroke: #000000; stroke-width: 0.8"/>
      </g>
     </g>
    </g>
    <g id="ytick_17">
     <g id="line2d_81">
      <g>
       <use xlink:href="#mbfb08fa9bd" x="506.517031" y="294.96" style="stroke: #000000; stroke-width: 0.8"/>
      </g>
     </g>
    </g>
    <g id="ytick_18">
     <g id="line2d_82">
      <g>
       <use xlink:href="#mbfb08fa9bd" x="506.517031" y="230.8" style="stroke: #000000; stroke-width: 0.8"/>
      </g>
     </g>
    </g>
   </g>
   <g id="line2d_83">
    <path d="M 514.005424 286.94 
L 514.473449 286.94 
L 515.877522 311 
L 516.813571 311 
L 517.749621 294.96 
L 518.217645 302.98 
L 518.68567 294.96 
L 519.621719 311 
L 520.089743 311 
L 520.557768 302.98 
L 521.025792 302.98 
L 521.493817 294.96 
L 522.429866 294.96 
L 523.365915 278.92 
L 525.238013 278.92 
L 525.706038 270.9 
L 526.174063 270.9 
L 527.110112 254.86 
L 529.450234 254.86 
L 529.918259 246.84 
L 531.322333 246.84 
L 531.790357 238.82 
L 533.194431 238.82 
L 533.662455 246.84 
L 534.598504 246.84 
L 535.066529 254.86 
L 537.874676 254.86 
L 538.342701 262.88 
L 538.810725 262.88 
L 539.27875 270.9 
L 540.682824 270.9 
L 541.150848 262.88 
L 542.086897 262.88 
L 542.554922 254.86 
L 543.022946 254.86 
L 543.490971 262.88 
L 545.831094 262.88 
L 546.299118 254.86 
L 547.235167 254.86 
L 547.703192 262.88 
L 550.979364 262.88 
L 551.447388 270.9 
L 553.319487 270.9 
L 553.787511 278.92 
L 554.255536 270.9 
L 554.72356 278.92 
L 555.191585 270.9 
L 555.659609 270.9 
L 557.999732 311 
L 558.467757 311 
L 558.935781 302.98 
L 559.403806 311 
L 560.807879 311 
L 561.275904 302.98 
L 561.743929 311 
L 562.211953 311 
L 562.679978 319.02 
L 564.084051 319.02 
L 564.552076 311 
L 565.0201 311 
L 565.95615 294.96 
L 566.424174 294.96 
L 566.892199 286.94 
L 567.828248 302.98 
L 568.764297 302.98 
L 570.168371 278.92 
L 570.636395 278.92 
L 571.572444 262.88 
L 574.380592 262.88 
L 575.784665 238.82 
L 577.188739 238.82 
L 577.656763 246.84 
L 579.528862 246.84 
L 579.996886 238.82 
L 580.464911 238.82 
L 580.932935 246.84 
L 581.40096 246.84 
L 582.337009 262.88 
L 582.805033 262.88 
L 583.273058 270.9 
L 584.209107 270.9 
L 584.677132 278.92 
L 585.145156 270.9 
L 585.613181 270.9 
L 586.081205 278.92 
L 587.017254 278.92 
L 587.485279 286.94 
L 587.953304 286.94 
L 588.421328 278.92 
L 589.357377 278.92 
L 589.825402 270.9 
L 590.293426 278.92 
L 590.761451 270.9 
L 592.633549 270.9 
L 593.101574 278.92 
L 593.569598 270.9 
L 596.377746 270.9 
L 596.84577 262.88 
L 597.781819 262.88 
L 598.249844 270.9 
L 598.717868 270.9 
L 599.185893 278.92 
L 599.653917 270.9 
L 600.121942 270.9 
L 600.589967 262.88 
L 601.057991 270.9 
L 601.526016 270.9 
L 601.99404 278.92 
L 602.462065 278.92 
L 603.398114 294.96 
L 605.270212 294.96 
L 605.738237 286.94 
L 606.206261 286.94 
L 606.674286 278.92 
L 608.078359 278.92 
L 608.546384 270.9 
L 609.014408 270.9 
L 610.886507 238.82 
L 611.354531 238.82 
L 612.29058 254.86 
L 614.630703 254.86 
L 615.098728 262.88 
L 619.310949 262.88 
L 620.246998 246.84 
L 622.119096 246.84 
L 622.587121 238.82 
L 623.52317 238.82 
L 623.991194 246.84 
L 624.927243 246.84 
L 625.395268 254.86 
L 627.267366 254.86 
L 627.735391 262.88 
L 632.415636 262.88 
L 632.883661 254.86 
L 634.755759 254.86 
L 635.223783 246.84 
L 636.159833 246.84 
L 636.627857 254.86 
L 639.904029 254.86 
L 640.372054 262.88 
L 641.308103 262.88 
L 641.776127 254.86 
L 643.648225 254.86 
L 644.11625 246.84 
L 644.584275 254.86 
L 645.988348 254.86 
L 646.456373 246.84 
L 647.392422 262.88 
L 647.860446 254.86 
L 650.200569 254.86 
L 650.668594 262.88 
L 651.136618 262.88 
L 651.604643 270.9 
L 652.072667 262.88 
L 653.476741 286.94 
L 653.944766 286.94 
L 654.880815 270.9 
L 656.284888 270.9 
L 656.752913 278.92 
L 657.688962 278.92 
L 658.156987 270.9 
L 658.625011 278.92 
L 659.093036 270.9 
L 659.56106 270.9 
L 660.965134 246.84 
L 663.773281 246.84 
L 664.241306 238.82 
L 664.70933 238.82 
L 665.177355 246.84 
L 665.645379 246.84 
L 666.113404 238.82 
L 666.581429 238.82 
L 667.049453 246.84 
L 671.261674 246.84 
L 672.197723 262.88 
L 674.069821 262.88 
L 674.537846 254.86 
L 676.877969 254.86 
L 677.345993 262.88 
L 678.750067 262.88 
L 680.154141 238.82 
L 684.366362 238.82 
L 684.834386 230.8 
L 691.854754 230.8 
L 692.322779 238.82 
L 692.790804 238.82 
L 693.258828 246.84 
L 698.875123 246.84 
L 699.343147 254.86 
L 699.811172 246.84 
L 700.279196 246.84 
L 700.747221 238.82 
L 706.363516 238.82 
L 706.83154 230.8 
L 707.299565 238.82 
L 716.192031 238.82 
L 716.192031 238.82 
" style="fill: none; stroke: #0d0d0d; stroke-opacity: 0.6; stroke-width: 2; stroke-linecap: square"/>
   </g>
   <g id="line2d_84">
    <path d="M 536.470603 359.12 
L 536.470603 230.8 
" clip-path="url(#p6bddfdaa36)" style="fill: none; stroke-dasharray: 3.7,1.6; stroke-dashoffset: 0; stroke: #808080; stroke-opacity: 0.3"/>
   </g>
   <g id="line2d_85">
    <path d="M 566.424174 359.12 
L 566.424174 230.8 
" clip-path="url(#p6bddfdaa36)" style="fill: none; stroke-dasharray: 3.7,1.6; stroke-dashoffset: 0; stroke: #808080; stroke-opacity: 0.3"/>
   </g>
   <g id="line2d_86">
    <path d="M 596.377746 359.12 
L 596.377746 230.8 
" clip-path="url(#p6bddfdaa36)" style="fill: none; stroke-dasharray: 3.7,1.6; stroke-dashoffset: 0; stroke: #808080; stroke-opacity: 0.3"/>
   </g>
   <g id="line2d_87">
    <path d="M 626.331317 359.12 
L 626.331317 230.8 
" clip-path="url(#p6bddfdaa36)" style="fill: none; stroke-dasharray: 3.7,1.6; stroke-dashoffset: 0; stroke: #808080; stroke-opacity: 0.3"/>
   </g>
   <g id="line2d_88">
    <path d="M 656.284888 359.12 
L 656.284888 230.8 
" clip-path="url(#p6bddfdaa36)" style="fill: none; stroke-dasharray: 3.7,1.6; stroke-dashoffset: 0; stroke: #808080; stroke-opacity: 0.3"/>
   </g>
   <g id="line2d_89">
    <path d="M 686.23846 359.12 
L 686.23846 230.8 
" clip-path="url(#p6bddfdaa36)" style="fill: none; stroke-dasharray: 3.7,1.6; stroke-dashoffset: 0; stroke: #808080; stroke-opacity: 0.3"/>
   </g>
   <g id="line2d_90">
    <path d="M 716.192031 359.12 
L 716.192031 230.8 
" clip-path="url(#p6bddfdaa36)" style="fill: none; stroke-dasharray: 3.7,1.6; stroke-dashoffset: 0; stroke: #808080; stroke-opacity: 0.3"/>
   </g>
   <g id="patch_18">
    <path d="M 506.517031 359.12 
L 506.517031 230.8 
" style="fill: none; stroke: #000000; stroke-width: 2; stroke-linejoin: miter; stroke-linecap: square"/>
   </g>
   <g id="patch_19">
    <path d="M 506.517031 359.12 
L 716.192031 359.12 
" style="fill: none; stroke: #000000; stroke-width: 2; stroke-linejoin: miter; stroke-linecap: square"/>
   </g>
   <g id="text_18">
    <!-- S8 -->
    <g transform="translate(675.130156 347.73525) scale(0.25 -0.25)">
     <use xlink:href="#ArialMT-53"/>
     <use xlink:href="#ArialMT-38" x="66.699219"/>
    </g>
   </g>
  </g>
  <g id="text_19">
   <!-- Trial -->
   <g transform="translate(332.133047 413.28) scale(0.25 -0.25)">
    <defs>
     <path id="ArialMT-54" d="M 1659 0 
L 1659 4041 
L 150 4041 
L 150 4581 
L 3781 4581 
L 3781 4041 
L 2266 4041 
L 2266 0 
L 1659 0 
z
" transform="scale(0.015625)"/>
     <path id="ArialMT-72" d="M 416 0 
L 416 3319 
L 922 3319 
L 922 2816 
Q 1116 3169 1280 3281 
Q 1444 3394 1641 3394 
Q 1925 3394 2219 3213 
L 2025 2691 
Q 1819 2813 1613 2813 
Q 1428 2813 1281 2702 
Q 1134 2591 1072 2394 
Q 978 2094 978 1738 
L 978 0 
L 416 0 
z
" transform="scale(0.015625)"/>
     <path id="ArialMT-69" d="M 425 3934 
L 425 4581 
L 988 4581 
L 988 3934 
L 425 3934 
z
M 425 0 
L 425 3319 
L 988 3319 
L 988 0 
L 425 0 
z
" transform="scale(0.015625)"/>
     <path id="ArialMT-61" d="M 2588 409 
Q 2275 144 1986 34 
Q 1697 -75 1366 -75 
Q 819 -75 525 192 
Q 231 459 231 875 
Q 231 1119 342 1320 
Q 453 1522 633 1644 
Q 813 1766 1038 1828 
Q 1203 1872 1538 1913 
Q 2219 1994 2541 2106 
Q 2544 2222 2544 2253 
Q 2544 2597 2384 2738 
Q 2169 2928 1744 2928 
Q 1347 2928 1158 2789 
Q 969 2650 878 2297 
L 328 2372 
Q 403 2725 575 2942 
Q 747 3159 1072 3276 
Q 1397 3394 1825 3394 
Q 2250 3394 2515 3294 
Q 2781 3194 2906 3042 
Q 3031 2891 3081 2659 
Q 3109 2516 3109 2141 
L 3109 1391 
Q 3109 606 3145 398 
Q 3181 191 3288 0 
L 2700 0 
Q 2613 175 2588 409 
z
M 2541 1666 
Q 2234 1541 1622 1453 
Q 1275 1403 1131 1340 
Q 988 1278 909 1158 
Q 831 1038 831 891 
Q 831 666 1001 516 
Q 1172 366 1500 366 
Q 1825 366 2078 508 
Q 2331 650 2450 897 
Q 2541 1088 2541 1459 
L 2541 1666 
z
" transform="scale(0.015625)"/>
     <path id="ArialMT-6c" d="M 409 0 
L 409 4581 
L 972 4581 
L 972 0 
L 409 0 
z
" transform="scale(0.015625)"/>
    </defs>
    <use xlink:href="#ArialMT-54"/>
    <use xlink:href="#ArialMT-72" x="57.333984"/>
    <use xlink:href="#ArialMT-69" x="90.634766"/>
    <use xlink:href="#ArialMT-61" x="112.851562"/>
    <use xlink:href="#ArialMT-6c" x="168.466797"/>
   </g>
  </g>
 </g>
 <defs>
  <clipPath id="p6a97867db5">
   <rect x="9.717031" y="3.6" width="209.675" height="128.32"/>
  </clipPath>
  <clipPath id="p7c16f63654">
   <rect x="258.117031" y="3.6" width="209.675" height="128.32"/>
  </clipPath>
  <clipPath id="p273fa81aaf">
   <rect x="506.517031" y="3.6" width="209.675" height="128.32"/>
  </clipPath>
  <clipPath id="p771fd1510c">
   <rect x="9.717031" y="230.8" width="209.675" height="128.32"/>
  </clipPath>
  <clipPath id="pd1c4a579a8">
   <rect x="258.117031" y="230.8" width="209.675" height="128.32"/>
  </clipPath>
  <clipPath id="p6bddfdaa36">
   <rect x="506.517031" y="230.8" width="209.675" height="128.32"/>
  </clipPath>
 </defs>
</svg>
