<?xml version="1.0" encoding="utf-8" standalone="no"?>
<!DOCTYPE svg PUBLIC "-//W3C//DTD SVG 1.1//EN"
  "http://www.w3.org/Graphics/SVG/1.1/DTD/svg11.dtd">
<svg xmlns:xlink="http://www.w3.org/1999/xlink" width="185.3pt" height="112.148pt" viewBox="0 0 185.3 112.148" xmlns="http://www.w3.org/2000/svg" version="1.1">
 <metadata>
  <rdf:RDF xmlns:dc="http://purl.org/dc/elements/1.1/" xmlns:cc="http://creativecommons.org/ns#" xmlns:rdf="http://www.w3.org/1999/02/22-rdf-syntax-ns#">
   <cc:Work>
    <dc:type rdf:resource="http://purl.org/dc/dcmitype/StillImage"/>
    <dc:date>2025-05-15T11:01:43.031964</dc:date>
    <dc:format>image/svg+xml</dc:format>
    <dc:creator>
     <cc:Agent>
      <dc:title>Matplotlib v3.8.4, https://matplotlib.org/</dc:title>
     </cc:Agent>
    </dc:creator>
   </cc:Work>
  </rdf:RDF>
 </metadata>
 <defs>
  <style type="text/css">*{stroke-linejoin: round; stroke-linecap: butt}</style>
 </defs>
 <g id="figure_1">
  <g id="patch_1">
   <path d="M 0 112.148 
L 185.3 112.148 
L 185.3 0 
L 0 0 
L 0 112.148 
z
" style="fill: none"/>
  </g>
  <g id="axes_1">
   <g id="patch_2">
    <path d="M 10.7 101.448 
L 178.1 101.448 
L 178.1 7.2 
L 10.7 7.2 
L 10.7 101.448 
z
" style="fill: none"/>
   </g>
   <g id="matplotlib.axis_1">
    <g id="xtick_1">
     <g id="line2d_1">
      <defs>
       <path id="me94885aaf3" d="M 0 0 
L 0 3.5 
" style="stroke: #000000; stroke-width: 0.8"/>
      </defs>
      <g>
       <use xlink:href="#me94885aaf3" x="10.7" y="101.448" style="stroke: #000000; stroke-width: 0.8"/>
      </g>
     </g>
    </g>
    <g id="xtick_2">
     <g id="line2d_2">
      <g>
       <use xlink:href="#me94885aaf3" x="41.093191" y="101.448" style="stroke: #000000; stroke-width: 0.8"/>
      </g>
     </g>
    </g>
    <g id="xtick_3">
     <g id="line2d_3">
      <g>
       <use xlink:href="#me94885aaf3" x="71.486383" y="101.448" style="stroke: #000000; stroke-width: 0.8"/>
      </g>
     </g>
    </g>
    <g id="xtick_4">
     <g id="line2d_4">
      <g>
       <use xlink:href="#me94885aaf3" x="101.879574" y="101.448" style="stroke: #000000; stroke-width: 0.8"/>
      </g>
     </g>
    </g>
    <g id="xtick_5">
     <g id="line2d_5">
      <g>
       <use xlink:href="#me94885aaf3" x="132.272766" y="101.448" style="stroke: #000000; stroke-width: 0.8"/>
      </g>
     </g>
    </g>
    <g id="xtick_6">
     <g id="line2d_6">
      <g>
       <use xlink:href="#me94885aaf3" x="162.665957" y="101.448" style="stroke: #000000; stroke-width: 0.8"/>
      </g>
     </g>
    </g>
   </g>
   <g id="matplotlib.axis_2">
    <g id="ytick_1">
     <g id="line2d_7">
      <defs>
       <path id="m78176466b3" d="M 0 0 
L -3.5 0 
" style="stroke: #000000; stroke-width: 0.8"/>
      </defs>
      <g>
       <use xlink:href="#m78176466b3" x="10.7" y="101.448" style="stroke: #000000; stroke-width: 0.8"/>
      </g>
     </g>
    </g>
    <g id="ytick_2">
     <g id="line2d_8">
      <g>
       <use xlink:href="#m78176466b3" x="10.7" y="82.5984" style="stroke: #000000; stroke-width: 0.8"/>
      </g>
     </g>
    </g>
    <g id="ytick_3">
     <g id="line2d_9">
      <g>
       <use xlink:href="#m78176466b3" x="10.7" y="63.7488" style="stroke: #000000; stroke-width: 0.8"/>
      </g>
     </g>
    </g>
    <g id="ytick_4">
     <g id="line2d_10">
      <g>
       <use xlink:href="#m78176466b3" x="10.7" y="44.8992" style="stroke: #000000; stroke-width: 0.8"/>
      </g>
     </g>
    </g>
    <g id="ytick_5">
     <g id="line2d_11">
      <g>
       <use xlink:href="#m78176466b3" x="10.7" y="26.0496" style="stroke: #000000; stroke-width: 0.8"/>
      </g>
     </g>
    </g>
    <g id="ytick_6">
     <g id="line2d_12">
      <g>
       <use xlink:href="#m78176466b3" x="10.7" y="7.2" style="stroke: #000000; stroke-width: 0.8"/>
      </g>
     </g>
    </g>
   </g>
   <g id="line2d_13">
    <path d="M 14.499149 101.448 
L 15.686383 101.448 
L 15.92383 95.5575 
L 19.248085 95.5575 
L 19.485532 89.667 
L 23.047234 89.667 
L 23.522128 101.448 
L 25.896596 101.448 
L 26.134043 95.5575 
L 30.882979 95.5575 
L 31.120426 89.667 
L 33.494894 89.667 
L 33.73234 95.5575 
L 34.682128 95.5575 
L 34.919574 101.448 
L 42.042979 101.448 
L 42.280426 95.5575 
L 45.842128 95.5575 
L 46.079574 101.448 
L 47.266809 101.448 
L 47.504255 95.5575 
L 47.741702 95.5575 
L 48.216596 83.7765 
L 50.353617 83.7765 
L 50.591064 77.886 
L 51.065957 77.886 
L 51.303404 83.7765 
L 51.540851 83.7765 
L 51.778298 89.667 
L 52.253191 89.667 
L 52.490638 83.7765 
L 53.440426 83.7765 
L 53.915319 71.9955 
L 54.152766 71.9955 
L 54.390213 77.886 
L 54.62766 71.9955 
L 54.865106 71.9955 
L 55.577447 54.324 
L 55.814894 54.324 
L 56.05234 48.4335 
L 57.477021 48.4335 
L 57.714468 54.324 
L 58.189362 42.543 
L 58.426809 48.4335 
L 58.664255 48.4335 
L 59.139149 60.2145 
L 60.088936 60.2145 
L 60.326383 54.324 
L 61.27617 54.324 
L 61.513617 48.4335 
L 62.938298 48.4335 
L 63.175745 54.324 
L 63.413191 54.324 
L 63.650638 60.2145 
L 63.888085 60.2145 
L 64.125532 66.105 
L 64.600426 66.105 
L 64.837872 60.2145 
L 65.075319 60.2145 
L 65.312766 66.105 
L 65.550213 66.105 
L 65.78766 71.9955 
L 66.5 71.9955 
L 66.974894 60.2145 
L 67.21234 66.105 
L 68.399574 66.105 
L 68.874468 77.886 
L 69.111915 77.886 
L 69.349362 83.7765 
L 69.586809 77.886 
L 70.299149 77.886 
L 70.536596 83.7765 
L 70.774043 83.7765 
L 71.011489 77.886 
L 71.248936 77.886 
L 71.486383 83.7765 
L 71.72383 77.886 
L 72.198723 77.886 
L 72.43617 71.9955 
L 73.148511 71.9955 
L 73.385957 77.886 
L 74.098298 60.2145 
L 74.573191 60.2145 
L 74.810638 66.105 
L 75.048085 60.2145 
L 75.285532 60.2145 
L 75.522979 66.105 
L 75.760426 66.105 
L 75.997872 60.2145 
L 76.235319 60.2145 
L 76.710213 48.4335 
L 77.185106 48.4335 
L 77.897447 66.105 
L 78.134894 66.105 
L 78.37234 71.9955 
L 78.609787 71.9955 
L 78.847234 77.886 
L 79.559574 77.886 
L 80.509362 101.448 
L 80.746809 95.5575 
L 80.984255 95.5575 
L 81.221702 89.667 
L 82.408936 89.667 
L 82.646383 83.7765 
L 83.358723 83.7765 
L 83.59617 77.886 
L 84.308511 77.886 
L 84.545957 83.7765 
L 84.783404 83.7765 
L 85.020851 89.667 
L 85.495745 89.667 
L 85.733191 83.7765 
L 86.920426 83.7765 
L 87.157872 77.886 
L 87.395319 83.7765 
L 87.870213 71.9955 
L 88.582553 71.9955 
L 88.82 66.105 
L 89.294894 66.105 
L 89.53234 71.9955 
L 90.007234 71.9955 
L 90.244681 77.886 
L 90.719574 77.886 
L 90.957021 83.7765 
L 91.194468 83.7765 
L 91.431915 89.667 
L 95.231064 89.667 
L 95.468511 95.5575 
L 96.180851 95.5575 
L 96.418298 101.448 
L 104.728936 101.448 
L 104.966383 95.5575 
L 105.20383 95.5575 
L 105.441277 89.667 
L 105.678723 89.667 
L 105.91617 83.7765 
L 106.391064 83.7765 
L 106.628511 77.886 
L 107.103404 77.886 
L 107.578298 66.105 
L 108.765532 66.105 
L 109.002979 60.2145 
L 109.240426 66.105 
L 109.477872 66.105 
L 109.715319 71.9955 
L 110.190213 60.2145 
L 110.42766 66.105 
L 110.902553 54.324 
L 111.14 54.324 
L 111.377447 60.2145 
L 112.327234 36.6525 
L 112.564681 36.6525 
L 112.802128 42.543 
L 113.514468 24.8715 
L 113.751915 24.8715 
L 113.989362 30.762 
L 114.226809 30.762 
L 114.939149 48.4335 
L 115.176596 42.543 
L 116.36383 71.9955 
L 116.601277 71.9955 
L 116.838723 77.886 
L 117.313617 77.886 
L 117.551064 83.7765 
L 117.788511 77.886 
L 118.025957 77.886 
L 118.500851 66.105 
L 118.738298 66.105 
L 118.975745 71.9955 
L 119.688085 71.9955 
L 119.925532 66.105 
L 120.875319 66.105 
L 121.112766 71.9955 
L 121.350213 66.105 
L 121.58766 71.9955 
L 121.825106 66.105 
L 122.062553 71.9955 
L 123.01234 71.9955 
L 123.249787 66.105 
L 124.437021 66.105 
L 124.674468 71.9955 
L 124.911915 71.9955 
L 125.149362 77.886 
L 125.386809 77.886 
L 125.624255 83.7765 
L 125.861702 83.7765 
L 126.099149 89.667 
L 126.811489 89.667 
L 127.048936 95.5575 
L 127.286383 89.667 
L 127.52383 95.5575 
L 127.761277 95.5575 
L 127.998723 89.667 
L 128.948511 89.667 
L 129.423404 77.886 
L 130.848085 77.886 
L 131.085532 83.7765 
L 131.560426 83.7765 
L 131.797872 89.667 
L 132.985106 89.667 
L 133.222553 95.5575 
L 136.546809 95.5575 
L 136.784255 101.448 
L 140.108511 101.448 
L 140.583404 89.667 
L 143.90766 89.667 
L 144.382553 101.448 
L 146.282128 101.448 
L 146.519574 95.5575 
L 149.131489 95.5575 
L 149.368936 89.667 
L 150.081277 89.667 
L 150.318723 95.5575 
L 151.268511 95.5575 
L 152.930638 54.324 
L 153.168085 54.324 
L 155.06766 7.2 
L 177.862553 7.2 
L 177.862553 7.2 
" style="fill: none; stroke: #a6a6a6; stroke-width: 2; stroke-linecap: square"/>
   </g>
   <g id="line2d_14">
    <path d="M 14.499149 98.399684 
L 15.686383 98.399684 
L 15.92383 99.193514 
L 17.823404 99.193514 
L 18.060851 101.448 
L 18.298298 101.448 
L 18.773191 96.439509 
L 19.010638 96.439509 
L 19.960426 84.302179 
L 22.097447 84.302179 
L 22.57234 89.31067 
L 22.809787 89.31067 
L 23.759574 101.448 
L 25.659149 101.448 
L 25.896596 100.175616 
L 28.033617 100.175616 
L 28.508511 98.48017 
L 28.745957 98.48017 
L 28.983404 97.164923 
L 29.458298 97.164923 
L 29.695745 98.437306 
L 31.832766 98.437306 
L 32.30766 100.132753 
L 32.545106 100.132753 
L 32.782553 99.87226 
L 33.257447 93.747957 
L 33.73234 93.747957 
L 33.969787 89.023348 
L 36.344255 89.023348 
L 36.581702 90.599088 
L 37.056596 96.723391 
L 37.531489 96.723391 
L 37.768936 101.448 
L 39.905957 101.448 
L 40.143404 98.944145 
L 42.992766 98.944145 
L 43.230213 95.693205 
L 43.705106 95.693205 
L 43.942553 98.197061 
L 45.604681 98.197061 
L 46.554468 79.684964 
L 46.791915 79.684964 
L 47.029362 82.935903 
L 49.40383 82.935903 
L 49.878723 86.017105 
L 50.353617 95.718435 
L 51.065957 95.718435 
L 52.253191 75.150966 
L 52.965532 63.434449 
L 53.202979 58.882076 
L 53.440426 57.56614 
L 53.677872 55.586707 
L 53.915319 52.324664 
L 54.152766 52.324664 
L 54.390213 48.732603 
L 54.865106 48.732603 
L 56.05234 69.300072 
L 56.764681 81.016589 
L 57.714468 97.855939 
L 57.951915 97.855939 
L 58.189362 101.448 
L 61.038723 101.448 
L 61.751064 86.763955 
L 62.463404 74.346098 
L 64.837872 29.864772 
L 65.075319 29.966936 
L 65.312766 29.400886 
L 65.550213 29.211902 
L 66.262553 41.629759 
L 68.874468 91.256616 
L 69.349362 101.448 
L 69.586809 101.448 
L 69.824255 97.136079 
L 70.061702 97.136079 
L 70.299149 93.453303 
L 73.148511 93.453303 
L 73.385957 90.562221 
L 73.623404 91.57926 
L 73.860851 91.57926 
L 74.098298 95.262036 
L 75.760426 95.262036 
L 75.997872 90.672264 
L 76.94766 90.672264 
L 77.422553 96.858228 
L 77.897447 91.963403 
L 78.37234 83.917652 
L 79.559574 83.917652 
L 79.797021 88.507424 
L 80.984255 88.507424 
L 81.221702 83.241122 
L 81.696596 78.244461 
L 81.934043 78.450584 
L 82.171489 76.842496 
L 82.646383 68.101747 
L 82.88383 63.430322 
L 84.783404 63.430322 
L 85.495745 78.58811 
L 85.733191 78.742691 
L 85.970638 79.818767 
L 86.445532 84.971758 
L 86.682979 89.643182 
L 87.870213 89.643182 
L 88.10766 86.490316 
L 89.294894 60.344351 
L 89.53234 60.133412 
L 90.007234 67.473042 
L 91.669362 67.473042 
L 91.906809 70.625907 
L 92.381702 81.53924 
L 92.619149 84.350546 
L 92.856596 89.628068 
L 93.331489 89.730425 
L 93.806383 82.84204 
L 95.468511 82.84204 
L 96.180851 71.225775 
L 96.418298 69.418834 
L 96.655745 64.784035 
L 97.130638 65.161116 
L 97.368085 64.31384 
L 97.842979 56.924339 
L 98.317872 56.924339 
L 99.26766 37.467814 
L 99.505106 37.12979 
L 99.98 33.827191 
L 101.167234 56.674875 
L 101.642128 66.734586 
L 102.117021 66.734586 
L 102.354468 71.530993 
L 102.591915 72.428844 
L 102.829362 71.855107 
L 103.066809 72.806279 
L 103.304255 74.603386 
L 103.779149 85.283338 
L 104.966383 85.283338 
L 105.20383 80.202293 
L 105.441277 78.011042 
L 106.153617 78.011042 
L 106.391064 81.815835 
L 107.103404 87.536908 
L 107.340851 82.726691 
L 108.290638 82.726691 
L 108.765532 72.040466 
L 109.002979 74.825485 
L 109.240426 74.28695 
L 110.190213 74.28695 
L 110.665106 80.925746 
L 110.902553 80.925746 
L 111.14 85.735963 
L 112.089787 85.735963 
L 112.564681 96.422188 
L 113.277021 86.143008 
L 114.939149 47.804743 
L 116.36383 47.804743 
L 118.738298 101.448 
L 119.450638 101.448 
L 119.925532 92.220667 
L 120.162979 92.220667 
L 121.112766 71.376016 
L 121.350213 67.614366 
L 123.249787 67.614366 
L 123.724681 76.841699 
L 123.962128 76.841699 
L 124.911915 97.686349 
L 125.149362 101.448 
L 126.099149 82.198721 
L 126.336596 82.198721 
L 126.574043 77.782587 
L 128.948511 77.782587 
L 129.898298 97.031866 
L 130.135745 97.031866 
L 130.373191 101.448 
L 131.560426 101.448 
L 132.035319 92.229696 
L 133.934894 92.229696 
L 135.359574 62.08406 
L 135.834468 71.302364 
L 137.734043 71.302364 
L 139.158723 101.448 
L 143.670213 101.448 
L 143.90766 96.308459 
L 147.469362 96.308459 
L 147.706809 101.448 
L 150.55617 101.448 
L 154.355319 18.194464 
L 154.592766 18.88455 
L 154.830213 19.054861 
L 155.06766 19.37316 
L 155.305106 19.179023 
L 155.542553 19.241094 
L 155.78 19.48846 
L 156.017447 19.952214 
L 156.254894 20.936466 
L 156.49234 20.899861 
L 156.729787 21.109657 
L 156.967234 20.946509 
L 157.204681 20.317847 
L 157.442128 20.339139 
L 157.679574 19.262046 
L 157.917021 19.988182 
L 158.154468 19.918859 
L 158.391915 19.667333 
L 158.629362 19.898653 
L 158.866809 19.676529 
L 159.341702 18.516059 
L 159.816596 27.777423 
L 160.054043 28.258865 
L 160.291489 28.257405 
L 160.528936 28.032921 
L 161.00383 29.346868 
L 161.241277 29.91488 
L 161.478723 29.983688 
L 161.953617 27.220779 
L 162.191064 26.362539 
L 162.428511 26.419088 
L 162.665957 25.639944 
L 162.903404 25.337853 
L 163.140851 25.340389 
L 163.615745 14.326094 
L 163.853191 14.154721 
L 164.090638 15.61985 
L 164.328085 15.647703 
L 165.040426 13.803516 
L 165.277872 13.800829 
L 165.515319 14.010271 
L 165.990213 14.915384 
L 166.22766 14.27748 
L 166.702553 15.472903 
L 166.94 15.58742 
L 167.177447 14.845814 
L 167.414894 14.854449 
L 167.889787 13.24395 
L 168.127234 13.86929 
L 168.602128 16.697778 
L 168.839574 17.216927 
L 169.077021 17.386604 
L 169.789362 16.521982 
L 170.501702 16.915426 
L 170.739149 16.868591 
L 171.214043 17.990807 
L 171.688936 17.963597 
L 171.926383 18.235244 
L 172.638723 15.509418 
L 173.588511 17.747976 
L 174.063404 16.75939 
L 174.775745 16.157114 
L 175.488085 15.073746 
L 175.725532 14.397183 
L 175.962979 14.415943 
L 176.437872 17.856347 
L 176.675319 18.008575 
L 176.912766 17.59324 
L 177.150213 17.487501 
L 177.38766 17.612025 
L 177.625106 18.133777 
L 177.862553 18.013861 
L 177.862553 18.013861 
" style="fill: none; stroke: #20978b; stroke-width: 2; stroke-linecap: square"/>
   </g>
   <g id="patch_3">
    <path d="M 10.7 101.448 
L 10.7 7.2 
" style="fill: none; stroke: #000000; stroke-width: 2; stroke-linejoin: miter; stroke-linecap: square"/>
   </g>
   <g id="patch_4">
    <path d="M 10.7 101.448 
L 178.1 101.448 
" style="fill: none; stroke: #000000; stroke-width: 2; stroke-linejoin: miter; stroke-linecap: square"/>
   </g>
  </g>
 </g>
</svg>
