<?xml version="1.0" encoding="utf-8" standalone="no"?>
<!DOCTYPE svg PUBLIC "-//W3C//DTD SVG 1.1//EN"
  "http://www.w3.org/Graphics/SVG/1.1/DTD/svg11.dtd">
<svg xmlns:xlink="http://www.w3.org/1999/xlink" width="554.761875pt" height="295.982844pt" viewBox="0 0 554.761875 295.982844" xmlns="http://www.w3.org/2000/svg" version="1.1">
 <metadata>
  <rdf:RDF xmlns:dc="http://purl.org/dc/elements/1.1/" xmlns:cc="http://creativecommons.org/ns#" xmlns:rdf="http://www.w3.org/1999/02/22-rdf-syntax-ns#">
   <cc:Work>
    <dc:type rdf:resource="http://purl.org/dc/dcmitype/StillImage"/>
    <dc:date>2025-05-15T14:37:54.467885</dc:date>
    <dc:format>image/svg+xml</dc:format>
    <dc:creator>
     <cc:Agent>
      <dc:title>Matplotlib v3.8.4, https://matplotlib.org/</dc:title>
     </cc:Agent>
    </dc:creator>
   </cc:Work>
  </rdf:RDF>
 </metadata>
 <defs>
  <style type="text/css">*{stroke-linejoin: round; stroke-linecap: butt}</style>
 </defs>
 <g id="figure_1">
  <g id="patch_1">
   <path d="M 0 295.982844 
L 554.761875 295.982844 
L 554.761875 -0 
L 0 -0 
L 0 295.982844 
z
" style="fill: none"/>
  </g>
  <g id="axes_1">
   <g id="patch_2">
    <path d="M 58.270313 245.77425 
L 504.670312 245.77425 
L 504.670312 12.92625 
L 58.270313 12.92625 
L 58.270313 245.77425 
z
" style="fill: none"/>
   </g>
   <g id="PolyCollection_1">
    <defs>
     <path id="mabc02dce1e" d="M 69.430313 -177.938779 
L 69.430313 -125.422337 
L 70.127813 -124.426589 
L 70.825313 -125.508012 
L 71.522813 -124.315984 
L 72.220313 -126.47021 
L 72.917813 -122.025809 
L 73.615313 -125.762284 
L 74.312813 -123.975431 
L 75.010313 -127.264984 
L 75.707813 -137.103335 
L 76.405313 -137.259445 
L 77.102813 -133.765909 
L 77.800313 -127.918094 
L 78.497813 -124.580379 
L 79.195313 -119.843055 
L 79.892813 -117.602325 
L 80.590313 -111.923155 
L 81.287813 -110.727426 
L 81.985313 -112.457575 
L 82.682813 -119.582125 
L 83.380313 -118.548754 
L 84.077813 -118.490075 
L 84.775313 -113.804891 
L 85.472813 -115.67791 
L 86.170313 -113.998907 
L 86.867813 -106.361968 
L 87.565313 -107.263437 
L 88.262813 -112.02469 
L 88.960313 -120.142093 
L 89.657813 -118.648987 
L 90.355313 -126.341602 
L 91.052813 -126.579003 
L 91.750313 -130.172881 
L 92.447813 -132.815197 
L 93.145313 -135.899522 
L 93.842813 -136.092412 
L 94.540313 -137.187766 
L 95.237813 -138.575352 
L 95.935313 -142.815877 
L 96.632812 -144.154378 
L 97.330313 -143.488365 
L 98.027813 -140.19592 
L 98.725313 -140.306355 
L 99.422813 -135.69611 
L 100.120313 -131.6928 
L 100.817813 -129.073098 
L 101.515313 -123.596662 
L 102.212813 -120.195743 
L 102.910313 -117.733601 
L 103.607813 -119.868756 
L 104.305313 -115.453424 
L 105.002813 -109.667513 
L 105.700313 -106.493647 
L 106.397813 -104.792038 
L 107.095313 -100.061804 
L 107.792813 -98.360698 
L 108.490313 -98.599766 
L 109.187813 -99.736449 
L 109.885313 -95.556606 
L 110.582813 -94.176874 
L 111.280313 -91.74234 
L 111.977813 -89.579261 
L 112.675313 -91.003205 
L 113.372813 -88.351732 
L 114.070312 -88.633493 
L 114.767813 -82.415986 
L 115.465313 -81.933282 
L 116.162813 -82.205488 
L 116.860313 -86.645513 
L 117.557813 -94.175655 
L 118.255313 -101.623518 
L 118.952813 -105.880946 
L 119.650313 -108.735373 
L 120.347813 -109.92563 
L 121.045313 -113.805133 
L 121.742813 -116.773483 
L 122.440313 -121.291626 
L 123.137813 -123.611453 
L 123.835313 -126.338818 
L 124.532813 -128.599321 
L 125.230313 -127.244949 
L 125.927813 -126.786779 
L 126.625313 -128.088776 
L 127.322812 -127.237599 
L 128.020313 -122.327497 
L 128.717813 -115.959712 
L 129.415312 -107.787111 
L 130.112813 -103.903231 
L 130.810313 -101.74891 
L 131.507812 -98.442707 
L 132.205313 -97.306347 
L 132.902813 -94.828015 
L 133.600313 -90.837044 
L 134.297813 -92.055968 
L 134.995313 -87.787222 
L 135.692813 -90.240517 
L 136.390313 -89.939756 
L 137.087813 -96.54513 
L 137.785313 -102.509969 
L 138.482813 -110.384284 
L 139.180313 -114.714824 
L 139.877813 -117.671253 
L 140.575313 -122.086667 
L 141.272813 -122.768545 
L 141.970313 -128.436983 
L 142.667813 -130.69165 
L 143.365313 -130.384346 
L 144.062813 -132.377192 
L 144.760312 -133.588197 
L 145.457813 -140.129104 
L 146.155313 -142.129779 
L 146.852812 -139.648192 
L 147.550313 -138.618416 
L 148.247813 -134.673445 
L 148.945312 -130.238755 
L 149.642813 -124.388744 
L 150.340313 -127.453413 
L 151.037813 -134.767624 
L 151.735313 -141.803527 
L 152.432813 -149.828697 
L 153.130313 -143.861292 
L 153.827813 -151.296668 
L 154.525313 -154.191311 
L 155.222813 -160.05915 
L 155.920313 -169.16242 
L 156.617813 -168.356797 
L 157.315313 -176.588626 
L 158.012813 -187.44629 
L 158.710313 -192.633461 
L 159.407813 -202.362033 
L 160.105313 -211.839043 
L 160.802813 -208.341727 
L 161.500313 -202.04208 
L 162.197812 -193.768784 
L 162.895313 -190.953607 
L 163.592813 -180.73699 
L 164.290312 -185.239702 
L 164.987813 -180.53239 
L 165.685313 -174.296075 
L 166.382812 -171.005323 
L 167.080313 -170.857675 
L 167.777813 -171.821941 
L 168.475313 -170.195494 
L 169.172813 -161.961145 
L 169.870313 -154.704205 
L 170.567813 -145.630236 
L 171.265313 -134.501201 
L 171.962813 -137.69438 
L 172.660313 -135.574263 
L 173.357813 -136.755603 
L 174.055313 -131.960532 
L 174.752813 -142.132496 
L 175.450313 -138.845597 
L 176.147813 -138.891291 
L 176.845313 -145.051444 
L 177.542813 -148.670343 
L 178.240313 -137.705651 
L 178.937813 -130.190681 
L 179.635312 -125.598754 
L 180.332813 -122.247706 
L 181.030313 -129.756412 
L 181.727812 -133.622972 
L 182.425313 -135.243964 
L 183.122813 -142.433436 
L 183.820312 -143.628841 
L 184.517813 -147.81123 
L 185.215313 -155.092123 
L 185.912813 -154.985392 
L 186.610313 -164.147894 
L 187.307813 -162.627786 
L 188.005313 -157.170857 
L 188.702813 -147.43854 
L 189.400313 -147.283664 
L 190.097813 -145.551997 
L 190.795313 -142.698071 
L 191.492813 -145.295408 
L 192.190313 -140.166598 
L 192.887813 -133.287783 
L 193.585313 -130.889225 
L 194.282813 -128.253821 
L 194.980313 -130.421351 
L 195.677813 -123.709506 
L 196.375313 -114.045249 
L 197.072813 -103.57539 
L 197.770313 -93.758287 
L 198.467813 -92.302884 
L 199.165313 -102.429525 
L 199.862813 -109.145799 
L 200.560313 -110.730681 
L 201.257813 -119.106997 
L 201.955313 -127.959329 
L 202.652813 -125.910759 
L 203.350313 -127.986268 
L 204.047813 -134.184674 
L 204.745313 -136.978875 
L 205.442813 -132.706046 
L 206.140313 -134.342145 
L 206.837813 -133.542046 
L 207.535313 -136.131528 
L 208.232813 -144.779194 
L 208.930313 -152.478603 
L 209.627813 -159.012156 
L 210.325313 -158.815478 
L 211.022813 -159.186704 
L 211.720313 -168.065804 
L 212.417813 -168.975926 
L 213.115313 -164.31156 
L 213.812813 -170.378398 
L 214.510313 -175.934896 
L 215.207813 -178.538092 
L 215.905313 -179.339236 
L 216.602813 -175.980598 
L 217.300313 -175.970634 
L 217.997813 -178.488351 
L 218.695313 -173.956573 
L 219.392813 -168.249196 
L 220.090313 -160.805929 
L 220.787813 -154.449008 
L 221.485313 -145.789758 
L 222.182813 -144.246772 
L 222.880313 -140.332983 
L 223.577813 -131.889309 
L 224.275313 -130.126054 
L 224.972813 -126.541029 
L 225.670313 -119.245588 
L 226.367813 -113.335756 
L 227.065313 -113.929505 
L 227.762813 -116.774136 
L 228.460313 -116.268981 
L 229.157813 -118.12185 
L 229.855313 -129.57249 
L 230.552813 -130.621751 
L 231.250313 -138.821357 
L 231.947813 -145.729798 
L 232.645313 -154.653093 
L 233.342813 -159.016367 
L 234.040313 -162.895446 
L 234.737813 -170.675487 
L 235.435313 -176.088502 
L 236.132813 -172.627938 
L 236.830313 -171.356655 
L 237.527813 -170.350302 
L 238.225313 -167.341557 
L 238.922813 -171.197563 
L 239.620313 -174.065082 
L 240.317813 -179.19425 
L 241.015313 -171.757079 
L 241.712813 -175.117325 
L 242.410313 -166.16617 
L 243.107813 -159.259678 
L 243.805313 -152.90569 
L 244.502813 -152.510261 
L 245.200313 -145.700701 
L 245.897813 -143.667959 
L 246.595313 -143.607001 
L 247.292813 -150.981747 
L 247.990313 -159.205419 
L 248.687813 -159.465008 
L 249.385313 -166.489298 
L 250.082813 -170.822012 
L 250.780313 -172.357376 
L 251.477813 -167.19163 
L 252.175313 -173.026461 
L 252.872813 -170.91495 
L 253.570313 -179.157697 
L 254.267813 -187.589119 
L 254.965313 -183.318428 
L 255.662813 -184.488057 
L 256.360313 -186.538958 
L 257.057813 -190.240697 
L 257.755313 -186.286345 
L 258.452812 -182.557012 
L 259.150312 -173.657005 
L 259.847813 -172.705748 
L 260.545313 -164.594657 
L 261.242813 -155.805359 
L 261.940313 -153.41199 
L 262.637812 -150.865471 
L 263.335312 -142.083808 
L 264.032812 -141.597728 
L 264.730313 -143.162374 
L 265.427813 -144.815531 
L 266.125313 -144.336698 
L 266.822812 -139.770809 
L 267.520312 -134.117537 
L 268.217812 -124.280227 
L 268.915313 -120.272041 
L 269.612813 -120.677728 
L 270.310313 -125.32505 
L 271.007812 -128.23176 
L 271.705312 -128.191162 
L 272.402812 -129.355608 
L 273.100313 -126.089894 
L 273.797813 -126.775353 
L 274.495313 -125.581863 
L 275.192813 -122.609156 
L 275.890312 -114.644312 
L 276.587812 -106.276612 
L 277.285313 -114.308101 
L 277.982813 -114.470995 
L 278.680313 -117.259865 
L 279.377813 -120.576532 
L 280.075312 -117.886192 
L 280.772812 -114.455965 
L 281.470312 -110.836273 
L 282.167813 -117.559646 
L 282.865313 -120.192542 
L 283.562813 -127.276237 
L 284.260312 -132.966428 
L 284.957812 -136.363664 
L 285.655312 -140.023905 
L 286.352813 -140.579105 
L 287.050313 -148.247303 
L 287.747813 -156.831715 
L 288.445312 -156.592666 
L 289.142812 -162.468477 
L 289.840312 -165.624543 
L 290.537813 -171.313787 
L 291.235313 -183.914633 
L 291.932813 -195.158651 
L 292.630313 -206.342516 
L 293.327812 -206.936586 
L 294.025312 -216.276836 
L 294.722813 -213.792747 
L 295.420313 -216.446194 
L 296.117813 -213.335899 
L 296.815313 -214.470472 
L 297.512812 -216.355767 
L 298.210312 -215.562866 
L 298.907813 -214.308175 
L 299.605313 -209.117296 
L 300.302813 -201.316688 
L 301.000313 -195.806674 
L 301.697812 -196.96636 
L 302.395312 -187.896735 
L 303.092812 -181.216336 
L 303.790313 -172.908913 
L 304.487813 -161.82042 
L 305.185313 -154.924456 
L 305.882812 -151.839282 
L 306.580312 -141.793439 
L 307.277812 -141.321846 
L 307.975313 -140.955707 
L 308.672813 -137.580822 
L 309.370313 -131.478261 
L 310.067813 -123.479246 
L 310.765312 -126.094132 
L 311.462812 -124.421754 
L 312.160313 -127.608091 
L 312.857813 -122.680777 
L 313.555313 -124.966894 
L 314.252813 -126.089774 
L 314.950312 -122.916001 
L 315.647812 -122.293539 
L 316.345312 -117.247984 
L 317.042812 -116.673386 
L 317.740313 -115.797087 
L 318.437813 -117.76146 
L 319.135312 -120.121742 
L 319.832812 -126.924809 
L 320.530312 -127.776473 
L 321.227812 -135.155909 
L 321.925313 -131.130444 
L 322.622813 -135.495475 
L 323.320312 -140.550684 
L 324.017812 -133.33613 
L 324.715312 -130.912177 
L 325.412812 -131.298305 
L 326.110313 -130.824448 
L 326.807813 -131.052371 
L 327.505313 -131.889297 
L 328.202812 -131.909089 
L 328.900312 -142.669389 
L 329.597812 -143.481598 
L 330.295312 -148.56046 
L 330.992813 -153.598227 
L 331.690313 -160.548978 
L 332.387812 -162.518902 
L 333.085312 -173.961667 
L 333.782812 -179.166797 
L 334.480312 -179.028176 
L 335.177813 -192.204572 
L 335.875313 -190.419561 
L 336.572812 -185.320407 
L 337.270312 -185.933137 
L 337.967812 -187.426035 
L 338.665312 -187.203399 
L 339.362813 -185.129249 
L 340.060313 -174.429252 
L 340.757812 -171.702682 
L 341.455312 -161.289718 
L 342.152812 -151.225958 
L 342.850312 -140.498198 
L 343.547813 -137.878883 
L 344.245313 -128.071778 
L 344.942813 -122.784736 
L 345.640312 -113.828637 
L 346.337812 -103.165401 
L 347.035312 -103.686529 
L 347.732812 -104.605089 
L 348.430313 -106.853727 
L 349.127813 -117.315012 
L 349.825312 -128.00223 
L 350.522812 -138.703544 
L 351.220312 -140.827255 
L 351.917812 -138.967564 
L 352.615313 -145.311995 
L 353.312813 -153.545205 
L 354.010312 -157.438646 
L 354.707812 -154.042772 
L 355.405312 -159.966191 
L 356.102812 -162.141102 
L 356.800313 -173.625753 
L 357.497813 -183.387246 
L 358.195312 -192.026012 
L 358.892812 -199.110375 
L 359.590312 -208.167358 
L 360.287812 -196.27698 
L 360.985313 -196.845315 
L 361.682813 -196.524494 
L 362.380313 -197.242622 
L 363.077812 -208.198878 
L 363.775312 -210.21764 
L 364.472812 -208.076465 
L 365.170312 -211.553761 
L 365.867813 -218.294226 
L 366.565313 -222.529042 
L 367.262812 -222.933349 
L 367.960312 -223.563375 
L 368.657812 -223.707085 
L 369.355312 -226.716605 
L 370.052813 -230.080933 
L 370.750313 -222.766451 
L 371.447812 -234.664924 
L 372.145312 -226.873619 
L 372.842812 -227.428932 
L 373.540312 -235.436185 
L 374.237813 -227.72054 
L 374.935313 -231.07507 
L 375.632812 -233.002784 
L 376.330312 -236.66621 
L 377.027812 -236.898114 
L 377.725312 -235.624709 
L 378.422813 -237.484294 
L 379.120313 -237.478948 
L 379.817813 -225.296804 
L 380.515312 -221.927545 
L 381.212812 -213.032636 
L 381.910312 -208.626835 
L 382.607812 -207.580116 
L 383.305313 -213.431535 
L 384.002813 -207.840651 
L 384.700312 -205.353996 
L 385.397812 -205.449898 
L 386.095312 -199.091215 
L 386.792812 -197.093703 
L 387.490313 -185.767618 
L 388.187813 -181.307968 
L 388.885312 -176.10793 
L 389.582812 -177.092897 
L 390.280312 -176.645984 
L 390.977812 -183.268019 
L 391.675313 -185.567241 
L 392.372813 -185.397951 
L 393.070312 -192.354284 
L 393.767812 -179.754579 
L 394.465312 -179.864039 
L 395.162812 -173.637989 
L 395.860313 -167.559654 
L 396.557813 -164.161577 
L 397.255313 -168.306425 
L 397.952812 -161.549323 
L 398.650312 -166.865726 
L 399.347812 -158.001738 
L 400.045312 -156.532032 
L 400.742813 -146.226713 
L 401.440313 -142.097777 
L 402.137812 -148.451817 
L 402.835312 -145.788732 
L 403.532812 -152.591219 
L 404.230312 -154.112281 
L 404.927813 -167.324241 
L 405.625313 -169.715637 
L 406.322812 -181.974581 
L 407.020312 -192.014316 
L 407.717812 -202.781289 
L 408.415312 -205.163471 
L 409.112813 -213.160567 
L 409.810313 -219.45998 
L 410.507812 -226.953543 
L 411.205312 -235.137629 
L 411.902812 -246.430633 
L 412.600312 -251.487349 
L 413.297813 -250.830941 
L 413.995313 -251.231839 
L 414.692813 -253.371011 
L 415.390312 -256.998412 
L 416.087812 -258.150541 
L 416.785312 -244.147017 
L 417.482812 -239.088365 
L 418.180313 -237.643124 
L 418.877813 -225.973718 
L 419.575312 -219.143466 
L 420.272812 -214.970537 
L 420.970312 -208.212983 
L 421.667812 -213.233591 
L 422.365313 -211.277116 
L 423.062813 -210.698905 
L 423.760312 -209.823483 
L 424.457812 -210.397102 
L 425.155312 -201.901697 
L 425.852812 -201.449182 
L 426.550313 -188.638586 
L 427.247813 -188.489487 
L 427.945312 -201.373573 
L 428.642812 -197.646307 
L 429.340312 -192.101778 
L 430.037812 -204.137382 
L 430.735313 -209.336002 
L 431.432813 -216.868486 
L 432.130313 -223.846474 
L 432.827812 -224.0379 
L 433.525312 -225.031472 
L 434.222812 -224.178279 
L 434.920312 -221.105365 
L 435.617813 -215.704988 
L 436.315313 -227.547097 
L 437.012812 -228.049757 
L 437.710312 -241.347623 
L 438.407812 -232.099592 
L 439.105312 -229.289862 
L 439.802813 -237.764863 
L 440.500313 -240.91619 
L 441.197812 -235.357916 
L 441.895312 -225.087001 
L 442.592812 -222.884831 
L 443.290312 -218.918085 
L 443.987813 -217.547012 
L 444.685313 -212.991539 
L 445.382812 -213.659191 
L 446.080312 -217.40458 
L 446.777812 -220.117464 
L 447.475312 -217.569184 
L 448.172813 -217.586134 
L 448.870313 -216.981287 
L 449.567813 -225.793377 
L 450.265312 -229.614993 
L 450.962812 -225.714036 
L 451.660312 -229.669129 
L 452.357812 -234.40286 
L 453.055313 -246.02914 
L 453.752813 -238.33771 
L 454.450312 -240.64158 
L 455.147812 -241.265004 
L 455.845312 -246.889544 
L 456.542812 -247.832969 
L 457.240313 -245.295494 
L 457.937813 -248.39055 
L 458.635312 -250.920207 
L 459.332812 -249.803292 
L 460.030312 -236.53129 
L 460.727812 -228.130164 
L 461.425313 -224.801437 
L 462.122813 -228.760537 
L 462.820312 -217.297914 
L 463.517812 -218.28321 
L 464.215312 -204.956803 
L 464.912812 -211.663654 
L 465.610313 -211.412218 
L 466.307813 -211.419605 
L 467.005313 -205.790271 
L 467.702812 -200.37108 
L 468.400312 -202.800873 
L 469.097812 -202.44554 
L 469.795312 -202.662014 
L 470.492813 -203.550505 
L 471.190313 -217.407313 
L 471.887812 -220.554101 
L 472.585312 -223.835929 
L 473.282812 -223.720569 
L 473.980312 -231.675773 
L 474.677813 -231.800352 
L 475.375313 -245.315838 
L 476.072812 -235.27175 
L 476.770312 -237.033369 
L 477.467812 -234.887934 
L 478.165312 -241.257841 
L 478.862813 -242.267481 
L 479.560313 -242.247034 
L 480.257812 -239.320442 
L 480.955312 -233.603006 
L 481.652812 -229.321164 
L 482.350312 -229.315991 
L 483.047813 -230.09213 
L 483.745313 -229.964398 
L 484.442813 -223.994255 
L 485.140312 -221.33691 
L 485.837812 -215.660624 
L 486.535312 -215.311621 
L 487.232812 -224.351818 
L 487.930313 -224.881691 
L 488.627813 -228.445343 
L 489.325312 -228.265207 
L 490.022812 -224.695758 
L 490.720312 -224.83098 
L 491.417812 -227.557999 
L 492.115313 -232.955509 
L 492.812813 -237.392882 
L 493.510312 -235.357907 
L 494.207812 -232.44833 
L 494.905312 -232.38178 
L 495.602812 -238.628258 
L 496.300313 -238.642525 
L 496.997813 -233.743229 
L 497.695312 -234.014541 
L 498.392812 -238.391619 
L 499.090312 -229.741155 
L 499.787812 -229.801864 
L 500.485313 -217.453469 
L 501.182813 -223.463938 
L 501.880313 -222.684772 
L 502.577812 -214.998357 
L 503.275312 -214.300712 
L 503.972812 -210.965231 
L 503.972812 -248.328433 
L 503.972812 -248.328433 
L 503.275312 -251.665388 
L 502.577812 -251.984258 
L 501.880313 -256.91367 
L 501.182813 -257.23842 
L 500.485313 -252.995172 
L 499.787812 -263.453652 
L 499.090312 -263.429474 
L 498.392812 -268.867109 
L 497.695312 -266.778561 
L 496.997813 -266.671152 
L 496.300313 -271.373922 
L 495.602812 -271.363432 
L 494.905312 -267.877884 
L 494.207812 -267.906212 
L 493.510312 -270.093074 
L 492.812813 -271.002176 
L 492.115313 -268.729882 
L 491.417812 -265.654767 
L 490.720312 -264.218199 
L 490.022812 -264.155514 
L 489.325312 -267.050944 
L 488.627813 -267.133439 
L 487.930313 -265.198215 
L 487.232812 -264.940324 
L 486.535312 -255.244456 
L 485.837812 -255.409261 
L 485.140312 -258.752009 
L 484.442813 -260.54258 
L 483.745313 -263.97658 
L 483.047813 -264.028159 
L 482.350312 -263.512822 
L 481.652812 -263.514908 
L 480.955312 -265.654465 
L 480.257812 -268.519341 
L 479.560313 -269.70609 
L 478.862813 -269.71249 
L 478.165312 -269.08704 
L 477.467812 -265.888358 
L 476.770312 -266.930236 
L 476.072812 -266.184507 
L 475.375313 -276.591327 
L 474.677813 -264.449092 
L 473.980312 -264.40073 
L 473.282812 -257.31141 
L 472.585312 -257.357837 
L 471.887812 -255.783879 
L 471.190313 -253.181074 
L 470.492813 -240.141348 
L 469.795312 -239.732383 
L 469.097812 -239.636373 
L 468.400312 -239.794005 
L 467.702812 -238.580708 
L 467.005313 -241.70627 
L 466.307813 -244.937772 
L 465.610313 -244.934311 
L 464.912812 -245.059181 
L 464.215312 -239.638598 
L 463.517812 -251.764261 
L 462.820312 -251.345296 
L 462.122813 -260.048975 
L 461.425313 -258.16172 
L 460.727812 -259.683823 
L 460.030312 -264.808376 
L 459.332812 -277.495529 
L 458.635312 -277.866103 
L 457.937813 -276.900721 
L 457.240313 -275.63802 
L 456.542812 -276.666784 
L 455.845312 -276.32317 
L 455.147812 -273.359392 
L 454.450312 -273.067137 
L 453.752813 -271.807934 
L 453.055313 -277.692464 
L 452.357812 -268.560669 
L 451.660312 -265.78468 
L 450.962812 -263.707606 
L 450.265312 -265.760192 
L 449.567813 -263.761155 
L 448.870313 -257.435636 
L 448.172813 -257.727614 
L 447.475312 -257.719631 
L 446.777812 -259.036515 
L 446.080312 -257.233825 
L 445.382812 -255.126202 
L 444.685313 -254.765436 
L 443.987813 -257.683412 
L 443.290312 -258.408975 
L 442.592812 -260.620762 
L 441.895312 -261.697318 
L 441.197812 -270.359522 
L 440.500313 -273.432482 
L 439.802813 -271.229486 
L 439.105312 -265.751196 
L 438.407812 -267.254225 
L 437.710312 -273.467337 
L 437.012812 -261.663323 
L 436.315313 -261.456404 
L 435.617813 -251.961531 
L 434.920312 -254.985749 
L 434.222812 -256.551144 
L 433.525312 -256.925914 
L 432.827812 -256.471833 
L 432.130313 -256.390838 
L 431.432813 -252.201032 
L 430.735313 -247.432867 
L 430.037812 -244.043184 
L 429.340312 -233.541101 
L 428.642812 -237.293669 
L 427.945312 -240.344739 
L 427.247813 -227.579649 
L 426.550313 -227.648239 
L 425.852812 -239.387045 
L 425.155312 -239.594438 
L 424.457812 -247.483691 
L 423.760312 -247.218344 
L 423.062813 -247.621504 
L 422.365313 -247.888199 
L 421.667812 -248.825802 
L 420.970312 -245.788559 
L 420.272812 -250.011829 
L 419.575312 -253.003031 
L 418.877813 -256.799361 
L 418.180313 -266.78767 
L 417.482812 -267.310337 
L 416.785312 -269.439637 
L 416.087812 -282.483635 
L 415.390312 -282.156911 
L 414.692813 -280.729304 
L 413.995313 -279.939296 
L 413.297813 -279.733645 
L 412.600312 -279.96559 
L 411.902812 -277.568801 
L 411.205312 -268.705724 
L 410.507812 -263.378998 
L 409.810313 -254.369969 
L 409.112813 -250.538444 
L 408.415312 -243.18916 
L 407.717812 -241.99001 
L 407.020312 -232.81018 
L 406.322812 -225.121813 
L 405.625313 -214.444851 
L 404.927813 -213.090757 
L 404.230312 -199.764431 
L 403.532812 -198.675505 
L 402.835312 -193.267326 
L 402.137812 -194.91065 
L 401.440313 -190.543113 
L 400.742813 -193.205123 
L 400.045312 -202.092399 
L 399.347812 -203.43524 
L 398.650312 -213.197802 
L 397.952812 -207.451479 
L 397.255313 -214.036891 
L 396.557813 -211.033247 
L 395.860313 -214.918089 
L 395.162812 -220.388441 
L 394.465312 -227.151224 
L 393.767812 -227.081742 
L 393.070312 -240.048839 
L 392.372813 -232.859598 
L 391.675313 -233.033165 
L 390.977812 -231.619008 
L 390.280312 -223.867281 
L 389.582812 -224.108933 
L 388.885312 -223.529296 
L 388.187813 -227.222821 
L 387.490313 -229.970431 
L 386.792812 -239.732432 
L 386.095312 -241.034686 
L 385.397812 -245.089605 
L 384.700312 -244.995607 
L 384.002813 -246.45201 
L 383.305313 -249.869082 
L 382.607812 -245.493866 
L 381.910312 -246.006921 
L 381.212812 -251.190043 
L 380.515312 -257.222348 
L 379.817813 -258.84351 
L 379.120313 -270.373596 
L 378.422813 -270.375688 
L 377.725312 -269.375973 
L 377.027812 -269.925316 
L 376.330312 -269.832281 
L 375.632812 -267.956874 
L 374.935313 -266.813342 
L 374.237813 -265.084507 
L 373.540312 -270.357537 
L 372.842812 -264.374634 
L 372.145312 -264.110006 
L 371.447812 -269.423756 
L 370.750313 -259.124344 
L 370.052813 -263.795842 
L 369.355312 -262.165896 
L 368.657812 -260.683038 
L 367.960312 -260.612594 
L 367.262812 -260.325889 
L 366.565313 -260.067649 
L 365.867813 -257.699115 
L 365.170312 -253.271015 
L 364.472812 -250.548649 
L 363.775312 -251.918565 
L 363.077812 -250.506807 
L 362.380313 -241.006481 
L 361.682813 -240.199083 
L 360.985313 -240.372649 
L 360.287812 -240.063877 
L 359.590312 -250.571087 
L 358.892812 -243.619198 
L 358.195312 -237.380121 
L 357.497813 -229.374755 
L 356.800313 -220.964404 
L 356.102812 -210.654802 
L 355.405312 -208.955973 
L 354.707812 -203.465012 
L 354.010312 -206.137559 
L 353.312813 -201.902745 
L 352.615313 -194.706809 
L 351.917812 -188.173902 
L 351.220312 -190.460845 
L 350.522812 -187.779979 
L 349.825312 -178.363341 
L 349.127813 -168.580928 
L 348.430313 -159.673769 
L 347.732812 -156.977347 
L 347.035312 -155.872077 
L 346.337812 -155.184133 
L 345.640312 -164.219059 
L 344.942813 -172.982565 
L 344.245313 -176.708236 
L 343.547813 -184.644728 
L 342.850312 -186.25785 
L 342.152812 -195.31607 
L 341.455312 -203.418492 
L 340.757812 -212.589704 
L 340.060313 -215.353017 
L 339.362813 -225.016731 
L 338.665312 -227.620402 
L 337.967812 -227.947896 
L 337.270312 -225.788438 
L 336.572812 -224.866323 
L 335.875313 -230.13571 
L 335.177813 -232.515085 
L 334.480312 -220.165268 
L 333.782812 -220.251764 
L 333.085312 -216.843945 
L 332.387812 -206.986478 
L 331.690313 -205.82296 
L 330.992813 -200.861737 
L 330.295312 -197.490647 
L 329.597812 -193.829822 
L 328.900312 -193.070197 
L 328.202812 -183.069299 
L 327.505313 -183.047706 
L 326.807813 -181.878707 
L 326.110313 -181.54667 
L 325.412812 -182.203023 
L 324.715312 -181.875423 
L 324.017812 -184.411064 
L 323.320312 -192.73197 
L 322.622813 -188.556692 
L 321.925313 -184.207661 
L 321.227812 -188.734044 
L 320.530312 -182.129116 
L 319.832812 -181.306235 
L 319.135312 -174.06384 
L 318.437813 -171.821428 
L 317.740313 -169.774927 
L 317.042812 -170.933433 
L 316.345312 -171.544172 
L 315.647812 -177.386125 
L 314.950312 -178.250304 
L 314.252813 -181.943646 
L 313.555313 -180.926041 
L 312.857813 -178.556944 
L 312.160313 -182.187319 
L 311.462812 -178.633036 
L 310.765312 -180.467289 
L 310.067813 -177.699859 
L 309.370313 -184.719001 
L 308.672813 -189.645981 
L 307.975313 -193.730543 
L 307.277812 -194.104371 
L 306.580312 -194.625112 
L 305.882812 -203.577064 
L 305.185313 -206.44181 
L 304.487813 -211.56791 
L 303.790313 -221.646443 
L 303.092812 -227.953392 
L 302.395312 -232.76953 
L 301.697812 -240.038849 
L 301.000313 -239.373583 
L 300.302813 -245.07233 
L 299.605313 -250.932499 
L 298.907813 -255.914504 
L 298.210312 -256.604949 
L 297.512812 -257.04388 
L 296.815313 -254.82313 
L 296.117813 -253.609788 
L 295.420313 -256.580714 
L 294.722813 -255.007556 
L 294.025312 -256.764159 
L 293.327812 -249.487703 
L 292.630313 -249.162313 
L 291.932813 -239.632215 
L 291.235313 -229.583166 
L 290.537813 -217.290909 
L 289.840312 -212.853394 
L 289.142812 -209.932299 
L 288.445312 -205.700556 
L 287.747813 -205.886328 
L 287.050313 -198.918751 
L 286.352813 -192.713904 
L 285.655312 -192.014316 
L 284.957812 -187.250537 
L 284.260312 -183.933023 
L 283.562813 -178.85147 
L 282.865313 -172.382123 
L 282.167813 -169.041914 
L 281.470312 -163.701649 
L 280.772812 -167.760067 
L 280.075312 -171.80092 
L 279.377813 -175.511926 
L 278.680313 -171.838017 
L 277.982813 -168.578044 
L 277.285313 -168.430332 
L 276.587812 -159.788906 
L 275.890312 -166.696423 
L 275.192813 -173.077619 
L 274.495313 -176.48185 
L 273.797813 -178.218478 
L 273.100313 -177.433199 
L 272.402812 -180.607154 
L 271.705312 -179.148239 
L 271.007812 -179.206427 
L 270.310313 -175.915411 
L 269.612813 -170.4022 
L 268.915313 -169.978825 
L 268.217812 -174.21144 
L 267.520312 -182.927655 
L 266.822812 -188.921717 
L 266.125313 -192.408254 
L 265.427813 -193.128593 
L 264.730313 -192.100806 
L 264.032812 -191.131366 
L 263.335312 -191.612711 
L 262.637812 -200.16713 
L 261.940313 -202.883308 
L 261.242813 -204.750213 
L 260.545313 -213.020347 
L 259.847813 -221.397 
L 259.150312 -222.574334 
L 258.452812 -231.615098 
L 257.755313 -235.03725 
L 257.057813 -238.083623 
L 256.360313 -235.557944 
L 255.662813 -233.70091 
L 254.965313 -232.910632 
L 254.267813 -238.009723 
L 253.570313 -230.17812 
L 252.872813 -222.678617 
L 252.175313 -224.578035 
L 251.477813 -219.555473 
L 250.780313 -223.698987 
L 250.082813 -222.524254 
L 249.385313 -219.103468 
L 248.687813 -212.212318 
L 247.990313 -211.905429 
L 247.292813 -203.814287 
L 246.595313 -195.859393 
L 245.897813 -195.901068 
L 245.200313 -197.403242 
L 244.502813 -202.667287 
L 243.805313 -202.943207 
L 243.107813 -207.932969 
L 242.410313 -214.680388 
L 241.712813 -222.584004 
L 241.015313 -219.42629 
L 240.317813 -225.390348 
L 239.620313 -221.390379 
L 238.922813 -218.841418 
L 238.225313 -214.691226 
L 237.527813 -218.13776 
L 236.830313 -219.307666 
L 236.132813 -220.95949 
L 235.435313 -225.341377 
L 234.737813 -220.906981 
L 234.040313 -213.746944 
L 233.342813 -211.052341 
L 232.645313 -207.488785 
L 231.947813 -199.571804 
L 231.250313 -192.804163 
L 230.552813 -185.656567 
L 229.855313 -184.490941 
L 229.157813 -173.252738 
L 228.460313 -171.355236 
L 227.762813 -171.849786 
L 227.065313 -167.854513 
L 226.367813 -167.247427 
L 225.670313 -172.515006 
L 224.972813 -179.228948 
L 224.275313 -182.593988 
L 223.577813 -184.244774 
L 222.880313 -191.865859 
L 222.182813 -194.57182 
L 221.485313 -195.952539 
L 220.787813 -203.643433 
L 220.090313 -209.983453 
L 219.392813 -216.545753 
L 218.695313 -221.900233 
L 217.997813 -227.636615 
L 217.300313 -224.498245 
L 216.602813 -224.50777 
L 215.905313 -229.273431 
L 215.207813 -228.404184 
L 214.510313 -226.386666 
L 213.812813 -221.65125 
L 213.115313 -215.328743 
L 212.417813 -218.785801 
L 211.720313 -218.177554 
L 211.022813 -210.723963 
L 210.325313 -210.40501 
L 209.627813 -210.531079 
L 208.930313 -203.962664 
L 208.232813 -197.040559 
L 207.535313 -187.731695 
L 206.837813 -184.78362 
L 206.140313 -185.846881 
L 205.442813 -184.175442 
L 204.745313 -188.477659 
L 204.047813 -184.935054 
L 203.350313 -178.098111 
L 202.652813 -175.728005 
L 201.955313 -178.228887 
L 201.257813 -170.435691 
L 200.560313 -162.36264 
L 199.862813 -160.397883 
L 199.165313 -152.6304 
L 198.467813 -143.136819 
L 197.770313 -144.913703 
L 197.072813 -153.131824 
L 196.375313 -163.74908 
L 195.677813 -172.298492 
L 194.980313 -178.91663 
L 194.282813 -176.292463 
L 193.585313 -178.301759 
L 192.887813 -181.446794 
L 192.190313 -188.868293 
L 191.492813 -194.074749 
L 190.795313 -190.792792 
L 190.097813 -193.90739 
L 189.400313 -196.066017 
L 188.702813 -196.273611 
L 188.005313 -206.407235 
L 187.307813 -212.429885 
L 186.610313 -214.068864 
L 185.912813 -206.598812 
L 185.215313 -206.670063 
L 184.517813 -200.782435 
L 183.820312 -197.053714 
L 183.122813 -195.409044 
L 182.425313 -188.690511 
L 181.727812 -186.698502 
L 181.030313 -183.051695 
L 180.332813 -174.577612 
L 179.635312 -178.613964 
L 178.937813 -182.39916 
L 178.240313 -188.926805 
L 177.542813 -198.523253 
L 176.845313 -195.641155 
L 176.147813 -188.615101 
L 175.450313 -188.568772 
L 174.752813 -191.838787 
L 174.055313 -181.770311 
L 173.357813 -185.94377 
L 172.660313 -184.654838 
L 171.962813 -187.514713 
L 171.265313 -182.874622 
L 170.567813 -192.619725 
L 169.870313 -199.645199 
L 169.172813 -208.054533 
L 168.475313 -214.337122 
L 167.777813 -215.331685 
L 167.080313 -214.722848 
L 166.382812 -214.799956 
L 165.685313 -217.366503 
L 164.987813 -224.579185 
L 164.290312 -228.50902 
L 163.592813 -223.742394 
L 162.895313 -233.824874 
L 162.197812 -235.548042 
L 161.500313 -242.304557 
L 160.802813 -248.222188 
L 160.105313 -253.576102 
L 159.407813 -246.132552 
L 158.710313 -238.420756 
L 158.012813 -233.050146 
L 157.315313 -223.580171 
L 156.617813 -216.718984 
L 155.920313 -217.253541 
L 155.222813 -210.050578 
L 154.525313 -204.787665 
L 153.827813 -201.972794 
L 153.130313 -194.810198 
L 152.432813 -200.755715 
L 151.735313 -193.5681 
L 151.037813 -188.008945 
L 150.340313 -181.927614 
L 149.642813 -179.331789 
L 148.945312 -184.858989 
L 148.247813 -189.129245 
L 147.550313 -193.020101 
L 146.852812 -194.255168 
L 146.155313 -197.160263 
L 145.457813 -194.718878 
L 144.760312 -189.138465 
L 144.062813 -187.752509 
L 143.365313 -185.360344 
L 142.667813 -185.6888 
L 141.970313 -182.53686 
L 141.272813 -176.956891 
L 140.575313 -176.119489 
L 139.877813 -170.792552 
L 139.180313 -167.216823 
L 138.482813 -162.380611 
L 137.785313 -154.276454 
L 137.087813 -148.157507 
L 136.390313 -140.824489 
L 135.692813 -141.169458 
L 134.995313 -138.261817 
L 134.297813 -143.088123 
L 133.600313 -141.717133 
L 132.902813 -145.862459 
L 132.205313 -148.8177 
L 131.507812 -149.970366 
L 130.810313 -154.451413 
L 130.112813 -156.857645 
L 129.415312 -161.084044 
L 128.717813 -169.721142 
L 128.020313 -176.502731 
L 127.322812 -181.85334 
L 126.625313 -182.984941 
L 125.927813 -181.221159 
L 125.230313 -181.862767 
L 124.532813 -183.307401 
L 123.835313 -180.05768 
L 123.137813 -177.188196 
L 122.440313 -174.170973 
L 121.742813 -169.378524 
L 121.045313 -165.772617 
L 120.347813 -161.351575 
L 119.650313 -159.887196 
L 118.952813 -156.583298 
L 118.255313 -151.84732 
L 117.557813 -144.214568 
L 116.860313 -135.655023 
L 116.162813 -130.871956 
L 115.465313 -130.507097 
L 114.767813 -131.213895 
L 114.070312 -137.975064 
L 113.372813 -137.685794 
L 112.675313 -141.540454 
L 111.977813 -139.748013 
L 111.280313 -142.619235 
L 110.582813 -145.422048 
L 109.885313 -147.219788 
L 109.187813 -151.926685 
L 108.490313 -150.378601 
L 107.792813 -150.063822 
L 107.095313 -152.150915 
L 106.397813 -157.481192 
L 105.700313 -159.892852 
L 105.002813 -163.451357 
L 104.305313 -169.555708 
L 103.607813 -174.639002 
L 102.910313 -172.681961 
L 102.212813 -175.016174 
L 101.515313 -178.730802 
L 100.817813 -184.559703 
L 100.120313 -187.362661 
L 99.422813 -190.976467 
L 98.725313 -195.675182 
L 98.027813 -195.569644 
L 97.330313 -199.604021 
L 96.632812 -200.447125 
L 95.935313 -198.855102 
L 95.237813 -194.210935 
L 94.540313 -192.302684 
L 93.842813 -191.174754 
L 93.145313 -191.009923 
L 92.447813 -187.656548 
L 91.750313 -184.769373 
L 91.052813 -181.213066 
L 90.355313 -180.983362 
L 89.657813 -171.905185 
L 88.960313 -173.276324 
L 88.262813 -164.602975 
L 87.565313 -159.713717 
L 86.867813 -158.820818 
L 86.170313 -165.116641 
L 85.472813 -167.081323 
L 84.775313 -164.451527 
L 84.077813 -169.538934 
L 83.380313 -169.627348 
L 82.682813 -170.696422 
L 81.985313 -162.508182 
L 81.287813 -160.158185 
L 80.590313 -161.55774 
L 79.892813 -166.762365 
L 79.195313 -168.762097 
L 78.497813 -175.12714 
L 77.800313 -177.683959 
L 77.102813 -184.493251 
L 76.405313 -188.256916 
L 75.707813 -188.095798 
L 75.010313 -179.197929 
L 74.312813 -175.055068 
L 73.615313 -177.567084 
L 72.917813 -173.680595 
L 72.220313 -179.130726 
L 71.522813 -176.800927 
L 70.825313 -178.530703 
L 70.127813 -176.881778 
L 69.430313 -177.938779 
z
" style="stroke: #b38665; stroke-opacity: 0.3"/>
    </defs>
    <g clip-path="url(#p368f7cba01)">
     <use xlink:href="#mabc02dce1e" x="0" y="295.982844" style="fill: #b38665; fill-opacity: 0.3; stroke: #b38665; stroke-opacity: 0.3"/>
    </g>
   </g>
   <g id="matplotlib.axis_1">
    <g id="xtick_1">
     <g id="line2d_1">
      <defs>
       <path id="m97b0f21a96" d="M 0 0 
L 0 3.5 
" style="stroke: #000000; stroke-width: 0.8"/>
      </defs>
      <g>
       <use xlink:href="#m97b0f21a96" x="58.270313" y="245.77425" style="stroke: #000000; stroke-width: 0.8"/>
      </g>
     </g>
     <g id="text_1">
      <!-- 0 -->
      <g transform="translate(53.821563 264.22675) scale(0.16 -0.16)">
       <defs>
        <path id="ArialMT-30" d="M 266 2259 
Q 266 3072 433 3567 
Q 600 4063 929 4331 
Q 1259 4600 1759 4600 
Q 2128 4600 2406 4451 
Q 2684 4303 2865 4023 
Q 3047 3744 3150 3342 
Q 3253 2941 3253 2259 
Q 3253 1453 3087 958 
Q 2922 463 2592 192 
Q 2263 -78 1759 -78 
Q 1097 -78 719 397 
Q 266 969 266 2259 
z
M 844 2259 
Q 844 1131 1108 757 
Q 1372 384 1759 384 
Q 2147 384 2411 759 
Q 2675 1134 2675 2259 
Q 2675 3391 2411 3762 
Q 2147 4134 1753 4134 
Q 1366 4134 1134 3806 
Q 844 3388 844 2259 
z
" transform="scale(0.015625)"/>
       </defs>
       <use xlink:href="#ArialMT-30"/>
      </g>
     </g>
    </g>
    <g id="xtick_2">
     <g id="line2d_2">
      <g>
       <use xlink:href="#m97b0f21a96" x="147.550313" y="245.77425" style="stroke: #000000; stroke-width: 0.8"/>
      </g>
     </g>
     <g id="text_2">
      <!-- 128 -->
      <g transform="translate(134.204063 264.22675) scale(0.16 -0.16)">
       <defs>
        <path id="ArialMT-31" d="M 2384 0 
L 1822 0 
L 1822 3584 
Q 1619 3391 1289 3197 
Q 959 3003 697 2906 
L 697 3450 
Q 1169 3672 1522 3987 
Q 1875 4303 2022 4600 
L 2384 4600 
L 2384 0 
z
" transform="scale(0.015625)"/>
        <path id="ArialMT-32" d="M 3222 541 
L 3222 0 
L 194 0 
Q 188 203 259 391 
Q 375 700 629 1000 
Q 884 1300 1366 1694 
Q 2113 2306 2375 2664 
Q 2638 3022 2638 3341 
Q 2638 3675 2398 3904 
Q 2159 4134 1775 4134 
Q 1369 4134 1125 3890 
Q 881 3647 878 3216 
L 300 3275 
Q 359 3922 746 4261 
Q 1134 4600 1788 4600 
Q 2447 4600 2831 4234 
Q 3216 3869 3216 3328 
Q 3216 3053 3103 2787 
Q 2991 2522 2730 2228 
Q 2469 1934 1863 1422 
Q 1356 997 1212 845 
Q 1069 694 975 541 
L 3222 541 
z
" transform="scale(0.015625)"/>
        <path id="ArialMT-38" d="M 1131 2484 
Q 781 2613 612 2850 
Q 444 3088 444 3419 
Q 444 3919 803 4259 
Q 1163 4600 1759 4600 
Q 2359 4600 2725 4251 
Q 3091 3903 3091 3403 
Q 3091 3084 2923 2848 
Q 2756 2613 2416 2484 
Q 2838 2347 3058 2040 
Q 3278 1734 3278 1309 
Q 3278 722 2862 322 
Q 2447 -78 1769 -78 
Q 1091 -78 675 323 
Q 259 725 259 1325 
Q 259 1772 486 2073 
Q 713 2375 1131 2484 
z
M 1019 3438 
Q 1019 3113 1228 2906 
Q 1438 2700 1772 2700 
Q 2097 2700 2305 2904 
Q 2513 3109 2513 3406 
Q 2513 3716 2298 3927 
Q 2084 4138 1766 4138 
Q 1444 4138 1231 3931 
Q 1019 3725 1019 3438 
z
M 838 1322 
Q 838 1081 952 856 
Q 1066 631 1291 507 
Q 1516 384 1775 384 
Q 2178 384 2440 643 
Q 2703 903 2703 1303 
Q 2703 1709 2433 1975 
Q 2163 2241 1756 2241 
Q 1359 2241 1098 1978 
Q 838 1716 838 1322 
z
" transform="scale(0.015625)"/>
       </defs>
       <use xlink:href="#ArialMT-31"/>
       <use xlink:href="#ArialMT-32" x="55.615234"/>
       <use xlink:href="#ArialMT-38" x="111.230469"/>
      </g>
     </g>
    </g>
    <g id="xtick_3">
     <g id="line2d_3">
      <g>
       <use xlink:href="#m97b0f21a96" x="236.830313" y="245.77425" style="stroke: #000000; stroke-width: 0.8"/>
      </g>
     </g>
     <g id="text_3">
      <!-- 256 -->
      <g transform="translate(223.484063 264.22675) scale(0.16 -0.16)">
       <defs>
        <path id="ArialMT-35" d="M 266 1200 
L 856 1250 
Q 922 819 1161 601 
Q 1400 384 1738 384 
Q 2144 384 2425 690 
Q 2706 997 2706 1503 
Q 2706 1984 2436 2262 
Q 2166 2541 1728 2541 
Q 1456 2541 1237 2417 
Q 1019 2294 894 2097 
L 366 2166 
L 809 4519 
L 3088 4519 
L 3088 3981 
L 1259 3981 
L 1013 2750 
Q 1425 3038 1878 3038 
Q 2478 3038 2890 2622 
Q 3303 2206 3303 1553 
Q 3303 931 2941 478 
Q 2500 -78 1738 -78 
Q 1113 -78 717 272 
Q 322 622 266 1200 
z
" transform="scale(0.015625)"/>
        <path id="ArialMT-36" d="M 3184 3459 
L 2625 3416 
Q 2550 3747 2413 3897 
Q 2184 4138 1850 4138 
Q 1581 4138 1378 3988 
Q 1113 3794 959 3422 
Q 806 3050 800 2363 
Q 1003 2672 1297 2822 
Q 1591 2972 1913 2972 
Q 2475 2972 2870 2558 
Q 3266 2144 3266 1488 
Q 3266 1056 3080 686 
Q 2894 316 2569 119 
Q 2244 -78 1831 -78 
Q 1128 -78 684 439 
Q 241 956 241 2144 
Q 241 3472 731 4075 
Q 1159 4600 1884 4600 
Q 2425 4600 2770 4297 
Q 3116 3994 3184 3459 
z
M 888 1484 
Q 888 1194 1011 928 
Q 1134 663 1356 523 
Q 1578 384 1822 384 
Q 2178 384 2434 671 
Q 2691 959 2691 1453 
Q 2691 1928 2437 2201 
Q 2184 2475 1800 2475 
Q 1419 2475 1153 2201 
Q 888 1928 888 1484 
z
" transform="scale(0.015625)"/>
       </defs>
       <use xlink:href="#ArialMT-32"/>
       <use xlink:href="#ArialMT-35" x="55.615234"/>
       <use xlink:href="#ArialMT-36" x="111.230469"/>
      </g>
     </g>
    </g>
    <g id="xtick_4">
     <g id="line2d_4">
      <g>
       <use xlink:href="#m97b0f21a96" x="326.110313" y="245.77425" style="stroke: #000000; stroke-width: 0.8"/>
      </g>
     </g>
     <g id="text_4">
      <!-- 384 -->
      <g transform="translate(312.764063 264.22675) scale(0.16 -0.16)">
       <defs>
        <path id="ArialMT-33" d="M 269 1209 
L 831 1284 
Q 928 806 1161 595 
Q 1394 384 1728 384 
Q 2125 384 2398 659 
Q 2672 934 2672 1341 
Q 2672 1728 2419 1979 
Q 2166 2231 1775 2231 
Q 1616 2231 1378 2169 
L 1441 2663 
Q 1497 2656 1531 2656 
Q 1891 2656 2178 2843 
Q 2466 3031 2466 3422 
Q 2466 3731 2256 3934 
Q 2047 4138 1716 4138 
Q 1388 4138 1169 3931 
Q 950 3725 888 3313 
L 325 3413 
Q 428 3978 793 4289 
Q 1159 4600 1703 4600 
Q 2078 4600 2393 4439 
Q 2709 4278 2876 4000 
Q 3044 3722 3044 3409 
Q 3044 3113 2884 2869 
Q 2725 2625 2413 2481 
Q 2819 2388 3044 2092 
Q 3269 1797 3269 1353 
Q 3269 753 2831 336 
Q 2394 -81 1725 -81 
Q 1122 -81 723 278 
Q 325 638 269 1209 
z
" transform="scale(0.015625)"/>
        <path id="ArialMT-34" d="M 2069 0 
L 2069 1097 
L 81 1097 
L 81 1613 
L 2172 4581 
L 2631 4581 
L 2631 1613 
L 3250 1613 
L 3250 1097 
L 2631 1097 
L 2631 0 
L 2069 0 
z
M 2069 1613 
L 2069 3678 
L 634 1613 
L 2069 1613 
z
" transform="scale(0.015625)"/>
       </defs>
       <use xlink:href="#ArialMT-33"/>
       <use xlink:href="#ArialMT-38" x="55.615234"/>
       <use xlink:href="#ArialMT-34" x="111.230469"/>
      </g>
     </g>
    </g>
    <g id="xtick_5">
     <g id="line2d_5">
      <g>
       <use xlink:href="#m97b0f21a96" x="415.390312" y="245.77425" style="stroke: #000000; stroke-width: 0.8"/>
      </g>
     </g>
     <g id="text_5">
      <!-- 512 -->
      <g transform="translate(402.044062 264.22675) scale(0.16 -0.16)">
       <use xlink:href="#ArialMT-35"/>
       <use xlink:href="#ArialMT-31" x="55.615234"/>
       <use xlink:href="#ArialMT-32" x="111.230469"/>
      </g>
     </g>
    </g>
    <g id="xtick_6">
     <g id="line2d_6">
      <g>
       <use xlink:href="#m97b0f21a96" x="504.670312" y="245.77425" style="stroke: #000000; stroke-width: 0.8"/>
      </g>
     </g>
     <g id="text_6">
      <!-- 640 -->
      <g transform="translate(491.324062 264.22675) scale(0.16 -0.16)">
       <use xlink:href="#ArialMT-36"/>
       <use xlink:href="#ArialMT-34" x="55.615234"/>
       <use xlink:href="#ArialMT-30" x="111.230469"/>
      </g>
     </g>
    </g>
    <g id="text_7">
     <!-- Trial -->
     <g transform="translate(263.356484 285.006594) scale(0.19 -0.19)">
      <defs>
       <path id="ArialMT-54" d="M 1659 0 
L 1659 4041 
L 150 4041 
L 150 4581 
L 3781 4581 
L 3781 4041 
L 2266 4041 
L 2266 0 
L 1659 0 
z
" transform="scale(0.015625)"/>
       <path id="ArialMT-72" d="M 416 0 
L 416 3319 
L 922 3319 
L 922 2816 
Q 1116 3169 1280 3281 
Q 1444 3394 1641 3394 
Q 1925 3394 2219 3213 
L 2025 2691 
Q 1819 2813 1613 2813 
Q 1428 2813 1281 2702 
Q 1134 2591 1072 2394 
Q 978 2094 978 1738 
L 978 0 
L 416 0 
z
" transform="scale(0.015625)"/>
       <path id="ArialMT-69" d="M 425 3934 
L 425 4581 
L 988 4581 
L 988 3934 
L 425 3934 
z
M 425 0 
L 425 3319 
L 988 3319 
L 988 0 
L 425 0 
z
" transform="scale(0.015625)"/>
       <path id="ArialMT-61" d="M 2588 409 
Q 2275 144 1986 34 
Q 1697 -75 1366 -75 
Q 819 -75 525 192 
Q 231 459 231 875 
Q 231 1119 342 1320 
Q 453 1522 633 1644 
Q 813 1766 1038 1828 
Q 1203 1872 1538 1913 
Q 2219 1994 2541 2106 
Q 2544 2222 2544 2253 
Q 2544 2597 2384 2738 
Q 2169 2928 1744 2928 
Q 1347 2928 1158 2789 
Q 969 2650 878 2297 
L 328 2372 
Q 403 2725 575 2942 
Q 747 3159 1072 3276 
Q 1397 3394 1825 3394 
Q 2250 3394 2515 3294 
Q 2781 3194 2906 3042 
Q 3031 2891 3081 2659 
Q 3109 2516 3109 2141 
L 3109 1391 
Q 3109 606 3145 398 
Q 3181 191 3288 0 
L 2700 0 
Q 2613 175 2588 409 
z
M 2541 1666 
Q 2234 1541 1622 1453 
Q 1275 1403 1131 1340 
Q 988 1278 909 1158 
Q 831 1038 831 891 
Q 831 666 1001 516 
Q 1172 366 1500 366 
Q 1825 366 2078 508 
Q 2331 650 2450 897 
Q 2541 1088 2541 1459 
L 2541 1666 
z
" transform="scale(0.015625)"/>
       <path id="ArialMT-6c" d="M 409 0 
L 409 4581 
L 972 4581 
L 972 0 
L 409 0 
z
" transform="scale(0.015625)"/>
      </defs>
      <use xlink:href="#ArialMT-54"/>
      <use xlink:href="#ArialMT-72" x="57.333984"/>
      <use xlink:href="#ArialMT-69" x="90.634766"/>
      <use xlink:href="#ArialMT-61" x="112.851562"/>
      <use xlink:href="#ArialMT-6c" x="168.466797"/>
     </g>
    </g>
   </g>
   <g id="matplotlib.axis_2">
    <g id="ytick_1">
     <g id="line2d_7">
      <defs>
       <path id="m3706f42596" d="M 0 0 
L -3.5 0 
" style="stroke: #000000; stroke-width: 0.8"/>
      </defs>
      <g>
       <use xlink:href="#m3706f42596" x="58.270313" y="245.77425" style="stroke: #000000; stroke-width: 0.8"/>
      </g>
     </g>
     <g id="text_8">
      <!-- 0.0 -->
      <g transform="translate(29.030313 251.5005) scale(0.16 -0.16)">
       <defs>
        <path id="ArialMT-2e" d="M 581 0 
L 581 641 
L 1222 641 
L 1222 0 
L 581 0 
z
" transform="scale(0.015625)"/>
       </defs>
       <use xlink:href="#ArialMT-30"/>
       <use xlink:href="#ArialMT-2e" x="55.615234"/>
       <use xlink:href="#ArialMT-30" x="83.398438"/>
      </g>
     </g>
    </g>
    <g id="ytick_2">
     <g id="line2d_8">
      <g>
       <use xlink:href="#m3706f42596" x="58.270313" y="199.20465" style="stroke: #000000; stroke-width: 0.8"/>
      </g>
     </g>
     <g id="text_9">
      <!-- 0.2 -->
      <g transform="translate(29.030313 204.9309) scale(0.16 -0.16)">
       <use xlink:href="#ArialMT-30"/>
       <use xlink:href="#ArialMT-2e" x="55.615234"/>
       <use xlink:href="#ArialMT-32" x="83.398438"/>
      </g>
     </g>
    </g>
    <g id="ytick_3">
     <g id="line2d_9">
      <g>
       <use xlink:href="#m3706f42596" x="58.270313" y="152.63505" style="stroke: #000000; stroke-width: 0.8"/>
      </g>
     </g>
     <g id="text_10">
      <!-- 0.4 -->
      <g transform="translate(29.030313 158.3613) scale(0.16 -0.16)">
       <use xlink:href="#ArialMT-30"/>
       <use xlink:href="#ArialMT-2e" x="55.615234"/>
       <use xlink:href="#ArialMT-34" x="83.398438"/>
      </g>
     </g>
    </g>
    <g id="ytick_4">
     <g id="line2d_10">
      <g>
       <use xlink:href="#m3706f42596" x="58.270313" y="106.06545" style="stroke: #000000; stroke-width: 0.8"/>
      </g>
     </g>
     <g id="text_11">
      <!-- 0.6 -->
      <g transform="translate(29.030313 111.7917) scale(0.16 -0.16)">
       <use xlink:href="#ArialMT-30"/>
       <use xlink:href="#ArialMT-2e" x="55.615234"/>
       <use xlink:href="#ArialMT-36" x="83.398438"/>
      </g>
     </g>
    </g>
    <g id="ytick_5">
     <g id="line2d_11">
      <g>
       <use xlink:href="#m3706f42596" x="58.270313" y="59.49585" style="stroke: #000000; stroke-width: 0.8"/>
      </g>
     </g>
     <g id="text_12">
      <!-- 0.8 -->
      <g transform="translate(29.030313 65.2221) scale(0.16 -0.16)">
       <use xlink:href="#ArialMT-30"/>
       <use xlink:href="#ArialMT-2e" x="55.615234"/>
       <use xlink:href="#ArialMT-38" x="83.398438"/>
      </g>
     </g>
    </g>
    <g id="ytick_6">
     <g id="line2d_12">
      <g>
       <use xlink:href="#m3706f42596" x="58.270313" y="12.92625" style="stroke: #000000; stroke-width: 0.8"/>
      </g>
     </g>
     <g id="text_13">
      <!-- 1.0 -->
      <g transform="translate(29.030313 18.6525) scale(0.16 -0.16)">
       <use xlink:href="#ArialMT-31"/>
       <use xlink:href="#ArialMT-2e" x="55.615234"/>
       <use xlink:href="#ArialMT-30" x="83.398438"/>
      </g>
     </g>
    </g>
    <g id="text_14">
     <!-- Learning performance -->
     <g transform="translate(21.031406 222.286969) rotate(-90) scale(0.19 -0.19)">
      <defs>
       <path id="ArialMT-4c" d="M 469 0 
L 469 4581 
L 1075 4581 
L 1075 541 
L 3331 541 
L 3331 0 
L 469 0 
z
" transform="scale(0.015625)"/>
       <path id="ArialMT-65" d="M 2694 1069 
L 3275 997 
Q 3138 488 2766 206 
Q 2394 -75 1816 -75 
Q 1088 -75 661 373 
Q 234 822 234 1631 
Q 234 2469 665 2931 
Q 1097 3394 1784 3394 
Q 2450 3394 2872 2941 
Q 3294 2488 3294 1666 
Q 3294 1616 3291 1516 
L 816 1516 
Q 847 969 1125 678 
Q 1403 388 1819 388 
Q 2128 388 2347 550 
Q 2566 713 2694 1069 
z
M 847 1978 
L 2700 1978 
Q 2663 2397 2488 2606 
Q 2219 2931 1791 2931 
Q 1403 2931 1139 2672 
Q 875 2413 847 1978 
z
" transform="scale(0.015625)"/>
       <path id="ArialMT-6e" d="M 422 0 
L 422 3319 
L 928 3319 
L 928 2847 
Q 1294 3394 1984 3394 
Q 2284 3394 2536 3286 
Q 2788 3178 2913 3003 
Q 3038 2828 3088 2588 
Q 3119 2431 3119 2041 
L 3119 0 
L 2556 0 
L 2556 2019 
Q 2556 2363 2490 2533 
Q 2425 2703 2258 2804 
Q 2091 2906 1866 2906 
Q 1506 2906 1245 2678 
Q 984 2450 984 1813 
L 984 0 
L 422 0 
z
" transform="scale(0.015625)"/>
       <path id="ArialMT-67" d="M 319 -275 
L 866 -356 
Q 900 -609 1056 -725 
Q 1266 -881 1628 -881 
Q 2019 -881 2231 -725 
Q 2444 -569 2519 -288 
Q 2563 -116 2559 434 
Q 2191 0 1641 0 
Q 956 0 581 494 
Q 206 988 206 1678 
Q 206 2153 378 2554 
Q 550 2956 876 3175 
Q 1203 3394 1644 3394 
Q 2231 3394 2613 2919 
L 2613 3319 
L 3131 3319 
L 3131 450 
Q 3131 -325 2973 -648 
Q 2816 -972 2473 -1159 
Q 2131 -1347 1631 -1347 
Q 1038 -1347 672 -1080 
Q 306 -813 319 -275 
z
M 784 1719 
Q 784 1066 1043 766 
Q 1303 466 1694 466 
Q 2081 466 2343 764 
Q 2606 1063 2606 1700 
Q 2606 2309 2336 2618 
Q 2066 2928 1684 2928 
Q 1309 2928 1046 2623 
Q 784 2319 784 1719 
z
" transform="scale(0.015625)"/>
       <path id="ArialMT-20" transform="scale(0.015625)"/>
       <path id="ArialMT-70" d="M 422 -1272 
L 422 3319 
L 934 3319 
L 934 2888 
Q 1116 3141 1344 3267 
Q 1572 3394 1897 3394 
Q 2322 3394 2647 3175 
Q 2972 2956 3137 2557 
Q 3303 2159 3303 1684 
Q 3303 1175 3120 767 
Q 2938 359 2589 142 
Q 2241 -75 1856 -75 
Q 1575 -75 1351 44 
Q 1128 163 984 344 
L 984 -1272 
L 422 -1272 
z
M 931 1641 
Q 931 1000 1190 694 
Q 1450 388 1819 388 
Q 2194 388 2461 705 
Q 2728 1022 2728 1688 
Q 2728 2322 2467 2637 
Q 2206 2953 1844 2953 
Q 1484 2953 1207 2617 
Q 931 2281 931 1641 
z
" transform="scale(0.015625)"/>
       <path id="ArialMT-66" d="M 556 0 
L 556 2881 
L 59 2881 
L 59 3319 
L 556 3319 
L 556 3672 
Q 556 4006 616 4169 
Q 697 4388 901 4523 
Q 1106 4659 1475 4659 
Q 1713 4659 2000 4603 
L 1916 4113 
Q 1741 4144 1584 4144 
Q 1328 4144 1222 4034 
Q 1116 3925 1116 3625 
L 1116 3319 
L 1763 3319 
L 1763 2881 
L 1116 2881 
L 1116 0 
L 556 0 
z
" transform="scale(0.015625)"/>
       <path id="ArialMT-6f" d="M 213 1659 
Q 213 2581 725 3025 
Q 1153 3394 1769 3394 
Q 2453 3394 2887 2945 
Q 3322 2497 3322 1706 
Q 3322 1066 3130 698 
Q 2938 331 2570 128 
Q 2203 -75 1769 -75 
Q 1072 -75 642 372 
Q 213 819 213 1659 
z
M 791 1659 
Q 791 1022 1069 705 
Q 1347 388 1769 388 
Q 2188 388 2466 706 
Q 2744 1025 2744 1678 
Q 2744 2294 2464 2611 
Q 2184 2928 1769 2928 
Q 1347 2928 1069 2612 
Q 791 2297 791 1659 
z
" transform="scale(0.015625)"/>
       <path id="ArialMT-6d" d="M 422 0 
L 422 3319 
L 925 3319 
L 925 2853 
Q 1081 3097 1340 3245 
Q 1600 3394 1931 3394 
Q 2300 3394 2536 3241 
Q 2772 3088 2869 2813 
Q 3263 3394 3894 3394 
Q 4388 3394 4653 3120 
Q 4919 2847 4919 2278 
L 4919 0 
L 4359 0 
L 4359 2091 
Q 4359 2428 4304 2576 
Q 4250 2725 4106 2815 
Q 3963 2906 3769 2906 
Q 3419 2906 3187 2673 
Q 2956 2441 2956 1928 
L 2956 0 
L 2394 0 
L 2394 2156 
Q 2394 2531 2256 2718 
Q 2119 2906 1806 2906 
Q 1569 2906 1367 2781 
Q 1166 2656 1075 2415 
Q 984 2175 984 1722 
L 984 0 
L 422 0 
z
" transform="scale(0.015625)"/>
       <path id="ArialMT-63" d="M 2588 1216 
L 3141 1144 
Q 3050 572 2676 248 
Q 2303 -75 1759 -75 
Q 1078 -75 664 370 
Q 250 816 250 1647 
Q 250 2184 428 2587 
Q 606 2991 970 3192 
Q 1334 3394 1763 3394 
Q 2303 3394 2647 3120 
Q 2991 2847 3088 2344 
L 2541 2259 
Q 2463 2594 2264 2762 
Q 2066 2931 1784 2931 
Q 1359 2931 1093 2626 
Q 828 2322 828 1663 
Q 828 994 1084 691 
Q 1341 388 1753 388 
Q 2084 388 2306 591 
Q 2528 794 2588 1216 
z
" transform="scale(0.015625)"/>
      </defs>
      <use xlink:href="#ArialMT-4c"/>
      <use xlink:href="#ArialMT-65" x="55.615234"/>
      <use xlink:href="#ArialMT-61" x="111.230469"/>
      <use xlink:href="#ArialMT-72" x="166.845703"/>
      <use xlink:href="#ArialMT-6e" x="200.146484"/>
      <use xlink:href="#ArialMT-69" x="255.761719"/>
      <use xlink:href="#ArialMT-6e" x="277.978516"/>
      <use xlink:href="#ArialMT-67" x="333.59375"/>
      <use xlink:href="#ArialMT-20" x="389.208984"/>
      <use xlink:href="#ArialMT-70" x="416.992188"/>
      <use xlink:href="#ArialMT-65" x="472.607422"/>
      <use xlink:href="#ArialMT-72" x="528.222656"/>
      <use xlink:href="#ArialMT-66" x="561.523438"/>
      <use xlink:href="#ArialMT-6f" x="589.306641"/>
      <use xlink:href="#ArialMT-72" x="644.921875"/>
      <use xlink:href="#ArialMT-6d" x="678.222656"/>
      <use xlink:href="#ArialMT-61" x="761.523438"/>
      <use xlink:href="#ArialMT-6e" x="817.138672"/>
      <use xlink:href="#ArialMT-63" x="872.753906"/>
      <use xlink:href="#ArialMT-65" x="922.753906"/>
     </g>
    </g>
   </g>
   <g id="line2d_13">
    <path d="M 69.430313 173.00925 
L 70.825313 173.00925 
L 72.220313 202.11525 
L 72.917813 187.56225 
L 74.312813 187.56225 
L 75.010313 173.00925 
L 76.405313 173.00925 
L 77.102813 187.56225 
L 77.800313 187.56225 
L 78.497813 173.00925 
L 79.195313 187.56225 
L 79.892813 187.56225 
L 80.590313 202.11525 
L 81.287813 187.56225 
L 83.380313 187.56225 
L 84.077813 202.11525 
L 84.775313 202.11525 
L 85.472813 187.56225 
L 87.565313 187.56225 
L 88.960313 158.45625 
L 89.657813 173.00925 
L 91.750313 173.00925 
L 92.447813 187.56225 
L 93.145313 173.00925 
L 95.935313 173.00925 
L 97.330313 202.11525 
L 98.725313 202.11525 
L 100.120313 231.22125 
L 101.515313 231.22125 
L 103.607813 187.56225 
L 105.002813 187.56225 
L 105.700313 173.00925 
L 109.187813 173.00925 
L 110.582813 143.90325 
L 111.977813 143.90325 
L 112.675313 129.35025 
L 114.767813 173.00925 
L 117.557813 173.00925 
L 118.255313 158.45625 
L 119.650313 158.45625 
L 120.347813 143.90325 
L 121.742813 173.00925 
L 122.440313 158.45625 
L 125.230313 158.45625 
L 125.927813 143.90325 
L 126.625313 158.45625 
L 127.322812 158.45625 
L 128.020313 173.00925 
L 128.717813 158.45625 
L 129.415312 173.00925 
L 130.112813 158.45625 
L 130.810313 158.45625 
L 131.507812 173.00925 
L 132.902813 173.00925 
L 133.600313 187.56225 
L 134.297813 187.56225 
L 134.995313 202.11525 
L 136.390313 173.00925 
L 137.087813 187.56225 
L 137.785313 173.00925 
L 138.482813 173.00925 
L 139.180313 158.45625 
L 139.877813 173.00925 
L 140.575313 158.45625 
L 141.272813 158.45625 
L 141.970313 143.90325 
L 143.365313 143.90325 
L 145.457813 100.24425 
L 146.852812 100.24425 
L 147.550313 114.79725 
L 148.247813 100.24425 
L 148.945312 100.24425 
L 149.642813 85.69125 
L 151.735313 85.69125 
L 152.432813 100.24425 
L 153.130313 100.24425 
L 154.525313 71.13825 
L 156.617813 71.13825 
L 157.315313 56.58525 
L 158.012813 71.13825 
L 158.710313 56.58525 
L 162.895313 56.58525 
L 163.592813 42.03225 
L 164.290312 56.58525 
L 167.080313 56.58525 
L 167.777813 71.13825 
L 169.172813 71.13825 
L 170.567813 100.24425 
L 171.265313 100.24425 
L 172.660313 129.35025 
L 173.357813 114.79725 
L 174.752813 143.90325 
L 175.450313 129.35025 
L 176.845313 129.35025 
L 178.240313 158.45625 
L 178.937813 143.90325 
L 179.635312 158.45625 
L 180.332813 143.90325 
L 181.030313 143.90325 
L 181.727812 129.35025 
L 184.517813 129.35025 
L 185.912813 100.24425 
L 186.610313 100.24425 
L 188.005313 129.35025 
L 188.702813 129.35025 
L 189.400313 114.79725 
L 190.097813 129.35025 
L 191.492813 129.35025 
L 192.190313 114.79725 
L 193.585313 143.90325 
L 194.282813 129.35025 
L 194.980313 129.35025 
L 195.677813 143.90325 
L 196.375313 143.90325 
L 197.072813 158.45625 
L 198.467813 158.45625 
L 199.165313 143.90325 
L 200.560313 143.90325 
L 201.257813 129.35025 
L 201.955313 129.35025 
L 202.652813 143.90325 
L 203.350313 143.90325 
L 204.047813 129.35025 
L 205.442813 129.35025 
L 206.140313 114.79725 
L 206.837813 114.79725 
L 207.535313 129.35025 
L 208.232813 114.79725 
L 208.930313 129.35025 
L 210.325313 129.35025 
L 211.022813 114.79725 
L 215.905313 114.79725 
L 216.602813 129.35025 
L 217.300313 129.35025 
L 217.997813 114.79725 
L 218.695313 114.79725 
L 219.392813 129.35025 
L 220.090313 114.79725 
L 221.485313 114.79725 
L 222.182813 129.35025 
L 222.880313 129.35025 
L 223.577813 143.90325 
L 224.275313 129.35025 
L 224.972813 129.35025 
L 226.367813 158.45625 
L 227.065313 143.90325 
L 228.460313 143.90325 
L 229.157813 158.45625 
L 229.855313 158.45625 
L 230.552813 143.90325 
L 231.250313 158.45625 
L 231.947813 143.90325 
L 232.645313 143.90325 
L 233.342813 129.35025 
L 234.040313 129.35025 
L 234.737813 114.79725 
L 236.830313 114.79725 
L 237.527813 100.24425 
L 238.922813 100.24425 
L 239.620313 114.79725 
L 242.410313 114.79725 
L 243.107813 129.35025 
L 246.595313 129.35025 
L 247.292813 114.79725 
L 248.687813 114.79725 
L 249.385313 129.35025 
L 252.175313 129.35025 
L 252.872813 143.90325 
L 253.570313 143.90325 
L 254.267813 129.35025 
L 254.965313 143.90325 
L 257.755313 143.90325 
L 258.452812 158.45625 
L 260.545313 158.45625 
L 261.940313 129.35025 
L 262.637812 129.35025 
L 264.730313 85.69125 
L 266.125313 85.69125 
L 268.217812 129.35025 
L 269.612813 129.35025 
L 270.310313 114.79725 
L 271.705312 114.79725 
L 272.402812 129.35025 
L 273.797813 129.35025 
L 274.495313 143.90325 
L 275.192813 143.90325 
L 275.890312 158.45625 
L 276.587812 158.45625 
L 277.285313 143.90325 
L 277.982813 143.90325 
L 279.377813 114.79725 
L 280.075312 129.35025 
L 281.470312 129.35025 
L 282.167813 143.90325 
L 282.865313 143.90325 
L 283.562813 129.35025 
L 284.260312 129.35025 
L 284.957812 114.79725 
L 286.352813 114.79725 
L 287.050313 100.24425 
L 287.747813 114.79725 
L 288.445312 114.79725 
L 289.142812 100.24425 
L 289.840312 100.24425 
L 290.537813 114.79725 
L 291.235313 100.24425 
L 292.630313 100.24425 
L 293.327812 85.69125 
L 294.025312 85.69125 
L 294.722813 100.24425 
L 296.815313 100.24425 
L 297.512812 114.79725 
L 298.210312 114.79725 
L 298.907813 100.24425 
L 299.605313 114.79725 
L 300.302813 114.79725 
L 301.000313 129.35025 
L 301.697812 114.79725 
L 302.395312 129.35025 
L 303.092812 129.35025 
L 304.487813 158.45625 
L 305.882812 158.45625 
L 307.277812 187.56225 
L 309.370313 187.56225 
L 310.067813 202.11525 
L 310.765312 187.56225 
L 312.160313 187.56225 
L 312.857813 202.11525 
L 314.950312 158.45625 
L 315.647812 158.45625 
L 316.345312 143.90325 
L 317.042812 143.90325 
L 317.740313 129.35025 
L 318.437813 129.35025 
L 319.135312 114.79725 
L 320.530312 114.79725 
L 321.227812 100.24425 
L 324.017812 100.24425 
L 324.715312 114.79725 
L 325.412812 114.79725 
L 326.110313 129.35025 
L 326.807813 114.79725 
L 327.505313 114.79725 
L 328.202812 100.24425 
L 330.295312 100.24425 
L 330.992813 85.69125 
L 333.782812 85.69125 
L 335.177813 56.58525 
L 336.572812 56.58525 
L 337.270312 42.03225 
L 337.967812 42.03225 
L 338.665312 56.58525 
L 340.757812 56.58525 
L 342.152812 85.69125 
L 342.850312 85.69125 
L 343.547813 100.24425 
L 344.942813 100.24425 
L 346.337812 129.35025 
L 347.035312 114.79725 
L 349.127813 114.79725 
L 349.825312 100.24425 
L 351.220312 129.35025 
L 354.707812 129.35025 
L 355.405312 143.90325 
L 356.102812 143.90325 
L 357.497813 114.79725 
L 358.195312 129.35025 
L 359.590312 129.35025 
L 360.985313 158.45625 
L 364.472812 85.69125 
L 365.170312 85.69125 
L 366.565313 56.58525 
L 367.960312 56.58525 
L 368.657812 71.13825 
L 369.355312 56.58525 
L 371.447812 56.58525 
L 372.145312 42.03225 
L 373.540312 42.03225 
L 374.237813 56.58525 
L 374.935313 56.58525 
L 375.632812 71.13825 
L 377.027812 71.13825 
L 377.725312 85.69125 
L 380.515312 85.69125 
L 381.910312 114.79725 
L 382.607812 100.24425 
L 384.700312 100.24425 
L 385.397812 85.69125 
L 386.095312 100.24425 
L 387.490313 100.24425 
L 388.187813 114.79725 
L 388.885312 100.24425 
L 392.372813 100.24425 
L 393.070312 85.69125 
L 393.767812 100.24425 
L 394.465312 100.24425 
L 395.162812 114.79725 
L 395.860313 114.79725 
L 396.557813 129.35025 
L 397.952812 100.24425 
L 398.650312 100.24425 
L 399.347812 85.69125 
L 400.045312 85.69125 
L 401.440313 114.79725 
L 402.835312 114.79725 
L 403.532812 100.24425 
L 404.230312 100.24425 
L 404.927813 85.69125 
L 405.625313 85.69125 
L 406.322812 71.13825 
L 407.020312 71.13825 
L 407.717812 56.58525 
L 409.810313 56.58525 
L 411.205312 85.69125 
L 413.297813 42.03225 
L 413.995313 56.58525 
L 418.180313 56.58525 
L 420.970312 114.79725 
L 422.365313 85.69125 
L 429.340312 85.69125 
L 431.432813 42.03225 
L 434.222812 42.03225 
L 435.617813 71.13825 
L 439.802813 71.13825 
L 441.895312 114.79725 
L 442.592812 114.79725 
L 443.290312 100.24425 
L 445.382812 100.24425 
L 447.475312 56.58525 
L 450.962812 56.58525 
L 453.055313 12.92625 
L 453.752813 27.47925 
L 464.215312 27.47925 
L 464.912812 12.92625 
L 475.375313 12.92625 
L 476.072812 27.47925 
L 480.257812 27.47925 
L 480.955312 42.03225 
L 485.140312 42.03225 
L 485.837812 56.58525 
L 486.535312 56.58525 
L 487.232812 42.03225 
L 491.417812 42.03225 
L 492.115313 27.47925 
L 493.510312 27.47925 
L 494.207812 42.03225 
L 496.300313 42.03225 
L 496.997813 27.47925 
L 500.485313 27.47925 
L 501.182813 42.03225 
L 503.275312 42.03225 
L 503.972812 43.97265 
L 503.972812 43.97265 
" style="fill: none; stroke: #a6a6a6; stroke-width: 2; stroke-linecap: square"/>
   </g>
   <g id="line2d_14">
    <path d="M 69.430313 144.302286 
L 70.127813 145.32866 
L 70.825313 143.963486 
L 71.522813 145.424388 
L 72.220313 143.182375 
L 72.917813 148.129642 
L 73.615313 144.31816 
L 74.312813 146.467594 
L 75.010313 142.751388 
L 75.707813 133.383277 
L 76.405313 133.224663 
L 77.102813 136.853264 
L 77.800313 143.181817 
L 78.497813 146.129084 
L 79.195313 151.680268 
L 79.892813 153.800499 
L 80.590313 159.242396 
L 81.287813 160.540038 
L 81.985313 158.499965 
L 82.682813 150.843571 
L 83.380313 151.894793 
L 84.077813 151.968339 
L 84.775313 156.854635 
L 85.472813 154.603227 
L 86.170313 156.425069 
L 86.867813 163.39145 
L 87.565313 162.494267 
L 88.262813 157.669011 
L 88.960313 149.273635 
L 89.657813 150.705758 
L 90.355313 142.320362 
L 91.052813 142.086809 
L 91.750313 138.511717 
L 93.145313 132.528121 
L 93.842813 132.349261 
L 94.540313 131.237619 
L 95.237813 129.589701 
L 95.935313 125.147354 
L 96.632812 123.682092 
L 97.330313 124.43665 
L 98.027813 128.100062 
L 98.725313 127.992075 
L 99.422813 132.646555 
L 100.120313 136.455113 
L 100.817813 139.166444 
L 101.515313 144.819112 
L 102.212813 148.376885 
L 102.910313 150.775062 
L 103.607813 148.728965 
L 104.305313 153.478278 
L 105.002813 159.423409 
L 105.700313 162.789594 
L 106.397813 164.846229 
L 107.095313 169.876484 
L 107.792813 171.770584 
L 108.490313 171.493661 
L 109.187813 170.151277 
L 109.885313 174.594647 
L 110.582813 176.183383 
L 111.977813 181.319207 
L 112.675313 179.711015 
L 113.372813 182.964081 
L 114.070312 182.678565 
L 114.767813 189.167903 
L 115.465313 189.762654 
L 116.162813 189.444122 
L 116.860313 184.832576 
L 118.255313 169.247424 
L 118.952813 164.750722 
L 119.650313 161.671559 
L 120.347813 160.344241 
L 121.045313 156.193969 
L 121.742813 152.90684 
L 122.440313 148.251544 
L 124.532813 140.029483 
L 125.230313 141.428986 
L 125.927813 141.978875 
L 126.625313 140.445986 
L 127.322812 141.437374 
L 128.020313 146.567729 
L 128.717813 153.142417 
L 129.415312 161.547266 
L 130.112813 165.602406 
L 130.810313 167.882682 
L 131.507812 171.776307 
L 132.205313 172.92082 
L 132.902813 175.637607 
L 133.600313 179.705755 
L 134.297813 178.410798 
L 134.995313 182.958324 
L 135.692813 180.277856 
L 136.390313 180.600721 
L 138.482813 159.600397 
L 139.180313 155.01702 
L 139.877813 151.750942 
L 140.575313 146.879766 
L 141.272813 146.120126 
L 141.970313 140.495922 
L 142.667813 137.792619 
L 143.365313 138.110499 
L 144.062813 135.917993 
L 144.760312 134.619513 
L 145.457813 128.558853 
L 146.155313 126.337823 
L 146.852812 129.031164 
L 147.550313 130.163586 
L 148.945312 138.433972 
L 149.642813 144.122577 
L 150.340313 141.29233 
L 152.432813 120.690638 
L 153.130313 126.647099 
L 153.827813 119.348113 
L 154.525313 116.493356 
L 155.222813 110.92798 
L 155.920313 102.774863 
L 156.617813 103.444953 
L 157.315313 95.898445 
L 158.012813 85.734626 
L 158.710313 80.455735 
L 160.105313 63.275271 
L 160.802813 67.700886 
L 161.500313 73.809525 
L 162.197812 81.324431 
L 162.895313 83.593603 
L 163.592813 93.743152 
L 164.290312 89.108483 
L 164.987813 93.427056 
L 165.685313 100.151555 
L 166.382812 103.080204 
L 167.080313 103.192582 
L 167.777813 102.406031 
L 168.475313 103.716536 
L 169.870313 118.808142 
L 170.567813 126.857863 
L 171.265313 137.294933 
L 171.962813 133.378297 
L 172.660313 135.868294 
L 173.357813 134.633157 
L 174.055313 139.117422 
L 174.752813 128.997202 
L 175.450313 132.275659 
L 176.147813 132.229648 
L 176.845313 125.636544 
L 177.542813 122.386046 
L 178.240313 132.666616 
L 178.937813 139.687923 
L 180.332813 147.570185 
L 181.030313 139.57879 
L 181.727812 135.822107 
L 182.425313 134.015606 
L 183.122813 127.061604 
L 183.820312 125.641566 
L 184.517813 121.686011 
L 185.215313 115.101751 
L 185.912813 115.190742 
L 186.610313 106.874465 
L 187.307813 108.454008 
L 188.005313 114.193798 
L 188.702813 124.126768 
L 189.400313 124.308003 
L 190.097813 126.25315 
L 190.795313 129.237412 
L 191.492813 126.297765 
L 192.190313 131.465398 
L 192.887813 138.615555 
L 194.282813 143.709702 
L 194.980313 141.313853 
L 195.677813 147.978845 
L 197.770313 176.646849 
L 198.467813 178.262992 
L 199.165313 168.452881 
L 199.862813 161.211003 
L 200.560313 159.436183 
L 201.955313 142.888736 
L 202.652813 145.163462 
L 203.350313 142.940654 
L 204.047813 136.42298 
L 204.745313 133.254577 
L 205.442813 137.5421 
L 206.140313 135.888331 
L 206.837813 136.820011 
L 207.535313 134.051232 
L 208.232813 125.072968 
L 209.627813 111.211226 
L 210.325313 111.3726 
L 211.022813 111.027511 
L 211.720313 102.861165 
L 212.417813 102.10198 
L 213.115313 106.162692 
L 213.812813 99.96802 
L 214.510313 94.822063 
L 215.207813 92.511706 
L 215.905313 91.67651 
L 216.602813 95.73866 
L 217.300313 95.748404 
L 217.997813 92.920361 
L 219.392813 103.585369 
L 221.485313 125.111695 
L 222.182813 126.573548 
L 222.880313 129.883423 
L 223.577813 137.915803 
L 224.275313 139.622823 
L 224.972813 143.097855 
L 225.670313 150.102547 
L 226.367813 155.691252 
L 227.065313 155.090835 
L 227.762813 151.670883 
L 228.460313 152.170735 
L 229.157813 150.29555 
L 229.855313 138.951128 
L 230.552813 137.843685 
L 232.645313 114.911904 
L 233.342813 110.948489 
L 234.040313 107.661649 
L 234.737813 100.191609 
L 235.435313 95.267904 
L 236.132813 99.18913 
L 236.830313 100.650683 
L 237.527813 101.738813 
L 238.225313 104.966452 
L 238.922813 100.963353 
L 239.620313 98.255113 
L 240.317813 93.690545 
L 241.015313 100.39116 
L 241.712813 97.132179 
L 242.410313 105.559565 
L 243.107813 112.38652 
L 243.805313 118.058395 
L 244.502813 118.39407 
L 245.200313 124.430872 
L 245.897813 126.19833 
L 246.595313 126.249647 
L 247.990313 110.42742 
L 248.687813 110.144181 
L 249.385313 103.186461 
L 250.082813 99.309711 
L 250.780313 97.954663 
L 251.477813 102.609292 
L 252.175313 97.180596 
L 252.872813 99.18606 
L 254.267813 83.183423 
L 254.965313 87.868313 
L 255.662813 86.88836 
L 256.360313 84.934393 
L 257.057813 81.820684 
L 258.452812 88.896789 
L 259.150312 97.867174 
L 259.847813 98.93147 
L 261.242813 115.705058 
L 261.940313 117.835195 
L 262.637812 120.466543 
L 263.335312 129.134584 
L 264.032812 129.618297 
L 265.427813 127.010782 
L 266.125313 127.610368 
L 266.822812 131.636581 
L 267.520312 137.460248 
L 268.217812 146.73701 
L 268.915313 150.857411 
L 269.612813 150.44288 
L 270.310313 145.362614 
L 271.007812 142.26375 
L 271.705312 142.313144 
L 272.402812 141.001463 
L 273.100313 144.221297 
L 273.797813 143.485928 
L 274.495313 144.950988 
L 275.192813 148.139456 
L 276.587812 162.950085 
L 277.285313 154.613627 
L 277.982813 154.458324 
L 279.377813 147.938615 
L 280.075312 151.139288 
L 281.470312 158.713883 
L 282.167813 152.682063 
L 282.865313 149.695511 
L 283.562813 142.91899 
L 284.260312 137.533118 
L 284.957812 134.175744 
L 285.655312 129.963733 
L 286.352813 129.33634 
L 287.747813 114.623822 
L 288.445312 114.836233 
L 289.142812 109.782456 
L 289.840312 106.743875 
L 290.537813 101.680496 
L 291.932813 78.587411 
L 292.630313 68.230429 
L 293.327812 67.770699 
L 294.025312 59.462346 
L 294.722813 61.582692 
L 295.420313 59.46939 
L 296.117813 62.51 
L 296.815313 61.336043 
L 297.512812 59.28302 
L 298.210312 59.898937 
L 298.907813 60.871504 
L 299.605313 65.957946 
L 300.302813 72.788335 
L 301.000313 78.392715 
L 301.697812 77.480239 
L 302.395312 85.649711 
L 303.092812 91.39798 
L 303.790313 98.705166 
L 304.487813 109.288679 
L 305.185313 115.299711 
L 305.882812 118.274671 
L 306.580312 127.773568 
L 307.975313 128.639719 
L 308.672813 132.369442 
L 309.370313 137.884213 
L 310.067813 145.393291 
L 310.765312 142.702134 
L 311.462812 144.455449 
L 312.160313 141.085139 
L 312.857813 145.363983 
L 313.555313 143.036376 
L 314.252813 141.966134 
L 314.950312 145.399691 
L 315.647812 146.143012 
L 316.345312 151.586766 
L 317.042812 152.179434 
L 317.740313 153.196837 
L 319.135312 148.890053 
L 319.832812 141.867321 
L 320.530312 141.03005 
L 321.227812 134.037867 
L 321.925313 138.313791 
L 323.320312 129.341517 
L 324.017812 137.109247 
L 324.715312 139.589044 
L 325.412812 139.232179 
L 326.110313 139.797285 
L 326.807813 139.517305 
L 327.505313 138.514342 
L 328.202812 138.49365 
L 328.900312 128.113051 
L 329.597812 127.327134 
L 330.992813 118.752862 
L 331.690313 112.796875 
L 332.387812 111.230154 
L 333.085312 100.580038 
L 333.782812 96.273563 
L 334.480312 96.386122 
L 335.177813 83.623015 
L 335.875313 85.705208 
L 336.572812 90.889479 
L 337.270312 90.122056 
L 337.967812 88.295878 
L 338.665312 88.570943 
L 339.362813 90.909854 
L 340.060313 101.091709 
L 340.757812 103.836651 
L 342.850312 132.60482 
L 343.547813 134.721038 
L 344.245313 143.592837 
L 344.942813 148.099194 
L 346.337812 166.808076 
L 347.035312 166.203541 
L 347.732812 165.191626 
L 348.430313 162.719096 
L 350.522812 132.741082 
L 351.220312 130.338794 
L 351.917812 132.412111 
L 352.615313 125.973442 
L 353.312813 118.258869 
L 354.010312 114.194742 
L 354.707812 117.228951 
L 355.405312 111.521762 
L 356.102812 109.584892 
L 356.800313 98.687766 
L 358.195312 81.279777 
L 358.892812 74.618057 
L 359.590312 66.613621 
L 360.287812 77.812415 
L 360.985313 77.373861 
L 361.682813 77.621056 
L 362.380313 76.858292 
L 363.077812 66.630001 
L 363.775312 64.914741 
L 364.472812 66.670287 
L 365.170312 63.570455 
L 365.867813 57.986173 
L 366.565313 54.684498 
L 367.262812 54.353225 
L 367.960312 53.894859 
L 368.657812 53.787782 
L 370.052813 49.044456 
L 370.750313 55.037446 
L 371.447812 43.938504 
L 372.145312 50.491031 
L 372.842812 50.081061 
L 373.540312 43.085983 
L 374.237813 49.58032 
L 374.935313 47.038638 
L 375.632812 45.503015 
L 376.330312 42.733598 
L 377.027812 42.571129 
L 377.725312 43.482503 
L 378.422813 42.052853 
L 379.120313 42.056572 
L 379.817813 53.912687 
L 380.515312 56.407897 
L 381.212812 63.871504 
L 381.910312 68.665966 
L 382.607812 69.445853 
L 383.305313 64.332535 
L 384.002813 68.836513 
L 384.700312 70.808042 
L 385.397812 70.713092 
L 386.095312 75.919893 
L 386.792812 77.569776 
L 387.490313 88.113819 
L 388.187813 91.717449 
L 388.885312 96.164231 
L 389.582812 95.381929 
L 390.280312 95.726211 
L 390.977812 88.53933 
L 391.675313 86.682641 
L 392.372813 86.854069 
L 393.070312 79.781282 
L 393.767812 92.564683 
L 394.465312 92.475212 
L 395.860313 104.743972 
L 396.557813 108.385432 
L 397.255313 104.811186 
L 397.952812 111.482442 
L 398.650312 105.95108 
L 399.347812 115.264355 
L 400.045312 116.670629 
L 400.742813 126.266926 
L 401.440313 129.662399 
L 402.137812 124.30161 
L 402.835312 126.454815 
L 403.532812 120.349482 
L 404.230312 119.044488 
L 404.927813 105.775345 
L 405.625313 103.9026 
L 406.322812 92.434647 
L 407.717812 73.597194 
L 408.415312 71.806528 
L 409.112813 64.133338 
L 409.810313 59.067869 
L 410.507812 50.816574 
L 411.205312 44.061167 
L 411.902812 33.983127 
L 412.600312 30.256374 
L 413.297813 30.700551 
L 413.995313 30.397276 
L 414.692813 28.932686 
L 415.390312 26.405182 
L 416.087812 25.665756 
L 416.785312 39.189517 
L 417.482812 42.783493 
L 418.180313 43.767446 
L 418.877813 54.596304 
L 419.575312 59.909595 
L 420.272812 63.491661 
L 420.970312 68.982073 
L 421.667812 64.953147 
L 422.365313 66.400186 
L 423.062813 66.822639 
L 423.760312 67.46193 
L 424.457812 67.042447 
L 425.155312 75.234776 
L 425.852812 75.56473 
L 426.550313 87.839431 
L 427.247813 87.948276 
L 427.945312 75.123687 
L 428.642812 78.512856 
L 429.340312 83.161404 
L 430.037812 71.892561 
L 430.735313 67.598409 
L 432.130313 55.864188 
L 432.827812 55.727977 
L 433.525312 55.004151 
L 434.222812 55.618132 
L 434.920312 57.937287 
L 435.617813 62.149584 
L 436.315313 51.481093 
L 437.012812 51.126304 
L 437.710312 38.575364 
L 438.407812 46.305935 
L 439.105312 48.462315 
L 439.802813 41.485669 
L 440.500313 38.808508 
L 441.197812 43.124125 
L 441.895312 52.590684 
L 442.592812 54.230048 
L 443.290312 57.319314 
L 443.987813 58.367632 
L 444.685313 62.104356 
L 445.382812 61.590147 
L 446.080312 58.663642 
L 446.777812 56.405854 
L 447.475312 58.338436 
L 448.172813 58.32597 
L 448.870313 58.774382 
L 449.567813 51.205578 
L 450.265312 48.295251 
L 450.962812 51.272023 
L 451.660312 48.255939 
L 452.357812 44.501079 
L 453.055313 34.122042 
L 453.752813 40.910022 
L 454.450312 39.128485 
L 455.147812 38.670646 
L 455.845312 34.376487 
L 456.542812 33.732967 
L 457.240313 35.516087 
L 457.937813 33.337208 
L 458.635312 31.589689 
L 459.332812 32.333433 
L 460.030312 45.313011 
L 460.727812 52.07585 
L 461.425313 54.501265 
L 462.122813 51.578088 
L 462.820312 61.661238 
L 463.517812 60.959108 
L 464.215312 73.685143 
L 464.912812 67.621426 
L 465.610313 67.809579 
L 466.307813 67.804155 
L 467.702812 76.50695 
L 468.400312 74.685405 
L 469.097812 74.941887 
L 469.795312 74.785645 
L 470.492813 74.136917 
L 471.190313 60.68865 
L 472.585312 55.385961 
L 473.282812 55.466854 
L 473.980312 47.944592 
L 474.677813 47.858122 
L 475.375313 35.029261 
L 476.072812 45.254715 
L 476.770312 44.001041 
L 477.467812 45.594697 
L 478.165312 40.810404 
L 478.862813 39.992858 
L 479.560313 40.006282 
L 480.257812 42.062952 
L 480.955312 46.354108 
L 481.652812 49.564808 
L 482.350312 49.568437 
L 483.047813 48.922699 
L 483.745313 49.012355 
L 484.442813 53.714426 
L 485.140312 55.938385 
L 485.837812 60.447901 
L 486.535312 60.704805 
L 487.232812 51.336773 
L 487.930313 50.94289 
L 488.627813 48.193453 
L 489.325312 48.324768 
L 490.022812 51.557208 
L 490.720312 51.458255 
L 491.417812 49.37646 
L 492.115313 45.140148 
L 492.812813 41.785315 
L 493.510312 43.257353 
L 494.207812 45.805573 
L 494.905312 45.853012 
L 495.602812 40.986998 
L 496.300313 40.97462 
L 496.997813 45.775653 
L 497.695312 45.586293 
L 498.392812 42.35348 
L 499.090312 49.397529 
L 499.787812 49.355086 
L 500.485313 60.758523 
L 501.182813 55.631665 
L 501.880313 56.183623 
L 502.577812 62.491536 
L 503.275312 62.999794 
L 503.972812 66.336012 
L 503.972812 66.336012 
" style="fill: none; stroke: #b38665; stroke-width: 2; stroke-linecap: square"/>
   </g>
   <g id="line2d_15">
    <path d="M 102.910313 245.77425 
L 102.910313 12.92625 
" clip-path="url(#p368f7cba01)" style="fill: none; stroke-dasharray: 3.7,1.6; stroke-dashoffset: 0; stroke: #808080; stroke-opacity: 0.3"/>
   </g>
   <g id="line2d_16">
    <path d="M 147.550313 245.77425 
L 147.550313 12.92625 
" clip-path="url(#p368f7cba01)" style="fill: none; stroke-dasharray: 3.7,1.6; stroke-dashoffset: 0; stroke: #808080; stroke-opacity: 0.3"/>
   </g>
   <g id="line2d_17">
    <path d="M 192.190313 245.77425 
L 192.190313 12.92625 
" clip-path="url(#p368f7cba01)" style="fill: none; stroke-dasharray: 3.7,1.6; stroke-dashoffset: 0; stroke: #808080; stroke-opacity: 0.3"/>
   </g>
   <g id="line2d_18">
    <path d="M 236.830313 245.77425 
L 236.830313 12.92625 
" clip-path="url(#p368f7cba01)" style="fill: none; stroke-dasharray: 3.7,1.6; stroke-dashoffset: 0; stroke: #808080; stroke-opacity: 0.3"/>
   </g>
   <g id="line2d_19">
    <path d="M 281.470312 245.77425 
L 281.470312 12.92625 
" clip-path="url(#p368f7cba01)" style="fill: none; stroke-dasharray: 3.7,1.6; stroke-dashoffset: 0; stroke: #808080; stroke-opacity: 0.3"/>
   </g>
   <g id="line2d_20">
    <path d="M 326.110313 245.77425 
L 326.110313 12.92625 
" clip-path="url(#p368f7cba01)" style="fill: none; stroke-dasharray: 3.7,1.6; stroke-dashoffset: 0; stroke: #808080; stroke-opacity: 0.3"/>
   </g>
   <g id="line2d_21">
    <path d="M 370.750313 245.77425 
L 370.750313 12.92625 
" clip-path="url(#p368f7cba01)" style="fill: none; stroke-dasharray: 3.7,1.6; stroke-dashoffset: 0; stroke: #808080; stroke-opacity: 0.3"/>
   </g>
   <g id="line2d_22">
    <path d="M 415.390312 245.77425 
L 415.390312 12.92625 
" clip-path="url(#p368f7cba01)" style="fill: none; stroke-dasharray: 3.7,1.6; stroke-dashoffset: 0; stroke: #808080; stroke-opacity: 0.3"/>
   </g>
   <g id="line2d_23">
    <path d="M 460.030312 245.77425 
L 460.030312 12.92625 
" clip-path="url(#p368f7cba01)" style="fill: none; stroke-dasharray: 3.7,1.6; stroke-dashoffset: 0; stroke: #808080; stroke-opacity: 0.3"/>
   </g>
   <g id="patch_3">
    <path d="M 58.270313 245.77425 
L 58.270313 12.92625 
" style="fill: none; stroke: #000000; stroke-width: 2; stroke-linejoin: miter; stroke-linecap: square"/>
   </g>
   <g id="patch_4">
    <path d="M 58.270313 245.77425 
L 504.670312 245.77425 
" style="fill: none; stroke: #000000; stroke-width: 2; stroke-linejoin: miter; stroke-linecap: square"/>
   </g>
   <g id="text_15">
    <!-- S14 -->
    <g transform="translate(76.253938 36.89301) scale(0.2 -0.2)">
     <defs>
      <path id="ArialMT-53" d="M 288 1472 
L 859 1522 
Q 900 1178 1048 958 
Q 1197 738 1509 602 
Q 1822 466 2213 466 
Q 2559 466 2825 569 
Q 3091 672 3220 851 
Q 3350 1031 3350 1244 
Q 3350 1459 3225 1620 
Q 3100 1781 2813 1891 
Q 2628 1963 1997 2114 
Q 1366 2266 1113 2400 
Q 784 2572 623 2826 
Q 463 3081 463 3397 
Q 463 3744 659 4045 
Q 856 4347 1234 4503 
Q 1613 4659 2075 4659 
Q 2584 4659 2973 4495 
Q 3363 4331 3572 4012 
Q 3781 3694 3797 3291 
L 3216 3247 
Q 3169 3681 2898 3903 
Q 2628 4125 2100 4125 
Q 1550 4125 1298 3923 
Q 1047 3722 1047 3438 
Q 1047 3191 1225 3031 
Q 1400 2872 2139 2705 
Q 2878 2538 3153 2413 
Q 3553 2228 3743 1945 
Q 3934 1663 3934 1294 
Q 3934 928 3725 604 
Q 3516 281 3123 101 
Q 2731 -78 2241 -78 
Q 1619 -78 1198 103 
Q 778 284 539 648 
Q 300 1013 288 1472 
z
" transform="scale(0.015625)"/>
     </defs>
     <use xlink:href="#ArialMT-53"/>
     <use xlink:href="#ArialMT-31" x="66.699219"/>
     <use xlink:href="#ArialMT-34" x="122.314453"/>
    </g>
   </g>
   <g id="legend_1">
    <g id="patch_5">
     <path d="M 448.210312 230.355787 
L 544.561875 230.355787 
Q 547.561875 230.355787 547.561875 227.355787 
L 547.561875 186.41985 
Q 547.561875 183.41985 544.561875 183.41985 
L 448.210312 183.41985 
Q 445.210312 183.41985 445.210312 186.41985 
L 445.210312 227.355787 
Q 445.210312 230.355787 448.210312 230.355787 
L 448.210312 230.355787 
z
" style="fill: none; opacity: 0"/>
    </g>
    <g id="line2d_24">
     <path d="M 451.210312 194.906569 
L 466.210312 194.906569 
L 481.210312 194.906569 
" style="fill: none; stroke: #a6a6a6; stroke-width: 2; stroke-linecap: square"/>
    </g>
    <g id="text_16">
     <!-- Human -->
     <g transform="translate(493.210312 200.156569) scale(0.15 -0.15)">
      <defs>
       <path id="ArialMT-48" d="M 513 0 
L 513 4581 
L 1119 4581 
L 1119 2700 
L 3500 2700 
L 3500 4581 
L 4106 4581 
L 4106 0 
L 3500 0 
L 3500 2159 
L 1119 2159 
L 1119 0 
L 513 0 
z
" transform="scale(0.015625)"/>
       <path id="ArialMT-75" d="M 2597 0 
L 2597 488 
Q 2209 -75 1544 -75 
Q 1250 -75 995 37 
Q 741 150 617 320 
Q 494 491 444 738 
Q 409 903 409 1263 
L 409 3319 
L 972 3319 
L 972 1478 
Q 972 1038 1006 884 
Q 1059 663 1231 536 
Q 1403 409 1656 409 
Q 1909 409 2131 539 
Q 2353 669 2445 892 
Q 2538 1116 2538 1541 
L 2538 3319 
L 3100 3319 
L 3100 0 
L 2597 0 
z
" transform="scale(0.015625)"/>
      </defs>
      <use xlink:href="#ArialMT-48"/>
      <use xlink:href="#ArialMT-75" x="72.216797"/>
      <use xlink:href="#ArialMT-6d" x="127.832031"/>
      <use xlink:href="#ArialMT-61" x="211.132812"/>
      <use xlink:href="#ArialMT-6e" x="266.748047"/>
     </g>
    </g>
    <g id="line2d_25">
     <path d="M 451.210312 216.124537 
L 466.210312 216.124537 
L 481.210312 216.124537 
" style="fill: none; stroke: #b38665; stroke-width: 2; stroke-linecap: square"/>
    </g>
    <g id="text_17">
     <!-- PMH -->
     <g transform="translate(493.210312 221.374537) scale(0.15 -0.15)">
      <defs>
       <path id="ArialMT-50" d="M 494 0 
L 494 4581 
L 2222 4581 
Q 2678 4581 2919 4538 
Q 3256 4481 3484 4323 
Q 3713 4166 3852 3881 
Q 3991 3597 3991 3256 
Q 3991 2672 3619 2267 
Q 3247 1863 2275 1863 
L 1100 1863 
L 1100 0 
L 494 0 
z
M 1100 2403 
L 2284 2403 
Q 2872 2403 3119 2622 
Q 3366 2841 3366 3238 
Q 3366 3525 3220 3729 
Q 3075 3934 2838 4000 
Q 2684 4041 2272 4041 
L 1100 4041 
L 1100 2403 
z
" transform="scale(0.015625)"/>
       <path id="ArialMT-4d" d="M 475 0 
L 475 4581 
L 1388 4581 
L 2472 1338 
Q 2622 884 2691 659 
Q 2769 909 2934 1394 
L 4031 4581 
L 4847 4581 
L 4847 0 
L 4263 0 
L 4263 3834 
L 2931 0 
L 2384 0 
L 1059 3900 
L 1059 0 
L 475 0 
z
" transform="scale(0.015625)"/>
      </defs>
      <use xlink:href="#ArialMT-50"/>
      <use xlink:href="#ArialMT-4d" x="66.699219"/>
      <use xlink:href="#ArialMT-48" x="150"/>
     </g>
    </g>
   </g>
  </g>
 </g>
 <defs>
  <clipPath id="p368f7cba01">
   <rect x="58.270313" y="12.92625" width="446.4" height="232.848"/>
  </clipPath>
 </defs>
</svg>
