<?xml version="1.0" encoding="utf-8" standalone="no"?>
<!DOCTYPE svg PUBLIC "-//W3C//DTD SVG 1.1//EN"
  "http://www.w3.org/Graphics/SVG/1.1/DTD/svg11.dtd">
<svg xmlns:xlink="http://www.w3.org/1999/xlink" width="185.3pt" height="112.148pt" viewBox="0 0 185.3 112.148" xmlns="http://www.w3.org/2000/svg" version="1.1">
 <metadata>
  <rdf:RDF xmlns:dc="http://purl.org/dc/elements/1.1/" xmlns:cc="http://creativecommons.org/ns#" xmlns:rdf="http://www.w3.org/1999/02/22-rdf-syntax-ns#">
   <cc:Work>
    <dc:type rdf:resource="http://purl.org/dc/dcmitype/StillImage"/>
    <dc:date>2025-05-15T11:01:42.985745</dc:date>
    <dc:format>image/svg+xml</dc:format>
    <dc:creator>
     <cc:Agent>
      <dc:title>Matplotlib v3.8.4, https://matplotlib.org/</dc:title>
     </cc:Agent>
    </dc:creator>
   </cc:Work>
  </rdf:RDF>
 </metadata>
 <defs>
  <style type="text/css">*{stroke-linejoin: round; stroke-linecap: butt}</style>
 </defs>
 <g id="figure_1">
  <g id="patch_1">
   <path d="M 0 112.148 
L 185.3 112.148 
L 185.3 0 
L 0 0 
L 0 112.148 
z
" style="fill: none"/>
  </g>
  <g id="axes_1">
   <g id="patch_2">
    <path d="M 10.7 101.448 
L 178.1 101.448 
L 178.1 7.2 
L 10.7 7.2 
L 10.7 101.448 
z
" style="fill: none"/>
   </g>
   <g id="matplotlib.axis_1">
    <g id="xtick_1">
     <g id="line2d_1">
      <defs>
       <path id="m5e88fc793a" d="M 0 0 
L 0 3.5 
" style="stroke: #000000; stroke-width: 0.8"/>
      </defs>
      <g>
       <use xlink:href="#m5e88fc793a" x="10.7" y="101.448" style="stroke: #000000; stroke-width: 0.8"/>
      </g>
     </g>
    </g>
    <g id="xtick_2">
     <g id="line2d_2">
      <g>
       <use xlink:href="#m5e88fc793a" x="66.355065" y="101.448" style="stroke: #000000; stroke-width: 0.8"/>
      </g>
     </g>
    </g>
    <g id="xtick_3">
     <g id="line2d_3">
      <g>
       <use xlink:href="#m5e88fc793a" x="122.01013" y="101.448" style="stroke: #000000; stroke-width: 0.8"/>
      </g>
     </g>
    </g>
    <g id="xtick_4">
     <g id="line2d_4">
      <g>
       <use xlink:href="#m5e88fc793a" x="177.665195" y="101.448" style="stroke: #000000; stroke-width: 0.8"/>
      </g>
     </g>
    </g>
   </g>
   <g id="matplotlib.axis_2">
    <g id="ytick_1">
     <g id="line2d_5">
      <defs>
       <path id="me4e673fd0d" d="M 0 0 
L -3.5 0 
" style="stroke: #000000; stroke-width: 0.8"/>
      </defs>
      <g>
       <use xlink:href="#me4e673fd0d" x="10.7" y="101.448" style="stroke: #000000; stroke-width: 0.8"/>
      </g>
     </g>
    </g>
    <g id="ytick_2">
     <g id="line2d_6">
      <g>
       <use xlink:href="#me4e673fd0d" x="10.7" y="82.5984" style="stroke: #000000; stroke-width: 0.8"/>
      </g>
     </g>
    </g>
    <g id="ytick_3">
     <g id="line2d_7">
      <g>
       <use xlink:href="#me4e673fd0d" x="10.7" y="63.7488" style="stroke: #000000; stroke-width: 0.8"/>
      </g>
     </g>
    </g>
    <g id="ytick_4">
     <g id="line2d_8">
      <g>
       <use xlink:href="#me4e673fd0d" x="10.7" y="44.8992" style="stroke: #000000; stroke-width: 0.8"/>
      </g>
     </g>
    </g>
    <g id="ytick_5">
     <g id="line2d_9">
      <g>
       <use xlink:href="#me4e673fd0d" x="10.7" y="26.0496" style="stroke: #000000; stroke-width: 0.8"/>
      </g>
     </g>
    </g>
    <g id="ytick_6">
     <g id="line2d_10">
      <g>
       <use xlink:href="#me4e673fd0d" x="10.7" y="7.2" style="stroke: #000000; stroke-width: 0.8"/>
      </g>
     </g>
    </g>
   </g>
   <g id="line2d_11">
    <path d="M 17.656883 101.448 
L 53.310909 101.448 
L 53.745714 95.5575 
L 54.180519 95.5575 
L 55.05013 83.7765 
L 55.484935 83.7765 
L 56.354545 71.9955 
L 56.789351 71.9955 
L 57.224156 66.105 
L 58.093766 66.105 
L 60.267792 36.6525 
L 61.137403 36.6525 
L 62.007013 48.4335 
L 62.441818 48.4335 
L 63.311429 60.2145 
L 63.746234 60.2145 
L 64.181039 66.105 
L 65.050649 66.105 
L 67.659481 101.448 
L 70.703117 101.448 
L 72.007532 83.7765 
L 77.66 83.7765 
L 78.964416 101.448 
L 81.138442 101.448 
L 81.573247 95.5575 
L 82.008052 95.5575 
L 82.442857 89.667 
L 85.486494 89.667 
L 85.921299 83.7765 
L 86.356104 83.7765 
L 88.095325 60.2145 
L 88.53013 60.2145 
L 88.964935 54.324 
L 89.39974 54.324 
L 92.443377 13.0905 
L 92.878182 13.0905 
L 93.312987 7.2 
L 93.747792 7.2 
L 94.182597 13.0905 
L 94.617403 13.0905 
L 95.921818 30.762 
L 97.226234 30.762 
L 98.095844 42.543 
L 98.530649 42.543 
L 98.965455 48.4335 
L 99.40026 48.4335 
L 100.26987 60.2145 
L 101.139481 60.2145 
L 101.574286 66.105 
L 102.878701 48.4335 
L 104.183117 66.105 
L 104.617922 60.2145 
L 106.357143 60.2145 
L 107.226753 48.4335 
L 107.661558 48.4335 
L 108.096364 42.543 
L 108.531169 42.543 
L 109.400779 54.324 
L 109.835584 54.324 
L 111.14 36.6525 
L 112.444416 36.6525 
L 112.879221 30.762 
L 114.183636 30.762 
L 114.618442 36.6525 
L 115.053247 36.6525 
L 116.357662 18.981 
L 118.531688 18.981 
L 118.966494 13.0905 
L 121.140519 13.0905 
L 121.575325 7.2 
L 122.01013 7.2 
L 122.444935 13.0905 
L 124.618961 13.0905 
L 125.488571 24.8715 
L 125.923377 24.8715 
L 126.358182 30.762 
L 128.967013 30.762 
L 129.401818 24.8715 
L 129.836623 24.8715 
L 130.271429 30.762 
L 132.445455 30.762 
L 132.88026 36.6525 
L 133.315065 30.762 
L 134.184675 30.762 
L 134.619481 36.6525 
L 135.054286 36.6525 
L 136.793506 60.2145 
L 137.228312 54.324 
L 138.532727 54.324 
L 139.837143 36.6525 
L 140.706753 36.6525 
L 141.141558 42.543 
L 142.011169 42.543 
L 142.445974 36.6525 
L 142.880779 36.6525 
L 143.75039 24.8715 
L 145.054805 42.543 
L 145.924416 42.543 
L 146.359221 48.4335 
L 147.228831 48.4335 
L 147.663636 54.324 
L 148.533247 54.324 
L 149.402857 66.105 
L 149.837662 60.2145 
L 150.707273 71.9955 
L 151.576883 71.9955 
L 152.011688 66.105 
L 152.881299 66.105 
L 153.316104 60.2145 
L 154.185714 60.2145 
L 156.35974 30.762 
L 156.794545 30.762 
L 158.533766 7.2 
L 177.665195 7.2 
L 177.665195 7.2 
" style="fill: none; stroke: #a6a6a6; stroke-width: 2; stroke-linecap: square"/>
   </g>
   <g id="line2d_12">
    <path d="M 17.656883 96.944622 
L 18.091688 96.944622 
L 18.526494 95.542005 
L 18.961299 93.69798 
L 19.396104 93.69798 
L 19.830909 92.211628 
L 20.700519 94.775165 
L 21.135325 95.352977 
L 22.874545 95.352977 
L 23.309351 93.079877 
L 23.744156 93.079877 
L 24.178961 91.562762 
L 24.613766 88.133483 
L 25.048571 85.757794 
L 25.483377 87.160411 
L 25.918182 89.004436 
L 26.352987 89.004436 
L 26.787792 90.490788 
L 27.657403 90.490788 
L 28.092208 89.014235 
L 29.831429 89.014235 
L 30.266234 91.287335 
L 30.701039 91.287335 
L 31.135844 92.804451 
L 31.570649 96.23373 
L 32.005455 95.930063 
L 32.875065 92.71973 
L 33.744675 92.71973 
L 34.614286 88.102933 
L 35.049091 87.054422 
L 37.657922 87.054422 
L 38.092727 85.929377 
L 38.527532 85.929377 
L 38.962338 88.608732 
L 39.397143 90.435874 
L 39.831948 89.090093 
L 40.701558 89.090093 
L 41.571169 93.70689 
L 42.005974 97.593984 
L 42.875584 92.576706 
L 44.614805 92.576706 
L 45.04961 93.701751 
L 45.919221 88.04939 
L 46.354026 88.04939 
L 46.788831 90.778362 
L 47.658442 82.815521 
L 48.093247 80.711767 
L 48.962857 80.711767 
L 49.397662 83.230656 
L 49.832468 81.10851 
L 50.267273 79.792957 
L 52.006494 79.792957 
L 52.876104 85.445318 
L 53.310909 81.838327 
L 53.745714 79.68558 
L 55.05013 85.17461 
L 56.354545 85.17461 
L 56.789351 89.795145 
L 57.224156 91.110697 
L 57.658961 86.075024 
L 58.963377 77.261504 
L 59.832987 73.18419 
L 60.267792 76.791181 
L 61.572208 83.521493 
L 62.876623 83.521493 
L 63.311429 79.932122 
L 64.181039 79.932122 
L 64.615844 84.967796 
L 65.92026 93.781316 
L 66.355065 95.627594 
L 66.78987 92.58254 
L 68.094286 80.479311 
L 69.833506 80.479311 
L 70.268312 84.068681 
L 73.311948 84.068681 
L 74.181558 93.547871 
L 74.616364 94.56328 
L 75.051169 98.186528 
L 78.964416 98.186528 
L 79.399221 94.800544 
L 79.834026 93.509897 
L 80.703636 85.302196 
L 81.138442 81.811255 
L 81.573247 85.072727 
L 85.921299 85.072727 
L 86.356104 88.458711 
L 86.790909 89.749358 
L 87.660519 97.95706 
L 88.095325 101.448 
L 93.312987 101.448 
L 94.617403 89.370701 
L 95.052208 86.514662 
L 95.921818 77.766096 
L 96.791429 77.766096 
L 98.530649 61.50316 
L 99.835065 61.50316 
L 100.26987 56.694926 
L 100.704675 56.479827 
L 101.139481 56.557827 
L 101.574286 56.427541 
L 102.009091 59.28358 
L 102.878701 68.032146 
L 103.748312 58.996393 
L 104.617922 67.070763 
L 105.052727 66.562366 
L 105.487532 65.61144 
L 106.791948 52.196256 
L 107.226753 51.11399 
L 107.661558 50.527283 
L 108.531169 58.414918 
L 109.400779 58.414918 
L 109.835584 54.668985 
L 110.27039 55.931915 
L 110.705195 54.569442 
L 111.574805 44.125225 
L 112.00961 44.16805 
L 112.444416 44.48389 
L 112.879221 44.152383 
L 113.314026 47.795825 
L 114.618442 63.980694 
L 115.488052 63.980694 
L 116.357662 55.99688 
L 116.792468 55.360402 
L 117.227273 53.193724 
L 117.662078 53.161597 
L 118.096883 53.456787 
L 118.531688 52.640765 
L 118.966494 52.121662 
L 119.401299 52.546087 
L 119.836104 57.398722 
L 122.444935 57.398722 
L 122.87974 56.832565 
L 123.314545 54.571288 
L 123.749351 53.91536 
L 124.184156 55.35822 
L 125.923377 77.181206 
L 126.358182 81.457531 
L 128.967013 81.457531 
L 129.401818 75.897623 
L 129.836623 75.442658 
L 130.271429 75.656658 
L 130.706234 75.076777 
L 131.141039 73.668351 
L 134.184675 34.451896 
L 135.054286 24.84845 
L 135.923896 24.84845 
L 136.358701 26.253059 
L 136.793506 26.159736 
L 137.663117 27.206217 
L 138.097922 27.606516 
L 138.967532 29.341873 
L 139.837143 28.639786 
L 140.706753 29.029302 
L 141.141558 28.669963 
L 141.576364 27.915574 
L 142.011169 27.452024 
L 142.880779 16.330437 
L 143.315584 15.360913 
L 145.054805 36.227197 
L 146.359221 51.749363 
L 148.098442 74.380205 
L 148.533247 74.083032 
L 149.402857 74.344956 
L 150.272468 73.3468 
L 152.446494 46.195849 
L 153.316104 46.195849 
L 153.750909 42.877257 
L 155.055325 42.877257 
L 156.35974 59.624391 
L 156.794545 60.112122 
L 157.664156 60.469878 
L 158.098961 60.763449 
L 158.533766 60.844842 
L 158.968571 60.554309 
L 159.403377 60.628694 
L 160.272987 49.054457 
L 160.707792 46.482549 
L 162.447013 24.498503 
L 163.316623 13.995905 
L 163.751429 13.868249 
L 164.621039 14.189436 
L 165.490649 14.957313 
L 166.36026 15.156519 
L 166.795065 16.175041 
L 167.22987 16.810623 
L 167.664675 17.188517 
L 168.099481 17.203689 
L 168.534286 17.91579 
L 168.969091 17.590823 
L 170.273506 16.229418 
L 171.143117 15.912607 
L 171.577922 15.606166 
L 172.012727 15.623285 
L 172.447532 15.02142 
L 172.882338 15.546397 
L 173.751948 14.236216 
L 174.186753 13.796065 
L 174.621558 13.900516 
L 175.056364 13.768078 
L 175.491169 13.006343 
L 175.925974 13.374341 
L 176.360779 13.156957 
L 176.795584 13.453733 
L 177.23039 13.954869 
L 177.665195 13.904227 
L 177.665195 13.904227 
" style="fill: none; stroke: #20978b; stroke-width: 2; stroke-linecap: square"/>
   </g>
   <g id="patch_3">
    <path d="M 10.7 101.448 
L 10.7 7.2 
" style="fill: none; stroke: #000000; stroke-width: 2; stroke-linejoin: miter; stroke-linecap: square"/>
   </g>
   <g id="patch_4">
    <path d="M 10.7 101.448 
L 178.1 101.448 
" style="fill: none; stroke: #000000; stroke-width: 2; stroke-linejoin: miter; stroke-linecap: square"/>
   </g>
  </g>
 </g>
</svg>
