<?xml version="1.0" encoding="utf-8" standalone="no"?>
<!DOCTYPE svg PUBLIC "-//W3C//DTD SVG 1.1//EN"
  "http://www.w3.org/Graphics/SVG/1.1/DTD/svg11.dtd">
<svg xmlns:xlink="http://www.w3.org/1999/xlink" width="185.3pt" height="112.148pt" viewBox="0 0 185.3 112.148" xmlns="http://www.w3.org/2000/svg" version="1.1">
 <metadata>
  <rdf:RDF xmlns:dc="http://purl.org/dc/elements/1.1/" xmlns:cc="http://creativecommons.org/ns#" xmlns:rdf="http://www.w3.org/1999/02/22-rdf-syntax-ns#">
   <cc:Work>
    <dc:type rdf:resource="http://purl.org/dc/dcmitype/StillImage"/>
    <dc:date>2025-05-14T23:42:40.811358</dc:date>
    <dc:format>image/svg+xml</dc:format>
    <dc:creator>
     <cc:Agent>
      <dc:title>Matplotlib v3.8.4, https://matplotlib.org/</dc:title>
     </cc:Agent>
    </dc:creator>
   </cc:Work>
  </rdf:RDF>
 </metadata>
 <defs>
  <style type="text/css">*{stroke-linejoin: round; stroke-linecap: butt}</style>
 </defs>
 <g id="figure_1">
  <g id="patch_1">
   <path d="M 0 112.148 
L 185.3 112.148 
L 185.3 0 
L 0 0 
L 0 112.148 
z
" style="fill: none"/>
  </g>
  <g id="axes_1">
   <g id="patch_2">
    <path d="M 10.7 101.448 
L 178.1 101.448 
L 178.1 7.2 
L 10.7 7.2 
L 10.7 101.448 
z
" style="fill: none"/>
   </g>
   <g id="matplotlib.axis_1">
    <g id="xtick_1">
     <g id="line2d_1">
      <defs>
       <path id="m74edcff63d" d="M 0 0 
L 0 3.5 
" style="stroke: #000000; stroke-width: 0.8"/>
      </defs>
      <g>
       <use xlink:href="#m74edcff63d" x="10.7" y="101.448" style="stroke: #000000; stroke-width: 0.8"/>
      </g>
     </g>
    </g>
    <g id="xtick_2">
     <g id="line2d_2">
      <g>
       <use xlink:href="#m74edcff63d" x="44.127769" y="101.448" style="stroke: #000000; stroke-width: 0.8"/>
      </g>
     </g>
    </g>
    <g id="xtick_3">
     <g id="line2d_3">
      <g>
       <use xlink:href="#m74edcff63d" x="77.555538" y="101.448" style="stroke: #000000; stroke-width: 0.8"/>
      </g>
     </g>
    </g>
    <g id="xtick_4">
     <g id="line2d_4">
      <g>
       <use xlink:href="#m74edcff63d" x="110.983307" y="101.448" style="stroke: #000000; stroke-width: 0.8"/>
      </g>
     </g>
    </g>
    <g id="xtick_5">
     <g id="line2d_5">
      <g>
       <use xlink:href="#m74edcff63d" x="144.411076" y="101.448" style="stroke: #000000; stroke-width: 0.8"/>
      </g>
     </g>
    </g>
    <g id="xtick_6">
     <g id="line2d_6">
      <g>
       <use xlink:href="#m74edcff63d" x="177.838846" y="101.448" style="stroke: #000000; stroke-width: 0.8"/>
      </g>
     </g>
    </g>
   </g>
   <g id="matplotlib.axis_2">
    <g id="ytick_1">
     <g id="line2d_7">
      <defs>
       <path id="m5dd710e519" d="M 0 0 
L -3.5 0 
" style="stroke: #000000; stroke-width: 0.8"/>
      </defs>
      <g>
       <use xlink:href="#m5dd710e519" x="10.7" y="101.448" style="stroke: #000000; stroke-width: 0.8"/>
      </g>
     </g>
    </g>
    <g id="ytick_2">
     <g id="line2d_8">
      <g>
       <use xlink:href="#m5dd710e519" x="10.7" y="82.5984" style="stroke: #000000; stroke-width: 0.8"/>
      </g>
     </g>
    </g>
    <g id="ytick_3">
     <g id="line2d_9">
      <g>
       <use xlink:href="#m5dd710e519" x="10.7" y="63.7488" style="stroke: #000000; stroke-width: 0.8"/>
      </g>
     </g>
    </g>
    <g id="ytick_4">
     <g id="line2d_10">
      <g>
       <use xlink:href="#m5dd710e519" x="10.7" y="44.8992" style="stroke: #000000; stroke-width: 0.8"/>
      </g>
     </g>
    </g>
    <g id="ytick_5">
     <g id="line2d_11">
      <g>
       <use xlink:href="#m5dd710e519" x="10.7" y="26.0496" style="stroke: #000000; stroke-width: 0.8"/>
      </g>
     </g>
    </g>
    <g id="ytick_6">
     <g id="line2d_12">
      <g>
       <use xlink:href="#m5dd710e519" x="10.7" y="7.2" style="stroke: #000000; stroke-width: 0.8"/>
      </g>
     </g>
    </g>
   </g>
   <g id="line2d_13">
    <path d="M 14.878471 101.448 
L 17.490016 101.448 
L 17.75117 95.5575 
L 18.012324 95.5575 
L 18.273479 89.667 
L 21.146178 89.667 
L 21.407332 83.7765 
L 21.668487 83.7765 
L 21.929641 89.667 
L 22.190796 89.667 
L 22.45195 95.5575 
L 25.324649 95.5575 
L 25.585803 101.448 
L 32.898128 101.448 
L 33.681591 83.7765 
L 34.726209 83.7765 
L 34.987363 77.886 
L 37.076599 77.886 
L 37.860062 95.5575 
L 38.90468 95.5575 
L 39.165835 101.448 
L 51.178939 101.448 
L 51.440094 95.5575 
L 52.484711 95.5575 
L 52.745866 89.667 
L 53.00702 89.667 
L 53.268175 83.7765 
L 55.096256 83.7765 
L 55.35741 77.886 
L 57.185491 77.886 
L 57.446646 83.7765 
L 59.274727 83.7765 
L 59.797036 95.5575 
L 60.841654 95.5575 
L 61.102808 101.448 
L 68.676287 101.448 
L 68.937441 95.5575 
L 69.45975 95.5575 
L 69.720905 89.667 
L 69.982059 89.667 
L 70.243214 83.7765 
L 72.854758 83.7765 
L 73.115913 89.667 
L 73.638222 89.667 
L 73.899376 95.5575 
L 74.16053 89.667 
L 76.772075 89.667 
L 77.033229 83.7765 
L 78.077847 83.7765 
L 78.600156 95.5575 
L 80.950546 95.5575 
L 81.2117 101.448 
L 81.995164 101.448 
L 82.256318 95.5575 
L 84.084399 95.5575 
L 84.345554 89.667 
L 84.606708 89.667 
L 84.867863 83.7765 
L 85.651326 83.7765 
L 85.91248 77.886 
L 88.262871 77.886 
L 88.524025 83.7765 
L 88.785179 83.7765 
L 89.046334 89.667 
L 89.829797 89.667 
L 90.090952 95.5575 
L 90.352106 95.5575 
L 90.613261 101.448 
L 93.747114 101.448 
L 94.008268 95.5575 
L 98.186739 95.5575 
L 98.447894 89.667 
L 99.753666 89.667 
L 100.014821 83.7765 
L 101.059438 83.7765 
L 101.320593 77.886 
L 101.581747 77.886 
L 101.842902 71.9955 
L 102.104056 71.9955 
L 102.626365 83.7765 
L 103.932137 83.7765 
L 104.193292 89.667 
L 105.23791 89.667 
L 105.499064 95.5575 
L 105.760218 95.5575 
L 106.021373 101.448 
L 114.378315 101.448 
L 114.63947 95.5575 
L 116.206396 95.5575 
L 116.467551 89.667 
L 117.512168 89.667 
L 117.773323 83.7765 
L 118.556786 83.7765 
L 118.817941 89.667 
L 119.601404 89.667 
L 119.862559 83.7765 
L 120.384867 83.7765 
L 120.646022 89.667 
L 121.69064 89.667 
L 121.951794 95.5575 
L 123.779875 95.5575 
L 124.04103 101.448 
L 126.913729 101.448 
L 127.174883 95.5575 
L 127.436037 95.5575 
L 127.697192 89.667 
L 127.958346 89.667 
L 128.74181 71.9955 
L 129.264119 71.9955 
L 129.525273 66.105 
L 130.047582 66.105 
L 130.569891 54.324 
L 131.0922 54.324 
L 131.353354 60.2145 
L 131.614509 60.2145 
L 131.875663 66.105 
L 132.136817 60.2145 
L 132.920281 60.2145 
L 133.44259 48.4335 
L 133.703744 48.4335 
L 133.964899 42.543 
L 134.226053 42.543 
L 134.487207 48.4335 
L 134.748362 48.4335 
L 135.009516 42.543 
L 135.270671 42.543 
L 135.531825 36.6525 
L 136.054134 36.6525 
L 136.576443 48.4335 
L 136.837598 48.4335 
L 137.621061 66.105 
L 138.14337 66.105 
L 138.665679 54.324 
L 139.187988 54.324 
L 139.449142 48.4335 
L 139.710296 54.324 
L 139.971451 48.4335 
L 140.49376 48.4335 
L 140.754914 42.543 
L 141.277223 42.543 
L 141.538378 36.6525 
L 142.060686 36.6525 
L 143.627613 71.9955 
L 143.888768 66.105 
L 144.149922 71.9955 
L 144.411076 66.105 
L 144.672231 66.105 
L 145.19454 77.886 
L 147.54493 77.886 
L 147.806084 71.9955 
L 148.067239 71.9955 
L 148.328393 66.105 
L 148.589548 66.105 
L 148.850702 60.2145 
L 149.111856 60.2145 
L 149.634165 48.4335 
L 150.417629 48.4335 
L 151.723401 18.981 
L 153.029173 18.981 
L 153.290328 13.0905 
L 154.073791 13.0905 
L 154.334945 7.2 
L 154.857254 7.2 
L 155.118409 13.0905 
L 157.991108 13.0905 
L 158.252262 18.981 
L 159.035725 18.981 
L 159.29688 13.0905 
L 162.169579 13.0905 
L 162.430733 7.2 
L 162.953042 7.2 
L 163.214197 13.0905 
L 164.519969 13.0905 
L 164.781123 18.981 
L 168.69844 18.981 
L 168.959594 13.0905 
L 171.309984 13.0905 
L 171.571139 7.2 
L 174.443838 7.2 
L 174.704992 13.0905 
L 176.271919 13.0905 
L 176.533073 18.981 
L 177.838846 18.981 
L 177.838846 18.981 
" style="fill: none; stroke: #a6a6a6; stroke-width: 2; stroke-linecap: square"/>
   </g>
   <g id="line2d_14">
    <path d="M 14.878471 98.09367 
L 17.490016 98.09367 
L 17.75117 100.318515 
L 18.012324 101.448 
L 28.980811 101.448 
L 29.50312 98.979149 
L 30.025429 93.390193 
L 32.375819 93.390193 
L 32.636973 89.585498 
L 33.159282 89.585498 
L 33.681591 92.054349 
L 34.2039 97.643304 
L 36.031981 97.643304 
L 36.293136 94.648526 
L 36.55429 94.648526 
L 36.815445 95.698665 
L 40.210452 95.698665 
L 40.471607 98.693443 
L 40.732761 96.161456 
L 40.993916 96.861736 
L 41.25507 95.149151 
L 44.650078 95.149151 
L 45.172387 99.735415 
L 45.433541 101.448 
L 50.134321 101.448 
L 50.395476 99.286228 
L 54.051638 99.286228 
L 54.312793 96.221104 
L 54.835101 96.132049 
L 56.663183 96.132049 
L 57.185491 86.179727 
L 57.7078 79.825919 
L 57.968955 78.151626 
L 58.230109 78.151626 
L 58.752418 83.467577 
L 60.841654 83.467577 
L 61.363963 93.419899 
L 61.886271 99.773707 
L 62.147426 101.448 
L 72.593604 101.448 
L 73.115913 94.90314 
L 76.249766 94.90314 
L 76.772075 87.705656 
L 77.294384 94.250516 
L 80.428237 94.250516 
L 80.950546 101.448 
L 82.778627 101.448 
L 83.300936 92.121189 
L 84.084399 81.946361 
L 84.606708 75.112875 
L 86.957098 75.112875 
L 87.479407 84.439685 
L 88.262871 94.614514 
L 88.785179 101.448 
L 95.836349 101.448 
L 96.097504 96.893429 
L 97.664431 96.893429 
L 97.925585 93.986735 
L 100.014821 93.986735 
L 100.275975 98.541305 
L 101.842902 98.541305 
L 102.104056 101.448 
L 109.416381 101.448 
L 110.460998 83.480199 
L 110.722153 79.877461 
L 112.550234 79.877461 
L 113.333697 65.856936 
L 113.594852 60.040478 
L 114.117161 59.106855 
L 114.900624 71.041799 
L 116.728705 71.041799 
L 116.98986 75.426005 
L 117.251014 74.341654 
L 117.512168 74.415998 
L 117.773323 75.297805 
L 118.034477 75.476382 
L 118.295632 75.275062 
L 118.817941 65.691368 
L 121.168331 65.691368 
L 121.951794 81.272346 
L 122.474103 80.977653 
L 122.996412 79.6262 
L 124.302184 56.073336 
L 126.130265 56.073336 
L 126.652574 66.95999 
L 127.174883 66.83064 
L 127.697192 65.63221 
L 128.480655 65.91399 
L 130.308736 29.612867 
L 130.831045 18.639571 
L 131.0922 19.006212 
L 131.614509 18.798561 
L 131.875663 18.322185 
L 132.397972 16.398168 
L 133.181435 14.522938 
L 133.44259 14.203615 
L 133.703744 14.290974 
L 134.748362 15.753929 
L 135.009516 15.96389 
L 136.054134 37.873747 
L 136.576443 37.87918 
L 136.837598 37.556068 
L 137.359906 37.342948 
L 137.621061 37.075127 
L 138.404524 34.654068 
L 138.926833 33.88478 
L 139.187988 33.874939 
L 140.232605 13.989765 
L 144.411076 101.448 
L 145.978003 101.448 
L 147.54493 68.340072 
L 147.806084 63.501713 
L 148.589548 63.501713 
L 150.156474 28.723656 
L 150.417629 28.839668 
L 150.678783 28.670793 
L 150.939938 27.733739 
L 151.201092 27.291872 
L 151.723401 26.827805 
L 151.984555 25.903018 
L 152.768019 8.953353 
L 154.857254 8.93148 
L 155.118409 8.969473 
L 155.640718 9.347458 
L 156.424181 10.77674 
L 156.685335 10.947211 
L 156.94649 10.693855 
L 157.729953 11.522117 
L 157.991108 11.577857 
L 158.513417 11.399477 
L 158.774571 11.444777 
L 159.558034 13.703678 
L 159.819189 13.595949 
L 160.080343 13.719656 
L 160.341498 18.812941 
L 161.124961 18.107238 
L 161.386115 18.277547 
L 161.908424 17.941921 
L 162.691888 18.408382 
L 162.953042 18.400912 
L 163.736505 16.647531 
L 163.99766 17.654326 
L 164.258814 22.802976 
L 164.519969 22.802976 
L 165.825741 51.494314 
L 166.086895 51.603561 
L 166.34805 51.515172 
L 166.609204 51.660613 
L 167.131513 53.046138 
L 167.653822 53.970738 
L 167.914977 53.63275 
L 168.176131 52.518542 
L 170.004212 11.742624 
L 170.526521 11.354126 
L 170.787676 10.981953 
L 171.309984 9.310662 
L 171.832293 8.092419 
L 172.615757 7.926272 
L 173.39922 8.011005 
L 174.182683 8.23043 
L 174.704992 19.910348 
L 175.227301 19.833667 
L 175.488456 20.306004 
L 176.010764 21.532826 
L 176.533073 24.646922 
L 177.577691 25.57626 
L 177.838846 25.597909 
L 177.838846 25.597909 
" style="fill: none; stroke: #20978b; stroke-width: 2; stroke-linecap: square"/>
   </g>
   <g id="patch_3">
    <path d="M 10.7 101.448 
L 10.7 7.2 
" style="fill: none; stroke: #000000; stroke-width: 2; stroke-linejoin: miter; stroke-linecap: square"/>
   </g>
   <g id="patch_4">
    <path d="M 10.7 101.448 
L 178.1 101.448 
" style="fill: none; stroke: #000000; stroke-width: 2; stroke-linejoin: miter; stroke-linecap: square"/>
   </g>
  </g>
 </g>
</svg>
