<?xml version="1.0" encoding="utf-8" standalone="no"?>
<!DOCTYPE svg PUBLIC "-//W3C//DTD SVG 1.1//EN"
  "http://www.w3.org/Graphics/SVG/1.1/DTD/svg11.dtd">
<svg xmlns:xlink="http://www.w3.org/1999/xlink" width="185.3pt" height="112.148pt" viewBox="0 0 185.3 112.148" xmlns="http://www.w3.org/2000/svg" version="1.1">
 <metadata>
  <rdf:RDF xmlns:dc="http://purl.org/dc/elements/1.1/" xmlns:cc="http://creativecommons.org/ns#" xmlns:rdf="http://www.w3.org/1999/02/22-rdf-syntax-ns#">
   <cc:Work>
    <dc:type rdf:resource="http://purl.org/dc/dcmitype/StillImage"/>
    <dc:date>2025-05-15T10:37:32.671550</dc:date>
    <dc:format>image/svg+xml</dc:format>
    <dc:creator>
     <cc:Agent>
      <dc:title>Matplotlib v3.8.4, https://matplotlib.org/</dc:title>
     </cc:Agent>
    </dc:creator>
   </cc:Work>
  </rdf:RDF>
 </metadata>
 <defs>
  <style type="text/css">*{stroke-linejoin: round; stroke-linecap: butt}</style>
 </defs>
 <g id="figure_1">
  <g id="patch_1">
   <path d="M 0 112.148 
L 185.3 112.148 
L 185.3 0 
L 0 0 
L 0 112.148 
z
" style="fill: none"/>
  </g>
  <g id="axes_1">
   <g id="patch_2">
    <path d="M 10.7 101.448 
L 178.1 101.448 
L 178.1 7.2 
L 10.7 7.2 
L 10.7 101.448 
z
" style="fill: none"/>
   </g>
   <g id="matplotlib.axis_1">
    <g id="xtick_1">
     <g id="line2d_1">
      <defs>
       <path id="m0a36f64ac8" d="M 0 0 
L 0 3.5 
" style="stroke: #000000; stroke-width: 0.8"/>
      </defs>
      <g>
       <use xlink:href="#m0a36f64ac8" x="10.7" y="101.448" style="stroke: #000000; stroke-width: 0.8"/>
      </g>
     </g>
    </g>
    <g id="xtick_2">
     <g id="line2d_2">
      <g>
       <use xlink:href="#m0a36f64ac8" x="58.422049" y="101.448" style="stroke: #000000; stroke-width: 0.8"/>
      </g>
     </g>
    </g>
    <g id="xtick_3">
     <g id="line2d_3">
      <g>
       <use xlink:href="#m0a36f64ac8" x="106.144098" y="101.448" style="stroke: #000000; stroke-width: 0.8"/>
      </g>
     </g>
    </g>
    <g id="xtick_4">
     <g id="line2d_4">
      <g>
       <use xlink:href="#m0a36f64ac8" x="153.866147" y="101.448" style="stroke: #000000; stroke-width: 0.8"/>
      </g>
     </g>
    </g>
   </g>
   <g id="matplotlib.axis_2">
    <g id="ytick_1">
     <g id="line2d_5">
      <defs>
       <path id="m23eaec4c66" d="M 0 0 
L -3.5 0 
" style="stroke: #000000; stroke-width: 0.8"/>
      </defs>
      <g>
       <use xlink:href="#m23eaec4c66" x="10.7" y="101.448" style="stroke: #000000; stroke-width: 0.8"/>
      </g>
     </g>
    </g>
    <g id="ytick_2">
     <g id="line2d_6">
      <g>
       <use xlink:href="#m23eaec4c66" x="10.7" y="82.5984" style="stroke: #000000; stroke-width: 0.8"/>
      </g>
     </g>
    </g>
    <g id="ytick_3">
     <g id="line2d_7">
      <g>
       <use xlink:href="#m23eaec4c66" x="10.7" y="63.7488" style="stroke: #000000; stroke-width: 0.8"/>
      </g>
     </g>
    </g>
    <g id="ytick_4">
     <g id="line2d_8">
      <g>
       <use xlink:href="#m23eaec4c66" x="10.7" y="44.8992" style="stroke: #000000; stroke-width: 0.8"/>
      </g>
     </g>
    </g>
    <g id="ytick_5">
     <g id="line2d_9">
      <g>
       <use xlink:href="#m23eaec4c66" x="10.7" y="26.0496" style="stroke: #000000; stroke-width: 0.8"/>
      </g>
     </g>
    </g>
    <g id="ytick_6">
     <g id="line2d_10">
      <g>
       <use xlink:href="#m23eaec4c66" x="10.7" y="7.2" style="stroke: #000000; stroke-width: 0.8"/>
      </g>
     </g>
    </g>
   </g>
   <g id="line2d_11">
    <path d="M 16.665256 89.667 
L 18.15657 89.667 
L 18.529399 95.5575 
L 20.020713 95.5575 
L 20.393541 101.448 
L 42.390423 101.448 
L 42.763252 95.5575 
L 48.355679 95.5575 
L 48.728508 101.448 
L 52.083964 101.448 
L 52.456793 95.5575 
L 58.04922 95.5575 
L 58.422049 101.448 
L 152.002004 101.448 
L 152.374833 95.5575 
L 156.848775 95.5575 
L 157.221604 89.667 
L 158.712918 89.667 
L 159.458575 77.886 
L 159.831403 77.886 
L 160.204232 71.9955 
L 160.57706 71.9955 
L 162.814031 36.6525 
L 163.18686 36.6525 
L 163.932517 24.8715 
L 164.305345 24.8715 
L 164.678174 18.981 
L 165.423831 18.981 
L 165.796659 13.0905 
L 166.169488 13.0905 
L 166.542316 7.2 
L 177.727171 7.2 
L 177.727171 7.2 
" style="fill: none; stroke: #a6a6a6; stroke-width: 2; stroke-linecap: square"/>
   </g>
   <g id="line2d_12">
    <path d="M 16.665256 101.448 
L 30.459911 101.448 
L 30.832739 99.707206 
L 36.425167 99.707206 
L 36.797996 101.448 
L 47.610022 101.448 
L 47.982851 98.840753 
L 48.355679 95.085849 
L 53.575278 95.085849 
L 53.948107 97.693096 
L 54.320935 101.448 
L 55.812249 101.448 
L 56.185078 98.550699 
L 61.777506 98.550699 
L 62.150334 101.448 
L 70.352561 101.448 
L 71.843875 88.191563 
L 73.335189 88.191563 
L 74.453675 79.182434 
L 74.826503 79.182434 
L 75.944989 68.930859 
L 76.317817 68.930859 
L 77.809131 82.187295 
L 78.927617 82.187295 
L 79.300445 78.886181 
L 80.418931 87.89531 
L 80.791759 87.89531 
L 81.164588 89.07546 
L 81.910245 95.858129 
L 84.892873 95.858129 
L 85.265702 99.159244 
L 85.63853 99.159244 
L 86.011359 95.807708 
L 86.757016 95.807708 
L 87.129844 98.096464 
L 91.603786 98.096464 
L 91.976615 101.448 
L 92.722272 101.448 
L 93.467929 94.169479 
L 98.687528 94.169479 
L 99.060356 98.334465 
L 99.433185 97.595277 
L 100.178842 97.595277 
L 100.924499 88.689114 
L 101.297327 83.921872 
L 103.534298 83.921872 
L 103.907127 80.856191 
L 104.279955 78.961199 
L 105.025612 78.961199 
L 105.398441 82.813923 
L 106.144098 82.813923 
L 106.889755 91.720085 
L 107.262584 96.487327 
L 109.499555 96.487327 
L 109.872383 94.587823 
L 110.245212 91.472841 
L 110.61804 87.28881 
L 114.719154 87.28881 
L 115.464811 76.953159 
L 115.837639 76.819639 
L 116.210468 77.011336 
L 116.583296 75.959326 
L 117.328953 66.637307 
L 118.07461 58.455775 
L 120.68441 58.455775 
L 121.802895 73.890132 
L 122.175724 73.07658 
L 122.548552 75.617994 
L 122.921381 77.177326 
L 123.294209 75.616204 
L 123.667038 75.582677 
L 124.039866 79.250941 
L 127.768151 79.250941 
L 128.14098 80.938862 
L 128.513808 83.633491 
L 128.886637 87.421078 
L 129.632294 97.504094 
L 133.360579 97.504094 
L 133.733408 92.764336 
L 134.106236 96.708242 
L 134.479065 96.708242 
L 134.851893 92.569239 
L 138.953007 92.569239 
L 139.325835 87.29425 
L 139.698664 92.034009 
L 140.444321 92.034009 
L 140.817149 96.173011 
L 143.426949 96.173011 
L 144.918263 76.653511 
L 145.291091 76.723825 
L 147.528062 45.4174 
L 147.900891 45.4174 
L 149.392205 24.14679 
L 150.51069 38.680086 
L 150.883519 38.503734 
L 151.256347 37.8739 
L 152.002004 38.437818 
L 152.374833 38.424987 
L 153.12049 37.766334 
L 153.493318 37.087022 
L 153.866147 32.446891 
L 154.611804 33.513472 
L 155.357461 34.334753 
L 156.475947 20.207356 
L 156.848775 20.686853 
L 157.221604 21.808192 
L 157.967261 21.73182 
L 158.340089 22.1379 
L 159.085746 22.137793 
L 159.458575 21.799746 
L 159.831403 20.762013 
L 160.204232 20.386698 
L 160.57706 20.219911 
L 161.695546 18.278842 
L 162.068374 17.788579 
L 162.814031 15.920628 
L 163.18686 15.395129 
L 163.932517 15.155104 
L 164.305345 15.288213 
L 164.678174 14.701951 
L 165.423831 14.356932 
L 165.796659 14.478872 
L 167.287973 13.652158 
L 167.660802 13.254339 
L 168.03363 13.318859 
L 168.406459 13.999092 
L 169.152116 14.246129 
L 169.524944 14.265697 
L 169.897773 14.701949 
L 170.270601 14.186146 
L 170.64343 14.246714 
L 171.016258 13.897844 
L 171.389087 14.385568 
L 171.761915 14.64111 
L 172.880401 14.743507 
L 173.253229 15.710471 
L 173.626058 15.74154 
L 173.998886 15.381051 
L 174.371715 14.861313 
L 175.117372 14.390331 
L 175.4902 14.158575 
L 175.863029 13.30276 
L 176.235857 13.274484 
L 176.981514 13.39978 
L 177.727171 12.492159 
L 177.727171 12.492159 
" style="fill: none; stroke: #20978b; stroke-width: 2; stroke-linecap: square"/>
   </g>
   <g id="patch_3">
    <path d="M 10.7 101.448 
L 10.7 7.2 
" style="fill: none; stroke: #000000; stroke-width: 2; stroke-linejoin: miter; stroke-linecap: square"/>
   </g>
   <g id="patch_4">
    <path d="M 10.7 101.448 
L 178.1 101.448 
" style="fill: none; stroke: #000000; stroke-width: 2; stroke-linejoin: miter; stroke-linecap: square"/>
   </g>
  </g>
 </g>
</svg>
