<?xml version="1.0" encoding="utf-8" standalone="no"?>
<!DOCTYPE svg PUBLIC "-//W3C//DTD SVG 1.1//EN"
  "http://www.w3.org/Graphics/SVG/1.1/DTD/svg11.dtd">
<svg xmlns:xlink="http://www.w3.org/1999/xlink" width="185.3pt" height="112.148pt" viewBox="0 0 185.3 112.148" xmlns="http://www.w3.org/2000/svg" version="1.1">
 <metadata>
  <rdf:RDF xmlns:dc="http://purl.org/dc/elements/1.1/" xmlns:cc="http://creativecommons.org/ns#" xmlns:rdf="http://www.w3.org/1999/02/22-rdf-syntax-ns#">
   <cc:Work>
    <dc:type rdf:resource="http://purl.org/dc/dcmitype/StillImage"/>
    <dc:date>2025-05-15T20:54:53.375080</dc:date>
    <dc:format>image/svg+xml</dc:format>
    <dc:creator>
     <cc:Agent>
      <dc:title>Matplotlib v3.8.4, https://matplotlib.org/</dc:title>
     </cc:Agent>
    </dc:creator>
   </cc:Work>
  </rdf:RDF>
 </metadata>
 <defs>
  <style type="text/css">*{stroke-linejoin: round; stroke-linecap: butt}</style>
 </defs>
 <g id="figure_1">
  <g id="patch_1">
   <path d="M 0 112.148 
L 185.3 112.148 
L 185.3 0 
L 0 0 
L 0 112.148 
z
" style="fill: none"/>
  </g>
  <g id="axes_1">
   <g id="patch_2">
    <path d="M 10.7 101.448 
L 178.1 101.448 
L 178.1 7.2 
L 10.7 7.2 
L 10.7 101.448 
z
" style="fill: none"/>
   </g>
   <g id="matplotlib.axis_1">
    <g id="xtick_1">
     <g id="line2d_1">
      <defs>
       <path id="m536780e97f" d="M 0 0 
L 0 3.5 
" style="stroke: #000000; stroke-width: 0.8"/>
      </defs>
      <g>
       <use xlink:href="#m536780e97f" x="10.7" y="101.448" style="stroke: #000000; stroke-width: 0.8"/>
      </g>
     </g>
    </g>
    <g id="xtick_2">
     <g id="line2d_2">
      <g>
       <use xlink:href="#m536780e97f" x="44.127769" y="101.448" style="stroke: #000000; stroke-width: 0.8"/>
      </g>
     </g>
    </g>
    <g id="xtick_3">
     <g id="line2d_3">
      <g>
       <use xlink:href="#m536780e97f" x="77.555538" y="101.448" style="stroke: #000000; stroke-width: 0.8"/>
      </g>
     </g>
    </g>
    <g id="xtick_4">
     <g id="line2d_4">
      <g>
       <use xlink:href="#m536780e97f" x="110.983307" y="101.448" style="stroke: #000000; stroke-width: 0.8"/>
      </g>
     </g>
    </g>
    <g id="xtick_5">
     <g id="line2d_5">
      <g>
       <use xlink:href="#m536780e97f" x="144.411076" y="101.448" style="stroke: #000000; stroke-width: 0.8"/>
      </g>
     </g>
    </g>
    <g id="xtick_6">
     <g id="line2d_6">
      <g>
       <use xlink:href="#m536780e97f" x="177.838846" y="101.448" style="stroke: #000000; stroke-width: 0.8"/>
      </g>
     </g>
    </g>
   </g>
   <g id="matplotlib.axis_2">
    <g id="ytick_1">
     <g id="line2d_7">
      <defs>
       <path id="m7724829444" d="M 0 0 
L -3.5 0 
" style="stroke: #000000; stroke-width: 0.8"/>
      </defs>
      <g>
       <use xlink:href="#m7724829444" x="10.7" y="101.448" style="stroke: #000000; stroke-width: 0.8"/>
      </g>
     </g>
    </g>
    <g id="ytick_2">
     <g id="line2d_8">
      <g>
       <use xlink:href="#m7724829444" x="10.7" y="82.5984" style="stroke: #000000; stroke-width: 0.8"/>
      </g>
     </g>
    </g>
    <g id="ytick_3">
     <g id="line2d_9">
      <g>
       <use xlink:href="#m7724829444" x="10.7" y="63.7488" style="stroke: #000000; stroke-width: 0.8"/>
      </g>
     </g>
    </g>
    <g id="ytick_4">
     <g id="line2d_10">
      <g>
       <use xlink:href="#m7724829444" x="10.7" y="44.8992" style="stroke: #000000; stroke-width: 0.8"/>
      </g>
     </g>
    </g>
    <g id="ytick_5">
     <g id="line2d_11">
      <g>
       <use xlink:href="#m7724829444" x="10.7" y="26.0496" style="stroke: #000000; stroke-width: 0.8"/>
      </g>
     </g>
    </g>
    <g id="ytick_6">
     <g id="line2d_12">
      <g>
       <use xlink:href="#m7724829444" x="10.7" y="7.2" style="stroke: #000000; stroke-width: 0.8"/>
      </g>
     </g>
    </g>
   </g>
   <g id="line2d_13">
    <path d="M 14.878471 101.448 
L 17.490016 101.448 
L 17.75117 95.5575 
L 18.012324 95.5575 
L 18.273479 89.667 
L 21.146178 89.667 
L 21.407332 83.7765 
L 21.668487 83.7765 
L 21.929641 89.667 
L 22.190796 89.667 
L 22.45195 95.5575 
L 25.324649 95.5575 
L 25.585803 101.448 
L 32.898128 101.448 
L 33.681591 83.7765 
L 34.726209 83.7765 
L 34.987363 77.886 
L 37.076599 77.886 
L 37.860062 95.5575 
L 38.90468 95.5575 
L 39.165835 101.448 
L 51.178939 101.448 
L 51.440094 95.5575 
L 52.484711 95.5575 
L 52.745866 89.667 
L 53.00702 89.667 
L 53.268175 83.7765 
L 55.096256 83.7765 
L 55.35741 77.886 
L 57.185491 77.886 
L 57.446646 83.7765 
L 59.274727 83.7765 
L 59.797036 95.5575 
L 60.841654 95.5575 
L 61.102808 101.448 
L 68.676287 101.448 
L 68.937441 95.5575 
L 69.45975 95.5575 
L 69.720905 89.667 
L 69.982059 89.667 
L 70.243214 83.7765 
L 72.854758 83.7765 
L 73.115913 89.667 
L 73.638222 89.667 
L 73.899376 95.5575 
L 74.16053 89.667 
L 76.772075 89.667 
L 77.033229 83.7765 
L 78.077847 83.7765 
L 78.600156 95.5575 
L 80.950546 95.5575 
L 81.2117 101.448 
L 81.995164 101.448 
L 82.256318 95.5575 
L 84.084399 95.5575 
L 84.345554 89.667 
L 84.606708 89.667 
L 84.867863 83.7765 
L 85.651326 83.7765 
L 85.91248 77.886 
L 88.262871 77.886 
L 88.524025 83.7765 
L 88.785179 83.7765 
L 89.046334 89.667 
L 89.829797 89.667 
L 90.090952 95.5575 
L 90.352106 95.5575 
L 90.613261 101.448 
L 93.747114 101.448 
L 94.008268 95.5575 
L 98.186739 95.5575 
L 98.447894 89.667 
L 99.753666 89.667 
L 100.014821 83.7765 
L 101.059438 83.7765 
L 101.320593 77.886 
L 101.581747 77.886 
L 101.842902 71.9955 
L 102.104056 71.9955 
L 102.626365 83.7765 
L 103.932137 83.7765 
L 104.193292 89.667 
L 105.23791 89.667 
L 105.499064 95.5575 
L 105.760218 95.5575 
L 106.021373 101.448 
L 114.378315 101.448 
L 114.63947 95.5575 
L 116.206396 95.5575 
L 116.467551 89.667 
L 117.512168 89.667 
L 117.773323 83.7765 
L 118.556786 83.7765 
L 118.817941 89.667 
L 119.601404 89.667 
L 119.862559 83.7765 
L 120.384867 83.7765 
L 120.646022 89.667 
L 121.69064 89.667 
L 121.951794 95.5575 
L 123.779875 95.5575 
L 124.04103 101.448 
L 126.913729 101.448 
L 127.174883 95.5575 
L 127.436037 95.5575 
L 127.697192 89.667 
L 127.958346 89.667 
L 128.74181 71.9955 
L 129.264119 71.9955 
L 129.525273 66.105 
L 130.047582 66.105 
L 130.569891 54.324 
L 131.0922 54.324 
L 131.353354 60.2145 
L 131.614509 60.2145 
L 131.875663 66.105 
L 132.136817 60.2145 
L 132.920281 60.2145 
L 133.44259 48.4335 
L 133.703744 48.4335 
L 133.964899 42.543 
L 134.226053 42.543 
L 134.487207 48.4335 
L 134.748362 48.4335 
L 135.009516 42.543 
L 135.270671 42.543 
L 135.531825 36.6525 
L 136.054134 36.6525 
L 136.576443 48.4335 
L 136.837598 48.4335 
L 137.621061 66.105 
L 138.14337 66.105 
L 138.665679 54.324 
L 139.187988 54.324 
L 139.449142 48.4335 
L 139.710296 54.324 
L 139.971451 48.4335 
L 140.49376 48.4335 
L 140.754914 42.543 
L 141.277223 42.543 
L 141.538378 36.6525 
L 142.060686 36.6525 
L 143.627613 71.9955 
L 143.888768 66.105 
L 144.149922 71.9955 
L 144.411076 66.105 
L 144.672231 66.105 
L 145.19454 77.886 
L 147.54493 77.886 
L 147.806084 71.9955 
L 148.067239 71.9955 
L 148.328393 66.105 
L 148.589548 66.105 
L 148.850702 60.2145 
L 149.111856 60.2145 
L 149.634165 48.4335 
L 150.417629 48.4335 
L 151.723401 18.981 
L 153.029173 18.981 
L 153.290328 13.0905 
L 154.073791 13.0905 
L 154.334945 7.2 
L 154.857254 7.2 
L 155.118409 13.0905 
L 157.991108 13.0905 
L 158.252262 18.981 
L 159.035725 18.981 
L 159.29688 13.0905 
L 162.169579 13.0905 
L 162.430733 7.2 
L 162.953042 7.2 
L 163.214197 13.0905 
L 164.519969 13.0905 
L 164.781123 18.981 
L 168.69844 18.981 
L 168.959594 13.0905 
L 171.309984 13.0905 
L 171.571139 7.2 
L 174.443838 7.2 
L 174.704992 13.0905 
L 176.271919 13.0905 
L 176.533073 18.981 
L 177.838846 18.981 
L 177.838846 18.981 
" style="fill: none; stroke: #a6a6a6; stroke-width: 2; stroke-linecap: square"/>
   </g>
   <g id="line2d_14">
    <path d="M 14.878471 101.448 
L 16.706552 101.448 
L 16.967707 100.332402 
L 20.885023 100.332402 
L 21.146178 101.448 
L 24.541186 101.448 
L 24.80234 99.284666 
L 26.891576 99.284666 
L 27.15273 97.095208 
L 28.719657 97.095208 
L 28.980811 99.258541 
L 29.241966 97.44692 
L 31.070047 97.44692 
L 31.331201 99.636378 
L 33.159282 99.636378 
L 33.420437 101.448 
L 39.688144 101.448 
L 39.949298 99.276016 
L 41.777379 99.276016 
L 42.299688 94.215538 
L 42.560842 92.810904 
L 43.344306 92.810904 
L 43.60546 91.138385 
L 43.866615 91.138385 
L 44.127769 93.310369 
L 44.650078 86.542475 
L 44.911232 83.449518 
L 45.95585 83.449518 
L 46.478159 88.509996 
L 46.739314 89.91463 
L 47.522777 89.91463 
L 47.783931 89.54591 
L 48.30624 89.54591 
L 48.828549 96.313804 
L 49.089704 99.40676 
L 51.701248 99.40676 
L 51.962402 101.448 
L 55.096256 101.448 
L 55.35741 98.814054 
L 56.140874 98.814054 
L 56.402028 95.420635 
L 57.7078 95.420635 
L 57.968955 92.170883 
L 59.274727 92.170883 
L 59.535881 94.804829 
L 60.319345 94.804829 
L 60.580499 98.198248 
L 61.886271 98.198248 
L 62.147426 101.448 
L 65.020125 101.448 
L 65.803588 89.436308 
L 67.631669 89.436308 
L 67.892824 85.354858 
L 69.198596 85.354858 
L 69.45975 89.718402 
L 69.720905 88.07629 
L 69.982059 87.718227 
L 70.504368 79.187459 
L 71.81014 79.187459 
L 72.071295 83.268909 
L 73.638222 83.268909 
L 74.421685 97.972007 
L 74.682839 101.448 
L 79.122465 101.448 
L 79.644774 93.05489 
L 79.905928 90.483578 
L 82.778627 90.483578 
L 83.039782 86.653763 
L 83.300936 86.653763 
L 83.56209 87.34039 
L 83.823245 87.584006 
L 84.084399 86.160409 
L 84.345554 86.160409 
L 84.867863 78.250435 
L 85.390172 70.953723 
L 85.651326 67.875725 
L 85.91248 67.875725 
L 86.173635 63.740014 
L 86.957098 63.740014 
L 87.218253 67.56983 
L 87.479407 67.56983 
L 88.262871 79.027605 
L 88.524025 79.027605 
L 89.307488 88.019657 
L 89.568643 91.115399 
L 89.829797 90.43835 
L 90.090952 86.36183 
L 90.352106 90.49754 
L 93.224805 90.49754 
L 93.485959 93.616433 
L 93.747114 89.994537 
L 94.269423 97.826105 
L 97.664431 97.826105 
L 97.925585 101.448 
L 109.416381 101.448 
L 110.199844 89.366699 
L 110.460998 86.384881 
L 111.505616 86.384881 
L 111.766771 81.523627 
L 112.027925 79.352777 
L 112.28908 79.352777 
L 112.811388 70.349171 
L 113.594852 70.349171 
L 114.378315 82.430472 
L 114.63947 85.41229 
L 115.684087 85.41229 
L 115.945242 90.273544 
L 116.206396 92.444394 
L 116.467551 92.444394 
L 116.98986 101.448 
L 120.384867 101.448 
L 121.69064 76.948367 
L 122.212949 76.948367 
L 122.474103 72.59941 
L 124.04103 72.59941 
L 124.563339 63.687634 
L 124.824493 64.663458 
L 125.607956 79.204027 
L 125.869111 80.053097 
L 126.39142 70.508662 
L 126.652574 70.255983 
L 126.913729 66.155635 
L 128.219501 66.155635 
L 129.002964 78.629948 
L 129.525273 78.629948 
L 129.786427 73.353357 
L 130.308736 72.953477 
L 130.569891 73.050843 
L 131.0922 71.948599 
L 133.703744 24.415874 
L 133.964899 26.179344 
L 134.226053 26.68807 
L 134.487207 26.619742 
L 134.748362 26.040836 
L 135.531825 25.678763 
L 135.79298 24.459389 
L 136.054134 22.523392 
L 136.837598 20.528776 
L 137.359906 21.156 
L 137.621061 20.764548 
L 137.882215 19.520181 
L 138.404524 16.474625 
L 138.665679 15.634099 
L 138.926833 15.519161 
L 139.449142 16.086121 
L 139.710296 15.978005 
L 139.971451 16.210355 
L 140.232605 17.035175 
L 140.49376 17.185781 
L 140.754914 17.912516 
L 141.277223 18.478034 
L 141.538378 18.514997 
L 143.366459 56.801263 
L 143.888768 66.315888 
L 144.933385 86.652556 
L 145.716849 101.448 
L 147.283775 101.448 
L 148.589548 76.751229 
L 151.462246 15.921973 
L 151.723401 15.278919 
L 151.984555 15.413896 
L 152.506864 14.588776 
L 152.768019 14.405798 
L 153.290328 14.785452 
L 154.5961 17.400951 
L 155.118409 16.88057 
L 155.640718 17.020706 
L 155.901872 18.054556 
L 156.424181 17.771073 
L 156.685335 17.662061 
L 156.94649 16.998165 
L 157.468799 16.591797 
L 157.991108 15.620063 
L 158.513417 14.592435 
L 158.774571 14.448645 
L 159.29688 15.555856 
L 159.558034 15.614914 
L 159.819189 15.87138 
L 160.080343 15.201014 
L 160.602652 15.974417 
L 160.863807 15.634739 
L 161.124961 15.769534 
L 161.908424 15.668308 
L 162.169579 16.168356 
L 162.430733 16.298728 
L 163.214197 16.287268 
L 163.736505 15.820684 
L 163.99766 16.106803 
L 164.258814 16.145115 
L 164.781123 16.776855 
L 165.564587 19.066135 
L 165.825741 19.080345 
L 166.086895 21.354049 
L 166.34805 20.925606 
L 166.609204 20.838372 
L 167.131513 22.844009 
L 167.392668 22.169857 
L 167.653822 22.220372 
L 167.914977 22.41291 
L 168.437285 21.352219 
L 168.69844 21.268207 
L 168.959594 21.062922 
L 169.743058 18.094128 
L 170.004212 18.2569 
L 170.265367 16.196031 
L 170.787676 15.917963 
L 171.04883 15.166178 
L 171.309984 13.426841 
L 171.571139 13.363874 
L 172.354602 12.457071 
L 172.615757 12.208022 
L 173.138066 10.673065 
L 173.921529 10.970807 
L 174.443838 10.513794 
L 174.704992 10.656977 
L 174.966147 11.210745 
L 175.227301 11.1736 
L 175.74961 15.662482 
L 176.010764 17.002631 
L 176.533073 17.422143 
L 176.794228 18.127465 
L 177.577691 18.501955 
L 177.838846 18.886898 
L 177.838846 18.886898 
" style="fill: none; stroke: #20978b; stroke-width: 2; stroke-linecap: square"/>
   </g>
   <g id="patch_3">
    <path d="M 10.7 101.448 
L 10.7 7.2 
" style="fill: none; stroke: #000000; stroke-width: 2; stroke-linejoin: miter; stroke-linecap: square"/>
   </g>
   <g id="patch_4">
    <path d="M 10.7 101.448 
L 178.1 101.448 
" style="fill: none; stroke: #000000; stroke-width: 2; stroke-linejoin: miter; stroke-linecap: square"/>
   </g>
  </g>
 </g>
</svg>
