<?xml version="1.0" encoding="utf-8" standalone="no"?>
<!DOCTYPE svg PUBLIC "-//W3C//DTD SVG 1.1//EN"
  "http://www.w3.org/Graphics/SVG/1.1/DTD/svg11.dtd">
<svg xmlns:xlink="http://www.w3.org/1999/xlink" width="554.530313pt" height="246.086844pt" viewBox="0 0 554.530313 246.086844" xmlns="http://www.w3.org/2000/svg" version="1.1">
 <metadata>
  <rdf:RDF xmlns:dc="http://purl.org/dc/elements/1.1/" xmlns:cc="http://creativecommons.org/ns#" xmlns:rdf="http://www.w3.org/1999/02/22-rdf-syntax-ns#">
   <cc:Work>
    <dc:type rdf:resource="http://purl.org/dc/dcmitype/StillImage"/>
    <dc:date>2025-05-15T18:53:10.253860</dc:date>
    <dc:format>image/svg+xml</dc:format>
    <dc:creator>
     <cc:Agent>
      <dc:title>Matplotlib v3.8.4, https://matplotlib.org/</dc:title>
     </cc:Agent>
    </dc:creator>
   </cc:Work>
  </rdf:RDF>
 </metadata>
 <defs>
  <style type="text/css">*{stroke-linejoin: round; stroke-linecap: butt}</style>
 </defs>
 <g id="figure_1">
  <g id="patch_1">
   <path d="M 0 246.086844 
L 554.530313 246.086844 
L 554.530313 0 
L 0 0 
L 0 246.086844 
z
" style="fill: none"/>
  </g>
  <g id="axes_1">
   <g id="patch_2">
    <path d="M 58.03875 195.87825 
L 504.43875 195.87825 
L 504.43875 12.92625 
L 58.03875 12.92625 
L 58.03875 195.87825 
z
" style="fill: none"/>
   </g>
   <g id="matplotlib.axis_1">
    <g id="xtick_1">
     <g id="line2d_1">
      <defs>
       <path id="mfadf252454" d="M 0 0 
L 0 3.5 
" style="stroke: #000000; stroke-width: 0.8"/>
      </defs>
      <g>
       <use xlink:href="#mfadf252454" x="58.03875" y="195.87825" style="stroke: #000000; stroke-width: 0.8"/>
      </g>
     </g>
     <g id="text_1">
      <!-- 0 -->
      <g transform="translate(53.59 214.33075) scale(0.16 -0.16)">
       <defs>
        <path id="ArialMT-30" d="M 266 2259 
Q 266 3072 433 3567 
Q 600 4063 929 4331 
Q 1259 4600 1759 4600 
Q 2128 4600 2406 4451 
Q 2684 4303 2865 4023 
Q 3047 3744 3150 3342 
Q 3253 2941 3253 2259 
Q 3253 1453 3087 958 
Q 2922 463 2592 192 
Q 2263 -78 1759 -78 
Q 1097 -78 719 397 
Q 266 969 266 2259 
z
M 844 2259 
Q 844 1131 1108 757 
Q 1372 384 1759 384 
Q 2147 384 2411 759 
Q 2675 1134 2675 2259 
Q 2675 3391 2411 3762 
Q 2147 4134 1753 4134 
Q 1366 4134 1134 3806 
Q 844 3388 844 2259 
z
" transform="scale(0.015625)"/>
       </defs>
       <use xlink:href="#ArialMT-30"/>
      </g>
     </g>
    </g>
    <g id="xtick_2">
     <g id="line2d_2">
      <g>
       <use xlink:href="#mfadf252454" x="147.31875" y="195.87825" style="stroke: #000000; stroke-width: 0.8"/>
      </g>
     </g>
     <g id="text_2">
      <!-- 128 -->
      <g transform="translate(133.9725 214.33075) scale(0.16 -0.16)">
       <defs>
        <path id="ArialMT-31" d="M 2384 0 
L 1822 0 
L 1822 3584 
Q 1619 3391 1289 3197 
Q 959 3003 697 2906 
L 697 3450 
Q 1169 3672 1522 3987 
Q 1875 4303 2022 4600 
L 2384 4600 
L 2384 0 
z
" transform="scale(0.015625)"/>
        <path id="ArialMT-32" d="M 3222 541 
L 3222 0 
L 194 0 
Q 188 203 259 391 
Q 375 700 629 1000 
Q 884 1300 1366 1694 
Q 2113 2306 2375 2664 
Q 2638 3022 2638 3341 
Q 2638 3675 2398 3904 
Q 2159 4134 1775 4134 
Q 1369 4134 1125 3890 
Q 881 3647 878 3216 
L 300 3275 
Q 359 3922 746 4261 
Q 1134 4600 1788 4600 
Q 2447 4600 2831 4234 
Q 3216 3869 3216 3328 
Q 3216 3053 3103 2787 
Q 2991 2522 2730 2228 
Q 2469 1934 1863 1422 
Q 1356 997 1212 845 
Q 1069 694 975 541 
L 3222 541 
z
" transform="scale(0.015625)"/>
        <path id="ArialMT-38" d="M 1131 2484 
Q 781 2613 612 2850 
Q 444 3088 444 3419 
Q 444 3919 803 4259 
Q 1163 4600 1759 4600 
Q 2359 4600 2725 4251 
Q 3091 3903 3091 3403 
Q 3091 3084 2923 2848 
Q 2756 2613 2416 2484 
Q 2838 2347 3058 2040 
Q 3278 1734 3278 1309 
Q 3278 722 2862 322 
Q 2447 -78 1769 -78 
Q 1091 -78 675 323 
Q 259 725 259 1325 
Q 259 1772 486 2073 
Q 713 2375 1131 2484 
z
M 1019 3438 
Q 1019 3113 1228 2906 
Q 1438 2700 1772 2700 
Q 2097 2700 2305 2904 
Q 2513 3109 2513 3406 
Q 2513 3716 2298 3927 
Q 2084 4138 1766 4138 
Q 1444 4138 1231 3931 
Q 1019 3725 1019 3438 
z
M 838 1322 
Q 838 1081 952 856 
Q 1066 631 1291 507 
Q 1516 384 1775 384 
Q 2178 384 2440 643 
Q 2703 903 2703 1303 
Q 2703 1709 2433 1975 
Q 2163 2241 1756 2241 
Q 1359 2241 1098 1978 
Q 838 1716 838 1322 
z
" transform="scale(0.015625)"/>
       </defs>
       <use xlink:href="#ArialMT-31"/>
       <use xlink:href="#ArialMT-32" x="55.615234"/>
       <use xlink:href="#ArialMT-38" x="111.230469"/>
      </g>
     </g>
    </g>
    <g id="xtick_3">
     <g id="line2d_3">
      <g>
       <use xlink:href="#mfadf252454" x="236.59875" y="195.87825" style="stroke: #000000; stroke-width: 0.8"/>
      </g>
     </g>
     <g id="text_3">
      <!-- 256 -->
      <g transform="translate(223.2525 214.33075) scale(0.16 -0.16)">
       <defs>
        <path id="ArialMT-35" d="M 266 1200 
L 856 1250 
Q 922 819 1161 601 
Q 1400 384 1738 384 
Q 2144 384 2425 690 
Q 2706 997 2706 1503 
Q 2706 1984 2436 2262 
Q 2166 2541 1728 2541 
Q 1456 2541 1237 2417 
Q 1019 2294 894 2097 
L 366 2166 
L 809 4519 
L 3088 4519 
L 3088 3981 
L 1259 3981 
L 1013 2750 
Q 1425 3038 1878 3038 
Q 2478 3038 2890 2622 
Q 3303 2206 3303 1553 
Q 3303 931 2941 478 
Q 2500 -78 1738 -78 
Q 1113 -78 717 272 
Q 322 622 266 1200 
z
" transform="scale(0.015625)"/>
        <path id="ArialMT-36" d="M 3184 3459 
L 2625 3416 
Q 2550 3747 2413 3897 
Q 2184 4138 1850 4138 
Q 1581 4138 1378 3988 
Q 1113 3794 959 3422 
Q 806 3050 800 2363 
Q 1003 2672 1297 2822 
Q 1591 2972 1913 2972 
Q 2475 2972 2870 2558 
Q 3266 2144 3266 1488 
Q 3266 1056 3080 686 
Q 2894 316 2569 119 
Q 2244 -78 1831 -78 
Q 1128 -78 684 439 
Q 241 956 241 2144 
Q 241 3472 731 4075 
Q 1159 4600 1884 4600 
Q 2425 4600 2770 4297 
Q 3116 3994 3184 3459 
z
M 888 1484 
Q 888 1194 1011 928 
Q 1134 663 1356 523 
Q 1578 384 1822 384 
Q 2178 384 2434 671 
Q 2691 959 2691 1453 
Q 2691 1928 2437 2201 
Q 2184 2475 1800 2475 
Q 1419 2475 1153 2201 
Q 888 1928 888 1484 
z
" transform="scale(0.015625)"/>
       </defs>
       <use xlink:href="#ArialMT-32"/>
       <use xlink:href="#ArialMT-35" x="55.615234"/>
       <use xlink:href="#ArialMT-36" x="111.230469"/>
      </g>
     </g>
    </g>
    <g id="xtick_4">
     <g id="line2d_4">
      <g>
       <use xlink:href="#mfadf252454" x="325.87875" y="195.87825" style="stroke: #000000; stroke-width: 0.8"/>
      </g>
     </g>
     <g id="text_4">
      <!-- 384 -->
      <g transform="translate(312.5325 214.33075) scale(0.16 -0.16)">
       <defs>
        <path id="ArialMT-33" d="M 269 1209 
L 831 1284 
Q 928 806 1161 595 
Q 1394 384 1728 384 
Q 2125 384 2398 659 
Q 2672 934 2672 1341 
Q 2672 1728 2419 1979 
Q 2166 2231 1775 2231 
Q 1616 2231 1378 2169 
L 1441 2663 
Q 1497 2656 1531 2656 
Q 1891 2656 2178 2843 
Q 2466 3031 2466 3422 
Q 2466 3731 2256 3934 
Q 2047 4138 1716 4138 
Q 1388 4138 1169 3931 
Q 950 3725 888 3313 
L 325 3413 
Q 428 3978 793 4289 
Q 1159 4600 1703 4600 
Q 2078 4600 2393 4439 
Q 2709 4278 2876 4000 
Q 3044 3722 3044 3409 
Q 3044 3113 2884 2869 
Q 2725 2625 2413 2481 
Q 2819 2388 3044 2092 
Q 3269 1797 3269 1353 
Q 3269 753 2831 336 
Q 2394 -81 1725 -81 
Q 1122 -81 723 278 
Q 325 638 269 1209 
z
" transform="scale(0.015625)"/>
        <path id="ArialMT-34" d="M 2069 0 
L 2069 1097 
L 81 1097 
L 81 1613 
L 2172 4581 
L 2631 4581 
L 2631 1613 
L 3250 1613 
L 3250 1097 
L 2631 1097 
L 2631 0 
L 2069 0 
z
M 2069 1613 
L 2069 3678 
L 634 1613 
L 2069 1613 
z
" transform="scale(0.015625)"/>
       </defs>
       <use xlink:href="#ArialMT-33"/>
       <use xlink:href="#ArialMT-38" x="55.615234"/>
       <use xlink:href="#ArialMT-34" x="111.230469"/>
      </g>
     </g>
    </g>
    <g id="xtick_5">
     <g id="line2d_5">
      <g>
       <use xlink:href="#mfadf252454" x="415.15875" y="195.87825" style="stroke: #000000; stroke-width: 0.8"/>
      </g>
     </g>
     <g id="text_5">
      <!-- 512 -->
      <g transform="translate(401.8125 214.33075) scale(0.16 -0.16)">
       <use xlink:href="#ArialMT-35"/>
       <use xlink:href="#ArialMT-31" x="55.615234"/>
       <use xlink:href="#ArialMT-32" x="111.230469"/>
      </g>
     </g>
    </g>
    <g id="xtick_6">
     <g id="line2d_6">
      <g>
       <use xlink:href="#mfadf252454" x="504.43875" y="195.87825" style="stroke: #000000; stroke-width: 0.8"/>
      </g>
     </g>
     <g id="text_6">
      <!-- 640 -->
      <g transform="translate(491.0925 214.33075) scale(0.16 -0.16)">
       <use xlink:href="#ArialMT-36"/>
       <use xlink:href="#ArialMT-34" x="55.615234"/>
       <use xlink:href="#ArialMT-30" x="111.230469"/>
      </g>
     </g>
    </g>
    <g id="text_7">
     <!-- Trial -->
     <g transform="translate(263.124922 235.110594) scale(0.19 -0.19)">
      <defs>
       <path id="ArialMT-54" d="M 1659 0 
L 1659 4041 
L 150 4041 
L 150 4581 
L 3781 4581 
L 3781 4041 
L 2266 4041 
L 2266 0 
L 1659 0 
z
" transform="scale(0.015625)"/>
       <path id="ArialMT-72" d="M 416 0 
L 416 3319 
L 922 3319 
L 922 2816 
Q 1116 3169 1280 3281 
Q 1444 3394 1641 3394 
Q 1925 3394 2219 3213 
L 2025 2691 
Q 1819 2813 1613 2813 
Q 1428 2813 1281 2702 
Q 1134 2591 1072 2394 
Q 978 2094 978 1738 
L 978 0 
L 416 0 
z
" transform="scale(0.015625)"/>
       <path id="ArialMT-69" d="M 425 3934 
L 425 4581 
L 988 4581 
L 988 3934 
L 425 3934 
z
M 425 0 
L 425 3319 
L 988 3319 
L 988 0 
L 425 0 
z
" transform="scale(0.015625)"/>
       <path id="ArialMT-61" d="M 2588 409 
Q 2275 144 1986 34 
Q 1697 -75 1366 -75 
Q 819 -75 525 192 
Q 231 459 231 875 
Q 231 1119 342 1320 
Q 453 1522 633 1644 
Q 813 1766 1038 1828 
Q 1203 1872 1538 1913 
Q 2219 1994 2541 2106 
Q 2544 2222 2544 2253 
Q 2544 2597 2384 2738 
Q 2169 2928 1744 2928 
Q 1347 2928 1158 2789 
Q 969 2650 878 2297 
L 328 2372 
Q 403 2725 575 2942 
Q 747 3159 1072 3276 
Q 1397 3394 1825 3394 
Q 2250 3394 2515 3294 
Q 2781 3194 2906 3042 
Q 3031 2891 3081 2659 
Q 3109 2516 3109 2141 
L 3109 1391 
Q 3109 606 3145 398 
Q 3181 191 3288 0 
L 2700 0 
Q 2613 175 2588 409 
z
M 2541 1666 
Q 2234 1541 1622 1453 
Q 1275 1403 1131 1340 
Q 988 1278 909 1158 
Q 831 1038 831 891 
Q 831 666 1001 516 
Q 1172 366 1500 366 
Q 1825 366 2078 508 
Q 2331 650 2450 897 
Q 2541 1088 2541 1459 
L 2541 1666 
z
" transform="scale(0.015625)"/>
       <path id="ArialMT-6c" d="M 409 0 
L 409 4581 
L 972 4581 
L 972 0 
L 409 0 
z
" transform="scale(0.015625)"/>
      </defs>
      <use xlink:href="#ArialMT-54"/>
      <use xlink:href="#ArialMT-72" x="57.333984"/>
      <use xlink:href="#ArialMT-69" x="90.634766"/>
      <use xlink:href="#ArialMT-61" x="112.851562"/>
      <use xlink:href="#ArialMT-6c" x="168.466797"/>
     </g>
    </g>
   </g>
   <g id="matplotlib.axis_2">
    <g id="ytick_1">
     <g id="line2d_7">
      <defs>
       <path id="mc9f721e694" d="M 0 0 
L -3.5 0 
" style="stroke: #000000; stroke-width: 0.8"/>
      </defs>
      <g>
       <use xlink:href="#mc9f721e694" x="58.03875" y="195.87825" style="stroke: #000000; stroke-width: 0.8"/>
      </g>
     </g>
     <g id="text_8">
      <!-- 0.0 -->
      <g transform="translate(28.79875 201.6045) scale(0.16 -0.16)">
       <defs>
        <path id="ArialMT-2e" d="M 581 0 
L 581 641 
L 1222 641 
L 1222 0 
L 581 0 
z
" transform="scale(0.015625)"/>
       </defs>
       <use xlink:href="#ArialMT-30"/>
       <use xlink:href="#ArialMT-2e" x="55.615234"/>
       <use xlink:href="#ArialMT-30" x="83.398438"/>
      </g>
     </g>
    </g>
    <g id="ytick_2">
     <g id="line2d_8">
      <g>
       <use xlink:href="#mc9f721e694" x="58.03875" y="159.28785" style="stroke: #000000; stroke-width: 0.8"/>
      </g>
     </g>
     <g id="text_9">
      <!-- 0.2 -->
      <g transform="translate(28.79875 165.0141) scale(0.16 -0.16)">
       <use xlink:href="#ArialMT-30"/>
       <use xlink:href="#ArialMT-2e" x="55.615234"/>
       <use xlink:href="#ArialMT-32" x="83.398438"/>
      </g>
     </g>
    </g>
    <g id="ytick_3">
     <g id="line2d_9">
      <g>
       <use xlink:href="#mc9f721e694" x="58.03875" y="122.69745" style="stroke: #000000; stroke-width: 0.8"/>
      </g>
     </g>
     <g id="text_10">
      <!-- 0.4 -->
      <g transform="translate(28.79875 128.4237) scale(0.16 -0.16)">
       <use xlink:href="#ArialMT-30"/>
       <use xlink:href="#ArialMT-2e" x="55.615234"/>
       <use xlink:href="#ArialMT-34" x="83.398438"/>
      </g>
     </g>
    </g>
    <g id="ytick_4">
     <g id="line2d_10">
      <g>
       <use xlink:href="#mc9f721e694" x="58.03875" y="86.10705" style="stroke: #000000; stroke-width: 0.8"/>
      </g>
     </g>
     <g id="text_11">
      <!-- 0.6 -->
      <g transform="translate(28.79875 91.8333) scale(0.16 -0.16)">
       <use xlink:href="#ArialMT-30"/>
       <use xlink:href="#ArialMT-2e" x="55.615234"/>
       <use xlink:href="#ArialMT-36" x="83.398438"/>
      </g>
     </g>
    </g>
    <g id="ytick_5">
     <g id="line2d_11">
      <g>
       <use xlink:href="#mc9f721e694" x="58.03875" y="49.51665" style="stroke: #000000; stroke-width: 0.8"/>
      </g>
     </g>
     <g id="text_12">
      <!-- 0.8 -->
      <g transform="translate(28.79875 55.2429) scale(0.16 -0.16)">
       <use xlink:href="#ArialMT-30"/>
       <use xlink:href="#ArialMT-2e" x="55.615234"/>
       <use xlink:href="#ArialMT-38" x="83.398438"/>
      </g>
     </g>
    </g>
    <g id="ytick_6">
     <g id="line2d_12">
      <g>
       <use xlink:href="#mc9f721e694" x="58.03875" y="12.92625" style="stroke: #000000; stroke-width: 0.8"/>
      </g>
     </g>
     <g id="text_13">
      <!-- 1.0 -->
      <g transform="translate(28.79875 18.6525) scale(0.16 -0.16)">
       <use xlink:href="#ArialMT-31"/>
       <use xlink:href="#ArialMT-2e" x="55.615234"/>
       <use xlink:href="#ArialMT-30" x="83.398438"/>
      </g>
     </g>
    </g>
    <g id="text_14">
     <!-- True-hypo probability -->
     <g transform="translate(20.799844 193.277719) rotate(-90) scale(0.19 -0.19)">
      <defs>
       <path id="ArialMT-75" d="M 2597 0 
L 2597 488 
Q 2209 -75 1544 -75 
Q 1250 -75 995 37 
Q 741 150 617 320 
Q 494 491 444 738 
Q 409 903 409 1263 
L 409 3319 
L 972 3319 
L 972 1478 
Q 972 1038 1006 884 
Q 1059 663 1231 536 
Q 1403 409 1656 409 
Q 1909 409 2131 539 
Q 2353 669 2445 892 
Q 2538 1116 2538 1541 
L 2538 3319 
L 3100 3319 
L 3100 0 
L 2597 0 
z
" transform="scale(0.015625)"/>
       <path id="ArialMT-65" d="M 2694 1069 
L 3275 997 
Q 3138 488 2766 206 
Q 2394 -75 1816 -75 
Q 1088 -75 661 373 
Q 234 822 234 1631 
Q 234 2469 665 2931 
Q 1097 3394 1784 3394 
Q 2450 3394 2872 2941 
Q 3294 2488 3294 1666 
Q 3294 1616 3291 1516 
L 816 1516 
Q 847 969 1125 678 
Q 1403 388 1819 388 
Q 2128 388 2347 550 
Q 2566 713 2694 1069 
z
M 847 1978 
L 2700 1978 
Q 2663 2397 2488 2606 
Q 2219 2931 1791 2931 
Q 1403 2931 1139 2672 
Q 875 2413 847 1978 
z
" transform="scale(0.015625)"/>
       <path id="ArialMT-2d" d="M 203 1375 
L 203 1941 
L 1931 1941 
L 1931 1375 
L 203 1375 
z
" transform="scale(0.015625)"/>
       <path id="ArialMT-68" d="M 422 0 
L 422 4581 
L 984 4581 
L 984 2938 
Q 1378 3394 1978 3394 
Q 2347 3394 2619 3248 
Q 2891 3103 3008 2847 
Q 3125 2591 3125 2103 
L 3125 0 
L 2563 0 
L 2563 2103 
Q 2563 2525 2380 2717 
Q 2197 2909 1863 2909 
Q 1613 2909 1392 2779 
Q 1172 2650 1078 2428 
Q 984 2206 984 1816 
L 984 0 
L 422 0 
z
" transform="scale(0.015625)"/>
       <path id="ArialMT-79" d="M 397 -1278 
L 334 -750 
Q 519 -800 656 -800 
Q 844 -800 956 -737 
Q 1069 -675 1141 -563 
Q 1194 -478 1313 -144 
Q 1328 -97 1363 -6 
L 103 3319 
L 709 3319 
L 1400 1397 
Q 1534 1031 1641 628 
Q 1738 1016 1872 1384 
L 2581 3319 
L 3144 3319 
L 1881 -56 
Q 1678 -603 1566 -809 
Q 1416 -1088 1222 -1217 
Q 1028 -1347 759 -1347 
Q 597 -1347 397 -1278 
z
" transform="scale(0.015625)"/>
       <path id="ArialMT-70" d="M 422 -1272 
L 422 3319 
L 934 3319 
L 934 2888 
Q 1116 3141 1344 3267 
Q 1572 3394 1897 3394 
Q 2322 3394 2647 3175 
Q 2972 2956 3137 2557 
Q 3303 2159 3303 1684 
Q 3303 1175 3120 767 
Q 2938 359 2589 142 
Q 2241 -75 1856 -75 
Q 1575 -75 1351 44 
Q 1128 163 984 344 
L 984 -1272 
L 422 -1272 
z
M 931 1641 
Q 931 1000 1190 694 
Q 1450 388 1819 388 
Q 2194 388 2461 705 
Q 2728 1022 2728 1688 
Q 2728 2322 2467 2637 
Q 2206 2953 1844 2953 
Q 1484 2953 1207 2617 
Q 931 2281 931 1641 
z
" transform="scale(0.015625)"/>
       <path id="ArialMT-6f" d="M 213 1659 
Q 213 2581 725 3025 
Q 1153 3394 1769 3394 
Q 2453 3394 2887 2945 
Q 3322 2497 3322 1706 
Q 3322 1066 3130 698 
Q 2938 331 2570 128 
Q 2203 -75 1769 -75 
Q 1072 -75 642 372 
Q 213 819 213 1659 
z
M 791 1659 
Q 791 1022 1069 705 
Q 1347 388 1769 388 
Q 2188 388 2466 706 
Q 2744 1025 2744 1678 
Q 2744 2294 2464 2611 
Q 2184 2928 1769 2928 
Q 1347 2928 1069 2612 
Q 791 2297 791 1659 
z
" transform="scale(0.015625)"/>
       <path id="ArialMT-20" transform="scale(0.015625)"/>
       <path id="ArialMT-62" d="M 941 0 
L 419 0 
L 419 4581 
L 981 4581 
L 981 2947 
Q 1338 3394 1891 3394 
Q 2197 3394 2470 3270 
Q 2744 3147 2920 2923 
Q 3097 2700 3197 2384 
Q 3297 2069 3297 1709 
Q 3297 856 2875 390 
Q 2453 -75 1863 -75 
Q 1275 -75 941 416 
L 941 0 
z
M 934 1684 
Q 934 1088 1097 822 
Q 1363 388 1816 388 
Q 2184 388 2453 708 
Q 2722 1028 2722 1663 
Q 2722 2313 2464 2622 
Q 2206 2931 1841 2931 
Q 1472 2931 1203 2611 
Q 934 2291 934 1684 
z
" transform="scale(0.015625)"/>
       <path id="ArialMT-74" d="M 1650 503 
L 1731 6 
Q 1494 -44 1306 -44 
Q 1000 -44 831 53 
Q 663 150 594 308 
Q 525 466 525 972 
L 525 2881 
L 113 2881 
L 113 3319 
L 525 3319 
L 525 4141 
L 1084 4478 
L 1084 3319 
L 1650 3319 
L 1650 2881 
L 1084 2881 
L 1084 941 
Q 1084 700 1114 631 
Q 1144 563 1211 522 
Q 1278 481 1403 481 
Q 1497 481 1650 503 
z
" transform="scale(0.015625)"/>
      </defs>
      <use xlink:href="#ArialMT-54"/>
      <use xlink:href="#ArialMT-72" x="57.333984"/>
      <use xlink:href="#ArialMT-75" x="90.634766"/>
      <use xlink:href="#ArialMT-65" x="146.25"/>
      <use xlink:href="#ArialMT-2d" x="201.865234"/>
      <use xlink:href="#ArialMT-68" x="235.166016"/>
      <use xlink:href="#ArialMT-79" x="290.78125"/>
      <use xlink:href="#ArialMT-70" x="340.78125"/>
      <use xlink:href="#ArialMT-6f" x="396.396484"/>
      <use xlink:href="#ArialMT-20" x="452.011719"/>
      <use xlink:href="#ArialMT-70" x="479.794922"/>
      <use xlink:href="#ArialMT-72" x="535.410156"/>
      <use xlink:href="#ArialMT-6f" x="568.710938"/>
      <use xlink:href="#ArialMT-62" x="624.326172"/>
      <use xlink:href="#ArialMT-61" x="679.941406"/>
      <use xlink:href="#ArialMT-62" x="735.556641"/>
      <use xlink:href="#ArialMT-69" x="791.171875"/>
      <use xlink:href="#ArialMT-6c" x="813.388672"/>
      <use xlink:href="#ArialMT-69" x="835.605469"/>
      <use xlink:href="#ArialMT-74" x="857.822266"/>
      <use xlink:href="#ArialMT-79" x="885.605469"/>
     </g>
    </g>
   </g>
   <g id="line2d_13">
    <path d="M 69.19875 184.44375 
L 76.87125 184.44375 
L 77.56875 195.87825 
L 88.03125 195.87825 
L 88.72875 184.44375 
L 99.19125 184.44375 
L 99.88875 195.87825 
L 143.83125 195.87825 
L 145.92375 161.57475 
L 146.62125 161.57475 
L 147.31875 150.14025 
L 148.01625 150.14025 
L 149.41125 127.27125 
L 150.10875 127.27125 
L 150.80625 115.83675 
L 152.89875 115.83675 
L 154.29375 92.96775 
L 155.68875 92.96775 
L 157.08375 115.83675 
L 157.78125 115.83675 
L 158.47875 127.27125 
L 159.17625 127.27125 
L 159.87375 138.70575 
L 160.57125 138.70575 
L 161.26875 127.27125 
L 161.96625 138.70575 
L 162.66375 138.70575 
L 164.05875 115.83675 
L 165.45375 138.70575 
L 169.63875 138.70575 
L 170.33625 127.27125 
L 171.73125 127.27125 
L 172.42875 138.70575 
L 173.82375 138.70575 
L 175.21875 161.57475 
L 177.31125 127.27125 
L 178.00875 138.70575 
L 182.19375 138.70575 
L 182.89125 150.14025 
L 184.98375 150.14025 
L 185.68125 138.70575 
L 187.07625 138.70575 
L 187.77375 150.14025 
L 190.56375 150.14025 
L 191.26125 138.70575 
L 191.95875 138.70575 
L 192.65625 150.14025 
L 196.14375 150.14025 
L 196.84125 161.57475 
L 197.53875 161.57475 
L 198.23625 173.00925 
L 199.63125 173.00925 
L 200.32875 161.57475 
L 201.72375 161.57475 
L 202.42125 173.00925 
L 203.81625 173.00925 
L 204.51375 161.57475 
L 210.09375 161.57475 
L 211.48875 184.44375 
L 214.97625 184.44375 
L 215.67375 195.87825 
L 219.85875 195.87825 
L 220.55625 184.44375 
L 231.01875 184.44375 
L 231.71625 195.87825 
L 232.41375 184.44375 
L 237.99375 184.44375 
L 238.69125 173.00925 
L 240.78375 173.00925 
L 241.48125 161.57475 
L 242.87625 161.57475 
L 243.57375 173.00925 
L 244.96875 150.14025 
L 247.06125 150.14025 
L 247.75875 138.70575 
L 248.45625 138.70575 
L 249.15375 127.27125 
L 249.85125 138.70575 
L 251.94375 138.70575 
L 252.64125 150.14025 
L 254.73375 150.14025 
L 256.12875 173.00925 
L 258.22125 173.00925 
L 258.91875 184.44375 
L 264.49875 184.44375 
L 265.89375 161.57475 
L 270.77625 161.57475 
L 271.47375 173.00925 
L 274.96125 173.00925 
L 275.65875 161.57475 
L 277.05375 184.44375 
L 283.33125 184.44375 
L 284.02875 173.00925 
L 286.12125 173.00925 
L 286.81875 184.44375 
L 288.91125 184.44375 
L 289.60875 173.00925 
L 293.09625 173.00925 
L 294.49125 150.14025 
L 295.18875 161.57475 
L 295.88625 150.14025 
L 296.58375 150.14025 
L 297.28125 138.70575 
L 300.07125 138.70575 
L 300.76875 150.14025 
L 304.25625 150.14025 
L 305.65125 173.00925 
L 306.34875 173.00925 
L 307.04625 184.44375 
L 307.74375 184.44375 
L 308.44125 195.87825 
L 309.13875 184.44375 
L 311.92875 184.44375 
L 312.62625 173.00925 
L 315.41625 173.00925 
L 319.60125 104.40225 
L 320.29875 104.40225 
L 322.39125 70.09875 
L 323.08875 70.09875 
L 323.78625 81.53325 
L 324.48375 70.09875 
L 327.27375 70.09875 
L 327.97125 81.53325 
L 329.36625 81.53325 
L 330.06375 92.96775 
L 331.45875 92.96775 
L 332.85375 115.83675 
L 333.55125 115.83675 
L 334.94625 92.96775 
L 336.34125 92.96775 
L 337.73625 70.09875 
L 339.13125 70.09875 
L 339.82875 81.53325 
L 341.22375 81.53325 
L 341.92125 92.96775 
L 342.61875 92.96775 
L 344.01375 70.09875 
L 345.40875 92.96775 
L 346.10625 92.96775 
L 346.80375 104.40225 
L 347.50125 92.96775 
L 348.89625 115.83675 
L 349.59375 115.83675 
L 350.29125 104.40225 
L 350.98875 104.40225 
L 351.68625 115.83675 
L 353.08125 115.83675 
L 355.17375 150.14025 
L 358.66125 150.14025 
L 359.35875 138.70575 
L 360.05625 138.70575 
L 361.45125 161.57475 
L 362.14875 161.57475 
L 364.24125 127.27125 
L 364.93875 127.27125 
L 366.33375 104.40225 
L 367.03125 104.40225 
L 367.72875 92.96775 
L 373.30875 92.96775 
L 375.40125 127.27125 
L 376.79625 127.27125 
L 377.49375 138.70575 
L 378.88875 138.70575 
L 379.58625 150.14025 
L 380.28375 138.70575 
L 380.98125 138.70575 
L 381.67875 150.14025 
L 385.86375 81.53325 
L 389.35125 81.53325 
L 390.04875 92.96775 
L 390.74625 92.96775 
L 392.14125 115.83675 
L 392.83875 115.83675 
L 397.02375 184.44375 
L 397.72125 184.44375 
L 398.41875 173.00925 
L 399.11625 173.00925 
L 399.81375 161.57475 
L 403.30125 161.57475 
L 404.69625 138.70575 
L 406.78875 138.70575 
L 408.88125 104.40225 
L 410.97375 104.40225 
L 413.76375 58.66425 
L 415.85625 58.66425 
L 416.55375 47.22975 
L 417.25125 47.22975 
L 417.94875 35.79525 
L 420.73875 35.79525 
L 421.43625 47.22975 
L 424.92375 47.22975 
L 425.62125 35.79525 
L 427.71375 35.79525 
L 428.41125 24.36075 
L 431.89875 24.36075 
L 432.59625 12.92625 
L 433.29375 24.36075 
L 440.96625 24.36075 
L 441.66375 35.79525 
L 443.75625 35.79525 
L 444.45375 24.36075 
L 452.12625 24.36075 
L 452.82375 12.92625 
L 454.21875 12.92625 
L 454.91625 24.36075 
L 465.37875 24.36075 
L 466.07625 12.92625 
L 503.74125 12.92625 
L 503.74125 12.92625 
" style="fill: none; stroke: #a6a6a6; stroke-width: 2; stroke-linecap: square"/>
   </g>
   <g id="line2d_14">
    <path d="M 69.19875 177.862989 
L 74.77875 177.862989 
L 75.47625 176.707089 
L 76.17375 179.547014 
L 76.87125 179.547014 
L 77.56875 184.402592 
L 78.26625 184.402592 
L 78.96375 186.200657 
L 79.66125 191.976486 
L 80.35875 194.72235 
L 81.75375 194.72235 
L 82.45125 192.969699 
L 83.14875 190.793808 
L 84.54375 190.793808 
L 85.24125 189.208767 
L 85.93875 189.208767 
L 87.33375 187.684591 
L 88.03125 186.217022 
L 88.72875 183.125073 
L 89.42625 183.125073 
L 90.12375 178.071422 
L 90.82125 178.071422 
L 91.51875 175.553787 
L 92.21625 175.553787 
L 92.91375 173.221835 
L 93.61125 172.664357 
L 94.30875 170.804987 
L 95.70375 170.804987 
L 96.40125 172.390028 
L 97.09875 172.390028 
L 97.79625 174.256586 
L 98.49375 172.664967 
L 99.19125 174.132536 
L 99.88875 177.224485 
L 100.58625 174.609529 
L 101.28375 179.663179 
L 101.98125 176.315907 
L 102.67875 178.833542 
L 103.37625 174.749674 
L 104.77125 179.391756 
L 105.46875 183.427016 
L 108.95625 183.427016 
L 109.65375 185.832154 
L 111.04875 185.832154 
L 111.74625 188.44711 
L 112.44375 188.44711 
L 113.14125 191.794382 
L 113.83875 191.794382 
L 114.53625 195.87825 
L 115.93125 195.87825 
L 118.02375 183.558068 
L 119.41875 183.558068 
L 120.11625 181.4971 
L 127.09125 181.4971 
L 129.18375 193.817282 
L 130.57875 193.817282 
L 131.27625 195.87825 
L 137.55375 195.87825 
L 138.25125 190.063736 
L 145.22625 190.063736 
L 145.92375 184.698184 
L 148.71375 184.698184 
L 149.41125 190.512698 
L 156.38625 190.512698 
L 157.08375 195.87825 
L 173.82375 195.87825 
L 174.52125 191.904526 
L 184.28625 191.904526 
L 184.98375 185.198267 
L 185.68125 183.181215 
L 186.37875 177.564973 
L 195.44625 177.564973 
L 196.84125 190.262007 
L 197.53875 195.87825 
L 198.23625 195.87825 
L 198.93375 188.327492 
L 201.02625 188.327492 
L 201.72375 181.314108 
L 202.42125 171.913869 
L 203.11875 167.58474 
L 203.81625 160.541921 
L 208.00125 160.541921 
L 208.69875 151.950857 
L 209.39625 144.96306 
L 210.09375 146.064373 
L 210.79125 146.064373 
L 211.48875 137.294169 
L 212.18625 129.983526 
L 212.88375 136.99691 
L 213.58125 139.020952 
L 214.27875 135.908975 
L 214.97625 135.549457 
L 215.67375 135.549457 
L 216.37125 126.268599 
L 217.06875 123.698695 
L 219.16125 123.698695 
L 219.85875 132.289759 
L 221.25375 145.727002 
L 221.95125 145.727002 
L 222.64875 154.497205 
L 223.34625 161.807848 
L 224.04375 161.807848 
L 224.74125 167.649629 
L 226.13625 182.493073 
L 226.83375 182.493073 
L 227.53125 191.77393 
L 228.22875 194.343834 
L 228.92625 186.863959 
L 229.62375 182.006515 
L 230.32125 182.006515 
L 231.01875 175.13606 
L 231.71625 170.142831 
L 233.11125 152.535192 
L 233.80875 143.430903 
L 234.50625 135.815478 
L 235.20375 135.815478 
L 235.90125 137.349894 
L 237.29625 137.349894 
L 237.99375 132.099001 
L 239.38875 117.383266 
L 240.08625 115.584521 
L 240.78375 114.790792 
L 241.48125 109.549115 
L 242.17875 116.41957 
L 242.87625 121.412799 
L 243.57375 130.839823 
L 244.27125 131.133647 
L 244.96875 133.220953 
L 245.66625 131.255347 
L 247.75875 103.729167 
L 248.45625 103.729167 
L 249.15375 98.805724 
L 249.85125 97.052659 
L 250.54875 98.183056 
L 251.24625 107.461675 
L 251.94375 106.074302 
L 252.64125 105.457128 
L 254.03625 91.651629 
L 254.73375 91.651629 
L 255.43125 91.901678 
L 256.12875 91.539894 
L 256.82625 93.774518 
L 257.52375 95.01198 
L 258.22125 105.136008 
L 258.91875 113.466846 
L 259.61625 113.466846 
L 261.01125 132.423371 
L 261.70875 138.979585 
L 262.40625 138.979585 
L 263.10375 146.018133 
L 263.80125 151.876983 
L 265.19625 145.538163 
L 265.89375 136.443974 
L 266.59125 137.47927 
L 268.68375 160.038296 
L 274.96125 160.038296 
L 277.05375 189.276805 
L 277.75125 195.87825 
L 281.23875 195.87825 
L 281.93625 190.768422 
L 282.63375 190.768422 
L 284.02875 174.810397 
L 286.12125 174.810397 
L 288.21375 146.028979 
L 289.60875 126.751262 
L 290.30625 118.24011 
L 292.39875 87.008028 
L 293.09625 81.850454 
L 293.79375 71.234559 
L 294.49125 68.693327 
L 295.18875 66.672115 
L 297.28125 35.744908 
L 297.97875 36.338203 
L 298.67625 38.010716 
L 300.07125 58.105173 
L 300.76875 58.445757 
L 301.46625 59.286644 
L 304.95375 111.402023 
L 305.65125 114.185526 
L 306.34875 118.677341 
L 307.04625 124.920951 
L 307.74375 135.203842 
L 308.44125 139.824284 
L 309.13875 148.390114 
L 309.83625 154.038521 
L 310.53375 150.765955 
L 311.23125 150.765955 
L 311.92875 153.005644 
L 312.62625 152.80607 
L 316.11375 152.80607 
L 316.81125 160.371796 
L 317.50875 166.051221 
L 318.20625 170.684998 
L 318.90375 170.684998 
L 319.60125 165.036755 
L 320.29875 155.248699 
L 320.99625 150.114105 
L 321.69375 153.386671 
L 322.39125 153.386671 
L 323.08875 159.85175 
L 323.78625 167.721589 
L 327.97125 167.721589 
L 330.06375 135.040155 
L 330.76125 134.691966 
L 331.45875 133.18435 
L 332.15625 130.831489 
L 334.94625 91.032065 
L 339.13125 91.032065 
L 344.01375 165.763044 
L 345.40875 184.93476 
L 346.10625 195.87825 
L 348.19875 195.87825 
L 350.98875 156.952764 
L 352.38375 140.71764 
L 353.77875 140.71764 
L 355.17375 121.492111 
L 356.56875 105.910642 
L 359.35875 71.851018 
L 360.05625 81.937538 
L 360.75375 81.079259 
L 361.45125 81.855369 
L 362.14875 82.962879 
L 362.84625 83.0956 
L 363.54375 91.636987 
L 364.93875 75.172324 
L 365.63625 75.375008 
L 366.33375 75.442731 
L 367.03125 71.469604 
L 367.72875 68.15938 
L 368.42625 65.529304 
L 369.12375 63.557426 
L 370.51875 56.506497 
L 371.21625 45.108395 
L 371.91375 43.938755 
L 372.61125 41.577924 
L 373.30875 38.812536 
L 374.00625 34.951105 
L 374.70375 23.571992 
L 375.40125 21.094909 
L 376.09875 17.264145 
L 376.79625 15.51192 
L 377.49375 13.380197 
L 379.58625 13.538767 
L 380.28375 14.809211 
L 380.98125 15.394854 
L 383.77125 22.660674 
L 384.46875 24.113261 
L 385.16625 25.036152 
L 385.86375 26.71941 
L 386.56125 31.839714 
L 388.65375 66.060052 
L 389.35125 67.175124 
L 390.74625 68.793596 
L 391.44375 68.696688 
L 392.14125 69.459052 
L 393.53625 69.527696 
L 394.23375 70.900317 
L 397.02375 110.645128 
L 397.72125 116.916065 
L 399.81375 116.916065 
L 401.20875 137.748425 
L 401.90625 137.187448 
L 402.60375 137.650646 
L 403.30125 139.932492 
L 403.99875 141.599996 
L 404.69625 139.728485 
L 405.39375 136.439399 
L 412.36875 22.410462 
L 413.06625 22.448043 
L 413.76375 21.140895 
L 415.15875 13.959302 
L 420.04125 13.922279 
L 420.73875 14.402262 
L 421.43625 15.130487 
L 422.13375 18.644211 
L 424.22625 24.870893 
L 424.92375 26.846271 
L 425.62125 30.898585 
L 426.31875 42.333085 
L 428.41125 42.396776 
L 429.10875 43.335553 
L 430.50375 44.508369 
L 431.20125 44.411339 
L 431.89875 43.931356 
L 432.59625 43.203131 
L 433.29375 39.689408 
L 436.08375 30.594311 
L 436.78125 26.562181 
L 437.47875 15.144372 
L 439.57125 15.103534 
L 440.26875 14.167342 
L 441.66375 13.080831 
L 442.36125 14.541545 
L 443.05875 17.519851 
L 443.75625 22.219201 
L 444.45375 24.798761 
L 445.15125 26.108799 
L 445.84875 26.745519 
L 446.54625 27.65399 
L 448.63875 28.546868 
L 452.82375 28.435124 
L 453.52125 26.968448 
L 454.21875 23.990141 
L 454.91625 19.290792 
L 455.61375 16.711232 
L 456.31125 15.401194 
L 457.00875 14.764473 
L 457.70625 13.856002 
L 459.79875 12.92625 
L 503.74125 12.92625 
L 503.74125 12.92625 
" style="fill: none; stroke: #20978b; stroke-width: 2; stroke-linecap: square"/>
   </g>
   <g id="line2d_15">
    <path d="M 102.67875 195.87825 
L 102.67875 12.92625 
" clip-path="url(#p68b7777c1e)" style="fill: none; stroke-dasharray: 3.7,1.6; stroke-dashoffset: 0; stroke: #808080; stroke-opacity: 0.3"/>
   </g>
   <g id="line2d_16">
    <path d="M 147.31875 195.87825 
L 147.31875 12.92625 
" clip-path="url(#p68b7777c1e)" style="fill: none; stroke-dasharray: 3.7,1.6; stroke-dashoffset: 0; stroke: #808080; stroke-opacity: 0.3"/>
   </g>
   <g id="line2d_17">
    <path d="M 191.95875 195.87825 
L 191.95875 12.92625 
" clip-path="url(#p68b7777c1e)" style="fill: none; stroke-dasharray: 3.7,1.6; stroke-dashoffset: 0; stroke: #808080; stroke-opacity: 0.3"/>
   </g>
   <g id="line2d_18">
    <path d="M 236.59875 195.87825 
L 236.59875 12.92625 
" clip-path="url(#p68b7777c1e)" style="fill: none; stroke-dasharray: 3.7,1.6; stroke-dashoffset: 0; stroke: #808080; stroke-opacity: 0.3"/>
   </g>
   <g id="line2d_19">
    <path d="M 281.23875 195.87825 
L 281.23875 12.92625 
" clip-path="url(#p68b7777c1e)" style="fill: none; stroke-dasharray: 3.7,1.6; stroke-dashoffset: 0; stroke: #808080; stroke-opacity: 0.3"/>
   </g>
   <g id="line2d_20">
    <path d="M 325.87875 195.87825 
L 325.87875 12.92625 
" clip-path="url(#p68b7777c1e)" style="fill: none; stroke-dasharray: 3.7,1.6; stroke-dashoffset: 0; stroke: #808080; stroke-opacity: 0.3"/>
   </g>
   <g id="line2d_21">
    <path d="M 370.51875 195.87825 
L 370.51875 12.92625 
" clip-path="url(#p68b7777c1e)" style="fill: none; stroke-dasharray: 3.7,1.6; stroke-dashoffset: 0; stroke: #808080; stroke-opacity: 0.3"/>
   </g>
   <g id="line2d_22">
    <path d="M 415.15875 195.87825 
L 415.15875 12.92625 
" clip-path="url(#p68b7777c1e)" style="fill: none; stroke-dasharray: 3.7,1.6; stroke-dashoffset: 0; stroke: #808080; stroke-opacity: 0.3"/>
   </g>
   <g id="line2d_23">
    <path d="M 459.79875 195.87825 
L 459.79875 12.92625 
" clip-path="url(#p68b7777c1e)" style="fill: none; stroke-dasharray: 3.7,1.6; stroke-dashoffset: 0; stroke: #808080; stroke-opacity: 0.3"/>
   </g>
   <g id="patch_3">
    <path d="M 58.03875 195.87825 
L 58.03875 12.92625 
" style="fill: none; stroke: #000000; stroke-width: 2; stroke-linejoin: miter; stroke-linecap: square"/>
   </g>
   <g id="patch_4">
    <path d="M 58.03875 195.87825 
L 504.43875 195.87825 
" style="fill: none; stroke: #000000; stroke-width: 2; stroke-linejoin: miter; stroke-linecap: square"/>
   </g>
   <g id="text_15">
    <!-- S14 -->
    <g transform="translate(76.022375 36.39405) scale(0.2 -0.2)">
     <defs>
      <path id="ArialMT-53" d="M 288 1472 
L 859 1522 
Q 900 1178 1048 958 
Q 1197 738 1509 602 
Q 1822 466 2213 466 
Q 2559 466 2825 569 
Q 3091 672 3220 851 
Q 3350 1031 3350 1244 
Q 3350 1459 3225 1620 
Q 3100 1781 2813 1891 
Q 2628 1963 1997 2114 
Q 1366 2266 1113 2400 
Q 784 2572 623 2826 
Q 463 3081 463 3397 
Q 463 3744 659 4045 
Q 856 4347 1234 4503 
Q 1613 4659 2075 4659 
Q 2584 4659 2973 4495 
Q 3363 4331 3572 4012 
Q 3781 3694 3797 3291 
L 3216 3247 
Q 3169 3681 2898 3903 
Q 2628 4125 2100 4125 
Q 1550 4125 1298 3923 
Q 1047 3722 1047 3438 
Q 1047 3191 1225 3031 
Q 1400 2872 2139 2705 
Q 2878 2538 3153 2413 
Q 3553 2228 3743 1945 
Q 3934 1663 3934 1294 
Q 3934 928 3725 604 
Q 3516 281 3123 101 
Q 2731 -78 2241 -78 
Q 1619 -78 1198 103 
Q 778 284 539 648 
Q 300 1013 288 1472 
z
" transform="scale(0.015625)"/>
     </defs>
     <use xlink:href="#ArialMT-53"/>
     <use xlink:href="#ArialMT-31" x="66.699219"/>
     <use xlink:href="#ArialMT-34" x="122.314453"/>
    </g>
   </g>
   <g id="legend_1">
    <g id="patch_5">
     <path d="M 447.97875 186.280987 
L 544.330312 186.280987 
Q 547.330312 186.280987 547.330312 183.280987 
L 547.330312 142.34505 
Q 547.330312 139.34505 544.330312 139.34505 
L 447.97875 139.34505 
Q 444.97875 139.34505 444.97875 142.34505 
L 444.97875 183.280987 
Q 444.97875 186.280987 447.97875 186.280987 
L 447.97875 186.280987 
z
" style="fill: none; opacity: 0"/>
    </g>
    <g id="line2d_24">
     <path d="M 450.97875 150.831769 
L 465.97875 150.831769 
L 480.97875 150.831769 
" style="fill: none; stroke: #a6a6a6; stroke-width: 2; stroke-linecap: square"/>
    </g>
    <g id="text_16">
     <!-- Human -->
     <g transform="translate(492.97875 156.081769) scale(0.15 -0.15)">
      <defs>
       <path id="ArialMT-48" d="M 513 0 
L 513 4581 
L 1119 4581 
L 1119 2700 
L 3500 2700 
L 3500 4581 
L 4106 4581 
L 4106 0 
L 3500 0 
L 3500 2159 
L 1119 2159 
L 1119 0 
L 513 0 
z
" transform="scale(0.015625)"/>
       <path id="ArialMT-6d" d="M 422 0 
L 422 3319 
L 925 3319 
L 925 2853 
Q 1081 3097 1340 3245 
Q 1600 3394 1931 3394 
Q 2300 3394 2536 3241 
Q 2772 3088 2869 2813 
Q 3263 3394 3894 3394 
Q 4388 3394 4653 3120 
Q 4919 2847 4919 2278 
L 4919 0 
L 4359 0 
L 4359 2091 
Q 4359 2428 4304 2576 
Q 4250 2725 4106 2815 
Q 3963 2906 3769 2906 
Q 3419 2906 3187 2673 
Q 2956 2441 2956 1928 
L 2956 0 
L 2394 0 
L 2394 2156 
Q 2394 2531 2256 2718 
Q 2119 2906 1806 2906 
Q 1569 2906 1367 2781 
Q 1166 2656 1075 2415 
Q 984 2175 984 1722 
L 984 0 
L 422 0 
z
" transform="scale(0.015625)"/>
       <path id="ArialMT-6e" d="M 422 0 
L 422 3319 
L 928 3319 
L 928 2847 
Q 1294 3394 1984 3394 
Q 2284 3394 2536 3286 
Q 2788 3178 2913 3003 
Q 3038 2828 3088 2588 
Q 3119 2431 3119 2041 
L 3119 0 
L 2556 0 
L 2556 2019 
Q 2556 2363 2490 2533 
Q 2425 2703 2258 2804 
Q 2091 2906 1866 2906 
Q 1506 2906 1245 2678 
Q 984 2450 984 1813 
L 984 0 
L 422 0 
z
" transform="scale(0.015625)"/>
      </defs>
      <use xlink:href="#ArialMT-48"/>
      <use xlink:href="#ArialMT-75" x="72.216797"/>
      <use xlink:href="#ArialMT-6d" x="127.832031"/>
      <use xlink:href="#ArialMT-61" x="211.132812"/>
      <use xlink:href="#ArialMT-6e" x="266.748047"/>
     </g>
    </g>
    <g id="line2d_25">
     <path d="M 450.97875 172.049737 
L 465.97875 172.049737 
L 480.97875 172.049737 
" style="fill: none; stroke: #20978b; stroke-width: 2; stroke-linecap: square"/>
    </g>
    <g id="text_17">
     <!-- PMH -->
     <g transform="translate(492.97875 177.299737) scale(0.15 -0.15)">
      <defs>
       <path id="ArialMT-50" d="M 494 0 
L 494 4581 
L 2222 4581 
Q 2678 4581 2919 4538 
Q 3256 4481 3484 4323 
Q 3713 4166 3852 3881 
Q 3991 3597 3991 3256 
Q 3991 2672 3619 2267 
Q 3247 1863 2275 1863 
L 1100 1863 
L 1100 0 
L 494 0 
z
M 1100 2403 
L 2284 2403 
Q 2872 2403 3119 2622 
Q 3366 2841 3366 3238 
Q 3366 3525 3220 3729 
Q 3075 3934 2838 4000 
Q 2684 4041 2272 4041 
L 1100 4041 
L 1100 2403 
z
" transform="scale(0.015625)"/>
       <path id="ArialMT-4d" d="M 475 0 
L 475 4581 
L 1388 4581 
L 2472 1338 
Q 2622 884 2691 659 
Q 2769 909 2934 1394 
L 4031 4581 
L 4847 4581 
L 4847 0 
L 4263 0 
L 4263 3834 
L 2931 0 
L 2384 0 
L 1059 3900 
L 1059 0 
L 475 0 
z
" transform="scale(0.015625)"/>
      </defs>
      <use xlink:href="#ArialMT-50"/>
      <use xlink:href="#ArialMT-4d" x="66.699219"/>
      <use xlink:href="#ArialMT-48" x="150"/>
     </g>
    </g>
   </g>
  </g>
 </g>
 <defs>
  <clipPath id="p68b7777c1e">
   <rect x="58.03875" y="12.92625" width="446.4" height="182.952"/>
  </clipPath>
 </defs>
</svg>
