<?xml version="1.0" encoding="utf-8" standalone="no"?>
<!DOCTYPE svg PUBLIC "-//W3C//DTD SVG 1.1//EN"
  "http://www.w3.org/Graphics/SVG/1.1/DTD/svg11.dtd">
<svg xmlns:xlink="http://www.w3.org/1999/xlink" width="185.3pt" height="112.148pt" viewBox="0 0 185.3 112.148" xmlns="http://www.w3.org/2000/svg" version="1.1">
 <metadata>
  <rdf:RDF xmlns:dc="http://purl.org/dc/elements/1.1/" xmlns:cc="http://creativecommons.org/ns#" xmlns:rdf="http://www.w3.org/1999/02/22-rdf-syntax-ns#">
   <cc:Work>
    <dc:type rdf:resource="http://purl.org/dc/dcmitype/StillImage"/>
    <dc:date>2025-05-15T10:16:42.540578</dc:date>
    <dc:format>image/svg+xml</dc:format>
    <dc:creator>
     <cc:Agent>
      <dc:title>Matplotlib v3.8.4, https://matplotlib.org/</dc:title>
     </cc:Agent>
    </dc:creator>
   </cc:Work>
  </rdf:RDF>
 </metadata>
 <defs>
  <style type="text/css">*{stroke-linejoin: round; stroke-linecap: butt}</style>
 </defs>
 <g id="figure_1">
  <g id="patch_1">
   <path d="M 0 112.148 
L 185.3 112.148 
L 185.3 0 
L 0 0 
L 0 112.148 
z
" style="fill: none"/>
  </g>
  <g id="axes_1">
   <g id="patch_2">
    <path d="M 10.7 101.448 
L 178.1 101.448 
L 178.1 7.2 
L 10.7 7.2 
L 10.7 101.448 
z
" style="fill: none"/>
   </g>
   <g id="matplotlib.axis_1">
    <g id="xtick_1">
     <g id="line2d_1">
      <defs>
       <path id="ma3d4edc457" d="M 0 0 
L 0 3.5 
" style="stroke: #000000; stroke-width: 0.8"/>
      </defs>
      <g>
       <use xlink:href="#ma3d4edc457" x="10.7" y="101.448" style="stroke: #000000; stroke-width: 0.8"/>
      </g>
     </g>
    </g>
    <g id="xtick_2">
     <g id="line2d_2">
      <g>
       <use xlink:href="#ma3d4edc457" x="44.18" y="101.448" style="stroke: #000000; stroke-width: 0.8"/>
      </g>
     </g>
    </g>
    <g id="xtick_3">
     <g id="line2d_3">
      <g>
       <use xlink:href="#ma3d4edc457" x="77.66" y="101.448" style="stroke: #000000; stroke-width: 0.8"/>
      </g>
     </g>
    </g>
    <g id="xtick_4">
     <g id="line2d_4">
      <g>
       <use xlink:href="#ma3d4edc457" x="111.14" y="101.448" style="stroke: #000000; stroke-width: 0.8"/>
      </g>
     </g>
    </g>
    <g id="xtick_5">
     <g id="line2d_5">
      <g>
       <use xlink:href="#ma3d4edc457" x="144.62" y="101.448" style="stroke: #000000; stroke-width: 0.8"/>
      </g>
     </g>
    </g>
    <g id="xtick_6">
     <g id="line2d_6">
      <g>
       <use xlink:href="#ma3d4edc457" x="178.1" y="101.448" style="stroke: #000000; stroke-width: 0.8"/>
      </g>
     </g>
    </g>
   </g>
   <g id="matplotlib.axis_2">
    <g id="ytick_1">
     <g id="line2d_7">
      <defs>
       <path id="m8de34f4111" d="M 0 0 
L -3.5 0 
" style="stroke: #000000; stroke-width: 0.8"/>
      </defs>
      <g>
       <use xlink:href="#m8de34f4111" x="10.7" y="101.448" style="stroke: #000000; stroke-width: 0.8"/>
      </g>
     </g>
    </g>
    <g id="ytick_2">
     <g id="line2d_8">
      <g>
       <use xlink:href="#m8de34f4111" x="10.7" y="82.5984" style="stroke: #000000; stroke-width: 0.8"/>
      </g>
     </g>
    </g>
    <g id="ytick_3">
     <g id="line2d_9">
      <g>
       <use xlink:href="#m8de34f4111" x="10.7" y="63.7488" style="stroke: #000000; stroke-width: 0.8"/>
      </g>
     </g>
    </g>
    <g id="ytick_4">
     <g id="line2d_10">
      <g>
       <use xlink:href="#m8de34f4111" x="10.7" y="44.8992" style="stroke: #000000; stroke-width: 0.8"/>
      </g>
     </g>
    </g>
    <g id="ytick_5">
     <g id="line2d_11">
      <g>
       <use xlink:href="#m8de34f4111" x="10.7" y="26.0496" style="stroke: #000000; stroke-width: 0.8"/>
      </g>
     </g>
    </g>
    <g id="ytick_6">
     <g id="line2d_12">
      <g>
       <use xlink:href="#m8de34f4111" x="10.7" y="7.2" style="stroke: #000000; stroke-width: 0.8"/>
      </g>
     </g>
    </g>
   </g>
   <g id="line2d_13">
    <path d="M 14.885 95.5575 
L 17.762187 95.5575 
L 18.02375 101.448 
L 21.947187 101.448 
L 22.20875 95.5575 
L 26.132188 95.5575 
L 26.39375 101.448 
L 42.872188 101.448 
L 43.656875 83.7765 
L 43.918438 83.7765 
L 44.18 77.886 
L 44.441563 77.886 
L 44.964687 66.105 
L 45.22625 66.105 
L 45.487813 60.2145 
L 46.2725 60.2145 
L 46.795625 48.4335 
L 47.31875 48.4335 
L 47.841875 60.2145 
L 48.103437 60.2145 
L 48.365 66.105 
L 48.626563 66.105 
L 48.888125 71.9955 
L 49.149687 71.9955 
L 49.41125 66.105 
L 49.672813 71.9955 
L 49.934375 71.9955 
L 50.4575 60.2145 
L 50.980625 71.9955 
L 52.55 71.9955 
L 52.811563 66.105 
L 53.334688 66.105 
L 53.59625 71.9955 
L 54.119375 71.9955 
L 54.6425 83.7765 
L 55.427188 66.105 
L 55.68875 71.9955 
L 57.258125 71.9955 
L 57.519688 77.886 
L 58.304375 77.886 
L 58.565938 71.9955 
L 59.089063 71.9955 
L 59.350625 77.886 
L 60.396875 77.886 
L 60.658438 71.9955 
L 60.92 71.9955 
L 61.181562 77.886 
L 62.489375 77.886 
L 62.750938 83.7765 
L 63.0125 83.7765 
L 63.274062 89.667 
L 63.797188 89.667 
L 64.05875 83.7765 
L 64.581875 83.7765 
L 64.843438 89.667 
L 65.366563 89.667 
L 65.628125 83.7765 
L 67.720625 83.7765 
L 68.24375 95.5575 
L 69.551563 95.5575 
L 69.813125 101.448 
L 71.3825 101.448 
L 71.644063 95.5575 
L 75.5675 95.5575 
L 75.829063 101.448 
L 76.090625 95.5575 
L 78.183125 95.5575 
L 78.444688 89.667 
L 79.229375 89.667 
L 79.490938 83.7765 
L 80.014063 83.7765 
L 80.275625 89.667 
L 80.79875 77.886 
L 81.583438 77.886 
L 81.845 71.9955 
L 82.106563 71.9955 
L 82.368125 66.105 
L 82.629688 71.9955 
L 83.414375 71.9955 
L 83.675938 77.886 
L 84.460625 77.886 
L 84.98375 89.667 
L 85.768438 89.667 
L 86.03 95.5575 
L 88.1225 95.5575 
L 88.645625 83.7765 
L 90.476563 83.7765 
L 90.738125 89.667 
L 92.045938 89.667 
L 92.3075 83.7765 
L 92.830625 95.5575 
L 95.184688 95.5575 
L 95.44625 89.667 
L 96.230938 89.667 
L 96.4925 95.5575 
L 97.277188 95.5575 
L 97.53875 89.667 
L 98.846563 89.667 
L 99.369688 77.886 
L 99.63125 83.7765 
L 99.892813 77.886 
L 100.154375 77.886 
L 100.415938 71.9955 
L 101.462188 71.9955 
L 101.72375 77.886 
L 103.031563 77.886 
L 103.554688 89.667 
L 103.81625 89.667 
L 104.077813 95.5575 
L 104.339375 95.5575 
L 104.600938 101.448 
L 104.8625 95.5575 
L 105.90875 95.5575 
L 106.170313 89.667 
L 107.216563 89.667 
L 108.785938 54.324 
L 109.0475 54.324 
L 109.832188 36.6525 
L 110.09375 36.6525 
L 110.355313 42.543 
L 110.616875 36.6525 
L 111.663125 36.6525 
L 111.924688 42.543 
L 112.447813 42.543 
L 112.709375 48.4335 
L 113.2325 48.4335 
L 113.755625 60.2145 
L 114.017188 60.2145 
L 114.540313 48.4335 
L 115.063438 48.4335 
L 115.586563 36.6525 
L 116.109688 36.6525 
L 116.37125 42.543 
L 116.894375 42.543 
L 117.155938 48.4335 
L 117.4175 48.4335 
L 117.940625 36.6525 
L 118.46375 48.4335 
L 118.725313 48.4335 
L 118.986875 54.324 
L 119.248438 48.4335 
L 119.771563 60.2145 
L 120.033125 60.2145 
L 120.294688 54.324 
L 120.55625 54.324 
L 120.817813 60.2145 
L 121.340938 60.2145 
L 122.125625 77.886 
L 123.433438 77.886 
L 123.695 71.9955 
L 123.956563 71.9955 
L 124.479688 83.7765 
L 124.74125 83.7765 
L 125.525938 66.105 
L 125.7875 66.105 
L 126.310625 54.324 
L 126.572188 54.324 
L 126.83375 48.4335 
L 128.92625 48.4335 
L 129.710938 66.105 
L 130.234063 66.105 
L 130.495625 71.9955 
L 131.01875 71.9955 
L 131.280313 77.886 
L 131.541875 71.9955 
L 131.803438 71.9955 
L 132.065 77.886 
L 133.634375 42.543 
L 134.942188 42.543 
L 135.20375 48.4335 
L 135.465313 48.4335 
L 135.988438 60.2145 
L 136.25 60.2145 
L 137.819375 95.5575 
L 138.080938 95.5575 
L 138.3425 89.667 
L 138.604062 89.667 
L 138.865625 83.7765 
L 140.173438 83.7765 
L 140.696562 71.9955 
L 141.48125 71.9955 
L 142.265938 54.324 
L 143.050625 54.324 
L 144.096875 30.762 
L 144.881563 30.762 
L 145.143125 24.8715 
L 145.404687 24.8715 
L 145.66625 18.981 
L 146.7125 18.981 
L 146.974063 24.8715 
L 148.281875 24.8715 
L 148.543438 18.981 
L 149.328125 18.981 
L 149.589687 13.0905 
L 150.8975 13.0905 
L 151.159063 7.2 
L 151.420625 13.0905 
L 154.297812 13.0905 
L 154.559375 18.981 
L 155.344063 18.981 
L 155.605625 13.0905 
L 158.482812 13.0905 
L 158.744375 7.2 
L 159.2675 7.2 
L 159.529063 13.0905 
L 163.4525 13.0905 
L 163.714063 7.2 
L 177.838437 7.2 
L 177.838437 7.2 
" style="fill: none; stroke: #a6a6a6; stroke-width: 2; stroke-linecap: square"/>
   </g>
   <g id="line2d_14">
    <path d="M 14.885 100.571931 
L 15.408125 100.571931 
L 15.669688 99.515435 
L 16.192812 99.515435 
L 16.454375 100.391505 
L 16.715937 99.898557 
L 19.593125 99.898557 
L 19.854688 100.955053 
L 20.11625 99.918299 
L 20.639375 99.918299 
L 20.900938 100.411246 
L 21.1625 100.411246 
L 21.424062 98.86215 
L 23.255 98.86215 
L 23.516562 97.038026 
L 24.039687 97.038026 
L 24.30125 98.07478 
L 25.3475 98.07478 
L 25.609063 99.623876 
L 27.44 99.623876 
L 27.701563 101.448 
L 29.794063 101.448 
L 30.055625 99.547569 
L 32.67125 99.547569 
L 32.932812 95.685822 
L 33.194375 93.500863 
L 33.7175 93.500863 
L 34.240625 92.010922 
L 34.76375 92.010922 
L 35.025312 89.560324 
L 36.85625 89.560324 
L 37.117812 93.422072 
L 37.379375 95.60703 
L 37.9025 95.60703 
L 38.164062 96.457889 
L 38.425625 98.997403 
L 38.94875 98.997403 
L 39.210313 100.14781 
L 40.518125 100.14781 
L 41.04125 94.897026 
L 41.302813 94.897026 
L 41.564375 92.383442 
L 42.349063 92.383442 
L 42.610625 88.30336 
L 42.872188 88.30336 
L 43.13375 84.603387 
L 43.395313 83.089864 
L 44.18 75.647738 
L 44.441563 75.647738 
L 44.703125 70.931925 
L 44.964687 69.64159 
L 45.22625 67.581518 
L 45.487813 64.140362 
L 45.749375 66.653946 
L 46.534063 66.653946 
L 46.795625 70.734028 
L 47.057187 65.228749 
L 47.31875 63.724281 
L 48.103437 56.973773 
L 48.365 59.44714 
L 48.626563 59.44714 
L 49.41125 72.764144 
L 49.672813 76.2053 
L 50.980625 76.2053 
L 51.50375 86.91502 
L 51.765313 89.932435 
L 52.026875 91.534696 
L 52.288438 96.626928 
L 52.55 93.780469 
L 52.811563 93.780469 
L 53.073125 90.542407 
L 53.334688 89.706965 
L 53.857813 89.706965 
L 54.119375 86.797298 
L 54.380938 85.13536 
L 55.68875 85.13536 
L 56.211875 89.956433 
L 56.473438 89.956433 
L 56.735 92.802892 
L 56.996563 92.802892 
L 57.258125 96.040953 
L 57.519688 96.876395 
L 57.78125 96.876395 
L 58.042813 93.050575 
L 58.304375 93.06161 
L 58.565938 91.679756 
L 61.96625 91.679756 
L 62.489375 98.404209 
L 63.0125 98.281717 
L 65.366563 98.281717 
L 65.889688 89.596625 
L 66.674375 89.596625 
L 66.935938 88.861971 
L 67.1975 88.861971 
L 67.720625 82.126398 
L 67.982188 82.126398 
L 68.24375 78.56938 
L 68.505313 78.56938 
L 69.028438 69.259524 
L 69.551563 69.259524 
L 69.813125 74.755362 
L 70.074688 73.879869 
L 70.859375 73.879869 
L 71.120938 77.780806 
L 71.3825 77.780806 
L 71.644063 79.494601 
L 71.905625 80.315525 
L 72.167188 80.315525 
L 72.42875 83.872542 
L 72.690313 79.496629 
L 73.213438 85.614432 
L 73.998125 85.614432 
L 74.259688 89.679179 
L 74.782813 89.679179 
L 75.305938 82.242101 
L 75.5675 77.518383 
L 75.829063 75.907038 
L 76.090625 78.362161 
L 76.352188 78.362161 
L 76.61375 72.789095 
L 76.875313 72.318968 
L 77.136875 71.078598 
L 78.967813 71.078598 
L 79.490938 78.515676 
L 80.014063 86.596471 
L 80.537188 86.596471 
L 81.321875 101.448 
L 83.675938 101.448 
L 83.9375 98.382551 
L 84.199063 98.382551 
L 84.460625 93.38512 
L 84.722188 93.38512 
L 85.768438 74.659269 
L 86.553125 74.659269 
L 87.337813 61.792676 
L 87.860938 61.792676 
L 88.1225 64.858125 
L 88.384063 59.834002 
L 88.645625 60.026736 
L 88.907188 58.171322 
L 89.16875 63.015536 
L 89.430313 64.475501 
L 89.953438 73.662324 
L 90.738125 73.662324 
L 91.26125 82.099688 
L 91.522813 81.689119 
L 91.784375 77.615292 
L 92.3075 77.615292 
L 92.830625 87.444112 
L 93.092188 89.299526 
L 93.35375 89.299526 
L 93.615313 92.534374 
L 95.44625 92.534374 
L 95.969375 101.448 
L 96.4925 101.448 
L 97.015625 92.368295 
L 97.277188 92.368295 
L 97.800313 82.114001 
L 98.061875 82.114001 
L 99.108125 60.769982 
L 99.369688 56.29787 
L 100.6775 56.29787 
L 100.939063 57.605891 
L 101.200625 57.610406 
L 101.462188 53.760899 
L 101.985313 56.675502 
L 102.246875 52.021631 
L 103.293125 73.36565 
L 103.554688 77.837761 
L 104.077813 77.837761 
L 104.339375 75.091439 
L 104.600938 75.091439 
L 104.8625 72.452182 
L 106.170313 91.408549 
L 106.431875 96.06242 
L 108.00125 96.06242 
L 108.262813 91.251169 
L 108.524375 89.6105 
L 108.785938 85.202698 
L 109.0475 83.99991 
L 109.832188 73.338403 
L 110.09375 68.698541 
L 110.355313 68.698541 
L 110.878438 60.377902 
L 111.401563 60.377902 
L 112.18625 44.36218 
L 112.447813 44.324349 
L 112.709375 43.309156 
L 112.970938 42.976648 
L 113.494063 40.063254 
L 113.755625 37.085351 
L 114.017188 36.026495 
L 114.27875 35.814796 
L 114.540313 30.479454 
L 115.063438 29.050635 
L 115.586563 17.701987 
L 115.848125 17.753111 
L 116.109688 17.618806 
L 116.37125 18.205659 
L 116.632813 23.054742 
L 117.155938 23.545477 
L 117.4175 25.944644 
L 118.46375 46.996861 
L 119.51 67.760291 
L 120.033125 69.492695 
L 120.55625 79.333226 
L 120.817813 79.333226 
L 121.340938 88.984985 
L 121.6025 87.138131 
L 122.125625 78.704473 
L 122.910313 78.704473 
L 123.171875 74.458712 
L 123.695 74.458712 
L 124.218125 84.067845 
L 125.525938 84.067845 
L 126.049063 82.739104 
L 126.572188 82.623601 
L 126.83375 82.623601 
L 127.095313 76.746091 
L 127.356875 75.240488 
L 127.88 64.12074 
L 128.141563 64.12074 
L 129.449375 39.775281 
L 129.710938 39.775281 
L 129.9725 45.117129 
L 130.234063 45.719109 
L 130.495625 49.635744 
L 131.01875 49.635744 
L 132.065 72.384366 
L 132.326563 72.384366 
L 133.634375 96.729826 
L 134.1575 96.729826 
L 134.419063 101.448 
L 135.726875 101.448 
L 136.511562 86.398274 
L 137.29625 86.398274 
L 137.819375 77.009603 
L 138.604062 77.009603 
L 139.911875 49.239246 
L 140.435 48.148721 
L 140.696562 47.410747 
L 141.48125 31.344501 
L 141.742813 31.582814 
L 142.004375 30.071828 
L 142.265938 25.201069 
L 142.789062 25.201069 
L 143.050625 30.476645 
L 143.835313 31.155979 
L 144.096875 31.015668 
L 144.358438 31.348485 
L 144.62 31.039877 
L 144.881563 31.126 
L 145.66625 30.359296 
L 145.927813 30.396504 
L 146.189375 31.018195 
L 146.450938 35.888954 
L 146.974063 35.888954 
L 147.235625 30.402972 
L 147.497187 30.046719 
L 147.75875 30.396162 
L 148.020313 30.452318 
L 148.281875 30.739668 
L 148.543438 31.6844 
L 148.805 37.354784 
L 149.066563 38.399644 
L 149.328125 38.841588 
L 149.85125 38.652342 
L 150.112813 38.934768 
L 150.374375 43.988796 
L 151.159063 43.988796 
L 152.205313 65.832994 
L 152.466875 65.66312 
L 152.728438 64.882155 
L 152.99 59.888721 
L 153.251563 59.496684 
L 154.03625 61.463094 
L 154.820938 61.443786 
L 155.344063 51.245382 
L 155.605625 51.245382 
L 155.867188 45.457383 
L 156.12875 45.457383 
L 156.390312 39.73724 
L 156.913438 38.925694 
L 157.959688 36.079504 
L 158.22125 35.649141 
L 158.482812 34.548277 
L 159.005938 23.191794 
L 159.2675 23.645211 
L 159.529063 23.117317 
L 159.790625 18.101676 
L 160.052188 18.679349 
L 160.31375 13.206653 
L 160.575312 13.521359 
L 161.36 14.853609 
L 161.621563 15.790243 
L 162.144688 16.159594 
L 162.40625 16.131261 
L 162.667812 18.211673 
L 163.4525 18.034646 
L 164.237188 16.002652 
L 164.760312 15.809476 
L 165.545 15.000193 
L 165.806563 13.983712 
L 166.329688 13.155848 
L 166.59125 12.650313 
L 166.852812 10.561822 
L 167.375938 10.496784 
L 167.6375 10.217835 
L 167.899063 10.134 
L 168.422188 10.529798 
L 168.945312 10.145251 
L 169.206875 9.793125 
L 169.73 9.689502 
L 170.514688 10.215317 
L 171.037813 10.593324 
L 171.8225 10.746795 
L 172.084063 11.069409 
L 172.345625 11.124191 
L 173.653437 12.917104 
L 174.96125 14.094197 
L 175.484375 14.330151 
L 176.0075 14.187394 
L 176.530625 13.85077 
L 176.792188 14.510095 
L 177.315313 14.828684 
L 177.838437 15.758799 
L 177.838437 15.758799 
" style="fill: none; stroke: #20978b; stroke-width: 2; stroke-linecap: square"/>
   </g>
   <g id="patch_3">
    <path d="M 10.7 101.448 
L 10.7 7.2 
" style="fill: none; stroke: #000000; stroke-width: 2; stroke-linejoin: miter; stroke-linecap: square"/>
   </g>
   <g id="patch_4">
    <path d="M 10.7 101.448 
L 178.1 101.448 
" style="fill: none; stroke: #000000; stroke-width: 2; stroke-linejoin: miter; stroke-linecap: square"/>
   </g>
  </g>
 </g>
</svg>
