<?xml version="1.0" encoding="utf-8" standalone="no"?>
<!DOCTYPE svg PUBLIC "-//W3C//DTD SVG 1.1//EN"
  "http://www.w3.org/Graphics/SVG/1.1/DTD/svg11.dtd">
<svg xmlns:xlink="http://www.w3.org/1999/xlink" width="185.3pt" height="112.148pt" viewBox="0 0 185.3 112.148" xmlns="http://www.w3.org/2000/svg" version="1.1">
 <metadata>
  <rdf:RDF xmlns:dc="http://purl.org/dc/elements/1.1/" xmlns:cc="http://creativecommons.org/ns#" xmlns:rdf="http://www.w3.org/1999/02/22-rdf-syntax-ns#">
   <cc:Work>
    <dc:type rdf:resource="http://purl.org/dc/dcmitype/StillImage"/>
    <dc:date>2025-05-14T23:42:40.757860</dc:date>
    <dc:format>image/svg+xml</dc:format>
    <dc:creator>
     <cc:Agent>
      <dc:title>Matplotlib v3.8.4, https://matplotlib.org/</dc:title>
     </cc:Agent>
    </dc:creator>
   </cc:Work>
  </rdf:RDF>
 </metadata>
 <defs>
  <style type="text/css">*{stroke-linejoin: round; stroke-linecap: butt}</style>
 </defs>
 <g id="figure_1">
  <g id="patch_1">
   <path d="M 0 112.148 
L 185.3 112.148 
L 185.3 0 
L 0 0 
L 0 112.148 
z
" style="fill: none"/>
  </g>
  <g id="axes_1">
   <g id="patch_2">
    <path d="M 10.7 101.448 
L 178.1 101.448 
L 178.1 7.2 
L 10.7 7.2 
L 10.7 101.448 
z
" style="fill: none"/>
   </g>
   <g id="matplotlib.axis_1">
    <g id="xtick_1">
     <g id="line2d_1">
      <defs>
       <path id="mc4dff1e03f" d="M 0 0 
L 0 3.5 
" style="stroke: #000000; stroke-width: 0.8"/>
      </defs>
      <g>
       <use xlink:href="#mc4dff1e03f" x="10.7" y="101.448" style="stroke: #000000; stroke-width: 0.8"/>
      </g>
     </g>
    </g>
    <g id="xtick_2">
     <g id="line2d_2">
      <g>
       <use xlink:href="#mc4dff1e03f" x="94.074319" y="101.448" style="stroke: #000000; stroke-width: 0.8"/>
      </g>
     </g>
    </g>
    <g id="xtick_3">
     <g id="line2d_3">
      <g>
       <use xlink:href="#mc4dff1e03f" x="177.448638" y="101.448" style="stroke: #000000; stroke-width: 0.8"/>
      </g>
     </g>
    </g>
   </g>
   <g id="matplotlib.axis_2">
    <g id="ytick_1">
     <g id="line2d_4">
      <defs>
       <path id="m2bed5cb42d" d="M 0 0 
L -3.5 0 
" style="stroke: #000000; stroke-width: 0.8"/>
      </defs>
      <g>
       <use xlink:href="#m2bed5cb42d" x="10.7" y="101.448" style="stroke: #000000; stroke-width: 0.8"/>
      </g>
     </g>
    </g>
    <g id="ytick_2">
     <g id="line2d_5">
      <g>
       <use xlink:href="#m2bed5cb42d" x="10.7" y="82.5984" style="stroke: #000000; stroke-width: 0.8"/>
      </g>
     </g>
    </g>
    <g id="ytick_3">
     <g id="line2d_6">
      <g>
       <use xlink:href="#m2bed5cb42d" x="10.7" y="63.7488" style="stroke: #000000; stroke-width: 0.8"/>
      </g>
     </g>
    </g>
    <g id="ytick_4">
     <g id="line2d_7">
      <g>
       <use xlink:href="#m2bed5cb42d" x="10.7" y="44.8992" style="stroke: #000000; stroke-width: 0.8"/>
      </g>
     </g>
    </g>
    <g id="ytick_5">
     <g id="line2d_8">
      <g>
       <use xlink:href="#m2bed5cb42d" x="10.7" y="26.0496" style="stroke: #000000; stroke-width: 0.8"/>
      </g>
     </g>
    </g>
    <g id="ytick_6">
     <g id="line2d_9">
      <g>
       <use xlink:href="#m2bed5cb42d" x="10.7" y="7.2" style="stroke: #000000; stroke-width: 0.8"/>
      </g>
     </g>
    </g>
   </g>
   <g id="line2d_10">
    <path d="M 21.12179 71.9955 
L 23.727237 71.9955 
L 24.378599 77.886 
L 25.029961 77.886 
L 25.681323 83.7765 
L 28.28677 83.7765 
L 28.938132 89.667 
L 32.194942 89.667 
L 32.846304 95.5575 
L 36.103113 95.5575 
L 36.754475 89.667 
L 39.359922 89.667 
L 40.011284 83.7765 
L 45.222179 83.7765 
L 45.873541 89.667 
L 46.524903 83.7765 
L 47.176265 83.7765 
L 47.827626 77.886 
L 49.781712 77.886 
L 50.433074 83.7765 
L 51.084436 77.886 
L 52.38716 77.886 
L 53.038521 71.9955 
L 54.992607 71.9955 
L 55.643969 66.105 
L 56.295331 66.105 
L 58.249416 83.7765 
L 60.854864 60.2145 
L 61.506226 66.105 
L 62.157588 66.105 
L 62.808949 60.2145 
L 63.460311 66.105 
L 64.111673 60.2145 
L 67.368482 60.2145 
L 68.671206 48.4335 
L 69.322568 54.324 
L 69.97393 54.324 
L 71.276654 66.105 
L 71.928016 66.105 
L 72.579377 60.2145 
L 74.533463 60.2145 
L 75.836187 48.4335 
L 76.487549 48.4335 
L 77.138911 42.543 
L 77.790272 42.543 
L 79.092996 54.324 
L 79.744358 54.324 
L 80.39572 60.2145 
L 81.698444 60.2145 
L 82.349805 54.324 
L 83.001167 54.324 
L 83.652529 60.2145 
L 84.955253 60.2145 
L 87.5607 83.7765 
L 91.468872 83.7765 
L 92.120233 77.886 
L 92.771595 83.7765 
L 93.422957 83.7765 
L 94.725681 71.9955 
L 95.377043 71.9955 
L 101.890661 13.0905 
L 102.542023 13.0905 
L 103.193385 7.2 
L 127.945136 7.2 
L 128.596498 13.0905 
L 135.110117 13.0905 
L 135.761479 18.981 
L 138.366926 18.981 
L 139.018288 13.0905 
L 143.577821 13.0905 
L 144.229183 18.981 
L 145.531907 18.981 
L 146.183268 13.0905 
L 153.999611 13.0905 
L 154.650973 7.2 
L 177.448638 7.2 
L 177.448638 7.2 
" style="fill: none; stroke: #a6a6a6; stroke-width: 2; stroke-linecap: square"/>
   </g>
   <g id="line2d_11">
    <path d="M 21.12179 101.448 
L 21.773152 101.448 
L 22.424514 99.625245 
L 28.938132 99.625245 
L 29.589494 96.738875 
L 32.194942 96.738875 
L 32.846304 98.56163 
L 39.359922 98.56163 
L 40.011284 101.448 
L 47.176265 101.448 
L 47.827626 97.63137 
L 49.781712 97.63137 
L 51.084436 89.027763 
L 54.341245 89.027763 
L 54.992607 85.547521 
L 56.946693 85.547521 
L 57.598054 82.114363 
L 58.249416 81.392006 
L 58.900778 77.728585 
L 60.203502 67.739619 
L 61.506226 76.343226 
L 64.763035 76.343226 
L 65.414397 79.823468 
L 67.368482 79.823468 
L 68.019844 83.256626 
L 68.671206 87.795614 
L 69.322568 91.459035 
L 70.625292 101.448 
L 71.928016 91.49171 
L 74.533463 91.49171 
L 79.092996 55.57333 
L 81.047082 55.57333 
L 81.698444 60.589593 
L 82.349805 61.202426 
L 83.001167 56.343 
L 84.955253 56.343 
L 88.212062 82.101832 
L 88.863424 82.375803 
L 89.514786 87.238553 
L 92.120233 87.238553 
L 92.771595 85.853171 
L 93.422957 85.211266 
L 98.633852 41.686045 
L 99.285214 41.895444 
L 102.542023 14.4275 
L 103.193385 14.429274 
L 105.147471 13.866094 
L 105.798833 13.598363 
L 106.450195 13.460842 
L 107.101556 13.053216 
L 107.752918 12.926927 
L 109.055642 12.468677 
L 109.707004 11.391604 
L 110.358366 10.868299 
L 111.661089 10.359888 
L 112.312451 9.842797 
L 113.615175 10.264391 
L 114.266537 10.03937 
L 114.917899 9.988334 
L 115.569261 9.80116 
L 116.871984 9.694871 
L 117.523346 10.041176 
L 118.82607 21.208246 
L 119.477432 21.406005 
L 121.431518 21.497401 
L 122.082879 21.539547 
L 122.734241 21.869234 
L 123.385603 21.917167 
L 124.036965 21.751714 
L 124.688327 22.688242 
L 125.991051 23.040523 
L 126.642412 23.264192 
L 127.293774 23.245828 
L 127.945136 23.3673 
L 129.24786 12.122146 
L 129.899222 11.613424 
L 132.504669 11.750937 
L 133.156031 11.528997 
L 134.458755 11.527732 
L 135.110117 10.632347 
L 137.715564 10.54087 
L 139.66965 10.101758 
L 140.972374 10.36583 
L 141.623735 10.304574 
L 144.880545 9.283732 
L 145.531907 9.360087 
L 149.440078 8.609321 
L 150.742802 8.406312 
L 151.394163 8.22074 
L 153.348249 8.398888 
L 155.302335 8.616064 
L 158.559144 8.31705 
L 159.210506 8.347732 
L 159.861868 8.140752 
L 161.815953 8.344994 
L 163.118677 8.377607 
L 170.935019 8.566129 
L 172.237743 8.708341 
L 172.889105 8.598657 
L 174.191829 8.568967 
L 176.145914 8.276676 
L 177.448638 8.040401 
L 177.448638 8.040401 
" style="fill: none; stroke: #20978b; stroke-width: 2; stroke-linecap: square"/>
   </g>
   <g id="patch_3">
    <path d="M 10.7 101.448 
L 10.7 7.2 
" style="fill: none; stroke: #000000; stroke-width: 2; stroke-linejoin: miter; stroke-linecap: square"/>
   </g>
   <g id="patch_4">
    <path d="M 10.7 101.448 
L 178.1 101.448 
" style="fill: none; stroke: #000000; stroke-width: 2; stroke-linejoin: miter; stroke-linecap: square"/>
   </g>
  </g>
 </g>
</svg>
