<?xml version="1.0" encoding="utf-8" standalone="no"?>
<!DOCTYPE svg PUBLIC "-//W3C//DTD SVG 1.1//EN"
  "http://www.w3.org/Graphics/SVG/1.1/DTD/svg11.dtd">
<svg xmlns:xlink="http://www.w3.org/1999/xlink" width="568.8825pt" height="280.739531pt" viewBox="0 0 568.8825 280.739531" xmlns="http://www.w3.org/2000/svg" version="1.1">
 <metadata>
  <rdf:RDF xmlns:dc="http://purl.org/dc/elements/1.1/" xmlns:cc="http://creativecommons.org/ns#" xmlns:rdf="http://www.w3.org/1999/02/22-rdf-syntax-ns#">
   <cc:Work>
    <dc:type rdf:resource="http://purl.org/dc/dcmitype/StillImage"/>
    <dc:date>2025-05-14T14:22:50.150130</dc:date>
    <dc:format>image/svg+xml</dc:format>
    <dc:creator>
     <cc:Agent>
      <dc:title>Matplotlib v3.8.4, https://matplotlib.org/</dc:title>
     </cc:Agent>
    </dc:creator>
   </cc:Work>
  </rdf:RDF>
 </metadata>
 <defs>
  <style type="text/css">*{stroke-linejoin: round; stroke-linecap: butt}</style>
 </defs>
 <g id="figure_1">
  <g id="patch_1">
   <path d="M 0 280.739531 
L 568.8825 280.739531 
L 568.8825 0 
L 0 0 
L 0 280.739531 
z
" style="fill: none"/>
  </g>
  <g id="axes_1">
   <g id="patch_2">
    <path d="M 55.7225 232.36 
L 561.6825 232.36 
L 561.6825 7.2 
L 55.7225 7.2 
L 55.7225 232.36 
z
" style="fill: none"/>
   </g>
   <g id="matplotlib.axis_1">
    <g id="xtick_1">
     <g id="line2d_1">
      <defs>
       <path id="mfc390a1994" d="M 0 0 
L 0 3.5 
" style="stroke: #000000; stroke-width: 2"/>
      </defs>
      <g>
       <use xlink:href="#mfc390a1994" x="71.855553" y="232.36" style="stroke: #000000; stroke-width: 2"/>
      </g>
     </g>
     <g id="text_1">
      <!-- 0 -->
      <g transform="translate(67.68485 250.096719) scale(0.15 -0.15)">
       <defs>
        <path id="ArialMT-30" d="M 266 2259 
Q 266 3072 433 3567 
Q 600 4063 929 4331 
Q 1259 4600 1759 4600 
Q 2128 4600 2406 4451 
Q 2684 4303 2865 4023 
Q 3047 3744 3150 3342 
Q 3253 2941 3253 2259 
Q 3253 1453 3087 958 
Q 2922 463 2592 192 
Q 2263 -78 1759 -78 
Q 1097 -78 719 397 
Q 266 969 266 2259 
z
M 844 2259 
Q 844 1131 1108 757 
Q 1372 384 1759 384 
Q 2147 384 2411 759 
Q 2675 1134 2675 2259 
Q 2675 3391 2411 3762 
Q 2147 4134 1753 4134 
Q 1366 4134 1134 3806 
Q 844 3388 844 2259 
z
" transform="scale(0.015625)"/>
       </defs>
       <use xlink:href="#ArialMT-30"/>
      </g>
     </g>
    </g>
    <g id="xtick_2">
     <g id="line2d_2">
      <g>
       <use xlink:href="#mfc390a1994" x="126.776584" y="232.36" style="stroke: #000000; stroke-width: 2"/>
      </g>
     </g>
     <g id="text_2">
      <!-- 128 -->
      <g transform="translate(114.264475 250.096719) scale(0.15 -0.15)">
       <defs>
        <path id="ArialMT-31" d="M 2384 0 
L 1822 0 
L 1822 3584 
Q 1619 3391 1289 3197 
Q 959 3003 697 2906 
L 697 3450 
Q 1169 3672 1522 3987 
Q 1875 4303 2022 4600 
L 2384 4600 
L 2384 0 
z
" transform="scale(0.015625)"/>
        <path id="ArialMT-32" d="M 3222 541 
L 3222 0 
L 194 0 
Q 188 203 259 391 
Q 375 700 629 1000 
Q 884 1300 1366 1694 
Q 2113 2306 2375 2664 
Q 2638 3022 2638 3341 
Q 2638 3675 2398 3904 
Q 2159 4134 1775 4134 
Q 1369 4134 1125 3890 
Q 881 3647 878 3216 
L 300 3275 
Q 359 3922 746 4261 
Q 1134 4600 1788 4600 
Q 2447 4600 2831 4234 
Q 3216 3869 3216 3328 
Q 3216 3053 3103 2787 
Q 2991 2522 2730 2228 
Q 2469 1934 1863 1422 
Q 1356 997 1212 845 
Q 1069 694 975 541 
L 3222 541 
z
" transform="scale(0.015625)"/>
        <path id="ArialMT-38" d="M 1131 2484 
Q 781 2613 612 2850 
Q 444 3088 444 3419 
Q 444 3919 803 4259 
Q 1163 4600 1759 4600 
Q 2359 4600 2725 4251 
Q 3091 3903 3091 3403 
Q 3091 3084 2923 2848 
Q 2756 2613 2416 2484 
Q 2838 2347 3058 2040 
Q 3278 1734 3278 1309 
Q 3278 722 2862 322 
Q 2447 -78 1769 -78 
Q 1091 -78 675 323 
Q 259 725 259 1325 
Q 259 1772 486 2073 
Q 713 2375 1131 2484 
z
M 1019 3438 
Q 1019 3113 1228 2906 
Q 1438 2700 1772 2700 
Q 2097 2700 2305 2904 
Q 2513 3109 2513 3406 
Q 2513 3716 2298 3927 
Q 2084 4138 1766 4138 
Q 1444 4138 1231 3931 
Q 1019 3725 1019 3438 
z
M 838 1322 
Q 838 1081 952 856 
Q 1066 631 1291 507 
Q 1516 384 1775 384 
Q 2178 384 2440 643 
Q 2703 903 2703 1303 
Q 2703 1709 2433 1975 
Q 2163 2241 1756 2241 
Q 1359 2241 1098 1978 
Q 838 1716 838 1322 
z
" transform="scale(0.015625)"/>
       </defs>
       <use xlink:href="#ArialMT-31"/>
       <use xlink:href="#ArialMT-32" x="55.615234"/>
       <use xlink:href="#ArialMT-38" x="111.230469"/>
      </g>
     </g>
    </g>
    <g id="xtick_3">
     <g id="line2d_3">
      <g>
       <use xlink:href="#mfc390a1994" x="181.697615" y="232.36" style="stroke: #000000; stroke-width: 2"/>
      </g>
     </g>
     <g id="text_3">
      <!-- 256 -->
      <g transform="translate(169.185506 250.096719) scale(0.15 -0.15)">
       <defs>
        <path id="ArialMT-35" d="M 266 1200 
L 856 1250 
Q 922 819 1161 601 
Q 1400 384 1738 384 
Q 2144 384 2425 690 
Q 2706 997 2706 1503 
Q 2706 1984 2436 2262 
Q 2166 2541 1728 2541 
Q 1456 2541 1237 2417 
Q 1019 2294 894 2097 
L 366 2166 
L 809 4519 
L 3088 4519 
L 3088 3981 
L 1259 3981 
L 1013 2750 
Q 1425 3038 1878 3038 
Q 2478 3038 2890 2622 
Q 3303 2206 3303 1553 
Q 3303 931 2941 478 
Q 2500 -78 1738 -78 
Q 1113 -78 717 272 
Q 322 622 266 1200 
z
" transform="scale(0.015625)"/>
        <path id="ArialMT-36" d="M 3184 3459 
L 2625 3416 
Q 2550 3747 2413 3897 
Q 2184 4138 1850 4138 
Q 1581 4138 1378 3988 
Q 1113 3794 959 3422 
Q 806 3050 800 2363 
Q 1003 2672 1297 2822 
Q 1591 2972 1913 2972 
Q 2475 2972 2870 2558 
Q 3266 2144 3266 1488 
Q 3266 1056 3080 686 
Q 2894 316 2569 119 
Q 2244 -78 1831 -78 
Q 1128 -78 684 439 
Q 241 956 241 2144 
Q 241 3472 731 4075 
Q 1159 4600 1884 4600 
Q 2425 4600 2770 4297 
Q 3116 3994 3184 3459 
z
M 888 1484 
Q 888 1194 1011 928 
Q 1134 663 1356 523 
Q 1578 384 1822 384 
Q 2178 384 2434 671 
Q 2691 959 2691 1453 
Q 2691 1928 2437 2201 
Q 2184 2475 1800 2475 
Q 1419 2475 1153 2201 
Q 888 1928 888 1484 
z
" transform="scale(0.015625)"/>
       </defs>
       <use xlink:href="#ArialMT-32"/>
       <use xlink:href="#ArialMT-35" x="55.615234"/>
       <use xlink:href="#ArialMT-36" x="111.230469"/>
      </g>
     </g>
    </g>
    <g id="xtick_4">
     <g id="line2d_4">
      <g>
       <use xlink:href="#mfc390a1994" x="236.618647" y="232.36" style="stroke: #000000; stroke-width: 2"/>
      </g>
     </g>
     <g id="text_4">
      <!-- 384 -->
      <g transform="translate(224.106537 250.096719) scale(0.15 -0.15)">
       <defs>
        <path id="ArialMT-33" d="M 269 1209 
L 831 1284 
Q 928 806 1161 595 
Q 1394 384 1728 384 
Q 2125 384 2398 659 
Q 2672 934 2672 1341 
Q 2672 1728 2419 1979 
Q 2166 2231 1775 2231 
Q 1616 2231 1378 2169 
L 1441 2663 
Q 1497 2656 1531 2656 
Q 1891 2656 2178 2843 
Q 2466 3031 2466 3422 
Q 2466 3731 2256 3934 
Q 2047 4138 1716 4138 
Q 1388 4138 1169 3931 
Q 950 3725 888 3313 
L 325 3413 
Q 428 3978 793 4289 
Q 1159 4600 1703 4600 
Q 2078 4600 2393 4439 
Q 2709 4278 2876 4000 
Q 3044 3722 3044 3409 
Q 3044 3113 2884 2869 
Q 2725 2625 2413 2481 
Q 2819 2388 3044 2092 
Q 3269 1797 3269 1353 
Q 3269 753 2831 336 
Q 2394 -81 1725 -81 
Q 1122 -81 723 278 
Q 325 638 269 1209 
z
" transform="scale(0.015625)"/>
        <path id="ArialMT-34" d="M 2069 0 
L 2069 1097 
L 81 1097 
L 81 1613 
L 2172 4581 
L 2631 4581 
L 2631 1613 
L 3250 1613 
L 3250 1097 
L 2631 1097 
L 2631 0 
L 2069 0 
z
M 2069 1613 
L 2069 3678 
L 634 1613 
L 2069 1613 
z
" transform="scale(0.015625)"/>
       </defs>
       <use xlink:href="#ArialMT-33"/>
       <use xlink:href="#ArialMT-38" x="55.615234"/>
       <use xlink:href="#ArialMT-34" x="111.230469"/>
      </g>
     </g>
    </g>
    <g id="xtick_5">
     <g id="line2d_5">
      <g>
       <use xlink:href="#mfc390a1994" x="291.539678" y="232.36" style="stroke: #000000; stroke-width: 2"/>
      </g>
     </g>
     <g id="text_5">
      <!-- 512 -->
      <g transform="translate(279.027568 250.096719) scale(0.15 -0.15)">
       <use xlink:href="#ArialMT-35"/>
       <use xlink:href="#ArialMT-31" x="55.615234"/>
       <use xlink:href="#ArialMT-32" x="111.230469"/>
      </g>
     </g>
    </g>
    <g id="xtick_6">
     <g id="line2d_6">
      <g>
       <use xlink:href="#mfc390a1994" x="346.460709" y="232.36" style="stroke: #000000; stroke-width: 2"/>
      </g>
     </g>
     <g id="text_6">
      <!-- 640 -->
      <g transform="translate(333.9486 250.096719) scale(0.15 -0.15)">
       <use xlink:href="#ArialMT-36"/>
       <use xlink:href="#ArialMT-34" x="55.615234"/>
       <use xlink:href="#ArialMT-30" x="111.230469"/>
      </g>
     </g>
    </g>
    <g id="xtick_7">
     <g id="line2d_7">
      <g>
       <use xlink:href="#mfc390a1994" x="401.38174" y="232.36" style="stroke: #000000; stroke-width: 2"/>
      </g>
     </g>
     <g id="text_7">
      <!-- 768 -->
      <g transform="translate(388.869631 250.096719) scale(0.15 -0.15)">
       <defs>
        <path id="ArialMT-37" d="M 303 3981 
L 303 4522 
L 3269 4522 
L 3269 4084 
Q 2831 3619 2401 2847 
Q 1972 2075 1738 1259 
Q 1569 684 1522 0 
L 944 0 
Q 953 541 1156 1306 
Q 1359 2072 1739 2783 
Q 2119 3494 2547 3981 
L 303 3981 
z
" transform="scale(0.015625)"/>
       </defs>
       <use xlink:href="#ArialMT-37"/>
       <use xlink:href="#ArialMT-36" x="55.615234"/>
       <use xlink:href="#ArialMT-38" x="111.230469"/>
      </g>
     </g>
    </g>
    <g id="xtick_8">
     <g id="line2d_8">
      <g>
       <use xlink:href="#mfc390a1994" x="456.302771" y="232.36" style="stroke: #000000; stroke-width: 2"/>
      </g>
     </g>
     <g id="text_8">
      <!-- 896 -->
      <g transform="translate(443.790662 250.096719) scale(0.15 -0.15)">
       <defs>
        <path id="ArialMT-39" d="M 350 1059 
L 891 1109 
Q 959 728 1153 556 
Q 1347 384 1650 384 
Q 1909 384 2104 503 
Q 2300 622 2425 820 
Q 2550 1019 2634 1356 
Q 2719 1694 2719 2044 
Q 2719 2081 2716 2156 
Q 2547 1888 2255 1720 
Q 1963 1553 1622 1553 
Q 1053 1553 659 1965 
Q 266 2378 266 3053 
Q 266 3750 677 4175 
Q 1088 4600 1706 4600 
Q 2153 4600 2523 4359 
Q 2894 4119 3086 3673 
Q 3278 3228 3278 2384 
Q 3278 1506 3087 986 
Q 2897 466 2520 194 
Q 2144 -78 1638 -78 
Q 1100 -78 759 220 
Q 419 519 350 1059 
z
M 2653 3081 
Q 2653 3566 2395 3850 
Q 2138 4134 1775 4134 
Q 1400 4134 1122 3828 
Q 844 3522 844 3034 
Q 844 2597 1108 2323 
Q 1372 2050 1759 2050 
Q 2150 2050 2401 2323 
Q 2653 2597 2653 3081 
z
" transform="scale(0.015625)"/>
       </defs>
       <use xlink:href="#ArialMT-38"/>
       <use xlink:href="#ArialMT-39" x="55.615234"/>
       <use xlink:href="#ArialMT-36" x="111.230469"/>
      </g>
     </g>
    </g>
    <g id="xtick_9">
     <g id="line2d_9">
      <g>
       <use xlink:href="#mfc390a1994" x="511.223803" y="232.36" style="stroke: #000000; stroke-width: 2"/>
      </g>
     </g>
     <g id="text_9">
      <!-- 1024 -->
      <g transform="translate(494.54099 250.096719) scale(0.15 -0.15)">
       <use xlink:href="#ArialMT-31"/>
       <use xlink:href="#ArialMT-30" x="55.615234"/>
       <use xlink:href="#ArialMT-32" x="111.230469"/>
       <use xlink:href="#ArialMT-34" x="166.845703"/>
      </g>
     </g>
    </g>
    <g id="text_10">
     <!-- Trial -->
     <g transform="translate(291.542031 269.962031) scale(0.18 -0.18)">
      <defs>
       <path id="ArialMT-54" d="M 1659 0 
L 1659 4041 
L 150 4041 
L 150 4581 
L 3781 4581 
L 3781 4041 
L 2266 4041 
L 2266 0 
L 1659 0 
z
" transform="scale(0.015625)"/>
       <path id="ArialMT-72" d="M 416 0 
L 416 3319 
L 922 3319 
L 922 2816 
Q 1116 3169 1280 3281 
Q 1444 3394 1641 3394 
Q 1925 3394 2219 3213 
L 2025 2691 
Q 1819 2813 1613 2813 
Q 1428 2813 1281 2702 
Q 1134 2591 1072 2394 
Q 978 2094 978 1738 
L 978 0 
L 416 0 
z
" transform="scale(0.015625)"/>
       <path id="ArialMT-69" d="M 425 3934 
L 425 4581 
L 988 4581 
L 988 3934 
L 425 3934 
z
M 425 0 
L 425 3319 
L 988 3319 
L 988 0 
L 425 0 
z
" transform="scale(0.015625)"/>
       <path id="ArialMT-61" d="M 2588 409 
Q 2275 144 1986 34 
Q 1697 -75 1366 -75 
Q 819 -75 525 192 
Q 231 459 231 875 
Q 231 1119 342 1320 
Q 453 1522 633 1644 
Q 813 1766 1038 1828 
Q 1203 1872 1538 1913 
Q 2219 1994 2541 2106 
Q 2544 2222 2544 2253 
Q 2544 2597 2384 2738 
Q 2169 2928 1744 2928 
Q 1347 2928 1158 2789 
Q 969 2650 878 2297 
L 328 2372 
Q 403 2725 575 2942 
Q 747 3159 1072 3276 
Q 1397 3394 1825 3394 
Q 2250 3394 2515 3294 
Q 2781 3194 2906 3042 
Q 3031 2891 3081 2659 
Q 3109 2516 3109 2141 
L 3109 1391 
Q 3109 606 3145 398 
Q 3181 191 3288 0 
L 2700 0 
Q 2613 175 2588 409 
z
M 2541 1666 
Q 2234 1541 1622 1453 
Q 1275 1403 1131 1340 
Q 988 1278 909 1158 
Q 831 1038 831 891 
Q 831 666 1001 516 
Q 1172 366 1500 366 
Q 1825 366 2078 508 
Q 2331 650 2450 897 
Q 2541 1088 2541 1459 
L 2541 1666 
z
" transform="scale(0.015625)"/>
       <path id="ArialMT-6c" d="M 409 0 
L 409 4581 
L 972 4581 
L 972 0 
L 409 0 
z
" transform="scale(0.015625)"/>
      </defs>
      <use xlink:href="#ArialMT-54"/>
      <use xlink:href="#ArialMT-72" x="57.333984"/>
      <use xlink:href="#ArialMT-69" x="90.634766"/>
      <use xlink:href="#ArialMT-61" x="112.851562"/>
      <use xlink:href="#ArialMT-6c" x="168.466797"/>
     </g>
    </g>
   </g>
   <g id="matplotlib.axis_2">
    <g id="ytick_1">
     <g id="line2d_10">
      <defs>
       <path id="m599a51921e" d="M 0 0 
L -3.5 0 
" style="stroke: #000000; stroke-width: 2"/>
      </defs>
      <g>
       <use xlink:href="#m599a51921e" x="55.7225" y="222.125455" style="stroke: #000000; stroke-width: 2"/>
      </g>
     </g>
     <g id="text_11">
      <!-- 0 -->
      <g transform="translate(40.381094 227.493814) scale(0.15 -0.15)">
       <use xlink:href="#ArialMT-30"/>
      </g>
     </g>
    </g>
    <g id="ytick_2">
     <g id="line2d_11">
      <g>
       <use xlink:href="#m599a51921e" x="55.7225" y="119.78" style="stroke: #000000; stroke-width: 2"/>
      </g>
     </g>
     <g id="text_12">
      <!-- 0.5 -->
      <g transform="translate(27.8725 125.148359) scale(0.15 -0.15)">
       <defs>
        <path id="ArialMT-2e" d="M 581 0 
L 581 641 
L 1222 641 
L 1222 0 
L 581 0 
z
" transform="scale(0.015625)"/>
       </defs>
       <use xlink:href="#ArialMT-30"/>
       <use xlink:href="#ArialMT-2e" x="55.615234"/>
       <use xlink:href="#ArialMT-35" x="83.398438"/>
      </g>
     </g>
    </g>
    <g id="ytick_3">
     <g id="line2d_12">
      <g>
       <use xlink:href="#m599a51921e" x="55.7225" y="17.434545" style="stroke: #000000; stroke-width: 2"/>
      </g>
     </g>
     <g id="text_13">
      <!-- 1 -->
      <g transform="translate(40.381094 22.802905) scale(0.15 -0.15)">
       <use xlink:href="#ArialMT-31"/>
      </g>
     </g>
    </g>
    <g id="text_14">
     <!-- Probability -->
     <g transform="translate(20.084063 161.79875) rotate(-90) scale(0.18 -0.18)">
      <defs>
       <path id="ArialMT-50" d="M 494 0 
L 494 4581 
L 2222 4581 
Q 2678 4581 2919 4538 
Q 3256 4481 3484 4323 
Q 3713 4166 3852 3881 
Q 3991 3597 3991 3256 
Q 3991 2672 3619 2267 
Q 3247 1863 2275 1863 
L 1100 1863 
L 1100 0 
L 494 0 
z
M 1100 2403 
L 2284 2403 
Q 2872 2403 3119 2622 
Q 3366 2841 3366 3238 
Q 3366 3525 3220 3729 
Q 3075 3934 2838 4000 
Q 2684 4041 2272 4041 
L 1100 4041 
L 1100 2403 
z
" transform="scale(0.015625)"/>
       <path id="ArialMT-6f" d="M 213 1659 
Q 213 2581 725 3025 
Q 1153 3394 1769 3394 
Q 2453 3394 2887 2945 
Q 3322 2497 3322 1706 
Q 3322 1066 3130 698 
Q 2938 331 2570 128 
Q 2203 -75 1769 -75 
Q 1072 -75 642 372 
Q 213 819 213 1659 
z
M 791 1659 
Q 791 1022 1069 705 
Q 1347 388 1769 388 
Q 2188 388 2466 706 
Q 2744 1025 2744 1678 
Q 2744 2294 2464 2611 
Q 2184 2928 1769 2928 
Q 1347 2928 1069 2612 
Q 791 2297 791 1659 
z
" transform="scale(0.015625)"/>
       <path id="ArialMT-62" d="M 941 0 
L 419 0 
L 419 4581 
L 981 4581 
L 981 2947 
Q 1338 3394 1891 3394 
Q 2197 3394 2470 3270 
Q 2744 3147 2920 2923 
Q 3097 2700 3197 2384 
Q 3297 2069 3297 1709 
Q 3297 856 2875 390 
Q 2453 -75 1863 -75 
Q 1275 -75 941 416 
L 941 0 
z
M 934 1684 
Q 934 1088 1097 822 
Q 1363 388 1816 388 
Q 2184 388 2453 708 
Q 2722 1028 2722 1663 
Q 2722 2313 2464 2622 
Q 2206 2931 1841 2931 
Q 1472 2931 1203 2611 
Q 934 2291 934 1684 
z
" transform="scale(0.015625)"/>
       <path id="ArialMT-74" d="M 1650 503 
L 1731 6 
Q 1494 -44 1306 -44 
Q 1000 -44 831 53 
Q 663 150 594 308 
Q 525 466 525 972 
L 525 2881 
L 113 2881 
L 113 3319 
L 525 3319 
L 525 4141 
L 1084 4478 
L 1084 3319 
L 1650 3319 
L 1650 2881 
L 1084 2881 
L 1084 941 
Q 1084 700 1114 631 
Q 1144 563 1211 522 
Q 1278 481 1403 481 
Q 1497 481 1650 503 
z
" transform="scale(0.015625)"/>
       <path id="ArialMT-79" d="M 397 -1278 
L 334 -750 
Q 519 -800 656 -800 
Q 844 -800 956 -737 
Q 1069 -675 1141 -563 
Q 1194 -478 1313 -144 
Q 1328 -97 1363 -6 
L 103 3319 
L 709 3319 
L 1400 1397 
Q 1534 1031 1641 628 
Q 1738 1016 1872 1384 
L 2581 3319 
L 3144 3319 
L 1881 -56 
Q 1678 -603 1566 -809 
Q 1416 -1088 1222 -1217 
Q 1028 -1347 759 -1347 
Q 597 -1347 397 -1278 
z
" transform="scale(0.015625)"/>
      </defs>
      <use xlink:href="#ArialMT-50"/>
      <use xlink:href="#ArialMT-72" x="66.699219"/>
      <use xlink:href="#ArialMT-6f" x="100"/>
      <use xlink:href="#ArialMT-62" x="155.615234"/>
      <use xlink:href="#ArialMT-61" x="211.230469"/>
      <use xlink:href="#ArialMT-62" x="266.845703"/>
      <use xlink:href="#ArialMT-69" x="322.460938"/>
      <use xlink:href="#ArialMT-6c" x="344.677734"/>
      <use xlink:href="#ArialMT-69" x="366.894531"/>
      <use xlink:href="#ArialMT-74" x="389.111328"/>
      <use xlink:href="#ArialMT-79" x="416.894531"/>
     </g>
    </g>
   </g>
   <g id="line2d_13">
    <path d="M 78.720682 222.125455 
L 80.436964 222.125455 
L 80.866035 209.332273 
L 81.724176 209.332273 
L 82.582317 183.745909 
L 85.15674 183.745909 
L 86.014881 158.159545 
L 86.443952 158.159545 
L 86.873022 145.366364 
L 88.589305 145.366364 
L 89.447446 170.952727 
L 92.021869 170.952727 
L 92.88001 196.539091 
L 93.309081 196.539091 
L 93.738151 209.332273 
L 94.167222 209.332273 
L 94.596292 222.125455 
L 128.492866 222.125455 
L 128.921937 209.332273 
L 135.357995 209.332273 
L 135.787066 222.125455 
L 224.604671 222.125455 
L 226.750024 158.159545 
L 227.608165 158.159545 
L 228.037235 145.366364 
L 228.895377 145.366364 
L 229.753518 119.78 
L 232.757012 119.78 
L 233.615153 145.366364 
L 235.760505 145.366364 
L 236.618647 170.952727 
L 238.334929 170.952727 
L 239.62214 209.332273 
L 241.767493 209.332273 
L 242.196564 196.539091 
L 243.054705 196.539091 
L 243.483775 183.745909 
L 244.770987 183.745909 
L 245.629128 158.159545 
L 247.34541 158.159545 
L 247.774481 145.366364 
L 248.203552 145.366364 
L 248.632622 158.159545 
L 249.919834 158.159545 
L 250.348904 170.952727 
L 251.636116 170.952727 
L 252.494257 196.539091 
L 252.923328 196.539091 
L 253.352398 183.745909 
L 254.210539 183.745909 
L 254.63961 196.539091 
L 255.497751 196.539091 
L 255.926822 209.332273 
L 256.355892 196.539091 
L 257.214033 196.539091 
L 257.643104 183.745909 
L 259.788457 183.745909 
L 260.217527 196.539091 
L 260.646598 183.745909 
L 262.79195 183.745909 
L 263.221021 196.539091 
L 264.079162 196.539091 
L 264.508233 209.332273 
L 265.366374 209.332273 
L 266.224515 183.745909 
L 267.082656 183.745909 
L 267.511727 196.539091 
L 270.51522 196.539091 
L 270.944291 183.745909 
L 272.660573 183.745909 
L 273.089644 196.539091 
L 273.518714 183.745909 
L 273.947785 183.745909 
L 274.376855 170.952727 
L 274.805926 170.952727 
L 275.234997 158.159545 
L 277.380349 158.159545 
L 277.80942 170.952727 
L 279.096632 170.952727 
L 279.525702 183.745909 
L 280.812914 183.745909 
L 281.241984 196.539091 
L 282.958267 196.539091 
L 283.816408 170.952727 
L 284.674549 170.952727 
L 285.103619 158.159545 
L 285.53269 158.159545 
L 285.961761 145.366364 
L 286.390831 145.366364 
L 286.819902 132.573182 
L 287.248972 145.366364 
L 288.536184 145.366364 
L 288.965254 158.159545 
L 289.823396 158.159545 
L 290.681537 183.745909 
L 291.110607 183.745909 
L 291.539678 170.952727 
L 291.968748 183.745909 
L 293.25596 183.745909 
L 293.685031 196.539091 
L 294.543172 196.539091 
L 294.972242 183.745909 
L 295.830383 183.745909 
L 296.259454 170.952727 
L 297.117595 170.952727 
L 297.546666 158.159545 
L 297.975736 158.159545 
L 298.404807 170.952727 
L 299.262948 145.366364 
L 299.692018 158.159545 
L 301.408301 158.159545 
L 301.837371 170.952727 
L 302.266442 158.159545 
L 302.695512 158.159545 
L 303.124583 170.952727 
L 303.982724 170.952727 
L 304.411794 183.745909 
L 304.840865 170.952727 
L 305.269936 170.952727 
L 306.128077 196.539091 
L 308.7025 196.539091 
L 309.131571 209.332273 
L 310.847853 209.332273 
L 311.276923 196.539091 
L 311.705994 209.332273 
L 314.709488 209.332273 
L 315.567629 183.745909 
L 315.996699 183.745909 
L 316.854841 158.159545 
L 317.712982 158.159545 
L 318.142052 170.952727 
L 321.574617 170.952727 
L 322.432758 196.539091 
L 322.861828 196.539091 
L 323.719969 222.125455 
L 334.446733 222.125455 
L 334.875804 209.332273 
L 335.304874 209.332273 
L 335.733945 196.539091 
L 336.163016 196.539091 
L 336.592086 183.745909 
L 337.879298 183.745909 
L 338.308368 170.952727 
L 338.737439 170.952727 
L 339.166509 158.159545 
L 339.59558 158.159545 
L 340.024651 145.366364 
L 340.453721 145.366364 
L 341.311862 119.78 
L 341.740933 132.573182 
L 343.028145 132.573182 
L 343.457215 145.366364 
L 344.744427 145.366364 
L 345.173497 158.159545 
L 345.602568 158.159545 
L 346.031638 170.952727 
L 347.747921 170.952727 
L 348.176991 183.745909 
L 349.035132 183.745909 
L 349.464203 196.539091 
L 353.325838 196.539091 
L 353.754908 209.332273 
L 354.183979 209.332273 
L 354.61305 222.125455 
L 361.907249 222.125455 
L 362.76539 196.539091 
L 364.052602 196.539091 
L 364.481672 183.745909 
L 364.910743 183.745909 
L 365.339813 170.952727 
L 366.197955 170.952727 
L 367.056096 145.366364 
L 369.201448 145.366364 
L 369.630519 158.159545 
L 371.775872 158.159545 
L 372.204942 170.952727 
L 373.063083 170.952727 
L 373.921225 196.539091 
L 374.350295 183.745909 
L 375.637507 183.745909 
L 376.066577 196.539091 
L 377.78286 196.539091 
L 378.21193 209.332273 
L 380.786353 209.332273 
L 381.215424 222.125455 
L 395.803823 222.125455 
L 396.232893 209.332273 
L 396.661964 209.332273 
L 397.949176 170.952727 
L 398.378246 170.952727 
L 400.094528 119.78 
L 400.95267 119.78 
L 402.239881 81.400455 
L 402.668952 81.400455 
L 403.098022 94.193636 
L 406.530587 94.193636 
L 406.959657 106.986818 
L 407.817799 81.400455 
L 408.67594 106.986818 
L 409.10501 106.986818 
L 409.534081 94.193636 
L 409.963151 94.193636 
L 410.392222 81.400455 
L 410.821292 94.193636 
L 412.966645 94.193636 
L 413.395716 106.986818 
L 413.824786 106.986818 
L 414.682927 132.573182 
L 415.111998 119.78 
L 416.39921 119.78 
L 416.82828 106.986818 
L 417.257351 106.986818 
L 417.686421 94.193636 
L 418.115492 106.986818 
L 418.544562 106.986818 
L 418.973633 94.193636 
L 419.831774 119.78 
L 420.689915 119.78 
L 421.118986 106.986818 
L 422.835268 106.986818 
L 424.12248 145.366364 
L 424.980621 145.366364 
L 425.838762 170.952727 
L 426.267832 170.952727 
L 426.696903 158.159545 
L 427.984115 158.159545 
L 428.413185 145.366364 
L 428.842256 158.159545 
L 429.271326 158.159545 
L 429.700397 170.952727 
L 430.129467 170.952727 
L 430.987609 145.366364 
L 431.416679 158.159545 
L 432.703891 158.159545 
L 433.132961 145.366364 
L 433.562032 158.159545 
L 433.991102 145.366364 
L 434.420173 145.366364 
L 434.849244 158.159545 
L 436.565526 158.159545 
L 436.994596 145.366364 
L 437.423667 145.366364 
L 437.852737 158.159545 
L 438.710879 132.573182 
L 439.56902 132.573182 
L 439.99809 145.366364 
L 440.427161 145.366364 
L 440.856231 158.159545 
L 441.285302 158.159545 
L 441.714372 145.366364 
L 442.143443 158.159545 
L 443.430655 158.159545 
L 443.859725 170.952727 
L 444.717866 170.952727 
L 445.576007 196.539091 
L 446.434149 170.952727 
L 446.863219 170.952727 
L 447.29229 158.159545 
L 448.150431 158.159545 
L 448.579501 170.952727 
L 450.295784 119.78 
L 450.724854 119.78 
L 451.153925 132.573182 
L 452.012066 132.573182 
L 452.441136 119.78 
L 453.299277 119.78 
L 453.728348 106.986818 
L 454.157419 106.986818 
L 455.44463 68.607273 
L 457.160912 68.607273 
L 458.877195 17.434545 
L 483.763287 17.434545 
L 485.479569 68.607273 
L 485.90864 68.607273 
L 490.628416 209.332273 
L 492.344698 209.332273 
L 492.773769 222.125455 
L 494.490051 222.125455 
L 495.348192 196.539091 
L 496.206333 196.539091 
L 501.35518 43.020909 
L 502.213321 43.020909 
L 503.071462 17.434545 
L 510.794732 17.434545 
L 511.223803 30.227727 
L 513.369155 30.227727 
L 513.798226 43.020909 
L 517.659861 43.020909 
L 518.088931 30.227727 
L 520.234284 30.227727 
L 520.663355 17.434545 
L 538.684318 17.434545 
L 538.684318 17.434545 
" clip-path="url(#p407f18ef2c)" style="fill: none; stroke: #a6a6a6; stroke-width: 3; stroke-linecap: square"/>
   </g>
   <g id="line2d_14">
    <path d="M 78.720682 222.125455 
L 83.011387 222.125455 
L 83.440458 218.330549 
L 89.876516 218.330549 
L 90.305587 222.125455 
L 96.312575 222.125455 
L 96.741645 217.935108 
L 103.177704 217.935108 
L 103.606774 222.125455 
L 105.752127 222.125455 
L 106.181197 217.896885 
L 106.610268 217.896885 
L 107.039339 213.552953 
L 112.617256 213.552953 
L 113.046326 217.781523 
L 113.475397 217.781523 
L 113.904467 222.125455 
L 127.634725 222.125455 
L 128.921937 208.575229 
L 129.351007 205.201496 
L 134.499854 205.201496 
L 135.787066 218.751721 
L 136.216136 222.125455 
L 145.226618 222.125455 
L 145.655689 214.17222 
L 152.091747 214.17222 
L 152.520818 222.125455 
L 156.382453 222.125455 
L 156.811523 215.503308 
L 157.669664 207.600566 
L 158.527805 207.600566 
L 158.956876 202.436238 
L 159.815017 202.436238 
L 160.244088 191.714685 
L 160.673158 185.07924 
L 163.247581 185.07924 
L 163.676652 191.701386 
L 164.534793 199.604129 
L 164.963864 194.14976 
L 165.392934 194.14976 
L 165.822005 199.314087 
L 166.251075 199.314087 
L 166.680146 194.945703 
L 167.109216 205.667256 
L 167.538287 212.302701 
L 169.68364 212.302701 
L 170.11271 204.279253 
L 171.399922 204.279253 
L 171.828993 209.733622 
L 173.116204 209.733622 
L 173.545275 214.102006 
L 176.548769 214.102006 
L 176.977839 222.125455 
L 177.83598 222.125455 
L 178.265051 214.018676 
L 178.694121 208.244408 
L 179.123192 204.36628 
L 184.701109 204.36628 
L 185.13018 212.473058 
L 185.55925 218.247327 
L 185.988321 222.125455 
L 189.849956 222.125455 
L 191.995309 188.663223 
L 196.715085 188.663223 
L 198.860438 222.125455 
L 205.296496 222.125455 
L 205.725566 212.839564 
L 206.154637 207.20151 
L 212.161625 207.20151 
L 212.590695 216.487401 
L 213.019766 222.125455 
L 250.777975 222.125455 
L 252.923328 178.118714 
L 257.643104 178.118714 
L 259.788457 222.125455 
L 268.798938 222.125455 
L 269.657079 198.760567 
L 270.08615 198.760567 
L 270.51522 186.629095 
L 271.373362 171.391607 
L 271.802432 164.73647 
L 275.664067 164.73647 
L 276.522208 188.101358 
L 276.951279 188.101358 
L 277.380349 200.23283 
L 278.238491 215.470318 
L 278.667561 222.125455 
L 284.245478 222.125455 
L 284.674549 210.645662 
L 291.110607 210.645662 
L 291.539678 222.125455 
L 300.550159 222.125455 
L 300.97923 213.793686 
L 307.415288 213.793686 
L 307.844359 222.125455 
L 319.858334 222.125455 
L 320.716476 201.015782 
L 321.574617 201.015782 
L 322.432758 182.662219 
L 323.290899 167.756851 
L 326.723463 167.756851 
L 327.581604 188.866524 
L 328.439746 188.866524 
L 329.297887 207.220087 
L 330.156028 222.125455 
L 340.024651 222.125455 
L 340.882792 198.709059 
L 341.740933 179.992851 
L 343.028145 148.591944 
L 343.457215 148.591944 
L 344.315356 127.632623 
L 346.88978 127.632623 
L 347.747921 151.049018 
L 348.606062 169.765226 
L 349.893273 201.166133 
L 350.322344 201.166133 
L 351.180485 222.125455 
L 362.33632 222.125455 
L 362.76539 213.509128 
L 366.627025 213.509128 
L 368.343307 165.276238 
L 369.201448 165.276238 
L 369.630519 173.892564 
L 373.492154 173.892564 
L 375.208436 222.125455 
L 377.353789 222.125455 
L 378.21193 198.622778 
L 382.931706 198.622778 
L 383.360777 187.589798 
L 384.218918 187.589798 
L 385.077059 211.092475 
L 389.796835 211.092475 
L 390.225906 222.125455 
L 393.2294 222.125455 
L 394.516611 189.096323 
L 399.236387 189.096323 
L 399.665458 177.544916 
L 400.094528 177.544916 
L 401.38174 210.574048 
L 406.101516 210.574048 
L 406.530587 222.125455 
L 408.67594 222.125455 
L 410.392222 173.779401 
L 412.966645 101.931778 
L 415.111998 41.069213 
L 415.541069 31.133527 
L 415.970139 35.828249 
L 416.39921 47.962916 
L 416.82828 47.010358 
L 417.686421 45.629154 
L 418.115492 45.799189 
L 418.544562 45.792001 
L 418.973633 46.315624 
L 419.402704 46.369827 
L 419.831774 46.143601 
L 420.260845 58.890799 
L 420.689915 59.339195 
L 421.118986 60.516127 
L 421.548056 60.194518 
L 422.835268 53.80357 
L 423.264339 44.703831 
L 426.267832 130.390339 
L 426.696903 141.899547 
L 427.125974 141.899547 
L 429.271326 202.584999 
L 429.700397 200.354407 
L 430.129467 197.34256 
L 436.136455 197.34256 
L 436.994596 222.125455 
L 443.430655 222.125455 
L 444.717866 186.715592 
L 450.295784 186.715592 
L 451.582995 222.125455 
L 452.441136 222.125455 
L 453.728348 185.850531 
L 454.586489 164.962911 
L 458.448124 164.962911 
L 459.306265 139.909378 
L 459.735336 140.159295 
L 460.164406 139.76841 
L 460.593477 138.378996 
L 461.022547 136.191421 
L 461.451618 134.70776 
L 461.880689 134.70776 
L 462.73883 109.297014 
L 464.455112 109.297014 
L 465.313253 83.875081 
L 465.742324 83.989958 
L 466.600465 83.652736 
L 467.029535 85.235113 
L 467.458606 85.022404 
L 467.887676 84.979448 
L 468.316747 84.560228 
L 468.745818 72.810327 
L 469.174888 73.828085 
L 469.603959 74.270001 
L 471.320241 24.791621 
L 471.749311 25.063863 
L 472.607453 25.110815 
L 473.465594 26.960312 
L 473.894664 27.743791 
L 475.181876 32.603166 
L 476.040017 34.564562 
L 476.469088 34.348335 
L 477.327229 36.26951 
L 477.756299 48.902312 
L 478.61444 48.676318 
L 479.043511 48.611061 
L 479.472581 48.292106 
L 480.330723 46.377435 
L 480.759793 44.558987 
L 481.188864 43.817526 
L 482.047005 41.939764 
L 482.476075 41.367637 
L 482.905146 39.325494 
L 483.334216 38.938961 
L 484.192358 36.567958 
L 484.621428 24.201727 
L 485.050499 25.969056 
L 485.479569 29.309975 
L 488.912134 127.868525 
L 490.199345 164.825132 
L 491.915628 212.872768 
L 492.344698 222.125455 
L 499.209827 222.125455 
L 506.074956 20.373901 
L 506.504026 20.447903 
L 506.933097 20.249457 
L 507.362168 20.247243 
L 507.791238 20.799124 
L 508.649379 20.753119 
L 509.936591 21.094737 
L 510.365661 21.183323 
L 510.794732 20.946544 
L 511.652873 19.954381 
L 513.369155 20.586578 
L 513.798226 33.216831 
L 514.227296 32.935781 
L 514.656367 32.377614 
L 515.514508 32.542184 
L 515.943579 32.424917 
L 516.372649 32.173085 
L 518.518002 32.134509 
L 519.376143 31.976136 
L 519.805214 32.006324 
L 520.234284 31.627533 
L 520.663355 18.967248 
L 521.521496 18.955486 
L 522.379637 19.31493 
L 522.808708 19.529264 
L 523.237778 19.881365 
L 523.666849 20.61585 
L 524.95406 23.701541 
L 526.241272 26.135624 
L 526.670343 26.083464 
L 527.528484 26.283331 
L 527.957554 26.817375 
L 528.815695 27.497319 
L 529.244766 27.966699 
L 530.102907 52.866915 
L 530.961048 51.186806 
L 531.819189 49.251801 
L 532.24826 48.905633 
L 533.106401 47.595171 
L 534.393613 48.226297 
L 534.822683 49.492386 
L 535.251754 49.2697 
L 536.109895 48.281595 
L 536.968036 26.211529 
L 537.397107 27.7702 
L 538.255248 29.465432 
L 538.684318 30.932233 
L 538.684318 30.932233 
" clip-path="url(#p407f18ef2c)" style="fill: none; stroke: #20978b; stroke-width: 3; stroke-linecap: square"/>
   </g>
   <g id="line2d_15">
    <path d="M 126.776584 232.36 
L 126.776584 7.2 
" clip-path="url(#p407f18ef2c)" style="fill: none; stroke-dasharray: 3.7,1.6; stroke-dashoffset: 0; stroke: #808080; stroke-opacity: 0.3"/>
   </g>
   <g id="line2d_16">
    <path d="M 181.697615 232.36 
L 181.697615 7.2 
" clip-path="url(#p407f18ef2c)" style="fill: none; stroke-dasharray: 3.7,1.6; stroke-dashoffset: 0; stroke: #808080; stroke-opacity: 0.3"/>
   </g>
   <g id="line2d_17">
    <path d="M 236.618647 232.36 
L 236.618647 7.2 
" clip-path="url(#p407f18ef2c)" style="fill: none; stroke-dasharray: 3.7,1.6; stroke-dashoffset: 0; stroke: #808080; stroke-opacity: 0.3"/>
   </g>
   <g id="line2d_18">
    <path d="M 291.539678 232.36 
L 291.539678 7.2 
" clip-path="url(#p407f18ef2c)" style="fill: none; stroke-dasharray: 3.7,1.6; stroke-dashoffset: 0; stroke: #808080; stroke-opacity: 0.3"/>
   </g>
   <g id="line2d_19">
    <path d="M 346.460709 232.36 
L 346.460709 7.2 
" clip-path="url(#p407f18ef2c)" style="fill: none; stroke-dasharray: 3.7,1.6; stroke-dashoffset: 0; stroke: #808080; stroke-opacity: 0.3"/>
   </g>
   <g id="line2d_20">
    <path d="M 401.38174 232.36 
L 401.38174 7.2 
" clip-path="url(#p407f18ef2c)" style="fill: none; stroke-dasharray: 3.7,1.6; stroke-dashoffset: 0; stroke: #808080; stroke-opacity: 0.3"/>
   </g>
   <g id="line2d_21">
    <path d="M 456.302771 232.36 
L 456.302771 7.2 
" clip-path="url(#p407f18ef2c)" style="fill: none; stroke-dasharray: 3.7,1.6; stroke-dashoffset: 0; stroke: #808080; stroke-opacity: 0.3"/>
   </g>
   <g id="line2d_22">
    <path d="M 511.223803 232.36 
L 511.223803 7.2 
" clip-path="url(#p407f18ef2c)" style="fill: none; stroke-dasharray: 3.7,1.6; stroke-dashoffset: 0; stroke: #808080; stroke-opacity: 0.3"/>
   </g>
   <g id="patch_3">
    <path d="M 55.7225 232.36 
L 55.7225 7.2 
" style="fill: none; stroke: #000000; stroke-width: 2; stroke-linejoin: miter; stroke-linecap: square"/>
   </g>
   <g id="patch_4">
    <path d="M 55.7225 232.36 
L 561.6825 232.36 
" style="fill: none; stroke: #000000; stroke-width: 2; stroke-linejoin: miter; stroke-linecap: square"/>
   </g>
  </g>
 </g>
 <defs>
  <clipPath id="p407f18ef2c">
   <rect x="55.7225" y="7.2" width="505.96" height="225.16"/>
  </clipPath>
 </defs>
</svg>
