<?xml version="1.0" encoding="utf-8" standalone="no"?>
<!DOCTYPE svg PUBLIC "-//W3C//DTD SVG 1.1//EN"
  "http://www.w3.org/Graphics/SVG/1.1/DTD/svg11.dtd">
<svg xmlns:xlink="http://www.w3.org/1999/xlink" width="185.3pt" height="112.148pt" viewBox="0 0 185.3 112.148" xmlns="http://www.w3.org/2000/svg" version="1.1">
 <metadata>
  <rdf:RDF xmlns:dc="http://purl.org/dc/elements/1.1/" xmlns:cc="http://creativecommons.org/ns#" xmlns:rdf="http://www.w3.org/1999/02/22-rdf-syntax-ns#">
   <cc:Work>
    <dc:type rdf:resource="http://purl.org/dc/dcmitype/StillImage"/>
    <dc:date>2025-05-15T20:54:53.352169</dc:date>
    <dc:format>image/svg+xml</dc:format>
    <dc:creator>
     <cc:Agent>
      <dc:title>Matplotlib v3.8.4, https://matplotlib.org/</dc:title>
     </cc:Agent>
    </dc:creator>
   </cc:Work>
  </rdf:RDF>
 </metadata>
 <defs>
  <style type="text/css">*{stroke-linejoin: round; stroke-linecap: butt}</style>
 </defs>
 <g id="figure_1">
  <g id="patch_1">
   <path d="M 0 112.148 
L 185.3 112.148 
L 185.3 0 
L 0 0 
L 0 112.148 
z
" style="fill: none"/>
  </g>
  <g id="axes_1">
   <g id="patch_2">
    <path d="M 10.7 101.448 
L 178.1 101.448 
L 178.1 7.2 
L 10.7 7.2 
L 10.7 101.448 
z
" style="fill: none"/>
   </g>
   <g id="matplotlib.axis_1">
    <g id="xtick_1">
     <g id="line2d_1">
      <defs>
       <path id="m3c333588c8" d="M 0 0 
L 0 3.5 
" style="stroke: #000000; stroke-width: 0.8"/>
      </defs>
      <g>
       <use xlink:href="#m3c333588c8" x="10.7" y="101.448" style="stroke: #000000; stroke-width: 0.8"/>
      </g>
     </g>
    </g>
    <g id="xtick_2">
     <g id="line2d_2">
      <g>
       <use xlink:href="#m3c333588c8" x="58.422049" y="101.448" style="stroke: #000000; stroke-width: 0.8"/>
      </g>
     </g>
    </g>
    <g id="xtick_3">
     <g id="line2d_3">
      <g>
       <use xlink:href="#m3c333588c8" x="106.144098" y="101.448" style="stroke: #000000; stroke-width: 0.8"/>
      </g>
     </g>
    </g>
    <g id="xtick_4">
     <g id="line2d_4">
      <g>
       <use xlink:href="#m3c333588c8" x="153.866147" y="101.448" style="stroke: #000000; stroke-width: 0.8"/>
      </g>
     </g>
    </g>
   </g>
   <g id="matplotlib.axis_2">
    <g id="ytick_1">
     <g id="line2d_5">
      <defs>
       <path id="mc82d9a8824" d="M 0 0 
L -3.5 0 
" style="stroke: #000000; stroke-width: 0.8"/>
      </defs>
      <g>
       <use xlink:href="#mc82d9a8824" x="10.7" y="101.448" style="stroke: #000000; stroke-width: 0.8"/>
      </g>
     </g>
    </g>
    <g id="ytick_2">
     <g id="line2d_6">
      <g>
       <use xlink:href="#mc82d9a8824" x="10.7" y="82.5984" style="stroke: #000000; stroke-width: 0.8"/>
      </g>
     </g>
    </g>
    <g id="ytick_3">
     <g id="line2d_7">
      <g>
       <use xlink:href="#mc82d9a8824" x="10.7" y="63.7488" style="stroke: #000000; stroke-width: 0.8"/>
      </g>
     </g>
    </g>
    <g id="ytick_4">
     <g id="line2d_8">
      <g>
       <use xlink:href="#mc82d9a8824" x="10.7" y="44.8992" style="stroke: #000000; stroke-width: 0.8"/>
      </g>
     </g>
    </g>
    <g id="ytick_5">
     <g id="line2d_9">
      <g>
       <use xlink:href="#mc82d9a8824" x="10.7" y="26.0496" style="stroke: #000000; stroke-width: 0.8"/>
      </g>
     </g>
    </g>
    <g id="ytick_6">
     <g id="line2d_10">
      <g>
       <use xlink:href="#mc82d9a8824" x="10.7" y="7.2" style="stroke: #000000; stroke-width: 0.8"/>
      </g>
     </g>
    </g>
   </g>
   <g id="line2d_11">
    <path d="M 16.665256 101.448 
L 57.676392 101.448 
L 58.422049 89.667 
L 59.913363 89.667 
L 60.286192 83.7765 
L 60.65902 83.7765 
L 61.031849 77.886 
L 61.777506 77.886 
L 62.150334 71.9955 
L 63.641648 71.9955 
L 64.387305 83.7765 
L 65.878619 83.7765 
L 66.251448 89.667 
L 66.624276 89.667 
L 66.997105 95.5575 
L 67.742762 95.5575 
L 68.11559 101.448 
L 71.098218 101.448 
L 72.216704 83.7765 
L 72.962361 83.7765 
L 73.335189 77.886 
L 77.063474 77.886 
L 77.436303 83.7765 
L 77.809131 83.7765 
L 78.18196 89.667 
L 83.401559 89.667 
L 83.774388 95.5575 
L 84.892873 95.5575 
L 85.265702 101.448 
L 88.24833 101.448 
L 88.621158 95.5575 
L 90.112472 95.5575 
L 91.603786 71.9955 
L 91.976615 71.9955 
L 92.349443 66.105 
L 92.722272 66.105 
L 93.0951 60.2145 
L 93.467929 60.2145 
L 94.213586 48.4335 
L 94.586414 54.324 
L 95.332071 54.324 
L 95.7049 48.4335 
L 96.077728 48.4335 
L 96.450557 54.324 
L 96.823385 54.324 
L 97.196214 60.2145 
L 97.569042 60.2145 
L 97.941871 54.324 
L 98.314699 60.2145 
L 98.687528 60.2145 
L 99.060356 66.105 
L 99.433185 66.105 
L 100.178842 77.886 
L 100.924499 77.886 
L 101.297327 71.9955 
L 101.670156 71.9955 
L 102.042984 66.105 
L 102.415813 66.105 
L 102.788641 71.9955 
L 103.16147 66.105 
L 103.534298 71.9955 
L 104.279955 71.9955 
L 105.025612 60.2145 
L 105.771269 60.2145 
L 106.144098 54.324 
L 106.516927 54.324 
L 106.889755 48.4335 
L 108.008241 48.4335 
L 108.753898 36.6525 
L 109.499555 36.6525 
L 109.872383 42.543 
L 112.482183 42.543 
L 113.22784 54.324 
L 113.600668 54.324 
L 114.719154 71.9955 
L 115.091982 71.9955 
L 115.837639 60.2145 
L 116.956125 60.2145 
L 117.701782 48.4335 
L 118.07461 48.4335 
L 119.193096 30.762 
L 119.565924 30.762 
L 120.68441 13.0905 
L 122.175724 13.0905 
L 122.548552 18.981 
L 123.294209 18.981 
L 123.667038 24.8715 
L 124.785523 24.8715 
L 125.53118 36.6525 
L 125.904009 36.6525 
L 126.276837 42.543 
L 127.768151 42.543 
L 128.513808 30.762 
L 129.259465 30.762 
L 129.632294 24.8715 
L 130.75078 42.543 
L 131.496437 42.543 
L 131.869265 48.4335 
L 132.242094 42.543 
L 135.59755 42.543 
L 137.834521 7.2 
L 138.20735 7.2 
L 138.580178 13.0905 
L 140.444321 13.0905 
L 140.817149 18.981 
L 141.935635 18.981 
L 142.308463 24.8715 
L 144.172606 24.8715 
L 144.545434 18.981 
L 146.409577 18.981 
L 146.782405 13.0905 
L 153.866147 13.0905 
L 154.238976 7.2 
L 177.727171 7.2 
L 177.727171 7.2 
" style="fill: none; stroke: #a6a6a6; stroke-width: 2; stroke-linecap: square"/>
   </g>
   <g id="line2d_12">
    <path d="M 16.665256 94.674102 
L 19.275056 94.674102 
L 19.647884 94.324819 
L 20.020713 93.005072 
L 20.76637 93.005072 
L 21.139198 94.950202 
L 21.512027 93.70117 
L 21.884855 95.648592 
L 22.257684 93.891932 
L 23.003341 93.891932 
L 23.748998 87.871314 
L 24.121826 86.429021 
L 25.240312 86.429021 
L 25.61314 88.645788 
L 25.985969 89.965535 
L 27.104454 89.965535 
L 27.477283 92.22843 
L 27.850111 92.22843 
L 28.22294 93.985089 
L 28.968597 93.985089 
L 29.341425 94.25435 
L 29.714254 97.495332 
L 30.087082 98.937625 
L 30.832739 98.937625 
L 31.205568 95.804764 
L 31.951225 95.804764 
L 32.324053 92.8582 
L 34.933853 92.8582 
L 35.306682 95.368576 
L 35.67951 89.478076 
L 36.052339 85.950304 
L 36.425167 84.223762 
L 36.797996 80.77338 
L 37.170824 80.537712 
L 37.916481 74.049383 
L 38.28931 76.995947 
L 41.271938 76.995947 
L 41.644766 82.886447 
L 42.017595 82.735678 
L 42.390423 82.075796 
L 42.763252 83.036229 
L 43.13608 83.090928 
L 43.881737 89.579257 
L 45.373051 89.579257 
L 45.74588 85.88105 
L 46.864365 85.88105 
L 47.237194 82.466894 
L 47.610022 80.118462 
L 47.982851 83.797003 
L 48.728508 88.673376 
L 49.101336 91.987205 
L 49.846993 91.987205 
L 50.219822 88.125275 
L 51.338307 88.125275 
L 51.711136 91.823482 
L 52.456793 85.112442 
L 52.829621 85.112442 
L 53.20245 88.526598 
L 53.575278 90.87503 
L 53.948107 90.87503 
L 54.320935 85.714754 
L 54.693764 82.618485 
L 55.812249 82.618485 
L 56.185078 86.480416 
L 57.676392 86.480416 
L 58.422049 93.191455 
L 58.794878 90.701891 
L 59.913363 90.701891 
L 60.286192 95.862167 
L 60.65902 94.615315 
L 61.404677 86.879306 
L 62.150334 80.369562 
L 63.641648 80.369562 
L 64.387305 74.211916 
L 64.760134 74.056728 
L 65.505791 64.349736 
L 66.251448 64.349736 
L 67.369933 76.428866 
L 68.11559 82.938609 
L 69.606904 82.938609 
L 69.979733 86.478067 
L 70.352561 84.932168 
L 70.72539 87.576921 
L 71.471047 97.283913 
L 74.826503 97.283913 
L 75.57216 89.151992 
L 75.944989 89.151992 
L 76.317817 93.316079 
L 77.809131 93.316079 
L 78.18196 90.109317 
L 80.791759 90.109317 
L 81.164588 93.858 
L 81.537416 93.434099 
L 82.283073 85.164315 
L 82.655902 81.049515 
L 83.774388 81.049515 
L 84.147216 80.544521 
L 85.63853 59.608597 
L 86.384187 52.823115 
L 86.757016 47.879798 
L 87.129844 47.879798 
L 88.24833 60.956721 
L 88.621158 65.071522 
L 89.739644 51.126122 
L 90.112472 51.748924 
L 90.485301 57.30347 
L 90.858129 56.976486 
L 91.230958 57.10448 
L 91.603786 57.045662 
L 92.349443 55.883599 
L 92.722272 60.826915 
L 93.840757 60.826915 
L 94.586414 49.639098 
L 95.332071 48.611699 
L 95.7049 48.698126 
L 96.077728 47.704639 
L 96.450557 47.704639 
L 97.569042 63.343825 
L 97.941871 67.283237 
L 98.314699 66.840013 
L 98.687528 62.632831 
L 99.433185 62.632831 
L 99.806013 58.053534 
L 100.178842 59.417691 
L 100.55167 60.162914 
L 100.924499 61.592007 
L 101.297327 60.884573 
L 101.670156 60.919079 
L 102.042984 59.421603 
L 103.16147 44.895694 
L 103.907127 36.843055 
L 104.652784 45.501595 
L 105.398441 45.501595 
L 107.262584 68.433115 
L 107.635412 68.328255 
L 108.008241 69.197597 
L 108.753898 69.690339 
L 109.499555 67.494538 
L 109.872383 71.963105 
L 110.61804 71.963105 
L 111.363697 62.930622 
L 112.109354 62.930622 
L 113.22784 47.254488 
L 113.600668 47.944929 
L 114.346325 48.575239 
L 115.464811 45.804117 
L 116.583296 31.599849 
L 116.956125 30.738683 
L 117.328953 29.29357 
L 118.07461 19.248658 
L 118.447439 18.679052 
L 118.820267 18.35711 
L 119.193096 18.498696 
L 119.938753 27.17354 
L 120.311581 27.147375 
L 121.802895 49.464173 
L 122.175724 53.242995 
L 123.667038 75.775714 
L 124.412695 86.297317 
L 125.158352 96.832912 
L 125.904009 96.832912 
L 126.276837 101.448 
L 128.886637 101.448 
L 130.377951 79.350907 
L 131.869265 57.068203 
L 133.360579 57.068203 
L 134.106236 47.207909 
L 134.851893 37.014107 
L 135.59755 37.064344 
L 135.970379 37.847147 
L 136.343207 38.207322 
L 136.716036 38.209767 
L 137.088864 39.077395 
L 137.461693 39.470905 
L 137.834521 39.304343 
L 139.325835 18.458054 
L 139.698664 17.687608 
L 140.817149 16.903485 
L 141.189978 16.903485 
L 141.562806 16.332402 
L 142.308463 14.5955 
L 142.681292 15.671971 
L 143.05412 15.265743 
L 143.426949 17.100982 
L 143.799777 17.746592 
L 144.545434 18.350716 
L 145.291091 17.976292 
L 145.66392 17.955092 
L 146.036748 18.480469 
L 146.409577 24.006875 
L 146.782405 23.764517 
L 147.155234 23.865125 
L 147.900891 25.055937 
L 148.273719 24.767806 
L 148.646548 23.33538 
L 149.019376 23.493052 
L 149.392205 21.3079 
L 149.765033 21.242122 
L 150.137862 20.964696 
L 150.51069 20.535006 
L 150.883519 20.983734 
L 151.256347 26.020204 
L 151.629176 25.921898 
L 152.002004 25.37653 
L 152.374833 19.83826 
L 152.747661 19.705136 
L 153.12049 19.761509 
L 153.493318 19.400732 
L 154.611804 19.355669 
L 154.984633 18.87946 
L 155.357461 18.937106 
L 155.73029 18.678221 
L 156.103118 18.633796 
L 156.475947 19.027133 
L 156.848775 18.510523 
L 157.221604 12.887254 
L 157.594432 13.159229 
L 158.340089 14.262034 
L 158.712918 14.283813 
L 159.085746 14.529278 
L 159.831403 14.115133 
L 160.57706 15.228827 
L 160.949889 14.834219 
L 161.695546 15.063258 
L 162.068374 14.924183 
L 162.441203 14.420229 
L 162.814031 14.456123 
L 163.18686 14.93696 
L 163.932517 14.634611 
L 164.305345 13.767595 
L 165.051002 13.15553 
L 165.796659 13.58471 
L 166.169488 13.474014 
L 166.542316 12.814368 
L 166.915145 12.81906 
L 167.287973 12.449492 
L 167.660802 12.279427 
L 168.03363 12.310466 
L 168.779287 12.612663 
L 169.524944 11.396496 
L 169.897773 10.804913 
L 170.64343 10.752957 
L 171.016258 10.91485 
L 171.761915 10.480763 
L 172.134744 10.117212 
L 172.507572 9.983759 
L 172.880401 9.99091 
L 173.626058 10.354447 
L 173.998886 10.396662 
L 175.117372 10.195852 
L 175.863029 10.980051 
L 176.608686 22.736964 
L 176.981514 22.503949 
L 177.354343 22.699771 
L 177.727171 22.524768 
L 177.727171 22.524768 
" style="fill: none; stroke: #20978b; stroke-width: 2; stroke-linecap: square"/>
   </g>
   <g id="patch_3">
    <path d="M 10.7 101.448 
L 10.7 7.2 
" style="fill: none; stroke: #000000; stroke-width: 2; stroke-linejoin: miter; stroke-linecap: square"/>
   </g>
   <g id="patch_4">
    <path d="M 10.7 101.448 
L 178.1 101.448 
" style="fill: none; stroke: #000000; stroke-width: 2; stroke-linejoin: miter; stroke-linecap: square"/>
   </g>
  </g>
 </g>
</svg>
