<?xml version="1.0" encoding="utf-8" standalone="no"?>
<!DOCTYPE svg PUBLIC "-//W3C//DTD SVG 1.1//EN"
  "http://www.w3.org/Graphics/SVG/1.1/DTD/svg11.dtd">
<svg xmlns:xlink="http://www.w3.org/1999/xlink" width="554.530313pt" height="246.086844pt" viewBox="0 0 554.530313 246.086844" xmlns="http://www.w3.org/2000/svg" version="1.1">
 <metadata>
  <rdf:RDF xmlns:dc="http://purl.org/dc/elements/1.1/" xmlns:cc="http://creativecommons.org/ns#" xmlns:rdf="http://www.w3.org/1999/02/22-rdf-syntax-ns#">
   <cc:Work>
    <dc:type rdf:resource="http://purl.org/dc/dcmitype/StillImage"/>
    <dc:date>2025-05-15T13:48:41.854550</dc:date>
    <dc:format>image/svg+xml</dc:format>
    <dc:creator>
     <cc:Agent>
      <dc:title>Matplotlib v3.8.4, https://matplotlib.org/</dc:title>
     </cc:Agent>
    </dc:creator>
   </cc:Work>
  </rdf:RDF>
 </metadata>
 <defs>
  <style type="text/css">*{stroke-linejoin: round; stroke-linecap: butt}</style>
 </defs>
 <g id="figure_1">
  <g id="patch_1">
   <path d="M 0 246.086844 
L 554.530313 246.086844 
L 554.530313 0 
L 0 0 
L 0 246.086844 
z
" style="fill: none"/>
  </g>
  <g id="axes_1">
   <g id="patch_2">
    <path d="M 58.03875 195.87825 
L 504.43875 195.87825 
L 504.43875 12.92625 
L 58.03875 12.92625 
L 58.03875 195.87825 
z
" style="fill: none"/>
   </g>
   <g id="matplotlib.axis_1">
    <g id="xtick_1">
     <g id="line2d_1">
      <defs>
       <path id="m867ade4b8a" d="M 0 0 
L 0 3.5 
" style="stroke: #000000; stroke-width: 0.8"/>
      </defs>
      <g>
       <use xlink:href="#m867ade4b8a" x="58.03875" y="195.87825" style="stroke: #000000; stroke-width: 0.8"/>
      </g>
     </g>
     <g id="text_1">
      <!-- 0 -->
      <g transform="translate(53.59 214.33075) scale(0.16 -0.16)">
       <defs>
        <path id="ArialMT-30" d="M 266 2259 
Q 266 3072 433 3567 
Q 600 4063 929 4331 
Q 1259 4600 1759 4600 
Q 2128 4600 2406 4451 
Q 2684 4303 2865 4023 
Q 3047 3744 3150 3342 
Q 3253 2941 3253 2259 
Q 3253 1453 3087 958 
Q 2922 463 2592 192 
Q 2263 -78 1759 -78 
Q 1097 -78 719 397 
Q 266 969 266 2259 
z
M 844 2259 
Q 844 1131 1108 757 
Q 1372 384 1759 384 
Q 2147 384 2411 759 
Q 2675 1134 2675 2259 
Q 2675 3391 2411 3762 
Q 2147 4134 1753 4134 
Q 1366 4134 1134 3806 
Q 844 3388 844 2259 
z
" transform="scale(0.015625)"/>
       </defs>
       <use xlink:href="#ArialMT-30"/>
      </g>
     </g>
    </g>
    <g id="xtick_2">
     <g id="line2d_2">
      <g>
       <use xlink:href="#m867ade4b8a" x="110.508171" y="195.87825" style="stroke: #000000; stroke-width: 0.8"/>
      </g>
     </g>
     <g id="text_2">
      <!-- 128 -->
      <g transform="translate(97.161921 214.33075) scale(0.16 -0.16)">
       <defs>
        <path id="ArialMT-31" d="M 2384 0 
L 1822 0 
L 1822 3584 
Q 1619 3391 1289 3197 
Q 959 3003 697 2906 
L 697 3450 
Q 1169 3672 1522 3987 
Q 1875 4303 2022 4600 
L 2384 4600 
L 2384 0 
z
" transform="scale(0.015625)"/>
        <path id="ArialMT-32" d="M 3222 541 
L 3222 0 
L 194 0 
Q 188 203 259 391 
Q 375 700 629 1000 
Q 884 1300 1366 1694 
Q 2113 2306 2375 2664 
Q 2638 3022 2638 3341 
Q 2638 3675 2398 3904 
Q 2159 4134 1775 4134 
Q 1369 4134 1125 3890 
Q 881 3647 878 3216 
L 300 3275 
Q 359 3922 746 4261 
Q 1134 4600 1788 4600 
Q 2447 4600 2831 4234 
Q 3216 3869 3216 3328 
Q 3216 3053 3103 2787 
Q 2991 2522 2730 2228 
Q 2469 1934 1863 1422 
Q 1356 997 1212 845 
Q 1069 694 975 541 
L 3222 541 
z
" transform="scale(0.015625)"/>
        <path id="ArialMT-38" d="M 1131 2484 
Q 781 2613 612 2850 
Q 444 3088 444 3419 
Q 444 3919 803 4259 
Q 1163 4600 1759 4600 
Q 2359 4600 2725 4251 
Q 3091 3903 3091 3403 
Q 3091 3084 2923 2848 
Q 2756 2613 2416 2484 
Q 2838 2347 3058 2040 
Q 3278 1734 3278 1309 
Q 3278 722 2862 322 
Q 2447 -78 1769 -78 
Q 1091 -78 675 323 
Q 259 725 259 1325 
Q 259 1772 486 2073 
Q 713 2375 1131 2484 
z
M 1019 3438 
Q 1019 3113 1228 2906 
Q 1438 2700 1772 2700 
Q 2097 2700 2305 2904 
Q 2513 3109 2513 3406 
Q 2513 3716 2298 3927 
Q 2084 4138 1766 4138 
Q 1444 4138 1231 3931 
Q 1019 3725 1019 3438 
z
M 838 1322 
Q 838 1081 952 856 
Q 1066 631 1291 507 
Q 1516 384 1775 384 
Q 2178 384 2440 643 
Q 2703 903 2703 1303 
Q 2703 1709 2433 1975 
Q 2163 2241 1756 2241 
Q 1359 2241 1098 1978 
Q 838 1716 838 1322 
z
" transform="scale(0.015625)"/>
       </defs>
       <use xlink:href="#ArialMT-31"/>
       <use xlink:href="#ArialMT-32" x="55.615234"/>
       <use xlink:href="#ArialMT-38" x="111.230469"/>
      </g>
     </g>
    </g>
    <g id="xtick_3">
     <g id="line2d_3">
      <g>
       <use xlink:href="#m867ade4b8a" x="162.977593" y="195.87825" style="stroke: #000000; stroke-width: 0.8"/>
      </g>
     </g>
     <g id="text_3">
      <!-- 256 -->
      <g transform="translate(149.631343 214.33075) scale(0.16 -0.16)">
       <defs>
        <path id="ArialMT-35" d="M 266 1200 
L 856 1250 
Q 922 819 1161 601 
Q 1400 384 1738 384 
Q 2144 384 2425 690 
Q 2706 997 2706 1503 
Q 2706 1984 2436 2262 
Q 2166 2541 1728 2541 
Q 1456 2541 1237 2417 
Q 1019 2294 894 2097 
L 366 2166 
L 809 4519 
L 3088 4519 
L 3088 3981 
L 1259 3981 
L 1013 2750 
Q 1425 3038 1878 3038 
Q 2478 3038 2890 2622 
Q 3303 2206 3303 1553 
Q 3303 931 2941 478 
Q 2500 -78 1738 -78 
Q 1113 -78 717 272 
Q 322 622 266 1200 
z
" transform="scale(0.015625)"/>
        <path id="ArialMT-36" d="M 3184 3459 
L 2625 3416 
Q 2550 3747 2413 3897 
Q 2184 4138 1850 4138 
Q 1581 4138 1378 3988 
Q 1113 3794 959 3422 
Q 806 3050 800 2363 
Q 1003 2672 1297 2822 
Q 1591 2972 1913 2972 
Q 2475 2972 2870 2558 
Q 3266 2144 3266 1488 
Q 3266 1056 3080 686 
Q 2894 316 2569 119 
Q 2244 -78 1831 -78 
Q 1128 -78 684 439 
Q 241 956 241 2144 
Q 241 3472 731 4075 
Q 1159 4600 1884 4600 
Q 2425 4600 2770 4297 
Q 3116 3994 3184 3459 
z
M 888 1484 
Q 888 1194 1011 928 
Q 1134 663 1356 523 
Q 1578 384 1822 384 
Q 2178 384 2434 671 
Q 2691 959 2691 1453 
Q 2691 1928 2437 2201 
Q 2184 2475 1800 2475 
Q 1419 2475 1153 2201 
Q 888 1928 888 1484 
z
" transform="scale(0.015625)"/>
       </defs>
       <use xlink:href="#ArialMT-32"/>
       <use xlink:href="#ArialMT-35" x="55.615234"/>
       <use xlink:href="#ArialMT-36" x="111.230469"/>
      </g>
     </g>
    </g>
    <g id="xtick_4">
     <g id="line2d_4">
      <g>
       <use xlink:href="#m867ade4b8a" x="215.447014" y="195.87825" style="stroke: #000000; stroke-width: 0.8"/>
      </g>
     </g>
     <g id="text_4">
      <!-- 384 -->
      <g transform="translate(202.100764 214.33075) scale(0.16 -0.16)">
       <defs>
        <path id="ArialMT-33" d="M 269 1209 
L 831 1284 
Q 928 806 1161 595 
Q 1394 384 1728 384 
Q 2125 384 2398 659 
Q 2672 934 2672 1341 
Q 2672 1728 2419 1979 
Q 2166 2231 1775 2231 
Q 1616 2231 1378 2169 
L 1441 2663 
Q 1497 2656 1531 2656 
Q 1891 2656 2178 2843 
Q 2466 3031 2466 3422 
Q 2466 3731 2256 3934 
Q 2047 4138 1716 4138 
Q 1388 4138 1169 3931 
Q 950 3725 888 3313 
L 325 3413 
Q 428 3978 793 4289 
Q 1159 4600 1703 4600 
Q 2078 4600 2393 4439 
Q 2709 4278 2876 4000 
Q 3044 3722 3044 3409 
Q 3044 3113 2884 2869 
Q 2725 2625 2413 2481 
Q 2819 2388 3044 2092 
Q 3269 1797 3269 1353 
Q 3269 753 2831 336 
Q 2394 -81 1725 -81 
Q 1122 -81 723 278 
Q 325 638 269 1209 
z
" transform="scale(0.015625)"/>
        <path id="ArialMT-34" d="M 2069 0 
L 2069 1097 
L 81 1097 
L 81 1613 
L 2172 4581 
L 2631 4581 
L 2631 1613 
L 3250 1613 
L 3250 1097 
L 2631 1097 
L 2631 0 
L 2069 0 
z
M 2069 1613 
L 2069 3678 
L 634 1613 
L 2069 1613 
z
" transform="scale(0.015625)"/>
       </defs>
       <use xlink:href="#ArialMT-33"/>
       <use xlink:href="#ArialMT-38" x="55.615234"/>
       <use xlink:href="#ArialMT-34" x="111.230469"/>
      </g>
     </g>
    </g>
    <g id="xtick_5">
     <g id="line2d_5">
      <g>
       <use xlink:href="#m867ade4b8a" x="267.916436" y="195.87825" style="stroke: #000000; stroke-width: 0.8"/>
      </g>
     </g>
     <g id="text_5">
      <!-- 512 -->
      <g transform="translate(254.570186 214.33075) scale(0.16 -0.16)">
       <use xlink:href="#ArialMT-35"/>
       <use xlink:href="#ArialMT-31" x="55.615234"/>
       <use xlink:href="#ArialMT-32" x="111.230469"/>
      </g>
     </g>
    </g>
    <g id="xtick_6">
     <g id="line2d_6">
      <g>
       <use xlink:href="#m867ade4b8a" x="320.385857" y="195.87825" style="stroke: #000000; stroke-width: 0.8"/>
      </g>
     </g>
     <g id="text_6">
      <!-- 640 -->
      <g transform="translate(307.039607 214.33075) scale(0.16 -0.16)">
       <use xlink:href="#ArialMT-36"/>
       <use xlink:href="#ArialMT-34" x="55.615234"/>
       <use xlink:href="#ArialMT-30" x="111.230469"/>
      </g>
     </g>
    </g>
    <g id="xtick_7">
     <g id="line2d_7">
      <g>
       <use xlink:href="#m867ade4b8a" x="372.855279" y="195.87825" style="stroke: #000000; stroke-width: 0.8"/>
      </g>
     </g>
     <g id="text_7">
      <!-- 768 -->
      <g transform="translate(359.509029 214.33075) scale(0.16 -0.16)">
       <defs>
        <path id="ArialMT-37" d="M 303 3981 
L 303 4522 
L 3269 4522 
L 3269 4084 
Q 2831 3619 2401 2847 
Q 1972 2075 1738 1259 
Q 1569 684 1522 0 
L 944 0 
Q 953 541 1156 1306 
Q 1359 2072 1739 2783 
Q 2119 3494 2547 3981 
L 303 3981 
z
" transform="scale(0.015625)"/>
       </defs>
       <use xlink:href="#ArialMT-37"/>
       <use xlink:href="#ArialMT-36" x="55.615234"/>
       <use xlink:href="#ArialMT-38" x="111.230469"/>
      </g>
     </g>
    </g>
    <g id="xtick_8">
     <g id="line2d_8">
      <g>
       <use xlink:href="#m867ade4b8a" x="425.3247" y="195.87825" style="stroke: #000000; stroke-width: 0.8"/>
      </g>
     </g>
     <g id="text_8">
      <!-- 896 -->
      <g transform="translate(411.97845 214.33075) scale(0.16 -0.16)">
       <defs>
        <path id="ArialMT-39" d="M 350 1059 
L 891 1109 
Q 959 728 1153 556 
Q 1347 384 1650 384 
Q 1909 384 2104 503 
Q 2300 622 2425 820 
Q 2550 1019 2634 1356 
Q 2719 1694 2719 2044 
Q 2719 2081 2716 2156 
Q 2547 1888 2255 1720 
Q 1963 1553 1622 1553 
Q 1053 1553 659 1965 
Q 266 2378 266 3053 
Q 266 3750 677 4175 
Q 1088 4600 1706 4600 
Q 2153 4600 2523 4359 
Q 2894 4119 3086 3673 
Q 3278 3228 3278 2384 
Q 3278 1506 3087 986 
Q 2897 466 2520 194 
Q 2144 -78 1638 -78 
Q 1100 -78 759 220 
Q 419 519 350 1059 
z
M 2653 3081 
Q 2653 3566 2395 3850 
Q 2138 4134 1775 4134 
Q 1400 4134 1122 3828 
Q 844 3522 844 3034 
Q 844 2597 1108 2323 
Q 1372 2050 1759 2050 
Q 2150 2050 2401 2323 
Q 2653 2597 2653 3081 
z
" transform="scale(0.015625)"/>
       </defs>
       <use xlink:href="#ArialMT-38"/>
       <use xlink:href="#ArialMT-39" x="55.615234"/>
       <use xlink:href="#ArialMT-36" x="111.230469"/>
      </g>
     </g>
    </g>
    <g id="xtick_9">
     <g id="line2d_9">
      <g>
       <use xlink:href="#m867ade4b8a" x="477.794122" y="195.87825" style="stroke: #000000; stroke-width: 0.8"/>
      </g>
     </g>
     <g id="text_9">
      <!-- 1024 -->
      <g transform="translate(459.999122 214.33075) scale(0.16 -0.16)">
       <use xlink:href="#ArialMT-31"/>
       <use xlink:href="#ArialMT-30" x="55.615234"/>
       <use xlink:href="#ArialMT-32" x="111.230469"/>
       <use xlink:href="#ArialMT-34" x="166.845703"/>
      </g>
     </g>
    </g>
    <g id="text_10">
     <!-- Trial -->
     <g transform="translate(263.124922 235.110594) scale(0.19 -0.19)">
      <defs>
       <path id="ArialMT-54" d="M 1659 0 
L 1659 4041 
L 150 4041 
L 150 4581 
L 3781 4581 
L 3781 4041 
L 2266 4041 
L 2266 0 
L 1659 0 
z
" transform="scale(0.015625)"/>
       <path id="ArialMT-72" d="M 416 0 
L 416 3319 
L 922 3319 
L 922 2816 
Q 1116 3169 1280 3281 
Q 1444 3394 1641 3394 
Q 1925 3394 2219 3213 
L 2025 2691 
Q 1819 2813 1613 2813 
Q 1428 2813 1281 2702 
Q 1134 2591 1072 2394 
Q 978 2094 978 1738 
L 978 0 
L 416 0 
z
" transform="scale(0.015625)"/>
       <path id="ArialMT-69" d="M 425 3934 
L 425 4581 
L 988 4581 
L 988 3934 
L 425 3934 
z
M 425 0 
L 425 3319 
L 988 3319 
L 988 0 
L 425 0 
z
" transform="scale(0.015625)"/>
       <path id="ArialMT-61" d="M 2588 409 
Q 2275 144 1986 34 
Q 1697 -75 1366 -75 
Q 819 -75 525 192 
Q 231 459 231 875 
Q 231 1119 342 1320 
Q 453 1522 633 1644 
Q 813 1766 1038 1828 
Q 1203 1872 1538 1913 
Q 2219 1994 2541 2106 
Q 2544 2222 2544 2253 
Q 2544 2597 2384 2738 
Q 2169 2928 1744 2928 
Q 1347 2928 1158 2789 
Q 969 2650 878 2297 
L 328 2372 
Q 403 2725 575 2942 
Q 747 3159 1072 3276 
Q 1397 3394 1825 3394 
Q 2250 3394 2515 3294 
Q 2781 3194 2906 3042 
Q 3031 2891 3081 2659 
Q 3109 2516 3109 2141 
L 3109 1391 
Q 3109 606 3145 398 
Q 3181 191 3288 0 
L 2700 0 
Q 2613 175 2588 409 
z
M 2541 1666 
Q 2234 1541 1622 1453 
Q 1275 1403 1131 1340 
Q 988 1278 909 1158 
Q 831 1038 831 891 
Q 831 666 1001 516 
Q 1172 366 1500 366 
Q 1825 366 2078 508 
Q 2331 650 2450 897 
Q 2541 1088 2541 1459 
L 2541 1666 
z
" transform="scale(0.015625)"/>
       <path id="ArialMT-6c" d="M 409 0 
L 409 4581 
L 972 4581 
L 972 0 
L 409 0 
z
" transform="scale(0.015625)"/>
      </defs>
      <use xlink:href="#ArialMT-54"/>
      <use xlink:href="#ArialMT-72" x="57.333984"/>
      <use xlink:href="#ArialMT-69" x="90.634766"/>
      <use xlink:href="#ArialMT-61" x="112.851562"/>
      <use xlink:href="#ArialMT-6c" x="168.466797"/>
     </g>
    </g>
   </g>
   <g id="matplotlib.axis_2">
    <g id="ytick_1">
     <g id="line2d_10">
      <defs>
       <path id="mb316048a46" d="M 0 0 
L -3.5 0 
" style="stroke: #000000; stroke-width: 0.8"/>
      </defs>
      <g>
       <use xlink:href="#mb316048a46" x="58.03875" y="195.87825" style="stroke: #000000; stroke-width: 0.8"/>
      </g>
     </g>
     <g id="text_11">
      <!-- 0.0 -->
      <g transform="translate(28.79875 201.6045) scale(0.16 -0.16)">
       <defs>
        <path id="ArialMT-2e" d="M 581 0 
L 581 641 
L 1222 641 
L 1222 0 
L 581 0 
z
" transform="scale(0.015625)"/>
       </defs>
       <use xlink:href="#ArialMT-30"/>
       <use xlink:href="#ArialMT-2e" x="55.615234"/>
       <use xlink:href="#ArialMT-30" x="83.398438"/>
      </g>
     </g>
    </g>
    <g id="ytick_2">
     <g id="line2d_11">
      <g>
       <use xlink:href="#mb316048a46" x="58.03875" y="159.28785" style="stroke: #000000; stroke-width: 0.8"/>
      </g>
     </g>
     <g id="text_12">
      <!-- 0.2 -->
      <g transform="translate(28.79875 165.0141) scale(0.16 -0.16)">
       <use xlink:href="#ArialMT-30"/>
       <use xlink:href="#ArialMT-2e" x="55.615234"/>
       <use xlink:href="#ArialMT-32" x="83.398438"/>
      </g>
     </g>
    </g>
    <g id="ytick_3">
     <g id="line2d_12">
      <g>
       <use xlink:href="#mb316048a46" x="58.03875" y="122.69745" style="stroke: #000000; stroke-width: 0.8"/>
      </g>
     </g>
     <g id="text_13">
      <!-- 0.4 -->
      <g transform="translate(28.79875 128.4237) scale(0.16 -0.16)">
       <use xlink:href="#ArialMT-30"/>
       <use xlink:href="#ArialMT-2e" x="55.615234"/>
       <use xlink:href="#ArialMT-34" x="83.398438"/>
      </g>
     </g>
    </g>
    <g id="ytick_4">
     <g id="line2d_13">
      <g>
       <use xlink:href="#mb316048a46" x="58.03875" y="86.10705" style="stroke: #000000; stroke-width: 0.8"/>
      </g>
     </g>
     <g id="text_14">
      <!-- 0.6 -->
      <g transform="translate(28.79875 91.8333) scale(0.16 -0.16)">
       <use xlink:href="#ArialMT-30"/>
       <use xlink:href="#ArialMT-2e" x="55.615234"/>
       <use xlink:href="#ArialMT-36" x="83.398438"/>
      </g>
     </g>
    </g>
    <g id="ytick_5">
     <g id="line2d_14">
      <g>
       <use xlink:href="#mb316048a46" x="58.03875" y="49.51665" style="stroke: #000000; stroke-width: 0.8"/>
      </g>
     </g>
     <g id="text_15">
      <!-- 0.8 -->
      <g transform="translate(28.79875 55.2429) scale(0.16 -0.16)">
       <use xlink:href="#ArialMT-30"/>
       <use xlink:href="#ArialMT-2e" x="55.615234"/>
       <use xlink:href="#ArialMT-38" x="83.398438"/>
      </g>
     </g>
    </g>
    <g id="ytick_6">
     <g id="line2d_15">
      <g>
       <use xlink:href="#mb316048a46" x="58.03875" y="12.92625" style="stroke: #000000; stroke-width: 0.8"/>
      </g>
     </g>
     <g id="text_16">
      <!-- 1.0 -->
      <g transform="translate(28.79875 18.6525) scale(0.16 -0.16)">
       <use xlink:href="#ArialMT-31"/>
       <use xlink:href="#ArialMT-2e" x="55.615234"/>
       <use xlink:href="#ArialMT-30" x="83.398438"/>
      </g>
     </g>
    </g>
    <g id="text_17">
     <!-- True-hypo probability -->
     <g transform="translate(20.799844 193.277719) rotate(-90) scale(0.19 -0.19)">
      <defs>
       <path id="ArialMT-75" d="M 2597 0 
L 2597 488 
Q 2209 -75 1544 -75 
Q 1250 -75 995 37 
Q 741 150 617 320 
Q 494 491 444 738 
Q 409 903 409 1263 
L 409 3319 
L 972 3319 
L 972 1478 
Q 972 1038 1006 884 
Q 1059 663 1231 536 
Q 1403 409 1656 409 
Q 1909 409 2131 539 
Q 2353 669 2445 892 
Q 2538 1116 2538 1541 
L 2538 3319 
L 3100 3319 
L 3100 0 
L 2597 0 
z
" transform="scale(0.015625)"/>
       <path id="ArialMT-65" d="M 2694 1069 
L 3275 997 
Q 3138 488 2766 206 
Q 2394 -75 1816 -75 
Q 1088 -75 661 373 
Q 234 822 234 1631 
Q 234 2469 665 2931 
Q 1097 3394 1784 3394 
Q 2450 3394 2872 2941 
Q 3294 2488 3294 1666 
Q 3294 1616 3291 1516 
L 816 1516 
Q 847 969 1125 678 
Q 1403 388 1819 388 
Q 2128 388 2347 550 
Q 2566 713 2694 1069 
z
M 847 1978 
L 2700 1978 
Q 2663 2397 2488 2606 
Q 2219 2931 1791 2931 
Q 1403 2931 1139 2672 
Q 875 2413 847 1978 
z
" transform="scale(0.015625)"/>
       <path id="ArialMT-2d" d="M 203 1375 
L 203 1941 
L 1931 1941 
L 1931 1375 
L 203 1375 
z
" transform="scale(0.015625)"/>
       <path id="ArialMT-68" d="M 422 0 
L 422 4581 
L 984 4581 
L 984 2938 
Q 1378 3394 1978 3394 
Q 2347 3394 2619 3248 
Q 2891 3103 3008 2847 
Q 3125 2591 3125 2103 
L 3125 0 
L 2563 0 
L 2563 2103 
Q 2563 2525 2380 2717 
Q 2197 2909 1863 2909 
Q 1613 2909 1392 2779 
Q 1172 2650 1078 2428 
Q 984 2206 984 1816 
L 984 0 
L 422 0 
z
" transform="scale(0.015625)"/>
       <path id="ArialMT-79" d="M 397 -1278 
L 334 -750 
Q 519 -800 656 -800 
Q 844 -800 956 -737 
Q 1069 -675 1141 -563 
Q 1194 -478 1313 -144 
Q 1328 -97 1363 -6 
L 103 3319 
L 709 3319 
L 1400 1397 
Q 1534 1031 1641 628 
Q 1738 1016 1872 1384 
L 2581 3319 
L 3144 3319 
L 1881 -56 
Q 1678 -603 1566 -809 
Q 1416 -1088 1222 -1217 
Q 1028 -1347 759 -1347 
Q 597 -1347 397 -1278 
z
" transform="scale(0.015625)"/>
       <path id="ArialMT-70" d="M 422 -1272 
L 422 3319 
L 934 3319 
L 934 2888 
Q 1116 3141 1344 3267 
Q 1572 3394 1897 3394 
Q 2322 3394 2647 3175 
Q 2972 2956 3137 2557 
Q 3303 2159 3303 1684 
Q 3303 1175 3120 767 
Q 2938 359 2589 142 
Q 2241 -75 1856 -75 
Q 1575 -75 1351 44 
Q 1128 163 984 344 
L 984 -1272 
L 422 -1272 
z
M 931 1641 
Q 931 1000 1190 694 
Q 1450 388 1819 388 
Q 2194 388 2461 705 
Q 2728 1022 2728 1688 
Q 2728 2322 2467 2637 
Q 2206 2953 1844 2953 
Q 1484 2953 1207 2617 
Q 931 2281 931 1641 
z
" transform="scale(0.015625)"/>
       <path id="ArialMT-6f" d="M 213 1659 
Q 213 2581 725 3025 
Q 1153 3394 1769 3394 
Q 2453 3394 2887 2945 
Q 3322 2497 3322 1706 
Q 3322 1066 3130 698 
Q 2938 331 2570 128 
Q 2203 -75 1769 -75 
Q 1072 -75 642 372 
Q 213 819 213 1659 
z
M 791 1659 
Q 791 1022 1069 705 
Q 1347 388 1769 388 
Q 2188 388 2466 706 
Q 2744 1025 2744 1678 
Q 2744 2294 2464 2611 
Q 2184 2928 1769 2928 
Q 1347 2928 1069 2612 
Q 791 2297 791 1659 
z
" transform="scale(0.015625)"/>
       <path id="ArialMT-20" transform="scale(0.015625)"/>
       <path id="ArialMT-62" d="M 941 0 
L 419 0 
L 419 4581 
L 981 4581 
L 981 2947 
Q 1338 3394 1891 3394 
Q 2197 3394 2470 3270 
Q 2744 3147 2920 2923 
Q 3097 2700 3197 2384 
Q 3297 2069 3297 1709 
Q 3297 856 2875 390 
Q 2453 -75 1863 -75 
Q 1275 -75 941 416 
L 941 0 
z
M 934 1684 
Q 934 1088 1097 822 
Q 1363 388 1816 388 
Q 2184 388 2453 708 
Q 2722 1028 2722 1663 
Q 2722 2313 2464 2622 
Q 2206 2931 1841 2931 
Q 1472 2931 1203 2611 
Q 934 2291 934 1684 
z
" transform="scale(0.015625)"/>
       <path id="ArialMT-74" d="M 1650 503 
L 1731 6 
Q 1494 -44 1306 -44 
Q 1000 -44 831 53 
Q 663 150 594 308 
Q 525 466 525 972 
L 525 2881 
L 113 2881 
L 113 3319 
L 525 3319 
L 525 4141 
L 1084 4478 
L 1084 3319 
L 1650 3319 
L 1650 2881 
L 1084 2881 
L 1084 941 
Q 1084 700 1114 631 
Q 1144 563 1211 522 
Q 1278 481 1403 481 
Q 1497 481 1650 503 
z
" transform="scale(0.015625)"/>
      </defs>
      <use xlink:href="#ArialMT-54"/>
      <use xlink:href="#ArialMT-72" x="57.333984"/>
      <use xlink:href="#ArialMT-75" x="90.634766"/>
      <use xlink:href="#ArialMT-65" x="146.25"/>
      <use xlink:href="#ArialMT-2d" x="201.865234"/>
      <use xlink:href="#ArialMT-68" x="235.166016"/>
      <use xlink:href="#ArialMT-79" x="290.78125"/>
      <use xlink:href="#ArialMT-70" x="340.78125"/>
      <use xlink:href="#ArialMT-6f" x="396.396484"/>
      <use xlink:href="#ArialMT-20" x="452.011719"/>
      <use xlink:href="#ArialMT-70" x="479.794922"/>
      <use xlink:href="#ArialMT-72" x="535.410156"/>
      <use xlink:href="#ArialMT-6f" x="568.710938"/>
      <use xlink:href="#ArialMT-62" x="624.326172"/>
      <use xlink:href="#ArialMT-61" x="679.941406"/>
      <use xlink:href="#ArialMT-62" x="735.556641"/>
      <use xlink:href="#ArialMT-69" x="791.171875"/>
      <use xlink:href="#ArialMT-6c" x="813.388672"/>
      <use xlink:href="#ArialMT-69" x="835.605469"/>
      <use xlink:href="#ArialMT-74" x="857.822266"/>
      <use xlink:href="#ArialMT-79" x="885.605469"/>
     </g>
    </g>
   </g>
   <g id="line2d_16">
    <path d="M 64.597428 195.87825 
L 66.237097 195.87825 
L 66.647014 184.44375 
L 67.466849 184.44375 
L 68.286684 161.57475 
L 70.746188 161.57475 
L 71.566023 138.70575 
L 71.97594 138.70575 
L 72.385857 127.27125 
L 74.025527 127.27125 
L 74.845362 150.14025 
L 77.304866 150.14025 
L 78.1247 173.00925 
L 78.534618 173.00925 
L 78.944535 184.44375 
L 79.354452 184.44375 
L 79.76437 195.87825 
L 112.147841 195.87825 
L 112.557758 184.44375 
L 118.706519 184.44375 
L 119.116436 195.87825 
L 203.969329 195.87825 
L 206.018915 138.70575 
L 206.83875 138.70575 
L 207.248667 127.27125 
L 208.068502 127.27125 
L 208.888337 104.40225 
L 211.757758 104.40225 
L 212.577593 127.27125 
L 214.62718 127.27125 
L 215.447014 150.14025 
L 217.086684 150.14025 
L 218.316436 184.44375 
L 220.366023 184.44375 
L 220.77594 173.00925 
L 221.595775 173.00925 
L 222.005692 161.57475 
L 223.235444 161.57475 
L 224.055279 138.70575 
L 225.694948 138.70575 
L 226.104866 127.27125 
L 226.514783 127.27125 
L 226.9247 138.70575 
L 228.154452 138.70575 
L 228.56437 150.14025 
L 229.794122 150.14025 
L 230.613957 173.00925 
L 231.023874 173.00925 
L 231.433791 161.57475 
L 232.253626 161.57475 
L 232.663543 173.00925 
L 233.483378 173.00925 
L 233.893295 184.44375 
L 234.303213 173.00925 
L 235.123048 173.00925 
L 235.532965 161.57475 
L 237.582552 161.57475 
L 237.992469 173.00925 
L 238.402386 161.57475 
L 240.451973 161.57475 
L 240.86189 173.00925 
L 241.681725 173.00925 
L 242.091643 184.44375 
L 242.911477 184.44375 
L 243.731312 161.57475 
L 244.551147 161.57475 
L 244.961064 173.00925 
L 247.830486 173.00925 
L 248.240403 161.57475 
L 249.880072 161.57475 
L 250.28999 173.00925 
L 250.699907 161.57475 
L 251.109824 161.57475 
L 251.519742 150.14025 
L 251.929659 150.14025 
L 252.339576 138.70575 
L 254.389163 138.70575 
L 254.799081 150.14025 
L 256.028833 150.14025 
L 256.43875 161.57475 
L 257.668502 161.57475 
L 258.078419 173.00925 
L 259.718089 173.00925 
L 260.537924 150.14025 
L 261.357758 150.14025 
L 261.767676 138.70575 
L 262.177593 138.70575 
L 262.58751 127.27125 
L 262.997428 127.27125 
L 263.407345 115.83675 
L 263.817262 127.27125 
L 265.047014 127.27125 
L 265.456932 138.70575 
L 266.276767 138.70575 
L 267.096601 161.57475 
L 267.506519 161.57475 
L 267.916436 150.14025 
L 268.326353 161.57475 
L 269.556105 161.57475 
L 269.966023 173.00925 
L 270.785857 173.00925 
L 271.195775 161.57475 
L 272.01561 161.57475 
L 272.425527 150.14025 
L 273.245362 150.14025 
L 273.655279 138.70575 
L 274.065196 138.70575 
L 274.475114 150.14025 
L 275.294948 127.27125 
L 275.704866 138.70575 
L 277.344535 138.70575 
L 277.754452 150.14025 
L 278.16437 138.70575 
L 278.574287 138.70575 
L 278.984205 150.14025 
L 279.804039 150.14025 
L 280.213957 161.57475 
L 280.623874 150.14025 
L 281.033791 150.14025 
L 281.853626 173.00925 
L 284.31313 173.00925 
L 284.723048 184.44375 
L 286.362717 184.44375 
L 286.772634 173.00925 
L 287.182552 184.44375 
L 290.051973 184.44375 
L 290.871808 161.57475 
L 291.281725 161.57475 
L 292.10156 138.70575 
L 292.921395 138.70575 
L 293.331312 150.14025 
L 296.610651 150.14025 
L 297.430486 173.00925 
L 297.840403 173.00925 
L 298.660238 195.87825 
L 308.908171 195.87825 
L 309.318089 184.44375 
L 309.728006 184.44375 
L 310.137924 173.00925 
L 310.547841 173.00925 
L 310.957758 161.57475 
L 312.18751 161.57475 
L 312.597428 150.14025 
L 313.007345 150.14025 
L 313.417262 138.70575 
L 313.82718 138.70575 
L 314.237097 127.27125 
L 314.647014 127.27125 
L 315.466849 104.40225 
L 315.876767 115.83675 
L 317.106519 115.83675 
L 317.516436 127.27125 
L 318.746188 127.27125 
L 319.156105 138.70575 
L 319.566023 138.70575 
L 319.97594 150.14025 
L 321.61561 150.14025 
L 322.025527 161.57475 
L 322.845362 161.57475 
L 323.255279 173.00925 
L 326.944535 173.00925 
L 327.354452 184.44375 
L 327.76437 184.44375 
L 328.174287 195.87825 
L 335.142882 195.87825 
L 335.962717 173.00925 
L 337.192469 173.00925 
L 337.602386 161.57475 
L 338.012304 161.57475 
L 338.422221 150.14025 
L 339.242056 150.14025 
L 340.06189 127.27125 
L 342.111477 127.27125 
L 342.521395 138.70575 
L 344.570981 138.70575 
L 344.980899 150.14025 
L 345.800733 150.14025 
L 346.620568 173.00925 
L 347.030486 161.57475 
L 348.260238 161.57475 
L 348.670155 173.00925 
L 350.309824 173.00925 
L 350.719742 184.44375 
L 353.179246 184.44375 
L 353.589163 195.87825 
L 367.526353 195.87825 
L 367.936271 184.44375 
L 368.346188 184.44375 
L 369.57594 150.14025 
L 369.985857 150.14025 
L 371.625527 104.40225 
L 372.445362 104.40225 
L 373.675114 70.09875 
L 374.085031 70.09875 
L 374.494948 81.53325 
L 377.774287 81.53325 
L 378.184205 92.96775 
L 379.004039 70.09875 
L 379.823874 92.96775 
L 380.233791 92.96775 
L 380.643709 81.53325 
L 381.053626 81.53325 
L 381.463543 70.09875 
L 381.873461 81.53325 
L 383.923048 81.53325 
L 384.332965 92.96775 
L 384.742882 92.96775 
L 385.562717 115.83675 
L 385.972634 104.40225 
L 387.202386 104.40225 
L 387.612304 92.96775 
L 388.022221 92.96775 
L 388.432138 81.53325 
L 388.842056 92.96775 
L 389.251973 92.96775 
L 389.66189 81.53325 
L 390.481725 104.40225 
L 391.30156 104.40225 
L 391.711477 92.96775 
L 393.351147 92.96775 
L 394.580899 127.27125 
L 395.400733 127.27125 
L 396.220568 150.14025 
L 396.630486 150.14025 
L 397.040403 138.70575 
L 398.270155 138.70575 
L 398.680072 127.27125 
L 399.08999 138.70575 
L 399.499907 138.70575 
L 399.909824 150.14025 
L 400.319742 150.14025 
L 401.139576 127.27125 
L 401.549494 138.70575 
L 402.779246 138.70575 
L 403.189163 127.27125 
L 403.599081 138.70575 
L 404.008998 127.27125 
L 404.418915 127.27125 
L 404.828833 138.70575 
L 406.468502 138.70575 
L 406.878419 127.27125 
L 407.288337 127.27125 
L 407.698254 138.70575 
L 408.518089 115.83675 
L 409.337924 115.83675 
L 409.747841 127.27125 
L 410.157758 127.27125 
L 410.567676 138.70575 
L 410.977593 138.70575 
L 411.38751 127.27125 
L 411.797428 138.70575 
L 413.02718 138.70575 
L 413.437097 150.14025 
L 414.256932 150.14025 
L 415.076767 173.00925 
L 415.896601 150.14025 
L 416.306519 150.14025 
L 416.716436 138.70575 
L 417.536271 138.70575 
L 417.946188 150.14025 
L 419.585857 104.40225 
L 419.995775 104.40225 
L 420.405692 115.83675 
L 421.225527 115.83675 
L 421.635444 104.40225 
L 422.455279 104.40225 
L 422.865196 92.96775 
L 423.275114 92.96775 
L 424.504866 58.66425 
L 426.144535 58.66425 
L 427.784205 12.92625 
L 451.559411 12.92625 
L 453.199081 58.66425 
L 453.608998 58.66425 
L 458.118089 184.44375 
L 459.757758 184.44375 
L 460.167676 195.87825 
L 461.807345 195.87825 
L 462.62718 173.00925 
L 463.447014 173.00925 
L 468.366023 35.79525 
L 469.185857 35.79525 
L 470.005692 12.92625 
L 477.384205 12.92625 
L 477.794122 24.36075 
L 479.843709 24.36075 
L 480.253626 35.79525 
L 483.942882 35.79525 
L 484.3528 24.36075 
L 486.402386 24.36075 
L 486.812304 12.92625 
L 504.028833 12.92625 
L 504.028833 12.92625 
" style="fill: none; stroke: #a6a6a6; stroke-width: 2; stroke-linecap: square"/>
   </g>
   <g id="line2d_17">
    <path d="M 64.597428 191.094234 
L 65.007345 191.552563 
L 69.926353 191.552563 
L 70.336271 195.87825 
L 74.025527 195.87825 
L 74.435444 189.070564 
L 78.944535 189.070564 
L 79.354452 181.665859 
L 79.76437 176.32495 
L 80.584205 176.32495 
L 80.994122 183.132636 
L 85.503213 183.132636 
L 85.91313 190.537341 
L 86.323048 195.87825 
L 93.70156 195.87825 
L 94.111477 191.408762 
L 100.260238 191.408762 
L 100.670155 195.87825 
L 103.129659 195.87825 
L 103.949494 187.733247 
L 109.688337 187.733247 
L 110.508171 195.87825 
L 111.737924 195.87825 
L 112.557758 188.438943 
L 115.42718 188.438943 
L 116.247014 169.146272 
L 116.656932 162.956215 
L 118.296601 162.956215 
L 119.116436 170.395522 
L 119.526353 164.426816 
L 120.756105 164.426816 
L 121.166023 159.929746 
L 121.57594 159.929746 
L 121.985857 155.379399 
L 122.805692 174.67207 
L 123.21561 180.862127 
L 125.675114 180.862127 
L 126.085031 181.366719 
L 126.904866 170.877512 
L 127.314783 170.877512 
L 127.7247 175.374581 
L 128.134618 175.374581 
L 128.544535 179.924929 
L 132.233791 179.924929 
L 133.463543 195.87825 
L 135.51313 195.87825 
L 136.332965 184.165896 
L 136.742882 180.883054 
L 142.071808 180.883054 
L 142.891643 192.595408 
L 143.30156 188.709364 
L 143.711477 183.680881 
L 149.45032 183.680881 
L 149.860238 190.849768 
L 150.270155 195.87825 
L 159.288337 195.87825 
L 159.698254 188.76767 
L 165.847014 188.76767 
L 166.256932 195.87825 
L 174.455279 195.87825 
L 175.685031 176.521218 
L 181.013957 176.521218 
L 182.243709 195.87825 
L 183.063543 195.87825 
L 183.473461 188.116253 
L 189.622221 188.116253 
L 190.032138 195.87825 
L 193.311477 195.87825 
L 193.721395 190.988147 
L 199.870155 190.988147 
L 200.280072 195.87825 
L 231.023874 195.87825 
L 232.253626 166.318613 
L 232.663543 159.682132 
L 233.073461 159.682132 
L 233.483378 153.509617 
L 233.893295 153.509617 
L 234.303213 145.843252 
L 234.71313 140.709431 
L 237.582552 140.709431 
L 238.812304 170.269068 
L 239.222221 176.905549 
L 239.632138 176.905549 
L 240.042056 183.078064 
L 240.451973 183.078064 
L 240.86189 190.744429 
L 241.271808 195.87825 
L 262.997428 195.87825 
L 263.817262 178.016272 
L 265.047014 158.244822 
L 266.276767 158.244822 
L 267.096601 147.953239 
L 269.556105 147.953239 
L 270.37594 165.815217 
L 271.605692 185.586667 
L 272.835444 185.586667 
L 273.655279 195.87825 
L 281.033791 195.87825 
L 281.853626 180.245111 
L 282.263543 180.245111 
L 282.673461 170.987416 
L 287.592469 170.987416 
L 288.412304 186.620554 
L 288.822221 186.620554 
L 289.232138 195.87825 
L 299.070155 195.87825 
L 299.480072 186.607186 
L 305.628833 186.607186 
L 306.03875 195.87825 
L 308.498254 195.87825 
L 308.908171 188.995594 
L 315.056932 188.995594 
L 315.466849 195.87825 
L 321.205692 195.87825 
L 321.61561 185.805127 
L 322.025527 179.578551 
L 327.76437 179.578551 
L 328.174287 189.651675 
L 328.584205 195.87825 
L 334.323048 195.87825 
L 335.5528 166.910861 
L 335.962717 158.620586 
L 337.192469 158.620586 
L 338.422221 128.407163 
L 340.881725 128.407163 
L 342.111477 157.374552 
L 342.521395 165.664827 
L 343.751147 165.664827 
L 344.980899 195.87825 
L 374.904866 195.87825 
L 377.36437 136.581961 
L 378.184205 116.599109 
L 381.463543 116.599109 
L 383.923048 175.895398 
L 384.742882 195.87825 
L 395.810651 195.87825 
L 399.08999 108.032801 
L 402.369329 25.497844 
L 403.189163 26.903627 
L 404.008998 30.144839 
L 404.418915 30.984105 
L 404.828833 33.117805 
L 405.23875 32.380657 
L 405.648667 31.035171 
L 406.058585 30.271719 
L 406.468502 30.443135 
L 407.698254 27.882767 
L 408.108171 29.942358 
L 408.928006 50.123262 
L 409.337924 49.471785 
L 410.157758 47.582852 
L 410.567676 48.044939 
L 413.02718 110.936769 
L 414.666849 153.359234 
L 415.486684 153.359234 
L 415.896601 153.866069 
L 416.306519 155.933526 
L 416.716436 157.227312 
L 417.126353 166.344336 
L 417.536271 166.344336 
L 418.356105 145.875869 
L 418.766023 145.875869 
L 421.635444 68.871232 
L 422.045362 58.122894 
L 422.455279 59.041119 
L 422.865196 58.749888 
L 423.275114 59.405983 
L 423.685031 50.161045 
L 424.094948 43.522673 
L 424.504866 44.584212 
L 424.914783 43.267027 
L 425.3247 34.221575 
L 426.96437 42.932321 
L 427.374287 44.34893 
L 428.194122 43.56133 
L 428.604039 43.552225 
L 429.423874 41.22494 
L 430.243709 37.48254 
L 430.653626 33.266367 
L 431.063543 32.040609 
L 431.473461 31.306329 
L 431.883378 29.376054 
L 432.703213 26.526415 
L 433.523048 22.273122 
L 433.932965 20.270955 
L 434.7528 20.38917 
L 435.162717 19.925052 
L 435.572634 19.826764 
L 435.982552 19.418242 
L 436.802386 19.461702 
L 437.212304 19.732396 
L 438.442056 22.042029 
L 438.851973 21.592013 
L 439.26189 20.861562 
L 439.671808 21.193515 
L 440.081725 20.791855 
L 440.491643 21.079471 
L 441.311477 22.369791 
L 441.721395 22.482871 
L 442.541229 26.217274 
L 444.180899 31.170608 
L 444.590816 32.21136 
L 445.000733 32.097485 
L 445.410651 32.9358 
L 445.820568 34.100815 
L 446.230486 36.073711 
L 446.640403 35.945211 
L 447.05032 35.527394 
L 447.870155 33.867831 
L 448.280072 33.648817 
L 449.099907 30.559213 
L 449.919742 27.588483 
L 451.149494 23.050201 
L 451.559411 22.418487 
L 451.969329 23.211331 
L 452.379246 23.45905 
L 452.789163 24.131954 
L 456.888337 135.453728 
L 458.528006 177.743809 
L 459.347841 195.87825 
L 463.037097 195.87825 
L 465.496601 130.523353 
L 467.136271 130.523353 
L 469.595775 63.914932 
L 470.005692 65.503412 
L 470.41561 66.33942 
L 471.235444 68.881066 
L 471.645362 69.072747 
L 472.055279 69.063864 
L 473.694948 28.787638 
L 474.104866 28.8097 
L 474.9247 29.197465 
L 475.334618 28.923229 
L 476.154452 29.216222 
L 476.56437 28.144758 
L 476.974287 28.097025 
L 478.204039 29.011409 
L 478.613957 28.100007 
L 479.433791 25.218807 
L 479.843709 23.385198 
L 480.253626 22.860517 
L 480.663543 22.87832 
L 481.073461 22.688497 
L 481.483378 22.309548 
L 481.893295 22.187767 
L 483.123048 20.717262 
L 483.532965 20.723474 
L 484.762717 18.178734 
L 485.582552 20.758865 
L 486.402386 21.234396 
L 488.042056 22.596163 
L 489.271808 23.157944 
L 489.681725 23.176144 
L 490.091643 22.544831 
L 490.911477 21.694921 
L 492.141229 19.411082 
L 492.961064 20.30267 
L 493.780899 20.377668 
L 494.190816 20.131131 
L 494.600733 20.129328 
L 495.420568 21.226403 
L 495.830486 22.72985 
L 496.240403 23.481391 
L 497.880072 30.08111 
L 498.28999 31.036005 
L 499.109824 29.985171 
L 499.519742 29.218616 
L 499.929659 29.485137 
L 500.339576 32.498321 
L 501.159411 35.522519 
L 501.569329 34.992406 
L 501.979246 35.68969 
L 502.389163 33.98566 
L 502.799081 32.878765 
L 504.028833 27.031434 
L 504.028833 27.031434 
" style="fill: none; stroke: #20978b; stroke-width: 2; stroke-linecap: square"/>
   </g>
   <g id="line2d_18">
    <path d="M 84.273461 195.87825 
L 84.273461 12.92625 
" clip-path="url(#p6347a212a7)" style="fill: none; stroke-dasharray: 3.7,1.6; stroke-dashoffset: 0; stroke: #808080; stroke-opacity: 0.3"/>
   </g>
   <g id="line2d_19">
    <path d="M 110.508171 195.87825 
L 110.508171 12.92625 
" clip-path="url(#p6347a212a7)" style="fill: none; stroke-dasharray: 3.7,1.6; stroke-dashoffset: 0; stroke: #808080; stroke-opacity: 0.3"/>
   </g>
   <g id="line2d_20">
    <path d="M 136.742882 195.87825 
L 136.742882 12.92625 
" clip-path="url(#p6347a212a7)" style="fill: none; stroke-dasharray: 3.7,1.6; stroke-dashoffset: 0; stroke: #808080; stroke-opacity: 0.3"/>
   </g>
   <g id="line2d_21">
    <path d="M 162.977593 195.87825 
L 162.977593 12.92625 
" clip-path="url(#p6347a212a7)" style="fill: none; stroke-dasharray: 3.7,1.6; stroke-dashoffset: 0; stroke: #808080; stroke-opacity: 0.3"/>
   </g>
   <g id="line2d_22">
    <path d="M 189.212304 195.87825 
L 189.212304 12.92625 
" clip-path="url(#p6347a212a7)" style="fill: none; stroke-dasharray: 3.7,1.6; stroke-dashoffset: 0; stroke: #808080; stroke-opacity: 0.3"/>
   </g>
   <g id="line2d_23">
    <path d="M 215.447014 195.87825 
L 215.447014 12.92625 
" clip-path="url(#p6347a212a7)" style="fill: none; stroke-dasharray: 3.7,1.6; stroke-dashoffset: 0; stroke: #808080; stroke-opacity: 0.3"/>
   </g>
   <g id="line2d_24">
    <path d="M 241.681725 195.87825 
L 241.681725 12.92625 
" clip-path="url(#p6347a212a7)" style="fill: none; stroke-dasharray: 3.7,1.6; stroke-dashoffset: 0; stroke: #808080; stroke-opacity: 0.3"/>
   </g>
   <g id="line2d_25">
    <path d="M 267.916436 195.87825 
L 267.916436 12.92625 
" clip-path="url(#p6347a212a7)" style="fill: none; stroke-dasharray: 3.7,1.6; stroke-dashoffset: 0; stroke: #808080; stroke-opacity: 0.3"/>
   </g>
   <g id="line2d_26">
    <path d="M 294.151147 195.87825 
L 294.151147 12.92625 
" clip-path="url(#p6347a212a7)" style="fill: none; stroke-dasharray: 3.7,1.6; stroke-dashoffset: 0; stroke: #808080; stroke-opacity: 0.3"/>
   </g>
   <g id="line2d_27">
    <path d="M 320.385857 195.87825 
L 320.385857 12.92625 
" clip-path="url(#p6347a212a7)" style="fill: none; stroke-dasharray: 3.7,1.6; stroke-dashoffset: 0; stroke: #808080; stroke-opacity: 0.3"/>
   </g>
   <g id="line2d_28">
    <path d="M 346.620568 195.87825 
L 346.620568 12.92625 
" clip-path="url(#p6347a212a7)" style="fill: none; stroke-dasharray: 3.7,1.6; stroke-dashoffset: 0; stroke: #808080; stroke-opacity: 0.3"/>
   </g>
   <g id="line2d_29">
    <path d="M 372.855279 195.87825 
L 372.855279 12.92625 
" clip-path="url(#p6347a212a7)" style="fill: none; stroke-dasharray: 3.7,1.6; stroke-dashoffset: 0; stroke: #808080; stroke-opacity: 0.3"/>
   </g>
   <g id="line2d_30">
    <path d="M 399.08999 195.87825 
L 399.08999 12.92625 
" clip-path="url(#p6347a212a7)" style="fill: none; stroke-dasharray: 3.7,1.6; stroke-dashoffset: 0; stroke: #808080; stroke-opacity: 0.3"/>
   </g>
   <g id="line2d_31">
    <path d="M 425.3247 195.87825 
L 425.3247 12.92625 
" clip-path="url(#p6347a212a7)" style="fill: none; stroke-dasharray: 3.7,1.6; stroke-dashoffset: 0; stroke: #808080; stroke-opacity: 0.3"/>
   </g>
   <g id="line2d_32">
    <path d="M 451.559411 195.87825 
L 451.559411 12.92625 
" clip-path="url(#p6347a212a7)" style="fill: none; stroke-dasharray: 3.7,1.6; stroke-dashoffset: 0; stroke: #808080; stroke-opacity: 0.3"/>
   </g>
   <g id="line2d_33">
    <path d="M 477.794122 195.87825 
L 477.794122 12.92625 
" clip-path="url(#p6347a212a7)" style="fill: none; stroke-dasharray: 3.7,1.6; stroke-dashoffset: 0; stroke: #808080; stroke-opacity: 0.3"/>
   </g>
   <g id="line2d_34">
    <path d="M 504.028833 195.87825 
L 504.028833 12.92625 
" clip-path="url(#p6347a212a7)" style="fill: none; stroke-dasharray: 3.7,1.6; stroke-dashoffset: 0; stroke: #808080; stroke-opacity: 0.3"/>
   </g>
   <g id="patch_3">
    <path d="M 58.03875 195.87825 
L 58.03875 12.92625 
" style="fill: none; stroke: #000000; stroke-width: 2; stroke-linejoin: miter; stroke-linecap: square"/>
   </g>
   <g id="patch_4">
    <path d="M 58.03875 195.87825 
L 504.43875 195.87825 
" style="fill: none; stroke: #000000; stroke-width: 2; stroke-linejoin: miter; stroke-linecap: square"/>
   </g>
   <g id="text_18">
    <!-- S13 -->
    <g transform="translate(76.022375 36.39405) scale(0.2 -0.2)">
     <defs>
      <path id="ArialMT-53" d="M 288 1472 
L 859 1522 
Q 900 1178 1048 958 
Q 1197 738 1509 602 
Q 1822 466 2213 466 
Q 2559 466 2825 569 
Q 3091 672 3220 851 
Q 3350 1031 3350 1244 
Q 3350 1459 3225 1620 
Q 3100 1781 2813 1891 
Q 2628 1963 1997 2114 
Q 1366 2266 1113 2400 
Q 784 2572 623 2826 
Q 463 3081 463 3397 
Q 463 3744 659 4045 
Q 856 4347 1234 4503 
Q 1613 4659 2075 4659 
Q 2584 4659 2973 4495 
Q 3363 4331 3572 4012 
Q 3781 3694 3797 3291 
L 3216 3247 
Q 3169 3681 2898 3903 
Q 2628 4125 2100 4125 
Q 1550 4125 1298 3923 
Q 1047 3722 1047 3438 
Q 1047 3191 1225 3031 
Q 1400 2872 2139 2705 
Q 2878 2538 3153 2413 
Q 3553 2228 3743 1945 
Q 3934 1663 3934 1294 
Q 3934 928 3725 604 
Q 3516 281 3123 101 
Q 2731 -78 2241 -78 
Q 1619 -78 1198 103 
Q 778 284 539 648 
Q 300 1013 288 1472 
z
" transform="scale(0.015625)"/>
     </defs>
     <use xlink:href="#ArialMT-53"/>
     <use xlink:href="#ArialMT-31" x="66.699219"/>
     <use xlink:href="#ArialMT-33" x="122.314453"/>
    </g>
   </g>
   <g id="legend_1">
    <g id="patch_5">
     <path d="M 447.97875 186.280987 
L 544.330312 186.280987 
Q 547.330312 186.280987 547.330312 183.280987 
L 547.330312 142.34505 
Q 547.330312 139.34505 544.330312 139.34505 
L 447.97875 139.34505 
Q 444.97875 139.34505 444.97875 142.34505 
L 444.97875 183.280987 
Q 444.97875 186.280987 447.97875 186.280987 
L 447.97875 186.280987 
z
" style="fill: none; opacity: 0"/>
    </g>
    <g id="line2d_35">
     <path d="M 450.97875 150.831769 
L 465.97875 150.831769 
L 480.97875 150.831769 
" style="fill: none; stroke: #a6a6a6; stroke-width: 2; stroke-linecap: square"/>
    </g>
    <g id="text_19">
     <!-- Human -->
     <g transform="translate(492.97875 156.081769) scale(0.15 -0.15)">
      <defs>
       <path id="ArialMT-48" d="M 513 0 
L 513 4581 
L 1119 4581 
L 1119 2700 
L 3500 2700 
L 3500 4581 
L 4106 4581 
L 4106 0 
L 3500 0 
L 3500 2159 
L 1119 2159 
L 1119 0 
L 513 0 
z
" transform="scale(0.015625)"/>
       <path id="ArialMT-6d" d="M 422 0 
L 422 3319 
L 925 3319 
L 925 2853 
Q 1081 3097 1340 3245 
Q 1600 3394 1931 3394 
Q 2300 3394 2536 3241 
Q 2772 3088 2869 2813 
Q 3263 3394 3894 3394 
Q 4388 3394 4653 3120 
Q 4919 2847 4919 2278 
L 4919 0 
L 4359 0 
L 4359 2091 
Q 4359 2428 4304 2576 
Q 4250 2725 4106 2815 
Q 3963 2906 3769 2906 
Q 3419 2906 3187 2673 
Q 2956 2441 2956 1928 
L 2956 0 
L 2394 0 
L 2394 2156 
Q 2394 2531 2256 2718 
Q 2119 2906 1806 2906 
Q 1569 2906 1367 2781 
Q 1166 2656 1075 2415 
Q 984 2175 984 1722 
L 984 0 
L 422 0 
z
" transform="scale(0.015625)"/>
       <path id="ArialMT-6e" d="M 422 0 
L 422 3319 
L 928 3319 
L 928 2847 
Q 1294 3394 1984 3394 
Q 2284 3394 2536 3286 
Q 2788 3178 2913 3003 
Q 3038 2828 3088 2588 
Q 3119 2431 3119 2041 
L 3119 0 
L 2556 0 
L 2556 2019 
Q 2556 2363 2490 2533 
Q 2425 2703 2258 2804 
Q 2091 2906 1866 2906 
Q 1506 2906 1245 2678 
Q 984 2450 984 1813 
L 984 0 
L 422 0 
z
" transform="scale(0.015625)"/>
      </defs>
      <use xlink:href="#ArialMT-48"/>
      <use xlink:href="#ArialMT-75" x="72.216797"/>
      <use xlink:href="#ArialMT-6d" x="127.832031"/>
      <use xlink:href="#ArialMT-61" x="211.132812"/>
      <use xlink:href="#ArialMT-6e" x="266.748047"/>
     </g>
    </g>
    <g id="line2d_36">
     <path d="M 450.97875 172.049737 
L 465.97875 172.049737 
L 480.97875 172.049737 
" style="fill: none; stroke: #20978b; stroke-width: 2; stroke-linecap: square"/>
    </g>
    <g id="text_20">
     <!-- PMH -->
     <g transform="translate(492.97875 177.299737) scale(0.15 -0.15)">
      <defs>
       <path id="ArialMT-50" d="M 494 0 
L 494 4581 
L 2222 4581 
Q 2678 4581 2919 4538 
Q 3256 4481 3484 4323 
Q 3713 4166 3852 3881 
Q 3991 3597 3991 3256 
Q 3991 2672 3619 2267 
Q 3247 1863 2275 1863 
L 1100 1863 
L 1100 0 
L 494 0 
z
M 1100 2403 
L 2284 2403 
Q 2872 2403 3119 2622 
Q 3366 2841 3366 3238 
Q 3366 3525 3220 3729 
Q 3075 3934 2838 4000 
Q 2684 4041 2272 4041 
L 1100 4041 
L 1100 2403 
z
" transform="scale(0.015625)"/>
       <path id="ArialMT-4d" d="M 475 0 
L 475 4581 
L 1388 4581 
L 2472 1338 
Q 2622 884 2691 659 
Q 2769 909 2934 1394 
L 4031 4581 
L 4847 4581 
L 4847 0 
L 4263 0 
L 4263 3834 
L 2931 0 
L 2384 0 
L 1059 3900 
L 1059 0 
L 475 0 
z
" transform="scale(0.015625)"/>
      </defs>
      <use xlink:href="#ArialMT-50"/>
      <use xlink:href="#ArialMT-4d" x="66.699219"/>
      <use xlink:href="#ArialMT-48" x="150"/>
     </g>
    </g>
   </g>
  </g>
 </g>
 <defs>
  <clipPath id="p6347a212a7">
   <rect x="58.03875" y="12.92625" width="446.4" height="182.952"/>
  </clipPath>
 </defs>
</svg>
