<?xml version="1.0" encoding="utf-8" standalone="no"?>
<!DOCTYPE svg PUBLIC "-//W3C//DTD SVG 1.1//EN"
  "http://www.w3.org/Graphics/SVG/1.1/DTD/svg11.dtd">
<svg xmlns:xlink="http://www.w3.org/1999/xlink" width="554.761875pt" height="295.982844pt" viewBox="0 0 554.761875 295.982844" xmlns="http://www.w3.org/2000/svg" version="1.1">
 <metadata>
  <rdf:RDF xmlns:dc="http://purl.org/dc/elements/1.1/" xmlns:cc="http://creativecommons.org/ns#" xmlns:rdf="http://www.w3.org/1999/02/22-rdf-syntax-ns#">
   <cc:Work>
    <dc:type rdf:resource="http://purl.org/dc/dcmitype/StillImage"/>
    <dc:date>2025-05-15T10:14:14.138600</dc:date>
    <dc:format>image/svg+xml</dc:format>
    <dc:creator>
     <cc:Agent>
      <dc:title>Matplotlib v3.8.4, https://matplotlib.org/</dc:title>
     </cc:Agent>
    </dc:creator>
   </cc:Work>
  </rdf:RDF>
 </metadata>
 <defs>
  <style type="text/css">*{stroke-linejoin: round; stroke-linecap: butt}</style>
 </defs>
 <g id="figure_1">
  <g id="patch_1">
   <path d="M 0 295.982844 
L 554.761875 295.982844 
L 554.761875 -0 
L 0 -0 
L 0 295.982844 
z
" style="fill: none"/>
  </g>
  <g id="axes_1">
   <g id="patch_2">
    <path d="M 58.270313 245.77425 
L 504.670312 245.77425 
L 504.670312 12.92625 
L 58.270313 12.92625 
L 58.270313 245.77425 
z
" style="fill: none"/>
   </g>
   <g id="PolyCollection_1">
    <defs>
     <path id="mf9073045e1" d="M 68.401376 -170.129672 
L 68.401376 -121.069618 
L 69.034568 -126.151537 
L 69.667759 -118.271963 
L 70.300951 -118.30075 
L 70.934142 -109.642282 
L 71.567334 -101.624957 
L 72.200525 -96.027045 
L 72.833717 -95.162325 
L 73.466908 -94.557472 
L 74.1001 -93.012639 
L 74.733291 -100.775001 
L 75.366483 -101.343162 
L 75.999674 -103.537664 
L 76.632866 -100.619925 
L 77.266057 -105.418105 
L 77.899249 -100.049331 
L 78.53244 -101.589026 
L 79.165632 -102.417576 
L 79.798823 -112.542854 
L 80.432015 -112.193353 
L 81.065206 -119.46155 
L 81.698398 -129.69352 
L 82.331589 -138.227799 
L 82.964781 -148.671351 
L 83.597972 -151.945 
L 84.231164 -155.865493 
L 84.864355 -156.477514 
L 85.497547 -154.840321 
L 86.130738 -155.784238 
L 86.76393 -156.192684 
L 87.397121 -155.065187 
L 88.030313 -155.058372 
L 88.663504 -151.114793 
L 89.296695 -147.189571 
L 89.929887 -145.572521 
L 90.563078 -142.632622 
L 91.19627 -133.992777 
L 91.829461 -125.623308 
L 92.462653 -116.16388 
L 93.095844 -106.364924 
L 93.729036 -102.633485 
L 94.362227 -102.241047 
L 94.995419 -99.750814 
L 95.62861 -98.245533 
L 96.261802 -98.383833 
L 96.894993 -97.05353 
L 97.528185 -96.772593 
L 98.161376 -97.365399 
L 98.794568 -103.226027 
L 99.427759 -104.572374 
L 100.060951 -103.153695 
L 100.694142 -106.116194 
L 101.327334 -108.015754 
L 101.960525 -110.167454 
L 102.593717 -108.907216 
L 103.226908 -109.619135 
L 103.8601 -112.615779 
L 104.493291 -111.953807 
L 105.126483 -109.370164 
L 105.759674 -110.040088 
L 106.392866 -109.904333 
L 107.026057 -112.156638 
L 107.659249 -109.48826 
L 108.29244 -107.219441 
L 108.925632 -103.202012 
L 109.558823 -101.22868 
L 110.192015 -96.97303 
L 110.825206 -92.666065 
L 111.458398 -92.443021 
L 112.091589 -89.289345 
L 112.724781 -94.494549 
L 113.357972 -98.59972 
L 113.991164 -99.651008 
L 114.624355 -101.367358 
L 115.257547 -100.161813 
L 115.890738 -108.710986 
L 116.52393 -114.223701 
L 117.157121 -115.715214 
L 117.790312 -122.787978 
L 118.423504 -128.77954 
L 119.056695 -128.66792 
L 119.689887 -133.238609 
L 120.323078 -140.706009 
L 120.95627 -143.573368 
L 121.589461 -142.543379 
L 122.222653 -142.178032 
L 122.855844 -137.79315 
L 123.489036 -129.847534 
L 124.122227 -134.29508 
L 124.755419 -133.310322 
L 125.38861 -134.291064 
L 126.021802 -129.153484 
L 126.654993 -123.862857 
L 127.288185 -121.803783 
L 127.921376 -113.516747 
L 128.554568 -116.751005 
L 129.187759 -123.550012 
L 129.820951 -123.040378 
L 130.454142 -112.497805 
L 131.087334 -111.769338 
L 131.720525 -111.551185 
L 132.353717 -112.088426 
L 132.986908 -113.35192 
L 133.6201 -118.882835 
L 134.253291 -114.027542 
L 134.886483 -110.831976 
L 135.519674 -112.539916 
L 136.152866 -112.674222 
L 136.786057 -118.849202 
L 137.419249 -116.003935 
L 138.05244 -119.541077 
L 138.685632 -111.677877 
L 139.318823 -105.005769 
L 139.952015 -101.081318 
L 140.585206 -103.123409 
L 141.218398 -101.25237 
L 141.851589 -105.001647 
L 142.484781 -109.422969 
L 143.117972 -109.692601 
L 143.751164 -106.280638 
L 144.384355 -107.722177 
L 145.017547 -117.931404 
L 145.650738 -115.111344 
L 146.28393 -120.957025 
L 146.917121 -111.478123 
L 147.550313 -114.405988 
L 148.183504 -113.382467 
L 148.816695 -117.402101 
L 149.449887 -117.885252 
L 150.083078 -120.158243 
L 150.71627 -121.048442 
L 151.349461 -125.809701 
L 151.982653 -133.419104 
L 152.615844 -139.156207 
L 153.249036 -149.61242 
L 153.882227 -160.516803 
L 154.515419 -153.649158 
L 155.14861 -149.978641 
L 155.781802 -150.49188 
L 156.414993 -144.227355 
L 157.048185 -154.815492 
L 157.681376 -159.548683 
L 158.314568 -166.100057 
L 158.947759 -166.677691 
L 159.580951 -164.262136 
L 160.214142 -163.035668 
L 160.847334 -162.632422 
L 161.480525 -158.703927 
L 162.113717 -153.476717 
L 162.746908 -149.760818 
L 163.3801 -141.149497 
L 164.013291 -135.133755 
L 164.646483 -135.092538 
L 165.279674 -130.025402 
L 165.912866 -132.221443 
L 166.546057 -138.318558 
L 167.179249 -138.948006 
L 167.81244 -140.801486 
L 168.445632 -140.516217 
L 169.078823 -143.974579 
L 169.712015 -155.038219 
L 170.345206 -162.164556 
L 170.978398 -172.218361 
L 171.611589 -183.742134 
L 172.244781 -180.235798 
L 172.877972 -184.226223 
L 173.511164 -189.587841 
L 174.144355 -189.130248 
L 174.777547 -201.427607 
L 175.410738 -202.18773 
L 176.04393 -206.529496 
L 176.677121 -205.884431 
L 177.310313 -198.426787 
L 177.943504 -196.347575 
L 178.576695 -199.640555 
L 179.209887 -196.866179 
L 179.843078 -191.235445 
L 180.47627 -191.504677 
L 181.109461 -181.602174 
L 181.742653 -171.258808 
L 182.375844 -170.194435 
L 183.009036 -163.384729 
L 183.642227 -157.451679 
L 184.275419 -154.150868 
L 184.90861 -143.506311 
L 185.541802 -142.906193 
L 186.174993 -137.732873 
L 186.808185 -130.353229 
L 187.441376 -128.428145 
L 188.074568 -126.656003 
L 188.707759 -123.053464 
L 189.340951 -124.316527 
L 189.974142 -129.280271 
L 190.607334 -119.47912 
L 191.240525 -118.951909 
L 191.873717 -125.316936 
L 192.506908 -126.725271 
L 193.1401 -133.979286 
L 193.773291 -142.107218 
L 194.406483 -150.188248 
L 195.039674 -153.275446 
L 195.672866 -158.982396 
L 196.306057 -166.081234 
L 196.939249 -175.214038 
L 197.57244 -181.017742 
L 198.205632 -183.992343 
L 198.838823 -187.127987 
L 199.472015 -190.75745 
L 200.105206 -193.38911 
L 200.738398 -199.611784 
L 201.371589 -208.313377 
L 202.004781 -209.365917 
L 202.637972 -214.175062 
L 203.271164 -214.205934 
L 203.904355 -208.275291 
L 204.537547 -208.462478 
L 205.170738 -209.57238 
L 205.80393 -207.74079 
L 206.437121 -202.108091 
L 207.070312 -199.084052 
L 207.703504 -193.132649 
L 208.336695 -186.826395 
L 208.969887 -177.719832 
L 209.603078 -175.68857 
L 210.23627 -168.224602 
L 210.869461 -168.827281 
L 211.502653 -162.63965 
L 212.135844 -153.325904 
L 212.769036 -155.385452 
L 213.402227 -149.584856 
L 214.035419 -145.555179 
L 214.66861 -135.714784 
L 215.301802 -136.006742 
L 215.934993 -136.452297 
L 216.568185 -135.386931 
L 217.201376 -135.319502 
L 217.834568 -139.185497 
L 218.467759 -138.18984 
L 219.100951 -141.209117 
L 219.734142 -137.445747 
L 220.367334 -132.762761 
L 221.000525 -126.105451 
L 221.633717 -123.854104 
L 222.266908 -126.298405 
L 222.9001 -118.235003 
L 223.533291 -115.480656 
L 224.166483 -116.211759 
L 224.799674 -119.765334 
L 225.432866 -122.160473 
L 226.066057 -125.790667 
L 226.699249 -124.634126 
L 227.33244 -122.025912 
L 227.965632 -121.18469 
L 228.598823 -124.993461 
L 229.232015 -126.605873 
L 229.865206 -128.371734 
L 230.498398 -129.904522 
L 231.131589 -129.446751 
L 231.764781 -132.187925 
L 232.397972 -140.275084 
L 233.031164 -148.697193 
L 233.664355 -149.777456 
L 234.297547 -150.886131 
L 234.930738 -156.725383 
L 235.56393 -149.115427 
L 236.197121 -145.707472 
L 236.830313 -148.56322 
L 237.463504 -150.315572 
L 238.096695 -156.497714 
L 238.729887 -153.883085 
L 239.363078 -154.929993 
L 239.99627 -150.499778 
L 240.629461 -161.025533 
L 241.262653 -168.021003 
L 241.895844 -162.788535 
L 242.529036 -162.13354 
L 243.162227 -152.294336 
L 243.795419 -148.999188 
L 244.42861 -155.69891 
L 245.061802 -157.311887 
L 245.694993 -159.766213 
L 246.328185 -166.414974 
L 246.961376 -161.498414 
L 247.594568 -163.478617 
L 248.227759 -159.230927 
L 248.860951 -165.244643 
L 249.494142 -157.007795 
L 250.127334 -165.41546 
L 250.760525 -161.133209 
L 251.393717 -162.844305 
L 252.026908 -166.758615 
L 252.6601 -156.796128 
L 253.293291 -156.278395 
L 253.926483 -159.452116 
L 254.559674 -152.367511 
L 255.192866 -151.119512 
L 255.826057 -147.856131 
L 256.459249 -138.495949 
L 257.09244 -138.206993 
L 257.725632 -131.26548 
L 258.358823 -137.605044 
L 258.992015 -141.480194 
L 259.625206 -151.47775 
L 260.258398 -142.423262 
L 260.891589 -143.158875 
L 261.524781 -142.890506 
L 262.157972 -149.28034 
L 262.791164 -161.073325 
L 263.424355 -171.257942 
L 264.057547 -179.360775 
L 264.690738 -186.572319 
L 265.32393 -188.963062 
L 265.957121 -200.825783 
L 266.590312 -209.798157 
L 267.223504 -222.337541 
L 267.856695 -233.273968 
L 268.489887 -231.153664 
L 269.123078 -222.285313 
L 269.75627 -220.909382 
L 270.389461 -229.198036 
L 271.022653 -220.783481 
L 271.655844 -223.064042 
L 272.289036 -214.902598 
L 272.922227 -207.261397 
L 273.555419 -197.987838 
L 274.18861 -188.51162 
L 274.821802 -184.429375 
L 275.454993 -182.213406 
L 276.088185 -178.087637 
L 276.721376 -170.055109 
L 277.354568 -159.88193 
L 277.987759 -155.988937 
L 278.620951 -156.735824 
L 279.254142 -160.714655 
L 279.887334 -164.449427 
L 280.520525 -161.636303 
L 281.153717 -161.848169 
L 281.786908 -152.619444 
L 282.4201 -155.261079 
L 283.053291 -152.109356 
L 283.686483 -158.774225 
L 284.319674 -160.667203 
L 284.952866 -165.031876 
L 285.586057 -166.895614 
L 286.219249 -171.40327 
L 286.85244 -179.068684 
L 287.485632 -189.806269 
L 288.118823 -191.338782 
L 288.752015 -190.626104 
L 289.385206 -193.589495 
L 290.018398 -195.209999 
L 290.651589 -199.796802 
L 291.284781 -200.633315 
L 291.917972 -206.695331 
L 292.551164 -213.404809 
L 293.184355 -224.265815 
L 293.817547 -226.658179 
L 294.450738 -235.225603 
L 295.08393 -230.330586 
L 295.717121 -230.612808 
L 296.350312 -217.714372 
L 296.983504 -217.86608 
L 297.616695 -209.950074 
L 298.249887 -200.293154 
L 298.883078 -194.26957 
L 299.51627 -184.224807 
L 300.149461 -176.384936 
L 300.782653 -165.12522 
L 301.415844 -168.548546 
L 302.049036 -163.168736 
L 302.682227 -156.024788 
L 303.315419 -149.115844 
L 303.94861 -150.272919 
L 304.581802 -147.742612 
L 305.214993 -151.589427 
L 305.848185 -142.741401 
L 306.481376 -149.934616 
L 307.114568 -140.794448 
L 307.747759 -144.918987 
L 308.380951 -144.431545 
L 309.014142 -142.622966 
L 309.647334 -143.135601 
L 310.280525 -141.022265 
L 310.913717 -145.847422 
L 311.546908 -145.852262 
L 312.1801 -149.183517 
L 312.813291 -146.047471 
L 313.446483 -143.707414 
L 314.079674 -134.177078 
L 314.712866 -132.772643 
L 315.346057 -126.604465 
L 315.979249 -134.348266 
L 316.61244 -129.383846 
L 317.245632 -128.003495 
L 317.878823 -118.696876 
L 318.512015 -125.736874 
L 319.145206 -134.29354 
L 319.778398 -131.413027 
L 320.411589 -138.774982 
L 321.044781 -144.507212 
L 321.677972 -149.695556 
L 322.311164 -144.42463 
L 322.944355 -144.872658 
L 323.577547 -145.670043 
L 324.210738 -151.526323 
L 324.84393 -148.823211 
L 325.477121 -145.869745 
L 326.110312 -142.588934 
L 326.743504 -141.910833 
L 327.376695 -142.218907 
L 328.009887 -143.226448 
L 328.643078 -139.917684 
L 329.27627 -129.865164 
L 329.909461 -134.93768 
L 330.542653 -137.33372 
L 331.175844 -137.256495 
L 331.809036 -137.722283 
L 332.442227 -150.522462 
L 333.075419 -160.897384 
L 333.70861 -169.848472 
L 334.341802 -172.282731 
L 334.974993 -175.278352 
L 335.608185 -187.302362 
L 336.241376 -181.812919 
L 336.874568 -193.249838 
L 337.507759 -200.351659 
L 338.140951 -211.327187 
L 338.774142 -219.081697 
L 339.407334 -220.182715 
L 340.040525 -219.171305 
L 340.673717 -207.093564 
L 341.306908 -197.977328 
L 341.9401 -188.167763 
L 342.573291 -177.581548 
L 343.206483 -167.338135 
L 343.839674 -158.897355 
L 344.472866 -150.020682 
L 345.106057 -144.867419 
L 345.739249 -137.488238 
L 346.37244 -138.721361 
L 347.005632 -128.526782 
L 347.638823 -127.76374 
L 348.272015 -120.678053 
L 348.905206 -118.653226 
L 349.538398 -127.296916 
L 350.171589 -127.739291 
L 350.804781 -139.568588 
L 351.437972 -135.580635 
L 352.071164 -146.544847 
L 352.704355 -155.210947 
L 353.337547 -163.203449 
L 353.970738 -167.125742 
L 354.60393 -176.433964 
L 355.237121 -174.012478 
L 355.870312 -171.756533 
L 356.503504 -170.274237 
L 357.136695 -181.082863 
L 357.769887 -178.539353 
L 358.403078 -185.695153 
L 359.03627 -177.342819 
L 359.669461 -166.469156 
L 360.302653 -168.065 
L 360.935844 -164.541852 
L 361.569036 -176.86002 
L 362.202227 -167.554575 
L 362.835419 -165.316089 
L 363.46861 -157.882778 
L 364.101802 -152.193566 
L 364.734993 -146.532133 
L 365.368185 -156.096525 
L 366.001376 -165.68909 
L 366.634568 -170.830219 
L 367.267759 -168.880803 
L 367.900951 -166.393315 
L 368.534142 -154.386485 
L 369.167334 -158.315165 
L 369.800525 -163.738488 
L 370.433717 -159.929975 
L 371.066908 -155.474261 
L 371.7001 -150.93139 
L 372.333291 -156.585582 
L 372.966483 -151.849535 
L 373.599674 -160.433224 
L 374.232866 -170.03965 
L 374.866057 -164.560832 
L 375.499249 -161.005436 
L 376.13244 -154.129019 
L 376.765632 -151.194804 
L 377.398823 -144.166389 
L 378.032015 -145.627808 
L 378.665206 -153.943392 
L 379.298398 -150.362956 
L 379.931589 -150.244792 
L 380.564781 -157.52106 
L 381.197972 -163.988652 
L 381.831164 -168.435529 
L 382.464355 -162.914701 
L 383.097547 -160.999353 
L 383.730738 -152.889517 
L 384.36393 -144.440523 
L 384.997121 -148.137979 
L 385.630313 -143.441987 
L 386.263504 -142.429076 
L 386.896695 -139.810834 
L 387.529887 -147.792526 
L 388.163078 -151.001478 
L 388.79627 -151.543113 
L 389.429461 -159.238414 
L 390.062653 -165.986927 
L 390.695844 -169.893615 
L 391.329036 -170.134115 
L 391.962227 -159.834329 
L 392.595419 -155.960339 
L 393.22861 -156.329892 
L 393.861802 -156.437793 
L 394.494993 -156.73277 
L 395.128185 -153.28086 
L 395.761376 -151.897972 
L 396.394568 -150.3313 
L 397.027759 -149.023374 
L 397.660951 -145.409662 
L 398.294142 -140.408497 
L 398.927334 -135.656341 
L 399.560525 -136.022371 
L 400.193717 -134.915279 
L 400.826908 -130.371752 
L 401.4601 -128.679529 
L 402.093291 -132.448466 
L 402.726483 -135.771094 
L 403.359674 -134.888715 
L 403.992866 -137.13257 
L 404.626057 -141.875001 
L 405.259249 -142.592677 
L 405.89244 -148.196392 
L 406.525632 -155.124098 
L 407.158823 -159.262209 
L 407.792015 -154.75343 
L 408.425206 -155.798263 
L 409.058398 -152.466828 
L 409.691589 -154.692206 
L 410.324781 -144.50924 
L 410.957972 -146.716307 
L 411.591164 -145.383167 
L 412.224355 -147.069978 
L 412.857547 -148.791932 
L 413.490738 -157.520964 
L 414.12393 -161.45025 
L 414.757121 -156.439909 
L 415.390312 -162.221926 
L 416.023504 -156.3987 
L 416.656695 -157.06189 
L 417.289887 -163.27898 
L 417.923078 -170.621173 
L 418.55627 -172.292545 
L 419.189461 -172.606128 
L 419.822653 -166.868232 
L 420.455844 -168.149971 
L 421.089036 -161.199576 
L 421.722227 -154.899171 
L 422.355419 -150.115614 
L 422.98861 -145.401286 
L 423.621802 -137.211692 
L 424.254993 -129.180024 
L 424.888185 -132.427249 
L 425.521376 -130.016483 
L 426.154568 -137.58028 
L 426.787759 -131.749498 
L 427.420951 -125.041214 
L 428.054142 -118.282781 
L 428.687334 -115.403359 
L 429.320525 -121.558019 
L 429.953717 -117.654871 
L 430.586908 -117.716382 
L 431.2201 -120.538066 
L 431.853291 -130.548884 
L 432.486483 -141.455637 
L 433.119674 -152.707173 
L 433.752866 -163.30434 
L 434.386057 -174.409742 
L 435.019249 -176.957207 
L 435.65244 -181.250156 
L 436.285632 -185.210561 
L 436.918823 -192.883306 
L 437.552015 -201.234813 
L 438.185206 -196.572441 
L 438.818398 -204.840822 
L 439.451589 -208.539972 
L 440.084781 -219.211584 
L 440.717972 -228.30781 
L 441.351164 -235.622386 
L 441.984355 -235.615053 
L 442.617547 -236.062467 
L 443.250738 -238.574342 
L 443.88393 -236.11974 
L 444.517121 -232.205154 
L 445.150312 -233.079627 
L 445.783504 -237.109042 
L 446.416695 -235.306818 
L 447.049887 -235.358016 
L 447.683078 -234.83501 
L 448.31627 -248.399888 
L 448.949461 -250.905382 
L 449.582653 -240.52563 
L 450.215844 -228.115267 
L 450.849036 -225.374726 
L 451.482227 -224.410496 
L 452.115419 -223.921153 
L 452.74861 -220.801218 
L 453.381802 -217.548489 
L 454.014993 -214.408021 
L 454.648185 -219.106055 
L 455.281376 -216.803525 
L 455.914568 -216.331373 
L 456.547759 -212.06741 
L 457.180951 -207.097394 
L 457.814142 -202.217007 
L 458.447334 -201.617715 
L 459.080525 -200.862072 
L 459.713717 -212.03664 
L 460.346908 -217.490784 
L 460.9801 -221.177103 
L 461.613291 -222.39935 
L 462.246483 -222.445977 
L 462.879674 -223.256303 
L 463.512866 -226.709166 
L 464.146057 -232.80345 
L 464.779249 -231.845497 
L 465.41244 -233.813974 
L 466.045632 -234.503233 
L 466.678823 -240.073889 
L 467.312015 -244.661672 
L 467.945206 -250.436218 
L 468.578398 -250.305729 
L 469.211589 -251.112391 
L 469.844781 -252.687981 
L 470.477972 -261.16986 
L 471.111164 -260.594388 
L 471.744355 -260.127617 
L 472.377547 -260.840838 
L 473.010738 -263.350433 
L 473.64393 -257.768762 
L 474.277121 -257.614566 
L 474.910312 -256.969649 
L 475.543504 -260.619874 
L 476.176695 -261.379758 
L 476.809887 -261.753293 
L 477.443078 -255.788207 
L 478.07627 -247.486629 
L 478.709461 -242.295969 
L 479.342653 -236.572254 
L 479.975844 -235.627167 
L 480.609036 -232.132994 
L 481.242227 -232.814441 
L 481.875419 -232.083239 
L 482.50861 -232.374711 
L 483.141802 -232.028158 
L 483.774993 -235.784181 
L 484.408185 -235.528345 
L 485.041376 -236.556802 
L 485.674568 -236.053279 
L 486.307759 -235.728778 
L 486.940951 -235.721649 
L 487.574142 -242.553906 
L 488.207334 -249.540991 
L 488.840525 -255.553948 
L 489.473717 -261.699194 
L 490.106908 -262.868146 
L 490.7401 -262.702851 
L 491.373291 -261.539487 
L 492.006483 -261.843619 
L 492.639674 -261.725114 
L 493.272866 -262.530906 
L 493.906057 -263.373825 
L 494.539249 -262.935179 
L 495.17244 -262.634315 
L 495.805632 -262.984547 
L 496.438823 -262.411473 
L 497.072015 -262.771738 
L 497.705206 -256.301714 
L 498.338398 -257.439649 
L 498.971589 -243.960336 
L 499.604781 -243.472486 
L 500.237972 -242.608881 
L 500.871164 -234.033701 
L 501.504355 -230.360703 
L 502.137547 -228.125346 
L 502.770738 -227.521788 
L 503.40393 -218.624817 
L 504.037121 -215.994771 
L 504.037121 -248.858656 
L 504.037121 -248.858656 
L 503.40393 -251.809705 
L 502.770738 -257.365848 
L 502.137547 -257.587227 
L 501.504355 -258.538374 
L 500.871164 -260.212249 
L 500.237972 -268.578247 
L 499.604781 -268.839068 
L 498.971589 -268.982703 
L 498.338398 -282.281643 
L 497.705206 -281.945616 
L 497.072015 -284.88248 
L 496.438823 -284.804261 
L 495.805632 -284.941321 
L 495.17244 -284.862442 
L 494.539249 -284.93743 
L 493.906057 -285.038133 
L 493.272866 -284.830118 
L 492.639674 -284.641022 
L 492.006483 -284.668648 
L 491.373291 -284.584715 
L 490.7401 -284.875688 
L 490.106908 -284.946071 
L 489.473717 -284.657178 
L 488.840525 -281.960866 
L 488.207334 -278.886231 
L 487.574142 -274.601903 
L 486.940951 -270.459431 
L 486.307759 -270.462444 
L 485.674568 -270.598245 
L 485.041376 -270.808799 
L 484.408185 -270.334312 
L 483.774993 -270.442169 
L 483.141802 -268.313873 
L 482.50861 -268.46942 
L 481.875419 -268.341323 
L 481.242227 -268.677326 
L 480.609036 -268.373089 
L 479.975844 -270.135219 
L 479.342653 -270.544617 
L 478.709461 -273.662552 
L 478.07627 -276.570627 
L 477.443078 -281.053443 
L 476.809887 -284.233681 
L 476.176695 -284.144121 
L 475.543504 -283.957399 
L 474.910312 -282.707513 
L 474.277121 -282.930508 
L 473.64393 -282.972673 
L 473.010738 -285.056477 
L 472.377547 -284.325156 
L 471.744355 -284.127083 
L 471.111164 -284.245547 
L 470.477972 -284.397099 
L 469.844781 -279.923715 
L 469.211589 -279.361472 
L 468.578398 -279.073318 
L 467.945206 -279.123983 
L 467.312015 -276.267857 
L 466.678823 -273.523123 
L 466.045632 -270.300253 
L 465.41244 -269.976405 
L 464.779249 -268.712083 
L 464.146057 -269.152662 
L 463.512866 -265.550321 
L 462.879674 -263.689819 
L 462.246483 -263.203113 
L 461.613291 -263.178941 
L 460.9801 -262.563091 
L 460.346908 -260.414924 
L 459.713717 -253.551861 
L 459.080525 -243.012801 
L 458.447334 -243.400083 
L 457.814142 -243.710793 
L 457.180951 -246.689793 
L 456.547759 -249.85599 
L 455.914568 -252.553331 
L 455.281376 -252.778021 
L 454.648185 -254.216634 
L 454.014993 -251.649315 
L 453.381802 -253.733134 
L 452.74861 -255.372403 
L 452.115419 -256.877086 
L 451.482227 -257.085025 
L 450.849036 -257.487412 
L 450.215844 -258.87909 
L 449.582653 -270.483219 
L 448.949461 -280.481839 
L 448.31627 -279.424478 
L 447.683078 -266.00443 
L 447.049887 -266.200493 
L 446.416695 -266.179 
L 445.783504 -266.895833 
L 445.150312 -264.862606 
L 444.517121 -264.38549 
L 443.88393 -266.409204 
L 443.250738 -267.464844 
L 442.617547 -266.43016 
L 441.984355 -266.261409 
L 441.351164 -266.264234 
L 440.717972 -261.915614 
L 440.084781 -254.797737 
L 439.451589 -245.85914 
L 438.818398 -243.403922 
L 438.185206 -236.248319 
L 437.552015 -243.047132 
L 436.918823 -237.124085 
L 436.285632 -231.19172 
L 435.65244 -228.754503 
L 435.019249 -224.980295 
L 434.386057 -223.035277 
L 433.752866 -212.92654 
L 433.119674 -203.769791 
L 432.486483 -192.120902 
L 431.853291 -182.505053 
L 431.2201 -174.022006 
L 430.586908 -171.145838 
L 429.953717 -171.074499 
L 429.320525 -175.357944 
L 428.687334 -168.781896 
L 428.054142 -171.873891 
L 427.420951 -177.602129 
L 426.787759 -182.882179 
L 426.154568 -187.793172 
L 425.521376 -180.357785 
L 424.888185 -182.639386 
L 424.254993 -179.525452 
L 423.621802 -187.630973 
L 422.98861 -195.279559 
L 422.355419 -201.47628 
L 421.722227 -206.656372 
L 421.089036 -212.656772 
L 420.455844 -218.791439 
L 419.822653 -217.199126 
L 419.189461 -221.579423 
L 418.55627 -221.133556 
L 417.923078 -219.419832 
L 417.289887 -213.129567 
L 416.656695 -208.362996 
L 416.023504 -207.900179 
L 415.390312 -213.980978 
L 414.757121 -207.651956 
L 414.12393 -212.169357 
L 413.490738 -208.838875 
L 412.857547 -200.46937 
L 412.224355 -198.514984 
L 411.591164 -196.910266 
L 410.957972 -197.862673 
L 410.324781 -196.237401 
L 409.691589 -205.375887 
L 409.058398 -203.870811 
L 408.425206 -207.94543 
L 407.792015 -206.753632 
L 407.158823 -211.0285 
L 406.525632 -206.336911 
L 405.89244 -199.903366 
L 405.259249 -194.108774 
L 404.626057 -193.075528 
L 403.992866 -188.841177 
L 403.359674 -186.440429 
L 402.726483 -187.574841 
L 402.093291 -182.802953 
L 401.4601 -178.287503 
L 400.826908 -179.358806 
L 400.193717 -182.38373 
L 399.560525 -183.004478 
L 398.927334 -182.74116 
L 398.294142 -186.925167 
L 397.660951 -191.837436 
L 397.027759 -194.286708 
L 396.394568 -196.002316 
L 395.761376 -197.796319 
L 395.128185 -199.516832 
L 394.494993 -204.015553 
L 393.861802 -203.696096 
L 393.22861 -203.567224 
L 392.595419 -203.092623 
L 391.962227 -208.632013 
L 391.329036 -218.365773 
L 390.695844 -218.222721 
L 390.062653 -215.665342 
L 389.429461 -210.830414 
L 388.79627 -203.016795 
L 388.163078 -202.604151 
L 387.529887 -199.668485 
L 386.896695 -192.942491 
L 386.263504 -195.754942 
L 385.630313 -196.783016 
L 384.997121 -201.282517 
L 384.36393 -196.563309 
L 383.730738 -203.390495 
L 383.097547 -210.494935 
L 382.464355 -212.764235 
L 381.831164 -217.946339 
L 381.197972 -214.660516 
L 380.564781 -209.608726 
L 379.931589 -202.241013 
L 379.298398 -202.347569 
L 378.665206 -206.561438 
L 378.032015 -197.518339 
L 377.398823 -195.921143 
L 376.765632 -202.006992 
L 376.13244 -204.556261 
L 375.499249 -209.79973 
L 374.866057 -212.26403 
L 374.232866 -218.882873 
L 373.599674 -210.787861 
L 372.966483 -203.092356 
L 372.333291 -207.400713 
L 371.7001 -202.053693 
L 371.066908 -205.40817 
L 370.433717 -209.102371 
L 369.800525 -213.498806 
L 369.167334 -207.381226 
L 368.534142 -202.611726 
L 367.900951 -214.170192 
L 367.267759 -216.793803 
L 366.634568 -217.967484 
L 366.001376 -213.099652 
L 365.368185 -204.933255 
L 364.734993 -196.356052 
L 364.101802 -200.695242 
L 363.46861 -206.162553 
L 362.835419 -213.059484 
L 362.202227 -214.595344 
L 361.569036 -222.277852 
L 360.935844 -209.365087 
L 360.302653 -211.430723 
L 359.669461 -209.75339 
L 359.03627 -219.791445 
L 358.403078 -228.37581 
L 357.769887 -223.067675 
L 357.136695 -225.225986 
L 356.503504 -215.896739 
L 355.870312 -217.52597 
L 355.237121 -220.055252 
L 354.60393 -222.90415 
L 353.970738 -214.60697 
L 353.337547 -211.125294 
L 352.704355 -203.508338 
L 352.071164 -195.675452 
L 351.437972 -185.74839 
L 350.804781 -191.411529 
L 350.171589 -180.913206 
L 349.538398 -180.414413 
L 348.905206 -173.008403 
L 348.272015 -174.422193 
L 347.638823 -179.950569 
L 347.005632 -180.540649 
L 346.37244 -189.654068 
L 345.739249 -188.326195 
L 345.106057 -194.049194 
L 344.472866 -198.480703 
L 343.839674 -206.527278 
L 343.206483 -212.890429 
L 342.573291 -221.866323 
L 341.9401 -230.698902 
L 341.306908 -239.83782 
L 340.673717 -247.2473 
L 340.040525 -257.532078 
L 339.407334 -258.688591 
L 338.774142 -257.245611 
L 338.140951 -251.048846 
L 337.507759 -241.360323 
L 336.874568 -234.355757 
L 336.241376 -223.715489 
L 335.608185 -228.685811 
L 334.974993 -217.322873 
L 334.341802 -215.051959 
L 333.70861 -213.441586 
L 333.075419 -206.628987 
L 332.442227 -197.431161 
L 331.809036 -185.228375 
L 331.175844 -184.932107 
L 330.542653 -184.97712 
L 329.909461 -183.564222 
L 329.27627 -176.59519 
L 328.643078 -185.415277 
L 328.009887 -188.632766 
L 327.376695 -187.118062 
L 326.743504 -186.693367 
L 326.110312 -187.697002 
L 325.477121 -189.776299 
L 324.84393 -193.835129 
L 324.210738 -195.936083 
L 323.577547 -190.350166 
L 322.944355 -189.451254 
L 322.311164 -188.820359 
L 321.677972 -195.521105 
L 321.044781 -191.445983 
L 320.411589 -187.303149 
L 319.778398 -180.966492 
L 319.145206 -185.267039 
L 318.512015 -178.106238 
L 317.878823 -169.990461 
L 317.245632 -179.618329 
L 316.61244 -181.356553 
L 315.979249 -186.847675 
L 315.346057 -180.591281 
L 314.712866 -186.231469 
L 314.079674 -187.221977 
L 313.446483 -195.348959 
L 312.813291 -197.793329 
L 312.1801 -201.542739 
L 311.546908 -197.814744 
L 310.913717 -197.810076 
L 310.280525 -192.534945 
L 309.647334 -194.733818 
L 309.014142 -194.06153 
L 308.380951 -195.971973 
L 307.747759 -196.712335 
L 307.114568 -193.28563 
L 306.481376 -201.089327 
L 305.848185 -192.137556 
L 305.214993 -198.899568 
L 304.581802 -195.758302 
L 303.94861 -197.240362 
L 303.315419 -196.554441 
L 302.682227 -201.601378 
L 302.049036 -207.258717 
L 301.415844 -212.877787 
L 300.782653 -209.005303 
L 300.149461 -218.736219 
L 299.51627 -224.093841 
L 298.883078 -233.158066 
L 298.249887 -237.616426 
L 297.616695 -247.42709 
L 296.983504 -252.594455 
L 296.350312 -252.522738 
L 295.717121 -265.774956 
L 295.08393 -265.65374 
L 294.450738 -269.19949 
L 293.817547 -263.562537 
L 293.184355 -262.117471 
L 292.551164 -252.909935 
L 291.917972 -247.870079 
L 291.284781 -241.248544 
L 290.651589 -240.038014 
L 290.018398 -237.236795 
L 289.385206 -236.380835 
L 288.752015 -234.44915 
L 288.118823 -234.864837 
L 287.485632 -233.813301 
L 286.85244 -224.963708 
L 286.219249 -218.907082 
L 285.586057 -215.789896 
L 284.952866 -214.674383 
L 284.319674 -211.222551 
L 283.686483 -209.193482 
L 283.053291 -202.720967 
L 282.4201 -206.333741 
L 281.786908 -203.367592 
L 281.153717 -212.267194 
L 280.520525 -211.967286 
L 279.887334 -213.94981 
L 279.254142 -211.318009 
L 278.620951 -207.771181 
L 277.987759 -207.297404 
L 277.354568 -209.896152 
L 276.721376 -218.556726 
L 276.088185 -224.851411 
L 275.454993 -227.697853 
L 274.821802 -228.943441 
L 274.18861 -232.10978 
L 273.555419 -239.666956 
L 272.922227 -247.739573 
L 272.289036 -253.22254 
L 271.655844 -260.565212 
L 271.022653 -259.088054 
L 270.389461 -267.686664 
L 269.75627 -260.729807 
L 269.123078 -261.709457 
L 268.489887 -267.926157 
L 267.856695 -268.964025 
L 267.223504 -259.84621 
L 266.590312 -248.093046 
L 265.957121 -241.137782 
L 265.32393 -229.346941 
L 264.690738 -228.075533 
L 264.057547 -221.634762 
L 263.424355 -215.572876 
L 262.791164 -206.137785 
L 262.157972 -195.177537 
L 261.524781 -189.768144 
L 260.891589 -189.97146 
L 260.258398 -189.437616 
L 259.625206 -197.013921 
L 258.992015 -185.672096 
L 258.358823 -183.335197 
L 257.725632 -178.975917 
L 257.09244 -185.858331 
L 256.459249 -186.311231 
L 255.826057 -193.734791 
L 255.192866 -198.309471 
L 254.559674 -199.060066 
L 253.926483 -205.47773 
L 253.293291 -201.635778 
L 252.6601 -202.357538 
L 252.026908 -212.230424 
L 251.393717 -206.953368 
L 250.760525 -205.599639 
L 250.127334 -208.248406 
L 249.494142 -201.525499 
L 248.860951 -211.521292 
L 248.227759 -206.072897 
L 247.594568 -209.206124 
L 246.961376 -207.638516 
L 246.328185 -213.658175 
L 245.694993 -208.923714 
L 245.061802 -205.685918 
L 244.42861 -204.683948 
L 243.795419 -198.67648 
L 243.162227 -202.585297 
L 242.529036 -211.482398 
L 241.895844 -211.904202 
L 241.262653 -218.403166 
L 240.629461 -210.195055 
L 239.99627 -201.233328 
L 239.363078 -205.393122 
L 238.729887 -204.491297 
L 238.096695 -207.187634 
L 237.463504 -202.114992 
L 236.830313 -200.485047 
L 236.197121 -197.372867 
L 235.56393 -200.122036 
L 234.930738 -208.250513 
L 234.297547 -203.381572 
L 233.664355 -202.044639 
L 233.031164 -200.888404 
L 232.397972 -193.666837 
L 231.764781 -186.598158 
L 231.131589 -183.606547 
L 230.498398 -184.296974 
L 229.865206 -182.270171 
L 229.232015 -180.761915 
L 228.598823 -179.219983 
L 227.965632 -175.105669 
L 227.33244 -175.93877 
L 226.699249 -178.300249 
L 226.066057 -179.640774 
L 225.432866 -176.653444 
L 224.799674 -174.580899 
L 224.166483 -170.385144 
L 223.533291 -169.438326 
L 222.9001 -172.206112 
L 222.266908 -179.208769 
L 221.633717 -176.042636 
L 221.000525 -178.554017 
L 220.367334 -186.103149 
L 219.734142 -191.582864 
L 219.100951 -194.590605 
L 218.467759 -191.13202 
L 217.834568 -192.33257 
L 217.201376 -188.001916 
L 216.568185 -188.057193 
L 215.934993 -189.189844 
L 215.301802 -188.769259 
L 214.66861 -188.492688 
L 214.035419 -197.884579 
L 213.402227 -202.484199 
L 212.769036 -206.794829 
L 212.135844 -205.377613 
L 211.502653 -214.768205 
L 210.869461 -219.832012 
L 210.23627 -219.300775 
L 209.603078 -224.849883 
L 208.969887 -226.131402 
L 208.336695 -234.540559 
L 207.703504 -240.292978 
L 207.070312 -246.5057 
L 206.437121 -248.662225 
L 205.80393 -253.270415 
L 205.170738 -254.888417 
L 204.537547 -253.780226 
L 203.904355 -253.66445 
L 203.271164 -258.178127 
L 202.637972 -258.161105 
L 202.004781 -254.027337 
L 201.371589 -253.301985 
L 200.738398 -245.519592 
L 200.105206 -238.020076 
L 199.472015 -236.478085 
L 198.838823 -234.104466 
L 198.205632 -231.872784 
L 197.57244 -229.511644 
L 196.939249 -223.502864 
L 196.306057 -214.959705 
L 195.672866 -208.685659 
L 195.039674 -202.664656 
L 194.406483 -198.958664 
L 193.773291 -191.779401 
L 193.1401 -184.771144 
L 192.506908 -179.078515 
L 191.873717 -177.522391 
L 191.240525 -171.426328 
L 190.607334 -172.067493 
L 189.974142 -182.274003 
L 189.340951 -178.188078 
L 188.707759 -177.16046 
L 188.074568 -179.785316 
L 187.441376 -181.279715 
L 186.808185 -183.573662 
L 186.174993 -190.913847 
L 185.541802 -195.822156 
L 184.90861 -196.590245 
L 184.275419 -206.333561 
L 183.642227 -209.807305 
L 183.009036 -215.328551 
L 182.375844 -220.741184 
L 181.742653 -221.937696 
L 181.109461 -230.601879 
L 180.47627 -238.806724 
L 179.843078 -238.621136 
L 179.209887 -243.032611 
L 178.576695 -245.088028 
L 177.943504 -242.849695 
L 177.310313 -244.32073 
L 176.677121 -250.48806 
L 176.04393 -250.935536 
L 175.410738 -247.020661 
L 174.777547 -245.991681 
L 174.144355 -233.862428 
L 173.511164 -234.271804 
L 172.877972 -229.480392 
L 172.244781 -226.750763 
L 171.611589 -230.028389 
L 170.978398 -219.928575 
L 170.345206 -211.52498 
L 169.712015 -204.836698 
L 169.078823 -193.562405 
L 168.445632 -190.862566 
L 167.81244 -191.084758 
L 167.179249 -189.742865 
L 166.546057 -189.329987 
L 165.912866 -183.866859 
L 165.279674 -181.27906 
L 164.646483 -186.82151 
L 164.013291 -186.887222 
L 163.3801 -191.250293 
L 162.746908 -198.20799 
L 162.113717 -200.81383 
L 161.480525 -204.295825 
L 160.847334 -208.866171 
L 160.214142 -209.355077 
L 159.580951 -210.812341 
L 158.947759 -214.318943 
L 158.314568 -213.799465 
L 157.681376 -207.234179 
L 157.048185 -202.870664 
L 156.414993 -191.974465 
L 155.781802 -197.508387 
L 155.14861 -196.80874 
L 154.515419 -199.609738 
L 153.882227 -207.852114 
L 153.249036 -198.249088 
L 152.615844 -189.067911 
L 151.982653 -184.635229 
L 151.349461 -178.817068 
L 150.71627 -173.182574 
L 150.083078 -172.103901 
L 149.449887 -169.324915 
L 148.816695 -168.707537 
L 148.183504 -164.322248 
L 147.550313 -165.591001 
L 146.917121 -161.891175 
L 146.28393 -172.001254 
L 145.650738 -166.869861 
L 145.017547 -170.252108 
L 144.384355 -159.674508 
L 143.751164 -158.33566 
L 143.117972 -162.24426 
L 142.484781 -161.892641 
L 141.851589 -156.870084 
L 141.218398 -152.52253 
L 140.585206 -155.023054 
L 139.952015 -152.184263 
L 139.318823 -156.681084 
L 138.685632 -163.386154 
L 138.05244 -170.876744 
L 137.419249 -165.896552 
L 136.786057 -169.512906 
L 136.152866 -163.859562 
L 135.519674 -163.712706 
L 134.886483 -161.757381 
L 134.253291 -166.054985 
L 133.6201 -170.058731 
L 132.986908 -162.977929 
L 132.353717 -161.167783 
L 131.720525 -160.398485 
L 131.087334 -160.696958 
L 130.454142 -161.570635 
L 129.820951 -172.221211 
L 129.187759 -172.706261 
L 128.554568 -165.830346 
L 127.921376 -163.300971 
L 127.288185 -172.960779 
L 126.654993 -175.075479 
L 126.021802 -180.069271 
L 125.38861 -184.728661 
L 124.755419 -183.46178 
L 124.122227 -184.562052 
L 123.489036 -180.966222 
L 122.855844 -190.208649 
L 122.222653 -195.595957 
L 121.589461 -196.107368 
L 120.95627 -197.40519 
L 120.323078 -193.681929 
L 119.689887 -187.087336 
L 119.056695 -181.946804 
L 118.423504 -182.092096 
L 117.790312 -175.32539 
L 117.157121 -167.605749 
L 116.52393 -166.10909 
L 115.890738 -160.851238 
L 115.257547 -151.822083 
L 114.624355 -153.352801 
L 113.991164 -151.381683 
L 113.357972 -150.342557 
L 112.724781 -146.336465 
L 112.091589 -139.611526 
L 111.458398 -143.452109 
L 110.825206 -143.721131 
L 110.192015 -149.039529 
L 109.558823 -153.214254 
L 108.925632 -155.678659 
L 108.29244 -160.117969 
L 107.659249 -163.071815 
L 107.026057 -166.48869 
L 106.392866 -163.875536 
L 105.759674 -164.033066 
L 105.126483 -163.017006 
L 104.493291 -165.810906 
L 103.8601 -166.599342 
L 103.226908 -163.123294 
L 102.593717 -162.290075 
L 101.960525 -164.19152 
L 101.327334 -161.713763 
L 100.694142 -159.270004 
L 100.060951 -155.849602 
L 99.427759 -156.978038 
L 98.794568 -155.343581 
L 98.161376 -148.25806 
L 97.528185 -147.53504 
L 96.894993 -147.85495 
L 96.261802 -149.473166 
L 95.62861 -149.311292 
L 94.995419 -151.54528 
L 94.362227 -153.767064 
L 93.729036 -154.217626 
L 93.095844 -158.446162 
L 92.462653 -166.794402 
L 91.829461 -176.207031 
L 91.19627 -183.951788 
L 90.563078 -192.658415 
L 89.929887 -196.080171 
L 89.296695 -197.222824 
L 88.663504 -201.545055 
L 88.030313 -206.700383 
L 87.397121 -206.708882 
L 86.76393 -207.918903 
L 86.130738 -207.443009 
L 85.497547 -206.286788 
L 84.864355 -208.377718 
L 84.231164 -207.868005 
L 83.597972 -202.552003 
L 82.964781 -198.905439 
L 82.331589 -189.765503 
L 81.698398 -181.6259 
L 81.065206 -171.282143 
L 80.432015 -164.395908 
L 79.798823 -164.749114 
L 79.165632 -154.573671 
L 78.53244 -153.77295 
L 77.899249 -151.983043 
L 77.266057 -157.408976 
L 76.632866 -151.31669 
L 75.999674 -154.398078 
L 75.366483 -151.258359 
L 74.733291 -150.561907 
L 74.1001 -141.292603 
L 73.466908 -143.676937 
L 72.833717 -144.433939 
L 72.200525 -145.512461 
L 71.567334 -151.425041 
L 70.934142 -160.17325 
L 70.300951 -167.98896 
L 69.667759 -167.960228 
L 69.034568 -176.516989 
L 68.401376 -170.129672 
z
" style="stroke: #b38665; stroke-opacity: 0.3"/>
    </defs>
    <g clip-path="url(#p13de08d80b)">
     <use xlink:href="#mf9073045e1" x="0" y="295.982844" style="fill: #b38665; fill-opacity: 0.3; stroke: #b38665; stroke-opacity: 0.3"/>
    </g>
   </g>
   <g id="matplotlib.axis_1">
    <g id="xtick_1">
     <g id="line2d_1">
      <defs>
       <path id="m9b7d2d3321" d="M 0 0 
L 0 3.5 
" style="stroke: #000000; stroke-width: 0.8"/>
      </defs>
      <g>
       <use xlink:href="#m9b7d2d3321" x="58.270313" y="245.77425" style="stroke: #000000; stroke-width: 0.8"/>
      </g>
     </g>
     <g id="text_1">
      <!-- 0 -->
      <g transform="translate(53.821563 264.22675) scale(0.16 -0.16)">
       <defs>
        <path id="ArialMT-30" d="M 266 2259 
Q 266 3072 433 3567 
Q 600 4063 929 4331 
Q 1259 4600 1759 4600 
Q 2128 4600 2406 4451 
Q 2684 4303 2865 4023 
Q 3047 3744 3150 3342 
Q 3253 2941 3253 2259 
Q 3253 1453 3087 958 
Q 2922 463 2592 192 
Q 2263 -78 1759 -78 
Q 1097 -78 719 397 
Q 266 969 266 2259 
z
M 844 2259 
Q 844 1131 1108 757 
Q 1372 384 1759 384 
Q 2147 384 2411 759 
Q 2675 1134 2675 2259 
Q 2675 3391 2411 3762 
Q 2147 4134 1753 4134 
Q 1366 4134 1134 3806 
Q 844 3388 844 2259 
z
" transform="scale(0.015625)"/>
       </defs>
       <use xlink:href="#ArialMT-30"/>
      </g>
     </g>
    </g>
    <g id="xtick_2">
     <g id="line2d_2">
      <g>
       <use xlink:href="#m9b7d2d3321" x="139.318823" y="245.77425" style="stroke: #000000; stroke-width: 0.8"/>
      </g>
     </g>
     <g id="text_2">
      <!-- 128 -->
      <g transform="translate(125.972573 264.22675) scale(0.16 -0.16)">
       <defs>
        <path id="ArialMT-31" d="M 2384 0 
L 1822 0 
L 1822 3584 
Q 1619 3391 1289 3197 
Q 959 3003 697 2906 
L 697 3450 
Q 1169 3672 1522 3987 
Q 1875 4303 2022 4600 
L 2384 4600 
L 2384 0 
z
" transform="scale(0.015625)"/>
        <path id="ArialMT-32" d="M 3222 541 
L 3222 0 
L 194 0 
Q 188 203 259 391 
Q 375 700 629 1000 
Q 884 1300 1366 1694 
Q 2113 2306 2375 2664 
Q 2638 3022 2638 3341 
Q 2638 3675 2398 3904 
Q 2159 4134 1775 4134 
Q 1369 4134 1125 3890 
Q 881 3647 878 3216 
L 300 3275 
Q 359 3922 746 4261 
Q 1134 4600 1788 4600 
Q 2447 4600 2831 4234 
Q 3216 3869 3216 3328 
Q 3216 3053 3103 2787 
Q 2991 2522 2730 2228 
Q 2469 1934 1863 1422 
Q 1356 997 1212 845 
Q 1069 694 975 541 
L 3222 541 
z
" transform="scale(0.015625)"/>
        <path id="ArialMT-38" d="M 1131 2484 
Q 781 2613 612 2850 
Q 444 3088 444 3419 
Q 444 3919 803 4259 
Q 1163 4600 1759 4600 
Q 2359 4600 2725 4251 
Q 3091 3903 3091 3403 
Q 3091 3084 2923 2848 
Q 2756 2613 2416 2484 
Q 2838 2347 3058 2040 
Q 3278 1734 3278 1309 
Q 3278 722 2862 322 
Q 2447 -78 1769 -78 
Q 1091 -78 675 323 
Q 259 725 259 1325 
Q 259 1772 486 2073 
Q 713 2375 1131 2484 
z
M 1019 3438 
Q 1019 3113 1228 2906 
Q 1438 2700 1772 2700 
Q 2097 2700 2305 2904 
Q 2513 3109 2513 3406 
Q 2513 3716 2298 3927 
Q 2084 4138 1766 4138 
Q 1444 4138 1231 3931 
Q 1019 3725 1019 3438 
z
M 838 1322 
Q 838 1081 952 856 
Q 1066 631 1291 507 
Q 1516 384 1775 384 
Q 2178 384 2440 643 
Q 2703 903 2703 1303 
Q 2703 1709 2433 1975 
Q 2163 2241 1756 2241 
Q 1359 2241 1098 1978 
Q 838 1716 838 1322 
z
" transform="scale(0.015625)"/>
       </defs>
       <use xlink:href="#ArialMT-31"/>
       <use xlink:href="#ArialMT-32" x="55.615234"/>
       <use xlink:href="#ArialMT-38" x="111.230469"/>
      </g>
     </g>
    </g>
    <g id="xtick_3">
     <g id="line2d_3">
      <g>
       <use xlink:href="#m9b7d2d3321" x="220.367334" y="245.77425" style="stroke: #000000; stroke-width: 0.8"/>
      </g>
     </g>
     <g id="text_3">
      <!-- 256 -->
      <g transform="translate(207.021084 264.22675) scale(0.16 -0.16)">
       <defs>
        <path id="ArialMT-35" d="M 266 1200 
L 856 1250 
Q 922 819 1161 601 
Q 1400 384 1738 384 
Q 2144 384 2425 690 
Q 2706 997 2706 1503 
Q 2706 1984 2436 2262 
Q 2166 2541 1728 2541 
Q 1456 2541 1237 2417 
Q 1019 2294 894 2097 
L 366 2166 
L 809 4519 
L 3088 4519 
L 3088 3981 
L 1259 3981 
L 1013 2750 
Q 1425 3038 1878 3038 
Q 2478 3038 2890 2622 
Q 3303 2206 3303 1553 
Q 3303 931 2941 478 
Q 2500 -78 1738 -78 
Q 1113 -78 717 272 
Q 322 622 266 1200 
z
" transform="scale(0.015625)"/>
        <path id="ArialMT-36" d="M 3184 3459 
L 2625 3416 
Q 2550 3747 2413 3897 
Q 2184 4138 1850 4138 
Q 1581 4138 1378 3988 
Q 1113 3794 959 3422 
Q 806 3050 800 2363 
Q 1003 2672 1297 2822 
Q 1591 2972 1913 2972 
Q 2475 2972 2870 2558 
Q 3266 2144 3266 1488 
Q 3266 1056 3080 686 
Q 2894 316 2569 119 
Q 2244 -78 1831 -78 
Q 1128 -78 684 439 
Q 241 956 241 2144 
Q 241 3472 731 4075 
Q 1159 4600 1884 4600 
Q 2425 4600 2770 4297 
Q 3116 3994 3184 3459 
z
M 888 1484 
Q 888 1194 1011 928 
Q 1134 663 1356 523 
Q 1578 384 1822 384 
Q 2178 384 2434 671 
Q 2691 959 2691 1453 
Q 2691 1928 2437 2201 
Q 2184 2475 1800 2475 
Q 1419 2475 1153 2201 
Q 888 1928 888 1484 
z
" transform="scale(0.015625)"/>
       </defs>
       <use xlink:href="#ArialMT-32"/>
       <use xlink:href="#ArialMT-35" x="55.615234"/>
       <use xlink:href="#ArialMT-36" x="111.230469"/>
      </g>
     </g>
    </g>
    <g id="xtick_4">
     <g id="line2d_4">
      <g>
       <use xlink:href="#m9b7d2d3321" x="301.415844" y="245.77425" style="stroke: #000000; stroke-width: 0.8"/>
      </g>
     </g>
     <g id="text_4">
      <!-- 384 -->
      <g transform="translate(288.069594 264.22675) scale(0.16 -0.16)">
       <defs>
        <path id="ArialMT-33" d="M 269 1209 
L 831 1284 
Q 928 806 1161 595 
Q 1394 384 1728 384 
Q 2125 384 2398 659 
Q 2672 934 2672 1341 
Q 2672 1728 2419 1979 
Q 2166 2231 1775 2231 
Q 1616 2231 1378 2169 
L 1441 2663 
Q 1497 2656 1531 2656 
Q 1891 2656 2178 2843 
Q 2466 3031 2466 3422 
Q 2466 3731 2256 3934 
Q 2047 4138 1716 4138 
Q 1388 4138 1169 3931 
Q 950 3725 888 3313 
L 325 3413 
Q 428 3978 793 4289 
Q 1159 4600 1703 4600 
Q 2078 4600 2393 4439 
Q 2709 4278 2876 4000 
Q 3044 3722 3044 3409 
Q 3044 3113 2884 2869 
Q 2725 2625 2413 2481 
Q 2819 2388 3044 2092 
Q 3269 1797 3269 1353 
Q 3269 753 2831 336 
Q 2394 -81 1725 -81 
Q 1122 -81 723 278 
Q 325 638 269 1209 
z
" transform="scale(0.015625)"/>
        <path id="ArialMT-34" d="M 2069 0 
L 2069 1097 
L 81 1097 
L 81 1613 
L 2172 4581 
L 2631 4581 
L 2631 1613 
L 3250 1613 
L 3250 1097 
L 2631 1097 
L 2631 0 
L 2069 0 
z
M 2069 1613 
L 2069 3678 
L 634 1613 
L 2069 1613 
z
" transform="scale(0.015625)"/>
       </defs>
       <use xlink:href="#ArialMT-33"/>
       <use xlink:href="#ArialMT-38" x="55.615234"/>
       <use xlink:href="#ArialMT-34" x="111.230469"/>
      </g>
     </g>
    </g>
    <g id="xtick_5">
     <g id="line2d_5">
      <g>
       <use xlink:href="#m9b7d2d3321" x="382.464355" y="245.77425" style="stroke: #000000; stroke-width: 0.8"/>
      </g>
     </g>
     <g id="text_5">
      <!-- 512 -->
      <g transform="translate(369.118105 264.22675) scale(0.16 -0.16)">
       <use xlink:href="#ArialMT-35"/>
       <use xlink:href="#ArialMT-31" x="55.615234"/>
       <use xlink:href="#ArialMT-32" x="111.230469"/>
      </g>
     </g>
    </g>
    <g id="xtick_6">
     <g id="line2d_6">
      <g>
       <use xlink:href="#m9b7d2d3321" x="463.512866" y="245.77425" style="stroke: #000000; stroke-width: 0.8"/>
      </g>
     </g>
     <g id="text_6">
      <!-- 640 -->
      <g transform="translate(450.166616 264.22675) scale(0.16 -0.16)">
       <use xlink:href="#ArialMT-36"/>
       <use xlink:href="#ArialMT-34" x="55.615234"/>
       <use xlink:href="#ArialMT-30" x="111.230469"/>
      </g>
     </g>
    </g>
    <g id="text_7">
     <!-- Trial -->
     <g transform="translate(263.356484 285.006594) scale(0.19 -0.19)">
      <defs>
       <path id="ArialMT-54" d="M 1659 0 
L 1659 4041 
L 150 4041 
L 150 4581 
L 3781 4581 
L 3781 4041 
L 2266 4041 
L 2266 0 
L 1659 0 
z
" transform="scale(0.015625)"/>
       <path id="ArialMT-72" d="M 416 0 
L 416 3319 
L 922 3319 
L 922 2816 
Q 1116 3169 1280 3281 
Q 1444 3394 1641 3394 
Q 1925 3394 2219 3213 
L 2025 2691 
Q 1819 2813 1613 2813 
Q 1428 2813 1281 2702 
Q 1134 2591 1072 2394 
Q 978 2094 978 1738 
L 978 0 
L 416 0 
z
" transform="scale(0.015625)"/>
       <path id="ArialMT-69" d="M 425 3934 
L 425 4581 
L 988 4581 
L 988 3934 
L 425 3934 
z
M 425 0 
L 425 3319 
L 988 3319 
L 988 0 
L 425 0 
z
" transform="scale(0.015625)"/>
       <path id="ArialMT-61" d="M 2588 409 
Q 2275 144 1986 34 
Q 1697 -75 1366 -75 
Q 819 -75 525 192 
Q 231 459 231 875 
Q 231 1119 342 1320 
Q 453 1522 633 1644 
Q 813 1766 1038 1828 
Q 1203 1872 1538 1913 
Q 2219 1994 2541 2106 
Q 2544 2222 2544 2253 
Q 2544 2597 2384 2738 
Q 2169 2928 1744 2928 
Q 1347 2928 1158 2789 
Q 969 2650 878 2297 
L 328 2372 
Q 403 2725 575 2942 
Q 747 3159 1072 3276 
Q 1397 3394 1825 3394 
Q 2250 3394 2515 3294 
Q 2781 3194 2906 3042 
Q 3031 2891 3081 2659 
Q 3109 2516 3109 2141 
L 3109 1391 
Q 3109 606 3145 398 
Q 3181 191 3288 0 
L 2700 0 
Q 2613 175 2588 409 
z
M 2541 1666 
Q 2234 1541 1622 1453 
Q 1275 1403 1131 1340 
Q 988 1278 909 1158 
Q 831 1038 831 891 
Q 831 666 1001 516 
Q 1172 366 1500 366 
Q 1825 366 2078 508 
Q 2331 650 2450 897 
Q 2541 1088 2541 1459 
L 2541 1666 
z
" transform="scale(0.015625)"/>
       <path id="ArialMT-6c" d="M 409 0 
L 409 4581 
L 972 4581 
L 972 0 
L 409 0 
z
" transform="scale(0.015625)"/>
      </defs>
      <use xlink:href="#ArialMT-54"/>
      <use xlink:href="#ArialMT-72" x="57.333984"/>
      <use xlink:href="#ArialMT-69" x="90.634766"/>
      <use xlink:href="#ArialMT-61" x="112.851562"/>
      <use xlink:href="#ArialMT-6c" x="168.466797"/>
     </g>
    </g>
   </g>
   <g id="matplotlib.axis_2">
    <g id="ytick_1">
     <g id="line2d_7">
      <defs>
       <path id="md927c8ea61" d="M 0 0 
L -3.5 0 
" style="stroke: #000000; stroke-width: 0.8"/>
      </defs>
      <g>
       <use xlink:href="#md927c8ea61" x="58.270313" y="245.77425" style="stroke: #000000; stroke-width: 0.8"/>
      </g>
     </g>
     <g id="text_8">
      <!-- 0.0 -->
      <g transform="translate(29.030313 251.5005) scale(0.16 -0.16)">
       <defs>
        <path id="ArialMT-2e" d="M 581 0 
L 581 641 
L 1222 641 
L 1222 0 
L 581 0 
z
" transform="scale(0.015625)"/>
       </defs>
       <use xlink:href="#ArialMT-30"/>
       <use xlink:href="#ArialMT-2e" x="55.615234"/>
       <use xlink:href="#ArialMT-30" x="83.398438"/>
      </g>
     </g>
    </g>
    <g id="ytick_2">
     <g id="line2d_8">
      <g>
       <use xlink:href="#md927c8ea61" x="58.270313" y="199.20465" style="stroke: #000000; stroke-width: 0.8"/>
      </g>
     </g>
     <g id="text_9">
      <!-- 0.2 -->
      <g transform="translate(29.030313 204.9309) scale(0.16 -0.16)">
       <use xlink:href="#ArialMT-30"/>
       <use xlink:href="#ArialMT-2e" x="55.615234"/>
       <use xlink:href="#ArialMT-32" x="83.398438"/>
      </g>
     </g>
    </g>
    <g id="ytick_3">
     <g id="line2d_9">
      <g>
       <use xlink:href="#md927c8ea61" x="58.270313" y="152.63505" style="stroke: #000000; stroke-width: 0.8"/>
      </g>
     </g>
     <g id="text_10">
      <!-- 0.4 -->
      <g transform="translate(29.030313 158.3613) scale(0.16 -0.16)">
       <use xlink:href="#ArialMT-30"/>
       <use xlink:href="#ArialMT-2e" x="55.615234"/>
       <use xlink:href="#ArialMT-34" x="83.398438"/>
      </g>
     </g>
    </g>
    <g id="ytick_4">
     <g id="line2d_10">
      <g>
       <use xlink:href="#md927c8ea61" x="58.270313" y="106.06545" style="stroke: #000000; stroke-width: 0.8"/>
      </g>
     </g>
     <g id="text_11">
      <!-- 0.6 -->
      <g transform="translate(29.030313 111.7917) scale(0.16 -0.16)">
       <use xlink:href="#ArialMT-30"/>
       <use xlink:href="#ArialMT-2e" x="55.615234"/>
       <use xlink:href="#ArialMT-36" x="83.398438"/>
      </g>
     </g>
    </g>
    <g id="ytick_5">
     <g id="line2d_11">
      <g>
       <use xlink:href="#md927c8ea61" x="58.270313" y="59.49585" style="stroke: #000000; stroke-width: 0.8"/>
      </g>
     </g>
     <g id="text_12">
      <!-- 0.8 -->
      <g transform="translate(29.030313 65.2221) scale(0.16 -0.16)">
       <use xlink:href="#ArialMT-30"/>
       <use xlink:href="#ArialMT-2e" x="55.615234"/>
       <use xlink:href="#ArialMT-38" x="83.398438"/>
      </g>
     </g>
    </g>
    <g id="ytick_6">
     <g id="line2d_12">
      <g>
       <use xlink:href="#md927c8ea61" x="58.270313" y="12.92625" style="stroke: #000000; stroke-width: 0.8"/>
      </g>
     </g>
     <g id="text_13">
      <!-- 1.0 -->
      <g transform="translate(29.030313 18.6525) scale(0.16 -0.16)">
       <use xlink:href="#ArialMT-31"/>
       <use xlink:href="#ArialMT-2e" x="55.615234"/>
       <use xlink:href="#ArialMT-30" x="83.398438"/>
      </g>
     </g>
    </g>
    <g id="text_14">
     <!-- Learning performance -->
     <g transform="translate(21.031406 222.286969) rotate(-90) scale(0.19 -0.19)">
      <defs>
       <path id="ArialMT-4c" d="M 469 0 
L 469 4581 
L 1075 4581 
L 1075 541 
L 3331 541 
L 3331 0 
L 469 0 
z
" transform="scale(0.015625)"/>
       <path id="ArialMT-65" d="M 2694 1069 
L 3275 997 
Q 3138 488 2766 206 
Q 2394 -75 1816 -75 
Q 1088 -75 661 373 
Q 234 822 234 1631 
Q 234 2469 665 2931 
Q 1097 3394 1784 3394 
Q 2450 3394 2872 2941 
Q 3294 2488 3294 1666 
Q 3294 1616 3291 1516 
L 816 1516 
Q 847 969 1125 678 
Q 1403 388 1819 388 
Q 2128 388 2347 550 
Q 2566 713 2694 1069 
z
M 847 1978 
L 2700 1978 
Q 2663 2397 2488 2606 
Q 2219 2931 1791 2931 
Q 1403 2931 1139 2672 
Q 875 2413 847 1978 
z
" transform="scale(0.015625)"/>
       <path id="ArialMT-6e" d="M 422 0 
L 422 3319 
L 928 3319 
L 928 2847 
Q 1294 3394 1984 3394 
Q 2284 3394 2536 3286 
Q 2788 3178 2913 3003 
Q 3038 2828 3088 2588 
Q 3119 2431 3119 2041 
L 3119 0 
L 2556 0 
L 2556 2019 
Q 2556 2363 2490 2533 
Q 2425 2703 2258 2804 
Q 2091 2906 1866 2906 
Q 1506 2906 1245 2678 
Q 984 2450 984 1813 
L 984 0 
L 422 0 
z
" transform="scale(0.015625)"/>
       <path id="ArialMT-67" d="M 319 -275 
L 866 -356 
Q 900 -609 1056 -725 
Q 1266 -881 1628 -881 
Q 2019 -881 2231 -725 
Q 2444 -569 2519 -288 
Q 2563 -116 2559 434 
Q 2191 0 1641 0 
Q 956 0 581 494 
Q 206 988 206 1678 
Q 206 2153 378 2554 
Q 550 2956 876 3175 
Q 1203 3394 1644 3394 
Q 2231 3394 2613 2919 
L 2613 3319 
L 3131 3319 
L 3131 450 
Q 3131 -325 2973 -648 
Q 2816 -972 2473 -1159 
Q 2131 -1347 1631 -1347 
Q 1038 -1347 672 -1080 
Q 306 -813 319 -275 
z
M 784 1719 
Q 784 1066 1043 766 
Q 1303 466 1694 466 
Q 2081 466 2343 764 
Q 2606 1063 2606 1700 
Q 2606 2309 2336 2618 
Q 2066 2928 1684 2928 
Q 1309 2928 1046 2623 
Q 784 2319 784 1719 
z
" transform="scale(0.015625)"/>
       <path id="ArialMT-20" transform="scale(0.015625)"/>
       <path id="ArialMT-70" d="M 422 -1272 
L 422 3319 
L 934 3319 
L 934 2888 
Q 1116 3141 1344 3267 
Q 1572 3394 1897 3394 
Q 2322 3394 2647 3175 
Q 2972 2956 3137 2557 
Q 3303 2159 3303 1684 
Q 3303 1175 3120 767 
Q 2938 359 2589 142 
Q 2241 -75 1856 -75 
Q 1575 -75 1351 44 
Q 1128 163 984 344 
L 984 -1272 
L 422 -1272 
z
M 931 1641 
Q 931 1000 1190 694 
Q 1450 388 1819 388 
Q 2194 388 2461 705 
Q 2728 1022 2728 1688 
Q 2728 2322 2467 2637 
Q 2206 2953 1844 2953 
Q 1484 2953 1207 2617 
Q 931 2281 931 1641 
z
" transform="scale(0.015625)"/>
       <path id="ArialMT-66" d="M 556 0 
L 556 2881 
L 59 2881 
L 59 3319 
L 556 3319 
L 556 3672 
Q 556 4006 616 4169 
Q 697 4388 901 4523 
Q 1106 4659 1475 4659 
Q 1713 4659 2000 4603 
L 1916 4113 
Q 1741 4144 1584 4144 
Q 1328 4144 1222 4034 
Q 1116 3925 1116 3625 
L 1116 3319 
L 1763 3319 
L 1763 2881 
L 1116 2881 
L 1116 0 
L 556 0 
z
" transform="scale(0.015625)"/>
       <path id="ArialMT-6f" d="M 213 1659 
Q 213 2581 725 3025 
Q 1153 3394 1769 3394 
Q 2453 3394 2887 2945 
Q 3322 2497 3322 1706 
Q 3322 1066 3130 698 
Q 2938 331 2570 128 
Q 2203 -75 1769 -75 
Q 1072 -75 642 372 
Q 213 819 213 1659 
z
M 791 1659 
Q 791 1022 1069 705 
Q 1347 388 1769 388 
Q 2188 388 2466 706 
Q 2744 1025 2744 1678 
Q 2744 2294 2464 2611 
Q 2184 2928 1769 2928 
Q 1347 2928 1069 2612 
Q 791 2297 791 1659 
z
" transform="scale(0.015625)"/>
       <path id="ArialMT-6d" d="M 422 0 
L 422 3319 
L 925 3319 
L 925 2853 
Q 1081 3097 1340 3245 
Q 1600 3394 1931 3394 
Q 2300 3394 2536 3241 
Q 2772 3088 2869 2813 
Q 3263 3394 3894 3394 
Q 4388 3394 4653 3120 
Q 4919 2847 4919 2278 
L 4919 0 
L 4359 0 
L 4359 2091 
Q 4359 2428 4304 2576 
Q 4250 2725 4106 2815 
Q 3963 2906 3769 2906 
Q 3419 2906 3187 2673 
Q 2956 2441 2956 1928 
L 2956 0 
L 2394 0 
L 2394 2156 
Q 2394 2531 2256 2718 
Q 2119 2906 1806 2906 
Q 1569 2906 1367 2781 
Q 1166 2656 1075 2415 
Q 984 2175 984 1722 
L 984 0 
L 422 0 
z
" transform="scale(0.015625)"/>
       <path id="ArialMT-63" d="M 2588 1216 
L 3141 1144 
Q 3050 572 2676 248 
Q 2303 -75 1759 -75 
Q 1078 -75 664 370 
Q 250 816 250 1647 
Q 250 2184 428 2587 
Q 606 2991 970 3192 
Q 1334 3394 1763 3394 
Q 2303 3394 2647 3120 
Q 2991 2847 3088 2344 
L 2541 2259 
Q 2463 2594 2264 2762 
Q 2066 2931 1784 2931 
Q 1359 2931 1093 2626 
Q 828 2322 828 1663 
Q 828 994 1084 691 
Q 1341 388 1753 388 
Q 2084 388 2306 591 
Q 2528 794 2588 1216 
z
" transform="scale(0.015625)"/>
      </defs>
      <use xlink:href="#ArialMT-4c"/>
      <use xlink:href="#ArialMT-65" x="55.615234"/>
      <use xlink:href="#ArialMT-61" x="111.230469"/>
      <use xlink:href="#ArialMT-72" x="166.845703"/>
      <use xlink:href="#ArialMT-6e" x="200.146484"/>
      <use xlink:href="#ArialMT-69" x="255.761719"/>
      <use xlink:href="#ArialMT-6e" x="277.978516"/>
      <use xlink:href="#ArialMT-67" x="333.59375"/>
      <use xlink:href="#ArialMT-20" x="389.208984"/>
      <use xlink:href="#ArialMT-70" x="416.992188"/>
      <use xlink:href="#ArialMT-65" x="472.607422"/>
      <use xlink:href="#ArialMT-72" x="528.222656"/>
      <use xlink:href="#ArialMT-66" x="561.523438"/>
      <use xlink:href="#ArialMT-6f" x="589.306641"/>
      <use xlink:href="#ArialMT-72" x="644.921875"/>
      <use xlink:href="#ArialMT-6d" x="678.222656"/>
      <use xlink:href="#ArialMT-61" x="761.523438"/>
      <use xlink:href="#ArialMT-6e" x="817.138672"/>
      <use xlink:href="#ArialMT-63" x="872.753906"/>
      <use xlink:href="#ArialMT-65" x="922.753906"/>
     </g>
    </g>
   </g>
   <g id="line2d_13">
    <path d="M 68.401376 216.66825 
L 69.034568 216.66825 
L 69.667759 231.22125 
L 70.300951 231.22125 
L 70.934142 216.66825 
L 71.567334 216.66825 
L 72.833717 187.56225 
L 74.733291 187.56225 
L 75.366483 173.00925 
L 75.999674 187.56225 
L 77.899249 187.56225 
L 78.53244 173.00925 
L 79.165632 173.00925 
L 80.432015 143.90325 
L 81.065206 143.90325 
L 81.698398 129.35025 
L 82.964781 129.35025 
L 84.231164 100.24425 
L 87.397121 100.24425 
L 88.030313 85.69125 
L 88.663504 100.24425 
L 89.929887 100.24425 
L 91.19627 129.35025 
L 93.095844 129.35025 
L 93.729036 143.90325 
L 96.261802 143.90325 
L 96.894993 129.35025 
L 97.528185 129.35025 
L 98.161376 143.90325 
L 99.427759 114.79725 
L 100.060951 129.35025 
L 101.960525 129.35025 
L 103.226908 158.45625 
L 103.8601 158.45625 
L 104.493291 173.00925 
L 106.392866 173.00925 
L 107.026057 187.56225 
L 108.925632 187.56225 
L 109.558823 202.11525 
L 110.825206 173.00925 
L 111.458398 173.00925 
L 112.091589 187.56225 
L 114.624355 187.56225 
L 115.257547 173.00925 
L 115.890738 173.00925 
L 117.790312 129.35025 
L 119.056695 129.35025 
L 119.689887 114.79725 
L 120.323078 114.79725 
L 120.95627 129.35025 
L 121.589461 114.79725 
L 122.222653 114.79725 
L 124.755419 56.58525 
L 125.38861 71.13825 
L 126.021802 71.13825 
L 126.654993 85.69125 
L 127.288185 85.69125 
L 127.921376 100.24425 
L 128.554568 100.24425 
L 129.820951 129.35025 
L 131.087334 129.35025 
L 131.720525 143.90325 
L 133.6201 143.90325 
L 134.253291 158.45625 
L 136.786057 158.45625 
L 137.419249 173.00925 
L 138.05244 173.00925 
L 138.685632 158.45625 
L 139.952015 158.45625 
L 140.585206 173.00925 
L 141.218398 173.00925 
L 142.484781 143.90325 
L 143.751164 143.90325 
L 144.384355 129.35025 
L 145.017547 143.90325 
L 146.917121 143.90325 
L 147.550313 129.35025 
L 148.816695 129.35025 
L 151.349461 71.13825 
L 151.982653 85.69125 
L 153.882227 85.69125 
L 154.515419 100.24425 
L 155.781802 71.13825 
L 156.414993 71.13825 
L 157.048185 56.58525 
L 157.681376 71.13825 
L 158.314568 71.13825 
L 158.947759 85.69125 
L 159.580951 85.69125 
L 161.480525 129.35025 
L 162.746908 129.35025 
L 163.3801 143.90325 
L 164.013291 143.90325 
L 164.646483 129.35025 
L 165.912866 129.35025 
L 167.179249 158.45625 
L 167.81244 158.45625 
L 169.078823 129.35025 
L 169.712015 129.35025 
L 170.978398 100.24425 
L 172.244781 100.24425 
L 172.877972 114.79725 
L 173.511164 100.24425 
L 174.144355 114.79725 
L 174.777547 114.79725 
L 175.410738 129.35025 
L 176.04393 129.35025 
L 177.943504 85.69125 
L 178.576695 85.69125 
L 179.843078 114.79725 
L 181.742653 114.79725 
L 183.009036 85.69125 
L 183.642227 100.24425 
L 184.275419 85.69125 
L 185.541802 85.69125 
L 187.441376 129.35025 
L 188.707759 129.35025 
L 189.974142 100.24425 
L 191.240525 100.24425 
L 191.873717 85.69125 
L 192.506908 100.24425 
L 193.1401 100.24425 
L 193.773291 85.69125 
L 195.672866 85.69125 
L 196.306057 71.13825 
L 196.939249 71.13825 
L 197.57244 56.58525 
L 200.105206 56.58525 
L 202.004781 100.24425 
L 202.637972 85.69125 
L 203.271164 85.69125 
L 203.904355 100.24425 
L 205.170738 100.24425 
L 205.80393 85.69125 
L 207.703504 85.69125 
L 208.336695 100.24425 
L 210.23627 100.24425 
L 210.869461 85.69125 
L 212.769036 85.69125 
L 213.402227 100.24425 
L 214.66861 100.24425 
L 216.568185 143.90325 
L 218.467759 143.90325 
L 219.100951 158.45625 
L 222.266908 158.45625 
L 222.9001 173.00925 
L 223.533291 158.45625 
L 224.166483 158.45625 
L 224.799674 173.00925 
L 227.33244 114.79725 
L 227.965632 129.35025 
L 228.598823 129.35025 
L 229.232015 114.79725 
L 231.131589 114.79725 
L 232.397972 85.69125 
L 233.664355 85.69125 
L 234.930738 56.58525 
L 235.56393 71.13825 
L 236.197121 71.13825 
L 236.830313 85.69125 
L 237.463504 85.69125 
L 238.729887 56.58525 
L 241.895844 56.58525 
L 242.529036 71.13825 
L 245.061802 71.13825 
L 245.694993 56.58525 
L 246.328185 56.58525 
L 246.961376 42.03225 
L 249.494142 42.03225 
L 250.127334 56.58525 
L 252.026908 56.58525 
L 252.6601 42.03225 
L 254.559674 42.03225 
L 255.192866 56.58525 
L 259.625206 56.58525 
L 260.258398 42.03225 
L 262.791164 42.03225 
L 263.424355 27.47925 
L 264.057547 42.03225 
L 264.690738 42.03225 
L 265.32393 27.47925 
L 265.957121 42.03225 
L 267.223504 42.03225 
L 268.489887 71.13825 
L 269.75627 71.13825 
L 270.389461 85.69125 
L 273.555419 85.69125 
L 274.18861 71.13825 
L 276.088185 71.13825 
L 276.721376 85.69125 
L 278.620951 85.69125 
L 279.887334 114.79725 
L 280.520525 100.24425 
L 281.153717 100.24425 
L 283.053291 143.90325 
L 285.586057 143.90325 
L 286.85244 114.79725 
L 287.485632 114.79725 
L 290.018398 56.58525 
L 290.651589 56.58525 
L 291.284781 71.13825 
L 291.917972 71.13825 
L 293.184355 42.03225 
L 294.450738 42.03225 
L 296.350312 85.69125 
L 297.616695 85.69125 
L 300.782653 158.45625 
L 301.415844 158.45625 
L 302.049036 143.90325 
L 302.682227 143.90325 
L 304.581802 187.56225 
L 305.848185 158.45625 
L 306.481376 158.45625 
L 307.114568 173.00925 
L 308.380951 173.00925 
L 309.014142 158.45625 
L 310.913717 158.45625 
L 311.546908 143.90325 
L 312.813291 173.00925 
L 313.446483 158.45625 
L 315.979249 158.45625 
L 317.245632 129.35025 
L 317.878823 129.35025 
L 318.512015 114.79725 
L 319.145206 114.79725 
L 320.411589 85.69125 
L 321.677972 85.69125 
L 322.944355 56.58525 
L 324.210738 56.58525 
L 324.84393 42.03225 
L 325.477121 56.58525 
L 326.743504 56.58525 
L 327.376695 71.13825 
L 329.27627 71.13825 
L 329.909461 85.69125 
L 330.542653 85.69125 
L 331.175844 71.13825 
L 334.341802 71.13825 
L 334.974993 85.69125 
L 335.608185 71.13825 
L 340.040525 71.13825 
L 341.306908 100.24425 
L 341.9401 100.24425 
L 342.573291 114.79725 
L 343.839674 114.79725 
L 344.472866 100.24425 
L 346.37244 100.24425 
L 347.005632 114.79725 
L 349.538398 114.79725 
L 350.804781 85.69125 
L 352.071164 85.69125 
L 352.704355 71.13825 
L 353.337547 71.13825 
L 353.970738 85.69125 
L 357.769887 85.69125 
L 359.669461 129.35025 
L 360.935844 129.35025 
L 361.569036 114.79725 
L 362.835419 114.79725 
L 363.46861 129.35025 
L 364.101802 114.79725 
L 364.734993 129.35025 
L 365.368185 129.35025 
L 366.001376 143.90325 
L 367.900951 143.90325 
L 369.800525 100.24425 
L 372.966483 100.24425 
L 373.599674 85.69125 
L 374.232866 100.24425 
L 375.499249 100.24425 
L 376.13244 85.69125 
L 376.765632 100.24425 
L 377.398823 100.24425 
L 378.032015 85.69125 
L 379.298398 85.69125 
L 379.931589 100.24425 
L 382.464355 100.24425 
L 383.730738 129.35025 
L 384.997121 100.24425 
L 385.630313 100.24425 
L 386.263504 114.79725 
L 386.896695 114.79725 
L 387.529887 100.24425 
L 389.429461 100.24425 
L 390.062653 85.69125 
L 391.329036 85.69125 
L 392.595419 114.79725 
L 393.22861 100.24425 
L 394.494993 100.24425 
L 395.128185 114.79725 
L 395.761376 114.79725 
L 396.394568 100.24425 
L 397.027759 100.24425 
L 397.660951 114.79725 
L 398.294142 114.79725 
L 398.927334 129.35025 
L 400.826908 129.35025 
L 401.4601 143.90325 
L 402.093291 143.90325 
L 402.726483 129.35025 
L 403.359674 143.90325 
L 403.992866 129.35025 
L 404.626057 129.35025 
L 405.259249 114.79725 
L 405.89244 114.79725 
L 406.525632 129.35025 
L 407.792015 100.24425 
L 408.425206 114.79725 
L 409.691589 114.79725 
L 410.324781 129.35025 
L 410.957972 129.35025 
L 411.591164 114.79725 
L 412.224355 114.79725 
L 412.857547 129.35025 
L 413.490738 114.79725 
L 414.757121 143.90325 
L 415.390312 143.90325 
L 416.656695 114.79725 
L 417.923078 143.90325 
L 419.189461 143.90325 
L 419.822653 158.45625 
L 420.455844 158.45625 
L 421.089036 173.00925 
L 421.722227 173.00925 
L 422.355419 158.45625 
L 423.621802 158.45625 
L 424.254993 143.90325 
L 424.888185 143.90325 
L 425.521376 158.45625 
L 428.054142 158.45625 
L 429.953717 114.79725 
L 434.386057 114.79725 
L 435.65244 85.69125 
L 436.918823 85.69125 
L 438.185206 56.58525 
L 440.084781 56.58525 
L 441.351164 27.47925 
L 442.617547 27.47925 
L 443.250738 12.92625 
L 443.88393 12.92625 
L 444.517121 27.47925 
L 449.582653 27.47925 
L 450.215844 42.03225 
L 453.381802 42.03225 
L 454.014993 56.58525 
L 454.648185 42.03225 
L 457.180951 42.03225 
L 457.814142 56.58525 
L 463.512866 56.58525 
L 464.146057 42.03225 
L 464.779249 56.58525 
L 467.312015 56.58525 
L 467.945206 42.03225 
L 469.844781 42.03225 
L 470.477972 27.47925 
L 474.277121 27.47925 
L 474.910312 12.92625 
L 477.443078 12.92625 
L 478.07627 27.47925 
L 487.574142 27.47925 
L 488.207334 12.92625 
L 502.770738 12.92625 
L 503.40393 27.47925 
L 504.037121 28.44945 
L 504.037121 28.44945 
" style="fill: none; stroke: #a6a6a6; stroke-width: 2; stroke-linecap: square"/>
   </g>
   <g id="line2d_14">
    <path d="M 68.401376 150.383199 
L 69.034568 144.648581 
L 69.667759 152.866748 
L 70.300951 152.837989 
L 71.567334 169.457845 
L 72.200525 175.213091 
L 72.833717 176.184711 
L 73.466908 176.865639 
L 74.1001 178.830223 
L 74.733291 170.31439 
L 75.366483 169.682083 
L 75.999674 167.014973 
L 76.632866 170.014536 
L 77.266057 164.569303 
L 77.899249 169.966656 
L 78.53244 168.301856 
L 79.165632 167.48722 
L 79.798823 157.336859 
L 80.432015 157.688213 
L 81.065206 150.610997 
L 81.698398 140.323133 
L 82.964781 122.194449 
L 83.597972 118.734342 
L 84.231164 114.116095 
L 84.864355 113.555228 
L 85.497547 115.41929 
L 86.130738 114.36922 
L 86.76393 113.927051 
L 87.397121 115.095809 
L 88.030313 115.103467 
L 89.296695 123.776646 
L 89.929887 125.156498 
L 90.563078 128.337325 
L 93.095844 163.577301 
L 93.729036 167.557288 
L 94.362227 167.978788 
L 94.995419 170.334797 
L 95.62861 172.204432 
L 96.261802 172.054344 
L 96.894993 173.528604 
L 97.528185 173.829027 
L 98.161376 173.171114 
L 98.794568 166.69804 
L 99.427759 165.207638 
L 100.060951 166.481195 
L 100.694142 163.289745 
L 101.960525 158.803357 
L 102.593717 160.384198 
L 103.226908 159.611629 
L 103.8601 156.375283 
L 104.493291 157.100487 
L 105.126483 159.789259 
L 105.759674 158.946267 
L 106.392866 159.092909 
L 107.026057 156.66018 
L 108.29244 162.314139 
L 108.925632 166.542508 
L 109.558823 168.761377 
L 110.825206 177.789246 
L 111.458398 178.035278 
L 112.091589 181.532408 
L 112.724781 175.567337 
L 113.357972 171.511705 
L 113.991164 170.466498 
L 114.624355 168.622764 
L 115.257547 169.990896 
L 115.890738 161.201732 
L 116.52393 155.816448 
L 117.157121 154.322362 
L 118.423504 140.547026 
L 119.056695 140.675482 
L 119.689887 135.819872 
L 120.323078 128.788875 
L 120.95627 125.493564 
L 121.589461 126.65747 
L 122.222653 127.095849 
L 122.855844 131.981945 
L 123.489036 140.575966 
L 124.122227 136.554278 
L 124.755419 137.596793 
L 125.38861 136.472981 
L 126.654993 146.513676 
L 127.288185 148.600563 
L 127.921376 157.573985 
L 128.554568 154.692168 
L 129.187759 147.854707 
L 129.820951 148.35205 
L 130.454142 158.948624 
L 131.087334 159.749696 
L 131.720525 160.008009 
L 132.353717 159.35474 
L 132.986908 157.817919 
L 133.6201 151.512061 
L 134.886483 159.688165 
L 135.519674 157.856533 
L 136.152866 157.715951 
L 136.786057 151.80179 
L 137.419249 155.0326 
L 138.05244 150.773933 
L 139.318823 165.139418 
L 139.952015 169.350053 
L 140.585206 166.909612 
L 141.218398 169.095393 
L 142.484781 160.325039 
L 143.117972 160.014413 
L 143.751164 163.674695 
L 144.384355 162.284501 
L 145.017547 151.891088 
L 145.650738 154.992241 
L 146.28393 149.503704 
L 146.917121 159.298195 
L 147.550313 155.984349 
L 148.183504 157.130486 
L 148.816695 152.928025 
L 149.449887 152.37776 
L 150.083078 149.851772 
L 150.71627 148.867336 
L 151.349461 143.669459 
L 151.982653 136.955677 
L 152.615844 131.870785 
L 153.882227 111.798385 
L 154.515419 119.353396 
L 155.14861 122.589153 
L 155.781802 121.98271 
L 156.414993 127.881934 
L 157.048185 117.139766 
L 157.681376 112.591413 
L 158.314568 106.033083 
L 158.947759 105.484527 
L 159.580951 108.445605 
L 160.214142 109.787471 
L 160.847334 110.233547 
L 162.113717 118.83757 
L 162.746908 121.99844 
L 163.3801 129.782949 
L 164.013291 134.972355 
L 164.646483 135.02582 
L 165.279674 140.330613 
L 165.912866 137.938693 
L 166.546057 132.158571 
L 167.179249 131.637408 
L 167.81244 130.039722 
L 168.445632 130.293452 
L 169.078823 127.214352 
L 169.712015 116.045385 
L 170.345206 109.138075 
L 171.611589 89.097582 
L 172.244781 92.489563 
L 172.877972 89.129537 
L 173.511164 84.053021 
L 174.144355 84.486506 
L 174.777547 72.2732 
L 175.410738 71.378648 
L 176.04393 67.250328 
L 176.677121 67.796598 
L 177.310313 74.609085 
L 177.943504 76.384209 
L 178.576695 73.618552 
L 179.209887 76.033448 
L 179.843078 81.054553 
L 180.47627 80.827143 
L 181.742653 99.384592 
L 182.375844 100.515034 
L 183.642227 112.353352 
L 184.275419 115.740629 
L 184.90861 125.934565 
L 185.541802 126.618669 
L 186.174993 131.659484 
L 186.808185 139.019398 
L 187.441376 141.128914 
L 188.074568 142.762184 
L 188.707759 145.875882 
L 189.340951 144.730541 
L 189.974142 140.205706 
L 190.607334 150.209537 
L 191.240525 150.793725 
L 191.873717 144.56318 
L 192.506908 143.080951 
L 193.773291 129.039534 
L 194.406483 121.409388 
L 195.039674 118.012793 
L 196.306057 105.462374 
L 196.939249 96.624393 
L 197.57244 90.718151 
L 200.105206 80.278251 
L 200.738398 73.417155 
L 201.371589 65.175163 
L 202.004781 64.286217 
L 202.637972 59.81476 
L 203.271164 59.790813 
L 203.904355 65.012973 
L 204.537547 64.861492 
L 205.170738 63.752445 
L 205.80393 65.477241 
L 206.437121 70.597686 
L 207.070312 73.187968 
L 208.336695 85.299367 
L 208.969887 94.057227 
L 209.603078 95.713617 
L 210.23627 102.220155 
L 210.869461 101.653197 
L 211.502653 107.278916 
L 212.135844 116.631086 
L 212.769036 114.892703 
L 214.035419 124.262965 
L 214.66861 133.879108 
L 215.301802 133.594843 
L 215.934993 133.161773 
L 216.568185 134.260782 
L 217.201376 134.322135 
L 217.834568 130.22381 
L 218.467759 131.321914 
L 219.100951 128.082983 
L 219.734142 131.468538 
L 220.367334 136.549889 
L 221.000525 143.65311 
L 221.633717 146.034474 
L 222.266908 143.229257 
L 222.9001 150.762286 
L 223.533291 153.523353 
L 224.166483 152.684393 
L 224.799674 148.809727 
L 225.432866 146.575885 
L 226.066057 143.267123 
L 226.699249 144.515656 
L 227.33244 147.000503 
L 227.965632 147.837664 
L 228.598823 143.876122 
L 230.498398 138.882095 
L 231.131589 139.456195 
L 231.764781 136.589802 
L 233.031164 121.190045 
L 234.297547 118.848992 
L 234.930738 113.494896 
L 235.56393 121.364112 
L 236.197121 124.442674 
L 236.830313 121.45871 
L 237.463504 119.767562 
L 238.096695 114.14017 
L 238.729887 116.795653 
L 239.363078 115.821286 
L 239.99627 120.116291 
L 240.629461 110.372549 
L 241.262653 102.770759 
L 241.895844 108.636475 
L 242.529036 109.174875 
L 243.162227 118.543027 
L 243.795419 122.14501 
L 244.42861 115.791414 
L 245.061802 114.483941 
L 245.694993 111.63788 
L 246.328185 105.946269 
L 246.961376 111.414379 
L 247.594568 109.640474 
L 248.227759 113.330932 
L 248.860951 107.599876 
L 249.494142 116.716197 
L 250.127334 109.150911 
L 250.760525 112.61642 
L 251.393717 111.084007 
L 252.026908 106.488324 
L 252.6601 116.406011 
L 253.293291 117.025757 
L 253.926483 113.517921 
L 254.559674 120.269055 
L 255.192866 121.268353 
L 255.826057 125.187383 
L 256.459249 133.579253 
L 257.09244 133.950182 
L 257.725632 140.862145 
L 258.358823 135.512724 
L 258.992015 132.406699 
L 259.625206 121.737008 
L 260.258398 130.052405 
L 260.891589 129.417676 
L 261.524781 129.653519 
L 262.157972 123.753905 
L 263.424355 102.567435 
L 264.690738 88.658918 
L 265.32393 86.827842 
L 265.957121 75.001061 
L 266.590312 67.037242 
L 267.856695 44.863848 
L 268.489887 46.442933 
L 269.123078 53.985459 
L 269.75627 55.163249 
L 270.389461 47.540494 
L 271.022653 56.047076 
L 271.655844 54.168217 
L 274.18861 85.672144 
L 274.821802 89.296436 
L 275.454993 91.027214 
L 276.088185 94.51332 
L 276.721376 101.676926 
L 277.354568 111.093802 
L 277.987759 114.339673 
L 278.620951 113.729341 
L 279.887334 106.783225 
L 280.520525 109.181049 
L 281.153717 108.925162 
L 281.786908 117.989326 
L 282.4201 115.185433 
L 283.053291 118.567682 
L 283.686483 111.99899 
L 284.319674 110.037967 
L 284.952866 106.129714 
L 285.586057 104.640089 
L 286.219249 100.827668 
L 286.85244 93.966648 
L 287.485632 84.173059 
L 288.118823 82.881034 
L 288.752015 83.445217 
L 289.385206 80.997679 
L 290.018398 79.759447 
L 290.651589 76.065436 
L 291.284781 75.041914 
L 292.551164 62.825472 
L 293.184355 52.791201 
L 293.817547 50.872486 
L 294.450738 43.770297 
L 295.08393 47.990681 
L 295.717121 47.788962 
L 296.350312 60.864289 
L 296.983504 60.752576 
L 297.616695 67.294261 
L 298.249887 77.028054 
L 298.883078 82.269026 
L 299.51627 91.82352 
L 300.149461 98.422267 
L 300.782653 108.917582 
L 301.415844 105.269677 
L 302.682227 117.169761 
L 303.315419 123.147701 
L 303.94861 122.226203 
L 304.581802 124.232386 
L 305.214993 120.738346 
L 305.848185 128.543365 
L 306.481376 120.470872 
L 307.114568 128.942805 
L 307.747759 125.167183 
L 308.380951 125.781085 
L 309.014142 127.640596 
L 309.647334 127.048134 
L 310.280525 129.204239 
L 310.913717 124.154094 
L 311.546908 124.149341 
L 312.1801 120.619716 
L 312.813291 124.062443 
L 313.446483 126.454657 
L 314.079674 135.283316 
L 314.712866 136.480788 
L 315.346057 142.384971 
L 315.979249 135.384873 
L 316.61244 140.612644 
L 317.245632 142.171932 
L 317.878823 151.639175 
L 319.145206 136.202554 
L 319.778398 139.793084 
L 320.411589 132.943778 
L 321.677972 123.374513 
L 322.311164 129.360349 
L 322.944355 128.820888 
L 323.577547 127.972739 
L 324.210738 122.251641 
L 324.84393 124.653674 
L 325.477121 128.159822 
L 326.110312 130.839876 
L 326.743504 131.680744 
L 327.376695 131.314359 
L 328.009887 130.053237 
L 328.643078 133.316363 
L 329.27627 142.752667 
L 329.909461 136.731893 
L 330.542653 134.827424 
L 331.175844 134.888543 
L 331.809036 134.507515 
L 332.442227 122.006032 
L 333.075419 112.219658 
L 333.70861 104.337815 
L 334.341802 102.315499 
L 334.974993 99.682231 
L 335.608185 87.988757 
L 336.241376 93.21864 
L 336.874568 82.180046 
L 337.507759 75.126853 
L 338.140951 64.794827 
L 338.774142 57.819189 
L 339.407334 56.547191 
L 340.040525 57.631152 
L 340.673717 68.812411 
L 341.9401 86.549511 
L 343.206483 105.868562 
L 344.472866 121.732151 
L 345.106057 126.524537 
L 345.739249 133.075627 
L 346.37244 131.795129 
L 347.005632 141.449129 
L 347.638823 142.125689 
L 348.272015 148.432721 
L 348.905206 150.152029 
L 349.538398 142.127179 
L 350.171589 141.656595 
L 350.804781 130.492786 
L 351.437972 135.318331 
L 352.071164 124.872694 
L 353.337547 108.818472 
L 353.970738 105.116488 
L 354.60393 96.313787 
L 355.870312 101.341592 
L 356.503504 102.897355 
L 357.136695 92.828419 
L 357.769887 95.17933 
L 358.403078 88.947362 
L 359.03627 97.415712 
L 359.669461 107.871571 
L 360.302653 106.234982 
L 360.935844 109.029374 
L 361.569036 96.413908 
L 362.202227 104.907884 
L 362.835419 106.795057 
L 363.46861 113.960178 
L 364.734993 124.538752 
L 366.001376 106.588473 
L 366.634568 101.583992 
L 367.267759 103.145541 
L 367.900951 105.701091 
L 368.534142 117.483738 
L 369.167334 113.134648 
L 369.800525 107.364197 
L 371.7001 119.490302 
L 372.333291 113.989696 
L 372.966483 118.511898 
L 374.232866 101.521582 
L 374.866057 107.570413 
L 375.499249 110.580261 
L 376.13244 116.640204 
L 376.765632 119.381946 
L 377.398823 125.939077 
L 378.032015 124.40977 
L 378.665206 115.730429 
L 379.298398 119.627581 
L 379.931589 119.739941 
L 380.564781 112.417951 
L 381.197972 106.65826 
L 381.831164 102.79191 
L 382.464355 108.143375 
L 383.097547 110.2357 
L 384.36393 125.480928 
L 384.997121 121.272596 
L 385.630313 125.870342 
L 386.263504 126.890835 
L 386.896695 129.606181 
L 387.529887 122.252338 
L 388.163078 119.180029 
L 388.79627 118.702889 
L 389.429461 110.94843 
L 390.062653 105.156709 
L 390.695844 101.924675 
L 391.329036 101.7329 
L 391.962227 111.749673 
L 392.595419 116.456363 
L 393.22861 116.034286 
L 393.861802 115.915899 
L 394.494993 115.608682 
L 395.128185 119.583998 
L 397.027759 124.327803 
L 397.660951 127.359295 
L 398.927334 136.784093 
L 399.560525 136.469419 
L 400.193717 137.333339 
L 400.826908 141.117565 
L 401.4601 142.499327 
L 402.726483 134.309876 
L 403.359674 135.318271 
L 403.992866 132.99597 
L 404.626057 128.507579 
L 405.259249 127.632118 
L 407.158823 110.837489 
L 407.792015 115.229313 
L 408.425206 114.110997 
L 409.058398 117.814024 
L 409.691589 115.948797 
L 410.324781 125.609523 
L 410.957972 123.693354 
L 411.591164 124.836127 
L 412.857547 121.352193 
L 413.490738 112.802924 
L 414.12393 109.17304 
L 414.757121 113.936911 
L 415.390312 107.881392 
L 416.023504 113.833404 
L 416.656695 113.270401 
L 417.289887 107.77857 
L 417.923078 100.962341 
L 418.55627 99.269793 
L 419.189461 98.890068 
L 419.822653 103.949164 
L 420.455844 102.512138 
L 421.722227 115.205072 
L 422.98861 125.642421 
L 424.254993 141.630106 
L 424.888185 138.449526 
L 425.521376 140.79571 
L 426.154568 133.296117 
L 427.420951 144.661172 
L 428.054142 150.904508 
L 428.687334 153.890216 
L 429.320525 147.524862 
L 429.953717 151.618159 
L 430.586908 151.551734 
L 431.2201 148.702808 
L 432.486483 129.194574 
L 433.752866 107.867404 
L 434.386057 97.260334 
L 435.019249 95.014093 
L 435.65244 90.980514 
L 436.285632 87.781703 
L 437.552015 73.841871 
L 438.185206 79.572464 
L 438.818398 71.860471 
L 439.451589 68.783288 
L 440.717972 50.871132 
L 441.351164 45.039534 
L 441.984355 45.044613 
L 442.617547 44.73653 
L 443.250738 42.963251 
L 443.88393 44.718372 
L 444.517121 47.687522 
L 445.150312 47.011727 
L 445.783504 43.980406 
L 446.416695 45.239935 
L 447.049887 45.203589 
L 447.683078 45.563124 
L 448.31627 32.070661 
L 448.949461 30.289233 
L 449.582653 40.478419 
L 450.215844 52.485665 
L 450.849036 54.551775 
L 451.482227 55.235083 
L 452.115419 55.583724 
L 453.381802 60.342032 
L 454.014993 62.954176 
L 454.648185 59.321499 
L 455.281376 61.192071 
L 455.914568 61.540492 
L 457.180951 69.08925 
L 457.814142 73.018944 
L 459.080525 74.045407 
L 459.713717 63.188593 
L 460.346908 57.02999 
L 460.9801 54.112747 
L 461.613291 53.193698 
L 462.246483 53.158299 
L 462.879674 52.509783 
L 463.512866 49.8531 
L 464.146057 45.004787 
L 464.779249 45.704054 
L 465.41244 44.087654 
L 466.045632 43.581101 
L 467.312015 35.518079 
L 467.945206 31.202743 
L 468.578398 31.29332 
L 469.211589 30.745912 
L 469.844781 29.676996 
L 470.477972 23.199364 
L 471.744355 23.855494 
L 472.377547 23.399847 
L 473.010738 21.779389 
L 473.64393 25.612126 
L 474.277121 25.710306 
L 474.910312 26.144263 
L 475.543504 23.694207 
L 476.176695 23.220904 
L 476.809887 22.989357 
L 477.443078 27.562018 
L 478.07627 33.954216 
L 479.342653 42.424409 
L 479.975844 43.101651 
L 480.609036 45.729803 
L 481.242227 45.23696 
L 481.875419 45.770563 
L 482.50861 45.560778 
L 483.141802 45.811828 
L 483.774993 42.869669 
L 484.408185 43.051515 
L 485.041376 42.300043 
L 486.307759 42.887233 
L 486.940951 42.892304 
L 488.840525 27.225437 
L 489.473717 22.804658 
L 490.106908 22.075736 
L 490.7401 22.193574 
L 491.373291 22.920743 
L 492.006483 22.72671 
L 492.639674 22.799776 
L 493.906057 21.776864 
L 495.17244 22.234465 
L 495.805632 22.01991 
L 496.438823 22.374977 
L 497.072015 22.155735 
L 497.705206 26.859179 
L 498.338398 26.122198 
L 498.971589 39.511324 
L 499.604781 39.827067 
L 500.237972 40.38928 
L 500.871164 48.859868 
L 501.504355 51.533305 
L 502.137547 53.126557 
L 502.770738 53.539025 
L 503.40393 60.765583 
L 504.037121 63.55613 
L 504.037121 63.55613 
" style="fill: none; stroke: #b38665; stroke-width: 2; stroke-linecap: square"/>
   </g>
   <g id="line2d_15">
    <path d="M 98.794568 245.77425 
L 98.794568 12.92625 
" clip-path="url(#p13de08d80b)" style="fill: none; stroke-dasharray: 3.7,1.6; stroke-dashoffset: 0; stroke: #808080; stroke-opacity: 0.3"/>
   </g>
   <g id="line2d_16">
    <path d="M 139.318823 245.77425 
L 139.318823 12.92625 
" clip-path="url(#p13de08d80b)" style="fill: none; stroke-dasharray: 3.7,1.6; stroke-dashoffset: 0; stroke: #808080; stroke-opacity: 0.3"/>
   </g>
   <g id="line2d_17">
    <path d="M 179.843078 245.77425 
L 179.843078 12.92625 
" clip-path="url(#p13de08d80b)" style="fill: none; stroke-dasharray: 3.7,1.6; stroke-dashoffset: 0; stroke: #808080; stroke-opacity: 0.3"/>
   </g>
   <g id="line2d_18">
    <path d="M 220.367334 245.77425 
L 220.367334 12.92625 
" clip-path="url(#p13de08d80b)" style="fill: none; stroke-dasharray: 3.7,1.6; stroke-dashoffset: 0; stroke: #808080; stroke-opacity: 0.3"/>
   </g>
   <g id="line2d_19">
    <path d="M 260.891589 245.77425 
L 260.891589 12.92625 
" clip-path="url(#p13de08d80b)" style="fill: none; stroke-dasharray: 3.7,1.6; stroke-dashoffset: 0; stroke: #808080; stroke-opacity: 0.3"/>
   </g>
   <g id="line2d_20">
    <path d="M 301.415844 245.77425 
L 301.415844 12.92625 
" clip-path="url(#p13de08d80b)" style="fill: none; stroke-dasharray: 3.7,1.6; stroke-dashoffset: 0; stroke: #808080; stroke-opacity: 0.3"/>
   </g>
   <g id="line2d_21">
    <path d="M 341.9401 245.77425 
L 341.9401 12.92625 
" clip-path="url(#p13de08d80b)" style="fill: none; stroke-dasharray: 3.7,1.6; stroke-dashoffset: 0; stroke: #808080; stroke-opacity: 0.3"/>
   </g>
   <g id="line2d_22">
    <path d="M 382.464355 245.77425 
L 382.464355 12.92625 
" clip-path="url(#p13de08d80b)" style="fill: none; stroke-dasharray: 3.7,1.6; stroke-dashoffset: 0; stroke: #808080; stroke-opacity: 0.3"/>
   </g>
   <g id="line2d_23">
    <path d="M 422.98861 245.77425 
L 422.98861 12.92625 
" clip-path="url(#p13de08d80b)" style="fill: none; stroke-dasharray: 3.7,1.6; stroke-dashoffset: 0; stroke: #808080; stroke-opacity: 0.3"/>
   </g>
   <g id="line2d_24">
    <path d="M 463.512866 245.77425 
L 463.512866 12.92625 
" clip-path="url(#p13de08d80b)" style="fill: none; stroke-dasharray: 3.7,1.6; stroke-dashoffset: 0; stroke: #808080; stroke-opacity: 0.3"/>
   </g>
   <g id="line2d_25">
    <path d="M 504.037121 245.77425 
L 504.037121 12.92625 
" clip-path="url(#p13de08d80b)" style="fill: none; stroke-dasharray: 3.7,1.6; stroke-dashoffset: 0; stroke: #808080; stroke-opacity: 0.3"/>
   </g>
   <g id="patch_3">
    <path d="M 58.270313 245.77425 
L 58.270313 12.92625 
" style="fill: none; stroke: #000000; stroke-width: 2; stroke-linejoin: miter; stroke-linecap: square"/>
   </g>
   <g id="patch_4">
    <path d="M 58.270313 245.77425 
L 504.670312 245.77425 
" style="fill: none; stroke: #000000; stroke-width: 2; stroke-linejoin: miter; stroke-linecap: square"/>
   </g>
   <g id="text_15">
    <!-- S20 -->
    <g transform="translate(76.253938 36.89301) scale(0.2 -0.2)">
     <defs>
      <path id="ArialMT-53" d="M 288 1472 
L 859 1522 
Q 900 1178 1048 958 
Q 1197 738 1509 602 
Q 1822 466 2213 466 
Q 2559 466 2825 569 
Q 3091 672 3220 851 
Q 3350 1031 3350 1244 
Q 3350 1459 3225 1620 
Q 3100 1781 2813 1891 
Q 2628 1963 1997 2114 
Q 1366 2266 1113 2400 
Q 784 2572 623 2826 
Q 463 3081 463 3397 
Q 463 3744 659 4045 
Q 856 4347 1234 4503 
Q 1613 4659 2075 4659 
Q 2584 4659 2973 4495 
Q 3363 4331 3572 4012 
Q 3781 3694 3797 3291 
L 3216 3247 
Q 3169 3681 2898 3903 
Q 2628 4125 2100 4125 
Q 1550 4125 1298 3923 
Q 1047 3722 1047 3438 
Q 1047 3191 1225 3031 
Q 1400 2872 2139 2705 
Q 2878 2538 3153 2413 
Q 3553 2228 3743 1945 
Q 3934 1663 3934 1294 
Q 3934 928 3725 604 
Q 3516 281 3123 101 
Q 2731 -78 2241 -78 
Q 1619 -78 1198 103 
Q 778 284 539 648 
Q 300 1013 288 1472 
z
" transform="scale(0.015625)"/>
     </defs>
     <use xlink:href="#ArialMT-53"/>
     <use xlink:href="#ArialMT-32" x="66.699219"/>
     <use xlink:href="#ArialMT-30" x="122.314453"/>
    </g>
   </g>
   <g id="legend_1">
    <g id="patch_5">
     <path d="M 448.210312 230.355787 
L 544.561875 230.355787 
Q 547.561875 230.355787 547.561875 227.355787 
L 547.561875 186.41985 
Q 547.561875 183.41985 544.561875 183.41985 
L 448.210312 183.41985 
Q 445.210312 183.41985 445.210312 186.41985 
L 445.210312 227.355787 
Q 445.210312 230.355787 448.210312 230.355787 
L 448.210312 230.355787 
z
" style="fill: none; opacity: 0"/>
    </g>
    <g id="line2d_26">
     <path d="M 451.210312 194.906569 
L 466.210312 194.906569 
L 481.210312 194.906569 
" style="fill: none; stroke: #a6a6a6; stroke-width: 2; stroke-linecap: square"/>
    </g>
    <g id="text_16">
     <!-- Human -->
     <g transform="translate(493.210312 200.156569) scale(0.15 -0.15)">
      <defs>
       <path id="ArialMT-48" d="M 513 0 
L 513 4581 
L 1119 4581 
L 1119 2700 
L 3500 2700 
L 3500 4581 
L 4106 4581 
L 4106 0 
L 3500 0 
L 3500 2159 
L 1119 2159 
L 1119 0 
L 513 0 
z
" transform="scale(0.015625)"/>
       <path id="ArialMT-75" d="M 2597 0 
L 2597 488 
Q 2209 -75 1544 -75 
Q 1250 -75 995 37 
Q 741 150 617 320 
Q 494 491 444 738 
Q 409 903 409 1263 
L 409 3319 
L 972 3319 
L 972 1478 
Q 972 1038 1006 884 
Q 1059 663 1231 536 
Q 1403 409 1656 409 
Q 1909 409 2131 539 
Q 2353 669 2445 892 
Q 2538 1116 2538 1541 
L 2538 3319 
L 3100 3319 
L 3100 0 
L 2597 0 
z
" transform="scale(0.015625)"/>
      </defs>
      <use xlink:href="#ArialMT-48"/>
      <use xlink:href="#ArialMT-75" x="72.216797"/>
      <use xlink:href="#ArialMT-6d" x="127.832031"/>
      <use xlink:href="#ArialMT-61" x="211.132812"/>
      <use xlink:href="#ArialMT-6e" x="266.748047"/>
     </g>
    </g>
    <g id="line2d_27">
     <path d="M 451.210312 216.124537 
L 466.210312 216.124537 
L 481.210312 216.124537 
" style="fill: none; stroke: #b38665; stroke-width: 2; stroke-linecap: square"/>
    </g>
    <g id="text_17">
     <!-- PMH -->
     <g transform="translate(493.210312 221.374537) scale(0.15 -0.15)">
      <defs>
       <path id="ArialMT-50" d="M 494 0 
L 494 4581 
L 2222 4581 
Q 2678 4581 2919 4538 
Q 3256 4481 3484 4323 
Q 3713 4166 3852 3881 
Q 3991 3597 3991 3256 
Q 3991 2672 3619 2267 
Q 3247 1863 2275 1863 
L 1100 1863 
L 1100 0 
L 494 0 
z
M 1100 2403 
L 2284 2403 
Q 2872 2403 3119 2622 
Q 3366 2841 3366 3238 
Q 3366 3525 3220 3729 
Q 3075 3934 2838 4000 
Q 2684 4041 2272 4041 
L 1100 4041 
L 1100 2403 
z
" transform="scale(0.015625)"/>
       <path id="ArialMT-4d" d="M 475 0 
L 475 4581 
L 1388 4581 
L 2472 1338 
Q 2622 884 2691 659 
Q 2769 909 2934 1394 
L 4031 4581 
L 4847 4581 
L 4847 0 
L 4263 0 
L 4263 3834 
L 2931 0 
L 2384 0 
L 1059 3900 
L 1059 0 
L 475 0 
z
" transform="scale(0.015625)"/>
      </defs>
      <use xlink:href="#ArialMT-50"/>
      <use xlink:href="#ArialMT-4d" x="66.699219"/>
      <use xlink:href="#ArialMT-48" x="150"/>
     </g>
    </g>
   </g>
  </g>
 </g>
 <defs>
  <clipPath id="p13de08d80b">
   <rect x="58.270313" y="12.92625" width="446.4" height="232.848"/>
  </clipPath>
 </defs>
</svg>
