<?xml version="1.0" encoding="utf-8" standalone="no"?>
<!DOCTYPE svg PUBLIC "-//W3C//DTD SVG 1.1//EN"
  "http://www.w3.org/Graphics/SVG/1.1/DTD/svg11.dtd">
<svg xmlns:xlink="http://www.w3.org/1999/xlink" width="554.761875pt" height="295.982844pt" viewBox="0 0 554.761875 295.982844" xmlns="http://www.w3.org/2000/svg" version="1.1">
 <metadata>
  <rdf:RDF xmlns:dc="http://purl.org/dc/elements/1.1/" xmlns:cc="http://creativecommons.org/ns#" xmlns:rdf="http://www.w3.org/1999/02/22-rdf-syntax-ns#">
   <cc:Work>
    <dc:type rdf:resource="http://purl.org/dc/dcmitype/StillImage"/>
    <dc:date>2025-05-15T10:24:39.478015</dc:date>
    <dc:format>image/svg+xml</dc:format>
    <dc:creator>
     <cc:Agent>
      <dc:title>Matplotlib v3.8.4, https://matplotlib.org/</dc:title>
     </cc:Agent>
    </dc:creator>
   </cc:Work>
  </rdf:RDF>
 </metadata>
 <defs>
  <style type="text/css">*{stroke-linejoin: round; stroke-linecap: butt}</style>
 </defs>
 <g id="figure_1">
  <g id="patch_1">
   <path d="M 0 295.982844 
L 554.761875 295.982844 
L 554.761875 -0 
L 0 -0 
L 0 295.982844 
z
" style="fill: none"/>
  </g>
  <g id="axes_1">
   <g id="patch_2">
    <path d="M 58.270313 245.77425 
L 504.670312 245.77425 
L 504.670312 12.92625 
L 58.270313 12.92625 
L 58.270313 245.77425 
z
" style="fill: none"/>
   </g>
   <g id="PolyCollection_1">
    <defs>
     <path id="mf77a3ed089" d="M 69.430313 -167.416015 
L 69.430313 -117.643931 
L 70.127813 -117.561334 
L 70.825313 -121.829955 
L 71.522813 -122.525591 
L 72.220313 -114.983476 
L 72.917813 -109.23711 
L 73.615313 -115.926283 
L 74.312813 -114.36382 
L 75.010313 -113.53922 
L 75.707813 -117.344988 
L 76.405313 -115.114299 
L 77.102813 -114.769893 
L 77.800313 -113.255009 
L 78.497813 -111.599348 
L 79.195313 -113.059126 
L 79.892813 -108.120855 
L 80.590313 -98.675585 
L 81.287813 -97.594907 
L 81.985313 -94.750637 
L 82.682813 -94.018986 
L 83.380313 -97.114925 
L 84.077813 -93.728986 
L 84.775313 -85.059013 
L 85.472813 -84.435561 
L 86.170313 -86.777612 
L 86.867813 -83.757818 
L 87.565313 -90.042876 
L 88.262813 -93.033076 
L 88.960313 -98.221874 
L 89.657813 -96.199854 
L 90.355313 -98.464139 
L 91.052813 -101.013763 
L 91.750313 -104.539502 
L 92.447813 -109.369598 
L 93.145313 -111.835041 
L 93.842813 -114.880494 
L 94.540313 -114.097096 
L 95.237813 -113.777477 
L 95.935313 -115.427767 
L 96.632812 -114.076536 
L 97.330313 -111.478275 
L 98.027813 -109.944466 
L 98.725313 -107.251177 
L 99.422813 -113.714185 
L 100.120313 -114.257798 
L 100.817813 -116.806193 
L 101.515313 -113.32068 
L 102.212813 -109.828707 
L 102.910313 -110.989338 
L 103.607813 -107.844491 
L 104.305313 -109.811763 
L 105.002813 -106.37661 
L 105.700313 -110.676258 
L 106.397813 -109.909083 
L 107.095313 -107.703644 
L 107.792813 -107.171488 
L 108.490313 -108.103641 
L 109.187813 -109.665283 
L 109.885313 -112.923594 
L 110.582813 -102.624911 
L 111.280313 -98.641379 
L 111.977813 -96.491473 
L 112.675313 -98.523453 
L 113.372813 -95.790701 
L 114.070312 -95.618935 
L 114.767813 -92.589573 
L 115.465313 -87.770685 
L 116.162813 -89.721754 
L 116.860313 -86.050179 
L 117.557813 -95.636074 
L 118.255313 -103.138127 
L 118.952813 -108.467559 
L 119.650313 -110.382814 
L 120.347813 -110.312997 
L 121.045313 -112.357006 
L 121.742813 -115.2075 
L 122.440313 -116.217039 
L 123.137813 -125.051699 
L 123.835313 -129.382383 
L 124.532813 -131.707199 
L 125.230313 -130.189516 
L 125.927813 -131.22749 
L 126.625313 -132.705015 
L 127.322812 -134.546538 
L 128.020313 -134.05651 
L 128.717813 -126.490083 
L 129.415312 -122.936647 
L 130.112813 -122.596037 
L 130.810313 -126.343115 
L 131.507812 -124.009101 
L 132.205313 -120.482383 
L 132.902813 -121.355501 
L 133.600313 -127.252178 
L 134.297813 -125.873764 
L 134.995313 -121.897935 
L 135.692813 -123.838722 
L 136.390313 -129.732783 
L 137.087813 -134.867397 
L 137.785313 -135.673785 
L 138.482813 -141.616131 
L 139.180313 -144.821434 
L 139.877813 -150.229719 
L 140.575313 -157.175623 
L 141.272813 -150.217453 
L 141.970313 -150.28474 
L 142.667813 -152.208169 
L 143.365313 -156.421211 
L 144.062813 -154.374717 
L 144.760312 -154.821877 
L 145.457813 -157.918391 
L 146.155313 -158.497052 
L 146.852812 -166.30462 
L 147.550313 -167.177956 
L 148.247813 -167.364192 
L 148.945312 -176.440815 
L 149.642813 -171.517292 
L 150.340313 -177.815943 
L 151.037813 -180.227849 
L 151.735313 -179.223186 
L 152.432813 -190.194883 
L 153.130313 -185.509606 
L 153.827813 -185.502469 
L 154.525313 -182.017031 
L 155.222813 -191.351961 
L 155.920313 -194.0704 
L 156.617813 -194.40703 
L 157.315313 -195.035727 
L 158.012813 -195.464277 
L 158.710313 -184.582537 
L 159.407813 -181.0053 
L 160.105313 -178.192802 
L 160.802813 -178.243459 
L 161.500313 -177.944965 
L 162.197812 -179.461565 
L 162.895313 -177.690762 
L 163.592813 -167.090905 
L 164.290312 -168.254615 
L 164.987813 -167.39432 
L 165.685313 -163.459097 
L 166.382812 -155.817981 
L 167.080313 -155.66259 
L 167.777813 -150.415205 
L 168.475313 -152.723056 
L 169.172813 -147.863683 
L 169.870313 -150.628686 
L 170.567813 -158.557994 
L 171.265313 -149.32025 
L 171.962813 -152.80503 
L 172.660313 -143.482957 
L 173.357813 -133.027277 
L 174.055313 -135.442729 
L 174.752813 -144.728056 
L 175.450313 -144.901787 
L 176.147813 -148.883195 
L 176.845313 -155.323062 
L 177.542813 -162.99366 
L 178.240313 -154.76109 
L 178.937813 -152.676284 
L 179.635312 -153.378355 
L 180.332813 -147.146436 
L 181.030313 -146.939284 
L 181.727812 -144.372695 
L 182.425313 -149.703052 
L 183.122813 -146.81952 
L 183.820312 -148.082804 
L 184.517813 -158.420328 
L 185.215313 -159.923775 
L 185.912813 -160.482192 
L 186.610313 -168.620807 
L 187.307813 -166.233329 
L 188.005313 -159.681428 
L 188.702813 -150.180587 
L 189.400313 -148.766989 
L 190.097813 -148.83365 
L 190.795313 -142.820647 
L 191.492813 -146.207403 
L 192.190313 -150.830995 
L 192.887813 -144.26798 
L 193.585313 -139.845322 
L 194.282813 -138.082738 
L 194.980313 -143.45142 
L 195.677813 -135.638687 
L 196.375313 -130.451193 
L 197.072813 -125.374729 
L 197.770313 -120.055119 
L 198.467813 -118.689785 
L 199.165313 -124.594092 
L 199.862813 -131.2314 
L 200.560313 -132.486822 
L 201.257813 -131.198264 
L 201.955313 -136.311367 
L 202.652813 -134.808202 
L 203.350313 -133.113758 
L 204.047813 -134.471016 
L 204.745313 -144.863926 
L 205.442813 -148.41672 
L 206.140313 -144.120552 
L 206.837813 -144.057219 
L 207.535313 -142.157255 
L 208.232813 -148.55393 
L 208.930313 -148.164047 
L 209.627813 -155.477717 
L 210.325313 -159.271147 
L 211.022813 -158.477327 
L 211.720313 -166.135169 
L 212.417813 -171.648286 
L 213.115313 -177.566937 
L 213.812813 -180.089063 
L 214.510313 -181.623802 
L 215.207813 -186.644888 
L 215.905313 -176.681903 
L 216.602813 -168.747438 
L 217.300313 -170.380089 
L 217.997813 -168.080989 
L 218.695313 -165.260422 
L 219.392813 -159.264512 
L 220.090313 -159.542758 
L 220.787813 -155.670408 
L 221.485313 -152.335771 
L 222.182813 -151.142428 
L 222.880313 -143.162915 
L 223.577813 -144.232655 
L 224.275313 -131.594343 
L 224.972813 -129.791547 
L 225.670313 -124.831534 
L 226.367813 -120.707923 
L 227.065313 -125.678606 
L 227.762813 -129.125234 
L 228.460313 -128.789357 
L 229.157813 -133.913377 
L 229.855313 -143.942794 
L 230.552813 -148.442042 
L 231.250313 -152.742556 
L 231.947813 -156.703713 
L 232.645313 -152.100289 
L 233.342813 -148.231938 
L 234.040313 -158.050244 
L 234.737813 -160.762037 
L 235.435313 -172.902066 
L 236.132813 -169.165267 
L 236.830313 -172.707646 
L 237.527813 -171.041918 
L 238.225313 -168.603279 
L 238.922813 -167.330944 
L 239.620313 -166.627351 
L 240.317813 -163.424811 
L 241.015313 -154.312425 
L 241.712813 -149.407099 
L 242.410313 -142.974734 
L 243.107813 -139.44009 
L 243.805313 -141.668882 
L 244.502813 -140.279498 
L 245.200313 -128.873024 
L 245.897813 -119.175803 
L 246.595313 -111.313564 
L 247.292813 -110.958382 
L 247.990313 -109.606703 
L 248.687813 -111.247712 
L 249.385313 -107.77986 
L 250.082813 -112.293656 
L 250.780313 -112.37539 
L 251.477813 -113.863851 
L 252.175313 -115.07007 
L 252.872813 -110.279134 
L 253.570313 -115.89567 
L 254.267813 -115.902946 
L 254.965313 -110.854873 
L 255.662813 -111.776438 
L 256.360313 -119.53106 
L 257.057813 -129.463864 
L 257.755313 -131.989279 
L 258.452812 -138.392968 
L 259.150312 -134.515614 
L 259.847813 -132.368965 
L 260.545313 -136.18513 
L 261.242813 -140.706604 
L 261.940313 -147.512891 
L 262.637812 -149.82075 
L 263.335312 -147.156846 
L 264.032812 -151.4033 
L 264.730313 -152.405415 
L 265.427813 -157.676023 
L 266.125313 -157.37301 
L 266.822812 -157.945547 
L 267.520312 -153.680977 
L 268.217812 -144.60403 
L 268.915313 -140.450191 
L 269.612813 -140.506511 
L 270.310313 -141.400131 
L 271.007812 -142.558963 
L 271.705312 -139.461387 
L 272.402812 -130.53683 
L 273.100313 -123.948789 
L 273.797813 -128.510483 
L 274.495313 -129.996227 
L 275.192813 -126.95641 
L 275.890312 -118.763532 
L 276.587812 -114.157385 
L 277.285313 -124.952371 
L 277.982813 -125.948584 
L 278.680313 -130.336786 
L 279.377813 -138.040051 
L 280.075312 -134.465102 
L 280.772812 -130.447948 
L 281.470312 -133.736846 
L 282.167813 -138.437592 
L 282.865313 -139.648046 
L 283.562813 -138.776186 
L 284.260312 -138.446082 
L 284.957812 -133.127015 
L 285.655312 -133.76837 
L 286.352813 -136.564284 
L 287.050313 -139.405157 
L 287.747813 -145.164977 
L 288.445312 -141.50424 
L 289.142812 -140.957294 
L 289.840312 -139.013822 
L 290.537813 -139.868229 
L 291.235313 -145.643938 
L 291.932813 -156.498931 
L 292.630313 -164.476306 
L 293.327812 -168.823462 
L 294.025312 -179.668604 
L 294.722813 -184.502235 
L 295.420313 -189.723697 
L 296.117813 -186.729496 
L 296.815313 -186.866577 
L 297.512812 -186.864472 
L 298.210312 -187.525951 
L 298.907813 -186.444153 
L 299.605313 -190.44631 
L 300.302813 -198.862347 
L 301.000313 -192.757882 
L 301.697812 -192.98007 
L 302.395312 -197.984109 
L 303.092812 -190.613195 
L 303.790313 -180.108116 
L 304.487813 -172.148516 
L 305.185313 -166.981761 
L 305.882812 -165.066225 
L 306.580312 -155.510106 
L 307.277812 -154.469844 
L 307.975313 -155.196687 
L 308.672813 -153.78652 
L 309.370313 -151.341837 
L 310.067813 -142.077847 
L 310.765312 -132.77859 
L 311.462812 -124.65332 
L 312.160313 -128.448481 
L 312.857813 -121.527072 
L 313.555313 -118.844766 
L 314.252813 -120.501182 
L 314.950312 -120.978152 
L 315.647812 -121.026621 
L 316.345312 -113.494431 
L 317.042812 -111.016536 
L 317.740313 -110.663544 
L 318.437813 -117.436558 
L 319.135312 -124.283334 
L 319.832812 -129.155867 
L 320.530312 -131.62654 
L 321.227812 -141.514098 
L 321.925313 -142.593147 
L 322.622813 -150.977327 
L 323.320312 -157.568774 
L 324.017812 -154.235691 
L 324.715312 -150.889541 
L 325.412812 -153.241163 
L 326.110313 -150.28836 
L 326.807813 -149.13924 
L 327.505313 -151.116886 
L 328.202812 -161.72454 
L 328.900312 -173.500946 
L 329.597812 -171.703719 
L 330.295312 -172.641346 
L 330.992813 -177.353525 
L 331.690313 -182.491572 
L 332.387812 -183.456112 
L 333.085312 -193.479574 
L 333.782812 -194.392424 
L 334.480312 -193.01023 
L 335.177813 -204.399317 
L 335.875313 -200.941324 
L 336.572812 -195.692607 
L 337.270312 -205.542592 
L 337.967812 -215.103361 
L 338.665312 -212.193939 
L 339.362813 -212.46612 
L 340.060313 -212.744268 
L 340.757812 -211.027723 
L 341.455312 -208.925329 
L 342.152812 -199.359908 
L 342.850312 -197.350928 
L 343.547813 -187.836981 
L 344.245313 -176.670764 
L 344.942813 -166.843164 
L 345.640312 -156.817675 
L 346.337812 -148.198611 
L 347.035312 -148.958133 
L 347.732812 -154.336447 
L 348.430313 -152.503905 
L 349.127813 -152.445709 
L 349.825312 -166.485962 
L 350.522812 -156.466063 
L 351.220312 -146.47096 
L 351.917812 -144.606295 
L 352.615313 -135.994569 
L 353.312813 -134.073297 
L 354.010312 -136.617906 
L 354.707812 -138.972789 
L 355.405312 -145.709404 
L 356.102812 -151.647625 
L 356.800313 -162.098288 
L 357.497813 -167.365876 
L 358.195312 -177.12447 
L 358.892812 -172.803686 
L 359.590312 -170.032673 
L 360.287812 -160.440944 
L 360.985313 -154.710769 
L 361.682813 -164.080128 
L 362.380313 -171.602147 
L 363.077812 -180.807338 
L 363.775312 -184.89623 
L 364.472812 -183.880083 
L 365.170312 -182.118303 
L 365.867813 -189.491856 
L 366.565313 -193.277143 
L 367.262812 -185.730713 
L 367.960312 -181.06964 
L 368.657812 -182.643549 
L 369.355312 -185.255431 
L 370.052813 -192.415336 
L 370.750313 -192.732503 
L 371.447812 -199.240996 
L 372.145312 -197.896874 
L 372.842812 -198.103595 
L 373.540312 -200.700608 
L 374.237813 -192.722439 
L 374.935313 -199.608688 
L 375.632812 -203.135895 
L 376.330312 -194.112978 
L 377.027812 -193.020082 
L 377.725312 -180.412274 
L 378.422813 -182.152303 
L 379.120313 -180.405701 
L 379.817813 -172.14216 
L 380.515312 -163.372394 
L 381.212812 -152.931507 
L 381.910312 -150.65775 
L 382.607812 -145.876765 
L 383.305313 -148.962444 
L 384.002813 -139.647889 
L 384.700312 -135.941177 
L 385.397812 -138.592301 
L 386.095312 -131.811635 
L 386.792812 -134.582603 
L 387.490313 -139.641367 
L 388.187813 -129.783944 
L 388.885312 -136.298381 
L 389.582812 -135.65429 
L 390.280312 -132.554734 
L 390.977812 -129.799792 
L 391.675313 -128.916353 
L 392.372813 -130.779924 
L 393.070312 -135.560681 
L 393.767812 -130.768606 
L 394.465312 -130.158696 
L 395.162812 -132.306138 
L 395.860313 -129.146387 
L 396.557813 -133.215377 
L 397.255313 -140.153438 
L 397.952812 -138.896102 
L 398.650312 -142.353395 
L 399.347812 -147.109351 
L 400.045312 -153.56695 
L 400.742813 -162.247455 
L 401.440313 -174.398636 
L 402.137812 -187.009733 
L 402.835312 -193.856888 
L 403.532812 -202.413762 
L 404.230312 -206.813909 
L 404.927813 -219.574101 
L 405.625313 -224.436884 
L 406.322812 -233.208315 
L 407.020312 -241.210657 
L 407.717812 -240.980033 
L 408.415312 -241.869496 
L 409.112813 -245.909984 
L 409.810313 -241.833304 
L 410.507812 -235.777581 
L 411.205312 -228.236913 
L 411.902812 -229.230952 
L 412.600312 -229.02119 
L 413.297813 -228.140311 
L 413.995313 -228.221347 
L 414.692813 -228.696499 
L 415.390312 -229.18127 
L 416.087812 -230.421825 
L 416.785312 -216.634271 
L 417.482812 -212.177726 
L 418.180313 -211.398033 
L 418.877813 -201.319857 
L 419.575312 -194.632131 
L 420.272812 -187.454937 
L 420.970312 -182.389012 
L 421.667812 -185.872817 
L 422.365313 -192.969646 
L 423.062813 -192.526212 
L 423.760312 -190.997323 
L 424.457812 -191.778657 
L 425.155312 -183.541608 
L 425.852812 -182.648835 
L 426.550313 -177.409112 
L 427.247813 -176.984785 
L 427.945312 -189.309342 
L 428.642812 -185.425553 
L 429.340312 -182.191287 
L 430.037812 -194.150196 
L 430.735313 -199.4542 
L 431.432813 -205.50359 
L 432.130313 -211.886451 
L 432.827812 -217.62354 
L 433.525312 -208.429763 
L 434.222812 -199.357486 
L 434.920312 -189.269291 
L 435.617813 -180.385734 
L 436.315313 -190.726356 
L 437.012812 -191.111578 
L 437.710312 -196.053601 
L 438.407812 -188.587887 
L 439.105312 -185.753911 
L 439.802813 -193.743486 
L 440.500313 -193.866605 
L 441.197812 -187.966363 
L 441.895312 -177.269094 
L 442.592812 -174.497431 
L 443.290312 -178.290227 
L 443.987813 -180.481902 
L 444.685313 -177.519262 
L 445.382812 -187.959036 
L 446.080312 -194.733017 
L 446.777812 -202.751193 
L 447.475312 -201.224294 
L 448.172813 -201.839198 
L 448.870313 -201.763315 
L 449.567813 -209.43094 
L 450.265312 -214.005887 
L 450.962812 -210.068419 
L 451.660312 -214.654028 
L 452.357812 -220.096326 
L 453.055313 -232.287377 
L 453.752813 -230.71426 
L 454.450312 -230.212546 
L 455.147812 -229.349777 
L 455.845312 -242.080725 
L 456.542812 -240.501014 
L 457.240313 -243.581527 
L 457.937813 -244.998398 
L 458.635312 -246.588342 
L 459.332812 -245.203362 
L 460.030312 -232.343289 
L 460.727812 -223.87631 
L 461.425313 -221.947754 
L 462.122813 -225.436999 
L 462.820312 -214.189306 
L 463.517812 -210.962807 
L 464.215312 -198.474189 
L 464.912812 -206.165883 
L 465.610313 -206.52176 
L 466.307813 -207.745031 
L 467.005313 -202.500085 
L 467.702812 -199.366746 
L 468.400312 -201.333871 
L 469.097812 -201.097493 
L 469.795312 -201.481225 
L 470.492813 -202.591159 
L 471.190313 -216.202055 
L 471.887812 -219.863964 
L 472.585312 -221.800586 
L 473.282812 -222.333572 
L 473.980312 -230.402262 
L 474.677813 -234.698839 
L 475.375313 -247.462162 
L 476.072812 -236.259482 
L 476.770312 -237.777968 
L 477.467812 -235.462463 
L 478.165312 -241.258075 
L 478.862813 -241.358637 
L 479.560313 -241.537549 
L 480.257812 -238.776179 
L 480.955312 -233.666912 
L 481.652812 -229.654786 
L 482.350312 -229.554356 
L 483.047813 -230.12446 
L 483.745313 -229.923257 
L 484.442813 -223.987459 
L 485.140312 -221.598365 
L 485.837812 -216.492101 
L 486.535312 -216.305582 
L 487.232812 -226.424775 
L 487.930313 -226.950972 
L 488.627813 -229.639543 
L 489.325312 -229.54987 
L 490.022812 -226.375642 
L 490.720312 -226.342417 
L 491.417812 -228.207113 
L 492.115313 -233.33946 
L 492.812813 -237.402354 
L 493.510312 -235.550007 
L 494.207812 -232.244127 
L 494.905312 -231.766659 
L 495.602812 -237.867167 
L 496.300313 -237.782366 
L 496.997813 -231.902932 
L 497.695312 -231.6023 
L 498.392812 -234.669646 
L 499.090312 -226.064499 
L 499.787812 -226.492534 
L 500.485313 -214.437892 
L 501.182813 -218.198128 
L 501.880313 -217.230064 
L 502.577812 -210.226074 
L 503.275312 -209.224224 
L 503.972812 -205.788492 
L 503.972812 -245.003241 
L 503.972812 -245.003241 
L 503.275312 -248.529313 
L 502.577812 -249.017062 
L 501.880313 -253.820965 
L 501.182813 -254.263167 
L 500.485313 -251.395385 
L 499.787812 -261.696252 
L 499.090312 -261.510721 
L 498.392812 -267.060462 
L 497.695312 -265.598697 
L 496.997813 -265.72419 
L 496.300313 -271.387392 
L 495.602812 -271.447547 
L 494.905312 -267.991205 
L 494.207812 -268.204277 
L 493.510312 -270.800821 
L 492.812813 -271.647213 
L 492.115313 -269.548063 
L 491.417812 -266.617777 
L 490.720312 -265.604402 
L 490.022812 -265.619906 
L 489.325312 -268.142638 
L 488.627813 -268.184363 
L 487.930313 -266.723011 
L 487.232812 -266.470256 
L 486.535312 -255.918976 
L 485.837812 -256.006527 
L 485.140312 -258.934205 
L 484.442813 -260.493599 
L 483.745313 -263.89849 
L 483.047813 -263.980311 
L 482.350312 -263.599415 
L 481.652812 -263.640185 
L 480.955312 -265.625352 
L 480.257812 -268.221862 
L 479.560313 -269.352628 
L 478.862813 -269.294373 
L 478.165312 -269.235088 
L 477.467812 -266.333525 
L 476.770312 -267.397982 
L 476.072812 -266.773761 
L 475.375313 -277.957722 
L 474.677813 -267.177355 
L 473.980312 -265.033628 
L 473.282812 -257.886087 
L 472.585312 -257.650814 
L 471.887812 -256.735512 
L 471.190313 -253.600872 
L 470.492813 -240.877799 
L 469.795312 -240.337599 
L 469.097812 -240.152249 
L 468.400312 -240.26298 
L 467.702812 -239.247423 
L 467.005313 -241.143961 
L 466.307813 -244.250968 
L 465.610313 -243.627785 
L 464.912812 -243.436694 
L 464.215312 -237.309965 
L 463.517812 -248.214248 
L 462.820312 -249.999799 
L 462.122813 -258.666704 
L 461.425313 -256.85733 
L 460.727812 -257.727889 
L 460.030312 -263.356609 
L 459.332812 -275.653877 
L 458.635312 -276.181899 
L 457.937813 -275.508181 
L 457.240313 -274.943169 
L 456.542812 -273.173725 
L 455.845312 -273.830755 
L 455.147812 -262.368059 
L 454.450312 -262.777785 
L 453.752813 -263.020203 
L 453.055313 -264.691332 
L 452.357812 -254.582678 
L 451.660312 -251.266436 
L 450.962812 -248.736323 
L 450.265312 -250.873914 
L 449.567813 -248.33414 
L 448.870313 -242.964496 
L 448.172813 -243.003281 
L 447.475312 -242.698708 
L 446.777812 -243.52654 
L 446.080312 -237.279786 
L 445.382812 -230.295384 
L 444.685313 -222.03258 
L 443.987813 -226.06704 
L 443.290312 -224.691805 
L 442.592812 -222.056594 
L 441.895312 -224.473566 
L 441.197812 -234.212397 
L 440.500313 -238.126617 
L 439.802813 -238.037976 
L 439.105312 -232.274758 
L 438.407812 -234.128632 
L 437.710312 -239.567565 
L 437.012812 -236.337471 
L 436.315313 -236.125927 
L 435.617813 -227.372312 
L 434.920312 -234.231363 
L 434.222812 -243.408619 
L 433.525312 -250.943476 
L 432.827812 -258.221306 
L 432.130313 -253.374435 
L 431.432813 -246.558983 
L 430.735313 -240.434277 
L 430.037812 -236.824986 
L 429.340312 -226.334745 
L 428.642812 -228.386164 
L 427.945312 -231.600042 
L 427.247813 -218.975371 
L 426.550313 -219.189786 
L 425.852812 -222.456495 
L 425.155312 -222.893788 
L 424.457812 -230.285198 
L 423.760312 -229.901288 
L 423.062813 -230.663832 
L 422.365313 -230.885974 
L 421.667812 -225.96464 
L 420.970312 -221.24645 
L 420.272812 -227.012939 
L 419.575312 -233.936406 
L 418.877813 -238.08455 
L 418.180313 -247.448942 
L 417.482812 -247.814496 
L 416.785312 -250.125802 
L 416.087812 -263.446593 
L 415.390312 -262.909024 
L 414.692813 -262.69865 
L 413.995313 -262.498201 
L 413.297813 -262.45335 
L 412.600312 -262.840815 
L 411.902812 -262.926505 
L 411.205312 -262.459361 
L 410.507812 -267.279778 
L 409.810313 -274.716722 
L 409.112813 -277.461377 
L 408.415312 -274.355333 
L 407.717812 -273.990702 
L 407.020312 -274.104088 
L 406.322812 -268.776746 
L 405.625313 -262.784851 
L 404.927813 -259.93489 
L 404.230312 -246.741099 
L 403.532812 -243.997117 
L 402.835312 -237.566358 
L 402.137812 -231.708572 
L 401.440313 -220.035458 
L 400.742813 -209.30828 
L 400.045312 -201.788987 
L 399.347812 -197.110128 
L 398.650312 -192.069799 
L 397.952812 -189.422405 
L 397.255313 -190.591923 
L 396.557813 -185.314595 
L 395.860313 -182.303286 
L 395.162812 -185.104639 
L 394.465312 -182.726438 
L 393.767812 -183.193689 
L 393.070312 -189.681292 
L 392.372813 -185.107304 
L 391.675313 -182.991646 
L 390.977812 -183.942652 
L 390.280312 -187.538173 
L 389.582812 -191.27259 
L 388.885312 -192.01617 
L 388.187813 -184.238093 
L 387.490313 -193.058821 
L 386.792812 -187.682587 
L 386.095312 -184.941087 
L 385.397812 -190.150853 
L 384.700312 -187.674249 
L 384.002813 -190.24045 
L 383.305313 -198.26375 
L 382.607812 -195.709583 
L 381.910312 -200.083055 
L 381.212812 -202.465111 
L 380.515312 -211.251759 
L 379.817813 -217.850958 
L 379.120313 -224.891185 
L 378.422813 -226.635805 
L 377.725312 -224.424985 
L 377.027812 -236.771007 
L 376.330312 -237.355855 
L 375.632812 -245.644703 
L 374.935313 -240.780052 
L 374.237813 -235.84115 
L 373.540312 -241.784251 
L 372.842812 -240.222767 
L 372.145312 -240.108993 
L 371.447812 -241.268644 
L 370.750313 -234.860953 
L 370.052813 -234.556563 
L 369.355312 -229.569026 
L 368.657812 -228.076734 
L 367.960312 -227.066166 
L 367.262812 -230.656899 
L 366.565313 -238.117868 
L 365.867813 -235.676594 
L 365.170312 -230.363203 
L 364.472812 -231.424431 
L 363.775312 -232.950843 
L 363.077812 -228.240528 
L 362.380313 -220.679478 
L 361.682813 -213.425304 
L 360.985313 -205.209857 
L 360.287812 -209.148717 
L 359.590312 -217.645718 
L 358.892812 -220.071278 
L 358.195312 -223.480293 
L 357.497813 -213.947224 
L 356.800313 -209.467847 
L 356.102812 -198.770377 
L 355.405312 -193.329315 
L 354.707812 -186.584156 
L 354.010312 -184.119159 
L 353.312813 -182.540081 
L 352.615313 -185.013522 
L 351.917812 -193.376662 
L 351.220312 -195.377332 
L 350.522812 -204.23061 
L 349.825312 -212.766275 
L 349.127813 -198.712031 
L 348.430313 -198.746243 
L 347.732812 -200.074793 
L 347.035312 -195.647841 
L 346.337812 -194.468069 
L 345.640312 -200.92952 
L 344.942813 -211.367644 
L 344.245313 -219.108611 
L 343.547813 -228.529996 
L 342.850312 -235.927796 
L 342.152812 -237.05381 
L 341.455312 -244.49469 
L 340.757812 -245.606425 
L 340.060313 -247.14877 
L 339.362813 -247.015551 
L 338.665312 -246.890639 
L 337.967812 -252.062304 
L 337.270312 -244.018009 
L 336.572812 -233.484553 
L 335.875313 -237.649572 
L 335.177813 -242.644811 
L 334.480312 -233.155584 
L 333.782812 -233.964278 
L 333.085312 -233.507782 
L 332.387812 -225.601525 
L 331.690313 -225.08115 
L 330.992813 -221.537393 
L 330.295312 -218.420385 
L 329.597812 -217.862432 
L 328.900312 -219.30133 
L 328.202812 -207.637913 
L 327.505313 -198.152355 
L 326.807813 -195.304739 
L 326.110313 -196.688479 
L 325.412812 -200.83802 
L 324.715312 -199.081735 
L 324.017812 -202.330769 
L 323.320312 -206.151575 
L 322.622813 -200.908422 
L 321.925313 -194.013595 
L 321.227812 -192.684981 
L 320.530312 -183.710594 
L 319.832812 -181.352164 
L 319.135312 -176.556669 
L 318.437813 -170.812647 
L 317.740313 -164.021072 
L 317.042812 -164.558136 
L 316.345312 -167.514385 
L 315.647812 -175.883125 
L 314.950312 -175.828904 
L 314.252813 -175.258442 
L 313.555313 -173.791387 
L 312.857813 -175.910867 
L 312.160313 -181.344561 
L 311.462812 -176.846751 
L 310.765312 -183.602425 
L 310.067813 -192.069151 
L 309.370313 -200.623259 
L 308.672813 -202.953044 
L 307.975313 -204.540867 
L 307.277812 -203.738557 
L 306.580312 -205.049089 
L 305.882812 -214.949791 
L 305.185313 -216.872854 
L 304.487813 -220.374915 
L 303.790313 -227.045661 
L 303.092812 -235.791171 
L 302.395312 -240.895726 
L 301.697812 -236.785314 
L 301.000313 -236.661469 
L 300.302813 -243.398374 
L 299.605313 -236.512565 
L 298.907813 -233.659428 
L 298.210312 -234.30844 
L 297.512812 -233.725362 
L 296.815313 -233.727599 
L 296.117813 -233.569434 
L 295.420313 -236.750079 
L 294.722813 -232.347462 
L 294.025312 -226.772084 
L 293.327812 -217.477133 
L 292.630313 -214.312324 
L 291.932813 -208.219181 
L 291.235313 -198.966522 
L 290.537813 -191.420977 
L 289.840312 -190.879506 
L 289.142812 -192.41947 
L 288.445312 -193.023301 
L 287.747813 -195.737694 
L 287.050313 -191.463989 
L 286.352813 -188.563125 
L 285.655312 -185.23756 
L 284.957812 -184.482347 
L 284.260312 -188.611248 
L 283.562813 -188.947234 
L 282.865313 -190.127419 
L 282.167813 -188.470968 
L 281.470312 -183.621027 
L 280.772812 -179.787003 
L 280.075312 -184.09135 
L 279.377813 -189.272253 
L 278.680313 -182.598667 
L 277.982813 -178.776277 
L 277.285313 -177.658823 
L 276.587812 -166.84836 
L 275.890312 -170.410477 
L 275.192813 -177.368041 
L 274.495313 -180.960126 
L 273.797813 -179.030281 
L 273.100313 -175.583975 
L 272.402812 -180.824736 
L 271.705312 -189.049099 
L 271.007812 -192.952095 
L 270.310313 -191.424058 
L 269.612813 -190.166415 
L 268.915313 -190.115285 
L 268.217812 -194.381173 
L 267.520312 -201.841672 
L 266.822812 -205.526613 
L 266.125313 -204.827813 
L 265.427813 -205.301614 
L 264.730313 -201.209861 
L 264.032812 -200.572985 
L 263.335312 -195.194237 
L 262.637812 -198.515584 
L 261.940313 -196.286082 
L 261.242813 -190.865321 
L 260.545313 -187.387736 
L 259.847813 -182.41867 
L 259.150312 -185.12621 
L 258.452812 -189.881761 
L 257.755313 -182.169504 
L 257.057813 -179.749982 
L 256.360313 -171.199924 
L 255.662813 -163.342166 
L 254.965313 -162.158313 
L 254.267813 -168.174533 
L 253.570313 -168.167633 
L 252.872813 -163.517072 
L 252.175313 -169.339372 
L 251.477813 -167.960823 
L 250.780313 -166.297085 
L 250.082813 -166.21354 
L 249.385313 -161.336016 
L 248.687813 -165.843436 
L 247.990313 -163.855488 
L 247.292813 -165.184257 
L 246.595313 -165.726484 
L 245.897813 -172.07647 
L 245.200313 -180.511517 
L 244.502813 -190.776945 
L 243.805313 -192.531624 
L 243.107813 -190.187065 
L 242.410313 -193.129351 
L 241.712813 -198.252617 
L 241.015313 -202.312626 
L 240.317813 -210.147908 
L 239.620313 -213.531406 
L 238.922813 -214.23411 
L 238.225313 -215.832224 
L 237.527813 -218.332686 
L 236.830313 -220.403524 
L 236.132813 -216.568724 
L 235.435313 -221.485865 
L 234.737813 -209.782511 
L 234.040313 -208.017417 
L 233.342813 -199.800239 
L 232.645313 -203.731538 
L 231.947813 -208.168768 
L 231.250313 -204.800603 
L 230.552813 -201.589594 
L 229.855313 -197.849018 
L 229.157813 -188.683404 
L 228.460313 -182.862361 
L 227.762813 -183.185294 
L 227.065313 -178.533414 
L 226.367813 -172.865462 
L 225.670313 -176.867138 
L 224.972813 -181.934865 
L 224.275313 -183.765684 
L 223.577813 -195.785386 
L 222.880313 -194.980117 
L 222.182813 -202.07217 
L 221.485313 -203.068316 
L 220.787813 -205.454872 
L 220.090313 -208.734769 
L 219.392813 -208.494603 
L 218.695313 -213.145927 
L 217.997813 -216.487556 
L 217.300313 -219.468875 
L 216.602813 -217.819547 
L 215.905313 -226.94736 
L 215.207813 -236.517837 
L 214.510313 -231.457011 
L 213.812813 -230.096649 
L 213.115313 -227.453745 
L 212.417813 -223.244849 
L 211.720313 -217.928196 
L 211.022813 -211.197297 
L 210.325313 -211.819458 
L 209.627813 -209.00813 
L 208.930313 -201.807798 
L 208.232813 -202.14709 
L 207.535313 -196.960946 
L 206.837813 -198.800832 
L 206.140313 -198.873054 
L 205.442813 -202.830991 
L 204.745313 -199.481551 
L 204.047813 -189.264985 
L 203.350313 -187.52239 
L 202.652813 -189.030484 
L 201.955313 -190.659687 
L 201.257813 -185.19821 
L 200.560313 -186.644013 
L 199.862813 -185.120169 
L 199.165313 -178.608186 
L 198.467813 -172.368353 
L 197.770313 -174.033374 
L 197.072813 -177.864372 
L 196.375313 -182.126413 
L 195.677813 -186.01713 
L 194.980313 -192.737827 
L 194.282813 -187.605788 
L 193.585313 -189.374042 
L 192.887813 -194.764052 
L 192.190313 -201.74517 
L 191.492813 -197.149085 
L 190.795313 -193.130264 
L 190.097813 -199.372769 
L 189.400313 -199.301151 
L 188.702813 -201.026722 
L 188.005313 -209.485679 
L 187.307813 -216.275175 
L 186.610313 -218.795303 
L 185.912813 -212.355607 
L 185.215313 -211.957911 
L 184.517813 -210.960401 
L 183.820312 -200.945257 
L 183.122813 -199.384726 
L 182.425313 -201.825929 
L 181.727812 -195.068958 
L 181.030313 -196.974644 
L 180.332813 -197.220056 
L 179.635312 -203.858604 
L 178.937813 -203.272256 
L 178.240313 -205.34099 
L 177.542813 -212.314715 
L 176.845313 -206.017055 
L 176.147813 -199.381846 
L 175.450313 -194.868019 
L 174.752813 -194.683369 
L 174.055313 -184.909477 
L 173.357813 -183.105835 
L 172.660313 -193.181257 
L 171.962813 -201.777532 
L 171.265313 -198.789087 
L 170.567813 -208.962046 
L 169.870313 -201.651539 
L 169.172813 -197.963564 
L 168.475313 -201.329689 
L 167.777813 -199.174342 
L 167.080313 -203.111111 
L 166.382812 -203.204311 
L 165.685313 -209.406016 
L 164.987813 -213.902577 
L 164.290312 -215.036427 
L 163.592813 -213.716175 
L 162.895313 -224.391795 
L 162.197812 -225.718903 
L 161.500313 -224.736265 
L 160.802813 -224.91936 
L 160.105313 -224.869749 
L 159.407813 -226.712127 
L 158.710313 -230.587499 
L 158.012813 -241.307987 
L 157.315313 -241.065495 
L 156.617813 -240.402728 
L 155.920313 -240.197649 
L 155.222813 -238.419047 
L 154.525313 -230.187359 
L 153.827813 -233.094138 
L 153.130313 -233.1031 
L 152.432813 -237.699459 
L 151.735313 -226.420574 
L 151.037813 -227.101055 
L 150.340313 -225.279174 
L 149.642813 -220.339131 
L 148.945312 -224.355654 
L 148.247813 -216.49579 
L 147.550313 -216.322094 
L 146.852812 -215.753609 
L 146.155313 -209.448643 
L 145.457813 -208.811042 
L 144.760312 -206.571943 
L 144.062813 -206.232534 
L 143.365313 -208.582884 
L 142.667813 -204.909428 
L 141.970313 -202.329251 
L 141.272813 -202.273834 
L 140.575313 -210.442886 
L 139.877813 -204.313885 
L 139.180313 -198.688898 
L 138.482813 -195.075909 
L 137.785313 -189.922524 
L 137.087813 -188.919417 
L 136.390313 -182.953102 
L 135.692813 -177.922342 
L 134.995313 -175.687431 
L 134.297813 -179.541021 
L 133.600313 -180.608516 
L 132.902813 -174.908118 
L 132.205313 -173.956279 
L 131.507812 -177.108987 
L 130.810313 -180.16861 
L 130.112813 -176.600074 
L 129.415312 -176.897351 
L 128.717813 -180.405376 
L 128.020313 -187.731143 
L 127.322812 -188.345868 
L 126.625313 -186.23189 
L 125.927813 -184.188908 
L 125.230313 -182.610929 
L 124.532813 -184.112099 
L 123.835313 -180.854551 
L 123.137813 -176.600748 
L 122.440313 -167.421985 
L 121.742813 -166.141682 
L 121.045313 -162.450504 
L 120.347813 -160.738705 
L 119.650313 -160.821931 
L 118.952813 -158.53517 
L 118.255313 -152.873232 
L 117.557813 -143.907122 
L 116.860313 -133.658486 
L 116.162813 -137.602088 
L 115.465313 -134.857802 
L 114.767813 -140.790665 
L 114.070312 -145.099508 
L 113.372813 -145.258174 
L 112.675313 -149.063095 
L 111.977813 -146.464874 
L 111.280313 -149.363177 
L 110.582813 -153.837053 
L 109.885313 -163.957222 
L 109.187813 -160.60313 
L 108.490313 -158.613079 
L 107.792813 -157.347225 
L 107.095313 -158.034584 
L 106.397813 -161.300104 
L 105.700313 -162.46194 
L 105.002813 -157.741104 
L 104.305313 -162.151683 
L 103.607813 -160.061037 
L 102.910313 -163.404633 
L 102.212813 -162.286904 
L 101.515313 -165.962714 
L 100.817813 -170.11755 
L 100.120313 -166.668449 
L 99.422813 -166.139924 
L 98.725313 -160.73528 
L 98.027813 -163.561026 
L 97.330313 -165.491512 
L 96.632812 -168.714641 
L 95.935313 -170.297287 
L 95.237813 -167.985959 
L 94.540313 -168.43614 
L 93.842813 -169.414978 
L 93.145313 -165.618541 
L 92.447813 -162.479895 
L 91.750313 -156.956066 
L 91.052813 -152.849312 
L 90.355313 -150.26702 
L 89.657813 -147.700011 
L 88.960313 -150.516163 
L 88.262813 -144.060453 
L 87.565313 -140.489358 
L 86.867813 -132.602344 
L 86.170313 -135.790373 
L 85.472813 -132.844192 
L 84.775313 -133.526937 
L 84.077813 -142.95053 
L 83.380313 -147.104098 
L 82.682813 -142.637195 
L 81.985313 -143.676815 
L 81.287813 -147.306799 
L 80.590313 -148.766312 
L 79.892813 -157.694495 
L 79.195313 -162.273797 
L 78.497813 -160.296558 
L 77.800313 -162.270517 
L 77.102813 -164.51319 
L 76.405313 -164.9772 
L 75.707813 -168.301008 
L 75.010313 -164.150537 
L 74.312813 -165.249874 
L 73.615313 -166.811337 
L 72.917813 -160.219067 
L 72.220313 -165.114938 
L 71.522813 -174.104648 
L 70.825313 -173.136486 
L 70.127813 -167.310434 
L 69.430313 -167.416015 
z
" style="stroke: #b38665; stroke-opacity: 0.3"/>
    </defs>
    <g clip-path="url(#pd72cf6652c)">
     <use xlink:href="#mf77a3ed089" x="0" y="295.982844" style="fill: #b38665; fill-opacity: 0.3; stroke: #b38665; stroke-opacity: 0.3"/>
    </g>
   </g>
   <g id="matplotlib.axis_1">
    <g id="xtick_1">
     <g id="line2d_1">
      <defs>
       <path id="ma4ed6e04a6" d="M 0 0 
L 0 3.5 
" style="stroke: #000000; stroke-width: 0.8"/>
      </defs>
      <g>
       <use xlink:href="#ma4ed6e04a6" x="58.270313" y="245.77425" style="stroke: #000000; stroke-width: 0.8"/>
      </g>
     </g>
     <g id="text_1">
      <!-- 0 -->
      <g transform="translate(53.821563 264.22675) scale(0.16 -0.16)">
       <defs>
        <path id="ArialMT-30" d="M 266 2259 
Q 266 3072 433 3567 
Q 600 4063 929 4331 
Q 1259 4600 1759 4600 
Q 2128 4600 2406 4451 
Q 2684 4303 2865 4023 
Q 3047 3744 3150 3342 
Q 3253 2941 3253 2259 
Q 3253 1453 3087 958 
Q 2922 463 2592 192 
Q 2263 -78 1759 -78 
Q 1097 -78 719 397 
Q 266 969 266 2259 
z
M 844 2259 
Q 844 1131 1108 757 
Q 1372 384 1759 384 
Q 2147 384 2411 759 
Q 2675 1134 2675 2259 
Q 2675 3391 2411 3762 
Q 2147 4134 1753 4134 
Q 1366 4134 1134 3806 
Q 844 3388 844 2259 
z
" transform="scale(0.015625)"/>
       </defs>
       <use xlink:href="#ArialMT-30"/>
      </g>
     </g>
    </g>
    <g id="xtick_2">
     <g id="line2d_2">
      <g>
       <use xlink:href="#ma4ed6e04a6" x="147.550313" y="245.77425" style="stroke: #000000; stroke-width: 0.8"/>
      </g>
     </g>
     <g id="text_2">
      <!-- 128 -->
      <g transform="translate(134.204063 264.22675) scale(0.16 -0.16)">
       <defs>
        <path id="ArialMT-31" d="M 2384 0 
L 1822 0 
L 1822 3584 
Q 1619 3391 1289 3197 
Q 959 3003 697 2906 
L 697 3450 
Q 1169 3672 1522 3987 
Q 1875 4303 2022 4600 
L 2384 4600 
L 2384 0 
z
" transform="scale(0.015625)"/>
        <path id="ArialMT-32" d="M 3222 541 
L 3222 0 
L 194 0 
Q 188 203 259 391 
Q 375 700 629 1000 
Q 884 1300 1366 1694 
Q 2113 2306 2375 2664 
Q 2638 3022 2638 3341 
Q 2638 3675 2398 3904 
Q 2159 4134 1775 4134 
Q 1369 4134 1125 3890 
Q 881 3647 878 3216 
L 300 3275 
Q 359 3922 746 4261 
Q 1134 4600 1788 4600 
Q 2447 4600 2831 4234 
Q 3216 3869 3216 3328 
Q 3216 3053 3103 2787 
Q 2991 2522 2730 2228 
Q 2469 1934 1863 1422 
Q 1356 997 1212 845 
Q 1069 694 975 541 
L 3222 541 
z
" transform="scale(0.015625)"/>
        <path id="ArialMT-38" d="M 1131 2484 
Q 781 2613 612 2850 
Q 444 3088 444 3419 
Q 444 3919 803 4259 
Q 1163 4600 1759 4600 
Q 2359 4600 2725 4251 
Q 3091 3903 3091 3403 
Q 3091 3084 2923 2848 
Q 2756 2613 2416 2484 
Q 2838 2347 3058 2040 
Q 3278 1734 3278 1309 
Q 3278 722 2862 322 
Q 2447 -78 1769 -78 
Q 1091 -78 675 323 
Q 259 725 259 1325 
Q 259 1772 486 2073 
Q 713 2375 1131 2484 
z
M 1019 3438 
Q 1019 3113 1228 2906 
Q 1438 2700 1772 2700 
Q 2097 2700 2305 2904 
Q 2513 3109 2513 3406 
Q 2513 3716 2298 3927 
Q 2084 4138 1766 4138 
Q 1444 4138 1231 3931 
Q 1019 3725 1019 3438 
z
M 838 1322 
Q 838 1081 952 856 
Q 1066 631 1291 507 
Q 1516 384 1775 384 
Q 2178 384 2440 643 
Q 2703 903 2703 1303 
Q 2703 1709 2433 1975 
Q 2163 2241 1756 2241 
Q 1359 2241 1098 1978 
Q 838 1716 838 1322 
z
" transform="scale(0.015625)"/>
       </defs>
       <use xlink:href="#ArialMT-31"/>
       <use xlink:href="#ArialMT-32" x="55.615234"/>
       <use xlink:href="#ArialMT-38" x="111.230469"/>
      </g>
     </g>
    </g>
    <g id="xtick_3">
     <g id="line2d_3">
      <g>
       <use xlink:href="#ma4ed6e04a6" x="236.830313" y="245.77425" style="stroke: #000000; stroke-width: 0.8"/>
      </g>
     </g>
     <g id="text_3">
      <!-- 256 -->
      <g transform="translate(223.484063 264.22675) scale(0.16 -0.16)">
       <defs>
        <path id="ArialMT-35" d="M 266 1200 
L 856 1250 
Q 922 819 1161 601 
Q 1400 384 1738 384 
Q 2144 384 2425 690 
Q 2706 997 2706 1503 
Q 2706 1984 2436 2262 
Q 2166 2541 1728 2541 
Q 1456 2541 1237 2417 
Q 1019 2294 894 2097 
L 366 2166 
L 809 4519 
L 3088 4519 
L 3088 3981 
L 1259 3981 
L 1013 2750 
Q 1425 3038 1878 3038 
Q 2478 3038 2890 2622 
Q 3303 2206 3303 1553 
Q 3303 931 2941 478 
Q 2500 -78 1738 -78 
Q 1113 -78 717 272 
Q 322 622 266 1200 
z
" transform="scale(0.015625)"/>
        <path id="ArialMT-36" d="M 3184 3459 
L 2625 3416 
Q 2550 3747 2413 3897 
Q 2184 4138 1850 4138 
Q 1581 4138 1378 3988 
Q 1113 3794 959 3422 
Q 806 3050 800 2363 
Q 1003 2672 1297 2822 
Q 1591 2972 1913 2972 
Q 2475 2972 2870 2558 
Q 3266 2144 3266 1488 
Q 3266 1056 3080 686 
Q 2894 316 2569 119 
Q 2244 -78 1831 -78 
Q 1128 -78 684 439 
Q 241 956 241 2144 
Q 241 3472 731 4075 
Q 1159 4600 1884 4600 
Q 2425 4600 2770 4297 
Q 3116 3994 3184 3459 
z
M 888 1484 
Q 888 1194 1011 928 
Q 1134 663 1356 523 
Q 1578 384 1822 384 
Q 2178 384 2434 671 
Q 2691 959 2691 1453 
Q 2691 1928 2437 2201 
Q 2184 2475 1800 2475 
Q 1419 2475 1153 2201 
Q 888 1928 888 1484 
z
" transform="scale(0.015625)"/>
       </defs>
       <use xlink:href="#ArialMT-32"/>
       <use xlink:href="#ArialMT-35" x="55.615234"/>
       <use xlink:href="#ArialMT-36" x="111.230469"/>
      </g>
     </g>
    </g>
    <g id="xtick_4">
     <g id="line2d_4">
      <g>
       <use xlink:href="#ma4ed6e04a6" x="326.110313" y="245.77425" style="stroke: #000000; stroke-width: 0.8"/>
      </g>
     </g>
     <g id="text_4">
      <!-- 384 -->
      <g transform="translate(312.764063 264.22675) scale(0.16 -0.16)">
       <defs>
        <path id="ArialMT-33" d="M 269 1209 
L 831 1284 
Q 928 806 1161 595 
Q 1394 384 1728 384 
Q 2125 384 2398 659 
Q 2672 934 2672 1341 
Q 2672 1728 2419 1979 
Q 2166 2231 1775 2231 
Q 1616 2231 1378 2169 
L 1441 2663 
Q 1497 2656 1531 2656 
Q 1891 2656 2178 2843 
Q 2466 3031 2466 3422 
Q 2466 3731 2256 3934 
Q 2047 4138 1716 4138 
Q 1388 4138 1169 3931 
Q 950 3725 888 3313 
L 325 3413 
Q 428 3978 793 4289 
Q 1159 4600 1703 4600 
Q 2078 4600 2393 4439 
Q 2709 4278 2876 4000 
Q 3044 3722 3044 3409 
Q 3044 3113 2884 2869 
Q 2725 2625 2413 2481 
Q 2819 2388 3044 2092 
Q 3269 1797 3269 1353 
Q 3269 753 2831 336 
Q 2394 -81 1725 -81 
Q 1122 -81 723 278 
Q 325 638 269 1209 
z
" transform="scale(0.015625)"/>
        <path id="ArialMT-34" d="M 2069 0 
L 2069 1097 
L 81 1097 
L 81 1613 
L 2172 4581 
L 2631 4581 
L 2631 1613 
L 3250 1613 
L 3250 1097 
L 2631 1097 
L 2631 0 
L 2069 0 
z
M 2069 1613 
L 2069 3678 
L 634 1613 
L 2069 1613 
z
" transform="scale(0.015625)"/>
       </defs>
       <use xlink:href="#ArialMT-33"/>
       <use xlink:href="#ArialMT-38" x="55.615234"/>
       <use xlink:href="#ArialMT-34" x="111.230469"/>
      </g>
     </g>
    </g>
    <g id="xtick_5">
     <g id="line2d_5">
      <g>
       <use xlink:href="#ma4ed6e04a6" x="415.390312" y="245.77425" style="stroke: #000000; stroke-width: 0.8"/>
      </g>
     </g>
     <g id="text_5">
      <!-- 512 -->
      <g transform="translate(402.044062 264.22675) scale(0.16 -0.16)">
       <use xlink:href="#ArialMT-35"/>
       <use xlink:href="#ArialMT-31" x="55.615234"/>
       <use xlink:href="#ArialMT-32" x="111.230469"/>
      </g>
     </g>
    </g>
    <g id="xtick_6">
     <g id="line2d_6">
      <g>
       <use xlink:href="#ma4ed6e04a6" x="504.670312" y="245.77425" style="stroke: #000000; stroke-width: 0.8"/>
      </g>
     </g>
     <g id="text_6">
      <!-- 640 -->
      <g transform="translate(491.324062 264.22675) scale(0.16 -0.16)">
       <use xlink:href="#ArialMT-36"/>
       <use xlink:href="#ArialMT-34" x="55.615234"/>
       <use xlink:href="#ArialMT-30" x="111.230469"/>
      </g>
     </g>
    </g>
    <g id="text_7">
     <!-- Trial -->
     <g transform="translate(263.356484 285.006594) scale(0.19 -0.19)">
      <defs>
       <path id="ArialMT-54" d="M 1659 0 
L 1659 4041 
L 150 4041 
L 150 4581 
L 3781 4581 
L 3781 4041 
L 2266 4041 
L 2266 0 
L 1659 0 
z
" transform="scale(0.015625)"/>
       <path id="ArialMT-72" d="M 416 0 
L 416 3319 
L 922 3319 
L 922 2816 
Q 1116 3169 1280 3281 
Q 1444 3394 1641 3394 
Q 1925 3394 2219 3213 
L 2025 2691 
Q 1819 2813 1613 2813 
Q 1428 2813 1281 2702 
Q 1134 2591 1072 2394 
Q 978 2094 978 1738 
L 978 0 
L 416 0 
z
" transform="scale(0.015625)"/>
       <path id="ArialMT-69" d="M 425 3934 
L 425 4581 
L 988 4581 
L 988 3934 
L 425 3934 
z
M 425 0 
L 425 3319 
L 988 3319 
L 988 0 
L 425 0 
z
" transform="scale(0.015625)"/>
       <path id="ArialMT-61" d="M 2588 409 
Q 2275 144 1986 34 
Q 1697 -75 1366 -75 
Q 819 -75 525 192 
Q 231 459 231 875 
Q 231 1119 342 1320 
Q 453 1522 633 1644 
Q 813 1766 1038 1828 
Q 1203 1872 1538 1913 
Q 2219 1994 2541 2106 
Q 2544 2222 2544 2253 
Q 2544 2597 2384 2738 
Q 2169 2928 1744 2928 
Q 1347 2928 1158 2789 
Q 969 2650 878 2297 
L 328 2372 
Q 403 2725 575 2942 
Q 747 3159 1072 3276 
Q 1397 3394 1825 3394 
Q 2250 3394 2515 3294 
Q 2781 3194 2906 3042 
Q 3031 2891 3081 2659 
Q 3109 2516 3109 2141 
L 3109 1391 
Q 3109 606 3145 398 
Q 3181 191 3288 0 
L 2700 0 
Q 2613 175 2588 409 
z
M 2541 1666 
Q 2234 1541 1622 1453 
Q 1275 1403 1131 1340 
Q 988 1278 909 1158 
Q 831 1038 831 891 
Q 831 666 1001 516 
Q 1172 366 1500 366 
Q 1825 366 2078 508 
Q 2331 650 2450 897 
Q 2541 1088 2541 1459 
L 2541 1666 
z
" transform="scale(0.015625)"/>
       <path id="ArialMT-6c" d="M 409 0 
L 409 4581 
L 972 4581 
L 972 0 
L 409 0 
z
" transform="scale(0.015625)"/>
      </defs>
      <use xlink:href="#ArialMT-54"/>
      <use xlink:href="#ArialMT-72" x="57.333984"/>
      <use xlink:href="#ArialMT-69" x="90.634766"/>
      <use xlink:href="#ArialMT-61" x="112.851562"/>
      <use xlink:href="#ArialMT-6c" x="168.466797"/>
     </g>
    </g>
   </g>
   <g id="matplotlib.axis_2">
    <g id="ytick_1">
     <g id="line2d_7">
      <defs>
       <path id="md6e2a9739e" d="M 0 0 
L -3.5 0 
" style="stroke: #000000; stroke-width: 0.8"/>
      </defs>
      <g>
       <use xlink:href="#md6e2a9739e" x="58.270313" y="245.77425" style="stroke: #000000; stroke-width: 0.8"/>
      </g>
     </g>
     <g id="text_8">
      <!-- 0.0 -->
      <g transform="translate(29.030313 251.5005) scale(0.16 -0.16)">
       <defs>
        <path id="ArialMT-2e" d="M 581 0 
L 581 641 
L 1222 641 
L 1222 0 
L 581 0 
z
" transform="scale(0.015625)"/>
       </defs>
       <use xlink:href="#ArialMT-30"/>
       <use xlink:href="#ArialMT-2e" x="55.615234"/>
       <use xlink:href="#ArialMT-30" x="83.398438"/>
      </g>
     </g>
    </g>
    <g id="ytick_2">
     <g id="line2d_8">
      <g>
       <use xlink:href="#md6e2a9739e" x="58.270313" y="199.20465" style="stroke: #000000; stroke-width: 0.8"/>
      </g>
     </g>
     <g id="text_9">
      <!-- 0.2 -->
      <g transform="translate(29.030313 204.9309) scale(0.16 -0.16)">
       <use xlink:href="#ArialMT-30"/>
       <use xlink:href="#ArialMT-2e" x="55.615234"/>
       <use xlink:href="#ArialMT-32" x="83.398438"/>
      </g>
     </g>
    </g>
    <g id="ytick_3">
     <g id="line2d_9">
      <g>
       <use xlink:href="#md6e2a9739e" x="58.270313" y="152.63505" style="stroke: #000000; stroke-width: 0.8"/>
      </g>
     </g>
     <g id="text_10">
      <!-- 0.4 -->
      <g transform="translate(29.030313 158.3613) scale(0.16 -0.16)">
       <use xlink:href="#ArialMT-30"/>
       <use xlink:href="#ArialMT-2e" x="55.615234"/>
       <use xlink:href="#ArialMT-34" x="83.398438"/>
      </g>
     </g>
    </g>
    <g id="ytick_4">
     <g id="line2d_10">
      <g>
       <use xlink:href="#md6e2a9739e" x="58.270313" y="106.06545" style="stroke: #000000; stroke-width: 0.8"/>
      </g>
     </g>
     <g id="text_11">
      <!-- 0.6 -->
      <g transform="translate(29.030313 111.7917) scale(0.16 -0.16)">
       <use xlink:href="#ArialMT-30"/>
       <use xlink:href="#ArialMT-2e" x="55.615234"/>
       <use xlink:href="#ArialMT-36" x="83.398438"/>
      </g>
     </g>
    </g>
    <g id="ytick_5">
     <g id="line2d_11">
      <g>
       <use xlink:href="#md6e2a9739e" x="58.270313" y="59.49585" style="stroke: #000000; stroke-width: 0.8"/>
      </g>
     </g>
     <g id="text_12">
      <!-- 0.8 -->
      <g transform="translate(29.030313 65.2221) scale(0.16 -0.16)">
       <use xlink:href="#ArialMT-30"/>
       <use xlink:href="#ArialMT-2e" x="55.615234"/>
       <use xlink:href="#ArialMT-38" x="83.398438"/>
      </g>
     </g>
    </g>
    <g id="ytick_6">
     <g id="line2d_12">
      <g>
       <use xlink:href="#md6e2a9739e" x="58.270313" y="12.92625" style="stroke: #000000; stroke-width: 0.8"/>
      </g>
     </g>
     <g id="text_13">
      <!-- 1.0 -->
      <g transform="translate(29.030313 18.6525) scale(0.16 -0.16)">
       <use xlink:href="#ArialMT-31"/>
       <use xlink:href="#ArialMT-2e" x="55.615234"/>
       <use xlink:href="#ArialMT-30" x="83.398438"/>
      </g>
     </g>
    </g>
    <g id="text_14">
     <!-- Learning performance -->
     <g transform="translate(21.031406 222.286969) rotate(-90) scale(0.19 -0.19)">
      <defs>
       <path id="ArialMT-4c" d="M 469 0 
L 469 4581 
L 1075 4581 
L 1075 541 
L 3331 541 
L 3331 0 
L 469 0 
z
" transform="scale(0.015625)"/>
       <path id="ArialMT-65" d="M 2694 1069 
L 3275 997 
Q 3138 488 2766 206 
Q 2394 -75 1816 -75 
Q 1088 -75 661 373 
Q 234 822 234 1631 
Q 234 2469 665 2931 
Q 1097 3394 1784 3394 
Q 2450 3394 2872 2941 
Q 3294 2488 3294 1666 
Q 3294 1616 3291 1516 
L 816 1516 
Q 847 969 1125 678 
Q 1403 388 1819 388 
Q 2128 388 2347 550 
Q 2566 713 2694 1069 
z
M 847 1978 
L 2700 1978 
Q 2663 2397 2488 2606 
Q 2219 2931 1791 2931 
Q 1403 2931 1139 2672 
Q 875 2413 847 1978 
z
" transform="scale(0.015625)"/>
       <path id="ArialMT-6e" d="M 422 0 
L 422 3319 
L 928 3319 
L 928 2847 
Q 1294 3394 1984 3394 
Q 2284 3394 2536 3286 
Q 2788 3178 2913 3003 
Q 3038 2828 3088 2588 
Q 3119 2431 3119 2041 
L 3119 0 
L 2556 0 
L 2556 2019 
Q 2556 2363 2490 2533 
Q 2425 2703 2258 2804 
Q 2091 2906 1866 2906 
Q 1506 2906 1245 2678 
Q 984 2450 984 1813 
L 984 0 
L 422 0 
z
" transform="scale(0.015625)"/>
       <path id="ArialMT-67" d="M 319 -275 
L 866 -356 
Q 900 -609 1056 -725 
Q 1266 -881 1628 -881 
Q 2019 -881 2231 -725 
Q 2444 -569 2519 -288 
Q 2563 -116 2559 434 
Q 2191 0 1641 0 
Q 956 0 581 494 
Q 206 988 206 1678 
Q 206 2153 378 2554 
Q 550 2956 876 3175 
Q 1203 3394 1644 3394 
Q 2231 3394 2613 2919 
L 2613 3319 
L 3131 3319 
L 3131 450 
Q 3131 -325 2973 -648 
Q 2816 -972 2473 -1159 
Q 2131 -1347 1631 -1347 
Q 1038 -1347 672 -1080 
Q 306 -813 319 -275 
z
M 784 1719 
Q 784 1066 1043 766 
Q 1303 466 1694 466 
Q 2081 466 2343 764 
Q 2606 1063 2606 1700 
Q 2606 2309 2336 2618 
Q 2066 2928 1684 2928 
Q 1309 2928 1046 2623 
Q 784 2319 784 1719 
z
" transform="scale(0.015625)"/>
       <path id="ArialMT-20" transform="scale(0.015625)"/>
       <path id="ArialMT-70" d="M 422 -1272 
L 422 3319 
L 934 3319 
L 934 2888 
Q 1116 3141 1344 3267 
Q 1572 3394 1897 3394 
Q 2322 3394 2647 3175 
Q 2972 2956 3137 2557 
Q 3303 2159 3303 1684 
Q 3303 1175 3120 767 
Q 2938 359 2589 142 
Q 2241 -75 1856 -75 
Q 1575 -75 1351 44 
Q 1128 163 984 344 
L 984 -1272 
L 422 -1272 
z
M 931 1641 
Q 931 1000 1190 694 
Q 1450 388 1819 388 
Q 2194 388 2461 705 
Q 2728 1022 2728 1688 
Q 2728 2322 2467 2637 
Q 2206 2953 1844 2953 
Q 1484 2953 1207 2617 
Q 931 2281 931 1641 
z
" transform="scale(0.015625)"/>
       <path id="ArialMT-66" d="M 556 0 
L 556 2881 
L 59 2881 
L 59 3319 
L 556 3319 
L 556 3672 
Q 556 4006 616 4169 
Q 697 4388 901 4523 
Q 1106 4659 1475 4659 
Q 1713 4659 2000 4603 
L 1916 4113 
Q 1741 4144 1584 4144 
Q 1328 4144 1222 4034 
Q 1116 3925 1116 3625 
L 1116 3319 
L 1763 3319 
L 1763 2881 
L 1116 2881 
L 1116 0 
L 556 0 
z
" transform="scale(0.015625)"/>
       <path id="ArialMT-6f" d="M 213 1659 
Q 213 2581 725 3025 
Q 1153 3394 1769 3394 
Q 2453 3394 2887 2945 
Q 3322 2497 3322 1706 
Q 3322 1066 3130 698 
Q 2938 331 2570 128 
Q 2203 -75 1769 -75 
Q 1072 -75 642 372 
Q 213 819 213 1659 
z
M 791 1659 
Q 791 1022 1069 705 
Q 1347 388 1769 388 
Q 2188 388 2466 706 
Q 2744 1025 2744 1678 
Q 2744 2294 2464 2611 
Q 2184 2928 1769 2928 
Q 1347 2928 1069 2612 
Q 791 2297 791 1659 
z
" transform="scale(0.015625)"/>
       <path id="ArialMT-6d" d="M 422 0 
L 422 3319 
L 925 3319 
L 925 2853 
Q 1081 3097 1340 3245 
Q 1600 3394 1931 3394 
Q 2300 3394 2536 3241 
Q 2772 3088 2869 2813 
Q 3263 3394 3894 3394 
Q 4388 3394 4653 3120 
Q 4919 2847 4919 2278 
L 4919 0 
L 4359 0 
L 4359 2091 
Q 4359 2428 4304 2576 
Q 4250 2725 4106 2815 
Q 3963 2906 3769 2906 
Q 3419 2906 3187 2673 
Q 2956 2441 2956 1928 
L 2956 0 
L 2394 0 
L 2394 2156 
Q 2394 2531 2256 2718 
Q 2119 2906 1806 2906 
Q 1569 2906 1367 2781 
Q 1166 2656 1075 2415 
Q 984 2175 984 1722 
L 984 0 
L 422 0 
z
" transform="scale(0.015625)"/>
       <path id="ArialMT-63" d="M 2588 1216 
L 3141 1144 
Q 3050 572 2676 248 
Q 2303 -75 1759 -75 
Q 1078 -75 664 370 
Q 250 816 250 1647 
Q 250 2184 428 2587 
Q 606 2991 970 3192 
Q 1334 3394 1763 3394 
Q 2303 3394 2647 3120 
Q 2991 2847 3088 2344 
L 2541 2259 
Q 2463 2594 2264 2762 
Q 2066 2931 1784 2931 
Q 1359 2931 1093 2626 
Q 828 2322 828 1663 
Q 828 994 1084 691 
Q 1341 388 1753 388 
Q 2084 388 2306 591 
Q 2528 794 2588 1216 
z
" transform="scale(0.015625)"/>
      </defs>
      <use xlink:href="#ArialMT-4c"/>
      <use xlink:href="#ArialMT-65" x="55.615234"/>
      <use xlink:href="#ArialMT-61" x="111.230469"/>
      <use xlink:href="#ArialMT-72" x="166.845703"/>
      <use xlink:href="#ArialMT-6e" x="200.146484"/>
      <use xlink:href="#ArialMT-69" x="255.761719"/>
      <use xlink:href="#ArialMT-6e" x="277.978516"/>
      <use xlink:href="#ArialMT-67" x="333.59375"/>
      <use xlink:href="#ArialMT-20" x="389.208984"/>
      <use xlink:href="#ArialMT-70" x="416.992188"/>
      <use xlink:href="#ArialMT-65" x="472.607422"/>
      <use xlink:href="#ArialMT-72" x="528.222656"/>
      <use xlink:href="#ArialMT-66" x="561.523438"/>
      <use xlink:href="#ArialMT-6f" x="589.306641"/>
      <use xlink:href="#ArialMT-72" x="644.921875"/>
      <use xlink:href="#ArialMT-6d" x="678.222656"/>
      <use xlink:href="#ArialMT-61" x="761.523438"/>
      <use xlink:href="#ArialMT-6e" x="817.138672"/>
      <use xlink:href="#ArialMT-63" x="872.753906"/>
      <use xlink:href="#ArialMT-65" x="922.753906"/>
     </g>
    </g>
   </g>
   <g id="line2d_13">
    <path d="M 69.430313 173.00925 
L 70.825313 173.00925 
L 72.220313 202.11525 
L 72.917813 187.56225 
L 74.312813 187.56225 
L 75.010313 173.00925 
L 76.405313 173.00925 
L 77.102813 187.56225 
L 77.800313 187.56225 
L 78.497813 173.00925 
L 79.195313 187.56225 
L 79.892813 187.56225 
L 80.590313 202.11525 
L 81.287813 187.56225 
L 83.380313 187.56225 
L 84.077813 202.11525 
L 84.775313 202.11525 
L 85.472813 187.56225 
L 87.565313 187.56225 
L 88.960313 158.45625 
L 89.657813 173.00925 
L 91.750313 173.00925 
L 92.447813 187.56225 
L 93.145313 173.00925 
L 95.935313 173.00925 
L 97.330313 202.11525 
L 98.725313 202.11525 
L 100.120313 231.22125 
L 101.515313 231.22125 
L 103.607813 187.56225 
L 105.002813 187.56225 
L 105.700313 173.00925 
L 109.187813 173.00925 
L 110.582813 143.90325 
L 111.977813 143.90325 
L 112.675313 129.35025 
L 114.767813 173.00925 
L 117.557813 173.00925 
L 118.255313 158.45625 
L 119.650313 158.45625 
L 120.347813 143.90325 
L 121.742813 173.00925 
L 122.440313 158.45625 
L 125.230313 158.45625 
L 125.927813 143.90325 
L 126.625313 158.45625 
L 127.322812 158.45625 
L 128.020313 173.00925 
L 128.717813 158.45625 
L 129.415312 173.00925 
L 130.112813 158.45625 
L 130.810313 158.45625 
L 131.507812 173.00925 
L 132.902813 173.00925 
L 133.600313 187.56225 
L 134.297813 187.56225 
L 134.995313 202.11525 
L 136.390313 173.00925 
L 137.087813 187.56225 
L 137.785313 173.00925 
L 138.482813 173.00925 
L 139.180313 158.45625 
L 139.877813 173.00925 
L 140.575313 158.45625 
L 141.272813 158.45625 
L 141.970313 143.90325 
L 143.365313 143.90325 
L 145.457813 100.24425 
L 146.852812 100.24425 
L 147.550313 114.79725 
L 148.247813 100.24425 
L 148.945312 100.24425 
L 149.642813 85.69125 
L 151.735313 85.69125 
L 152.432813 100.24425 
L 153.130313 100.24425 
L 154.525313 71.13825 
L 156.617813 71.13825 
L 157.315313 56.58525 
L 158.012813 71.13825 
L 158.710313 56.58525 
L 162.895313 56.58525 
L 163.592813 42.03225 
L 164.290312 56.58525 
L 167.080313 56.58525 
L 167.777813 71.13825 
L 169.172813 71.13825 
L 170.567813 100.24425 
L 171.265313 100.24425 
L 172.660313 129.35025 
L 173.357813 114.79725 
L 174.752813 143.90325 
L 175.450313 129.35025 
L 176.845313 129.35025 
L 178.240313 158.45625 
L 178.937813 143.90325 
L 179.635312 158.45625 
L 180.332813 143.90325 
L 181.030313 143.90325 
L 181.727812 129.35025 
L 184.517813 129.35025 
L 185.912813 100.24425 
L 186.610313 100.24425 
L 188.005313 129.35025 
L 188.702813 129.35025 
L 189.400313 114.79725 
L 190.097813 129.35025 
L 191.492813 129.35025 
L 192.190313 114.79725 
L 193.585313 143.90325 
L 194.282813 129.35025 
L 194.980313 129.35025 
L 195.677813 143.90325 
L 196.375313 143.90325 
L 197.072813 158.45625 
L 198.467813 158.45625 
L 199.165313 143.90325 
L 200.560313 143.90325 
L 201.257813 129.35025 
L 201.955313 129.35025 
L 202.652813 143.90325 
L 203.350313 143.90325 
L 204.047813 129.35025 
L 205.442813 129.35025 
L 206.140313 114.79725 
L 206.837813 114.79725 
L 207.535313 129.35025 
L 208.232813 114.79725 
L 208.930313 129.35025 
L 210.325313 129.35025 
L 211.022813 114.79725 
L 215.905313 114.79725 
L 216.602813 129.35025 
L 217.300313 129.35025 
L 217.997813 114.79725 
L 218.695313 114.79725 
L 219.392813 129.35025 
L 220.090313 114.79725 
L 221.485313 114.79725 
L 222.182813 129.35025 
L 222.880313 129.35025 
L 223.577813 143.90325 
L 224.275313 129.35025 
L 224.972813 129.35025 
L 226.367813 158.45625 
L 227.065313 143.90325 
L 228.460313 143.90325 
L 229.157813 158.45625 
L 229.855313 158.45625 
L 230.552813 143.90325 
L 231.250313 158.45625 
L 231.947813 143.90325 
L 232.645313 143.90325 
L 233.342813 129.35025 
L 234.040313 129.35025 
L 234.737813 114.79725 
L 236.830313 114.79725 
L 237.527813 100.24425 
L 238.922813 100.24425 
L 239.620313 114.79725 
L 242.410313 114.79725 
L 243.107813 129.35025 
L 246.595313 129.35025 
L 247.292813 114.79725 
L 248.687813 114.79725 
L 249.385313 129.35025 
L 252.175313 129.35025 
L 252.872813 143.90325 
L 253.570313 143.90325 
L 254.267813 129.35025 
L 254.965313 143.90325 
L 257.755313 143.90325 
L 258.452812 158.45625 
L 260.545313 158.45625 
L 261.940313 129.35025 
L 262.637812 129.35025 
L 264.730313 85.69125 
L 266.125313 85.69125 
L 268.217812 129.35025 
L 269.612813 129.35025 
L 270.310313 114.79725 
L 271.705312 114.79725 
L 272.402812 129.35025 
L 273.797813 129.35025 
L 274.495313 143.90325 
L 275.192813 143.90325 
L 275.890312 158.45625 
L 276.587812 158.45625 
L 277.285313 143.90325 
L 277.982813 143.90325 
L 279.377813 114.79725 
L 280.075312 129.35025 
L 281.470312 129.35025 
L 282.167813 143.90325 
L 282.865313 143.90325 
L 283.562813 129.35025 
L 284.260312 129.35025 
L 284.957812 114.79725 
L 286.352813 114.79725 
L 287.050313 100.24425 
L 287.747813 114.79725 
L 288.445312 114.79725 
L 289.142812 100.24425 
L 289.840312 100.24425 
L 290.537813 114.79725 
L 291.235313 100.24425 
L 292.630313 100.24425 
L 293.327812 85.69125 
L 294.025312 85.69125 
L 294.722813 100.24425 
L 296.815313 100.24425 
L 297.512812 114.79725 
L 298.210312 114.79725 
L 298.907813 100.24425 
L 299.605313 114.79725 
L 300.302813 114.79725 
L 301.000313 129.35025 
L 301.697812 114.79725 
L 302.395312 129.35025 
L 303.092812 129.35025 
L 304.487813 158.45625 
L 305.882812 158.45625 
L 307.277812 187.56225 
L 309.370313 187.56225 
L 310.067813 202.11525 
L 310.765312 187.56225 
L 312.160313 187.56225 
L 312.857813 202.11525 
L 314.950312 158.45625 
L 315.647812 158.45625 
L 316.345312 143.90325 
L 317.042812 143.90325 
L 317.740313 129.35025 
L 318.437813 129.35025 
L 319.135312 114.79725 
L 320.530312 114.79725 
L 321.227812 100.24425 
L 324.017812 100.24425 
L 324.715312 114.79725 
L 325.412812 114.79725 
L 326.110313 129.35025 
L 326.807813 114.79725 
L 327.505313 114.79725 
L 328.202812 100.24425 
L 330.295312 100.24425 
L 330.992813 85.69125 
L 333.782812 85.69125 
L 335.177813 56.58525 
L 336.572812 56.58525 
L 337.270312 42.03225 
L 337.967812 42.03225 
L 338.665312 56.58525 
L 340.757812 56.58525 
L 342.152812 85.69125 
L 342.850312 85.69125 
L 343.547813 100.24425 
L 344.942813 100.24425 
L 346.337812 129.35025 
L 347.035312 114.79725 
L 349.127813 114.79725 
L 349.825312 100.24425 
L 351.220312 129.35025 
L 354.707812 129.35025 
L 355.405312 143.90325 
L 356.102812 143.90325 
L 357.497813 114.79725 
L 358.195312 129.35025 
L 359.590312 129.35025 
L 360.985313 158.45625 
L 364.472812 85.69125 
L 365.170312 85.69125 
L 366.565313 56.58525 
L 367.960312 56.58525 
L 368.657812 71.13825 
L 369.355312 56.58525 
L 371.447812 56.58525 
L 372.145312 42.03225 
L 373.540312 42.03225 
L 374.237813 56.58525 
L 374.935313 56.58525 
L 375.632812 71.13825 
L 377.027812 71.13825 
L 377.725312 85.69125 
L 380.515312 85.69125 
L 381.910312 114.79725 
L 382.607812 100.24425 
L 384.700312 100.24425 
L 385.397812 85.69125 
L 386.095312 100.24425 
L 387.490313 100.24425 
L 388.187813 114.79725 
L 388.885312 100.24425 
L 392.372813 100.24425 
L 393.070312 85.69125 
L 393.767812 100.24425 
L 394.465312 100.24425 
L 395.162812 114.79725 
L 395.860313 114.79725 
L 396.557813 129.35025 
L 397.952812 100.24425 
L 398.650312 100.24425 
L 399.347812 85.69125 
L 400.045312 85.69125 
L 401.440313 114.79725 
L 402.835312 114.79725 
L 403.532812 100.24425 
L 404.230312 100.24425 
L 404.927813 85.69125 
L 405.625313 85.69125 
L 406.322812 71.13825 
L 407.020312 71.13825 
L 407.717812 56.58525 
L 409.810313 56.58525 
L 411.205312 85.69125 
L 413.297813 42.03225 
L 413.995313 56.58525 
L 418.180313 56.58525 
L 420.970312 114.79725 
L 422.365313 85.69125 
L 429.340312 85.69125 
L 431.432813 42.03225 
L 434.222812 42.03225 
L 435.617813 71.13825 
L 439.802813 71.13825 
L 441.895312 114.79725 
L 442.592812 114.79725 
L 443.290312 100.24425 
L 445.382812 100.24425 
L 447.475312 56.58525 
L 450.962812 56.58525 
L 453.055313 12.92625 
L 453.752813 27.47925 
L 464.215312 27.47925 
L 464.912812 12.92625 
L 475.375313 12.92625 
L 476.072812 27.47925 
L 480.257812 27.47925 
L 480.955312 42.03225 
L 485.140312 42.03225 
L 485.837812 56.58525 
L 486.535312 56.58525 
L 487.232812 42.03225 
L 491.417812 42.03225 
L 492.115313 27.47925 
L 493.510312 27.47925 
L 494.207812 42.03225 
L 496.300313 42.03225 
L 496.997813 27.47925 
L 500.485313 27.47925 
L 501.182813 42.03225 
L 503.275312 42.03225 
L 503.972812 43.97265 
L 503.972812 43.97265 
" style="fill: none; stroke: #a6a6a6; stroke-width: 2; stroke-linecap: square"/>
   </g>
   <g id="line2d_14">
    <path d="M 69.430313 153.452871 
L 70.127813 153.54696 
L 70.825313 148.499623 
L 71.522813 147.667724 
L 72.220313 155.933637 
L 72.917813 161.254755 
L 73.615313 154.614034 
L 74.312813 156.175996 
L 75.010313 157.137965 
L 75.707813 153.159846 
L 76.405313 155.937094 
L 77.102813 156.341302 
L 78.497813 160.034891 
L 79.195313 158.316383 
L 79.892813 163.075169 
L 80.590313 172.261895 
L 81.287813 173.531991 
L 81.985313 176.769118 
L 82.682813 177.654753 
L 83.380313 173.873333 
L 84.077813 177.643085 
L 84.775313 186.689869 
L 85.472813 187.342967 
L 86.170313 184.698851 
L 86.867813 187.802763 
L 87.565313 180.716727 
L 88.262813 177.436079 
L 88.960313 171.613825 
L 89.657813 174.032911 
L 91.052813 169.051306 
L 91.750313 165.23506 
L 92.447813 160.058097 
L 93.145313 157.256053 
L 93.842813 153.835108 
L 94.540313 154.716226 
L 95.237813 155.101126 
L 95.935313 153.120317 
L 96.632812 154.587255 
L 97.330313 157.49795 
L 98.027813 159.230098 
L 98.725313 161.989615 
L 99.422813 156.055789 
L 100.120313 155.51972 
L 100.817813 152.520972 
L 102.212813 159.925038 
L 102.910313 158.785858 
L 103.607813 162.030079 
L 104.305313 160.001121 
L 105.002813 163.923987 
L 105.700313 159.413744 
L 106.397813 160.37825 
L 107.095313 163.11373 
L 107.792813 163.723488 
L 108.490313 162.624484 
L 109.187813 160.848637 
L 109.885313 157.542435 
L 110.582813 167.751862 
L 111.280313 171.980566 
L 111.977813 174.50467 
L 112.675313 172.18957 
L 113.372813 175.458406 
L 114.070312 175.623622 
L 114.767813 179.292725 
L 115.465313 184.6686 
L 116.162813 182.320923 
L 116.860313 186.128511 
L 117.557813 176.211246 
L 118.255313 167.977164 
L 118.952813 162.481479 
L 119.650313 160.380471 
L 120.347813 160.456993 
L 121.045313 158.579088 
L 121.742813 155.308253 
L 122.440313 154.163331 
L 123.137813 145.15662 
L 123.835313 140.864376 
L 124.532813 138.073195 
L 125.230313 139.582622 
L 125.927813 138.274645 
L 127.322812 134.53664 
L 128.020313 135.089017 
L 128.717813 142.535114 
L 129.415312 146.065845 
L 130.112813 146.384789 
L 130.810313 142.726981 
L 131.507812 145.4238 
L 132.205313 148.763513 
L 132.902813 147.851034 
L 133.600313 142.052497 
L 134.297813 143.275451 
L 134.995313 147.190161 
L 135.692813 145.102312 
L 137.087813 134.089437 
L 137.785313 133.184689 
L 138.482813 127.636824 
L 139.180313 124.227678 
L 139.877813 118.711042 
L 140.575313 112.173589 
L 141.272813 119.7372 
L 141.970313 119.675849 
L 142.667813 117.424045 
L 143.365313 113.480796 
L 144.062813 115.679218 
L 144.760312 115.285934 
L 145.457813 112.618127 
L 146.155313 112.009996 
L 146.852812 104.953729 
L 147.550313 104.232819 
L 148.247813 104.052853 
L 148.945312 95.58461 
L 149.642813 100.054633 
L 150.340313 94.435285 
L 151.037813 92.318391 
L 151.735313 93.160964 
L 152.432813 82.035673 
L 153.130313 86.676491 
L 153.827813 86.68454 
L 154.525313 89.880649 
L 155.222813 81.09734 
L 155.920313 78.848819 
L 156.617813 78.577965 
L 157.315313 77.932233 
L 158.012813 77.596711 
L 158.710313 88.397826 
L 159.407813 92.12413 
L 160.105313 94.451568 
L 160.802813 94.401434 
L 161.500313 94.642229 
L 162.197812 93.39261 
L 162.895313 94.941565 
L 163.592813 105.579304 
L 164.290312 104.337323 
L 164.987813 105.334395 
L 165.685313 109.550287 
L 166.382812 116.471697 
L 167.080313 116.595993 
L 167.777813 121.18807 
L 168.475313 118.956471 
L 169.172813 123.06922 
L 169.870313 119.842731 
L 170.567813 112.222824 
L 171.265313 121.928175 
L 171.962813 118.691563 
L 173.357813 137.916288 
L 174.055313 135.806741 
L 174.752813 126.277131 
L 175.450313 126.097941 
L 176.147813 121.850323 
L 177.542813 108.328656 
L 178.240313 115.931804 
L 178.937813 118.008574 
L 179.635312 117.364365 
L 180.332813 123.799598 
L 181.030313 124.02588 
L 181.727812 126.262017 
L 182.425313 120.218353 
L 183.122813 122.880721 
L 183.820312 121.468813 
L 184.517813 111.292479 
L 185.215313 110.042001 
L 185.912813 109.563944 
L 186.610313 102.274789 
L 187.307813 104.728591 
L 188.005313 111.39929 
L 188.702813 120.379189 
L 189.400313 121.948774 
L 190.097813 121.879634 
L 190.795313 128.007388 
L 191.492813 124.3046 
L 192.190313 119.694762 
L 192.887813 126.466828 
L 193.585313 131.373162 
L 194.282813 133.138581 
L 194.980313 127.88822 
L 195.677813 135.154935 
L 197.770313 148.938597 
L 198.467813 150.453775 
L 199.862813 137.807059 
L 200.560313 136.417426 
L 201.257813 137.784607 
L 201.955313 132.497317 
L 203.350313 135.66477 
L 204.047813 134.114843 
L 204.745313 123.810105 
L 205.442813 120.358988 
L 206.140313 124.486041 
L 206.837813 124.553818 
L 207.535313 126.423743 
L 208.232813 120.632334 
L 208.930313 120.996921 
L 209.627813 113.739921 
L 210.325313 110.437542 
L 211.022813 111.145532 
L 211.720313 103.951161 
L 213.115313 93.472503 
L 213.812813 90.889988 
L 214.510313 89.442437 
L 215.207813 84.401481 
L 216.602813 102.699351 
L 217.300313 101.058362 
L 217.997813 103.698572 
L 218.695313 106.779669 
L 219.392813 112.103287 
L 220.090313 111.84408 
L 220.787813 115.420204 
L 221.485313 118.2808 
L 222.182813 119.375544 
L 222.880313 126.911328 
L 223.577813 125.973823 
L 224.275313 138.30283 
L 224.972813 140.119638 
L 225.670313 145.133508 
L 226.367813 149.196151 
L 227.065313 143.876834 
L 227.762813 139.82758 
L 228.460313 140.156985 
L 229.157813 134.684453 
L 229.855313 125.086938 
L 231.250313 117.211264 
L 231.947813 113.546603 
L 233.342813 121.966755 
L 234.040313 112.949014 
L 234.737813 110.71057 
L 235.435313 98.788878 
L 236.132813 103.115848 
L 236.830313 99.427259 
L 237.527813 101.295542 
L 238.225313 103.765093 
L 238.922813 105.200317 
L 239.620313 105.903466 
L 240.317813 109.196484 
L 241.015313 117.670318 
L 241.712813 122.152986 
L 242.410313 127.930801 
L 243.107813 131.169266 
L 243.805313 128.882591 
L 244.502813 130.454623 
L 245.200313 141.290573 
L 245.897813 150.356707 
L 246.595313 157.46282 
L 247.292813 157.911524 
L 247.990313 159.251748 
L 248.687813 157.43727 
L 249.385313 161.424906 
L 250.082813 156.729246 
L 250.780313 156.646607 
L 251.477813 155.070507 
L 252.175313 153.778123 
L 252.872813 159.084741 
L 253.570313 153.951192 
L 254.267813 153.944104 
L 254.965313 159.476251 
L 255.662813 158.423542 
L 256.360313 150.617352 
L 257.057813 141.375921 
L 257.755313 138.903452 
L 258.452812 131.845479 
L 259.150312 136.161932 
L 259.847813 138.589026 
L 261.242813 130.196881 
L 261.940313 124.083357 
L 262.637812 121.814677 
L 263.335312 124.807302 
L 264.032812 119.994701 
L 264.730313 119.175206 
L 265.427813 114.494025 
L 266.125313 114.882433 
L 266.822812 114.246763 
L 267.520312 118.221519 
L 268.217812 126.490242 
L 268.915313 130.700106 
L 269.612813 130.646381 
L 270.310313 129.570749 
L 271.007812 128.227315 
L 271.705312 131.727601 
L 272.402812 140.302061 
L 273.100313 146.216462 
L 273.797813 142.212462 
L 274.495313 140.504667 
L 275.192813 143.820618 
L 275.890312 151.39584 
L 276.587812 155.479971 
L 277.285313 144.677247 
L 277.982813 143.620413 
L 278.680313 139.515117 
L 279.377813 132.326692 
L 280.772812 140.865368 
L 281.470312 137.303907 
L 282.167813 132.528563 
L 282.865313 131.095111 
L 283.562813 132.121134 
L 284.260312 132.454179 
L 284.957812 137.178163 
L 285.655312 136.479879 
L 287.050313 130.548271 
L 287.747813 125.531509 
L 288.445312 128.719074 
L 289.142812 129.294462 
L 289.840312 131.03618 
L 290.537813 130.338241 
L 291.235313 123.677614 
L 291.932813 113.623788 
L 292.630313 106.588529 
L 293.327812 102.832546 
L 294.025312 92.7625 
L 295.420313 82.745956 
L 296.117813 85.833379 
L 296.815313 85.685756 
L 297.512812 85.687927 
L 298.210312 85.065648 
L 298.907813 85.931053 
L 299.605313 82.503406 
L 300.302813 74.852483 
L 301.000313 81.273168 
L 301.697812 81.100152 
L 302.395312 76.542926 
L 303.092812 82.780661 
L 303.790313 92.405955 
L 304.487813 99.721128 
L 305.185313 104.055536 
L 305.882812 105.974836 
L 306.580312 115.703246 
L 307.277812 116.878643 
L 307.975313 116.114066 
L 308.672813 117.613062 
L 309.370313 120.000296 
L 310.765312 137.792336 
L 311.462812 145.232808 
L 312.160313 141.086323 
L 312.857813 147.263874 
L 313.555313 149.664767 
L 314.252813 148.103031 
L 314.950312 147.579316 
L 315.647812 147.527971 
L 316.345312 155.478436 
L 317.042812 158.195508 
L 317.740313 158.640536 
L 319.135312 145.562842 
L 319.832812 140.728828 
L 320.530312 138.314277 
L 321.227812 128.883304 
L 321.925313 127.679473 
L 322.622813 120.039969 
L 323.320312 114.122669 
L 324.715312 120.997205 
L 325.412812 118.943252 
L 326.110313 122.494425 
L 326.807813 123.760855 
L 327.505313 121.348223 
L 328.202812 111.301617 
L 328.900312 99.581706 
L 329.597812 101.199768 
L 330.295312 100.451978 
L 331.690313 92.196483 
L 332.387812 91.454025 
L 333.085312 82.489166 
L 333.782812 81.804493 
L 334.480312 82.899937 
L 335.177813 72.46078 
L 336.572812 81.394264 
L 337.967812 62.400011 
L 338.665312 66.440555 
L 340.060313 66.036325 
L 341.455312 69.272834 
L 342.152812 77.775984 
L 342.850312 79.343482 
L 343.547813 87.799356 
L 345.640312 117.109246 
L 346.337812 124.649504 
L 347.035312 123.679857 
L 347.732812 118.777224 
L 348.430313 120.35777 
L 349.127813 120.403974 
L 349.825312 106.356726 
L 351.220312 125.058698 
L 351.917812 126.991365 
L 352.615313 135.478798 
L 353.312813 137.676155 
L 354.010312 135.614311 
L 354.707812 133.204371 
L 356.102812 120.773843 
L 356.800313 110.199776 
L 357.497813 105.326294 
L 358.195312 95.680462 
L 358.892812 99.545361 
L 359.590312 102.143648 
L 360.287812 111.188013 
L 360.985313 116.022531 
L 362.380313 99.842031 
L 363.077812 91.45891 
L 363.775312 87.059308 
L 365.170312 89.74209 
L 365.867813 83.398618 
L 366.565313 80.285338 
L 367.262812 87.789038 
L 367.960312 91.914941 
L 368.657812 90.622702 
L 369.355312 88.570615 
L 370.052813 82.496894 
L 370.750313 82.186116 
L 371.447812 75.728024 
L 372.145312 76.97991 
L 372.842812 76.819662 
L 373.540312 74.740414 
L 374.237813 81.70105 
L 374.935313 75.788474 
L 375.632812 71.592545 
L 376.330312 80.248427 
L 377.027812 81.0873 
L 377.725312 93.564214 
L 378.422813 91.58879 
L 379.120313 93.334401 
L 380.515312 108.670767 
L 381.212812 118.284535 
L 381.910312 120.612441 
L 382.607812 125.189669 
L 383.305313 122.369747 
L 384.002813 131.038675 
L 384.700312 134.175131 
L 385.397812 131.611267 
L 386.095312 137.606483 
L 386.792812 134.850249 
L 387.490313 129.63275 
L 388.187813 138.971825 
L 388.885312 131.825568 
L 389.582812 132.519403 
L 390.977812 139.111622 
L 391.675313 140.028844 
L 392.372813 138.039229 
L 393.070312 133.361857 
L 393.767812 139.001696 
L 394.465312 139.540277 
L 395.162812 137.277455 
L 395.860313 140.258008 
L 396.557813 136.717858 
L 397.255313 130.610163 
L 397.952812 131.82359 
L 398.650312 128.771247 
L 400.045312 118.304875 
L 400.742813 110.204976 
L 402.137812 86.623691 
L 402.835312 80.271221 
L 403.532812 72.777404 
L 404.230312 69.20534 
L 404.927813 56.228348 
L 405.625313 52.371976 
L 407.020312 38.325471 
L 407.717812 38.497476 
L 408.415312 37.870429 
L 409.112813 34.297163 
L 409.810313 37.707831 
L 411.205312 50.634707 
L 411.902812 49.904115 
L 412.600312 50.051841 
L 413.297813 50.686013 
L 413.995313 50.62307 
L 415.390312 49.937697 
L 416.087812 49.048634 
L 416.785312 62.602807 
L 417.482812 65.986733 
L 418.180313 66.559356 
L 418.877813 76.280641 
L 419.575312 81.698576 
L 420.272812 88.748906 
L 420.970312 94.165113 
L 421.667812 90.064115 
L 422.365313 84.055034 
L 423.062813 84.387822 
L 423.760312 85.533538 
L 424.457812 84.950916 
L 425.155312 92.765146 
L 425.852812 93.430179 
L 426.550313 97.683395 
L 427.247813 98.002765 
L 427.945312 85.528152 
L 428.642812 89.076985 
L 429.340312 91.719828 
L 430.037812 80.495253 
L 430.735313 76.038605 
L 432.827812 58.060421 
L 434.222812 74.599791 
L 434.920312 84.232517 
L 435.617813 92.103821 
L 436.315313 82.556702 
L 437.012812 82.258319 
L 437.710312 78.17226 
L 438.407812 84.624584 
L 439.105312 86.968509 
L 439.802813 80.092113 
L 440.500313 79.986233 
L 441.197812 84.893464 
L 441.895312 95.111514 
L 442.592812 97.705831 
L 443.290312 94.491828 
L 443.987813 92.708373 
L 444.685313 96.206923 
L 445.382812 86.855634 
L 446.777812 72.843978 
L 447.475312 74.021343 
L 448.172813 73.561604 
L 448.870313 73.618938 
L 449.567813 67.100304 
L 450.265312 63.542943 
L 450.962812 66.580473 
L 451.660312 63.022612 
L 452.357812 58.643342 
L 453.055313 47.493489 
L 453.752813 49.115613 
L 454.450312 49.487678 
L 455.147812 50.123926 
L 455.845312 38.027104 
L 456.542812 39.145474 
L 457.240313 36.720496 
L 458.635312 34.597724 
L 459.332812 35.554224 
L 460.030312 48.132895 
L 460.727812 55.180744 
L 461.425313 56.580302 
L 462.122813 53.930992 
L 462.820312 63.888291 
L 463.517812 66.394317 
L 464.215312 78.090767 
L 464.912812 71.181555 
L 465.610313 70.908071 
L 466.307813 69.984844 
L 467.005313 74.160821 
L 467.702812 76.675759 
L 468.400312 75.184418 
L 469.097812 75.357973 
L 469.795312 75.073432 
L 470.492813 74.248365 
L 471.190313 61.08138 
L 471.887812 57.683105 
L 472.585312 56.257144 
L 473.282812 55.873014 
L 473.980312 48.264899 
L 474.677813 45.044747 
L 475.375313 33.272902 
L 476.072812 44.466222 
L 476.770312 43.394869 
L 477.467812 45.08485 
L 478.165312 40.736262 
L 479.560313 40.537755 
L 480.257812 42.483823 
L 480.955312 46.336712 
L 481.652812 49.335358 
L 482.350312 49.405958 
L 483.047813 48.930458 
L 483.745313 49.07197 
L 484.442813 53.742315 
L 485.140312 55.716559 
L 485.837812 59.73353 
L 486.535312 59.870564 
L 487.232812 49.535328 
L 487.930313 49.145852 
L 488.627813 47.070891 
L 489.325312 47.136589 
L 490.022812 49.98507 
L 490.720312 50.009434 
L 491.417812 48.570399 
L 492.115313 44.539082 
L 492.812813 41.45806 
L 493.510312 42.80743 
L 494.207812 45.758642 
L 494.905312 46.103912 
L 495.602812 41.325487 
L 496.300313 41.397965 
L 496.997813 47.169283 
L 497.695312 47.382345 
L 498.392812 45.11779 
L 499.090312 52.195234 
L 499.787812 51.88845 
L 500.485313 63.066205 
L 501.182813 59.752196 
L 501.880313 60.457329 
L 502.577812 66.361276 
L 503.275312 67.106075 
L 503.972812 70.586978 
L 503.972812 70.586978 
" style="fill: none; stroke: #b38665; stroke-width: 2; stroke-linecap: square"/>
   </g>
   <g id="line2d_15">
    <path d="M 102.910313 245.77425 
L 102.910313 12.92625 
" clip-path="url(#pd72cf6652c)" style="fill: none; stroke-dasharray: 3.7,1.6; stroke-dashoffset: 0; stroke: #808080; stroke-opacity: 0.3"/>
   </g>
   <g id="line2d_16">
    <path d="M 147.550313 245.77425 
L 147.550313 12.92625 
" clip-path="url(#pd72cf6652c)" style="fill: none; stroke-dasharray: 3.7,1.6; stroke-dashoffset: 0; stroke: #808080; stroke-opacity: 0.3"/>
   </g>
   <g id="line2d_17">
    <path d="M 192.190313 245.77425 
L 192.190313 12.92625 
" clip-path="url(#pd72cf6652c)" style="fill: none; stroke-dasharray: 3.7,1.6; stroke-dashoffset: 0; stroke: #808080; stroke-opacity: 0.3"/>
   </g>
   <g id="line2d_18">
    <path d="M 236.830313 245.77425 
L 236.830313 12.92625 
" clip-path="url(#pd72cf6652c)" style="fill: none; stroke-dasharray: 3.7,1.6; stroke-dashoffset: 0; stroke: #808080; stroke-opacity: 0.3"/>
   </g>
   <g id="line2d_19">
    <path d="M 281.470312 245.77425 
L 281.470312 12.92625 
" clip-path="url(#pd72cf6652c)" style="fill: none; stroke-dasharray: 3.7,1.6; stroke-dashoffset: 0; stroke: #808080; stroke-opacity: 0.3"/>
   </g>
   <g id="line2d_20">
    <path d="M 326.110313 245.77425 
L 326.110313 12.92625 
" clip-path="url(#pd72cf6652c)" style="fill: none; stroke-dasharray: 3.7,1.6; stroke-dashoffset: 0; stroke: #808080; stroke-opacity: 0.3"/>
   </g>
   <g id="line2d_21">
    <path d="M 370.750313 245.77425 
L 370.750313 12.92625 
" clip-path="url(#pd72cf6652c)" style="fill: none; stroke-dasharray: 3.7,1.6; stroke-dashoffset: 0; stroke: #808080; stroke-opacity: 0.3"/>
   </g>
   <g id="line2d_22">
    <path d="M 415.390312 245.77425 
L 415.390312 12.92625 
" clip-path="url(#pd72cf6652c)" style="fill: none; stroke-dasharray: 3.7,1.6; stroke-dashoffset: 0; stroke: #808080; stroke-opacity: 0.3"/>
   </g>
   <g id="line2d_23">
    <path d="M 460.030312 245.77425 
L 460.030312 12.92625 
" clip-path="url(#pd72cf6652c)" style="fill: none; stroke-dasharray: 3.7,1.6; stroke-dashoffset: 0; stroke: #808080; stroke-opacity: 0.3"/>
   </g>
   <g id="patch_3">
    <path d="M 58.270313 245.77425 
L 58.270313 12.92625 
" style="fill: none; stroke: #000000; stroke-width: 2; stroke-linejoin: miter; stroke-linecap: square"/>
   </g>
   <g id="patch_4">
    <path d="M 58.270313 245.77425 
L 504.670312 245.77425 
" style="fill: none; stroke: #000000; stroke-width: 2; stroke-linejoin: miter; stroke-linecap: square"/>
   </g>
   <g id="text_15">
    <!-- S14 -->
    <g transform="translate(76.253938 36.89301) scale(0.2 -0.2)">
     <defs>
      <path id="ArialMT-53" d="M 288 1472 
L 859 1522 
Q 900 1178 1048 958 
Q 1197 738 1509 602 
Q 1822 466 2213 466 
Q 2559 466 2825 569 
Q 3091 672 3220 851 
Q 3350 1031 3350 1244 
Q 3350 1459 3225 1620 
Q 3100 1781 2813 1891 
Q 2628 1963 1997 2114 
Q 1366 2266 1113 2400 
Q 784 2572 623 2826 
Q 463 3081 463 3397 
Q 463 3744 659 4045 
Q 856 4347 1234 4503 
Q 1613 4659 2075 4659 
Q 2584 4659 2973 4495 
Q 3363 4331 3572 4012 
Q 3781 3694 3797 3291 
L 3216 3247 
Q 3169 3681 2898 3903 
Q 2628 4125 2100 4125 
Q 1550 4125 1298 3923 
Q 1047 3722 1047 3438 
Q 1047 3191 1225 3031 
Q 1400 2872 2139 2705 
Q 2878 2538 3153 2413 
Q 3553 2228 3743 1945 
Q 3934 1663 3934 1294 
Q 3934 928 3725 604 
Q 3516 281 3123 101 
Q 2731 -78 2241 -78 
Q 1619 -78 1198 103 
Q 778 284 539 648 
Q 300 1013 288 1472 
z
" transform="scale(0.015625)"/>
     </defs>
     <use xlink:href="#ArialMT-53"/>
     <use xlink:href="#ArialMT-31" x="66.699219"/>
     <use xlink:href="#ArialMT-34" x="122.314453"/>
    </g>
   </g>
   <g id="legend_1">
    <g id="patch_5">
     <path d="M 448.210312 230.355787 
L 544.561875 230.355787 
Q 547.561875 230.355787 547.561875 227.355787 
L 547.561875 186.41985 
Q 547.561875 183.41985 544.561875 183.41985 
L 448.210312 183.41985 
Q 445.210312 183.41985 445.210312 186.41985 
L 445.210312 227.355787 
Q 445.210312 230.355787 448.210312 230.355787 
L 448.210312 230.355787 
z
" style="fill: none; opacity: 0"/>
    </g>
    <g id="line2d_24">
     <path d="M 451.210312 194.906569 
L 466.210312 194.906569 
L 481.210312 194.906569 
" style="fill: none; stroke: #a6a6a6; stroke-width: 2; stroke-linecap: square"/>
    </g>
    <g id="text_16">
     <!-- Human -->
     <g transform="translate(493.210312 200.156569) scale(0.15 -0.15)">
      <defs>
       <path id="ArialMT-48" d="M 513 0 
L 513 4581 
L 1119 4581 
L 1119 2700 
L 3500 2700 
L 3500 4581 
L 4106 4581 
L 4106 0 
L 3500 0 
L 3500 2159 
L 1119 2159 
L 1119 0 
L 513 0 
z
" transform="scale(0.015625)"/>
       <path id="ArialMT-75" d="M 2597 0 
L 2597 488 
Q 2209 -75 1544 -75 
Q 1250 -75 995 37 
Q 741 150 617 320 
Q 494 491 444 738 
Q 409 903 409 1263 
L 409 3319 
L 972 3319 
L 972 1478 
Q 972 1038 1006 884 
Q 1059 663 1231 536 
Q 1403 409 1656 409 
Q 1909 409 2131 539 
Q 2353 669 2445 892 
Q 2538 1116 2538 1541 
L 2538 3319 
L 3100 3319 
L 3100 0 
L 2597 0 
z
" transform="scale(0.015625)"/>
      </defs>
      <use xlink:href="#ArialMT-48"/>
      <use xlink:href="#ArialMT-75" x="72.216797"/>
      <use xlink:href="#ArialMT-6d" x="127.832031"/>
      <use xlink:href="#ArialMT-61" x="211.132812"/>
      <use xlink:href="#ArialMT-6e" x="266.748047"/>
     </g>
    </g>
    <g id="line2d_25">
     <path d="M 451.210312 216.124537 
L 466.210312 216.124537 
L 481.210312 216.124537 
" style="fill: none; stroke: #b38665; stroke-width: 2; stroke-linecap: square"/>
    </g>
    <g id="text_17">
     <!-- PMH -->
     <g transform="translate(493.210312 221.374537) scale(0.15 -0.15)">
      <defs>
       <path id="ArialMT-50" d="M 494 0 
L 494 4581 
L 2222 4581 
Q 2678 4581 2919 4538 
Q 3256 4481 3484 4323 
Q 3713 4166 3852 3881 
Q 3991 3597 3991 3256 
Q 3991 2672 3619 2267 
Q 3247 1863 2275 1863 
L 1100 1863 
L 1100 0 
L 494 0 
z
M 1100 2403 
L 2284 2403 
Q 2872 2403 3119 2622 
Q 3366 2841 3366 3238 
Q 3366 3525 3220 3729 
Q 3075 3934 2838 4000 
Q 2684 4041 2272 4041 
L 1100 4041 
L 1100 2403 
z
" transform="scale(0.015625)"/>
       <path id="ArialMT-4d" d="M 475 0 
L 475 4581 
L 1388 4581 
L 2472 1338 
Q 2622 884 2691 659 
Q 2769 909 2934 1394 
L 4031 4581 
L 4847 4581 
L 4847 0 
L 4263 0 
L 4263 3834 
L 2931 0 
L 2384 0 
L 1059 3900 
L 1059 0 
L 475 0 
z
" transform="scale(0.015625)"/>
      </defs>
      <use xlink:href="#ArialMT-50"/>
      <use xlink:href="#ArialMT-4d" x="66.699219"/>
      <use xlink:href="#ArialMT-48" x="150"/>
     </g>
    </g>
   </g>
  </g>
 </g>
 <defs>
  <clipPath id="pd72cf6652c">
   <rect x="58.270313" y="12.92625" width="446.4" height="232.848"/>
  </clipPath>
 </defs>
</svg>
