<?xml version="1.0" encoding="utf-8" standalone="no"?>
<!DOCTYPE svg PUBLIC "-//W3C//DTD SVG 1.1//EN"
  "http://www.w3.org/Graphics/SVG/1.1/DTD/svg11.dtd">
<svg xmlns:xlink="http://www.w3.org/1999/xlink" width="554.530313pt" height="246.086844pt" viewBox="0 0 554.530313 246.086844" xmlns="http://www.w3.org/2000/svg" version="1.1">
 <metadata>
  <rdf:RDF xmlns:dc="http://purl.org/dc/elements/1.1/" xmlns:cc="http://creativecommons.org/ns#" xmlns:rdf="http://www.w3.org/1999/02/22-rdf-syntax-ns#">
   <cc:Work>
    <dc:type rdf:resource="http://purl.org/dc/dcmitype/StillImage"/>
    <dc:date>2025-05-15T10:14:40.220402</dc:date>
    <dc:format>image/svg+xml</dc:format>
    <dc:creator>
     <cc:Agent>
      <dc:title>Matplotlib v3.8.4, https://matplotlib.org/</dc:title>
     </cc:Agent>
    </dc:creator>
   </cc:Work>
  </rdf:RDF>
 </metadata>
 <defs>
  <style type="text/css">*{stroke-linejoin: round; stroke-linecap: butt}</style>
 </defs>
 <g id="figure_1">
  <g id="patch_1">
   <path d="M 0 246.086844 
L 554.530313 246.086844 
L 554.530313 0 
L 0 0 
L 0 246.086844 
z
" style="fill: none"/>
  </g>
  <g id="axes_1">
   <g id="patch_2">
    <path d="M 58.03875 195.87825 
L 504.43875 195.87825 
L 504.43875 12.92625 
L 58.03875 12.92625 
L 58.03875 195.87825 
z
" style="fill: none"/>
   </g>
   <g id="matplotlib.axis_1">
    <g id="xtick_1">
     <g id="line2d_1">
      <defs>
       <path id="m39967b1231" d="M 0 0 
L 0 3.5 
" style="stroke: #000000; stroke-width: 0.8"/>
      </defs>
      <g>
       <use xlink:href="#m39967b1231" x="58.03875" y="195.87825" style="stroke: #000000; stroke-width: 0.8"/>
      </g>
     </g>
     <g id="text_1">
      <!-- 0 -->
      <g transform="translate(53.59 214.33075) scale(0.16 -0.16)">
       <defs>
        <path id="ArialMT-30" d="M 266 2259 
Q 266 3072 433 3567 
Q 600 4063 929 4331 
Q 1259 4600 1759 4600 
Q 2128 4600 2406 4451 
Q 2684 4303 2865 4023 
Q 3047 3744 3150 3342 
Q 3253 2941 3253 2259 
Q 3253 1453 3087 958 
Q 2922 463 2592 192 
Q 2263 -78 1759 -78 
Q 1097 -78 719 397 
Q 266 969 266 2259 
z
M 844 2259 
Q 844 1131 1108 757 
Q 1372 384 1759 384 
Q 2147 384 2411 759 
Q 2675 1134 2675 2259 
Q 2675 3391 2411 3762 
Q 2147 4134 1753 4134 
Q 1366 4134 1134 3806 
Q 844 3388 844 2259 
z
" transform="scale(0.015625)"/>
       </defs>
       <use xlink:href="#ArialMT-30"/>
      </g>
     </g>
    </g>
    <g id="xtick_2">
     <g id="line2d_2">
      <g>
       <use xlink:href="#m39967b1231" x="139.087261" y="195.87825" style="stroke: #000000; stroke-width: 0.8"/>
      </g>
     </g>
     <g id="text_2">
      <!-- 128 -->
      <g transform="translate(125.741011 214.33075) scale(0.16 -0.16)">
       <defs>
        <path id="ArialMT-31" d="M 2384 0 
L 1822 0 
L 1822 3584 
Q 1619 3391 1289 3197 
Q 959 3003 697 2906 
L 697 3450 
Q 1169 3672 1522 3987 
Q 1875 4303 2022 4600 
L 2384 4600 
L 2384 0 
z
" transform="scale(0.015625)"/>
        <path id="ArialMT-32" d="M 3222 541 
L 3222 0 
L 194 0 
Q 188 203 259 391 
Q 375 700 629 1000 
Q 884 1300 1366 1694 
Q 2113 2306 2375 2664 
Q 2638 3022 2638 3341 
Q 2638 3675 2398 3904 
Q 2159 4134 1775 4134 
Q 1369 4134 1125 3890 
Q 881 3647 878 3216 
L 300 3275 
Q 359 3922 746 4261 
Q 1134 4600 1788 4600 
Q 2447 4600 2831 4234 
Q 3216 3869 3216 3328 
Q 3216 3053 3103 2787 
Q 2991 2522 2730 2228 
Q 2469 1934 1863 1422 
Q 1356 997 1212 845 
Q 1069 694 975 541 
L 3222 541 
z
" transform="scale(0.015625)"/>
        <path id="ArialMT-38" d="M 1131 2484 
Q 781 2613 612 2850 
Q 444 3088 444 3419 
Q 444 3919 803 4259 
Q 1163 4600 1759 4600 
Q 2359 4600 2725 4251 
Q 3091 3903 3091 3403 
Q 3091 3084 2923 2848 
Q 2756 2613 2416 2484 
Q 2838 2347 3058 2040 
Q 3278 1734 3278 1309 
Q 3278 722 2862 322 
Q 2447 -78 1769 -78 
Q 1091 -78 675 323 
Q 259 725 259 1325 
Q 259 1772 486 2073 
Q 713 2375 1131 2484 
z
M 1019 3438 
Q 1019 3113 1228 2906 
Q 1438 2700 1772 2700 
Q 2097 2700 2305 2904 
Q 2513 3109 2513 3406 
Q 2513 3716 2298 3927 
Q 2084 4138 1766 4138 
Q 1444 4138 1231 3931 
Q 1019 3725 1019 3438 
z
M 838 1322 
Q 838 1081 952 856 
Q 1066 631 1291 507 
Q 1516 384 1775 384 
Q 2178 384 2440 643 
Q 2703 903 2703 1303 
Q 2703 1709 2433 1975 
Q 2163 2241 1756 2241 
Q 1359 2241 1098 1978 
Q 838 1716 838 1322 
z
" transform="scale(0.015625)"/>
       </defs>
       <use xlink:href="#ArialMT-31"/>
       <use xlink:href="#ArialMT-32" x="55.615234"/>
       <use xlink:href="#ArialMT-38" x="111.230469"/>
      </g>
     </g>
    </g>
    <g id="xtick_3">
     <g id="line2d_3">
      <g>
       <use xlink:href="#m39967b1231" x="220.135771" y="195.87825" style="stroke: #000000; stroke-width: 0.8"/>
      </g>
     </g>
     <g id="text_3">
      <!-- 256 -->
      <g transform="translate(206.789521 214.33075) scale(0.16 -0.16)">
       <defs>
        <path id="ArialMT-35" d="M 266 1200 
L 856 1250 
Q 922 819 1161 601 
Q 1400 384 1738 384 
Q 2144 384 2425 690 
Q 2706 997 2706 1503 
Q 2706 1984 2436 2262 
Q 2166 2541 1728 2541 
Q 1456 2541 1237 2417 
Q 1019 2294 894 2097 
L 366 2166 
L 809 4519 
L 3088 4519 
L 3088 3981 
L 1259 3981 
L 1013 2750 
Q 1425 3038 1878 3038 
Q 2478 3038 2890 2622 
Q 3303 2206 3303 1553 
Q 3303 931 2941 478 
Q 2500 -78 1738 -78 
Q 1113 -78 717 272 
Q 322 622 266 1200 
z
" transform="scale(0.015625)"/>
        <path id="ArialMT-36" d="M 3184 3459 
L 2625 3416 
Q 2550 3747 2413 3897 
Q 2184 4138 1850 4138 
Q 1581 4138 1378 3988 
Q 1113 3794 959 3422 
Q 806 3050 800 2363 
Q 1003 2672 1297 2822 
Q 1591 2972 1913 2972 
Q 2475 2972 2870 2558 
Q 3266 2144 3266 1488 
Q 3266 1056 3080 686 
Q 2894 316 2569 119 
Q 2244 -78 1831 -78 
Q 1128 -78 684 439 
Q 241 956 241 2144 
Q 241 3472 731 4075 
Q 1159 4600 1884 4600 
Q 2425 4600 2770 4297 
Q 3116 3994 3184 3459 
z
M 888 1484 
Q 888 1194 1011 928 
Q 1134 663 1356 523 
Q 1578 384 1822 384 
Q 2178 384 2434 671 
Q 2691 959 2691 1453 
Q 2691 1928 2437 2201 
Q 2184 2475 1800 2475 
Q 1419 2475 1153 2201 
Q 888 1928 888 1484 
z
" transform="scale(0.015625)"/>
       </defs>
       <use xlink:href="#ArialMT-32"/>
       <use xlink:href="#ArialMT-35" x="55.615234"/>
       <use xlink:href="#ArialMT-36" x="111.230469"/>
      </g>
     </g>
    </g>
    <g id="xtick_4">
     <g id="line2d_4">
      <g>
       <use xlink:href="#m39967b1231" x="301.184282" y="195.87825" style="stroke: #000000; stroke-width: 0.8"/>
      </g>
     </g>
     <g id="text_4">
      <!-- 384 -->
      <g transform="translate(287.838032 214.33075) scale(0.16 -0.16)">
       <defs>
        <path id="ArialMT-33" d="M 269 1209 
L 831 1284 
Q 928 806 1161 595 
Q 1394 384 1728 384 
Q 2125 384 2398 659 
Q 2672 934 2672 1341 
Q 2672 1728 2419 1979 
Q 2166 2231 1775 2231 
Q 1616 2231 1378 2169 
L 1441 2663 
Q 1497 2656 1531 2656 
Q 1891 2656 2178 2843 
Q 2466 3031 2466 3422 
Q 2466 3731 2256 3934 
Q 2047 4138 1716 4138 
Q 1388 4138 1169 3931 
Q 950 3725 888 3313 
L 325 3413 
Q 428 3978 793 4289 
Q 1159 4600 1703 4600 
Q 2078 4600 2393 4439 
Q 2709 4278 2876 4000 
Q 3044 3722 3044 3409 
Q 3044 3113 2884 2869 
Q 2725 2625 2413 2481 
Q 2819 2388 3044 2092 
Q 3269 1797 3269 1353 
Q 3269 753 2831 336 
Q 2394 -81 1725 -81 
Q 1122 -81 723 278 
Q 325 638 269 1209 
z
" transform="scale(0.015625)"/>
        <path id="ArialMT-34" d="M 2069 0 
L 2069 1097 
L 81 1097 
L 81 1613 
L 2172 4581 
L 2631 4581 
L 2631 1613 
L 3250 1613 
L 3250 1097 
L 2631 1097 
L 2631 0 
L 2069 0 
z
M 2069 1613 
L 2069 3678 
L 634 1613 
L 2069 1613 
z
" transform="scale(0.015625)"/>
       </defs>
       <use xlink:href="#ArialMT-33"/>
       <use xlink:href="#ArialMT-38" x="55.615234"/>
       <use xlink:href="#ArialMT-34" x="111.230469"/>
      </g>
     </g>
    </g>
    <g id="xtick_5">
     <g id="line2d_5">
      <g>
       <use xlink:href="#m39967b1231" x="382.232793" y="195.87825" style="stroke: #000000; stroke-width: 0.8"/>
      </g>
     </g>
     <g id="text_5">
      <!-- 512 -->
      <g transform="translate(368.886543 214.33075) scale(0.16 -0.16)">
       <use xlink:href="#ArialMT-35"/>
       <use xlink:href="#ArialMT-31" x="55.615234"/>
       <use xlink:href="#ArialMT-32" x="111.230469"/>
      </g>
     </g>
    </g>
    <g id="xtick_6">
     <g id="line2d_6">
      <g>
       <use xlink:href="#m39967b1231" x="463.281303" y="195.87825" style="stroke: #000000; stroke-width: 0.8"/>
      </g>
     </g>
     <g id="text_6">
      <!-- 640 -->
      <g transform="translate(449.935053 214.33075) scale(0.16 -0.16)">
       <use xlink:href="#ArialMT-36"/>
       <use xlink:href="#ArialMT-34" x="55.615234"/>
       <use xlink:href="#ArialMT-30" x="111.230469"/>
      </g>
     </g>
    </g>
    <g id="text_7">
     <!-- Trial -->
     <g transform="translate(263.124922 235.110594) scale(0.19 -0.19)">
      <defs>
       <path id="ArialMT-54" d="M 1659 0 
L 1659 4041 
L 150 4041 
L 150 4581 
L 3781 4581 
L 3781 4041 
L 2266 4041 
L 2266 0 
L 1659 0 
z
" transform="scale(0.015625)"/>
       <path id="ArialMT-72" d="M 416 0 
L 416 3319 
L 922 3319 
L 922 2816 
Q 1116 3169 1280 3281 
Q 1444 3394 1641 3394 
Q 1925 3394 2219 3213 
L 2025 2691 
Q 1819 2813 1613 2813 
Q 1428 2813 1281 2702 
Q 1134 2591 1072 2394 
Q 978 2094 978 1738 
L 978 0 
L 416 0 
z
" transform="scale(0.015625)"/>
       <path id="ArialMT-69" d="M 425 3934 
L 425 4581 
L 988 4581 
L 988 3934 
L 425 3934 
z
M 425 0 
L 425 3319 
L 988 3319 
L 988 0 
L 425 0 
z
" transform="scale(0.015625)"/>
       <path id="ArialMT-61" d="M 2588 409 
Q 2275 144 1986 34 
Q 1697 -75 1366 -75 
Q 819 -75 525 192 
Q 231 459 231 875 
Q 231 1119 342 1320 
Q 453 1522 633 1644 
Q 813 1766 1038 1828 
Q 1203 1872 1538 1913 
Q 2219 1994 2541 2106 
Q 2544 2222 2544 2253 
Q 2544 2597 2384 2738 
Q 2169 2928 1744 2928 
Q 1347 2928 1158 2789 
Q 969 2650 878 2297 
L 328 2372 
Q 403 2725 575 2942 
Q 747 3159 1072 3276 
Q 1397 3394 1825 3394 
Q 2250 3394 2515 3294 
Q 2781 3194 2906 3042 
Q 3031 2891 3081 2659 
Q 3109 2516 3109 2141 
L 3109 1391 
Q 3109 606 3145 398 
Q 3181 191 3288 0 
L 2700 0 
Q 2613 175 2588 409 
z
M 2541 1666 
Q 2234 1541 1622 1453 
Q 1275 1403 1131 1340 
Q 988 1278 909 1158 
Q 831 1038 831 891 
Q 831 666 1001 516 
Q 1172 366 1500 366 
Q 1825 366 2078 508 
Q 2331 650 2450 897 
Q 2541 1088 2541 1459 
L 2541 1666 
z
" transform="scale(0.015625)"/>
       <path id="ArialMT-6c" d="M 409 0 
L 409 4581 
L 972 4581 
L 972 0 
L 409 0 
z
" transform="scale(0.015625)"/>
      </defs>
      <use xlink:href="#ArialMT-54"/>
      <use xlink:href="#ArialMT-72" x="57.333984"/>
      <use xlink:href="#ArialMT-69" x="90.634766"/>
      <use xlink:href="#ArialMT-61" x="112.851562"/>
      <use xlink:href="#ArialMT-6c" x="168.466797"/>
     </g>
    </g>
   </g>
   <g id="matplotlib.axis_2">
    <g id="ytick_1">
     <g id="line2d_7">
      <defs>
       <path id="m8bac35fbd4" d="M 0 0 
L -3.5 0 
" style="stroke: #000000; stroke-width: 0.8"/>
      </defs>
      <g>
       <use xlink:href="#m8bac35fbd4" x="58.03875" y="195.87825" style="stroke: #000000; stroke-width: 0.8"/>
      </g>
     </g>
     <g id="text_8">
      <!-- 0.0 -->
      <g transform="translate(28.79875 201.6045) scale(0.16 -0.16)">
       <defs>
        <path id="ArialMT-2e" d="M 581 0 
L 581 641 
L 1222 641 
L 1222 0 
L 581 0 
z
" transform="scale(0.015625)"/>
       </defs>
       <use xlink:href="#ArialMT-30"/>
       <use xlink:href="#ArialMT-2e" x="55.615234"/>
       <use xlink:href="#ArialMT-30" x="83.398438"/>
      </g>
     </g>
    </g>
    <g id="ytick_2">
     <g id="line2d_8">
      <g>
       <use xlink:href="#m8bac35fbd4" x="58.03875" y="159.28785" style="stroke: #000000; stroke-width: 0.8"/>
      </g>
     </g>
     <g id="text_9">
      <!-- 0.2 -->
      <g transform="translate(28.79875 165.0141) scale(0.16 -0.16)">
       <use xlink:href="#ArialMT-30"/>
       <use xlink:href="#ArialMT-2e" x="55.615234"/>
       <use xlink:href="#ArialMT-32" x="83.398438"/>
      </g>
     </g>
    </g>
    <g id="ytick_3">
     <g id="line2d_9">
      <g>
       <use xlink:href="#m8bac35fbd4" x="58.03875" y="122.69745" style="stroke: #000000; stroke-width: 0.8"/>
      </g>
     </g>
     <g id="text_10">
      <!-- 0.4 -->
      <g transform="translate(28.79875 128.4237) scale(0.16 -0.16)">
       <use xlink:href="#ArialMT-30"/>
       <use xlink:href="#ArialMT-2e" x="55.615234"/>
       <use xlink:href="#ArialMT-34" x="83.398438"/>
      </g>
     </g>
    </g>
    <g id="ytick_4">
     <g id="line2d_10">
      <g>
       <use xlink:href="#m8bac35fbd4" x="58.03875" y="86.10705" style="stroke: #000000; stroke-width: 0.8"/>
      </g>
     </g>
     <g id="text_11">
      <!-- 0.6 -->
      <g transform="translate(28.79875 91.8333) scale(0.16 -0.16)">
       <use xlink:href="#ArialMT-30"/>
       <use xlink:href="#ArialMT-2e" x="55.615234"/>
       <use xlink:href="#ArialMT-36" x="83.398438"/>
      </g>
     </g>
    </g>
    <g id="ytick_5">
     <g id="line2d_11">
      <g>
       <use xlink:href="#m8bac35fbd4" x="58.03875" y="49.51665" style="stroke: #000000; stroke-width: 0.8"/>
      </g>
     </g>
     <g id="text_12">
      <!-- 0.8 -->
      <g transform="translate(28.79875 55.2429) scale(0.16 -0.16)">
       <use xlink:href="#ArialMT-30"/>
       <use xlink:href="#ArialMT-2e" x="55.615234"/>
       <use xlink:href="#ArialMT-38" x="83.398438"/>
      </g>
     </g>
    </g>
    <g id="ytick_6">
     <g id="line2d_12">
      <g>
       <use xlink:href="#m8bac35fbd4" x="58.03875" y="12.92625" style="stroke: #000000; stroke-width: 0.8"/>
      </g>
     </g>
     <g id="text_13">
      <!-- 1.0 -->
      <g transform="translate(28.79875 18.6525) scale(0.16 -0.16)">
       <use xlink:href="#ArialMT-31"/>
       <use xlink:href="#ArialMT-2e" x="55.615234"/>
       <use xlink:href="#ArialMT-30" x="83.398438"/>
      </g>
     </g>
    </g>
    <g id="text_14">
     <!-- True-hypo probability -->
     <g transform="translate(20.799844 193.277719) rotate(-90) scale(0.19 -0.19)">
      <defs>
       <path id="ArialMT-75" d="M 2597 0 
L 2597 488 
Q 2209 -75 1544 -75 
Q 1250 -75 995 37 
Q 741 150 617 320 
Q 494 491 444 738 
Q 409 903 409 1263 
L 409 3319 
L 972 3319 
L 972 1478 
Q 972 1038 1006 884 
Q 1059 663 1231 536 
Q 1403 409 1656 409 
Q 1909 409 2131 539 
Q 2353 669 2445 892 
Q 2538 1116 2538 1541 
L 2538 3319 
L 3100 3319 
L 3100 0 
L 2597 0 
z
" transform="scale(0.015625)"/>
       <path id="ArialMT-65" d="M 2694 1069 
L 3275 997 
Q 3138 488 2766 206 
Q 2394 -75 1816 -75 
Q 1088 -75 661 373 
Q 234 822 234 1631 
Q 234 2469 665 2931 
Q 1097 3394 1784 3394 
Q 2450 3394 2872 2941 
Q 3294 2488 3294 1666 
Q 3294 1616 3291 1516 
L 816 1516 
Q 847 969 1125 678 
Q 1403 388 1819 388 
Q 2128 388 2347 550 
Q 2566 713 2694 1069 
z
M 847 1978 
L 2700 1978 
Q 2663 2397 2488 2606 
Q 2219 2931 1791 2931 
Q 1403 2931 1139 2672 
Q 875 2413 847 1978 
z
" transform="scale(0.015625)"/>
       <path id="ArialMT-2d" d="M 203 1375 
L 203 1941 
L 1931 1941 
L 1931 1375 
L 203 1375 
z
" transform="scale(0.015625)"/>
       <path id="ArialMT-68" d="M 422 0 
L 422 4581 
L 984 4581 
L 984 2938 
Q 1378 3394 1978 3394 
Q 2347 3394 2619 3248 
Q 2891 3103 3008 2847 
Q 3125 2591 3125 2103 
L 3125 0 
L 2563 0 
L 2563 2103 
Q 2563 2525 2380 2717 
Q 2197 2909 1863 2909 
Q 1613 2909 1392 2779 
Q 1172 2650 1078 2428 
Q 984 2206 984 1816 
L 984 0 
L 422 0 
z
" transform="scale(0.015625)"/>
       <path id="ArialMT-79" d="M 397 -1278 
L 334 -750 
Q 519 -800 656 -800 
Q 844 -800 956 -737 
Q 1069 -675 1141 -563 
Q 1194 -478 1313 -144 
Q 1328 -97 1363 -6 
L 103 3319 
L 709 3319 
L 1400 1397 
Q 1534 1031 1641 628 
Q 1738 1016 1872 1384 
L 2581 3319 
L 3144 3319 
L 1881 -56 
Q 1678 -603 1566 -809 
Q 1416 -1088 1222 -1217 
Q 1028 -1347 759 -1347 
Q 597 -1347 397 -1278 
z
" transform="scale(0.015625)"/>
       <path id="ArialMT-70" d="M 422 -1272 
L 422 3319 
L 934 3319 
L 934 2888 
Q 1116 3141 1344 3267 
Q 1572 3394 1897 3394 
Q 2322 3394 2647 3175 
Q 2972 2956 3137 2557 
Q 3303 2159 3303 1684 
Q 3303 1175 3120 767 
Q 2938 359 2589 142 
Q 2241 -75 1856 -75 
Q 1575 -75 1351 44 
Q 1128 163 984 344 
L 984 -1272 
L 422 -1272 
z
M 931 1641 
Q 931 1000 1190 694 
Q 1450 388 1819 388 
Q 2194 388 2461 705 
Q 2728 1022 2728 1688 
Q 2728 2322 2467 2637 
Q 2206 2953 1844 2953 
Q 1484 2953 1207 2617 
Q 931 2281 931 1641 
z
" transform="scale(0.015625)"/>
       <path id="ArialMT-6f" d="M 213 1659 
Q 213 2581 725 3025 
Q 1153 3394 1769 3394 
Q 2453 3394 2887 2945 
Q 3322 2497 3322 1706 
Q 3322 1066 3130 698 
Q 2938 331 2570 128 
Q 2203 -75 1769 -75 
Q 1072 -75 642 372 
Q 213 819 213 1659 
z
M 791 1659 
Q 791 1022 1069 705 
Q 1347 388 1769 388 
Q 2188 388 2466 706 
Q 2744 1025 2744 1678 
Q 2744 2294 2464 2611 
Q 2184 2928 1769 2928 
Q 1347 2928 1069 2612 
Q 791 2297 791 1659 
z
" transform="scale(0.015625)"/>
       <path id="ArialMT-20" transform="scale(0.015625)"/>
       <path id="ArialMT-62" d="M 941 0 
L 419 0 
L 419 4581 
L 981 4581 
L 981 2947 
Q 1338 3394 1891 3394 
Q 2197 3394 2470 3270 
Q 2744 3147 2920 2923 
Q 3097 2700 3197 2384 
Q 3297 2069 3297 1709 
Q 3297 856 2875 390 
Q 2453 -75 1863 -75 
Q 1275 -75 941 416 
L 941 0 
z
M 934 1684 
Q 934 1088 1097 822 
Q 1363 388 1816 388 
Q 2184 388 2453 708 
Q 2722 1028 2722 1663 
Q 2722 2313 2464 2622 
Q 2206 2931 1841 2931 
Q 1472 2931 1203 2611 
Q 934 2291 934 1684 
z
" transform="scale(0.015625)"/>
       <path id="ArialMT-74" d="M 1650 503 
L 1731 6 
Q 1494 -44 1306 -44 
Q 1000 -44 831 53 
Q 663 150 594 308 
Q 525 466 525 972 
L 525 2881 
L 113 2881 
L 113 3319 
L 525 3319 
L 525 4141 
L 1084 4478 
L 1084 3319 
L 1650 3319 
L 1650 2881 
L 1084 2881 
L 1084 941 
Q 1084 700 1114 631 
Q 1144 563 1211 522 
Q 1278 481 1403 481 
Q 1497 481 1650 503 
z
" transform="scale(0.015625)"/>
      </defs>
      <use xlink:href="#ArialMT-54"/>
      <use xlink:href="#ArialMT-72" x="57.333984"/>
      <use xlink:href="#ArialMT-75" x="90.634766"/>
      <use xlink:href="#ArialMT-65" x="146.25"/>
      <use xlink:href="#ArialMT-2d" x="201.865234"/>
      <use xlink:href="#ArialMT-68" x="235.166016"/>
      <use xlink:href="#ArialMT-79" x="290.78125"/>
      <use xlink:href="#ArialMT-70" x="340.78125"/>
      <use xlink:href="#ArialMT-6f" x="396.396484"/>
      <use xlink:href="#ArialMT-20" x="452.011719"/>
      <use xlink:href="#ArialMT-70" x="479.794922"/>
      <use xlink:href="#ArialMT-72" x="535.410156"/>
      <use xlink:href="#ArialMT-6f" x="568.710938"/>
      <use xlink:href="#ArialMT-62" x="624.326172"/>
      <use xlink:href="#ArialMT-61" x="679.941406"/>
      <use xlink:href="#ArialMT-62" x="735.556641"/>
      <use xlink:href="#ArialMT-69" x="791.171875"/>
      <use xlink:href="#ArialMT-6c" x="813.388672"/>
      <use xlink:href="#ArialMT-69" x="835.605469"/>
      <use xlink:href="#ArialMT-74" x="857.822266"/>
      <use xlink:href="#ArialMT-79" x="885.605469"/>
     </g>
    </g>
   </g>
   <g id="line2d_13">
    <path d="M 68.169814 195.87825 
L 71.335771 195.87825 
L 71.968963 184.44375 
L 80.833644 184.44375 
L 81.466835 173.00925 
L 90.964707 173.00925 
L 92.23109 195.87825 
L 98.563005 195.87825 
L 99.196197 184.44375 
L 111.860027 184.44375 
L 112.493218 173.00925 
L 118.825133 173.00925 
L 119.458324 184.44375 
L 121.99109 184.44375 
L 122.624282 195.87825 
L 141.620027 195.87825 
L 142.253218 184.44375 
L 151.75109 184.44375 
L 152.384282 195.87825 
L 155.550239 195.87825 
L 156.183431 184.44375 
L 156.816622 184.44375 
L 158.083005 161.57475 
L 163.781729 161.57475 
L 164.41492 150.14025 
L 165.681303 150.14025 
L 166.314495 161.57475 
L 166.947686 161.57475 
L 167.580878 173.00925 
L 168.847261 173.00925 
L 169.480452 161.57475 
L 172.013218 161.57475 
L 173.279601 138.70575 
L 173.912793 138.70575 
L 174.545984 150.14025 
L 175.179176 138.70575 
L 175.812367 138.70575 
L 177.711941 104.40225 
L 178.345133 104.40225 
L 178.978324 92.96775 
L 182.777473 92.96775 
L 183.410665 104.40225 
L 184.677048 81.53325 
L 185.310239 92.96775 
L 185.943431 92.96775 
L 187.209814 115.83675 
L 189.74258 115.83675 
L 190.375771 104.40225 
L 192.908537 104.40225 
L 193.541729 92.96775 
L 197.340878 92.96775 
L 197.974069 104.40225 
L 198.607261 104.40225 
L 199.240452 115.83675 
L 199.873644 115.83675 
L 200.506835 127.27125 
L 201.773218 127.27125 
L 202.40641 115.83675 
L 203.039601 115.83675 
L 203.672793 127.27125 
L 204.305984 127.27125 
L 204.939176 138.70575 
L 206.83875 138.70575 
L 208.105133 115.83675 
L 208.738324 127.27125 
L 211.904282 127.27125 
L 213.170665 150.14025 
L 213.803856 150.14025 
L 214.437048 161.57475 
L 215.070239 150.14025 
L 216.969814 150.14025 
L 217.603005 161.57475 
L 218.236197 161.57475 
L 218.869388 150.14025 
L 219.50258 150.14025 
L 220.135771 161.57475 
L 220.768963 150.14025 
L 222.035346 150.14025 
L 222.668537 138.70575 
L 224.568112 138.70575 
L 225.201303 150.14025 
L 227.100878 115.83675 
L 228.367261 115.83675 
L 229.000452 127.27125 
L 229.633644 115.83675 
L 230.266835 115.83675 
L 230.900027 127.27125 
L 231.533218 127.27125 
L 232.16641 115.83675 
L 232.799601 115.83675 
L 234.065984 92.96775 
L 235.332367 92.96775 
L 237.231941 127.27125 
L 237.865133 127.27125 
L 238.498324 138.70575 
L 239.131516 138.70575 
L 239.764707 150.14025 
L 241.664282 150.14025 
L 244.197048 195.87825 
L 244.830239 184.44375 
L 245.463431 184.44375 
L 246.096622 173.00925 
L 249.26258 173.00925 
L 249.895771 161.57475 
L 251.795346 161.57475 
L 252.428537 150.14025 
L 254.328112 150.14025 
L 254.961303 161.57475 
L 255.594495 161.57475 
L 256.227686 173.00925 
L 257.494069 173.00925 
L 258.127261 161.57475 
L 261.293218 161.57475 
L 261.92641 150.14025 
L 262.559601 161.57475 
L 263.825984 138.70575 
L 265.725559 138.70575 
L 266.35875 127.27125 
L 267.625133 127.27125 
L 268.258324 138.70575 
L 269.524707 138.70575 
L 270.157899 150.14025 
L 271.424282 150.14025 
L 272.057473 161.57475 
L 272.690665 161.57475 
L 273.323856 173.00925 
L 283.45492 173.00925 
L 284.088112 184.44375 
L 285.987686 184.44375 
L 286.620878 195.87825 
L 308.78258 195.87825 
L 309.415771 184.44375 
L 310.048963 184.44375 
L 310.682154 173.00925 
L 311.315346 173.00925 
L 311.948537 161.57475 
L 313.21492 161.57475 
L 313.848112 150.14025 
L 315.114495 150.14025 
L 316.380878 127.27125 
L 319.546835 127.27125 
L 320.180027 115.83675 
L 320.813218 127.27125 
L 321.44641 127.27125 
L 322.079601 138.70575 
L 323.345984 115.83675 
L 323.979176 127.27125 
L 325.245559 104.40225 
L 325.87875 104.40225 
L 326.511941 115.83675 
L 329.044707 70.09875 
L 329.677899 70.09875 
L 330.31109 81.53325 
L 332.210665 47.22975 
L 332.843856 47.22975 
L 333.477048 58.66425 
L 334.110239 58.66425 
L 336.009814 92.96775 
L 336.643005 81.53325 
L 339.808963 138.70575 
L 340.442154 138.70575 
L 341.075346 150.14025 
L 342.341729 150.14025 
L 342.97492 161.57475 
L 343.608112 150.14025 
L 344.241303 150.14025 
L 345.507686 127.27125 
L 346.140878 127.27125 
L 346.774069 138.70575 
L 348.673644 138.70575 
L 349.306835 127.27125 
L 351.839601 127.27125 
L 352.472793 138.70575 
L 353.105984 127.27125 
L 353.739176 138.70575 
L 354.372367 127.27125 
L 355.005559 138.70575 
L 357.538324 138.70575 
L 358.171516 127.27125 
L 361.337473 127.27125 
L 361.970665 138.70575 
L 362.603856 138.70575 
L 363.237048 150.14025 
L 363.870239 150.14025 
L 364.503431 161.57475 
L 365.136622 161.57475 
L 365.769814 173.00925 
L 367.669388 173.00925 
L 368.30258 184.44375 
L 368.935771 173.00925 
L 369.568963 184.44375 
L 370.202154 184.44375 
L 370.835346 173.00925 
L 373.368112 173.00925 
L 374.634495 150.14025 
L 378.433644 150.14025 
L 379.066835 161.57475 
L 380.333218 161.57475 
L 380.96641 173.00925 
L 384.132367 173.00925 
L 384.765559 184.44375 
L 393.630239 184.44375 
L 394.263431 195.87825 
L 403.128112 195.87825 
L 404.394495 173.00925 
L 413.259176 173.00925 
L 414.525559 195.87825 
L 419.59109 195.87825 
L 420.224282 184.44375 
L 427.189388 184.44375 
L 427.82258 173.00925 
L 429.722154 173.00925 
L 430.355346 184.44375 
L 432.888112 184.44375 
L 437.320452 104.40225 
L 437.953644 104.40225 
L 443.019176 12.92625 
L 503.805559 12.92625 
L 503.805559 12.92625 
" style="fill: none; stroke: #a6a6a6; stroke-width: 2; stroke-linecap: square"/>
   </g>
   <g id="line2d_14">
    <path d="M 68.169814 189.96093 
L 71.335771 189.96093 
L 71.968963 191.501894 
L 77.034495 191.501894 
L 77.667686 195.87825 
L 78.300878 195.87825 
L 78.934069 190.20886 
L 79.567261 186.155885 
L 80.200452 186.155885 
L 81.466835 173.87695 
L 82.100027 169.065627 
L 82.733218 162.595185 
L 88.431941 162.595185 
L 89.065133 168.264575 
L 89.698324 172.31755 
L 90.331516 172.31755 
L 91.597899 184.596485 
L 92.23109 189.407808 
L 92.864282 195.87825 
L 97.929814 195.87825 
L 98.563005 193.408329 
L 104.261729 193.408329 
L 104.89492 191.255821 
L 105.528112 190.117168 
L 106.161303 190.117168 
L 106.794495 187.564041 
L 108.060878 187.564041 
L 108.694069 190.033962 
L 114.392793 190.033962 
L 115.025984 192.186471 
L 115.659176 193.325124 
L 116.292367 193.325124 
L 116.925559 192.81946 
L 117.55875 187.615098 
L 118.191941 180.931107 
L 119.458324 180.931107 
L 120.091516 171.759807 
L 126.423431 171.759807 
L 127.056622 174.818597 
L 127.689814 180.022959 
L 128.323005 186.706951 
L 129.589388 186.706951 
L 130.22258 195.87825 
L 135.921303 195.87825 
L 136.554495 191.017825 
L 144.152793 191.017825 
L 144.785984 184.707178 
L 146.052367 184.707178 
L 146.685559 189.567603 
L 151.117899 189.567603 
L 153.650665 153.632356 
L 154.283856 153.632356 
L 154.917048 159.943003 
L 161.248963 159.943003 
L 162.515346 165.924159 
L 163.148537 176.31045 
L 163.781729 184.756154 
L 165.681303 184.756154 
L 167.580878 159.186499 
L 169.480452 138.179904 
L 170.746835 122.08724 
L 171.380027 113.25028 
L 172.013218 110.695815 
L 172.64641 106.853386 
L 173.279601 100.521187 
L 173.912793 100.521187 
L 174.545984 93.548362 
L 175.812367 93.548362 
L 177.711941 119.118016 
L 179.611516 140.124611 
L 180.877899 156.217276 
L 182.777473 182.573226 
L 183.410665 188.905425 
L 184.043856 188.905425 
L 184.677048 195.87825 
L 192.275346 195.87825 
L 193.541729 176.569943 
L 194.17492 167.373928 
L 194.808112 160.26536 
L 195.441303 150.664416 
L 197.974069 120.263855 
L 201.140027 71.953928 
L 201.773218 65.441307 
L 202.40641 56.922572 
L 203.039601 57.120891 
L 203.672793 56.022087 
L 204.305984 55.655236 
L 204.939176 62.763804 
L 205.572367 72.364748 
L 208.105133 102.765309 
L 211.27109 151.075236 
L 211.904282 157.587857 
L 213.170665 176.094975 
L 214.437048 195.87825 
L 215.070239 195.87825 
L 215.703431 187.50805 
L 216.336622 187.50805 
L 216.969814 180.359132 
L 224.568112 180.359132 
L 225.201303 174.747031 
L 225.834495 176.721284 
L 226.467686 176.721284 
L 227.100878 183.870202 
L 231.533218 183.870202 
L 232.16641 174.960644 
L 234.699176 174.960644 
L 235.965559 186.968693 
L 237.231941 177.466974 
L 237.865133 168.099066 
L 238.498324 161.84875 
L 241.664282 161.84875 
L 242.297473 170.758308 
L 245.463431 170.758308 
L 246.096622 160.535488 
L 247.363005 150.836085 
L 247.996197 151.236208 
L 248.629388 148.114625 
L 249.26258 137.049103 
L 249.895771 131.147288 
L 250.528963 122.079229 
L 255.594495 122.079229 
L 257.494069 151.50317 
L 258.127261 151.803238 
L 258.760452 153.892092 
L 259.393644 157.993141 
L 260.026835 163.894956 
L 260.660027 172.963015 
L 263.825984 172.963015 
L 264.459176 166.842747 
L 266.35875 135.159956 
L 267.625133 116.088814 
L 268.258324 115.679343 
L 269.524707 129.92686 
L 273.957048 129.92686 
L 274.590239 136.047129 
L 275.856622 157.231833 
L 276.489814 162.689075 
L 277.123005 172.933676 
L 278.389388 173.132369 
L 279.02258 164.944149 
L 279.655771 159.760799 
L 284.088112 159.760799 
L 285.354495 143.694416 
L 285.987686 137.211577 
L 286.620878 133.703986 
L 287.254069 124.707024 
L 287.887261 124.960039 
L 288.520452 125.439004 
L 289.153644 123.794292 
L 289.786835 117.589532 
L 290.420027 109.449967 
L 291.68641 109.449967 
L 294.219176 71.681417 
L 294.852367 71.025254 
L 296.11875 64.614326 
L 298.651516 99.13278 
L 300.55109 128.493387 
L 301.817473 128.493387 
L 302.450665 137.80406 
L 303.083856 139.546947 
L 303.717048 138.433222 
L 304.350239 140.279615 
L 304.983431 143.768116 
L 306.249814 164.499788 
L 309.415771 164.499788 
L 310.048963 154.636583 
L 310.682154 150.382978 
L 312.581729 150.382978 
L 313.21492 157.768752 
L 313.848112 161.003446 
L 314.481303 163.478225 
L 315.114495 168.874365 
L 315.747686 159.536885 
L 318.280452 159.536885 
L 319.546835 138.793037 
L 320.180027 144.19925 
L 320.813218 143.153858 
L 323.345984 143.153858 
L 323.979176 150.36147 
L 324.612367 156.040933 
L 325.245559 156.040933 
L 325.87875 165.378414 
L 328.411516 165.378414 
L 329.677899 186.122262 
L 330.31109 180.170743 
L 330.944282 175.597849 
L 332.210665 155.714505 
L 334.110239 123.956465 
L 336.009814 91.747221 
L 339.808963 91.747221 
L 346.140878 195.87825 
L 348.040452 195.87825 
L 349.306835 177.966367 
L 349.940027 177.966367 
L 351.839601 145.905206 
L 353.105984 130.201195 
L 358.171516 130.201195 
L 359.437899 148.113077 
L 360.07109 148.113077 
L 361.970665 180.174239 
L 363.237048 195.87825 
L 364.503431 176.844437 
L 365.769814 158.512003 
L 366.403005 158.512003 
L 367.036197 149.939508 
L 373.368112 149.939508 
L 374.634495 168.973321 
L 375.900878 187.305755 
L 376.534069 187.305755 
L 377.167261 195.87825 
L 380.333218 195.87825 
L 381.599601 177.983896 
L 386.665133 177.983896 
L 390.464282 119.465897 
L 391.730665 137.360251 
L 396.796197 137.360251 
L 400.595346 195.87825 
L 412.625984 195.87825 
L 413.259176 185.901495 
L 422.757048 185.901495 
L 423.390239 195.87825 
L 430.988537 195.87825 
L 433.521303 156.398338 
L 436.054069 116.032698 
L 437.953644 82.594678 
L 441.119601 34.268446 
L 441.752793 35.608023 
L 442.385984 35.938627 
L 443.019176 36.556501 
L 443.652367 36.179648 
L 444.285559 36.300139 
L 444.91875 36.78032 
L 445.551941 37.680548 
L 446.185133 39.591155 
L 446.818324 39.520098 
L 447.451516 39.927349 
L 448.084707 39.610649 
L 448.717899 38.390307 
L 449.35109 38.431637 
L 449.984282 36.340811 
L 450.617473 37.750367 
L 451.250665 37.615801 
L 451.883856 37.127543 
L 452.517048 37.576577 
L 453.150239 37.145395 
L 453.783431 35.692604 
L 454.416622 34.892718 
L 455.049814 43.026774 
L 455.683005 52.870659 
L 456.316197 53.805223 
L 456.949388 53.802389 
L 457.58258 53.366626 
L 458.215771 54.403223 
L 458.848963 55.917229 
L 459.482154 57.019841 
L 460.115346 57.15341 
L 460.748537 53.654526 
L 462.01492 50.12412 
L 462.648112 50.233892 
L 463.281303 48.721435 
L 463.914495 48.135023 
L 464.547686 48.139947 
L 465.814069 26.759257 
L 466.447261 26.426591 
L 467.080452 29.270664 
L 467.713644 29.324733 
L 468.346835 28.125463 
L 468.980027 26.599817 
L 469.613218 25.744839 
L 470.24641 25.739623 
L 470.879601 26.146188 
L 471.512793 27.222469 
L 472.145984 27.903172 
L 472.779176 26.664887 
L 474.045559 28.985414 
L 474.67875 29.207713 
L 475.311941 27.768124 
L 475.945133 27.784887 
L 477.211516 24.658623 
L 477.844707 25.87252 
L 479.11109 31.363114 
L 479.744282 32.370873 
L 480.377473 32.700245 
L 481.010665 32.080868 
L 481.643856 31.195185 
L 482.277048 31.021862 
L 483.543431 31.826387 
L 484.809814 31.694692 
L 485.443005 32.595251 
L 486.076197 33.873111 
L 487.34258 33.820292 
L 487.975771 34.347605 
L 488.608963 32.25548 
L 489.242154 29.343004 
L 489.875346 29.056298 
L 490.508537 30.175736 
L 491.141729 31.721418 
L 491.77492 32.946404 
L 492.408112 33.401732 
L 493.674495 31.482713 
L 494.307686 31.137978 
L 494.940878 30.648381 
L 495.574069 30.313588 
L 497.473644 28.210581 
L 498.106835 26.897253 
L 498.740027 26.933669 
L 499.373218 29.852875 
L 500.00641 33.6121 
L 500.639601 33.907601 
L 501.272793 33.101363 
L 501.905984 32.896104 
L 502.539176 33.137828 
L 503.172367 34.150641 
L 503.805559 33.917863 
L 503.805559 33.917863 
" style="fill: none; stroke: #20978b; stroke-width: 2; stroke-linecap: square"/>
   </g>
   <g id="line2d_15">
    <path d="M 98.563005 195.87825 
L 98.563005 12.92625 
" clip-path="url(#pfe176d993a)" style="fill: none; stroke-dasharray: 3.7,1.6; stroke-dashoffset: 0; stroke: #808080; stroke-opacity: 0.3"/>
   </g>
   <g id="line2d_16">
    <path d="M 139.087261 195.87825 
L 139.087261 12.92625 
" clip-path="url(#pfe176d993a)" style="fill: none; stroke-dasharray: 3.7,1.6; stroke-dashoffset: 0; stroke: #808080; stroke-opacity: 0.3"/>
   </g>
   <g id="line2d_17">
    <path d="M 179.611516 195.87825 
L 179.611516 12.92625 
" clip-path="url(#pfe176d993a)" style="fill: none; stroke-dasharray: 3.7,1.6; stroke-dashoffset: 0; stroke: #808080; stroke-opacity: 0.3"/>
   </g>
   <g id="line2d_18">
    <path d="M 220.135771 195.87825 
L 220.135771 12.92625 
" clip-path="url(#pfe176d993a)" style="fill: none; stroke-dasharray: 3.7,1.6; stroke-dashoffset: 0; stroke: #808080; stroke-opacity: 0.3"/>
   </g>
   <g id="line2d_19">
    <path d="M 260.660027 195.87825 
L 260.660027 12.92625 
" clip-path="url(#pfe176d993a)" style="fill: none; stroke-dasharray: 3.7,1.6; stroke-dashoffset: 0; stroke: #808080; stroke-opacity: 0.3"/>
   </g>
   <g id="line2d_20">
    <path d="M 301.184282 195.87825 
L 301.184282 12.92625 
" clip-path="url(#pfe176d993a)" style="fill: none; stroke-dasharray: 3.7,1.6; stroke-dashoffset: 0; stroke: #808080; stroke-opacity: 0.3"/>
   </g>
   <g id="line2d_21">
    <path d="M 341.708537 195.87825 
L 341.708537 12.92625 
" clip-path="url(#pfe176d993a)" style="fill: none; stroke-dasharray: 3.7,1.6; stroke-dashoffset: 0; stroke: #808080; stroke-opacity: 0.3"/>
   </g>
   <g id="line2d_22">
    <path d="M 382.232793 195.87825 
L 382.232793 12.92625 
" clip-path="url(#pfe176d993a)" style="fill: none; stroke-dasharray: 3.7,1.6; stroke-dashoffset: 0; stroke: #808080; stroke-opacity: 0.3"/>
   </g>
   <g id="line2d_23">
    <path d="M 422.757048 195.87825 
L 422.757048 12.92625 
" clip-path="url(#pfe176d993a)" style="fill: none; stroke-dasharray: 3.7,1.6; stroke-dashoffset: 0; stroke: #808080; stroke-opacity: 0.3"/>
   </g>
   <g id="line2d_24">
    <path d="M 463.281303 195.87825 
L 463.281303 12.92625 
" clip-path="url(#pfe176d993a)" style="fill: none; stroke-dasharray: 3.7,1.6; stroke-dashoffset: 0; stroke: #808080; stroke-opacity: 0.3"/>
   </g>
   <g id="line2d_25">
    <path d="M 503.805559 195.87825 
L 503.805559 12.92625 
" clip-path="url(#pfe176d993a)" style="fill: none; stroke-dasharray: 3.7,1.6; stroke-dashoffset: 0; stroke: #808080; stroke-opacity: 0.3"/>
   </g>
   <g id="patch_3">
    <path d="M 58.03875 195.87825 
L 58.03875 12.92625 
" style="fill: none; stroke: #000000; stroke-width: 2; stroke-linejoin: miter; stroke-linecap: square"/>
   </g>
   <g id="patch_4">
    <path d="M 58.03875 195.87825 
L 504.43875 195.87825 
" style="fill: none; stroke: #000000; stroke-width: 2; stroke-linejoin: miter; stroke-linecap: square"/>
   </g>
   <g id="text_15">
    <!-- S20 -->
    <g transform="translate(76.022375 36.39405) scale(0.2 -0.2)">
     <defs>
      <path id="ArialMT-53" d="M 288 1472 
L 859 1522 
Q 900 1178 1048 958 
Q 1197 738 1509 602 
Q 1822 466 2213 466 
Q 2559 466 2825 569 
Q 3091 672 3220 851 
Q 3350 1031 3350 1244 
Q 3350 1459 3225 1620 
Q 3100 1781 2813 1891 
Q 2628 1963 1997 2114 
Q 1366 2266 1113 2400 
Q 784 2572 623 2826 
Q 463 3081 463 3397 
Q 463 3744 659 4045 
Q 856 4347 1234 4503 
Q 1613 4659 2075 4659 
Q 2584 4659 2973 4495 
Q 3363 4331 3572 4012 
Q 3781 3694 3797 3291 
L 3216 3247 
Q 3169 3681 2898 3903 
Q 2628 4125 2100 4125 
Q 1550 4125 1298 3923 
Q 1047 3722 1047 3438 
Q 1047 3191 1225 3031 
Q 1400 2872 2139 2705 
Q 2878 2538 3153 2413 
Q 3553 2228 3743 1945 
Q 3934 1663 3934 1294 
Q 3934 928 3725 604 
Q 3516 281 3123 101 
Q 2731 -78 2241 -78 
Q 1619 -78 1198 103 
Q 778 284 539 648 
Q 300 1013 288 1472 
z
" transform="scale(0.015625)"/>
     </defs>
     <use xlink:href="#ArialMT-53"/>
     <use xlink:href="#ArialMT-32" x="66.699219"/>
     <use xlink:href="#ArialMT-30" x="122.314453"/>
    </g>
   </g>
   <g id="legend_1">
    <g id="patch_5">
     <path d="M 447.97875 186.280987 
L 544.330312 186.280987 
Q 547.330312 186.280987 547.330312 183.280987 
L 547.330312 142.34505 
Q 547.330312 139.34505 544.330312 139.34505 
L 447.97875 139.34505 
Q 444.97875 139.34505 444.97875 142.34505 
L 444.97875 183.280987 
Q 444.97875 186.280987 447.97875 186.280987 
L 447.97875 186.280987 
z
" style="fill: none; opacity: 0"/>
    </g>
    <g id="line2d_26">
     <path d="M 450.97875 150.831769 
L 465.97875 150.831769 
L 480.97875 150.831769 
" style="fill: none; stroke: #a6a6a6; stroke-width: 2; stroke-linecap: square"/>
    </g>
    <g id="text_16">
     <!-- Human -->
     <g transform="translate(492.97875 156.081769) scale(0.15 -0.15)">
      <defs>
       <path id="ArialMT-48" d="M 513 0 
L 513 4581 
L 1119 4581 
L 1119 2700 
L 3500 2700 
L 3500 4581 
L 4106 4581 
L 4106 0 
L 3500 0 
L 3500 2159 
L 1119 2159 
L 1119 0 
L 513 0 
z
" transform="scale(0.015625)"/>
       <path id="ArialMT-6d" d="M 422 0 
L 422 3319 
L 925 3319 
L 925 2853 
Q 1081 3097 1340 3245 
Q 1600 3394 1931 3394 
Q 2300 3394 2536 3241 
Q 2772 3088 2869 2813 
Q 3263 3394 3894 3394 
Q 4388 3394 4653 3120 
Q 4919 2847 4919 2278 
L 4919 0 
L 4359 0 
L 4359 2091 
Q 4359 2428 4304 2576 
Q 4250 2725 4106 2815 
Q 3963 2906 3769 2906 
Q 3419 2906 3187 2673 
Q 2956 2441 2956 1928 
L 2956 0 
L 2394 0 
L 2394 2156 
Q 2394 2531 2256 2718 
Q 2119 2906 1806 2906 
Q 1569 2906 1367 2781 
Q 1166 2656 1075 2415 
Q 984 2175 984 1722 
L 984 0 
L 422 0 
z
" transform="scale(0.015625)"/>
       <path id="ArialMT-6e" d="M 422 0 
L 422 3319 
L 928 3319 
L 928 2847 
Q 1294 3394 1984 3394 
Q 2284 3394 2536 3286 
Q 2788 3178 2913 3003 
Q 3038 2828 3088 2588 
Q 3119 2431 3119 2041 
L 3119 0 
L 2556 0 
L 2556 2019 
Q 2556 2363 2490 2533 
Q 2425 2703 2258 2804 
Q 2091 2906 1866 2906 
Q 1506 2906 1245 2678 
Q 984 2450 984 1813 
L 984 0 
L 422 0 
z
" transform="scale(0.015625)"/>
      </defs>
      <use xlink:href="#ArialMT-48"/>
      <use xlink:href="#ArialMT-75" x="72.216797"/>
      <use xlink:href="#ArialMT-6d" x="127.832031"/>
      <use xlink:href="#ArialMT-61" x="211.132812"/>
      <use xlink:href="#ArialMT-6e" x="266.748047"/>
     </g>
    </g>
    <g id="line2d_27">
     <path d="M 450.97875 172.049737 
L 465.97875 172.049737 
L 480.97875 172.049737 
" style="fill: none; stroke: #20978b; stroke-width: 2; stroke-linecap: square"/>
    </g>
    <g id="text_17">
     <!-- PMH -->
     <g transform="translate(492.97875 177.299737) scale(0.15 -0.15)">
      <defs>
       <path id="ArialMT-50" d="M 494 0 
L 494 4581 
L 2222 4581 
Q 2678 4581 2919 4538 
Q 3256 4481 3484 4323 
Q 3713 4166 3852 3881 
Q 3991 3597 3991 3256 
Q 3991 2672 3619 2267 
Q 3247 1863 2275 1863 
L 1100 1863 
L 1100 0 
L 494 0 
z
M 1100 2403 
L 2284 2403 
Q 2872 2403 3119 2622 
Q 3366 2841 3366 3238 
Q 3366 3525 3220 3729 
Q 3075 3934 2838 4000 
Q 2684 4041 2272 4041 
L 1100 4041 
L 1100 2403 
z
" transform="scale(0.015625)"/>
       <path id="ArialMT-4d" d="M 475 0 
L 475 4581 
L 1388 4581 
L 2472 1338 
Q 2622 884 2691 659 
Q 2769 909 2934 1394 
L 4031 4581 
L 4847 4581 
L 4847 0 
L 4263 0 
L 4263 3834 
L 2931 0 
L 2384 0 
L 1059 3900 
L 1059 0 
L 475 0 
z
" transform="scale(0.015625)"/>
      </defs>
      <use xlink:href="#ArialMT-50"/>
      <use xlink:href="#ArialMT-4d" x="66.699219"/>
      <use xlink:href="#ArialMT-48" x="150"/>
     </g>
    </g>
   </g>
  </g>
 </g>
 <defs>
  <clipPath id="pfe176d993a">
   <rect x="58.03875" y="12.92625" width="446.4" height="182.952"/>
  </clipPath>
 </defs>
</svg>
