<?xml version="1.0" encoding="utf-8" standalone="no"?>
<!DOCTYPE svg PUBLIC "-//W3C//DTD SVG 1.1//EN"
  "http://www.w3.org/Graphics/SVG/1.1/DTD/svg11.dtd">
<svg xmlns:xlink="http://www.w3.org/1999/xlink" width="185.3pt" height="112.148pt" viewBox="0 0 185.3 112.148" xmlns="http://www.w3.org/2000/svg" version="1.1">
 <metadata>
  <rdf:RDF xmlns:dc="http://purl.org/dc/elements/1.1/" xmlns:cc="http://creativecommons.org/ns#" xmlns:rdf="http://www.w3.org/1999/02/22-rdf-syntax-ns#">
   <cc:Work>
    <dc:type rdf:resource="http://purl.org/dc/dcmitype/StillImage"/>
    <dc:date>2025-05-14T23:42:40.835088</dc:date>
    <dc:format>image/svg+xml</dc:format>
    <dc:creator>
     <cc:Agent>
      <dc:title>Matplotlib v3.8.4, https://matplotlib.org/</dc:title>
     </cc:Agent>
    </dc:creator>
   </cc:Work>
  </rdf:RDF>
 </metadata>
 <defs>
  <style type="text/css">*{stroke-linejoin: round; stroke-linecap: butt}</style>
 </defs>
 <g id="figure_1">
  <g id="patch_1">
   <path d="M 0 112.148 
L 185.3 112.148 
L 185.3 0 
L 0 0 
L 0 112.148 
z
" style="fill: none"/>
  </g>
  <g id="axes_1">
   <g id="patch_2">
    <path d="M 10.7 101.448 
L 178.1 101.448 
L 178.1 7.2 
L 10.7 7.2 
L 10.7 101.448 
z
" style="fill: none"/>
   </g>
   <g id="matplotlib.axis_1">
    <g id="xtick_1">
     <g id="line2d_1">
      <defs>
       <path id="m09b4a80ec6" d="M 0 0 
L 0 3.5 
" style="stroke: #000000; stroke-width: 0.8"/>
      </defs>
      <g>
       <use xlink:href="#m09b4a80ec6" x="10.7" y="101.448" style="stroke: #000000; stroke-width: 0.8"/>
      </g>
     </g>
    </g>
    <g id="xtick_2">
     <g id="line2d_2">
      <g>
       <use xlink:href="#m09b4a80ec6" x="44.18" y="101.448" style="stroke: #000000; stroke-width: 0.8"/>
      </g>
     </g>
    </g>
    <g id="xtick_3">
     <g id="line2d_3">
      <g>
       <use xlink:href="#m09b4a80ec6" x="77.66" y="101.448" style="stroke: #000000; stroke-width: 0.8"/>
      </g>
     </g>
    </g>
    <g id="xtick_4">
     <g id="line2d_4">
      <g>
       <use xlink:href="#m09b4a80ec6" x="111.14" y="101.448" style="stroke: #000000; stroke-width: 0.8"/>
      </g>
     </g>
    </g>
    <g id="xtick_5">
     <g id="line2d_5">
      <g>
       <use xlink:href="#m09b4a80ec6" x="144.62" y="101.448" style="stroke: #000000; stroke-width: 0.8"/>
      </g>
     </g>
    </g>
    <g id="xtick_6">
     <g id="line2d_6">
      <g>
       <use xlink:href="#m09b4a80ec6" x="178.1" y="101.448" style="stroke: #000000; stroke-width: 0.8"/>
      </g>
     </g>
    </g>
   </g>
   <g id="matplotlib.axis_2">
    <g id="ytick_1">
     <g id="line2d_7">
      <defs>
       <path id="mf6794d64fe" d="M 0 0 
L -3.5 0 
" style="stroke: #000000; stroke-width: 0.8"/>
      </defs>
      <g>
       <use xlink:href="#mf6794d64fe" x="10.7" y="101.448" style="stroke: #000000; stroke-width: 0.8"/>
      </g>
     </g>
    </g>
    <g id="ytick_2">
     <g id="line2d_8">
      <g>
       <use xlink:href="#mf6794d64fe" x="10.7" y="82.5984" style="stroke: #000000; stroke-width: 0.8"/>
      </g>
     </g>
    </g>
    <g id="ytick_3">
     <g id="line2d_9">
      <g>
       <use xlink:href="#mf6794d64fe" x="10.7" y="63.7488" style="stroke: #000000; stroke-width: 0.8"/>
      </g>
     </g>
    </g>
    <g id="ytick_4">
     <g id="line2d_10">
      <g>
       <use xlink:href="#mf6794d64fe" x="10.7" y="44.8992" style="stroke: #000000; stroke-width: 0.8"/>
      </g>
     </g>
    </g>
    <g id="ytick_5">
     <g id="line2d_11">
      <g>
       <use xlink:href="#mf6794d64fe" x="10.7" y="26.0496" style="stroke: #000000; stroke-width: 0.8"/>
      </g>
     </g>
    </g>
    <g id="ytick_6">
     <g id="line2d_12">
      <g>
       <use xlink:href="#mf6794d64fe" x="10.7" y="7.2" style="stroke: #000000; stroke-width: 0.8"/>
      </g>
     </g>
    </g>
   </g>
   <g id="line2d_13">
    <path d="M 14.885 95.5575 
L 17.762187 95.5575 
L 18.02375 101.448 
L 21.947187 101.448 
L 22.20875 95.5575 
L 26.132188 95.5575 
L 26.39375 101.448 
L 42.872188 101.448 
L 43.656875 83.7765 
L 43.918438 83.7765 
L 44.18 77.886 
L 44.441563 77.886 
L 44.964687 66.105 
L 45.22625 66.105 
L 45.487813 60.2145 
L 46.2725 60.2145 
L 46.795625 48.4335 
L 47.31875 48.4335 
L 47.841875 60.2145 
L 48.103437 60.2145 
L 48.365 66.105 
L 48.626563 66.105 
L 48.888125 71.9955 
L 49.149687 71.9955 
L 49.41125 66.105 
L 49.672813 71.9955 
L 49.934375 71.9955 
L 50.4575 60.2145 
L 50.980625 71.9955 
L 52.55 71.9955 
L 52.811563 66.105 
L 53.334688 66.105 
L 53.59625 71.9955 
L 54.119375 71.9955 
L 54.6425 83.7765 
L 55.427188 66.105 
L 55.68875 71.9955 
L 57.258125 71.9955 
L 57.519688 77.886 
L 58.304375 77.886 
L 58.565938 71.9955 
L 59.089063 71.9955 
L 59.350625 77.886 
L 60.396875 77.886 
L 60.658438 71.9955 
L 60.92 71.9955 
L 61.181562 77.886 
L 62.489375 77.886 
L 62.750938 83.7765 
L 63.0125 83.7765 
L 63.274062 89.667 
L 63.797188 89.667 
L 64.05875 83.7765 
L 64.581875 83.7765 
L 64.843438 89.667 
L 65.366563 89.667 
L 65.628125 83.7765 
L 67.720625 83.7765 
L 68.24375 95.5575 
L 69.551563 95.5575 
L 69.813125 101.448 
L 71.3825 101.448 
L 71.644063 95.5575 
L 75.5675 95.5575 
L 75.829063 101.448 
L 76.090625 95.5575 
L 78.183125 95.5575 
L 78.444688 89.667 
L 79.229375 89.667 
L 79.490938 83.7765 
L 80.014063 83.7765 
L 80.275625 89.667 
L 80.79875 77.886 
L 81.583438 77.886 
L 81.845 71.9955 
L 82.106563 71.9955 
L 82.368125 66.105 
L 82.629688 71.9955 
L 83.414375 71.9955 
L 83.675938 77.886 
L 84.460625 77.886 
L 84.98375 89.667 
L 85.768438 89.667 
L 86.03 95.5575 
L 88.1225 95.5575 
L 88.645625 83.7765 
L 90.476563 83.7765 
L 90.738125 89.667 
L 92.045938 89.667 
L 92.3075 83.7765 
L 92.830625 95.5575 
L 95.184688 95.5575 
L 95.44625 89.667 
L 96.230938 89.667 
L 96.4925 95.5575 
L 97.277188 95.5575 
L 97.53875 89.667 
L 98.846563 89.667 
L 99.369688 77.886 
L 99.63125 83.7765 
L 99.892813 77.886 
L 100.154375 77.886 
L 100.415938 71.9955 
L 101.462188 71.9955 
L 101.72375 77.886 
L 103.031563 77.886 
L 103.554688 89.667 
L 103.81625 89.667 
L 104.077813 95.5575 
L 104.339375 95.5575 
L 104.600938 101.448 
L 104.8625 95.5575 
L 105.90875 95.5575 
L 106.170313 89.667 
L 107.216563 89.667 
L 108.785938 54.324 
L 109.0475 54.324 
L 109.832188 36.6525 
L 110.09375 36.6525 
L 110.355313 42.543 
L 110.616875 36.6525 
L 111.663125 36.6525 
L 111.924688 42.543 
L 112.447813 42.543 
L 112.709375 48.4335 
L 113.2325 48.4335 
L 113.755625 60.2145 
L 114.017188 60.2145 
L 114.540313 48.4335 
L 115.063438 48.4335 
L 115.586563 36.6525 
L 116.109688 36.6525 
L 116.37125 42.543 
L 116.894375 42.543 
L 117.155938 48.4335 
L 117.4175 48.4335 
L 117.940625 36.6525 
L 118.46375 48.4335 
L 118.725313 48.4335 
L 118.986875 54.324 
L 119.248438 48.4335 
L 119.771563 60.2145 
L 120.033125 60.2145 
L 120.294688 54.324 
L 120.55625 54.324 
L 120.817813 60.2145 
L 121.340938 60.2145 
L 122.125625 77.886 
L 123.433438 77.886 
L 123.695 71.9955 
L 123.956563 71.9955 
L 124.479688 83.7765 
L 124.74125 83.7765 
L 125.525938 66.105 
L 125.7875 66.105 
L 126.310625 54.324 
L 126.572188 54.324 
L 126.83375 48.4335 
L 128.92625 48.4335 
L 129.710938 66.105 
L 130.234063 66.105 
L 130.495625 71.9955 
L 131.01875 71.9955 
L 131.280313 77.886 
L 131.541875 71.9955 
L 131.803438 71.9955 
L 132.065 77.886 
L 133.634375 42.543 
L 134.942188 42.543 
L 135.20375 48.4335 
L 135.465313 48.4335 
L 135.988438 60.2145 
L 136.25 60.2145 
L 137.819375 95.5575 
L 138.080938 95.5575 
L 138.3425 89.667 
L 138.604062 89.667 
L 138.865625 83.7765 
L 140.173438 83.7765 
L 140.696562 71.9955 
L 141.48125 71.9955 
L 142.265938 54.324 
L 143.050625 54.324 
L 144.096875 30.762 
L 144.881563 30.762 
L 145.143125 24.8715 
L 145.404687 24.8715 
L 145.66625 18.981 
L 146.7125 18.981 
L 146.974063 24.8715 
L 148.281875 24.8715 
L 148.543438 18.981 
L 149.328125 18.981 
L 149.589687 13.0905 
L 150.8975 13.0905 
L 151.159063 7.2 
L 151.420625 13.0905 
L 154.297812 13.0905 
L 154.559375 18.981 
L 155.344063 18.981 
L 155.605625 13.0905 
L 158.482812 13.0905 
L 158.744375 7.2 
L 159.2675 7.2 
L 159.529063 13.0905 
L 163.4525 13.0905 
L 163.714063 7.2 
L 177.838437 7.2 
L 177.838437 7.2 
" style="fill: none; stroke: #a6a6a6; stroke-width: 2; stroke-linecap: square"/>
   </g>
   <g id="line2d_14">
    <path d="M 14.885 101.448 
L 18.285312 101.448 
L 18.546875 96.99896 
L 18.808438 94.925895 
L 19.07 93.767873 
L 22.470312 93.767873 
L 22.731875 98.216913 
L 22.993437 100.289978 
L 23.255 101.448 
L 39.471875 101.448 
L 39.995 95.90032 
L 40.256563 95.90032 
L 40.518125 92.633414 
L 43.656875 92.633414 
L 44.18 98.181094 
L 44.441563 98.181094 
L 44.703125 101.448 
L 56.473438 101.448 
L 57.258125 87.144767 
L 57.519688 82.961648 
L 60.658438 82.961648 
L 61.443125 97.26488 
L 61.704688 101.448 
L 63.0125 101.448 
L 63.797188 86.600459 
L 64.05875 86.600459 
L 64.581875 76.062303 
L 64.843438 72.682835 
L 67.1975 72.682835 
L 67.720625 82.565116 
L 67.982188 83.658178 
L 68.24375 80.51577 
L 68.505313 80.2157 
L 68.766875 79.743003 
L 69.028438 78.504209 
L 69.29 74.332699 
L 71.905625 74.332699 
L 72.690313 87.071718 
L 73.213438 97.27649 
L 73.475 101.448 
L 75.044375 101.448 
L 75.829063 87.992753 
L 76.352188 87.992753 
L 76.875313 78.885519 
L 79.229375 78.885519 
L 80.014063 92.340765 
L 80.537188 92.340765 
L 81.060313 101.448 
L 82.368125 101.448 
L 82.89125 92.823551 
L 83.152813 89.951014 
L 84.98375 89.951014 
L 85.506875 81.266961 
L 86.03 81.266961 
L 86.553125 70.207376 
L 86.814688 70.024749 
L 87.337813 67.254977 
L 89.16875 67.254977 
L 89.691875 75.93903 
L 90.215 75.93903 
L 91.522813 101.448 
L 95.44625 101.448 
L 95.707813 96.320106 
L 99.63125 96.320106 
L 99.892813 95.613611 
L 100.939063 75.530024 
L 103.81625 75.530024 
L 104.8625 97.355506 
L 105.124063 101.448 
L 105.385625 101.448 
L 106.693438 75.106894 
L 107.739688 75.106894 
L 108.262813 65.113108 
L 108.785938 55.349482 
L 109.570625 42.122266 
L 109.832188 43.380871 
L 110.878438 64.485823 
L 111.924688 64.485823 
L 112.447813 74.479609 
L 112.709375 78.586613 
L 112.970938 78.387983 
L 113.2325 77.498306 
L 113.755625 74.227755 
L 114.017188 72.648986 
L 115.063438 50.833242 
L 115.848125 50.833242 
L 116.894375 27.83967 
L 117.155938 28.175099 
L 117.940625 30.774286 
L 119.248438 58.146347 
L 120.033125 58.146347 
L 121.6025 91.608513 
L 122.125625 101.448 
L 132.065 101.448 
L 133.895938 62.515994 
L 134.1575 62.515994 
L 136.25 17.666553 
L 136.511562 18.147199 
L 136.773125 21.063058 
L 138.080938 48.465984 
L 138.3425 48.465984 
L 140.958125 101.448 
L 142.265938 101.448 
L 145.143125 41.61852 
L 145.404687 37.691245 
L 146.450938 37.691245 
L 149.066563 92.233722 
L 149.328125 91.660817 
L 149.589687 89.724695 
L 153.251563 8.415157 
L 154.03625 8.661036 
L 155.0825 9.905603 
L 155.344063 10.283962 
L 155.605625 10.356512 
L 156.390312 11.064998 
L 156.913438 11.21622 
L 157.959688 12.088497 
L 158.744375 11.711673 
L 159.005938 11.465622 
L 159.529063 10.470228 
L 159.790625 10.379038 
L 160.575312 9.714454 
L 160.836875 9.641676 
L 161.883125 8.889597 
L 162.40625 8.683567 
L 162.929375 8.273214 
L 163.4525 8.592451 
L 163.975625 8.662641 
L 165.806563 8.7437 
L 166.329688 8.486397 
L 166.852812 20.216908 
L 167.6375 20.042626 
L 168.160625 20.137082 
L 168.945312 20.287895 
L 170.253125 20.022691 
L 170.514688 19.994449 
L 171.037813 8.31165 
L 171.560937 8.489326 
L 171.8225 8.37312 
L 172.345625 8.309496 
L 172.607188 8.231983 
L 173.391875 8.414829 
L 174.438125 8.278181 
L 174.699688 8.581583 
L 175.222813 9.807727 
L 177.838437 67.89636 
L 177.838437 67.89636 
" style="fill: none; stroke: #20978b; stroke-width: 2; stroke-linecap: square"/>
   </g>
   <g id="patch_3">
    <path d="M 10.7 101.448 
L 10.7 7.2 
" style="fill: none; stroke: #000000; stroke-width: 2; stroke-linejoin: miter; stroke-linecap: square"/>
   </g>
   <g id="patch_4">
    <path d="M 10.7 101.448 
L 178.1 101.448 
" style="fill: none; stroke: #000000; stroke-width: 2; stroke-linejoin: miter; stroke-linecap: square"/>
   </g>
  </g>
 </g>
</svg>
