<?xml version="1.0" encoding="utf-8" standalone="no"?>
<!DOCTYPE svg PUBLIC "-//W3C//DTD SVG 1.1//EN"
  "http://www.w3.org/Graphics/SVG/1.1/DTD/svg11.dtd">
<svg xmlns:xlink="http://www.w3.org/1999/xlink" width="554.761875pt" height="295.982844pt" viewBox="0 0 554.761875 295.982844" xmlns="http://www.w3.org/2000/svg" version="1.1">
 <metadata>
  <rdf:RDF xmlns:dc="http://purl.org/dc/elements/1.1/" xmlns:cc="http://creativecommons.org/ns#" xmlns:rdf="http://www.w3.org/1999/02/22-rdf-syntax-ns#">
   <cc:Work>
    <dc:type rdf:resource="http://purl.org/dc/dcmitype/StillImage"/>
    <dc:date>2025-05-15T00:20:21.604120</dc:date>
    <dc:format>image/svg+xml</dc:format>
    <dc:creator>
     <cc:Agent>
      <dc:title>Matplotlib v3.8.4, https://matplotlib.org/</dc:title>
     </cc:Agent>
    </dc:creator>
   </cc:Work>
  </rdf:RDF>
 </metadata>
 <defs>
  <style type="text/css">*{stroke-linejoin: round; stroke-linecap: butt}</style>
 </defs>
 <g id="figure_1">
  <g id="patch_1">
   <path d="M 0 295.982844 
L 554.761875 295.982844 
L 554.761875 -0 
L 0 -0 
L 0 295.982844 
z
" style="fill: none"/>
  </g>
  <g id="axes_1">
   <g id="patch_2">
    <path d="M 58.270313 245.77425 
L 504.670312 245.77425 
L 504.670312 12.92625 
L 58.270313 12.92625 
L 58.270313 245.77425 
z
" style="fill: none"/>
   </g>
   <g id="PolyCollection_1">
    <defs>
     <path id="m22830a7bd1" d="M 68.401376 -142.611685 
L 68.401376 -95.409007 
L 69.034568 -100.47849 
L 69.667759 -103.755642 
L 70.300951 -107.303451 
L 70.934142 -109.604746 
L 71.567334 -112.021721 
L 72.200525 -107.105939 
L 72.833717 -108.510581 
L 73.466908 -111.486666 
L 74.1001 -109.538399 
L 74.733291 -109.249565 
L 75.366483 -107.682334 
L 75.999674 -111.631574 
L 76.632866 -101.851423 
L 77.266057 -105.908716 
L 77.899249 -101.063169 
L 78.53244 -102.199056 
L 79.165632 -102.820368 
L 79.798823 -106.370308 
L 80.432015 -103.496758 
L 81.065206 -103.512198 
L 81.698398 -101.333056 
L 82.331589 -110.232133 
L 82.964781 -110.342964 
L 83.597972 -107.763758 
L 84.231164 -107.539357 
L 84.864355 -107.800456 
L 85.497547 -106.144628 
L 86.130738 -108.268948 
L 86.76393 -109.47508 
L 87.397121 -109.86406 
L 88.030313 -110.986082 
L 88.663504 -110.158911 
L 89.296695 -111.134012 
L 89.929887 -107.401632 
L 90.563078 -114.7911 
L 91.19627 -114.906611 
L 91.829461 -114.499878 
L 92.462653 -105.643483 
L 93.095844 -106.941511 
L 93.729036 -106.945496 
L 94.362227 -109.40851 
L 94.995419 -116.977684 
L 95.62861 -116.977369 
L 96.261802 -112.788358 
L 96.894993 -113.996213 
L 97.528185 -113.835984 
L 98.161376 -115.85581 
L 98.794568 -115.03919 
L 99.427759 -109.864163 
L 100.060951 -105.992241 
L 100.694142 -99.953823 
L 101.327334 -101.646626 
L 101.960525 -105.009153 
L 102.593717 -109.248467 
L 103.226908 -112.464983 
L 103.8601 -118.10649 
L 104.493291 -119.847436 
L 105.126483 -116.399558 
L 105.759674 -118.281607 
L 106.392866 -120.262338 
L 107.026057 -120.765577 
L 107.659249 -117.909314 
L 108.29244 -114.927405 
L 108.925632 -114.66651 
L 109.558823 -117.531301 
L 110.192015 -126.640976 
L 110.825206 -132.541662 
L 111.458398 -132.272154 
L 112.091589 -129.282208 
L 112.724781 -129.622573 
L 113.357972 -125.925179 
L 113.991164 -121.94876 
L 114.624355 -118.207644 
L 115.257547 -113.621146 
L 115.890738 -114.844688 
L 116.52393 -116.567155 
L 117.157121 -114.195288 
L 117.790312 -117.912789 
L 118.423504 -126.70852 
L 119.056695 -133.797134 
L 119.689887 -139.871624 
L 120.323078 -139.409634 
L 120.95627 -144.362557 
L 121.589461 -152.512013 
L 122.222653 -158.880044 
L 122.855844 -163.682526 
L 123.489036 -168.404326 
L 124.122227 -175.217127 
L 124.755419 -178.797227 
L 125.38861 -179.348786 
L 126.021802 -182.927077 
L 126.654993 -187.656481 
L 127.288185 -195.570465 
L 127.921376 -190.022351 
L 128.554568 -191.429062 
L 129.187759 -194.326914 
L 129.820951 -190.896211 
L 130.454142 -183.756296 
L 131.087334 -171.396115 
L 131.720525 -161.257654 
L 132.353717 -153.852841 
L 132.986908 -147.656889 
L 133.6201 -142.03794 
L 134.253291 -131.547948 
L 134.886483 -130.190504 
L 135.519674 -136.724037 
L 136.152866 -135.389991 
L 136.786057 -133.770211 
L 137.419249 -129.36812 
L 138.05244 -139.652106 
L 138.685632 -130.03573 
L 139.318823 -120.102429 
L 139.952015 -114.304906 
L 140.585206 -111.260529 
L 141.218398 -112.103842 
L 141.851589 -113.083209 
L 142.484781 -113.576828 
L 143.117972 -113.768657 
L 143.751164 -124.454581 
L 144.384355 -129.069219 
L 145.017547 -135.687353 
L 145.650738 -136.616613 
L 146.28393 -141.887329 
L 146.917121 -138.991989 
L 147.550313 -138.664721 
L 148.183504 -128.591004 
L 148.816695 -132.232406 
L 149.449887 -137.670651 
L 150.083078 -135.245518 
L 150.71627 -140.677876 
L 151.349461 -145.980007 
L 151.982653 -154.583009 
L 152.615844 -162.655248 
L 153.249036 -161.154537 
L 153.882227 -148.020548 
L 154.515419 -142.890711 
L 155.14861 -140.022485 
L 155.781802 -136.053931 
L 156.414993 -128.965293 
L 157.048185 -127.996794 
L 157.681376 -132.923468 
L 158.314568 -141.454603 
L 158.947759 -148.227194 
L 159.580951 -141.488898 
L 160.214142 -142.496396 
L 160.847334 -138.982828 
L 161.480525 -136.586567 
L 162.113717 -137.120051 
L 162.746908 -135.266273 
L 163.3801 -141.759276 
L 164.013291 -149.161792 
L 164.646483 -155.04823 
L 165.279674 -147.187765 
L 165.912866 -147.408376 
L 166.546057 -156.455445 
L 167.179249 -161.728618 
L 167.81244 -163.685108 
L 168.445632 -165.950806 
L 169.078823 -162.811485 
L 169.712015 -175.453314 
L 170.345206 -173.963287 
L 170.978398 -174.418893 
L 171.611589 -171.644332 
L 172.244781 -161.543882 
L 172.877972 -155.068779 
L 173.511164 -146.701163 
L 174.144355 -143.535764 
L 174.777547 -144.961271 
L 175.410738 -149.989421 
L 176.04393 -154.849183 
L 176.677121 -153.694103 
L 177.310313 -145.92595 
L 177.943504 -139.026381 
L 178.576695 -134.835907 
L 179.209887 -130.366695 
L 179.843078 -119.268626 
L 180.47627 -123.518152 
L 181.109461 -128.292871 
L 181.742653 -129.476848 
L 182.375844 -132.717117 
L 183.009036 -135.443348 
L 183.642227 -134.951678 
L 184.275419 -132.688389 
L 184.90861 -131.583269 
L 185.541802 -128.460945 
L 186.174993 -123.809598 
L 186.808185 -117.467351 
L 187.441376 -114.3324 
L 188.074568 -115.623869 
L 188.707759 -115.314007 
L 189.340951 -119.529408 
L 189.974142 -130.012882 
L 190.607334 -125.451128 
L 191.240525 -125.688168 
L 191.873717 -129.799479 
L 192.506908 -130.087046 
L 193.1401 -132.685603 
L 193.773291 -137.001804 
L 194.406483 -135.991202 
L 195.039674 -138.961084 
L 195.672866 -143.03862 
L 196.306057 -147.460959 
L 196.939249 -146.030655 
L 197.57244 -150.149058 
L 198.205632 -144.709343 
L 198.838823 -142.284749 
L 199.472015 -136.828921 
L 200.105206 -130.665633 
L 200.738398 -137.906223 
L 201.371589 -137.482823 
L 202.004781 -134.40506 
L 202.637972 -132.330451 
L 203.271164 -129.598024 
L 203.904355 -127.250974 
L 204.537547 -128.625757 
L 205.170738 -124.113371 
L 205.80393 -118.984908 
L 206.437121 -115.180268 
L 207.070312 -116.368693 
L 207.703504 -113.887501 
L 208.336695 -119.762458 
L 208.969887 -118.0918 
L 209.603078 -116.355797 
L 210.23627 -113.791995 
L 210.869461 -109.214454 
L 211.502653 -108.093433 
L 212.135844 -107.395132 
L 212.769036 -116.355139 
L 213.402227 -123.627365 
L 214.035419 -120.258001 
L 214.66861 -122.00705 
L 215.301802 -124.721549 
L 215.934993 -124.996959 
L 216.568185 -124.840929 
L 217.201376 -126.464301 
L 217.834568 -127.131669 
L 218.467759 -127.797239 
L 219.100951 -126.349841 
L 219.734142 -130.885751 
L 220.367334 -129.88054 
L 221.000525 -129.592496 
L 221.633717 -126.832516 
L 222.266908 -130.057074 
L 222.9001 -119.83802 
L 223.533291 -110.665016 
L 224.166483 -113.75079 
L 224.799674 -112.498595 
L 225.432866 -117.921575 
L 226.066057 -128.619079 
L 226.699249 -134.92002 
L 227.33244 -138.573332 
L 227.965632 -144.241919 
L 228.598823 -149.751634 
L 229.232015 -159.542254 
L 229.865206 -162.156706 
L 230.498398 -168.560494 
L 231.131589 -177.999191 
L 231.764781 -187.670434 
L 232.397972 -195.527143 
L 233.031164 -207.62522 
L 233.664355 -218.712712 
L 234.297547 -228.983502 
L 234.930738 -233.847116 
L 235.56393 -234.101513 
L 236.197121 -222.617287 
L 236.830313 -221.140049 
L 237.463504 -217.995994 
L 238.096695 -216.553771 
L 238.729887 -204.57705 
L 239.363078 -207.79756 
L 239.99627 -209.489521 
L 240.629461 -214.410225 
L 241.262653 -209.037977 
L 241.895844 -195.926005 
L 242.529036 -194.233275 
L 243.162227 -181.445271 
L 243.795419 -170.580877 
L 244.42861 -161.208316 
L 245.061802 -167.209681 
L 245.694993 -167.548833 
L 246.328185 -180.209072 
L 246.961376 -170.874664 
L 247.594568 -174.365051 
L 248.227759 -176.714584 
L 248.860951 -187.301597 
L 249.494142 -173.268766 
L 250.127334 -175.66042 
L 250.760525 -171.8092 
L 251.393717 -176.756029 
L 252.026908 -187.771095 
L 252.6601 -188.761336 
L 253.293291 -189.340717 
L 253.926483 -198.879071 
L 254.559674 -200.749793 
L 255.192866 -197.808168 
L 255.826057 -188.810965 
L 256.459249 -175.591525 
L 257.09244 -179.085493 
L 257.725632 -174.909738 
L 258.358823 -176.646754 
L 258.992015 -174.687244 
L 259.625206 -178.342276 
L 260.258398 -165.385735 
L 260.891589 -162.453818 
L 261.524781 -154.005455 
L 262.157972 -144.887575 
L 262.791164 -138.344614 
L 263.424355 -148.728004 
L 264.057547 -138.650281 
L 264.690738 -138.13539 
L 265.32393 -135.740565 
L 265.957121 -133.432947 
L 266.590312 -135.725632 
L 267.223504 -135.340176 
L 267.856695 -137.357493 
L 268.489887 -126.866915 
L 269.123078 -124.03797 
L 269.75627 -123.937978 
L 270.389461 -126.237952 
L 271.022653 -126.032406 
L 271.655844 -135.557482 
L 272.289036 -146.186799 
L 272.922227 -152.795287 
L 273.555419 -154.235493 
L 274.18861 -166.012551 
L 274.821802 -167.927193 
L 275.454993 -165.900293 
L 276.088185 -172.091968 
L 276.721376 -180.144338 
L 277.354568 -181.28258 
L 277.987759 -176.956952 
L 278.620951 -178.61283 
L 279.254142 -174.910795 
L 279.887334 -174.269635 
L 280.520525 -173.18934 
L 281.153717 -167.807003 
L 281.786908 -156.231396 
L 282.4201 -152.550538 
L 283.053291 -144.507636 
L 283.686483 -134.466589 
L 284.319674 -122.731256 
L 284.952866 -116.16263 
L 285.586057 -111.504015 
L 286.219249 -105.51575 
L 286.85244 -97.380979 
L 287.485632 -96.586394 
L 288.118823 -91.857137 
L 288.752015 -94.967942 
L 289.385206 -94.306931 
L 290.018398 -97.308963 
L 290.651589 -104.387468 
L 291.284781 -103.339198 
L 291.917972 -105.892819 
L 292.551164 -100.381883 
L 293.184355 -98.790136 
L 293.817547 -96.701345 
L 294.450738 -107.681156 
L 295.08393 -113.914391 
L 295.717121 -125.985508 
L 296.350312 -123.873793 
L 296.983504 -132.553355 
L 297.616695 -141.256719 
L 298.249887 -143.138819 
L 298.883078 -148.958775 
L 299.51627 -155.052897 
L 300.149461 -162.782922 
L 300.782653 -158.300621 
L 301.415844 -160.039993 
L 302.049036 -157.492566 
L 302.682227 -156.120529 
L 303.315419 -154.823495 
L 303.94861 -157.774152 
L 304.581802 -148.115837 
L 305.214993 -142.422666 
L 305.848185 -129.72763 
L 306.481376 -132.407122 
L 307.114568 -125.43653 
L 307.747759 -120.182939 
L 308.380951 -126.183881 
L 309.014142 -126.926803 
L 309.647334 -126.765675 
L 310.280525 -117.116695 
L 310.913717 -126.050532 
L 311.546908 -136.773093 
L 312.1801 -146.740141 
L 312.813291 -157.224587 
L 313.446483 -163.610248 
L 314.079674 -163.212913 
L 314.712866 -162.279202 
L 315.346057 -162.661374 
L 315.979249 -165.517784 
L 316.61244 -165.04073 
L 317.245632 -167.863991 
L 317.878823 -169.206075 
L 318.512015 -169.951417 
L 319.145206 -169.022866 
L 319.778398 -160.787047 
L 320.411589 -160.019272 
L 321.044781 -152.184421 
L 321.677972 -140.891676 
L 322.311164 -131.76577 
L 322.944355 -123.721668 
L 323.577547 -128.571882 
L 324.210738 -136.263662 
L 324.84393 -142.515469 
L 325.477121 -140.959489 
L 326.110312 -149.504716 
L 326.743504 -159.602718 
L 327.376695 -165.423056 
L 328.009887 -169.654458 
L 328.643078 -175.126591 
L 329.27627 -175.783456 
L 329.909461 -189.052117 
L 330.542653 -199.551477 
L 331.175844 -208.065501 
L 331.809036 -217.802314 
L 332.442227 -228.407687 
L 333.075419 -236.807295 
L 333.70861 -236.913486 
L 334.341802 -235.163582 
L 334.974993 -235.457457 
L 335.608185 -247.395508 
L 336.241376 -238.822217 
L 336.874568 -239.521527 
L 337.507759 -230.407868 
L 338.140951 -228.652494 
L 338.774142 -228.396317 
L 339.407334 -229.783321 
L 340.040525 -230.040947 
L 340.673717 -230.688044 
L 341.306908 -229.130078 
L 341.9401 -228.287047 
L 342.573291 -217.567825 
L 343.206483 -218.13683 
L 343.839674 -218.221964 
L 344.472866 -221.772418 
L 345.106057 -226.211434 
L 345.739249 -219.86724 
L 346.37244 -229.948944 
L 347.005632 -221.630965 
L 347.638823 -228.912594 
L 348.272015 -228.157574 
L 348.905206 -222.997681 
L 349.538398 -222.39536 
L 350.171589 -221.158196 
L 350.804781 -214.045188 
L 351.437972 -205.387154 
L 352.071164 -199.60488 
L 352.704355 -199.342611 
L 353.337547 -188.276915 
L 353.970738 -176.638363 
L 354.60393 -164.161121 
L 355.237121 -154.194053 
L 355.870312 -151.366297 
L 356.503504 -144.263639 
L 357.136695 -146.228267 
L 357.769887 -136.122828 
L 358.403078 -131.663623 
L 359.03627 -131.776414 
L 359.669461 -122.610847 
L 360.302653 -111.96547 
L 360.935844 -109.796105 
L 361.569036 -111.469324 
L 362.202227 -111.422365 
L 362.835419 -112.831457 
L 363.46861 -115.109906 
L 364.101802 -119.076096 
L 364.734993 -122.948425 
L 365.368185 -128.567052 
L 366.001376 -127.132659 
L 366.634568 -121.772277 
L 367.267759 -118.879704 
L 367.900951 -121.715551 
L 368.534142 -116.23018 
L 369.167334 -110.585098 
L 369.800525 -111.296256 
L 370.433717 -112.190738 
L 371.066908 -110.244248 
L 371.7001 -109.648528 
L 372.333291 -110.998038 
L 372.966483 -109.967149 
L 373.599674 -110.157612 
L 374.232866 -111.228678 
L 374.866057 -108.237491 
L 375.499249 -105.845807 
L 376.13244 -106.128441 
L 376.765632 -114.550046 
L 377.398823 -122.010084 
L 378.032015 -130.188141 
L 378.665206 -132.971068 
L 379.298398 -131.257761 
L 379.931589 -132.804157 
L 380.564781 -137.210355 
L 381.197972 -143.316367 
L 381.831164 -146.838103 
L 382.464355 -143.703948 
L 383.097547 -148.754038 
L 383.730738 -143.809615 
L 384.36393 -147.777975 
L 384.997121 -153.64107 
L 385.630313 -156.871077 
L 386.263504 -161.505041 
L 386.896695 -160.88177 
L 387.529887 -154.599539 
L 388.163078 -147.59385 
L 388.79627 -145.960248 
L 389.429461 -147.837914 
L 390.062653 -148.650665 
L 390.695844 -148.900198 
L 391.329036 -150.880647 
L 391.962227 -151.595086 
L 392.595419 -150.669612 
L 393.22861 -147.080412 
L 393.861802 -149.197277 
L 394.494993 -140.903854 
L 395.128185 -137.628752 
L 395.761376 -130.112563 
L 396.394568 -124.508169 
L 397.027759 -117.154022 
L 397.660951 -114.634729 
L 398.294142 -112.16213 
L 398.927334 -115.151469 
L 399.560525 -113.38777 
L 400.193717 -114.513079 
L 400.826908 -110.752249 
L 401.4601 -110.298617 
L 402.093291 -107.305 
L 402.726483 -112.562824 
L 403.359674 -109.621071 
L 403.992866 -109.185972 
L 404.626057 -120.383207 
L 405.259249 -128.137441 
L 405.89244 -139.866063 
L 406.525632 -151.989623 
L 407.158823 -162.927076 
L 407.792015 -173.701382 
L 408.425206 -183.111553 
L 409.058398 -190.417976 
L 409.691589 -201.228637 
L 410.324781 -201.609667 
L 410.957972 -212.196891 
L 411.591164 -203.027008 
L 412.224355 -202.495283 
L 412.857547 -208.624699 
L 413.490738 -215.417194 
L 414.12393 -222.455661 
L 414.757121 -213.651563 
L 415.390312 -206.378614 
L 416.023504 -204.49286 
L 416.656695 -197.378338 
L 417.289887 -189.582535 
L 417.923078 -178.507439 
L 418.55627 -170.899409 
L 419.189461 -165.568486 
L 419.822653 -159.800453 
L 420.455844 -153.203248 
L 421.089036 -143.385753 
L 421.722227 -145.255754 
L 422.355419 -141.86814 
L 422.98861 -130.807499 
L 423.621802 -124.712189 
L 424.254993 -118.008183 
L 424.888185 -116.993885 
L 425.521376 -116.973547 
L 426.154568 -109.010276 
L 426.787759 -105.298783 
L 427.420951 -101.337907 
L 428.054142 -100.333682 
L 428.687334 -109.135972 
L 429.320525 -114.697091 
L 429.953717 -122.153918 
L 430.586908 -133.94827 
L 431.2201 -142.419205 
L 431.853291 -153.055157 
L 432.486483 -164.979575 
L 433.119674 -175.367174 
L 433.752866 -187.244964 
L 434.386057 -198.657005 
L 435.019249 -206.59803 
L 435.65244 -211.099048 
L 436.285632 -221.431936 
L 436.918823 -231.719439 
L 437.552015 -244.763649 
L 438.185206 -243.351212 
L 438.818398 -242.505719 
L 439.451589 -239.193077 
L 440.084781 -237.743874 
L 440.717972 -236.450346 
L 441.351164 -231.456178 
L 441.984355 -231.188547 
L 442.617547 -231.286393 
L 443.250738 -233.147828 
L 443.88393 -232.284102 
L 444.517121 -224.776504 
L 445.150312 -221.903746 
L 445.783504 -226.31206 
L 446.416695 -226.304812 
L 447.049887 -226.457317 
L 447.683078 -226.217774 
L 448.31627 -240.18537 
L 448.949461 -241.814288 
L 449.582653 -233.09689 
L 450.215844 -220.353223 
L 450.849036 -221.134429 
L 451.482227 -214.557608 
L 452.115419 -203.053987 
L 452.74861 -193.912867 
L 453.381802 -192.967876 
L 454.014993 -188.56936 
L 454.648185 -196.92844 
L 455.281376 -201.424858 
L 455.914568 -201.860369 
L 456.547759 -195.397642 
L 457.180951 -189.585749 
L 457.814142 -183.350516 
L 458.447334 -183.433791 
L 459.080525 -183.357928 
L 459.713717 -195.342161 
L 460.346908 -201.258336 
L 460.9801 -202.030131 
L 461.613291 -215.472453 
L 462.246483 -226.520545 
L 462.879674 -235.601277 
L 463.512866 -236.599609 
L 464.146057 -242.410654 
L 464.779249 -241.310425 
L 465.41244 -238.148237 
L 466.045632 -237.192042 
L 466.678823 -243.222898 
L 467.312015 -248.896542 
L 467.945206 -249.243318 
L 468.578398 -248.164574 
L 469.211589 -248.059219 
L 469.844781 -248.978164 
L 470.477972 -257.732773 
L 471.111164 -257.184535 
L 471.744355 -257.164072 
L 472.377547 -258.139531 
L 473.010738 -257.965218 
L 473.64393 -253.407246 
L 474.277121 -253.297276 
L 474.910312 -254.01427 
L 475.543504 -257.907956 
L 476.176695 -258.99699 
L 476.809887 -259.504748 
L 477.443078 -253.831846 
L 478.07627 -251.877376 
L 478.709461 -246.248741 
L 479.342653 -244.116048 
L 479.975844 -243.062232 
L 480.609036 -240.458863 
L 481.242227 -240.88078 
L 481.875419 -239.875321 
L 482.50861 -239.866888 
L 483.141802 -239.709859 
L 483.774993 -243.841501 
L 484.408185 -243.813358 
L 485.041376 -244.169777 
L 485.674568 -244.099789 
L 486.307759 -243.80291 
L 486.940951 -243.679173 
L 487.574142 -249.441474 
L 488.207334 -258.124925 
L 488.840525 -264.676625 
L 489.473717 -266.267078 
L 490.106908 -267.295218 
L 490.7401 -267.169745 
L 491.373291 -267.139731 
L 492.006483 -268.218191 
L 492.639674 -268.081244 
L 493.272866 -268.325845 
L 493.906057 -267.472904 
L 494.539249 -267.694336 
L 495.17244 -267.244611 
L 495.805632 -267.261113 
L 496.438823 -267.384119 
L 497.072015 -267.737972 
L 497.705206 -261.895794 
L 498.338398 -261.952943 
L 498.971589 -248.27039 
L 499.604781 -248.373005 
L 500.237972 -243.497335 
L 500.871164 -236.457673 
L 501.504355 -232.809169 
L 502.137547 -229.874977 
L 502.770738 -230.012977 
L 503.40393 -221.61577 
L 504.037121 -219.725908 
L 504.037121 -252.755917 
L 504.037121 -252.755917 
L 503.40393 -255.253137 
L 502.770738 -260.585156 
L 502.137547 -260.53525 
L 501.504355 -261.764505 
L 500.871164 -263.238564 
L 500.237972 -268.189478 
L 499.604781 -269.933489 
L 498.971589 -269.908476 
L 498.338398 -283.755638 
L 497.705206 -283.744013 
L 497.072015 -286.016348 
L 496.438823 -285.972301 
L 495.805632 -285.95566 
L 495.17244 -285.953509 
L 494.539249 -286.012833 
L 493.906057 -285.985847 
L 493.272866 -286.108768 
L 492.639674 -286.078022 
L 492.006483 -286.0933 
L 491.373291 -285.936093 
L 490.7401 -285.94005 
L 490.106908 -285.97504 
L 489.473717 -285.803758 
L 488.840525 -285.405862 
L 488.207334 -282.570205 
L 487.574142 -277.802948 
L 486.940951 -274.584382 
L 486.307759 -274.63 
L 485.674568 -274.738052 
L 485.041376 -274.763206 
L 484.408185 -274.632299 
L 483.774993 -274.642591 
L 483.141802 -272.630546 
L 482.50861 -272.6944 
L 481.875419 -272.697686 
L 481.242227 -273.105334 
L 480.609036 -272.939943 
L 479.975844 -274.071766 
L 479.342653 -274.472438 
L 478.709461 -275.336709 
L 478.07627 -278.31455 
L 477.443078 -279.900548 
L 476.809887 -282.751138 
L 476.176695 -282.623231 
L 475.543504 -282.330415 
L 474.910312 -280.89162 
L 474.277121 -280.650953 
L 473.64393 -280.684998 
L 473.010738 -282.50713 
L 472.377547 -282.554089 
L 471.744355 -282.276671 
L 471.111164 -282.282165 
L 470.477972 -282.432417 
L 469.844781 -277.546545 
L 469.211589 -277.224514 
L 468.578398 -277.260985 
L 467.945206 -277.647352 
L 467.312015 -277.389802 
L 466.678823 -274.113006 
L 466.045632 -270.709836 
L 465.41244 -271.104183 
L 464.779249 -272.60213 
L 464.146057 -273.024863 
L 463.512866 -269.991428 
L 462.879674 -269.567118 
L 462.246483 -263.317474 
L 461.613291 -253.861189 
L 460.9801 -241.462026 
L 460.346908 -241.092421 
L 459.713717 -232.854733 
L 459.080525 -221.970115 
L 458.447334 -222.005009 
L 457.814142 -221.966665 
L 457.180951 -225.798615 
L 456.547759 -229.41238 
L 455.914568 -233.009144 
L 455.281376 -232.845597 
L 454.648185 -230.527984 
L 454.014993 -225.167466 
L 453.381802 -227.774329 
L 452.74861 -228.186613 
L 452.115419 -234.302088 
L 451.482227 -243.663261 
L 450.849036 -252.152967 
L 450.215844 -251.826834 
L 449.582653 -264.962938 
L 448.949461 -274.066095 
L 448.31627 -273.372115 
L 447.683078 -259.729448 
L 447.049887 -259.82666 
L 446.416695 -259.758598 
L 445.783504 -259.761501 
L 445.150312 -257.415202 
L 444.517121 -259.083552 
L 443.88393 -263.961663 
L 443.250738 -264.313245 
L 442.617547 -263.529235 
L 441.984355 -263.490765 
L 441.351164 -263.598558 
L 440.717972 -266.609192 
L 440.084781 -267.108528 
L 439.451589 -267.637381 
L 438.818398 -269.10694 
L 438.185206 -269.405696 
L 437.552015 -272.764857 
L 436.918823 -261.540298 
L 436.285632 -253.306422 
L 435.65244 -245.873458 
L 435.019249 -242.081177 
L 434.386057 -235.874218 
L 433.752866 -225.867327 
L 433.119674 -215.53687 
L 432.486483 -205.93528 
L 431.853291 -195.520974 
L 431.2201 -186.766224 
L 430.586908 -179.655427 
L 429.953717 -169.293876 
L 429.320525 -163.970568 
L 428.687334 -159.978534 
L 428.054142 -152.771995 
L 427.420951 -154.108662 
L 426.787759 -158.99072 
L 426.154568 -162.986638 
L 425.521376 -169.848494 
L 424.888185 -169.869715 
L 424.254993 -170.946187 
L 423.621802 -177.998233 
L 422.98861 -184.572718 
L 422.355419 -194.749531 
L 421.722227 -198.784241 
L 421.089036 -196.284469 
L 420.455844 -204.354246 
L 419.822653 -211.296046 
L 419.189461 -215.71159 
L 418.55627 -219.551559 
L 417.923078 -225.950723 
L 417.289887 -235.308169 
L 416.656695 -241.323049 
L 416.023504 -246.22769 
L 415.390312 -247.21981 
L 414.757121 -252.785798 
L 414.12393 -258.865492 
L 413.490738 -251.045244 
L 412.857547 -242.904337 
L 412.224355 -238.992961 
L 411.591164 -239.536167 
L 410.957972 -248.983196 
L 410.324781 -240.677652 
L 409.691589 -240.384929 
L 409.058398 -230.314092 
L 408.425206 -224.954918 
L 407.792015 -216.47761 
L 407.158823 -207.643294 
L 406.525632 -197.7522 
L 405.89244 -186.79734 
L 405.259249 -176.581481 
L 404.626057 -170.169239 
L 403.992866 -160.602691 
L 403.359674 -161.217095 
L 402.726483 -165.104243 
L 402.093291 -159.261479 
L 401.4601 -161.929522 
L 400.826908 -162.246443 
L 400.193717 -166.160342 
L 399.560525 -165.186799 
L 398.927334 -167.498552 
L 398.294142 -164.113611 
L 397.660951 -167.003191 
L 397.027759 -169.807815 
L 396.394568 -177.356895 
L 395.761376 -183.684722 
L 395.128185 -191.2425 
L 394.494993 -194.421624 
L 393.861802 -202.220208 
L 393.22861 -198.986617 
L 392.595419 -202.602388 
L 391.962227 -203.826176 
L 391.329036 -203.240039 
L 390.695844 -201.771477 
L 390.062653 -201.545082 
L 389.429461 -200.78884 
L 388.79627 -198.322381 
L 388.163078 -200.272006 
L 387.529887 -206.046592 
L 386.896695 -211.099068 
L 386.263504 -211.563805 
L 385.630313 -206.522809 
L 384.997121 -203.818526 
L 384.36393 -197.441393 
L 383.730738 -194.340774 
L 383.097547 -201.052927 
L 382.464355 -195.636932 
L 381.831164 -199.132308 
L 381.197972 -195.74988 
L 380.564781 -189.638177 
L 379.931589 -184.830836 
L 379.298398 -183.258181 
L 378.665206 -185.529115 
L 378.032015 -182.025539 
L 377.398823 -174.947462 
L 376.765632 -168.591467 
L 376.13244 -159.954983 
L 375.499249 -159.584112 
L 374.866057 -161.667436 
L 374.232866 -165.26211 
L 373.599674 -164.251659 
L 372.966483 -164.045295 
L 372.333291 -165.327934 
L 371.7001 -163.933101 
L 371.066908 -164.569188 
L 370.433717 -166.826754 
L 369.800525 -165.627654 
L 369.167334 -164.840713 
L 368.534142 -170.425686 
L 367.900951 -176.61511 
L 367.267759 -172.927496 
L 366.634568 -175.79387 
L 366.001376 -181.887438 
L 365.368185 -183.672221 
L 364.734993 -178.123722 
L 364.101802 -173.301129 
L 363.46861 -168.746051 
L 362.835419 -166.010088 
L 362.202227 -164.217812 
L 361.569036 -164.268893 
L 360.935844 -162.398269 
L 360.302653 -164.548688 
L 359.669461 -174.641128 
L 359.03627 -182.214346 
L 358.403078 -182.124829 
L 357.769887 -185.557915 
L 357.136695 -195.754908 
L 356.503504 -193.883704 
L 355.870312 -198.911327 
L 355.237121 -201.916968 
L 354.60393 -210.335115 
L 353.970738 -221.916087 
L 353.337547 -232.117429 
L 352.704355 -241.756243 
L 352.071164 -242.13326 
L 351.437972 -247.098342 
L 350.804781 -254.466405 
L 350.171589 -259.101437 
L 349.538398 -259.714671 
L 348.905206 -259.99277 
L 348.272015 -262.946427 
L 347.638823 -263.336911 
L 347.005632 -257.29729 
L 346.37244 -263.032972 
L 345.739249 -255.821441 
L 345.106057 -260.103483 
L 344.472866 -257.593051 
L 343.839674 -255.682401 
L 343.206483 -255.643061 
L 342.573291 -255.36447 
L 341.9401 -264.633142 
L 341.306908 -265.1329 
L 340.673717 -265.882418 
L 340.040525 -265.596081 
L 339.407334 -265.479492 
L 338.774142 -264.831872 
L 338.140951 -264.945617 
L 337.507759 -265.772814 
L 336.874568 -272.715469 
L 336.241376 -272.404587 
L 335.608185 -278.8553 
L 334.974993 -267.100409 
L 334.341802 -266.899458 
L 333.70861 -267.827703 
L 333.075419 -267.786531 
L 332.442227 -261.747379 
L 331.809036 -252.807315 
L 331.175844 -243.209231 
L 330.542653 -237.234445 
L 329.909461 -228.52844 
L 329.27627 -215.230449 
L 328.643078 -214.870871 
L 328.009887 -211.513358 
L 327.376695 -208.98871 
L 326.743504 -204.888474 
L 326.110312 -195.960044 
L 325.477121 -188.833889 
L 324.84393 -191.168326 
L 324.210738 -184.752111 
L 323.577547 -178.170002 
L 322.944355 -174.859056 
L 322.311164 -181.367714 
L 321.677972 -189.808203 
L 321.044781 -200.410476 
L 320.411589 -206.461628 
L 319.778398 -207.419941 
L 319.145206 -217.286964 
L 318.512015 -217.849111 
L 317.878823 -217.23623 
L 317.245632 -216.201187 
L 316.61244 -213.367896 
L 315.979249 -213.983766 
L 315.346057 -210.167781 
L 314.712866 -209.626444 
L 314.079674 -210.825044 
L 313.446483 -211.273913 
L 312.813291 -204.579712 
L 312.1801 -195.197298 
L 311.546908 -185.601839 
L 310.913717 -175.802917 
L 310.280525 -168.441109 
L 309.647334 -176.488081 
L 309.014142 -176.620172 
L 308.380951 -176.164897 
L 307.747759 -169.583425 
L 307.114568 -173.127392 
L 306.481376 -179.118502 
L 305.848185 -175.151509 
L 305.214993 -186.798239 
L 304.581802 -193.19194 
L 303.94861 -201.24156 
L 303.315419 -197.352789 
L 302.682227 -199.085399 
L 302.049036 -200.874451 
L 301.415844 -204.217322 
L 300.782653 -201.400398 
L 300.149461 -205.659385 
L 299.51627 -199.981025 
L 298.883078 -193.553557 
L 298.249887 -189.144996 
L 297.616695 -186.048617 
L 296.983504 -179.408154 
L 296.350312 -171.320343 
L 295.717121 -174.489507 
L 295.08393 -163.654865 
L 294.450738 -156.551427 
L 293.817547 -146.591956 
L 293.184355 -149.345683 
L 292.551164 -151.133667 
L 291.917972 -156.376504 
L 291.284781 -153.147291 
L 290.651589 -154.802275 
L 290.018398 -147.17031 
L 289.385206 -143.755382 
L 288.752015 -144.622677 
L 288.118823 -141.234562 
L 287.485632 -147.739564 
L 286.85244 -148.556368 
L 286.219249 -156.309604 
L 285.586057 -162.506966 
L 284.952866 -167.904183 
L 284.319674 -175.25406 
L 283.686483 -185.696074 
L 283.053291 -194.020622 
L 282.4201 -200.318396 
L 281.786908 -202.743811 
L 281.153717 -213.225799 
L 280.520525 -219.634884 
L 279.887334 -221.158142 
L 279.254142 -221.975471 
L 278.620951 -226.014087 
L 277.987759 -223.748445 
L 277.354568 -227.746695 
L 276.721376 -226.555031 
L 276.088185 -218.952826 
L 275.454993 -212.45551 
L 274.821802 -214.224636 
L 274.18861 -212.483792 
L 273.555419 -202.137834 
L 272.922227 -201.300204 
L 272.289036 -196.40189 
L 271.655844 -186.824614 
L 271.022653 -178.830924 
L 270.389461 -179.020787 
L 269.75627 -175.706404 
L 269.123078 -175.826992 
L 268.489887 -178.209063 
L 267.856695 -188.295418 
L 267.223504 -186.579821 
L 266.590312 -186.993821 
L 265.957121 -183.673417 
L 265.32393 -186.478565 
L 264.690738 -188.278877 
L 264.057547 -188.775933 
L 263.424355 -198.176744 
L 262.791164 -188.417294 
L 262.157972 -193.273934 
L 261.524781 -201.876764 
L 260.891589 -209.118776 
L 260.258398 -211.486154 
L 259.625206 -224.135799 
L 258.992015 -218.556638 
L 258.358823 -219.865913 
L 257.725632 -218.771268 
L 257.09244 -221.941371 
L 256.459249 -217.417397 
L 255.826057 -230.104512 
L 255.192866 -236.91919 
L 254.559674 -238.504994 
L 253.926483 -236.583344 
L 253.293291 -228.222902 
L 252.6601 -227.277351 
L 252.026908 -226.762177 
L 251.393717 -215.120973 
L 250.760525 -211.731224 
L 250.127334 -213.937279 
L 249.494142 -212.639368 
L 248.860951 -226.633228 
L 248.227759 -215.828236 
L 247.594568 -214.138396 
L 246.961376 -211.632455 
L 246.328185 -221.00933 
L 245.694993 -209.309266 
L 245.061802 -209.132758 
L 244.42861 -205.171119 
L 243.795419 -212.293251 
L 243.162227 -221.413993 
L 242.529036 -232.912332 
L 241.895844 -233.758971 
L 241.262653 -246.505447 
L 240.629461 -250.029663 
L 239.99627 -247.178797 
L 239.363078 -246.092054 
L 238.729887 -244.345714 
L 238.096695 -255.918313 
L 237.463504 -256.995242 
L 236.830313 -259.254458 
L 236.197121 -260.09314 
L 235.56393 -271.144938 
L 234.930738 -271.020652 
L 234.297547 -265.825699 
L 233.664355 -257.948892 
L 233.031164 -248.555397 
L 232.397972 -238.043054 
L 231.764781 -232.433737 
L 231.131589 -224.564446 
L 230.498398 -216.325264 
L 229.865206 -209.755428 
L 229.232015 -207.590288 
L 228.598823 -197.436831 
L 227.965632 -193.438416 
L 227.33244 -188.089593 
L 226.699249 -185.190064 
L 226.066057 -180.204592 
L 225.432866 -170.14943 
L 224.799674 -166.125327 
L 224.166483 -167.627107 
L 223.533291 -163.507082 
L 222.9001 -172.031832 
L 222.266908 -181.660171 
L 221.633717 -178.055071 
L 221.000525 -180.95296 
L 220.367334 -181.307485 
L 219.734142 -182.575495 
L 219.100951 -177.541128 
L 218.467759 -179.608589 
L 217.834568 -178.999765 
L 217.201376 -178.19571 
L 216.568185 -176.625779 
L 215.934993 -176.779137 
L 215.301802 -176.386066 
L 214.66861 -173.715441 
L 214.035419 -171.552369 
L 213.402227 -176.032444 
L 212.769036 -169.785434 
L 212.135844 -161.7635 
L 211.502653 -162.618818 
L 210.869461 -163.635912 
L 210.23627 -168.278784 
L 209.603078 -171.053285 
L 208.969887 -173.178545 
L 208.336695 -175.216484 
L 207.703504 -168.225496 
L 207.070312 -170.988302 
L 206.437121 -169.711186 
L 205.80393 -172.976765 
L 205.170738 -178.900194 
L 204.537547 -183.082177 
L 203.904355 -181.155494 
L 203.271164 -183.59299 
L 202.637972 -186.326789 
L 202.004781 -188.671127 
L 201.371589 -191.93045 
L 200.738398 -192.294378 
L 200.105206 -184.040803 
L 199.472015 -188.936731 
L 198.838823 -194.050339 
L 198.205632 -196.584036 
L 197.57244 -203.210795 
L 196.939249 -198.258668 
L 196.306057 -199.786123 
L 195.672866 -195.919669 
L 195.039674 -191.404403 
L 194.406483 -188.819246 
L 193.773291 -190.269507 
L 193.1401 -185.39417 
L 192.506908 -182.808129 
L 191.873717 -182.504986 
L 191.240525 -177.943285 
L 190.607334 -177.742164 
L 189.974142 -183.496057 
L 189.340951 -173.525062 
L 188.707759 -169.747514 
L 188.074568 -170.039251 
L 187.441376 -168.727199 
L 186.808185 -172.613834 
L 186.174993 -177.790497 
L 185.541802 -181.837062 
L 184.90861 -185.412989 
L 184.275419 -186.441376 
L 183.642227 -189.240305 
L 183.009036 -189.883335 
L 182.375844 -186.540512 
L 181.742653 -182.590062 
L 181.109461 -180.954434 
L 180.47627 -176.035825 
L 179.843078 -170.733587 
L 179.209887 -181.062818 
L 178.576695 -185.002201 
L 177.943504 -188.330916 
L 177.310313 -194.04568 
L 176.677121 -200.409163 
L 176.04393 -201.084038 
L 175.410738 -196.915673 
L 174.777547 -190.365026 
L 174.144355 -189.037932 
L 173.511164 -192.205868 
L 172.877972 -200.061733 
L 172.244781 -207.070733 
L 171.611589 -216.732751 
L 170.978398 -220.452998 
L 170.345206 -219.856548 
L 169.712015 -222.034517 
L 169.078823 -209.321308 
L 168.445632 -211.341958 
L 167.81244 -209.715963 
L 167.179249 -208.410476 
L 166.546057 -204.528881 
L 165.912866 -197.125471 
L 165.279674 -196.8942 
L 164.646483 -205.903687 
L 164.013291 -198.25038 
L 163.3801 -189.081995 
L 162.746908 -183.47274 
L 162.113717 -184.879393 
L 161.480525 -184.53712 
L 160.847334 -187.029357 
L 160.214142 -190.998333 
L 159.580951 -189.588033 
L 158.947759 -197.949774 
L 158.314568 -192.731613 
L 157.681376 -182.886199 
L 157.048185 -178.509305 
L 156.414993 -179.35115 
L 155.781802 -185.559021 
L 155.14861 -189.161225 
L 154.515419 -191.265005 
L 153.882227 -198.171808 
L 153.249036 -211.425853 
L 152.615844 -212.989373 
L 151.982653 -204.969691 
L 151.349461 -196.920344 
L 150.71627 -190.631743 
L 150.083078 -183.896038 
L 149.449887 -187.057697 
L 148.816695 -180.762636 
L 148.183504 -176.575692 
L 147.550313 -187.628063 
L 146.917121 -187.973837 
L 146.28393 -190.143382 
L 145.650738 -185.887265 
L 145.017547 -185.139234 
L 144.384355 -179.465667 
L 143.751164 -173.444336 
L 143.117972 -163.925353 
L 142.484781 -163.735885 
L 141.851589 -163.041039 
L 141.218398 -161.697522 
L 140.585206 -160.3602 
L 139.952015 -164.531628 
L 139.318823 -169.901586 
L 138.685632 -179.67232 
L 138.05244 -188.549373 
L 137.419249 -177.126299 
L 136.786057 -180.985497 
L 136.152866 -181.998314 
L 135.519674 -183.237499 
L 134.886483 -175.988314 
L 134.253291 -177.401626 
L 133.6201 -188.421216 
L 132.986908 -194.399043 
L 132.353717 -199.243345 
L 131.720525 -207.125991 
L 131.087334 -216.845114 
L 130.454142 -229.166542 
L 129.820951 -235.526551 
L 129.187759 -237.657383 
L 128.554568 -235.636421 
L 127.921376 -234.749165 
L 127.288185 -242.257259 
L 126.654993 -234.066013 
L 126.021802 -230.723978 
L 125.38861 -227.051157 
L 124.755419 -226.206387 
L 124.122227 -222.070164 
L 123.489036 -216.131994 
L 122.855844 -211.329347 
L 122.222653 -207.738131 
L 121.589461 -201.324774 
L 120.95627 -194.182137 
L 120.323078 -190.605141 
L 119.689887 -190.919276 
L 119.056695 -186.429807 
L 118.423504 -178.768805 
L 117.790312 -170.024336 
L 117.157121 -165.616898 
L 116.52393 -168.630011 
L 115.890738 -167.060011 
L 115.257547 -165.5404 
L 114.624355 -171.213133 
L 113.991164 -175.443643 
L 113.357972 -179.304633 
L 112.724781 -183.196778 
L 112.091589 -182.886067 
L 111.458398 -186.276083 
L 110.825206 -186.589941 
L 110.192015 -180.16695 
L 109.558823 -171.461617 
L 108.925632 -168.555129 
L 108.29244 -168.921809 
L 107.659249 -172.550263 
L 107.026057 -176.016027 
L 106.392866 -175.433926 
L 105.759674 -173.36062 
L 105.126483 -170.711764 
L 104.493291 -173.814746 
L 103.8601 -172.004052 
L 103.226908 -166.138354 
L 102.593717 -162.818778 
L 101.960525 -158.194829 
L 101.327334 -154.311053 
L 100.694142 -152.204262 
L 100.060951 -158.757236 
L 99.427759 -163.182822 
L 98.794568 -168.030478 
L 98.161376 -169.129008 
L 97.528185 -166.762138 
L 96.894993 -166.934754 
L 96.261802 -165.422066 
L 95.62861 -169.479695 
L 94.995419 -169.480188 
L 94.362227 -161.402656 
L 93.729036 -158.341547 
L 93.095844 -158.336345 
L 92.462653 -156.721679 
L 91.829461 -164.970201 
L 91.19627 -165.506831 
L 90.563078 -165.349505 
L 89.929887 -156.722653 
L 89.296695 -159.88467 
L 88.663504 -159.118981 
L 88.030313 -160.173224 
L 87.397121 -158.630884 
L 86.76393 -158.204945 
L 86.130738 -156.467583 
L 85.497547 -154.588427 
L 84.864355 -157.040519 
L 84.231164 -156.648664 
L 83.597972 -156.961491 
L 82.964781 -159.995437 
L 82.331589 -159.847266 
L 81.698398 -151.554683 
L 81.065206 -154.121079 
L 80.432015 -154.099921 
L 79.798823 -158.106446 
L 79.165632 -155.08946 
L 78.53244 -154.565233 
L 77.899249 -153.119124 
L 77.266057 -158.728507 
L 76.632866 -153.342148 
L 75.999674 -163.262881 
L 75.366483 -158.778447 
L 74.733291 -160.733864 
L 74.1001 -161.15858 
L 73.466908 -163.581969 
L 72.833717 -160.046203 
L 72.200525 -158.043854 
L 71.567334 -163.307205 
L 70.934142 -160.436032 
L 70.300951 -156.863805 
L 69.667759 -151.623871 
L 69.034568 -147.98051 
L 68.401376 -142.611685 
z
" style="stroke: #b38665; stroke-opacity: 0.3"/>
    </defs>
    <g clip-path="url(#pfbc2119af7)">
     <use xlink:href="#m22830a7bd1" x="0" y="295.982844" style="fill: #b38665; fill-opacity: 0.3; stroke: #b38665; stroke-opacity: 0.3"/>
    </g>
   </g>
   <g id="matplotlib.axis_1">
    <g id="xtick_1">
     <g id="line2d_1">
      <defs>
       <path id="m37b9bee832" d="M 0 0 
L 0 3.5 
" style="stroke: #000000; stroke-width: 0.8"/>
      </defs>
      <g>
       <use xlink:href="#m37b9bee832" x="58.270313" y="245.77425" style="stroke: #000000; stroke-width: 0.8"/>
      </g>
     </g>
     <g id="text_1">
      <!-- 0 -->
      <g transform="translate(53.821563 264.22675) scale(0.16 -0.16)">
       <defs>
        <path id="ArialMT-30" d="M 266 2259 
Q 266 3072 433 3567 
Q 600 4063 929 4331 
Q 1259 4600 1759 4600 
Q 2128 4600 2406 4451 
Q 2684 4303 2865 4023 
Q 3047 3744 3150 3342 
Q 3253 2941 3253 2259 
Q 3253 1453 3087 958 
Q 2922 463 2592 192 
Q 2263 -78 1759 -78 
Q 1097 -78 719 397 
Q 266 969 266 2259 
z
M 844 2259 
Q 844 1131 1108 757 
Q 1372 384 1759 384 
Q 2147 384 2411 759 
Q 2675 1134 2675 2259 
Q 2675 3391 2411 3762 
Q 2147 4134 1753 4134 
Q 1366 4134 1134 3806 
Q 844 3388 844 2259 
z
" transform="scale(0.015625)"/>
       </defs>
       <use xlink:href="#ArialMT-30"/>
      </g>
     </g>
    </g>
    <g id="xtick_2">
     <g id="line2d_2">
      <g>
       <use xlink:href="#m37b9bee832" x="139.318823" y="245.77425" style="stroke: #000000; stroke-width: 0.8"/>
      </g>
     </g>
     <g id="text_2">
      <!-- 128 -->
      <g transform="translate(125.972573 264.22675) scale(0.16 -0.16)">
       <defs>
        <path id="ArialMT-31" d="M 2384 0 
L 1822 0 
L 1822 3584 
Q 1619 3391 1289 3197 
Q 959 3003 697 2906 
L 697 3450 
Q 1169 3672 1522 3987 
Q 1875 4303 2022 4600 
L 2384 4600 
L 2384 0 
z
" transform="scale(0.015625)"/>
        <path id="ArialMT-32" d="M 3222 541 
L 3222 0 
L 194 0 
Q 188 203 259 391 
Q 375 700 629 1000 
Q 884 1300 1366 1694 
Q 2113 2306 2375 2664 
Q 2638 3022 2638 3341 
Q 2638 3675 2398 3904 
Q 2159 4134 1775 4134 
Q 1369 4134 1125 3890 
Q 881 3647 878 3216 
L 300 3275 
Q 359 3922 746 4261 
Q 1134 4600 1788 4600 
Q 2447 4600 2831 4234 
Q 3216 3869 3216 3328 
Q 3216 3053 3103 2787 
Q 2991 2522 2730 2228 
Q 2469 1934 1863 1422 
Q 1356 997 1212 845 
Q 1069 694 975 541 
L 3222 541 
z
" transform="scale(0.015625)"/>
        <path id="ArialMT-38" d="M 1131 2484 
Q 781 2613 612 2850 
Q 444 3088 444 3419 
Q 444 3919 803 4259 
Q 1163 4600 1759 4600 
Q 2359 4600 2725 4251 
Q 3091 3903 3091 3403 
Q 3091 3084 2923 2848 
Q 2756 2613 2416 2484 
Q 2838 2347 3058 2040 
Q 3278 1734 3278 1309 
Q 3278 722 2862 322 
Q 2447 -78 1769 -78 
Q 1091 -78 675 323 
Q 259 725 259 1325 
Q 259 1772 486 2073 
Q 713 2375 1131 2484 
z
M 1019 3438 
Q 1019 3113 1228 2906 
Q 1438 2700 1772 2700 
Q 2097 2700 2305 2904 
Q 2513 3109 2513 3406 
Q 2513 3716 2298 3927 
Q 2084 4138 1766 4138 
Q 1444 4138 1231 3931 
Q 1019 3725 1019 3438 
z
M 838 1322 
Q 838 1081 952 856 
Q 1066 631 1291 507 
Q 1516 384 1775 384 
Q 2178 384 2440 643 
Q 2703 903 2703 1303 
Q 2703 1709 2433 1975 
Q 2163 2241 1756 2241 
Q 1359 2241 1098 1978 
Q 838 1716 838 1322 
z
" transform="scale(0.015625)"/>
       </defs>
       <use xlink:href="#ArialMT-31"/>
       <use xlink:href="#ArialMT-32" x="55.615234"/>
       <use xlink:href="#ArialMT-38" x="111.230469"/>
      </g>
     </g>
    </g>
    <g id="xtick_3">
     <g id="line2d_3">
      <g>
       <use xlink:href="#m37b9bee832" x="220.367334" y="245.77425" style="stroke: #000000; stroke-width: 0.8"/>
      </g>
     </g>
     <g id="text_3">
      <!-- 256 -->
      <g transform="translate(207.021084 264.22675) scale(0.16 -0.16)">
       <defs>
        <path id="ArialMT-35" d="M 266 1200 
L 856 1250 
Q 922 819 1161 601 
Q 1400 384 1738 384 
Q 2144 384 2425 690 
Q 2706 997 2706 1503 
Q 2706 1984 2436 2262 
Q 2166 2541 1728 2541 
Q 1456 2541 1237 2417 
Q 1019 2294 894 2097 
L 366 2166 
L 809 4519 
L 3088 4519 
L 3088 3981 
L 1259 3981 
L 1013 2750 
Q 1425 3038 1878 3038 
Q 2478 3038 2890 2622 
Q 3303 2206 3303 1553 
Q 3303 931 2941 478 
Q 2500 -78 1738 -78 
Q 1113 -78 717 272 
Q 322 622 266 1200 
z
" transform="scale(0.015625)"/>
        <path id="ArialMT-36" d="M 3184 3459 
L 2625 3416 
Q 2550 3747 2413 3897 
Q 2184 4138 1850 4138 
Q 1581 4138 1378 3988 
Q 1113 3794 959 3422 
Q 806 3050 800 2363 
Q 1003 2672 1297 2822 
Q 1591 2972 1913 2972 
Q 2475 2972 2870 2558 
Q 3266 2144 3266 1488 
Q 3266 1056 3080 686 
Q 2894 316 2569 119 
Q 2244 -78 1831 -78 
Q 1128 -78 684 439 
Q 241 956 241 2144 
Q 241 3472 731 4075 
Q 1159 4600 1884 4600 
Q 2425 4600 2770 4297 
Q 3116 3994 3184 3459 
z
M 888 1484 
Q 888 1194 1011 928 
Q 1134 663 1356 523 
Q 1578 384 1822 384 
Q 2178 384 2434 671 
Q 2691 959 2691 1453 
Q 2691 1928 2437 2201 
Q 2184 2475 1800 2475 
Q 1419 2475 1153 2201 
Q 888 1928 888 1484 
z
" transform="scale(0.015625)"/>
       </defs>
       <use xlink:href="#ArialMT-32"/>
       <use xlink:href="#ArialMT-35" x="55.615234"/>
       <use xlink:href="#ArialMT-36" x="111.230469"/>
      </g>
     </g>
    </g>
    <g id="xtick_4">
     <g id="line2d_4">
      <g>
       <use xlink:href="#m37b9bee832" x="301.415844" y="245.77425" style="stroke: #000000; stroke-width: 0.8"/>
      </g>
     </g>
     <g id="text_4">
      <!-- 384 -->
      <g transform="translate(288.069594 264.22675) scale(0.16 -0.16)">
       <defs>
        <path id="ArialMT-33" d="M 269 1209 
L 831 1284 
Q 928 806 1161 595 
Q 1394 384 1728 384 
Q 2125 384 2398 659 
Q 2672 934 2672 1341 
Q 2672 1728 2419 1979 
Q 2166 2231 1775 2231 
Q 1616 2231 1378 2169 
L 1441 2663 
Q 1497 2656 1531 2656 
Q 1891 2656 2178 2843 
Q 2466 3031 2466 3422 
Q 2466 3731 2256 3934 
Q 2047 4138 1716 4138 
Q 1388 4138 1169 3931 
Q 950 3725 888 3313 
L 325 3413 
Q 428 3978 793 4289 
Q 1159 4600 1703 4600 
Q 2078 4600 2393 4439 
Q 2709 4278 2876 4000 
Q 3044 3722 3044 3409 
Q 3044 3113 2884 2869 
Q 2725 2625 2413 2481 
Q 2819 2388 3044 2092 
Q 3269 1797 3269 1353 
Q 3269 753 2831 336 
Q 2394 -81 1725 -81 
Q 1122 -81 723 278 
Q 325 638 269 1209 
z
" transform="scale(0.015625)"/>
        <path id="ArialMT-34" d="M 2069 0 
L 2069 1097 
L 81 1097 
L 81 1613 
L 2172 4581 
L 2631 4581 
L 2631 1613 
L 3250 1613 
L 3250 1097 
L 2631 1097 
L 2631 0 
L 2069 0 
z
M 2069 1613 
L 2069 3678 
L 634 1613 
L 2069 1613 
z
" transform="scale(0.015625)"/>
       </defs>
       <use xlink:href="#ArialMT-33"/>
       <use xlink:href="#ArialMT-38" x="55.615234"/>
       <use xlink:href="#ArialMT-34" x="111.230469"/>
      </g>
     </g>
    </g>
    <g id="xtick_5">
     <g id="line2d_5">
      <g>
       <use xlink:href="#m37b9bee832" x="382.464355" y="245.77425" style="stroke: #000000; stroke-width: 0.8"/>
      </g>
     </g>
     <g id="text_5">
      <!-- 512 -->
      <g transform="translate(369.118105 264.22675) scale(0.16 -0.16)">
       <use xlink:href="#ArialMT-35"/>
       <use xlink:href="#ArialMT-31" x="55.615234"/>
       <use xlink:href="#ArialMT-32" x="111.230469"/>
      </g>
     </g>
    </g>
    <g id="xtick_6">
     <g id="line2d_6">
      <g>
       <use xlink:href="#m37b9bee832" x="463.512866" y="245.77425" style="stroke: #000000; stroke-width: 0.8"/>
      </g>
     </g>
     <g id="text_6">
      <!-- 640 -->
      <g transform="translate(450.166616 264.22675) scale(0.16 -0.16)">
       <use xlink:href="#ArialMT-36"/>
       <use xlink:href="#ArialMT-34" x="55.615234"/>
       <use xlink:href="#ArialMT-30" x="111.230469"/>
      </g>
     </g>
    </g>
    <g id="text_7">
     <!-- Trial -->
     <g transform="translate(263.356484 285.006594) scale(0.19 -0.19)">
      <defs>
       <path id="ArialMT-54" d="M 1659 0 
L 1659 4041 
L 150 4041 
L 150 4581 
L 3781 4581 
L 3781 4041 
L 2266 4041 
L 2266 0 
L 1659 0 
z
" transform="scale(0.015625)"/>
       <path id="ArialMT-72" d="M 416 0 
L 416 3319 
L 922 3319 
L 922 2816 
Q 1116 3169 1280 3281 
Q 1444 3394 1641 3394 
Q 1925 3394 2219 3213 
L 2025 2691 
Q 1819 2813 1613 2813 
Q 1428 2813 1281 2702 
Q 1134 2591 1072 2394 
Q 978 2094 978 1738 
L 978 0 
L 416 0 
z
" transform="scale(0.015625)"/>
       <path id="ArialMT-69" d="M 425 3934 
L 425 4581 
L 988 4581 
L 988 3934 
L 425 3934 
z
M 425 0 
L 425 3319 
L 988 3319 
L 988 0 
L 425 0 
z
" transform="scale(0.015625)"/>
       <path id="ArialMT-61" d="M 2588 409 
Q 2275 144 1986 34 
Q 1697 -75 1366 -75 
Q 819 -75 525 192 
Q 231 459 231 875 
Q 231 1119 342 1320 
Q 453 1522 633 1644 
Q 813 1766 1038 1828 
Q 1203 1872 1538 1913 
Q 2219 1994 2541 2106 
Q 2544 2222 2544 2253 
Q 2544 2597 2384 2738 
Q 2169 2928 1744 2928 
Q 1347 2928 1158 2789 
Q 969 2650 878 2297 
L 328 2372 
Q 403 2725 575 2942 
Q 747 3159 1072 3276 
Q 1397 3394 1825 3394 
Q 2250 3394 2515 3294 
Q 2781 3194 2906 3042 
Q 3031 2891 3081 2659 
Q 3109 2516 3109 2141 
L 3109 1391 
Q 3109 606 3145 398 
Q 3181 191 3288 0 
L 2700 0 
Q 2613 175 2588 409 
z
M 2541 1666 
Q 2234 1541 1622 1453 
Q 1275 1403 1131 1340 
Q 988 1278 909 1158 
Q 831 1038 831 891 
Q 831 666 1001 516 
Q 1172 366 1500 366 
Q 1825 366 2078 508 
Q 2331 650 2450 897 
Q 2541 1088 2541 1459 
L 2541 1666 
z
" transform="scale(0.015625)"/>
       <path id="ArialMT-6c" d="M 409 0 
L 409 4581 
L 972 4581 
L 972 0 
L 409 0 
z
" transform="scale(0.015625)"/>
      </defs>
      <use xlink:href="#ArialMT-54"/>
      <use xlink:href="#ArialMT-72" x="57.333984"/>
      <use xlink:href="#ArialMT-69" x="90.634766"/>
      <use xlink:href="#ArialMT-61" x="112.851562"/>
      <use xlink:href="#ArialMT-6c" x="168.466797"/>
     </g>
    </g>
   </g>
   <g id="matplotlib.axis_2">
    <g id="ytick_1">
     <g id="line2d_7">
      <defs>
       <path id="m724061e4e9" d="M 0 0 
L -3.5 0 
" style="stroke: #000000; stroke-width: 0.8"/>
      </defs>
      <g>
       <use xlink:href="#m724061e4e9" x="58.270313" y="245.77425" style="stroke: #000000; stroke-width: 0.8"/>
      </g>
     </g>
     <g id="text_8">
      <!-- 0.0 -->
      <g transform="translate(29.030313 251.5005) scale(0.16 -0.16)">
       <defs>
        <path id="ArialMT-2e" d="M 581 0 
L 581 641 
L 1222 641 
L 1222 0 
L 581 0 
z
" transform="scale(0.015625)"/>
       </defs>
       <use xlink:href="#ArialMT-30"/>
       <use xlink:href="#ArialMT-2e" x="55.615234"/>
       <use xlink:href="#ArialMT-30" x="83.398438"/>
      </g>
     </g>
    </g>
    <g id="ytick_2">
     <g id="line2d_8">
      <g>
       <use xlink:href="#m724061e4e9" x="58.270313" y="199.20465" style="stroke: #000000; stroke-width: 0.8"/>
      </g>
     </g>
     <g id="text_9">
      <!-- 0.2 -->
      <g transform="translate(29.030313 204.9309) scale(0.16 -0.16)">
       <use xlink:href="#ArialMT-30"/>
       <use xlink:href="#ArialMT-2e" x="55.615234"/>
       <use xlink:href="#ArialMT-32" x="83.398438"/>
      </g>
     </g>
    </g>
    <g id="ytick_3">
     <g id="line2d_9">
      <g>
       <use xlink:href="#m724061e4e9" x="58.270313" y="152.63505" style="stroke: #000000; stroke-width: 0.8"/>
      </g>
     </g>
     <g id="text_10">
      <!-- 0.4 -->
      <g transform="translate(29.030313 158.3613) scale(0.16 -0.16)">
       <use xlink:href="#ArialMT-30"/>
       <use xlink:href="#ArialMT-2e" x="55.615234"/>
       <use xlink:href="#ArialMT-34" x="83.398438"/>
      </g>
     </g>
    </g>
    <g id="ytick_4">
     <g id="line2d_10">
      <g>
       <use xlink:href="#m724061e4e9" x="58.270313" y="106.06545" style="stroke: #000000; stroke-width: 0.8"/>
      </g>
     </g>
     <g id="text_11">
      <!-- 0.6 -->
      <g transform="translate(29.030313 111.7917) scale(0.16 -0.16)">
       <use xlink:href="#ArialMT-30"/>
       <use xlink:href="#ArialMT-2e" x="55.615234"/>
       <use xlink:href="#ArialMT-36" x="83.398438"/>
      </g>
     </g>
    </g>
    <g id="ytick_5">
     <g id="line2d_11">
      <g>
       <use xlink:href="#m724061e4e9" x="58.270313" y="59.49585" style="stroke: #000000; stroke-width: 0.8"/>
      </g>
     </g>
     <g id="text_12">
      <!-- 0.8 -->
      <g transform="translate(29.030313 65.2221) scale(0.16 -0.16)">
       <use xlink:href="#ArialMT-30"/>
       <use xlink:href="#ArialMT-2e" x="55.615234"/>
       <use xlink:href="#ArialMT-38" x="83.398438"/>
      </g>
     </g>
    </g>
    <g id="ytick_6">
     <g id="line2d_12">
      <g>
       <use xlink:href="#m724061e4e9" x="58.270313" y="12.92625" style="stroke: #000000; stroke-width: 0.8"/>
      </g>
     </g>
     <g id="text_13">
      <!-- 1.0 -->
      <g transform="translate(29.030313 18.6525) scale(0.16 -0.16)">
       <use xlink:href="#ArialMT-31"/>
       <use xlink:href="#ArialMT-2e" x="55.615234"/>
       <use xlink:href="#ArialMT-30" x="83.398438"/>
      </g>
     </g>
    </g>
    <g id="text_14">
     <!-- Learning performance -->
     <g transform="translate(21.031406 222.286969) rotate(-90) scale(0.19 -0.19)">
      <defs>
       <path id="ArialMT-4c" d="M 469 0 
L 469 4581 
L 1075 4581 
L 1075 541 
L 3331 541 
L 3331 0 
L 469 0 
z
" transform="scale(0.015625)"/>
       <path id="ArialMT-65" d="M 2694 1069 
L 3275 997 
Q 3138 488 2766 206 
Q 2394 -75 1816 -75 
Q 1088 -75 661 373 
Q 234 822 234 1631 
Q 234 2469 665 2931 
Q 1097 3394 1784 3394 
Q 2450 3394 2872 2941 
Q 3294 2488 3294 1666 
Q 3294 1616 3291 1516 
L 816 1516 
Q 847 969 1125 678 
Q 1403 388 1819 388 
Q 2128 388 2347 550 
Q 2566 713 2694 1069 
z
M 847 1978 
L 2700 1978 
Q 2663 2397 2488 2606 
Q 2219 2931 1791 2931 
Q 1403 2931 1139 2672 
Q 875 2413 847 1978 
z
" transform="scale(0.015625)"/>
       <path id="ArialMT-6e" d="M 422 0 
L 422 3319 
L 928 3319 
L 928 2847 
Q 1294 3394 1984 3394 
Q 2284 3394 2536 3286 
Q 2788 3178 2913 3003 
Q 3038 2828 3088 2588 
Q 3119 2431 3119 2041 
L 3119 0 
L 2556 0 
L 2556 2019 
Q 2556 2363 2490 2533 
Q 2425 2703 2258 2804 
Q 2091 2906 1866 2906 
Q 1506 2906 1245 2678 
Q 984 2450 984 1813 
L 984 0 
L 422 0 
z
" transform="scale(0.015625)"/>
       <path id="ArialMT-67" d="M 319 -275 
L 866 -356 
Q 900 -609 1056 -725 
Q 1266 -881 1628 -881 
Q 2019 -881 2231 -725 
Q 2444 -569 2519 -288 
Q 2563 -116 2559 434 
Q 2191 0 1641 0 
Q 956 0 581 494 
Q 206 988 206 1678 
Q 206 2153 378 2554 
Q 550 2956 876 3175 
Q 1203 3394 1644 3394 
Q 2231 3394 2613 2919 
L 2613 3319 
L 3131 3319 
L 3131 450 
Q 3131 -325 2973 -648 
Q 2816 -972 2473 -1159 
Q 2131 -1347 1631 -1347 
Q 1038 -1347 672 -1080 
Q 306 -813 319 -275 
z
M 784 1719 
Q 784 1066 1043 766 
Q 1303 466 1694 466 
Q 2081 466 2343 764 
Q 2606 1063 2606 1700 
Q 2606 2309 2336 2618 
Q 2066 2928 1684 2928 
Q 1309 2928 1046 2623 
Q 784 2319 784 1719 
z
" transform="scale(0.015625)"/>
       <path id="ArialMT-20" transform="scale(0.015625)"/>
       <path id="ArialMT-70" d="M 422 -1272 
L 422 3319 
L 934 3319 
L 934 2888 
Q 1116 3141 1344 3267 
Q 1572 3394 1897 3394 
Q 2322 3394 2647 3175 
Q 2972 2956 3137 2557 
Q 3303 2159 3303 1684 
Q 3303 1175 3120 767 
Q 2938 359 2589 142 
Q 2241 -75 1856 -75 
Q 1575 -75 1351 44 
Q 1128 163 984 344 
L 984 -1272 
L 422 -1272 
z
M 931 1641 
Q 931 1000 1190 694 
Q 1450 388 1819 388 
Q 2194 388 2461 705 
Q 2728 1022 2728 1688 
Q 2728 2322 2467 2637 
Q 2206 2953 1844 2953 
Q 1484 2953 1207 2617 
Q 931 2281 931 1641 
z
" transform="scale(0.015625)"/>
       <path id="ArialMT-66" d="M 556 0 
L 556 2881 
L 59 2881 
L 59 3319 
L 556 3319 
L 556 3672 
Q 556 4006 616 4169 
Q 697 4388 901 4523 
Q 1106 4659 1475 4659 
Q 1713 4659 2000 4603 
L 1916 4113 
Q 1741 4144 1584 4144 
Q 1328 4144 1222 4034 
Q 1116 3925 1116 3625 
L 1116 3319 
L 1763 3319 
L 1763 2881 
L 1116 2881 
L 1116 0 
L 556 0 
z
" transform="scale(0.015625)"/>
       <path id="ArialMT-6f" d="M 213 1659 
Q 213 2581 725 3025 
Q 1153 3394 1769 3394 
Q 2453 3394 2887 2945 
Q 3322 2497 3322 1706 
Q 3322 1066 3130 698 
Q 2938 331 2570 128 
Q 2203 -75 1769 -75 
Q 1072 -75 642 372 
Q 213 819 213 1659 
z
M 791 1659 
Q 791 1022 1069 705 
Q 1347 388 1769 388 
Q 2188 388 2466 706 
Q 2744 1025 2744 1678 
Q 2744 2294 2464 2611 
Q 2184 2928 1769 2928 
Q 1347 2928 1069 2612 
Q 791 2297 791 1659 
z
" transform="scale(0.015625)"/>
       <path id="ArialMT-6d" d="M 422 0 
L 422 3319 
L 925 3319 
L 925 2853 
Q 1081 3097 1340 3245 
Q 1600 3394 1931 3394 
Q 2300 3394 2536 3241 
Q 2772 3088 2869 2813 
Q 3263 3394 3894 3394 
Q 4388 3394 4653 3120 
Q 4919 2847 4919 2278 
L 4919 0 
L 4359 0 
L 4359 2091 
Q 4359 2428 4304 2576 
Q 4250 2725 4106 2815 
Q 3963 2906 3769 2906 
Q 3419 2906 3187 2673 
Q 2956 2441 2956 1928 
L 2956 0 
L 2394 0 
L 2394 2156 
Q 2394 2531 2256 2718 
Q 2119 2906 1806 2906 
Q 1569 2906 1367 2781 
Q 1166 2656 1075 2415 
Q 984 2175 984 1722 
L 984 0 
L 422 0 
z
" transform="scale(0.015625)"/>
       <path id="ArialMT-63" d="M 2588 1216 
L 3141 1144 
Q 3050 572 2676 248 
Q 2303 -75 1759 -75 
Q 1078 -75 664 370 
Q 250 816 250 1647 
Q 250 2184 428 2587 
Q 606 2991 970 3192 
Q 1334 3394 1763 3394 
Q 2303 3394 2647 3120 
Q 2991 2847 3088 2344 
L 2541 2259 
Q 2463 2594 2264 2762 
Q 2066 2931 1784 2931 
Q 1359 2931 1093 2626 
Q 828 2322 828 1663 
Q 828 994 1084 691 
Q 1341 388 1753 388 
Q 2084 388 2306 591 
Q 2528 794 2588 1216 
z
" transform="scale(0.015625)"/>
      </defs>
      <use xlink:href="#ArialMT-4c"/>
      <use xlink:href="#ArialMT-65" x="55.615234"/>
      <use xlink:href="#ArialMT-61" x="111.230469"/>
      <use xlink:href="#ArialMT-72" x="166.845703"/>
      <use xlink:href="#ArialMT-6e" x="200.146484"/>
      <use xlink:href="#ArialMT-69" x="255.761719"/>
      <use xlink:href="#ArialMT-6e" x="277.978516"/>
      <use xlink:href="#ArialMT-67" x="333.59375"/>
      <use xlink:href="#ArialMT-20" x="389.208984"/>
      <use xlink:href="#ArialMT-70" x="416.992188"/>
      <use xlink:href="#ArialMT-65" x="472.607422"/>
      <use xlink:href="#ArialMT-72" x="528.222656"/>
      <use xlink:href="#ArialMT-66" x="561.523438"/>
      <use xlink:href="#ArialMT-6f" x="589.306641"/>
      <use xlink:href="#ArialMT-72" x="644.921875"/>
      <use xlink:href="#ArialMT-6d" x="678.222656"/>
      <use xlink:href="#ArialMT-61" x="761.523438"/>
      <use xlink:href="#ArialMT-6e" x="817.138672"/>
      <use xlink:href="#ArialMT-63" x="872.753906"/>
      <use xlink:href="#ArialMT-65" x="922.753906"/>
     </g>
    </g>
   </g>
   <g id="line2d_13">
    <path d="M 68.401376 216.66825 
L 69.034568 216.66825 
L 69.667759 231.22125 
L 70.300951 231.22125 
L 70.934142 216.66825 
L 71.567334 216.66825 
L 72.833717 187.56225 
L 74.733291 187.56225 
L 75.366483 173.00925 
L 75.999674 187.56225 
L 77.899249 187.56225 
L 78.53244 173.00925 
L 79.165632 173.00925 
L 80.432015 143.90325 
L 81.065206 143.90325 
L 81.698398 129.35025 
L 82.964781 129.35025 
L 84.231164 100.24425 
L 87.397121 100.24425 
L 88.030313 85.69125 
L 88.663504 100.24425 
L 89.929887 100.24425 
L 91.19627 129.35025 
L 93.095844 129.35025 
L 93.729036 143.90325 
L 96.261802 143.90325 
L 96.894993 129.35025 
L 97.528185 129.35025 
L 98.161376 143.90325 
L 99.427759 114.79725 
L 100.060951 129.35025 
L 101.960525 129.35025 
L 103.226908 158.45625 
L 103.8601 158.45625 
L 104.493291 173.00925 
L 106.392866 173.00925 
L 107.026057 187.56225 
L 108.925632 187.56225 
L 109.558823 202.11525 
L 110.825206 173.00925 
L 111.458398 173.00925 
L 112.091589 187.56225 
L 114.624355 187.56225 
L 115.257547 173.00925 
L 115.890738 173.00925 
L 117.790312 129.35025 
L 119.056695 129.35025 
L 119.689887 114.79725 
L 120.323078 114.79725 
L 120.95627 129.35025 
L 121.589461 114.79725 
L 122.222653 114.79725 
L 124.755419 56.58525 
L 125.38861 71.13825 
L 126.021802 71.13825 
L 126.654993 85.69125 
L 127.288185 85.69125 
L 127.921376 100.24425 
L 128.554568 100.24425 
L 129.820951 129.35025 
L 131.087334 129.35025 
L 131.720525 143.90325 
L 133.6201 143.90325 
L 134.253291 158.45625 
L 136.786057 158.45625 
L 137.419249 173.00925 
L 138.05244 173.00925 
L 138.685632 158.45625 
L 139.952015 158.45625 
L 140.585206 173.00925 
L 141.218398 173.00925 
L 142.484781 143.90325 
L 143.751164 143.90325 
L 144.384355 129.35025 
L 145.017547 143.90325 
L 146.917121 143.90325 
L 147.550313 129.35025 
L 148.816695 129.35025 
L 151.349461 71.13825 
L 151.982653 85.69125 
L 153.882227 85.69125 
L 154.515419 100.24425 
L 155.781802 71.13825 
L 156.414993 71.13825 
L 157.048185 56.58525 
L 157.681376 71.13825 
L 158.314568 71.13825 
L 158.947759 85.69125 
L 159.580951 85.69125 
L 161.480525 129.35025 
L 162.746908 129.35025 
L 163.3801 143.90325 
L 164.013291 143.90325 
L 164.646483 129.35025 
L 165.912866 129.35025 
L 167.179249 158.45625 
L 167.81244 158.45625 
L 169.078823 129.35025 
L 169.712015 129.35025 
L 170.978398 100.24425 
L 172.244781 100.24425 
L 172.877972 114.79725 
L 173.511164 100.24425 
L 174.144355 114.79725 
L 174.777547 114.79725 
L 175.410738 129.35025 
L 176.04393 129.35025 
L 177.943504 85.69125 
L 178.576695 85.69125 
L 179.843078 114.79725 
L 181.742653 114.79725 
L 183.009036 85.69125 
L 183.642227 100.24425 
L 184.275419 85.69125 
L 185.541802 85.69125 
L 187.441376 129.35025 
L 188.707759 129.35025 
L 189.974142 100.24425 
L 191.240525 100.24425 
L 191.873717 85.69125 
L 192.506908 100.24425 
L 193.1401 100.24425 
L 193.773291 85.69125 
L 195.672866 85.69125 
L 196.306057 71.13825 
L 196.939249 71.13825 
L 197.57244 56.58525 
L 200.105206 56.58525 
L 202.004781 100.24425 
L 202.637972 85.69125 
L 203.271164 85.69125 
L 203.904355 100.24425 
L 205.170738 100.24425 
L 205.80393 85.69125 
L 207.703504 85.69125 
L 208.336695 100.24425 
L 210.23627 100.24425 
L 210.869461 85.69125 
L 212.769036 85.69125 
L 213.402227 100.24425 
L 214.66861 100.24425 
L 216.568185 143.90325 
L 218.467759 143.90325 
L 219.100951 158.45625 
L 222.266908 158.45625 
L 222.9001 173.00925 
L 223.533291 158.45625 
L 224.166483 158.45625 
L 224.799674 173.00925 
L 227.33244 114.79725 
L 227.965632 129.35025 
L 228.598823 129.35025 
L 229.232015 114.79725 
L 231.131589 114.79725 
L 232.397972 85.69125 
L 233.664355 85.69125 
L 234.930738 56.58525 
L 235.56393 71.13825 
L 236.197121 71.13825 
L 236.830313 85.69125 
L 237.463504 85.69125 
L 238.729887 56.58525 
L 241.895844 56.58525 
L 242.529036 71.13825 
L 245.061802 71.13825 
L 245.694993 56.58525 
L 246.328185 56.58525 
L 246.961376 42.03225 
L 249.494142 42.03225 
L 250.127334 56.58525 
L 252.026908 56.58525 
L 252.6601 42.03225 
L 254.559674 42.03225 
L 255.192866 56.58525 
L 259.625206 56.58525 
L 260.258398 42.03225 
L 262.791164 42.03225 
L 263.424355 27.47925 
L 264.057547 42.03225 
L 264.690738 42.03225 
L 265.32393 27.47925 
L 265.957121 42.03225 
L 267.223504 42.03225 
L 268.489887 71.13825 
L 269.75627 71.13825 
L 270.389461 85.69125 
L 273.555419 85.69125 
L 274.18861 71.13825 
L 276.088185 71.13825 
L 276.721376 85.69125 
L 278.620951 85.69125 
L 279.887334 114.79725 
L 280.520525 100.24425 
L 281.153717 100.24425 
L 283.053291 143.90325 
L 285.586057 143.90325 
L 286.85244 114.79725 
L 287.485632 114.79725 
L 290.018398 56.58525 
L 290.651589 56.58525 
L 291.284781 71.13825 
L 291.917972 71.13825 
L 293.184355 42.03225 
L 294.450738 42.03225 
L 296.350312 85.69125 
L 297.616695 85.69125 
L 300.782653 158.45625 
L 301.415844 158.45625 
L 302.049036 143.90325 
L 302.682227 143.90325 
L 304.581802 187.56225 
L 305.848185 158.45625 
L 306.481376 158.45625 
L 307.114568 173.00925 
L 308.380951 173.00925 
L 309.014142 158.45625 
L 310.913717 158.45625 
L 311.546908 143.90325 
L 312.813291 173.00925 
L 313.446483 158.45625 
L 315.979249 158.45625 
L 317.245632 129.35025 
L 317.878823 129.35025 
L 318.512015 114.79725 
L 319.145206 114.79725 
L 320.411589 85.69125 
L 321.677972 85.69125 
L 322.944355 56.58525 
L 324.210738 56.58525 
L 324.84393 42.03225 
L 325.477121 56.58525 
L 326.743504 56.58525 
L 327.376695 71.13825 
L 329.27627 71.13825 
L 329.909461 85.69125 
L 330.542653 85.69125 
L 331.175844 71.13825 
L 334.341802 71.13825 
L 334.974993 85.69125 
L 335.608185 71.13825 
L 340.040525 71.13825 
L 341.306908 100.24425 
L 341.9401 100.24425 
L 342.573291 114.79725 
L 343.839674 114.79725 
L 344.472866 100.24425 
L 346.37244 100.24425 
L 347.005632 114.79725 
L 349.538398 114.79725 
L 350.804781 85.69125 
L 352.071164 85.69125 
L 352.704355 71.13825 
L 353.337547 71.13825 
L 353.970738 85.69125 
L 357.769887 85.69125 
L 359.669461 129.35025 
L 360.935844 129.35025 
L 361.569036 114.79725 
L 362.835419 114.79725 
L 363.46861 129.35025 
L 364.101802 114.79725 
L 364.734993 129.35025 
L 365.368185 129.35025 
L 366.001376 143.90325 
L 367.900951 143.90325 
L 369.800525 100.24425 
L 372.966483 100.24425 
L 373.599674 85.69125 
L 374.232866 100.24425 
L 375.499249 100.24425 
L 376.13244 85.69125 
L 376.765632 100.24425 
L 377.398823 100.24425 
L 378.032015 85.69125 
L 379.298398 85.69125 
L 379.931589 100.24425 
L 382.464355 100.24425 
L 383.730738 129.35025 
L 384.997121 100.24425 
L 385.630313 100.24425 
L 386.263504 114.79725 
L 386.896695 114.79725 
L 387.529887 100.24425 
L 389.429461 100.24425 
L 390.062653 85.69125 
L 391.329036 85.69125 
L 392.595419 114.79725 
L 393.22861 100.24425 
L 394.494993 100.24425 
L 395.128185 114.79725 
L 395.761376 114.79725 
L 396.394568 100.24425 
L 397.027759 100.24425 
L 397.660951 114.79725 
L 398.294142 114.79725 
L 398.927334 129.35025 
L 400.826908 129.35025 
L 401.4601 143.90325 
L 402.093291 143.90325 
L 402.726483 129.35025 
L 403.359674 143.90325 
L 403.992866 129.35025 
L 404.626057 129.35025 
L 405.259249 114.79725 
L 405.89244 114.79725 
L 406.525632 129.35025 
L 407.792015 100.24425 
L 408.425206 114.79725 
L 409.691589 114.79725 
L 410.324781 129.35025 
L 410.957972 129.35025 
L 411.591164 114.79725 
L 412.224355 114.79725 
L 412.857547 129.35025 
L 413.490738 114.79725 
L 414.757121 143.90325 
L 415.390312 143.90325 
L 416.656695 114.79725 
L 417.923078 143.90325 
L 419.189461 143.90325 
L 419.822653 158.45625 
L 420.455844 158.45625 
L 421.089036 173.00925 
L 421.722227 173.00925 
L 422.355419 158.45625 
L 423.621802 158.45625 
L 424.254993 143.90325 
L 424.888185 143.90325 
L 425.521376 158.45625 
L 428.054142 158.45625 
L 429.953717 114.79725 
L 434.386057 114.79725 
L 435.65244 85.69125 
L 436.918823 85.69125 
L 438.185206 56.58525 
L 440.084781 56.58525 
L 441.351164 27.47925 
L 442.617547 27.47925 
L 443.250738 12.92625 
L 443.88393 12.92625 
L 444.517121 27.47925 
L 449.582653 27.47925 
L 450.215844 42.03225 
L 453.381802 42.03225 
L 454.014993 56.58525 
L 454.648185 42.03225 
L 457.180951 42.03225 
L 457.814142 56.58525 
L 463.512866 56.58525 
L 464.146057 42.03225 
L 464.779249 56.58525 
L 467.312015 56.58525 
L 467.945206 42.03225 
L 469.844781 42.03225 
L 470.477972 27.47925 
L 474.277121 27.47925 
L 474.910312 12.92625 
L 477.443078 12.92625 
L 478.07627 27.47925 
L 487.574142 27.47925 
L 488.207334 12.92625 
L 502.770738 12.92625 
L 503.40393 27.47925 
L 504.037121 28.44945 
L 504.037121 28.44945 
" style="fill: none; stroke: #a6a6a6; stroke-width: 2; stroke-linecap: square"/>
   </g>
   <g id="line2d_14">
    <path d="M 68.401376 176.972498 
L 69.034568 171.753344 
L 69.667759 168.293087 
L 70.300951 163.899216 
L 71.567334 158.318381 
L 72.200525 163.407947 
L 72.833717 161.704452 
L 73.466908 158.448526 
L 74.1001 160.634354 
L 74.733291 160.99113 
L 75.366483 162.752454 
L 75.999674 158.535616 
L 76.632866 168.386058 
L 77.266057 163.664232 
L 77.899249 168.891698 
L 78.53244 167.600699 
L 79.165632 167.02793 
L 79.798823 163.744467 
L 80.432015 167.184505 
L 81.065206 167.166205 
L 81.698398 169.538974 
L 82.331589 160.943144 
L 82.964781 160.813643 
L 83.597972 163.620219 
L 84.231164 163.888833 
L 84.864355 163.562356 
L 85.497547 165.616316 
L 86.130738 163.614578 
L 86.76393 162.142831 
L 87.397121 161.735372 
L 88.030313 160.40319 
L 88.663504 161.343898 
L 89.296695 160.473503 
L 89.929887 163.920701 
L 90.563078 155.912542 
L 91.19627 155.776123 
L 91.829461 156.247804 
L 92.462653 164.800263 
L 93.095844 163.343916 
L 93.729036 163.339322 
L 94.362227 160.577261 
L 94.995419 152.753908 
L 95.62861 152.754312 
L 96.261802 156.877631 
L 96.894993 155.517361 
L 97.528185 155.683783 
L 98.161376 153.490435 
L 98.794568 154.44801 
L 100.694142 169.903801 
L 101.327334 168.004004 
L 101.960525 164.380853 
L 102.593717 159.949221 
L 103.226908 156.681175 
L 103.8601 150.927573 
L 104.493291 149.151753 
L 105.126483 152.427183 
L 106.392866 148.134712 
L 107.026057 147.592042 
L 108.29244 154.058237 
L 108.925632 154.372025 
L 109.558823 151.486385 
L 110.192015 142.57888 
L 110.825206 136.417042 
L 111.458398 136.708725 
L 112.091589 139.898706 
L 112.724781 139.573168 
L 114.624355 151.272455 
L 115.257547 156.402071 
L 115.890738 155.030494 
L 116.52393 153.384261 
L 117.157121 156.07675 
L 117.790312 152.014281 
L 119.056695 135.869373 
L 119.689887 130.587394 
L 120.323078 130.975456 
L 120.95627 126.710497 
L 122.222653 112.673756 
L 123.489036 103.714684 
L 124.122227 97.339198 
L 124.755419 93.481037 
L 125.38861 92.782872 
L 126.654993 85.121597 
L 127.288185 77.068982 
L 127.921376 83.597086 
L 128.554568 82.450102 
L 129.187759 79.990696 
L 129.820951 82.771463 
L 130.454142 89.521425 
L 131.087334 101.862229 
L 131.720525 111.791021 
L 132.353717 119.434751 
L 133.6201 130.753266 
L 134.253291 141.508057 
L 134.886483 142.893435 
L 135.519674 136.002076 
L 136.786057 138.60499 
L 137.419249 142.735634 
L 138.05244 131.882104 
L 139.318823 150.980836 
L 139.952015 156.564577 
L 140.585206 160.172479 
L 141.851589 157.92072 
L 142.484781 157.326487 
L 143.117972 157.135839 
L 143.751164 147.033386 
L 145.017547 135.569551 
L 145.650738 134.730905 
L 146.28393 129.967488 
L 146.917121 132.499931 
L 147.550313 132.836452 
L 148.183504 143.399496 
L 148.816695 139.485323 
L 149.449887 133.61867 
L 150.083078 136.412065 
L 151.349461 124.532668 
L 152.615844 108.160534 
L 153.249036 109.692648 
L 153.882227 122.886666 
L 154.515419 128.904986 
L 155.14861 131.390989 
L 155.781802 135.176368 
L 156.414993 141.824622 
L 157.048185 142.729794 
L 157.681376 138.07801 
L 158.314568 128.889736 
L 158.947759 122.89436 
L 159.580951 130.444378 
L 160.214142 129.235479 
L 160.847334 132.976751 
L 161.480525 135.421 
L 162.113717 134.983122 
L 162.746908 136.613337 
L 163.3801 130.562209 
L 164.013291 122.276758 
L 164.646483 115.506885 
L 165.279674 123.941861 
L 165.912866 123.71592 
L 166.546057 115.490681 
L 167.179249 110.913297 
L 167.81244 109.282308 
L 168.445632 107.336462 
L 169.078823 109.916447 
L 169.712015 97.238928 
L 170.345206 99.072926 
L 170.978398 98.546898 
L 171.611589 101.794302 
L 172.244781 111.675536 
L 172.877972 118.417587 
L 173.511164 126.529328 
L 174.144355 129.695996 
L 174.777547 128.319695 
L 175.410738 122.530297 
L 176.04393 118.016233 
L 176.677121 118.931211 
L 177.943504 132.304195 
L 179.209887 140.268087 
L 179.843078 150.981737 
L 181.109461 141.359191 
L 181.742653 139.949389 
L 183.009036 133.319502 
L 183.642227 133.886853 
L 184.275419 136.417961 
L 184.90861 137.484714 
L 185.541802 140.83384 
L 186.174993 145.182796 
L 186.808185 150.942251 
L 187.441376 154.453044 
L 188.074568 153.151284 
L 188.707759 153.452083 
L 189.340951 149.455608 
L 189.974142 139.228374 
L 190.607334 144.386198 
L 191.240525 144.167117 
L 191.873717 139.830611 
L 192.506908 139.535257 
L 193.1401 136.942958 
L 193.773291 132.347188 
L 194.406483 133.57762 
L 195.039674 130.8001 
L 196.306057 122.359303 
L 196.939249 123.838182 
L 197.57244 119.302917 
L 198.205632 125.336154 
L 198.838823 127.8153 
L 200.105206 138.629626 
L 200.738398 130.882543 
L 201.371589 131.276207 
L 202.004781 134.44475 
L 202.637972 136.654224 
L 203.904355 141.77961 
L 204.537547 140.128876 
L 205.170738 144.476061 
L 205.80393 150.002007 
L 206.437121 153.537117 
L 207.070312 152.304346 
L 207.703504 154.926345 
L 208.336695 148.493373 
L 209.603078 152.278302 
L 210.23627 154.947454 
L 210.869461 159.55766 
L 211.502653 160.626718 
L 212.135844 161.403528 
L 212.769036 152.912557 
L 213.402227 146.152939 
L 214.035419 150.077659 
L 214.66861 148.121598 
L 215.301802 145.429036 
L 215.934993 145.094796 
L 216.568185 145.24949 
L 217.201376 143.652838 
L 218.467759 142.27993 
L 219.100951 144.037359 
L 219.734142 139.252221 
L 220.367334 140.388832 
L 221.000525 140.710116 
L 221.633717 143.539051 
L 222.266908 140.124221 
L 223.533291 158.896795 
L 224.166483 155.293895 
L 224.799674 156.670883 
L 225.432866 151.947341 
L 226.066057 141.571009 
L 226.699249 135.927802 
L 227.33244 132.651381 
L 228.598823 122.388612 
L 229.232015 112.416573 
L 229.865206 110.026777 
L 230.498398 103.539965 
L 231.764781 85.930758 
L 232.397972 79.197745 
L 233.664355 57.652042 
L 234.297547 48.578243 
L 234.930738 43.54896 
L 235.56393 43.359618 
L 236.197121 54.62763 
L 236.830313 55.78559 
L 237.463504 58.487226 
L 238.096695 59.746801 
L 238.729887 71.521462 
L 239.363078 69.038036 
L 239.99627 67.648685 
L 240.629461 63.7629 
L 241.262653 68.211132 
L 241.895844 81.140356 
L 242.529036 82.41004 
L 243.162227 94.553212 
L 244.42861 112.793126 
L 245.061802 107.811624 
L 245.694993 107.553794 
L 246.328185 95.373643 
L 246.961376 104.729284 
L 247.594568 101.731121 
L 248.227759 99.711434 
L 248.860951 89.015431 
L 249.494142 103.028777 
L 250.127334 101.183994 
L 250.760525 104.212632 
L 251.393717 100.044343 
L 252.026908 88.716208 
L 253.293291 87.201034 
L 253.926483 78.251637 
L 254.559674 76.35545 
L 255.192866 78.619165 
L 255.826057 86.525105 
L 256.459249 99.478383 
L 257.09244 95.469412 
L 257.725632 99.142341 
L 258.358823 97.72651 
L 258.992015 99.360903 
L 259.625206 94.743806 
L 260.258398 107.546899 
L 260.891589 110.196547 
L 262.791164 132.60189 
L 263.424355 122.53047 
L 264.057547 132.269737 
L 264.690738 132.77571 
L 265.32393 134.873279 
L 265.957121 137.429662 
L 266.590312 134.623117 
L 267.223504 135.022845 
L 267.856695 133.156388 
L 268.489887 143.444855 
L 269.123078 146.050362 
L 269.75627 146.160653 
L 270.389461 143.353475 
L 271.022653 143.551178 
L 272.289036 124.688499 
L 272.922227 118.935098 
L 273.555419 117.796181 
L 274.18861 106.734672 
L 274.821802 104.906929 
L 275.454993 106.804943 
L 276.088185 100.460447 
L 276.721376 92.633159 
L 277.354568 91.468206 
L 277.987759 95.630145 
L 278.620951 93.669385 
L 279.254142 97.539711 
L 279.887334 98.268955 
L 280.520525 99.570732 
L 281.153717 105.466443 
L 281.786908 116.49524 
L 282.4201 119.548376 
L 283.053291 126.718715 
L 283.686483 135.901512 
L 284.319674 146.990186 
L 284.952866 153.949437 
L 285.586057 158.977353 
L 286.219249 165.070167 
L 286.85244 173.01417 
L 287.485632 173.819865 
L 288.118823 179.436994 
L 288.752015 176.187534 
L 289.385206 176.951687 
L 290.018398 173.743207 
L 290.651589 166.387972 
L 291.284781 167.739599 
L 291.917972 164.848183 
L 292.551164 170.225069 
L 293.184355 171.914934 
L 293.817547 174.336193 
L 294.450738 163.866552 
L 295.08393 157.198216 
L 295.717121 145.745336 
L 296.350312 148.385776 
L 297.616695 132.330176 
L 298.249887 129.840936 
L 298.883078 124.726678 
L 300.149461 111.76169 
L 300.782653 116.132334 
L 301.415844 113.854186 
L 302.049036 116.799335 
L 303.315419 119.894702 
L 303.94861 116.474988 
L 304.581802 125.328955 
L 305.214993 131.372391 
L 305.848185 143.543274 
L 306.481376 140.220032 
L 307.114568 146.700882 
L 307.747759 151.099662 
L 308.380951 144.808455 
L 309.014142 144.209356 
L 309.647334 144.355966 
L 310.280525 153.203941 
L 310.913717 145.056119 
L 312.813291 115.080695 
L 313.446483 108.540764 
L 314.079674 108.963865 
L 314.712866 110.030021 
L 315.346057 109.568267 
L 315.979249 106.232069 
L 316.61244 106.778531 
L 317.245632 103.950254 
L 317.878823 102.761691 
L 318.512015 102.08258 
L 319.145206 102.827929 
L 319.778398 111.879349 
L 320.411589 112.742394 
L 321.044781 119.685395 
L 321.677972 130.632904 
L 322.944355 146.692481 
L 323.577547 142.611902 
L 324.84393 129.140946 
L 325.477121 131.086154 
L 326.110312 123.250464 
L 326.743504 113.737248 
L 327.376695 108.776961 
L 328.009887 105.398936 
L 328.643078 100.984113 
L 329.27627 100.475891 
L 329.909461 87.192566 
L 330.542653 77.589883 
L 331.175844 70.345478 
L 332.442227 50.905311 
L 333.075419 43.685931 
L 333.70861 43.612249 
L 334.341802 44.951324 
L 334.974993 44.703911 
L 335.608185 32.85744 
L 336.241376 40.369442 
L 336.874568 39.864346 
L 337.507759 47.892503 
L 338.140951 49.183788 
L 338.774142 49.368749 
L 339.407334 48.351437 
L 340.040525 48.16433 
L 340.673717 47.697613 
L 341.306908 48.851355 
L 341.9401 49.52275 
L 342.573291 59.516696 
L 343.206483 59.092898 
L 343.839674 59.030661 
L 344.472866 56.300109 
L 345.106057 52.825385 
L 345.739249 58.138503 
L 346.37244 49.491886 
L 347.005632 56.518717 
L 347.638823 49.858091 
L 348.272015 50.430844 
L 348.905206 54.487619 
L 349.538398 54.927828 
L 350.171589 55.853027 
L 350.804781 61.727047 
L 351.437972 69.740096 
L 352.071164 75.113773 
L 352.704355 75.433417 
L 353.970738 96.705619 
L 354.60393 108.734726 
L 355.237121 117.927333 
L 355.870312 120.844032 
L 356.503504 126.909172 
L 357.136695 124.991256 
L 357.769887 135.142472 
L 358.403078 139.088618 
L 359.03627 138.987464 
L 359.669461 147.356856 
L 360.302653 157.725765 
L 360.935844 159.885657 
L 361.569036 158.113735 
L 362.202227 158.162755 
L 362.835419 156.562071 
L 363.46861 154.054865 
L 364.734993 145.44677 
L 365.368185 139.863207 
L 366.001376 141.472795 
L 366.634568 147.19977 
L 367.267759 150.079244 
L 367.900951 146.817514 
L 369.167334 158.269938 
L 369.800525 157.520888 
L 370.433717 156.474098 
L 371.066908 158.576126 
L 371.7001 159.192029 
L 372.333291 157.819858 
L 372.966483 158.976622 
L 373.599674 158.778208 
L 374.232866 157.73745 
L 374.866057 161.03038 
L 375.499249 163.267884 
L 376.13244 162.941132 
L 376.765632 154.412087 
L 378.032015 139.876004 
L 378.665206 136.732752 
L 379.298398 138.724873 
L 379.931589 137.165347 
L 380.564781 132.558578 
L 381.197972 126.44972 
L 381.831164 122.997638 
L 382.464355 126.312404 
L 383.097547 121.079361 
L 383.730738 126.907649 
L 384.36393 123.37316 
L 384.997121 117.253046 
L 385.630313 114.285901 
L 386.263504 109.448421 
L 386.896695 109.992425 
L 388.163078 122.049916 
L 388.79627 123.84153 
L 389.429461 121.669467 
L 390.062653 120.88497 
L 390.695844 120.647006 
L 391.329036 118.922501 
L 391.962227 118.272212 
L 392.595419 119.346844 
L 393.22861 122.949329 
L 393.861802 120.274101 
L 394.494993 128.320105 
L 395.128185 131.547218 
L 395.761376 139.084201 
L 396.394568 145.050312 
L 397.027759 152.501925 
L 398.294142 157.844973 
L 398.927334 154.657833 
L 399.560525 156.695559 
L 400.193717 155.646133 
L 400.826908 159.483498 
L 401.4601 159.868774 
L 402.093291 162.699604 
L 402.726483 157.14931 
L 403.359674 160.563761 
L 403.992866 161.088512 
L 404.626057 150.706621 
L 405.259249 143.623382 
L 407.792015 100.893348 
L 408.425206 91.949608 
L 409.058398 85.61681 
L 409.691589 75.17606 
L 410.324781 74.839184 
L 410.957972 65.3928 
L 411.591164 74.701256 
L 412.224355 75.238722 
L 412.857547 70.218325 
L 414.12393 55.322267 
L 415.390312 69.183632 
L 416.023504 70.622568 
L 417.289887 83.537491 
L 417.923078 93.753763 
L 418.55627 100.757359 
L 419.822653 110.434594 
L 420.455844 117.204096 
L 421.089036 126.147733 
L 421.722227 123.962846 
L 422.355419 127.674008 
L 422.98861 138.292735 
L 424.254993 151.505659 
L 424.888185 152.551043 
L 425.521376 152.571823 
L 426.154568 159.984387 
L 427.420951 168.259559 
L 428.054142 169.430005 
L 428.687334 161.425591 
L 429.320525 156.649014 
L 429.953717 150.258947 
L 430.586908 139.180995 
L 431.2201 131.390129 
L 432.486483 110.525416 
L 433.752866 89.426698 
L 434.386057 78.717232 
L 435.019249 71.64324 
L 435.65244 67.496591 
L 436.918823 49.352976 
L 437.552015 37.218591 
L 438.185206 39.604389 
L 438.818398 40.176514 
L 439.451589 42.567615 
L 440.717972 44.453074 
L 441.351164 48.455476 
L 441.984355 48.643187 
L 442.617547 48.57503 
L 443.250738 47.252307 
L 443.88393 47.859961 
L 444.517121 54.052815 
L 445.150312 56.32337 
L 445.783504 52.946063 
L 446.416695 52.951139 
L 447.049887 52.840855 
L 447.683078 53.009233 
L 448.31627 39.204101 
L 448.949461 38.042652 
L 449.582653 46.95293 
L 450.215844 59.892815 
L 450.849036 59.339146 
L 451.482227 66.872409 
L 452.115419 77.304806 
L 452.74861 84.933104 
L 453.381802 85.611742 
L 454.014993 89.114431 
L 454.648185 82.254632 
L 455.281376 78.847616 
L 455.914568 78.548088 
L 457.814142 93.324253 
L 458.447334 93.263444 
L 459.080525 93.318822 
L 459.713717 81.884397 
L 460.346908 74.807465 
L 460.9801 74.236765 
L 461.613291 61.316023 
L 462.246483 51.063834 
L 462.879674 43.398646 
L 463.512866 42.687325 
L 464.146057 38.265085 
L 464.779249 39.026566 
L 465.41244 41.356634 
L 466.045632 42.031905 
L 467.312015 32.839672 
L 467.945206 32.537509 
L 468.578398 33.270065 
L 469.211589 33.340977 
L 469.844781 32.720489 
L 470.477972 25.900249 
L 471.111164 26.249493 
L 471.744355 26.262472 
L 472.377547 25.636034 
L 473.010738 25.74667 
L 473.64393 28.936722 
L 474.277121 29.008729 
L 474.910312 28.529899 
L 475.543504 25.863658 
L 476.176695 25.172733 
L 476.809887 24.854901 
L 477.443078 29.116647 
L 478.07627 30.886881 
L 478.709461 35.190119 
L 479.342653 36.688601 
L 479.975844 37.415845 
L 480.609036 39.283441 
L 481.242227 38.989787 
L 481.875419 39.69634 
L 483.141802 39.812641 
L 483.774993 36.740798 
L 484.408185 36.760015 
L 485.041376 36.516352 
L 485.674568 36.563924 
L 486.307759 36.766389 
L 486.940951 36.851066 
L 487.574142 32.360633 
L 488.207334 25.635279 
L 488.840525 20.941601 
L 489.473717 19.947425 
L 490.106908 19.347714 
L 491.373291 19.444931 
L 492.006483 18.827098 
L 492.639674 18.903211 
L 493.272866 18.765537 
L 493.906057 19.253468 
L 494.539249 19.129259 
L 495.17244 19.383784 
L 496.438823 19.304634 
L 497.072015 19.105684 
L 497.705206 23.16294 
L 498.338398 23.128553 
L 498.971589 36.893411 
L 499.604781 36.829597 
L 500.237972 40.139437 
L 500.871164 46.134725 
L 501.504355 48.696007 
L 502.137547 50.77773 
L 502.770738 50.683777 
L 503.40393 57.54839 
L 504.037121 59.741931 
L 504.037121 59.741931 
" style="fill: none; stroke: #b38665; stroke-width: 2; stroke-linecap: square"/>
   </g>
   <g id="line2d_15">
    <path d="M 98.794568 245.77425 
L 98.794568 12.92625 
" clip-path="url(#pfbc2119af7)" style="fill: none; stroke-dasharray: 3.7,1.6; stroke-dashoffset: 0; stroke: #808080; stroke-opacity: 0.3"/>
   </g>
   <g id="line2d_16">
    <path d="M 139.318823 245.77425 
L 139.318823 12.92625 
" clip-path="url(#pfbc2119af7)" style="fill: none; stroke-dasharray: 3.7,1.6; stroke-dashoffset: 0; stroke: #808080; stroke-opacity: 0.3"/>
   </g>
   <g id="line2d_17">
    <path d="M 179.843078 245.77425 
L 179.843078 12.92625 
" clip-path="url(#pfbc2119af7)" style="fill: none; stroke-dasharray: 3.7,1.6; stroke-dashoffset: 0; stroke: #808080; stroke-opacity: 0.3"/>
   </g>
   <g id="line2d_18">
    <path d="M 220.367334 245.77425 
L 220.367334 12.92625 
" clip-path="url(#pfbc2119af7)" style="fill: none; stroke-dasharray: 3.7,1.6; stroke-dashoffset: 0; stroke: #808080; stroke-opacity: 0.3"/>
   </g>
   <g id="line2d_19">
    <path d="M 260.891589 245.77425 
L 260.891589 12.92625 
" clip-path="url(#pfbc2119af7)" style="fill: none; stroke-dasharray: 3.7,1.6; stroke-dashoffset: 0; stroke: #808080; stroke-opacity: 0.3"/>
   </g>
   <g id="line2d_20">
    <path d="M 301.415844 245.77425 
L 301.415844 12.92625 
" clip-path="url(#pfbc2119af7)" style="fill: none; stroke-dasharray: 3.7,1.6; stroke-dashoffset: 0; stroke: #808080; stroke-opacity: 0.3"/>
   </g>
   <g id="line2d_21">
    <path d="M 341.9401 245.77425 
L 341.9401 12.92625 
" clip-path="url(#pfbc2119af7)" style="fill: none; stroke-dasharray: 3.7,1.6; stroke-dashoffset: 0; stroke: #808080; stroke-opacity: 0.3"/>
   </g>
   <g id="line2d_22">
    <path d="M 382.464355 245.77425 
L 382.464355 12.92625 
" clip-path="url(#pfbc2119af7)" style="fill: none; stroke-dasharray: 3.7,1.6; stroke-dashoffset: 0; stroke: #808080; stroke-opacity: 0.3"/>
   </g>
   <g id="line2d_23">
    <path d="M 422.98861 245.77425 
L 422.98861 12.92625 
" clip-path="url(#pfbc2119af7)" style="fill: none; stroke-dasharray: 3.7,1.6; stroke-dashoffset: 0; stroke: #808080; stroke-opacity: 0.3"/>
   </g>
   <g id="line2d_24">
    <path d="M 463.512866 245.77425 
L 463.512866 12.92625 
" clip-path="url(#pfbc2119af7)" style="fill: none; stroke-dasharray: 3.7,1.6; stroke-dashoffset: 0; stroke: #808080; stroke-opacity: 0.3"/>
   </g>
   <g id="line2d_25">
    <path d="M 504.037121 245.77425 
L 504.037121 12.92625 
" clip-path="url(#pfbc2119af7)" style="fill: none; stroke-dasharray: 3.7,1.6; stroke-dashoffset: 0; stroke: #808080; stroke-opacity: 0.3"/>
   </g>
   <g id="patch_3">
    <path d="M 58.270313 245.77425 
L 58.270313 12.92625 
" style="fill: none; stroke: #000000; stroke-width: 2; stroke-linejoin: miter; stroke-linecap: square"/>
   </g>
   <g id="patch_4">
    <path d="M 58.270313 245.77425 
L 504.670312 245.77425 
" style="fill: none; stroke: #000000; stroke-width: 2; stroke-linejoin: miter; stroke-linecap: square"/>
   </g>
   <g id="text_15">
    <!-- S20 -->
    <g transform="translate(76.253938 36.89301) scale(0.2 -0.2)">
     <defs>
      <path id="ArialMT-53" d="M 288 1472 
L 859 1522 
Q 900 1178 1048 958 
Q 1197 738 1509 602 
Q 1822 466 2213 466 
Q 2559 466 2825 569 
Q 3091 672 3220 851 
Q 3350 1031 3350 1244 
Q 3350 1459 3225 1620 
Q 3100 1781 2813 1891 
Q 2628 1963 1997 2114 
Q 1366 2266 1113 2400 
Q 784 2572 623 2826 
Q 463 3081 463 3397 
Q 463 3744 659 4045 
Q 856 4347 1234 4503 
Q 1613 4659 2075 4659 
Q 2584 4659 2973 4495 
Q 3363 4331 3572 4012 
Q 3781 3694 3797 3291 
L 3216 3247 
Q 3169 3681 2898 3903 
Q 2628 4125 2100 4125 
Q 1550 4125 1298 3923 
Q 1047 3722 1047 3438 
Q 1047 3191 1225 3031 
Q 1400 2872 2139 2705 
Q 2878 2538 3153 2413 
Q 3553 2228 3743 1945 
Q 3934 1663 3934 1294 
Q 3934 928 3725 604 
Q 3516 281 3123 101 
Q 2731 -78 2241 -78 
Q 1619 -78 1198 103 
Q 778 284 539 648 
Q 300 1013 288 1472 
z
" transform="scale(0.015625)"/>
     </defs>
     <use xlink:href="#ArialMT-53"/>
     <use xlink:href="#ArialMT-32" x="66.699219"/>
     <use xlink:href="#ArialMT-30" x="122.314453"/>
    </g>
   </g>
   <g id="legend_1">
    <g id="patch_5">
     <path d="M 448.210312 230.355787 
L 544.561875 230.355787 
Q 547.561875 230.355787 547.561875 227.355787 
L 547.561875 186.41985 
Q 547.561875 183.41985 544.561875 183.41985 
L 448.210312 183.41985 
Q 445.210312 183.41985 445.210312 186.41985 
L 445.210312 227.355787 
Q 445.210312 230.355787 448.210312 230.355787 
L 448.210312 230.355787 
z
" style="fill: none; opacity: 0"/>
    </g>
    <g id="line2d_26">
     <path d="M 451.210312 194.906569 
L 466.210312 194.906569 
L 481.210312 194.906569 
" style="fill: none; stroke: #a6a6a6; stroke-width: 2; stroke-linecap: square"/>
    </g>
    <g id="text_16">
     <!-- Human -->
     <g transform="translate(493.210312 200.156569) scale(0.15 -0.15)">
      <defs>
       <path id="ArialMT-48" d="M 513 0 
L 513 4581 
L 1119 4581 
L 1119 2700 
L 3500 2700 
L 3500 4581 
L 4106 4581 
L 4106 0 
L 3500 0 
L 3500 2159 
L 1119 2159 
L 1119 0 
L 513 0 
z
" transform="scale(0.015625)"/>
       <path id="ArialMT-75" d="M 2597 0 
L 2597 488 
Q 2209 -75 1544 -75 
Q 1250 -75 995 37 
Q 741 150 617 320 
Q 494 491 444 738 
Q 409 903 409 1263 
L 409 3319 
L 972 3319 
L 972 1478 
Q 972 1038 1006 884 
Q 1059 663 1231 536 
Q 1403 409 1656 409 
Q 1909 409 2131 539 
Q 2353 669 2445 892 
Q 2538 1116 2538 1541 
L 2538 3319 
L 3100 3319 
L 3100 0 
L 2597 0 
z
" transform="scale(0.015625)"/>
      </defs>
      <use xlink:href="#ArialMT-48"/>
      <use xlink:href="#ArialMT-75" x="72.216797"/>
      <use xlink:href="#ArialMT-6d" x="127.832031"/>
      <use xlink:href="#ArialMT-61" x="211.132812"/>
      <use xlink:href="#ArialMT-6e" x="266.748047"/>
     </g>
    </g>
    <g id="line2d_27">
     <path d="M 451.210312 216.124537 
L 466.210312 216.124537 
L 481.210312 216.124537 
" style="fill: none; stroke: #b38665; stroke-width: 2; stroke-linecap: square"/>
    </g>
    <g id="text_17">
     <!-- PMH -->
     <g transform="translate(493.210312 221.374537) scale(0.15 -0.15)">
      <defs>
       <path id="ArialMT-50" d="M 494 0 
L 494 4581 
L 2222 4581 
Q 2678 4581 2919 4538 
Q 3256 4481 3484 4323 
Q 3713 4166 3852 3881 
Q 3991 3597 3991 3256 
Q 3991 2672 3619 2267 
Q 3247 1863 2275 1863 
L 1100 1863 
L 1100 0 
L 494 0 
z
M 1100 2403 
L 2284 2403 
Q 2872 2403 3119 2622 
Q 3366 2841 3366 3238 
Q 3366 3525 3220 3729 
Q 3075 3934 2838 4000 
Q 2684 4041 2272 4041 
L 1100 4041 
L 1100 2403 
z
" transform="scale(0.015625)"/>
       <path id="ArialMT-4d" d="M 475 0 
L 475 4581 
L 1388 4581 
L 2472 1338 
Q 2622 884 2691 659 
Q 2769 909 2934 1394 
L 4031 4581 
L 4847 4581 
L 4847 0 
L 4263 0 
L 4263 3834 
L 2931 0 
L 2384 0 
L 1059 3900 
L 1059 0 
L 475 0 
z
" transform="scale(0.015625)"/>
      </defs>
      <use xlink:href="#ArialMT-50"/>
      <use xlink:href="#ArialMT-4d" x="66.699219"/>
      <use xlink:href="#ArialMT-48" x="150"/>
     </g>
    </g>
   </g>
  </g>
 </g>
 <defs>
  <clipPath id="pfbc2119af7">
   <rect x="58.270313" y="12.92625" width="446.4" height="232.848"/>
  </clipPath>
 </defs>
</svg>
