<?xml version="1.0" encoding="utf-8" standalone="no"?>
<!DOCTYPE svg PUBLIC "-//W3C//DTD SVG 1.1//EN"
  "http://www.w3.org/Graphics/SVG/1.1/DTD/svg11.dtd">
<svg xmlns:xlink="http://www.w3.org/1999/xlink" width="554.530313pt" height="246.086844pt" viewBox="0 0 554.530313 246.086844" xmlns="http://www.w3.org/2000/svg" version="1.1">
 <metadata>
  <rdf:RDF xmlns:dc="http://purl.org/dc/elements/1.1/" xmlns:cc="http://creativecommons.org/ns#" xmlns:rdf="http://www.w3.org/1999/02/22-rdf-syntax-ns#">
   <cc:Work>
    <dc:type rdf:resource="http://purl.org/dc/dcmitype/StillImage"/>
    <dc:date>2025-05-15T10:24:41.442913</dc:date>
    <dc:format>image/svg+xml</dc:format>
    <dc:creator>
     <cc:Agent>
      <dc:title>Matplotlib v3.8.4, https://matplotlib.org/</dc:title>
     </cc:Agent>
    </dc:creator>
   </cc:Work>
  </rdf:RDF>
 </metadata>
 <defs>
  <style type="text/css">*{stroke-linejoin: round; stroke-linecap: butt}</style>
 </defs>
 <g id="figure_1">
  <g id="patch_1">
   <path d="M 0 246.086844 
L 554.530313 246.086844 
L 554.530313 0 
L 0 0 
L 0 246.086844 
z
" style="fill: none"/>
  </g>
  <g id="axes_1">
   <g id="patch_2">
    <path d="M 58.03875 195.87825 
L 504.43875 195.87825 
L 504.43875 12.92625 
L 58.03875 12.92625 
L 58.03875 195.87825 
z
" style="fill: none"/>
   </g>
   <g id="matplotlib.axis_1">
    <g id="xtick_1">
     <g id="line2d_1">
      <defs>
       <path id="m28ad622908" d="M 0 0 
L 0 3.5 
" style="stroke: #000000; stroke-width: 0.8"/>
      </defs>
      <g>
       <use xlink:href="#m28ad622908" x="58.03875" y="195.87825" style="stroke: #000000; stroke-width: 0.8"/>
      </g>
     </g>
     <g id="text_1">
      <!-- 0 -->
      <g transform="translate(53.59 214.33075) scale(0.16 -0.16)">
       <defs>
        <path id="ArialMT-30" d="M 266 2259 
Q 266 3072 433 3567 
Q 600 4063 929 4331 
Q 1259 4600 1759 4600 
Q 2128 4600 2406 4451 
Q 2684 4303 2865 4023 
Q 3047 3744 3150 3342 
Q 3253 2941 3253 2259 
Q 3253 1453 3087 958 
Q 2922 463 2592 192 
Q 2263 -78 1759 -78 
Q 1097 -78 719 397 
Q 266 969 266 2259 
z
M 844 2259 
Q 844 1131 1108 757 
Q 1372 384 1759 384 
Q 2147 384 2411 759 
Q 2675 1134 2675 2259 
Q 2675 3391 2411 3762 
Q 2147 4134 1753 4134 
Q 1366 4134 1134 3806 
Q 844 3388 844 2259 
z
" transform="scale(0.015625)"/>
       </defs>
       <use xlink:href="#ArialMT-30"/>
      </g>
     </g>
    </g>
    <g id="xtick_2">
     <g id="line2d_2">
      <g>
       <use xlink:href="#m28ad622908" x="147.31875" y="195.87825" style="stroke: #000000; stroke-width: 0.8"/>
      </g>
     </g>
     <g id="text_2">
      <!-- 128 -->
      <g transform="translate(133.9725 214.33075) scale(0.16 -0.16)">
       <defs>
        <path id="ArialMT-31" d="M 2384 0 
L 1822 0 
L 1822 3584 
Q 1619 3391 1289 3197 
Q 959 3003 697 2906 
L 697 3450 
Q 1169 3672 1522 3987 
Q 1875 4303 2022 4600 
L 2384 4600 
L 2384 0 
z
" transform="scale(0.015625)"/>
        <path id="ArialMT-32" d="M 3222 541 
L 3222 0 
L 194 0 
Q 188 203 259 391 
Q 375 700 629 1000 
Q 884 1300 1366 1694 
Q 2113 2306 2375 2664 
Q 2638 3022 2638 3341 
Q 2638 3675 2398 3904 
Q 2159 4134 1775 4134 
Q 1369 4134 1125 3890 
Q 881 3647 878 3216 
L 300 3275 
Q 359 3922 746 4261 
Q 1134 4600 1788 4600 
Q 2447 4600 2831 4234 
Q 3216 3869 3216 3328 
Q 3216 3053 3103 2787 
Q 2991 2522 2730 2228 
Q 2469 1934 1863 1422 
Q 1356 997 1212 845 
Q 1069 694 975 541 
L 3222 541 
z
" transform="scale(0.015625)"/>
        <path id="ArialMT-38" d="M 1131 2484 
Q 781 2613 612 2850 
Q 444 3088 444 3419 
Q 444 3919 803 4259 
Q 1163 4600 1759 4600 
Q 2359 4600 2725 4251 
Q 3091 3903 3091 3403 
Q 3091 3084 2923 2848 
Q 2756 2613 2416 2484 
Q 2838 2347 3058 2040 
Q 3278 1734 3278 1309 
Q 3278 722 2862 322 
Q 2447 -78 1769 -78 
Q 1091 -78 675 323 
Q 259 725 259 1325 
Q 259 1772 486 2073 
Q 713 2375 1131 2484 
z
M 1019 3438 
Q 1019 3113 1228 2906 
Q 1438 2700 1772 2700 
Q 2097 2700 2305 2904 
Q 2513 3109 2513 3406 
Q 2513 3716 2298 3927 
Q 2084 4138 1766 4138 
Q 1444 4138 1231 3931 
Q 1019 3725 1019 3438 
z
M 838 1322 
Q 838 1081 952 856 
Q 1066 631 1291 507 
Q 1516 384 1775 384 
Q 2178 384 2440 643 
Q 2703 903 2703 1303 
Q 2703 1709 2433 1975 
Q 2163 2241 1756 2241 
Q 1359 2241 1098 1978 
Q 838 1716 838 1322 
z
" transform="scale(0.015625)"/>
       </defs>
       <use xlink:href="#ArialMT-31"/>
       <use xlink:href="#ArialMT-32" x="55.615234"/>
       <use xlink:href="#ArialMT-38" x="111.230469"/>
      </g>
     </g>
    </g>
    <g id="xtick_3">
     <g id="line2d_3">
      <g>
       <use xlink:href="#m28ad622908" x="236.59875" y="195.87825" style="stroke: #000000; stroke-width: 0.8"/>
      </g>
     </g>
     <g id="text_3">
      <!-- 256 -->
      <g transform="translate(223.2525 214.33075) scale(0.16 -0.16)">
       <defs>
        <path id="ArialMT-35" d="M 266 1200 
L 856 1250 
Q 922 819 1161 601 
Q 1400 384 1738 384 
Q 2144 384 2425 690 
Q 2706 997 2706 1503 
Q 2706 1984 2436 2262 
Q 2166 2541 1728 2541 
Q 1456 2541 1237 2417 
Q 1019 2294 894 2097 
L 366 2166 
L 809 4519 
L 3088 4519 
L 3088 3981 
L 1259 3981 
L 1013 2750 
Q 1425 3038 1878 3038 
Q 2478 3038 2890 2622 
Q 3303 2206 3303 1553 
Q 3303 931 2941 478 
Q 2500 -78 1738 -78 
Q 1113 -78 717 272 
Q 322 622 266 1200 
z
" transform="scale(0.015625)"/>
        <path id="ArialMT-36" d="M 3184 3459 
L 2625 3416 
Q 2550 3747 2413 3897 
Q 2184 4138 1850 4138 
Q 1581 4138 1378 3988 
Q 1113 3794 959 3422 
Q 806 3050 800 2363 
Q 1003 2672 1297 2822 
Q 1591 2972 1913 2972 
Q 2475 2972 2870 2558 
Q 3266 2144 3266 1488 
Q 3266 1056 3080 686 
Q 2894 316 2569 119 
Q 2244 -78 1831 -78 
Q 1128 -78 684 439 
Q 241 956 241 2144 
Q 241 3472 731 4075 
Q 1159 4600 1884 4600 
Q 2425 4600 2770 4297 
Q 3116 3994 3184 3459 
z
M 888 1484 
Q 888 1194 1011 928 
Q 1134 663 1356 523 
Q 1578 384 1822 384 
Q 2178 384 2434 671 
Q 2691 959 2691 1453 
Q 2691 1928 2437 2201 
Q 2184 2475 1800 2475 
Q 1419 2475 1153 2201 
Q 888 1928 888 1484 
z
" transform="scale(0.015625)"/>
       </defs>
       <use xlink:href="#ArialMT-32"/>
       <use xlink:href="#ArialMT-35" x="55.615234"/>
       <use xlink:href="#ArialMT-36" x="111.230469"/>
      </g>
     </g>
    </g>
    <g id="xtick_4">
     <g id="line2d_4">
      <g>
       <use xlink:href="#m28ad622908" x="325.87875" y="195.87825" style="stroke: #000000; stroke-width: 0.8"/>
      </g>
     </g>
     <g id="text_4">
      <!-- 384 -->
      <g transform="translate(312.5325 214.33075) scale(0.16 -0.16)">
       <defs>
        <path id="ArialMT-33" d="M 269 1209 
L 831 1284 
Q 928 806 1161 595 
Q 1394 384 1728 384 
Q 2125 384 2398 659 
Q 2672 934 2672 1341 
Q 2672 1728 2419 1979 
Q 2166 2231 1775 2231 
Q 1616 2231 1378 2169 
L 1441 2663 
Q 1497 2656 1531 2656 
Q 1891 2656 2178 2843 
Q 2466 3031 2466 3422 
Q 2466 3731 2256 3934 
Q 2047 4138 1716 4138 
Q 1388 4138 1169 3931 
Q 950 3725 888 3313 
L 325 3413 
Q 428 3978 793 4289 
Q 1159 4600 1703 4600 
Q 2078 4600 2393 4439 
Q 2709 4278 2876 4000 
Q 3044 3722 3044 3409 
Q 3044 3113 2884 2869 
Q 2725 2625 2413 2481 
Q 2819 2388 3044 2092 
Q 3269 1797 3269 1353 
Q 3269 753 2831 336 
Q 2394 -81 1725 -81 
Q 1122 -81 723 278 
Q 325 638 269 1209 
z
" transform="scale(0.015625)"/>
        <path id="ArialMT-34" d="M 2069 0 
L 2069 1097 
L 81 1097 
L 81 1613 
L 2172 4581 
L 2631 4581 
L 2631 1613 
L 3250 1613 
L 3250 1097 
L 2631 1097 
L 2631 0 
L 2069 0 
z
M 2069 1613 
L 2069 3678 
L 634 1613 
L 2069 1613 
z
" transform="scale(0.015625)"/>
       </defs>
       <use xlink:href="#ArialMT-33"/>
       <use xlink:href="#ArialMT-38" x="55.615234"/>
       <use xlink:href="#ArialMT-34" x="111.230469"/>
      </g>
     </g>
    </g>
    <g id="xtick_5">
     <g id="line2d_5">
      <g>
       <use xlink:href="#m28ad622908" x="415.15875" y="195.87825" style="stroke: #000000; stroke-width: 0.8"/>
      </g>
     </g>
     <g id="text_5">
      <!-- 512 -->
      <g transform="translate(401.8125 214.33075) scale(0.16 -0.16)">
       <use xlink:href="#ArialMT-35"/>
       <use xlink:href="#ArialMT-31" x="55.615234"/>
       <use xlink:href="#ArialMT-32" x="111.230469"/>
      </g>
     </g>
    </g>
    <g id="xtick_6">
     <g id="line2d_6">
      <g>
       <use xlink:href="#m28ad622908" x="504.43875" y="195.87825" style="stroke: #000000; stroke-width: 0.8"/>
      </g>
     </g>
     <g id="text_6">
      <!-- 640 -->
      <g transform="translate(491.0925 214.33075) scale(0.16 -0.16)">
       <use xlink:href="#ArialMT-36"/>
       <use xlink:href="#ArialMT-34" x="55.615234"/>
       <use xlink:href="#ArialMT-30" x="111.230469"/>
      </g>
     </g>
    </g>
    <g id="text_7">
     <!-- Trial -->
     <g transform="translate(263.124922 235.110594) scale(0.19 -0.19)">
      <defs>
       <path id="ArialMT-54" d="M 1659 0 
L 1659 4041 
L 150 4041 
L 150 4581 
L 3781 4581 
L 3781 4041 
L 2266 4041 
L 2266 0 
L 1659 0 
z
" transform="scale(0.015625)"/>
       <path id="ArialMT-72" d="M 416 0 
L 416 3319 
L 922 3319 
L 922 2816 
Q 1116 3169 1280 3281 
Q 1444 3394 1641 3394 
Q 1925 3394 2219 3213 
L 2025 2691 
Q 1819 2813 1613 2813 
Q 1428 2813 1281 2702 
Q 1134 2591 1072 2394 
Q 978 2094 978 1738 
L 978 0 
L 416 0 
z
" transform="scale(0.015625)"/>
       <path id="ArialMT-69" d="M 425 3934 
L 425 4581 
L 988 4581 
L 988 3934 
L 425 3934 
z
M 425 0 
L 425 3319 
L 988 3319 
L 988 0 
L 425 0 
z
" transform="scale(0.015625)"/>
       <path id="ArialMT-61" d="M 2588 409 
Q 2275 144 1986 34 
Q 1697 -75 1366 -75 
Q 819 -75 525 192 
Q 231 459 231 875 
Q 231 1119 342 1320 
Q 453 1522 633 1644 
Q 813 1766 1038 1828 
Q 1203 1872 1538 1913 
Q 2219 1994 2541 2106 
Q 2544 2222 2544 2253 
Q 2544 2597 2384 2738 
Q 2169 2928 1744 2928 
Q 1347 2928 1158 2789 
Q 969 2650 878 2297 
L 328 2372 
Q 403 2725 575 2942 
Q 747 3159 1072 3276 
Q 1397 3394 1825 3394 
Q 2250 3394 2515 3294 
Q 2781 3194 2906 3042 
Q 3031 2891 3081 2659 
Q 3109 2516 3109 2141 
L 3109 1391 
Q 3109 606 3145 398 
Q 3181 191 3288 0 
L 2700 0 
Q 2613 175 2588 409 
z
M 2541 1666 
Q 2234 1541 1622 1453 
Q 1275 1403 1131 1340 
Q 988 1278 909 1158 
Q 831 1038 831 891 
Q 831 666 1001 516 
Q 1172 366 1500 366 
Q 1825 366 2078 508 
Q 2331 650 2450 897 
Q 2541 1088 2541 1459 
L 2541 1666 
z
" transform="scale(0.015625)"/>
       <path id="ArialMT-6c" d="M 409 0 
L 409 4581 
L 972 4581 
L 972 0 
L 409 0 
z
" transform="scale(0.015625)"/>
      </defs>
      <use xlink:href="#ArialMT-54"/>
      <use xlink:href="#ArialMT-72" x="57.333984"/>
      <use xlink:href="#ArialMT-69" x="90.634766"/>
      <use xlink:href="#ArialMT-61" x="112.851562"/>
      <use xlink:href="#ArialMT-6c" x="168.466797"/>
     </g>
    </g>
   </g>
   <g id="matplotlib.axis_2">
    <g id="ytick_1">
     <g id="line2d_7">
      <defs>
       <path id="m0cb5630487" d="M 0 0 
L -3.5 0 
" style="stroke: #000000; stroke-width: 0.8"/>
      </defs>
      <g>
       <use xlink:href="#m0cb5630487" x="58.03875" y="195.87825" style="stroke: #000000; stroke-width: 0.8"/>
      </g>
     </g>
     <g id="text_8">
      <!-- 0.0 -->
      <g transform="translate(28.79875 201.6045) scale(0.16 -0.16)">
       <defs>
        <path id="ArialMT-2e" d="M 581 0 
L 581 641 
L 1222 641 
L 1222 0 
L 581 0 
z
" transform="scale(0.015625)"/>
       </defs>
       <use xlink:href="#ArialMT-30"/>
       <use xlink:href="#ArialMT-2e" x="55.615234"/>
       <use xlink:href="#ArialMT-30" x="83.398438"/>
      </g>
     </g>
    </g>
    <g id="ytick_2">
     <g id="line2d_8">
      <g>
       <use xlink:href="#m0cb5630487" x="58.03875" y="159.28785" style="stroke: #000000; stroke-width: 0.8"/>
      </g>
     </g>
     <g id="text_9">
      <!-- 0.2 -->
      <g transform="translate(28.79875 165.0141) scale(0.16 -0.16)">
       <use xlink:href="#ArialMT-30"/>
       <use xlink:href="#ArialMT-2e" x="55.615234"/>
       <use xlink:href="#ArialMT-32" x="83.398438"/>
      </g>
     </g>
    </g>
    <g id="ytick_3">
     <g id="line2d_9">
      <g>
       <use xlink:href="#m0cb5630487" x="58.03875" y="122.69745" style="stroke: #000000; stroke-width: 0.8"/>
      </g>
     </g>
     <g id="text_10">
      <!-- 0.4 -->
      <g transform="translate(28.79875 128.4237) scale(0.16 -0.16)">
       <use xlink:href="#ArialMT-30"/>
       <use xlink:href="#ArialMT-2e" x="55.615234"/>
       <use xlink:href="#ArialMT-34" x="83.398438"/>
      </g>
     </g>
    </g>
    <g id="ytick_4">
     <g id="line2d_10">
      <g>
       <use xlink:href="#m0cb5630487" x="58.03875" y="86.10705" style="stroke: #000000; stroke-width: 0.8"/>
      </g>
     </g>
     <g id="text_11">
      <!-- 0.6 -->
      <g transform="translate(28.79875 91.8333) scale(0.16 -0.16)">
       <use xlink:href="#ArialMT-30"/>
       <use xlink:href="#ArialMT-2e" x="55.615234"/>
       <use xlink:href="#ArialMT-36" x="83.398438"/>
      </g>
     </g>
    </g>
    <g id="ytick_5">
     <g id="line2d_11">
      <g>
       <use xlink:href="#m0cb5630487" x="58.03875" y="49.51665" style="stroke: #000000; stroke-width: 0.8"/>
      </g>
     </g>
     <g id="text_12">
      <!-- 0.8 -->
      <g transform="translate(28.79875 55.2429) scale(0.16 -0.16)">
       <use xlink:href="#ArialMT-30"/>
       <use xlink:href="#ArialMT-2e" x="55.615234"/>
       <use xlink:href="#ArialMT-38" x="83.398438"/>
      </g>
     </g>
    </g>
    <g id="ytick_6">
     <g id="line2d_12">
      <g>
       <use xlink:href="#m0cb5630487" x="58.03875" y="12.92625" style="stroke: #000000; stroke-width: 0.8"/>
      </g>
     </g>
     <g id="text_13">
      <!-- 1.0 -->
      <g transform="translate(28.79875 18.6525) scale(0.16 -0.16)">
       <use xlink:href="#ArialMT-31"/>
       <use xlink:href="#ArialMT-2e" x="55.615234"/>
       <use xlink:href="#ArialMT-30" x="83.398438"/>
      </g>
     </g>
    </g>
    <g id="text_14">
     <!-- True-hypo probability -->
     <g transform="translate(20.799844 193.277719) rotate(-90) scale(0.19 -0.19)">
      <defs>
       <path id="ArialMT-75" d="M 2597 0 
L 2597 488 
Q 2209 -75 1544 -75 
Q 1250 -75 995 37 
Q 741 150 617 320 
Q 494 491 444 738 
Q 409 903 409 1263 
L 409 3319 
L 972 3319 
L 972 1478 
Q 972 1038 1006 884 
Q 1059 663 1231 536 
Q 1403 409 1656 409 
Q 1909 409 2131 539 
Q 2353 669 2445 892 
Q 2538 1116 2538 1541 
L 2538 3319 
L 3100 3319 
L 3100 0 
L 2597 0 
z
" transform="scale(0.015625)"/>
       <path id="ArialMT-65" d="M 2694 1069 
L 3275 997 
Q 3138 488 2766 206 
Q 2394 -75 1816 -75 
Q 1088 -75 661 373 
Q 234 822 234 1631 
Q 234 2469 665 2931 
Q 1097 3394 1784 3394 
Q 2450 3394 2872 2941 
Q 3294 2488 3294 1666 
Q 3294 1616 3291 1516 
L 816 1516 
Q 847 969 1125 678 
Q 1403 388 1819 388 
Q 2128 388 2347 550 
Q 2566 713 2694 1069 
z
M 847 1978 
L 2700 1978 
Q 2663 2397 2488 2606 
Q 2219 2931 1791 2931 
Q 1403 2931 1139 2672 
Q 875 2413 847 1978 
z
" transform="scale(0.015625)"/>
       <path id="ArialMT-2d" d="M 203 1375 
L 203 1941 
L 1931 1941 
L 1931 1375 
L 203 1375 
z
" transform="scale(0.015625)"/>
       <path id="ArialMT-68" d="M 422 0 
L 422 4581 
L 984 4581 
L 984 2938 
Q 1378 3394 1978 3394 
Q 2347 3394 2619 3248 
Q 2891 3103 3008 2847 
Q 3125 2591 3125 2103 
L 3125 0 
L 2563 0 
L 2563 2103 
Q 2563 2525 2380 2717 
Q 2197 2909 1863 2909 
Q 1613 2909 1392 2779 
Q 1172 2650 1078 2428 
Q 984 2206 984 1816 
L 984 0 
L 422 0 
z
" transform="scale(0.015625)"/>
       <path id="ArialMT-79" d="M 397 -1278 
L 334 -750 
Q 519 -800 656 -800 
Q 844 -800 956 -737 
Q 1069 -675 1141 -563 
Q 1194 -478 1313 -144 
Q 1328 -97 1363 -6 
L 103 3319 
L 709 3319 
L 1400 1397 
Q 1534 1031 1641 628 
Q 1738 1016 1872 1384 
L 2581 3319 
L 3144 3319 
L 1881 -56 
Q 1678 -603 1566 -809 
Q 1416 -1088 1222 -1217 
Q 1028 -1347 759 -1347 
Q 597 -1347 397 -1278 
z
" transform="scale(0.015625)"/>
       <path id="ArialMT-70" d="M 422 -1272 
L 422 3319 
L 934 3319 
L 934 2888 
Q 1116 3141 1344 3267 
Q 1572 3394 1897 3394 
Q 2322 3394 2647 3175 
Q 2972 2956 3137 2557 
Q 3303 2159 3303 1684 
Q 3303 1175 3120 767 
Q 2938 359 2589 142 
Q 2241 -75 1856 -75 
Q 1575 -75 1351 44 
Q 1128 163 984 344 
L 984 -1272 
L 422 -1272 
z
M 931 1641 
Q 931 1000 1190 694 
Q 1450 388 1819 388 
Q 2194 388 2461 705 
Q 2728 1022 2728 1688 
Q 2728 2322 2467 2637 
Q 2206 2953 1844 2953 
Q 1484 2953 1207 2617 
Q 931 2281 931 1641 
z
" transform="scale(0.015625)"/>
       <path id="ArialMT-6f" d="M 213 1659 
Q 213 2581 725 3025 
Q 1153 3394 1769 3394 
Q 2453 3394 2887 2945 
Q 3322 2497 3322 1706 
Q 3322 1066 3130 698 
Q 2938 331 2570 128 
Q 2203 -75 1769 -75 
Q 1072 -75 642 372 
Q 213 819 213 1659 
z
M 791 1659 
Q 791 1022 1069 705 
Q 1347 388 1769 388 
Q 2188 388 2466 706 
Q 2744 1025 2744 1678 
Q 2744 2294 2464 2611 
Q 2184 2928 1769 2928 
Q 1347 2928 1069 2612 
Q 791 2297 791 1659 
z
" transform="scale(0.015625)"/>
       <path id="ArialMT-20" transform="scale(0.015625)"/>
       <path id="ArialMT-62" d="M 941 0 
L 419 0 
L 419 4581 
L 981 4581 
L 981 2947 
Q 1338 3394 1891 3394 
Q 2197 3394 2470 3270 
Q 2744 3147 2920 2923 
Q 3097 2700 3197 2384 
Q 3297 2069 3297 1709 
Q 3297 856 2875 390 
Q 2453 -75 1863 -75 
Q 1275 -75 941 416 
L 941 0 
z
M 934 1684 
Q 934 1088 1097 822 
Q 1363 388 1816 388 
Q 2184 388 2453 708 
Q 2722 1028 2722 1663 
Q 2722 2313 2464 2622 
Q 2206 2931 1841 2931 
Q 1472 2931 1203 2611 
Q 934 2291 934 1684 
z
" transform="scale(0.015625)"/>
       <path id="ArialMT-74" d="M 1650 503 
L 1731 6 
Q 1494 -44 1306 -44 
Q 1000 -44 831 53 
Q 663 150 594 308 
Q 525 466 525 972 
L 525 2881 
L 113 2881 
L 113 3319 
L 525 3319 
L 525 4141 
L 1084 4478 
L 1084 3319 
L 1650 3319 
L 1650 2881 
L 1084 2881 
L 1084 941 
Q 1084 700 1114 631 
Q 1144 563 1211 522 
Q 1278 481 1403 481 
Q 1497 481 1650 503 
z
" transform="scale(0.015625)"/>
      </defs>
      <use xlink:href="#ArialMT-54"/>
      <use xlink:href="#ArialMT-72" x="57.333984"/>
      <use xlink:href="#ArialMT-75" x="90.634766"/>
      <use xlink:href="#ArialMT-65" x="146.25"/>
      <use xlink:href="#ArialMT-2d" x="201.865234"/>
      <use xlink:href="#ArialMT-68" x="235.166016"/>
      <use xlink:href="#ArialMT-79" x="290.78125"/>
      <use xlink:href="#ArialMT-70" x="340.78125"/>
      <use xlink:href="#ArialMT-6f" x="396.396484"/>
      <use xlink:href="#ArialMT-20" x="452.011719"/>
      <use xlink:href="#ArialMT-70" x="479.794922"/>
      <use xlink:href="#ArialMT-72" x="535.410156"/>
      <use xlink:href="#ArialMT-6f" x="568.710938"/>
      <use xlink:href="#ArialMT-62" x="624.326172"/>
      <use xlink:href="#ArialMT-61" x="679.941406"/>
      <use xlink:href="#ArialMT-62" x="735.556641"/>
      <use xlink:href="#ArialMT-69" x="791.171875"/>
      <use xlink:href="#ArialMT-6c" x="813.388672"/>
      <use xlink:href="#ArialMT-69" x="835.605469"/>
      <use xlink:href="#ArialMT-74" x="857.822266"/>
      <use xlink:href="#ArialMT-79" x="885.605469"/>
     </g>
    </g>
   </g>
   <g id="line2d_13">
    <path d="M 69.19875 184.44375 
L 76.87125 184.44375 
L 77.56875 195.87825 
L 88.03125 195.87825 
L 88.72875 184.44375 
L 99.19125 184.44375 
L 99.88875 195.87825 
L 143.83125 195.87825 
L 145.92375 161.57475 
L 146.62125 161.57475 
L 147.31875 150.14025 
L 148.01625 150.14025 
L 149.41125 127.27125 
L 150.10875 127.27125 
L 150.80625 115.83675 
L 152.89875 115.83675 
L 154.29375 92.96775 
L 155.68875 92.96775 
L 157.08375 115.83675 
L 157.78125 115.83675 
L 158.47875 127.27125 
L 159.17625 127.27125 
L 159.87375 138.70575 
L 160.57125 138.70575 
L 161.26875 127.27125 
L 161.96625 138.70575 
L 162.66375 138.70575 
L 164.05875 115.83675 
L 165.45375 138.70575 
L 169.63875 138.70575 
L 170.33625 127.27125 
L 171.73125 127.27125 
L 172.42875 138.70575 
L 173.82375 138.70575 
L 175.21875 161.57475 
L 177.31125 127.27125 
L 178.00875 138.70575 
L 182.19375 138.70575 
L 182.89125 150.14025 
L 184.98375 150.14025 
L 185.68125 138.70575 
L 187.07625 138.70575 
L 187.77375 150.14025 
L 190.56375 150.14025 
L 191.26125 138.70575 
L 191.95875 138.70575 
L 192.65625 150.14025 
L 196.14375 150.14025 
L 196.84125 161.57475 
L 197.53875 161.57475 
L 198.23625 173.00925 
L 199.63125 173.00925 
L 200.32875 161.57475 
L 201.72375 161.57475 
L 202.42125 173.00925 
L 203.81625 173.00925 
L 204.51375 161.57475 
L 210.09375 161.57475 
L 211.48875 184.44375 
L 214.97625 184.44375 
L 215.67375 195.87825 
L 219.85875 195.87825 
L 220.55625 184.44375 
L 231.01875 184.44375 
L 231.71625 195.87825 
L 232.41375 184.44375 
L 237.99375 184.44375 
L 238.69125 173.00925 
L 240.78375 173.00925 
L 241.48125 161.57475 
L 242.87625 161.57475 
L 243.57375 173.00925 
L 244.96875 150.14025 
L 247.06125 150.14025 
L 247.75875 138.70575 
L 248.45625 138.70575 
L 249.15375 127.27125 
L 249.85125 138.70575 
L 251.94375 138.70575 
L 252.64125 150.14025 
L 254.73375 150.14025 
L 256.12875 173.00925 
L 258.22125 173.00925 
L 258.91875 184.44375 
L 264.49875 184.44375 
L 265.89375 161.57475 
L 270.77625 161.57475 
L 271.47375 173.00925 
L 274.96125 173.00925 
L 275.65875 161.57475 
L 277.05375 184.44375 
L 283.33125 184.44375 
L 284.02875 173.00925 
L 286.12125 173.00925 
L 286.81875 184.44375 
L 288.91125 184.44375 
L 289.60875 173.00925 
L 293.09625 173.00925 
L 294.49125 150.14025 
L 295.18875 161.57475 
L 295.88625 150.14025 
L 296.58375 150.14025 
L 297.28125 138.70575 
L 300.07125 138.70575 
L 300.76875 150.14025 
L 304.25625 150.14025 
L 305.65125 173.00925 
L 306.34875 173.00925 
L 307.04625 184.44375 
L 307.74375 184.44375 
L 308.44125 195.87825 
L 309.13875 184.44375 
L 311.92875 184.44375 
L 312.62625 173.00925 
L 315.41625 173.00925 
L 319.60125 104.40225 
L 320.29875 104.40225 
L 322.39125 70.09875 
L 323.08875 70.09875 
L 323.78625 81.53325 
L 324.48375 70.09875 
L 327.27375 70.09875 
L 327.97125 81.53325 
L 329.36625 81.53325 
L 330.06375 92.96775 
L 331.45875 92.96775 
L 332.85375 115.83675 
L 333.55125 115.83675 
L 334.94625 92.96775 
L 336.34125 92.96775 
L 337.73625 70.09875 
L 339.13125 70.09875 
L 339.82875 81.53325 
L 341.22375 81.53325 
L 341.92125 92.96775 
L 342.61875 92.96775 
L 344.01375 70.09875 
L 345.40875 92.96775 
L 346.10625 92.96775 
L 346.80375 104.40225 
L 347.50125 92.96775 
L 348.89625 115.83675 
L 349.59375 115.83675 
L 350.29125 104.40225 
L 350.98875 104.40225 
L 351.68625 115.83675 
L 353.08125 115.83675 
L 355.17375 150.14025 
L 358.66125 150.14025 
L 359.35875 138.70575 
L 360.05625 138.70575 
L 361.45125 161.57475 
L 362.14875 161.57475 
L 364.24125 127.27125 
L 364.93875 127.27125 
L 366.33375 104.40225 
L 367.03125 104.40225 
L 367.72875 92.96775 
L 373.30875 92.96775 
L 375.40125 127.27125 
L 376.79625 127.27125 
L 377.49375 138.70575 
L 378.88875 138.70575 
L 379.58625 150.14025 
L 380.28375 138.70575 
L 380.98125 138.70575 
L 381.67875 150.14025 
L 385.86375 81.53325 
L 389.35125 81.53325 
L 390.04875 92.96775 
L 390.74625 92.96775 
L 392.14125 115.83675 
L 392.83875 115.83675 
L 397.02375 184.44375 
L 397.72125 184.44375 
L 398.41875 173.00925 
L 399.11625 173.00925 
L 399.81375 161.57475 
L 403.30125 161.57475 
L 404.69625 138.70575 
L 406.78875 138.70575 
L 408.88125 104.40225 
L 410.97375 104.40225 
L 413.76375 58.66425 
L 415.85625 58.66425 
L 416.55375 47.22975 
L 417.25125 47.22975 
L 417.94875 35.79525 
L 420.73875 35.79525 
L 421.43625 47.22975 
L 424.92375 47.22975 
L 425.62125 35.79525 
L 427.71375 35.79525 
L 428.41125 24.36075 
L 431.89875 24.36075 
L 432.59625 12.92625 
L 433.29375 24.36075 
L 440.96625 24.36075 
L 441.66375 35.79525 
L 443.75625 35.79525 
L 444.45375 24.36075 
L 452.12625 24.36075 
L 452.82375 12.92625 
L 454.21875 12.92625 
L 454.91625 24.36075 
L 465.37875 24.36075 
L 466.07625 12.92625 
L 503.74125 12.92625 
L 503.74125 12.92625 
" style="fill: none; stroke: #a6a6a6; stroke-width: 2; stroke-linecap: square"/>
   </g>
   <g id="line2d_14">
    <path d="M 69.19875 194.177645 
L 70.59375 194.177645 
L 71.29125 192.126801 
L 72.68625 192.126801 
L 73.38375 193.827406 
L 74.08125 192.870508 
L 81.75375 192.870508 
L 82.45125 194.921352 
L 83.14875 192.90883 
L 84.54375 192.90883 
L 85.24125 193.865728 
L 85.93875 193.865728 
L 86.63625 190.858659 
L 91.51875 190.858659 
L 92.21625 187.317713 
L 93.61125 187.317713 
L 94.30875 189.330234 
L 97.09875 189.330234 
L 97.79625 192.337304 
L 102.67875 192.337304 
L 103.37625 195.87825 
L 108.95625 195.87825 
L 109.65375 192.189178 
L 116.62875 192.189178 
L 117.32625 184.692845 
L 118.02375 180.451455 
L 119.41875 180.451455 
L 120.11625 178.799789 
L 120.81375 177.559216 
L 122.20875 177.559216 
L 122.90625 172.802174 
L 127.78875 172.802174 
L 128.48625 180.298507 
L 129.18375 184.539897 
L 130.57875 184.539897 
L 131.27625 186.191563 
L 131.97375 191.121208 
L 133.36875 191.121208 
L 134.06625 193.354352 
L 137.55375 193.354352 
L 138.25125 189.051372 
L 138.94875 183.161653 
L 139.64625 183.161653 
L 140.34375 178.282344 
L 142.43625 178.282344 
L 143.13375 170.362184 
L 143.83125 170.362184 
L 144.52875 163.179884 
L 145.22625 160.241868 
L 145.92375 154.921652 
L 147.31875 145.795389 
L 148.01625 145.795389 
L 148.71375 136.641164 
L 149.41125 134.136395 
L 150.10875 130.137431 
L 150.80625 123.457541 
L 151.50375 128.33685 
L 153.59625 128.33685 
L 154.29375 136.257011 
L 154.99125 125.570292 
L 155.68875 122.649853 
L 156.38625 118.000452 
L 157.08375 115.105825 
L 157.78125 109.545926 
L 158.47875 114.347169 
L 159.17625 114.347169 
L 159.87375 123.501393 
L 160.57125 130.309142 
L 161.26875 140.197825 
L 161.96625 146.877715 
L 165.45375 146.877715 
L 166.84875 167.667172 
L 167.54625 173.524506 
L 168.24375 176.634778 
L 168.94125 186.519698 
L 169.63875 180.994219 
L 170.33625 180.994219 
L 171.03375 174.70857 
L 171.73125 173.08683 
L 173.12625 173.08683 
L 173.82375 167.438651 
L 174.52125 164.212538 
L 178.00875 164.212538 
L 178.70625 168.466519 
L 179.40375 173.57109 
L 180.10125 173.57109 
L 180.79875 179.096569 
L 181.49625 179.096569 
L 182.19375 185.382217 
L 182.89125 187.003958 
L 183.58875 187.003958 
L 184.28625 179.577366 
L 184.98375 179.598786 
L 185.68125 176.916365 
L 194.74875 176.916365 
L 195.44625 184.342956 
L 196.14375 189.969715 
L 196.84125 189.731937 
L 203.81625 189.731937 
L 204.51375 179.063545 
L 205.21125 172.87264 
L 207.30375 172.87264 
L 208.00125 171.446546 
L 208.69875 171.446546 
L 210.09375 158.37161 
L 210.79125 158.37161 
L 211.48875 151.466811 
L 212.18625 151.466811 
L 212.88375 140.376943 
L 213.58125 133.394738 
L 214.97625 133.394738 
L 215.67375 144.06313 
L 216.37125 142.363643 
L 218.46375 142.363643 
L 219.16125 149.93605 
L 219.85875 149.93605 
L 220.55625 153.262828 
L 221.25375 154.856386 
L 221.95125 154.856386 
L 222.64875 161.761185 
L 223.34625 153.266765 
L 224.04375 158.160295 
L 224.74125 165.1425 
L 226.83375 165.1425 
L 227.53125 173.032892 
L 228.92625 173.032892 
L 229.62375 166.551061 
L 231.01875 149.426641 
L 231.71625 146.298735 
L 232.41375 151.064563 
L 233.11125 151.064563 
L 233.80875 140.246258 
L 234.50625 139.333658 
L 235.20375 136.925882 
L 240.08625 136.925882 
L 240.78375 143.407712 
L 242.87625 167.048811 
L 244.27125 167.048811 
L 245.66625 187.274135 
L 246.36375 195.87825 
L 252.64125 195.87825 
L 253.33875 189.927673 
L 254.03625 189.927673 
L 254.73375 180.226777 
L 255.43125 180.226777 
L 256.82625 161.709841 
L 257.52375 153.573045 
L 258.22125 143.876596 
L 260.31375 143.876596 
L 262.40625 118.900268 
L 263.80125 118.900268 
L 264.49875 124.850845 
L 265.19625 115.098135 
L 265.89375 115.472267 
L 266.59125 111.87058 
L 267.28875 121.274056 
L 267.98625 124.108105 
L 268.68375 132.244901 
L 269.38125 141.94135 
L 271.47375 141.94135 
L 272.86875 158.319762 
L 273.56625 157.522776 
L 274.26375 149.614758 
L 275.65875 149.614758 
L 277.05375 168.694231 
L 277.75125 172.295918 
L 278.44875 172.295918 
L 279.14625 178.575329 
L 284.02875 178.575329 
L 285.42375 195.87825 
L 286.81875 195.87825 
L 288.21375 178.25294 
L 288.91125 178.25294 
L 290.30625 158.347546 
L 291.00375 158.347546 
L 292.39875 136.867665 
L 294.49125 108.23388 
L 297.97875 108.23388 
L 298.67625 110.772979 
L 299.37375 110.781744 
L 300.07125 103.309172 
L 300.76875 106.895089 
L 301.46625 108.96693 
L 302.16375 99.932945 
L 303.55875 121.412826 
L 305.65125 150.04661 
L 307.04625 150.04661 
L 307.74375 144.715513 
L 308.44125 144.715513 
L 309.13875 139.59225 
L 309.83625 146.389089 
L 311.23125 162.142268 
L 311.92875 168.186297 
L 313.32375 185.42389 
L 317.50875 185.42389 
L 318.20625 176.084401 
L 318.90375 172.899573 
L 319.60125 164.343252 
L 320.29875 162.008429 
L 321.69375 150.237205 
L 323.08875 132.30577 
L 323.78625 132.30577 
L 325.18125 116.153942 
L 326.57625 116.153942 
L 327.97125 94.751111 
L 328.66875 85.064599 
L 329.36625 84.991162 
L 330.06375 83.020495 
L 330.76125 82.375037 
L 332.15625 76.719626 
L 332.85375 70.93899 
L 333.55125 68.883564 
L 334.24875 68.472618 
L 334.94625 58.115778 
L 335.64375 56.378245 
L 336.34125 55.342189 
L 337.73625 33.31246 
L 338.43375 33.411702 
L 339.13125 33.150991 
L 339.82875 34.290176 
L 340.52625 43.703102 
L 341.22375 44.33951 
L 341.92125 44.655706 
L 342.61875 49.312912 
L 343.31625 58.595088 
L 344.71125 80.761243 
L 346.10625 100.535821 
L 348.19875 130.484462 
L 349.59375 133.847363 
L 350.29125 144.402244 
L 350.98875 152.949571 
L 351.68625 152.949571 
L 353.08125 171.685338 
L 353.77875 168.100269 
L 354.47625 159.107719 
L 355.17375 151.72905 
L 357.26625 151.72905 
L 357.96375 143.487278 
L 359.35875 143.487278 
L 360.75375 162.140301 
L 364.24125 162.140301 
L 365.63625 159.56098 
L 366.33375 159.336769 
L 367.72875 159.336769 
L 368.42625 147.927486 
L 369.12375 145.004844 
L 370.51875 123.419451 
L 371.21625 123.419451 
L 374.00625 83.776513 
L 374.70375 76.160618 
L 375.40125 76.160618 
L 376.09875 86.530089 
L 376.79625 87.698639 
L 377.49375 95.301519 
L 378.88875 95.301519 
L 381.67875 139.460608 
L 382.37625 139.460608 
L 385.16625 179.103547 
L 385.86375 186.719442 
L 387.25875 186.719442 
L 387.95625 195.87825 
L 391.44375 195.87825 
L 392.83875 176.341946 
L 393.53625 166.664077 
L 395.62875 166.664077 
L 396.32625 156.523491 
L 397.02375 148.43901 
L 399.11625 148.43901 
L 401.20875 116.140966 
L 402.60375 94.531846 
L 403.30125 93.626766 
L 404.69625 90.982406 
L 406.78875 59.794987 
L 407.48625 60.257596 
L 408.18375 57.324505 
L 408.88125 47.869501 
L 410.27625 47.869501 
L 410.97375 58.110326 
L 413.06625 59.429033 
L 413.76375 59.156665 
L 414.46125 59.80272 
L 415.15875 59.203658 
L 415.85625 59.370838 
L 416.55375 58.813701 
L 417.25125 58.444893 
L 417.94875 57.882531 
L 418.64625 57.954757 
L 419.34375 59.161569 
L 420.04125 68.616573 
L 421.43625 68.616573 
L 422.13375 57.967313 
L 422.83125 57.275764 
L 423.52875 57.954095 
L 424.22625 58.063102 
L 424.92375 58.6209 
L 425.62125 60.454792 
L 426.31875 71.462006 
L 427.01625 73.490265 
L 427.71375 74.348156 
L 429.10875 73.980795 
L 429.80625 74.529035 
L 430.50375 84.339796 
L 432.59625 84.339796 
L 435.38625 126.743238 
L 436.08375 126.413482 
L 436.78125 124.897492 
L 437.47875 115.204355 
L 438.17625 114.443343 
L 438.87375 115.639796 
L 439.57125 117.172301 
L 440.26875 118.260491 
L 442.36125 118.223011 
L 443.05875 106.885547 
L 443.75625 98.426109 
L 444.45375 98.426109 
L 445.15125 87.190582 
L 445.84875 87.190582 
L 446.54625 76.086774 
L 447.24375 75.435552 
L 447.94125 74.511422 
L 450.03375 70.0582 
L 450.73125 68.986464 
L 451.42875 68.151054 
L 452.12625 66.014081 
L 453.52125 43.969144 
L 454.21875 44.849307 
L 454.91625 43.824571 
L 455.61375 34.088328 
L 456.31125 35.209692 
L 457.00875 24.586223 
L 457.70625 25.197124 
L 459.10125 26.935422 
L 459.79875 27.783255 
L 460.49625 29.601427 
L 461.89125 30.318403 
L 462.58875 30.263404 
L 463.28625 34.30185 
L 465.37875 33.95821 
L 466.07625 32.431567 
L 467.47125 30.013751 
L 468.86625 29.638762 
L 470.95875 28.067802 
L 471.65625 26.094631 
L 473.05125 24.487603 
L 473.74875 23.506269 
L 474.44625 19.45214 
L 475.84125 19.325889 
L 476.53875 18.7844 
L 477.23625 18.621662 
L 477.93375 18.895451 
L 478.63125 19.389975 
L 480.02625 18.643503 
L 480.72375 17.959963 
L 481.42125 17.776973 
L 482.11875 17.758813 
L 482.81625 18.180325 
L 483.51375 18.409651 
L 485.60625 19.51329 
L 486.30375 19.574981 
L 487.00125 19.805802 
L 487.69875 19.811206 
L 488.39625 20.437455 
L 489.09375 20.543797 
L 489.79125 21.315646 
L 490.48875 22.452363 
L 491.88375 23.611577 
L 493.27875 24.532478 
L 494.67375 25.55829 
L 495.37125 25.826702 
L 496.06875 26.309103 
L 496.76625 26.613552 
L 497.46375 26.767132 
L 498.85875 26.490015 
L 500.25375 25.836568 
L 500.95125 27.116435 
L 501.64875 27.365049 
L 502.34625 27.734871 
L 503.04375 28.744488 
L 503.74125 29.540389 
L 503.74125 29.540389 
" style="fill: none; stroke: #20978b; stroke-width: 2; stroke-linecap: square"/>
   </g>
   <g id="line2d_15">
    <path d="M 102.67875 195.87825 
L 102.67875 12.92625 
" clip-path="url(#p511b6be748)" style="fill: none; stroke-dasharray: 3.7,1.6; stroke-dashoffset: 0; stroke: #808080; stroke-opacity: 0.3"/>
   </g>
   <g id="line2d_16">
    <path d="M 147.31875 195.87825 
L 147.31875 12.92625 
" clip-path="url(#p511b6be748)" style="fill: none; stroke-dasharray: 3.7,1.6; stroke-dashoffset: 0; stroke: #808080; stroke-opacity: 0.3"/>
   </g>
   <g id="line2d_17">
    <path d="M 191.95875 195.87825 
L 191.95875 12.92625 
" clip-path="url(#p511b6be748)" style="fill: none; stroke-dasharray: 3.7,1.6; stroke-dashoffset: 0; stroke: #808080; stroke-opacity: 0.3"/>
   </g>
   <g id="line2d_18">
    <path d="M 236.59875 195.87825 
L 236.59875 12.92625 
" clip-path="url(#p511b6be748)" style="fill: none; stroke-dasharray: 3.7,1.6; stroke-dashoffset: 0; stroke: #808080; stroke-opacity: 0.3"/>
   </g>
   <g id="line2d_19">
    <path d="M 281.23875 195.87825 
L 281.23875 12.92625 
" clip-path="url(#p511b6be748)" style="fill: none; stroke-dasharray: 3.7,1.6; stroke-dashoffset: 0; stroke: #808080; stroke-opacity: 0.3"/>
   </g>
   <g id="line2d_20">
    <path d="M 325.87875 195.87825 
L 325.87875 12.92625 
" clip-path="url(#p511b6be748)" style="fill: none; stroke-dasharray: 3.7,1.6; stroke-dashoffset: 0; stroke: #808080; stroke-opacity: 0.3"/>
   </g>
   <g id="line2d_21">
    <path d="M 370.51875 195.87825 
L 370.51875 12.92625 
" clip-path="url(#p511b6be748)" style="fill: none; stroke-dasharray: 3.7,1.6; stroke-dashoffset: 0; stroke: #808080; stroke-opacity: 0.3"/>
   </g>
   <g id="line2d_22">
    <path d="M 415.15875 195.87825 
L 415.15875 12.92625 
" clip-path="url(#p511b6be748)" style="fill: none; stroke-dasharray: 3.7,1.6; stroke-dashoffset: 0; stroke: #808080; stroke-opacity: 0.3"/>
   </g>
   <g id="line2d_23">
    <path d="M 459.79875 195.87825 
L 459.79875 12.92625 
" clip-path="url(#p511b6be748)" style="fill: none; stroke-dasharray: 3.7,1.6; stroke-dashoffset: 0; stroke: #808080; stroke-opacity: 0.3"/>
   </g>
   <g id="patch_3">
    <path d="M 58.03875 195.87825 
L 58.03875 12.92625 
" style="fill: none; stroke: #000000; stroke-width: 2; stroke-linejoin: miter; stroke-linecap: square"/>
   </g>
   <g id="patch_4">
    <path d="M 58.03875 195.87825 
L 504.43875 195.87825 
" style="fill: none; stroke: #000000; stroke-width: 2; stroke-linejoin: miter; stroke-linecap: square"/>
   </g>
   <g id="text_15">
    <!-- S14 -->
    <g transform="translate(76.022375 36.39405) scale(0.2 -0.2)">
     <defs>
      <path id="ArialMT-53" d="M 288 1472 
L 859 1522 
Q 900 1178 1048 958 
Q 1197 738 1509 602 
Q 1822 466 2213 466 
Q 2559 466 2825 569 
Q 3091 672 3220 851 
Q 3350 1031 3350 1244 
Q 3350 1459 3225 1620 
Q 3100 1781 2813 1891 
Q 2628 1963 1997 2114 
Q 1366 2266 1113 2400 
Q 784 2572 623 2826 
Q 463 3081 463 3397 
Q 463 3744 659 4045 
Q 856 4347 1234 4503 
Q 1613 4659 2075 4659 
Q 2584 4659 2973 4495 
Q 3363 4331 3572 4012 
Q 3781 3694 3797 3291 
L 3216 3247 
Q 3169 3681 2898 3903 
Q 2628 4125 2100 4125 
Q 1550 4125 1298 3923 
Q 1047 3722 1047 3438 
Q 1047 3191 1225 3031 
Q 1400 2872 2139 2705 
Q 2878 2538 3153 2413 
Q 3553 2228 3743 1945 
Q 3934 1663 3934 1294 
Q 3934 928 3725 604 
Q 3516 281 3123 101 
Q 2731 -78 2241 -78 
Q 1619 -78 1198 103 
Q 778 284 539 648 
Q 300 1013 288 1472 
z
" transform="scale(0.015625)"/>
     </defs>
     <use xlink:href="#ArialMT-53"/>
     <use xlink:href="#ArialMT-31" x="66.699219"/>
     <use xlink:href="#ArialMT-34" x="122.314453"/>
    </g>
   </g>
   <g id="legend_1">
    <g id="patch_5">
     <path d="M 447.97875 186.280987 
L 544.330312 186.280987 
Q 547.330312 186.280987 547.330312 183.280987 
L 547.330312 142.34505 
Q 547.330312 139.34505 544.330312 139.34505 
L 447.97875 139.34505 
Q 444.97875 139.34505 444.97875 142.34505 
L 444.97875 183.280987 
Q 444.97875 186.280987 447.97875 186.280987 
L 447.97875 186.280987 
z
" style="fill: none; opacity: 0"/>
    </g>
    <g id="line2d_24">
     <path d="M 450.97875 150.831769 
L 465.97875 150.831769 
L 480.97875 150.831769 
" style="fill: none; stroke: #a6a6a6; stroke-width: 2; stroke-linecap: square"/>
    </g>
    <g id="text_16">
     <!-- Human -->
     <g transform="translate(492.97875 156.081769) scale(0.15 -0.15)">
      <defs>
       <path id="ArialMT-48" d="M 513 0 
L 513 4581 
L 1119 4581 
L 1119 2700 
L 3500 2700 
L 3500 4581 
L 4106 4581 
L 4106 0 
L 3500 0 
L 3500 2159 
L 1119 2159 
L 1119 0 
L 513 0 
z
" transform="scale(0.015625)"/>
       <path id="ArialMT-6d" d="M 422 0 
L 422 3319 
L 925 3319 
L 925 2853 
Q 1081 3097 1340 3245 
Q 1600 3394 1931 3394 
Q 2300 3394 2536 3241 
Q 2772 3088 2869 2813 
Q 3263 3394 3894 3394 
Q 4388 3394 4653 3120 
Q 4919 2847 4919 2278 
L 4919 0 
L 4359 0 
L 4359 2091 
Q 4359 2428 4304 2576 
Q 4250 2725 4106 2815 
Q 3963 2906 3769 2906 
Q 3419 2906 3187 2673 
Q 2956 2441 2956 1928 
L 2956 0 
L 2394 0 
L 2394 2156 
Q 2394 2531 2256 2718 
Q 2119 2906 1806 2906 
Q 1569 2906 1367 2781 
Q 1166 2656 1075 2415 
Q 984 2175 984 1722 
L 984 0 
L 422 0 
z
" transform="scale(0.015625)"/>
       <path id="ArialMT-6e" d="M 422 0 
L 422 3319 
L 928 3319 
L 928 2847 
Q 1294 3394 1984 3394 
Q 2284 3394 2536 3286 
Q 2788 3178 2913 3003 
Q 3038 2828 3088 2588 
Q 3119 2431 3119 2041 
L 3119 0 
L 2556 0 
L 2556 2019 
Q 2556 2363 2490 2533 
Q 2425 2703 2258 2804 
Q 2091 2906 1866 2906 
Q 1506 2906 1245 2678 
Q 984 2450 984 1813 
L 984 0 
L 422 0 
z
" transform="scale(0.015625)"/>
      </defs>
      <use xlink:href="#ArialMT-48"/>
      <use xlink:href="#ArialMT-75" x="72.216797"/>
      <use xlink:href="#ArialMT-6d" x="127.832031"/>
      <use xlink:href="#ArialMT-61" x="211.132812"/>
      <use xlink:href="#ArialMT-6e" x="266.748047"/>
     </g>
    </g>
    <g id="line2d_25">
     <path d="M 450.97875 172.049737 
L 465.97875 172.049737 
L 480.97875 172.049737 
" style="fill: none; stroke: #20978b; stroke-width: 2; stroke-linecap: square"/>
    </g>
    <g id="text_17">
     <!-- PMH -->
     <g transform="translate(492.97875 177.299737) scale(0.15 -0.15)">
      <defs>
       <path id="ArialMT-50" d="M 494 0 
L 494 4581 
L 2222 4581 
Q 2678 4581 2919 4538 
Q 3256 4481 3484 4323 
Q 3713 4166 3852 3881 
Q 3991 3597 3991 3256 
Q 3991 2672 3619 2267 
Q 3247 1863 2275 1863 
L 1100 1863 
L 1100 0 
L 494 0 
z
M 1100 2403 
L 2284 2403 
Q 2872 2403 3119 2622 
Q 3366 2841 3366 3238 
Q 3366 3525 3220 3729 
Q 3075 3934 2838 4000 
Q 2684 4041 2272 4041 
L 1100 4041 
L 1100 2403 
z
" transform="scale(0.015625)"/>
       <path id="ArialMT-4d" d="M 475 0 
L 475 4581 
L 1388 4581 
L 2472 1338 
Q 2622 884 2691 659 
Q 2769 909 2934 1394 
L 4031 4581 
L 4847 4581 
L 4847 0 
L 4263 0 
L 4263 3834 
L 2931 0 
L 2384 0 
L 1059 3900 
L 1059 0 
L 475 0 
z
" transform="scale(0.015625)"/>
      </defs>
      <use xlink:href="#ArialMT-50"/>
      <use xlink:href="#ArialMT-4d" x="66.699219"/>
      <use xlink:href="#ArialMT-48" x="150"/>
     </g>
    </g>
   </g>
  </g>
 </g>
 <defs>
  <clipPath id="p511b6be748">
   <rect x="58.03875" y="12.92625" width="446.4" height="182.952"/>
  </clipPath>
 </defs>
</svg>
