<?xml version="1.0" encoding="utf-8" standalone="no"?>
<!DOCTYPE svg PUBLIC "-//W3C//DTD SVG 1.1//EN"
  "http://www.w3.org/Graphics/SVG/1.1/DTD/svg11.dtd">
<svg xmlns:xlink="http://www.w3.org/1999/xlink" width="185.3pt" height="112.148pt" viewBox="0 0 185.3 112.148" xmlns="http://www.w3.org/2000/svg" version="1.1">
 <metadata>
  <rdf:RDF xmlns:dc="http://purl.org/dc/elements/1.1/" xmlns:cc="http://creativecommons.org/ns#" xmlns:rdf="http://www.w3.org/1999/02/22-rdf-syntax-ns#">
   <cc:Work>
    <dc:type rdf:resource="http://purl.org/dc/dcmitype/StillImage"/>
    <dc:date>2025-05-15T11:01:42.964903</dc:date>
    <dc:format>image/svg+xml</dc:format>
    <dc:creator>
     <cc:Agent>
      <dc:title>Matplotlib v3.8.4, https://matplotlib.org/</dc:title>
     </cc:Agent>
    </dc:creator>
   </cc:Work>
  </rdf:RDF>
 </metadata>
 <defs>
  <style type="text/css">*{stroke-linejoin: round; stroke-linecap: butt}</style>
 </defs>
 <g id="figure_1">
  <g id="patch_1">
   <path d="M 0 112.148 
L 185.3 112.148 
L 185.3 0 
L 0 0 
L 0 112.148 
z
" style="fill: none"/>
  </g>
  <g id="axes_1">
   <g id="patch_2">
    <path d="M 10.7 101.448 
L 178.1 101.448 
L 178.1 7.2 
L 10.7 7.2 
L 10.7 101.448 
z
" style="fill: none"/>
   </g>
   <g id="matplotlib.axis_1">
    <g id="xtick_1">
     <g id="line2d_1">
      <defs>
       <path id="ma6e370f775" d="M 0 0 
L 0 3.5 
" style="stroke: #000000; stroke-width: 0.8"/>
      </defs>
      <g>
       <use xlink:href="#ma6e370f775" x="10.7" y="101.448" style="stroke: #000000; stroke-width: 0.8"/>
      </g>
     </g>
    </g>
    <g id="xtick_2">
     <g id="line2d_2">
      <g>
       <use xlink:href="#ma6e370f775" x="94.074319" y="101.448" style="stroke: #000000; stroke-width: 0.8"/>
      </g>
     </g>
    </g>
    <g id="xtick_3">
     <g id="line2d_3">
      <g>
       <use xlink:href="#ma6e370f775" x="177.448638" y="101.448" style="stroke: #000000; stroke-width: 0.8"/>
      </g>
     </g>
    </g>
   </g>
   <g id="matplotlib.axis_2">
    <g id="ytick_1">
     <g id="line2d_4">
      <defs>
       <path id="m66ea67b7f3" d="M 0 0 
L -3.5 0 
" style="stroke: #000000; stroke-width: 0.8"/>
      </defs>
      <g>
       <use xlink:href="#m66ea67b7f3" x="10.7" y="101.448" style="stroke: #000000; stroke-width: 0.8"/>
      </g>
     </g>
    </g>
    <g id="ytick_2">
     <g id="line2d_5">
      <g>
       <use xlink:href="#m66ea67b7f3" x="10.7" y="82.5984" style="stroke: #000000; stroke-width: 0.8"/>
      </g>
     </g>
    </g>
    <g id="ytick_3">
     <g id="line2d_6">
      <g>
       <use xlink:href="#m66ea67b7f3" x="10.7" y="63.7488" style="stroke: #000000; stroke-width: 0.8"/>
      </g>
     </g>
    </g>
    <g id="ytick_4">
     <g id="line2d_7">
      <g>
       <use xlink:href="#m66ea67b7f3" x="10.7" y="44.8992" style="stroke: #000000; stroke-width: 0.8"/>
      </g>
     </g>
    </g>
    <g id="ytick_5">
     <g id="line2d_8">
      <g>
       <use xlink:href="#m66ea67b7f3" x="10.7" y="26.0496" style="stroke: #000000; stroke-width: 0.8"/>
      </g>
     </g>
    </g>
    <g id="ytick_6">
     <g id="line2d_9">
      <g>
       <use xlink:href="#m66ea67b7f3" x="10.7" y="7.2" style="stroke: #000000; stroke-width: 0.8"/>
      </g>
     </g>
    </g>
   </g>
   <g id="line2d_10">
    <path d="M 21.12179 71.9955 
L 23.727237 71.9955 
L 24.378599 77.886 
L 25.029961 77.886 
L 25.681323 83.7765 
L 28.28677 83.7765 
L 28.938132 89.667 
L 32.194942 89.667 
L 32.846304 95.5575 
L 36.103113 95.5575 
L 36.754475 89.667 
L 39.359922 89.667 
L 40.011284 83.7765 
L 45.222179 83.7765 
L 45.873541 89.667 
L 46.524903 83.7765 
L 47.176265 83.7765 
L 47.827626 77.886 
L 49.781712 77.886 
L 50.433074 83.7765 
L 51.084436 77.886 
L 52.38716 77.886 
L 53.038521 71.9955 
L 54.992607 71.9955 
L 55.643969 66.105 
L 56.295331 66.105 
L 58.249416 83.7765 
L 60.854864 60.2145 
L 61.506226 66.105 
L 62.157588 66.105 
L 62.808949 60.2145 
L 63.460311 66.105 
L 64.111673 60.2145 
L 67.368482 60.2145 
L 68.671206 48.4335 
L 69.322568 54.324 
L 69.97393 54.324 
L 71.276654 66.105 
L 71.928016 66.105 
L 72.579377 60.2145 
L 74.533463 60.2145 
L 75.836187 48.4335 
L 76.487549 48.4335 
L 77.138911 42.543 
L 77.790272 42.543 
L 79.092996 54.324 
L 79.744358 54.324 
L 80.39572 60.2145 
L 81.698444 60.2145 
L 82.349805 54.324 
L 83.001167 54.324 
L 83.652529 60.2145 
L 84.955253 60.2145 
L 87.5607 83.7765 
L 91.468872 83.7765 
L 92.120233 77.886 
L 92.771595 83.7765 
L 93.422957 83.7765 
L 94.725681 71.9955 
L 95.377043 71.9955 
L 101.890661 13.0905 
L 102.542023 13.0905 
L 103.193385 7.2 
L 127.945136 7.2 
L 128.596498 13.0905 
L 135.110117 13.0905 
L 135.761479 18.981 
L 138.366926 18.981 
L 139.018288 13.0905 
L 143.577821 13.0905 
L 144.229183 18.981 
L 145.531907 18.981 
L 146.183268 13.0905 
L 153.999611 13.0905 
L 154.650973 7.2 
L 177.448638 7.2 
L 177.448638 7.2 
" style="fill: none; stroke: #a6a6a6; stroke-width: 2; stroke-linecap: square"/>
   </g>
   <g id="line2d_11">
    <path d="M 21.12179 89.5495 
L 21.773152 91.406866 
L 22.424514 92.444849 
L 23.727237 92.444849 
L 24.378599 93.816572 
L 25.029961 94.835682 
L 25.681323 96.299617 
L 26.332685 99.219251 
L 28.28677 99.219251 
L 28.938132 101.448 
L 30.240856 94.825529 
L 30.892218 92.135469 
L 31.54358 92.135469 
L 32.194942 88.801871 
L 32.846304 86.609698 
L 33.497665 83.496735 
L 39.359922 83.496735 
L 40.662646 90.119206 
L 41.314008 92.809266 
L 41.96537 88.445535 
L 43.268093 85.432693 
L 43.919455 88.545655 
L 47.827626 88.545655 
L 48.478988 84.191493 
L 49.781712 77.858856 
L 51.735798 77.858856 
L 52.38716 82.222587 
L 53.038521 82.876663 
L 53.689883 86.598917 
L 54.992607 86.598917 
L 55.643969 83.510979 
L 56.295331 79.329545 
L 58.249416 79.329545 
L 58.900778 83.683707 
L 59.55214 86.974089 
L 60.203502 86.221759 
L 62.808949 86.221759 
L 63.460311 90.384043 
L 65.414397 90.384043 
L 66.065759 93.471981 
L 66.717121 97.653415 
L 68.019844 97.653415 
L 69.322568 88.093052 
L 69.97393 88.093052 
L 70.625292 91.887638 
L 75.184825 91.887638 
L 76.487549 82.919153 
L 78.441634 82.919153 
L 79.744358 92.479516 
L 80.39572 92.479516 
L 84.955253 60.910501 
L 85.606615 60.910501 
L 86.909339 69.878985 
L 88.863424 69.878985 
L 89.514786 64.829922 
L 90.81751 64.829922 
L 92.771595 78.323963 
L 93.422957 77.040896 
L 94.074319 76.318635 
L 94.725681 76.41533 
L 95.377043 74.62253 
L 96.679767 64.546856 
L 99.285214 42.831681 
L 99.936576 42.314468 
L 101.2393 31.124368 
L 103.193385 16.213839 
L 103.844747 16.310487 
L 104.496109 16.134422 
L 105.147471 16.279494 
L 106.450195 15.30894 
L 107.101556 15.381228 
L 108.40428 15.217968 
L 109.055642 15.347218 
L 109.707004 15.323482 
L 111.661089 16.452443 
L 112.963813 15.19933 
L 113.615175 15.236528 
L 114.266537 15.472483 
L 114.917899 15.509519 
L 115.569261 14.956017 
L 116.220623 15.210585 
L 116.871984 15.086217 
L 117.523346 14.778163 
L 118.174708 15.47868 
L 119.477432 14.858393 
L 120.128794 14.762913 
L 120.780156 14.208169 
L 121.431518 13.828103 
L 122.082879 13.172902 
L 122.734241 13.435253 
L 123.385603 13.173365 
L 124.036965 12.649095 
L 125.991051 12.107781 
L 127.293774 12.014891 
L 127.945136 11.718315 
L 128.596498 11.059039 
L 129.24786 11.246982 
L 131.201946 11.353124 
L 132.504669 11.641991 
L 133.156031 11.301618 
L 133.807393 11.461484 
L 134.458755 11.30084 
L 137.715564 11.30547 
L 139.018288 11.383275 
L 140.321012 11.0241 
L 140.972374 10.751921 
L 141.623735 10.684447 
L 142.926459 10.756811 
L 143.577821 10.671205 
L 144.229183 11.043854 
L 144.880545 11.263551 
L 145.531907 11.918703 
L 146.183268 11.967427 
L 146.83463 12.277187 
L 147.485992 12.242824 
L 148.137354 11.973921 
L 149.440078 11.89621 
L 151.394163 12.278977 
L 152.045525 12.249082 
L 153.999611 11.887576 
L 154.650973 11.419548 
L 155.302335 11.18866 
L 155.953696 10.5988 
L 156.605058 10.43447 
L 157.25642 10.054158 
L 157.907782 9.919123 
L 159.210506 9.920246 
L 160.51323 9.768851 
L 161.164591 9.628255 
L 163.770039 9.538662 
L 165.072763 9.470305 
L 165.724125 9.581595 
L 166.375486 9.47882 
L 167.67821 9.601685 
L 168.329572 9.904392 
L 168.980934 9.911895 
L 171.586381 9.413567 
L 173.540467 8.944601 
L 174.843191 8.802253 
L 177.448638 8.327076 
L 177.448638 8.327076 
" style="fill: none; stroke: #20978b; stroke-width: 2; stroke-linecap: square"/>
   </g>
   <g id="patch_3">
    <path d="M 10.7 101.448 
L 10.7 7.2 
" style="fill: none; stroke: #000000; stroke-width: 2; stroke-linejoin: miter; stroke-linecap: square"/>
   </g>
   <g id="patch_4">
    <path d="M 10.7 101.448 
L 178.1 101.448 
" style="fill: none; stroke: #000000; stroke-width: 2; stroke-linejoin: miter; stroke-linecap: square"/>
   </g>
  </g>
 </g>
</svg>
