<?xml version="1.0" encoding="utf-8" standalone="no"?>
<!DOCTYPE svg PUBLIC "-//W3C//DTD SVG 1.1//EN"
  "http://www.w3.org/Graphics/SVG/1.1/DTD/svg11.dtd">
<svg xmlns:xlink="http://www.w3.org/1999/xlink" width="185.3pt" height="112.148pt" viewBox="0 0 185.3 112.148" xmlns="http://www.w3.org/2000/svg" version="1.1">
 <metadata>
  <rdf:RDF xmlns:dc="http://purl.org/dc/elements/1.1/" xmlns:cc="http://creativecommons.org/ns#" xmlns:rdf="http://www.w3.org/1999/02/22-rdf-syntax-ns#">
   <cc:Work>
    <dc:type rdf:resource="http://purl.org/dc/dcmitype/StillImage"/>
    <dc:date>2025-05-15T20:52:13.779041</dc:date>
    <dc:format>image/svg+xml</dc:format>
    <dc:creator>
     <cc:Agent>
      <dc:title>Matplotlib v3.8.4, https://matplotlib.org/</dc:title>
     </cc:Agent>
    </dc:creator>
   </cc:Work>
  </rdf:RDF>
 </metadata>
 <defs>
  <style type="text/css">*{stroke-linejoin: round; stroke-linecap: butt}</style>
 </defs>
 <g id="figure_1">
  <g id="patch_1">
   <path d="M 0 112.148 
L 185.3 112.148 
L 185.3 0 
L 0 0 
L 0 112.148 
z
" style="fill: none"/>
  </g>
  <g id="axes_1">
   <g id="patch_2">
    <path d="M 10.7 101.448 
L 178.1 101.448 
L 178.1 7.2 
L 10.7 7.2 
L 10.7 101.448 
z
" style="fill: none"/>
   </g>
   <g id="matplotlib.axis_1">
    <g id="xtick_1">
     <g id="line2d_1">
      <defs>
       <path id="m3a94f47bb8" d="M 0 0 
L 0 3.5 
" style="stroke: #000000; stroke-width: 0.8"/>
      </defs>
      <g>
       <use xlink:href="#m3a94f47bb8" x="10.7" y="101.448" style="stroke: #000000; stroke-width: 0.8"/>
      </g>
     </g>
    </g>
    <g id="xtick_2">
     <g id="line2d_2">
      <g>
       <use xlink:href="#m3a94f47bb8" x="66.355065" y="101.448" style="stroke: #000000; stroke-width: 0.8"/>
      </g>
     </g>
    </g>
    <g id="xtick_3">
     <g id="line2d_3">
      <g>
       <use xlink:href="#m3a94f47bb8" x="122.01013" y="101.448" style="stroke: #000000; stroke-width: 0.8"/>
      </g>
     </g>
    </g>
    <g id="xtick_4">
     <g id="line2d_4">
      <g>
       <use xlink:href="#m3a94f47bb8" x="177.665195" y="101.448" style="stroke: #000000; stroke-width: 0.8"/>
      </g>
     </g>
    </g>
   </g>
   <g id="matplotlib.axis_2">
    <g id="ytick_1">
     <g id="line2d_5">
      <defs>
       <path id="m9d0921747b" d="M 0 0 
L -3.5 0 
" style="stroke: #000000; stroke-width: 0.8"/>
      </defs>
      <g>
       <use xlink:href="#m9d0921747b" x="10.7" y="101.448" style="stroke: #000000; stroke-width: 0.8"/>
      </g>
     </g>
    </g>
    <g id="ytick_2">
     <g id="line2d_6">
      <g>
       <use xlink:href="#m9d0921747b" x="10.7" y="82.5984" style="stroke: #000000; stroke-width: 0.8"/>
      </g>
     </g>
    </g>
    <g id="ytick_3">
     <g id="line2d_7">
      <g>
       <use xlink:href="#m9d0921747b" x="10.7" y="63.7488" style="stroke: #000000; stroke-width: 0.8"/>
      </g>
     </g>
    </g>
    <g id="ytick_4">
     <g id="line2d_8">
      <g>
       <use xlink:href="#m9d0921747b" x="10.7" y="44.8992" style="stroke: #000000; stroke-width: 0.8"/>
      </g>
     </g>
    </g>
    <g id="ytick_5">
     <g id="line2d_9">
      <g>
       <use xlink:href="#m9d0921747b" x="10.7" y="26.0496" style="stroke: #000000; stroke-width: 0.8"/>
      </g>
     </g>
    </g>
    <g id="ytick_6">
     <g id="line2d_10">
      <g>
       <use xlink:href="#m9d0921747b" x="10.7" y="7.2" style="stroke: #000000; stroke-width: 0.8"/>
      </g>
     </g>
    </g>
   </g>
   <g id="line2d_11">
    <path d="M 17.656883 95.5575 
L 20.700519 95.5575 
L 21.135325 101.448 
L 27.657403 101.448 
L 28.092208 95.5575 
L 30.701039 95.5575 
L 31.135844 89.667 
L 32.875065 89.667 
L 33.744675 77.886 
L 34.179481 77.886 
L 34.614286 71.9955 
L 37.223117 71.9955 
L 37.657922 66.105 
L 38.092727 71.9955 
L 40.266753 71.9955 
L 40.701558 77.886 
L 41.136364 77.886 
L 42.005974 89.667 
L 42.440779 89.667 
L 42.875584 83.7765 
L 47.223636 83.7765 
L 48.093247 71.9955 
L 50.267273 71.9955 
L 50.702078 66.105 
L 52.441299 66.105 
L 52.876104 60.2145 
L 54.180519 60.2145 
L 55.05013 71.9955 
L 56.354545 71.9955 
L 56.789351 77.886 
L 57.224156 71.9955 
L 57.658961 77.886 
L 58.093766 77.886 
L 58.528571 83.7765 
L 58.963377 83.7765 
L 59.398182 77.886 
L 59.832987 83.7765 
L 60.702597 83.7765 
L 61.137403 89.667 
L 63.746234 89.667 
L 64.181039 95.5575 
L 65.485455 95.5575 
L 65.92026 89.667 
L 67.659481 89.667 
L 68.094286 83.7765 
L 68.529091 83.7765 
L 68.963896 77.886 
L 69.398701 77.886 
L 69.833506 71.9955 
L 70.268312 71.9955 
L 70.703117 66.105 
L 71.137922 66.105 
L 71.572727 60.2145 
L 72.442338 60.2145 
L 72.877143 66.105 
L 73.311948 66.105 
L 73.746753 60.2145 
L 75.485974 60.2145 
L 75.920779 66.105 
L 76.355584 66.105 
L 76.79039 71.9955 
L 77.225195 71.9955 
L 77.66 77.886 
L 78.094805 71.9955 
L 78.52961 77.886 
L 78.964416 71.9955 
L 79.399221 71.9955 
L 79.834026 66.105 
L 80.703636 77.886 
L 82.442857 77.886 
L 82.877662 71.9955 
L 84.182078 71.9955 
L 84.616883 66.105 
L 85.486494 66.105 
L 85.921299 71.9955 
L 86.356104 71.9955 
L 86.790909 77.886 
L 87.225714 77.886 
L 88.53013 60.2145 
L 89.834545 60.2145 
L 90.269351 54.324 
L 91.138961 54.324 
L 92.008571 66.105 
L 92.443377 66.105 
L 92.878182 60.2145 
L 94.182597 60.2145 
L 95.052208 71.9955 
L 95.487013 71.9955 
L 95.921818 77.886 
L 96.356623 77.886 
L 97.226234 89.667 
L 98.530649 89.667 
L 98.965455 83.7765 
L 99.835065 83.7765 
L 100.26987 77.886 
L 101.139481 77.886 
L 102.009091 66.105 
L 102.443896 71.9955 
L 103.313506 71.9955 
L 103.748312 66.105 
L 104.617922 66.105 
L 105.487532 54.324 
L 105.922338 54.324 
L 106.357143 48.4335 
L 106.791948 54.324 
L 107.226753 54.324 
L 108.096364 42.543 
L 108.531169 48.4335 
L 109.835584 48.4335 
L 110.27039 42.543 
L 111.14 42.543 
L 111.574805 36.6525 
L 112.879221 36.6525 
L 113.314026 42.543 
L 113.748831 36.6525 
L 115.053247 36.6525 
L 115.488052 30.762 
L 115.922857 36.6525 
L 116.357662 30.762 
L 117.662078 30.762 
L 118.096883 24.8715 
L 119.401299 24.8715 
L 119.836104 30.762 
L 120.270909 24.8715 
L 122.444935 24.8715 
L 122.87974 18.981 
L 123.314545 18.981 
L 123.749351 13.0905 
L 126.358182 13.0905 
L 126.792987 7.2 
L 177.665195 7.2 
L 177.665195 7.2 
" style="fill: none; stroke: #a6a6a6; stroke-width: 2; stroke-linecap: square"/>
   </g>
   <g id="line2d_12">
    <path d="M 17.656883 90.668233 
L 18.091688 86.180589 
L 18.526494 86.180589 
L 18.961299 89.680294 
L 19.396104 85.707707 
L 20.265714 75.60981 
L 22.43974 49.435058 
L 23.309351 42.357642 
L 23.744156 39.834015 
L 24.178961 39.834015 
L 25.048571 49.878994 
L 25.918182 49.878994 
L 27.222597 65.672205 
L 29.396623 91.846956 
L 30.266234 98.924373 
L 30.701039 101.448 
L 49.832468 101.448 
L 50.702078 94.931274 
L 52.006494 94.931274 
L 55.05013 58.261547 
L 55.484935 54.052819 
L 56.789351 54.052819 
L 57.658961 60.569545 
L 58.963377 60.569545 
L 59.832987 70.864527 
L 60.267792 71.881656 
L 60.702597 71.922385 
L 61.137403 73.368555 
L 62.007013 82.825992 
L 62.441818 87.034719 
L 66.78987 87.034719 
L 68.094286 101.448 
L 68.963896 101.448 
L 72.442338 56.62159 
L 73.311948 45.729736 
L 75.920779 45.729736 
L 77.225195 62.213177 
L 77.66 62.457135 
L 78.094805 62.365885 
L 78.964416 63.280629 
L 80.268831 79.839445 
L 84.182078 79.839445 
L 85.921299 101.448 
L 88.53013 101.448 
L 90.704156 74.356047 
L 94.182597 33.037109 
L 95.487013 15.496029 
L 96.791429 15.047036 
L 97.661039 13.774509 
L 99.835065 10.822423 
L 100.26987 10.736622 
L 101.139481 9.240511 
L 102.009091 9.351584 
L 103.748312 10.546477 
L 104.183117 10.780469 
L 105.052727 11.588903 
L 105.487532 12.224468 
L 107.661558 40.868424 
L 108.531169 40.870286 
L 108.965974 40.704647 
L 109.835584 40.153932 
L 112.00961 39.01648 
L 112.444416 38.328504 
L 114.618442 9.903045 
L 115.488052 10.61026 
L 116.792468 10.594446 
L 117.662078 10.23208 
L 118.966494 9.493801 
L 120.705714 9.052771 
L 122.444935 8.136956 
L 123.314545 8.268082 
L 124.618961 8.280946 
L 125.488571 8.538972 
L 127.227792 8.649258 
L 128.967013 8.409604 
L 129.836623 8.142146 
L 131.141039 8.120903 
L 131.575844 8.158167 
L 132.010649 7.981049 
L 132.88026 8.080461 
L 133.315065 8.489477 
L 133.74987 9.119958 
L 135.489091 9.060298 
L 137.663117 9.099641 
L 138.967532 9.018344 
L 139.837143 8.676456 
L 140.706753 7.493325 
L 142.880779 7.51759 
L 145.48961 7.42167 
L 147.228831 8.005886 
L 148.098442 8.574091 
L 148.968052 8.863323 
L 152.011688 9.245504 
L 152.881299 9.197476 
L 153.750909 9.074185 
L 154.185714 9.112454 
L 155.924935 8.603377 
L 160.272987 8.338554 
L 162.012208 7.789791 
L 163.751429 7.618381 
L 164.186234 7.562105 
L 164.621039 7.642545 
L 165.490649 8.292961 
L 166.36026 8.485555 
L 168.099481 9.68217 
L 168.969091 10.00285 
L 171.577922 10.063667 
L 172.447532 9.648615 
L 173.317143 9.673162 
L 174.621558 9.32181 
L 175.491169 9.581796 
L 175.925974 9.744783 
L 177.665195 9.640258 
L 177.665195 9.640258 
" style="fill: none; stroke: #20978b; stroke-width: 2; stroke-linecap: square"/>
   </g>
   <g id="patch_3">
    <path d="M 10.7 101.448 
L 10.7 7.2 
" style="fill: none; stroke: #000000; stroke-width: 2; stroke-linejoin: miter; stroke-linecap: square"/>
   </g>
   <g id="patch_4">
    <path d="M 10.7 101.448 
L 178.1 101.448 
" style="fill: none; stroke: #000000; stroke-width: 2; stroke-linejoin: miter; stroke-linecap: square"/>
   </g>
  </g>
 </g>
</svg>
