<?xml version="1.0" encoding="utf-8" standalone="no"?>
<!DOCTYPE svg PUBLIC "-//W3C//DTD SVG 1.1//EN"
  "http://www.w3.org/Graphics/SVG/1.1/DTD/svg11.dtd">
<svg xmlns:xlink="http://www.w3.org/1999/xlink" width="185.3pt" height="112.148pt" viewBox="0 0 185.3 112.148" xmlns="http://www.w3.org/2000/svg" version="1.1">
 <metadata>
  <rdf:RDF xmlns:dc="http://purl.org/dc/elements/1.1/" xmlns:cc="http://creativecommons.org/ns#" xmlns:rdf="http://www.w3.org/1999/02/22-rdf-syntax-ns#">
   <cc:Work>
    <dc:type rdf:resource="http://purl.org/dc/dcmitype/StillImage"/>
    <dc:date>2025-05-14T23:42:40.788660</dc:date>
    <dc:format>image/svg+xml</dc:format>
    <dc:creator>
     <cc:Agent>
      <dc:title>Matplotlib v3.8.4, https://matplotlib.org/</dc:title>
     </cc:Agent>
    </dc:creator>
   </cc:Work>
  </rdf:RDF>
 </metadata>
 <defs>
  <style type="text/css">*{stroke-linejoin: round; stroke-linecap: butt}</style>
 </defs>
 <g id="figure_1">
  <g id="patch_1">
   <path d="M 0 112.148 
L 185.3 112.148 
L 185.3 0 
L 0 0 
L 0 112.148 
z
" style="fill: none"/>
  </g>
  <g id="axes_1">
   <g id="patch_2">
    <path d="M 10.7 101.448 
L 178.1 101.448 
L 178.1 7.2 
L 10.7 7.2 
L 10.7 101.448 
z
" style="fill: none"/>
   </g>
   <g id="matplotlib.axis_1">
    <g id="xtick_1">
     <g id="line2d_1">
      <defs>
       <path id="m08413689d9" d="M 0 0 
L 0 3.5 
" style="stroke: #000000; stroke-width: 0.8"/>
      </defs>
      <g>
       <use xlink:href="#m08413689d9" x="10.7" y="101.448" style="stroke: #000000; stroke-width: 0.8"/>
      </g>
     </g>
    </g>
    <g id="xtick_2">
     <g id="line2d_2">
      <g>
       <use xlink:href="#m08413689d9" x="58.422049" y="101.448" style="stroke: #000000; stroke-width: 0.8"/>
      </g>
     </g>
    </g>
    <g id="xtick_3">
     <g id="line2d_3">
      <g>
       <use xlink:href="#m08413689d9" x="106.144098" y="101.448" style="stroke: #000000; stroke-width: 0.8"/>
      </g>
     </g>
    </g>
    <g id="xtick_4">
     <g id="line2d_4">
      <g>
       <use xlink:href="#m08413689d9" x="153.866147" y="101.448" style="stroke: #000000; stroke-width: 0.8"/>
      </g>
     </g>
    </g>
   </g>
   <g id="matplotlib.axis_2">
    <g id="ytick_1">
     <g id="line2d_5">
      <defs>
       <path id="m57bcf9798f" d="M 0 0 
L -3.5 0 
" style="stroke: #000000; stroke-width: 0.8"/>
      </defs>
      <g>
       <use xlink:href="#m57bcf9798f" x="10.7" y="101.448" style="stroke: #000000; stroke-width: 0.8"/>
      </g>
     </g>
    </g>
    <g id="ytick_2">
     <g id="line2d_6">
      <g>
       <use xlink:href="#m57bcf9798f" x="10.7" y="82.5984" style="stroke: #000000; stroke-width: 0.8"/>
      </g>
     </g>
    </g>
    <g id="ytick_3">
     <g id="line2d_7">
      <g>
       <use xlink:href="#m57bcf9798f" x="10.7" y="63.7488" style="stroke: #000000; stroke-width: 0.8"/>
      </g>
     </g>
    </g>
    <g id="ytick_4">
     <g id="line2d_8">
      <g>
       <use xlink:href="#m57bcf9798f" x="10.7" y="44.8992" style="stroke: #000000; stroke-width: 0.8"/>
      </g>
     </g>
    </g>
    <g id="ytick_5">
     <g id="line2d_9">
      <g>
       <use xlink:href="#m57bcf9798f" x="10.7" y="26.0496" style="stroke: #000000; stroke-width: 0.8"/>
      </g>
     </g>
    </g>
    <g id="ytick_6">
     <g id="line2d_10">
      <g>
       <use xlink:href="#m57bcf9798f" x="10.7" y="7.2" style="stroke: #000000; stroke-width: 0.8"/>
      </g>
     </g>
    </g>
   </g>
   <g id="line2d_11">
    <path d="M 16.665256 89.667 
L 18.15657 89.667 
L 18.529399 95.5575 
L 20.020713 95.5575 
L 20.393541 101.448 
L 42.390423 101.448 
L 42.763252 95.5575 
L 48.355679 95.5575 
L 48.728508 101.448 
L 52.083964 101.448 
L 52.456793 95.5575 
L 58.04922 95.5575 
L 58.422049 101.448 
L 152.002004 101.448 
L 152.374833 95.5575 
L 156.848775 95.5575 
L 157.221604 89.667 
L 158.712918 89.667 
L 159.458575 77.886 
L 159.831403 77.886 
L 160.204232 71.9955 
L 160.57706 71.9955 
L 162.814031 36.6525 
L 163.18686 36.6525 
L 163.932517 24.8715 
L 164.305345 24.8715 
L 164.678174 18.981 
L 165.423831 18.981 
L 165.796659 13.0905 
L 166.169488 13.0905 
L 166.542316 7.2 
L 177.727171 7.2 
L 177.727171 7.2 
" style="fill: none; stroke: #a6a6a6; stroke-width: 2; stroke-linecap: square"/>
   </g>
   <g id="line2d_12">
    <path d="M 16.665256 101.448 
L 39.034967 101.448 
L 39.407795 96.515069 
L 39.780624 93.347068 
L 40.153452 91.366623 
L 45.000223 91.366623 
L 45.373051 96.299554 
L 45.74588 99.467555 
L 46.118708 101.448 
L 72.589532 101.448 
L 73.708018 92.762138 
L 78.554788 92.762138 
L 79.673274 101.448 
L 80.791759 101.448 
L 81.537416 92.945947 
L 86.757016 92.945947 
L 87.502673 101.448 
L 100.924499 101.448 
L 101.297327 96.813067 
L 101.670156 96.813067 
L 102.042984 91.541068 
L 106.889755 91.541068 
L 107.262584 96.176 
L 107.635412 96.176 
L 108.008241 101.448 
L 109.872383 101.448 
L 110.245212 96.696284 
L 115.837639 96.696284 
L 116.210468 101.448 
L 117.328953 101.448 
L 118.447439 85.398832 
L 119.193096 76.499386 
L 123.294209 76.499386 
L 124.412695 92.548554 
L 125.158352 101.448 
L 133.360579 101.448 
L 135.970379 62.849091 
L 136.716036 53.564562 
L 139.325835 53.564562 
L 139.698664 59.253423 
L 140.071492 59.096735 
L 140.444321 58.703946 
L 141.562806 59.536036 
L 141.935635 59.206476 
L 142.308463 58.683723 
L 142.681292 57.419977 
L 144.172606 36.530813 
L 145.66392 14.034521 
L 146.036748 14.035361 
L 146.782405 13.090124 
L 147.155234 12.471382 
L 147.900891 13.405076 
L 148.646548 13.086356 
L 149.392205 11.732084 
L 150.137862 12.869255 
L 150.883519 12.386476 
L 151.256347 12.642679 
L 152.002004 12.536286 
L 152.374833 12.62181 
L 153.12049 13.634356 
L 153.493318 12.826876 
L 153.866147 12.428141 
L 154.611804 12.375249 
L 155.357461 11.849103 
L 156.103118 10.854638 
L 156.475947 10.974074 
L 156.848775 10.938795 
L 157.594432 10.554567 
L 158.340089 10.775591 
L 159.085746 9.675283 
L 160.204232 9.395836 
L 160.949889 9.669428 
L 161.695546 10.402115 
L 162.441203 10.391581 
L 162.814031 10.463425 
L 163.18686 10.398118 
L 163.559688 10.955275 
L 164.305345 10.6818 
L 165.796659 10.931038 
L 166.915145 10.501994 
L 167.660802 9.519215 
L 168.03363 10.105454 
L 168.406459 10.076753 
L 168.779287 9.904947 
L 169.152116 9.881831 
L 169.524944 9.360099 
L 169.897773 9.370645 
L 170.270601 9.534174 
L 170.64343 9.5632 
L 171.389087 10.188778 
L 171.761915 10.265609 
L 172.134744 10.494275 
L 172.880401 10.640486 
L 173.626058 11.114418 
L 173.998886 10.529401 
L 174.371715 10.590949 
L 175.117372 11.49885 
L 175.863029 12.050727 
L 176.235857 11.853653 
L 176.608686 11.796738 
L 177.354343 11.077972 
L 177.727171 10.972538 
L 177.727171 10.972538 
" style="fill: none; stroke: #20978b; stroke-width: 2; stroke-linecap: square"/>
   </g>
   <g id="patch_3">
    <path d="M 10.7 101.448 
L 10.7 7.2 
" style="fill: none; stroke: #000000; stroke-width: 2; stroke-linejoin: miter; stroke-linecap: square"/>
   </g>
   <g id="patch_4">
    <path d="M 10.7 101.448 
L 178.1 101.448 
" style="fill: none; stroke: #000000; stroke-width: 2; stroke-linejoin: miter; stroke-linecap: square"/>
   </g>
  </g>
 </g>
</svg>
