<?xml version="1.0" encoding="utf-8" standalone="no"?>
<!DOCTYPE svg PUBLIC "-//W3C//DTD SVG 1.1//EN"
  "http://www.w3.org/Graphics/SVG/1.1/DTD/svg11.dtd">
<svg xmlns:xlink="http://www.w3.org/1999/xlink" width="568.8825pt" height="352.739531pt" viewBox="0 0 568.8825 352.739531" xmlns="http://www.w3.org/2000/svg" version="1.1">
 <metadata>
  <rdf:RDF xmlns:dc="http://purl.org/dc/elements/1.1/" xmlns:cc="http://creativecommons.org/ns#" xmlns:rdf="http://www.w3.org/1999/02/22-rdf-syntax-ns#">
   <cc:Work>
    <dc:type rdf:resource="http://purl.org/dc/dcmitype/StillImage"/>
    <dc:date>2025-05-14T13:15:40.171604</dc:date>
    <dc:format>image/svg+xml</dc:format>
    <dc:creator>
     <cc:Agent>
      <dc:title>Matplotlib v3.8.4, https://matplotlib.org/</dc:title>
     </cc:Agent>
    </dc:creator>
   </cc:Work>
  </rdf:RDF>
 </metadata>
 <defs>
  <style type="text/css">*{stroke-linejoin: round; stroke-linecap: butt}</style>
 </defs>
 <g id="figure_1">
  <g id="patch_1">
   <path d="M 0 352.739531 
L 568.8825 352.739531 
L 568.8825 0 
L 0 0 
L 0 352.739531 
z
" style="fill: none"/>
  </g>
  <g id="axes_1">
   <g id="patch_2">
    <path d="M 55.7225 304.36 
L 561.6825 304.36 
L 561.6825 7.2 
L 55.7225 7.2 
L 55.7225 304.36 
z
" style="fill: none"/>
   </g>
   <g id="PolyCollection_1">
    <defs>
     <path id="m82c188fbee" d="M 78.720682 -165.681404 
L 78.720682 -103.444095 
L 79.457803 -95.634189 
L 80.194924 -98.148753 
L 80.932045 -96.900329 
L 81.669167 -96.02147 
L 82.406288 -98.458867 
L 83.143409 -100.820718 
L 83.88053 -105.424126 
L 84.617652 -102.864288 
L 85.354773 -102.103416 
L 86.091894 -102.767637 
L 86.829015 -104.88068 
L 87.566136 -103.847329 
L 88.303258 -103.834928 
L 89.040379 -103.306242 
L 89.7775 -102.23345 
L 90.514621 -101.705986 
L 91.251742 -103.232382 
L 91.988864 -102.284575 
L 92.725985 -103.912605 
L 93.463106 -106.913044 
L 94.200227 -106.481537 
L 94.937348 -103.876609 
L 95.67447 -102.145906 
L 96.411591 -102.729581 
L 97.148712 -103.777012 
L 97.885833 -105.596548 
L 98.622955 -105.232949 
L 99.360076 -105.155461 
L 100.097197 -105.216487 
L 100.834318 -102.779703 
L 101.571439 -103.160803 
L 102.308561 -102.320986 
L 103.045682 -104.090832 
L 103.782803 -103.775315 
L 104.519924 -100.998166 
L 105.257045 -99.759144 
L 105.994167 -101.13838 
L 106.731288 -102.034768 
L 107.468409 -99.423743 
L 108.20553 -100.565854 
L 108.942652 -99.040699 
L 109.679773 -99.539149 
L 110.416894 -104.436254 
L 111.154015 -104.863298 
L 111.891136 -115.320023 
L 112.628258 -124.800937 
L 113.365379 -132.983434 
L 114.1025 -134.039661 
L 114.839621 -135.777188 
L 115.576742 -137.902344 
L 116.313864 -139.027431 
L 117.050985 -138.712779 
L 117.788106 -141.242362 
L 118.525227 -139.157967 
L 119.262348 -143.580527 
L 119.99947 -144.976375 
L 120.736591 -145.193286 
L 121.473712 -143.566272 
L 122.210833 -139.939119 
L 122.947955 -139.479141 
L 123.685076 -131.537907 
L 124.422197 -122.292666 
L 125.159318 -116.291287 
L 125.896439 -118.138492 
L 126.633561 -117.355221 
L 127.370682 -119.024008 
L 128.107803 -114.520372 
L 128.844924 -115.282514 
L 129.582045 -111.394787 
L 130.319167 -113.569947 
L 131.056288 -116.783434 
L 131.793409 -113.92475 
L 132.53053 -113.903612 
L 133.267652 -113.555659 
L 134.004773 -116.670847 
L 134.741894 -117.23433 
L 135.479015 -120.60067 
L 136.216136 -121.187607 
L 136.953258 -120.078008 
L 137.690379 -117.164184 
L 138.4275 -114.622725 
L 139.164621 -111.927873 
L 139.901742 -114.479579 
L 140.638864 -112.278949 
L 141.375985 -121.201853 
L 142.113106 -126.536657 
L 142.850227 -119.745162 
L 143.587348 -120.661001 
L 144.32447 -121.129903 
L 145.061591 -123.157505 
L 145.798712 -118.133434 
L 146.535833 -121.491776 
L 147.272955 -114.749009 
L 148.010076 -113.792239 
L 148.747197 -115.290177 
L 149.484318 -117.029818 
L 150.221439 -121.266117 
L 150.958561 -127.687891 
L 151.695682 -129.354983 
L 152.432803 -129.723968 
L 153.169924 -126.920207 
L 153.907045 -130.587651 
L 154.644167 -128.62502 
L 155.381288 -129.385117 
L 156.118409 -132.102875 
L 156.85553 -129.206645 
L 157.592652 -129.935502 
L 158.329773 -125.050956 
L 159.066894 -126.960315 
L 159.804015 -126.772804 
L 160.541136 -124.810914 
L 161.278258 -128.47835 
L 162.015379 -129.295051 
L 162.7525 -130.205094 
L 163.489621 -135.535286 
L 164.226742 -141.207372 
L 164.963864 -143.925791 
L 165.700985 -136.208307 
L 166.438106 -137.544919 
L 167.175227 -135.962573 
L 167.912348 -133.17482 
L 168.64947 -136.963042 
L 169.386591 -141.196328 
L 170.123712 -143.815034 
L 170.860833 -148.592295 
L 171.597955 -153.639811 
L 172.335076 -151.136676 
L 173.072197 -145.563557 
L 173.809318 -142.821731 
L 174.546439 -134.729016 
L 175.283561 -128.607961 
L 176.020682 -123.940296 
L 176.757803 -115.712747 
L 177.494924 -112.908142 
L 178.232045 -112.641978 
L 178.969167 -120.895383 
L 179.706288 -121.963805 
L 180.443409 -122.550985 
L 181.18053 -122.784862 
L 181.917652 -122.252267 
L 182.654773 -125.361592 
L 183.391894 -128.007111 
L 184.129015 -139.073561 
L 184.866136 -144.157703 
L 185.603258 -149.562676 
L 186.340379 -160.562728 
L 187.0775 -164.246021 
L 187.814621 -166.173895 
L 188.551742 -175.844133 
L 189.288864 -180.050019 
L 190.025985 -188.489559 
L 190.763106 -189.55161 
L 191.500227 -193.73915 
L 192.237348 -193.208581 
L 192.97447 -190.15807 
L 193.711591 -197.474128 
L 194.448712 -187.585867 
L 195.185833 -186.417056 
L 195.922955 -178.401818 
L 196.660076 -174.58438 
L 197.397197 -175.627637 
L 198.134318 -162.435874 
L 198.871439 -157.6357 
L 199.608561 -154.418787 
L 200.345682 -144.276435 
L 201.082803 -141.298968 
L 201.819924 -132.947468 
L 202.557045 -123.656825 
L 203.294167 -122.640804 
L 204.031288 -120.650401 
L 204.768409 -122.209791 
L 205.50553 -116.844391 
L 206.242652 -125.491415 
L 206.979773 -117.580712 
L 207.716894 -117.374534 
L 208.454015 -124.954162 
L 209.191136 -127.534479 
L 209.928258 -136.303706 
L 210.665379 -142.595784 
L 211.4025 -143.648099 
L 212.139621 -156.476202 
L 212.876742 -158.84579 
L 213.613864 -169.703021 
L 214.350985 -172.70163 
L 215.088106 -175.643494 
L 215.825227 -186.201141 
L 216.562348 -193.592138 
L 217.29947 -190.049307 
L 218.036591 -190.209407 
L 218.773712 -197.073486 
L 219.510833 -209.062963 
L 220.247955 -198.85949 
L 220.985076 -195.616166 
L 221.722197 -199.190263 
L 222.459318 -192.20838 
L 223.196439 -190.733174 
L 223.933561 -185.115022 
L 224.670682 -181.780336 
L 225.407803 -173.687074 
L 226.144924 -179.096283 
L 226.882045 -171.64275 
L 227.619167 -162.835879 
L 228.356288 -153.372605 
L 229.093409 -155.946897 
L 229.83053 -154.055293 
L 230.567652 -162.621473 
L 231.304773 -148.548583 
L 232.041894 -161.624602 
L 232.779015 -163.74157 
L 233.516136 -162.714472 
L 234.253258 -176.208663 
L 234.990379 -190.54385 
L 235.7275 -191.513176 
L 236.464621 -205.990375 
L 237.201742 -216.274121 
L 237.938864 -220.949597 
L 238.675985 -233.748022 
L 239.413106 -231.507891 
L 240.150227 -233.921852 
L 240.887348 -230.845523 
L 241.62447 -224.929332 
L 242.361591 -223.604173 
L 243.098712 -233.236577 
L 243.835833 -227.653049 
L 244.572955 -216.32086 
L 245.310076 -209.467827 
L 246.047197 -195.233512 
L 246.784318 -183.779534 
L 247.521439 -177.474595 
L 248.258561 -163.610204 
L 248.995682 -153.093541 
L 249.732803 -141.23515 
L 250.469924 -129.519129 
L 251.207045 -130.848814 
L 251.944167 -130.477151 
L 252.681288 -132.854282 
L 253.418409 -140.923803 
L 254.15553 -131.309937 
L 254.892652 -132.741277 
L 255.629773 -123.591954 
L 256.366894 -122.781155 
L 257.104015 -122.505371 
L 257.841136 -133.187656 
L 258.578258 -128.225464 
L 259.315379 -128.356981 
L 260.0525 -132.427192 
L 260.789621 -131.493936 
L 261.526742 -128.906465 
L 262.263864 -128.358903 
L 263.000985 -128.066318 
L 263.738106 -127.80514 
L 264.475227 -127.215626 
L 265.212348 -125.755293 
L 265.94947 -129.126738 
L 266.686591 -131.097172 
L 267.423712 -144.119758 
L 268.160833 -149.93141 
L 268.897955 -146.422714 
L 269.635076 -143.78984 
L 270.372197 -157.919083 
L 271.109318 -154.164875 
L 271.846439 -154.301902 
L 272.583561 -158.614951 
L 273.320682 -161.659343 
L 274.057803 -161.787673 
L 274.794924 -166.931512 
L 275.532045 -162.272083 
L 276.269167 -164.846602 
L 277.006288 -163.363085 
L 277.743409 -169.361891 
L 278.48053 -157.748144 
L 279.217652 -159.99611 
L 279.954773 -162.855154 
L 280.691894 -171.372757 
L 281.429015 -174.713028 
L 282.166136 -172.095179 
L 282.903258 -170.90924 
L 283.640379 -172.889856 
L 284.3775 -169.78689 
L 285.114621 -174.844786 
L 285.851742 -183.322733 
L 286.588864 -176.794876 
L 287.325985 -177.294736 
L 288.063106 -172.479266 
L 288.800227 -173.738883 
L 289.537348 -161.017296 
L 290.27447 -166.847823 
L 291.011591 -154.374603 
L 291.748712 -148.448219 
L 292.485833 -143.357297 
L 293.222955 -135.585588 
L 293.960076 -124.370247 
L 294.697197 -134.559342 
L 295.434318 -138.439566 
L 296.171439 -147.463493 
L 296.908561 -149.29338 
L 297.645682 -140.800693 
L 298.382803 -140.145676 
L 299.119924 -141.69037 
L 299.857045 -140.544321 
L 300.594167 -137.985883 
L 301.331288 -138.456809 
L 302.068409 -133.169202 
L 302.80553 -135.389303 
L 303.542652 -136.115227 
L 304.279773 -137.111614 
L 305.016894 -139.39813 
L 305.754015 -139.923421 
L 306.491136 -131.659817 
L 307.228258 -122.951962 
L 307.965379 -113.467014 
L 308.7025 -106.572844 
L 309.439621 -116.716422 
L 310.176742 -116.210434 
L 310.913864 -117.73567 
L 311.650985 -122.816214 
L 312.388106 -125.77288 
L 313.125227 -132.694267 
L 313.862348 -134.26831 
L 314.59947 -138.637102 
L 315.336591 -137.303308 
L 316.073712 -138.844604 
L 316.810833 -147.229622 
L 317.547955 -146.216435 
L 318.285076 -153.673167 
L 319.022197 -165.203162 
L 319.759318 -168.923795 
L 320.496439 -166.189036 
L 321.233561 -157.405641 
L 321.970682 -163.895333 
L 322.707803 -174.705042 
L 323.444924 -181.705115 
L 324.182045 -175.09179 
L 324.919167 -168.615147 
L 325.656288 -171.036625 
L 326.393409 -165.904414 
L 327.13053 -172.718945 
L 327.867652 -176.695866 
L 328.604773 -170.85306 
L 329.341894 -184.292226 
L 330.079015 -189.968073 
L 330.816136 -190.478138 
L 331.553258 -198.439232 
L 332.290379 -212.417311 
L 333.0275 -222.507461 
L 333.764621 -230.628553 
L 334.501742 -222.660435 
L 335.238864 -224.374649 
L 335.975985 -236.370909 
L 336.713106 -249.959682 
L 337.450227 -259.694085 
L 338.187348 -269.677388 
L 338.92447 -277.142331 
L 339.661591 -283.071349 
L 340.398712 -290.650157 
L 341.135833 -294.065828 
L 341.872955 -295.49917 
L 342.610076 -295.796389 
L 343.347197 -290.618955 
L 344.084318 -284.563004 
L 344.821439 -278.263981 
L 345.558561 -276.930094 
L 346.295682 -286.983179 
L 347.032803 -289.006465 
L 347.769924 -291.33187 
L 348.507045 -289.099523 
L 349.244167 -287.990681 
L 349.981288 -290.591744 
L 350.718409 -290.864026 
L 351.45553 -291.074392 
L 352.192652 -277.362887 
L 352.929773 -277.355857 
L 353.666894 -276.912732 
L 354.404015 -270.455608 
L 355.141136 -275.586992 
L 355.878258 -282.487938 
L 356.615379 -291.432215 
L 357.3525 -291.90269 
L 358.089621 -278.441916 
L 358.826742 -277.789799 
L 359.563864 -272.017442 
L 360.300985 -274.463161 
L 361.038106 -274.379247 
L 361.775227 -274.602255 
L 362.512348 -273.579863 
L 363.24947 -273.878996 
L 363.986591 -287.776748 
L 364.723712 -283.848529 
L 365.460833 -279.255118 
L 366.197955 -285.96205 
L 366.935076 -285.996126 
L 367.672197 -285.710433 
L 368.409318 -286.086913 
L 369.146439 -286.984135 
L 369.883561 -300.671296 
L 370.620682 -301.045215 
L 371.357803 -303.728914 
L 372.094924 -300.516065 
L 372.832045 -287.685091 
L 373.569167 -276.415004 
L 374.306288 -273.355458 
L 375.043409 -262.577885 
L 375.78053 -256.333372 
L 376.517652 -260.115972 
L 377.254773 -265.367119 
L 377.991894 -261.093503 
L 378.729015 -260.118362 
L 379.466136 -259.876786 
L 380.203258 -256.00124 
L 380.940379 -255.775209 
L 381.6775 -255.800407 
L 382.414621 -251.664076 
L 383.151742 -253.833681 
L 383.888864 -250.733448 
L 384.625985 -263.972891 
L 385.363106 -273.202429 
L 386.100227 -271.824672 
L 386.837348 -282.58906 
L 387.57447 -289.014337 
L 388.311591 -288.641602 
L 389.048712 -286.792508 
L 389.785833 -291.61406 
L 390.522955 -292.694885 
L 391.260076 -287.339128 
L 391.997197 -286.807238 
L 392.734318 -269.99413 
L 393.471439 -267.787366 
L 394.208561 -271.093402 
L 394.945682 -272.086887 
L 395.682803 -278.382233 
L 396.419924 -278.674822 
L 397.157045 -279.978079 
L 397.894167 -280.685507 
L 398.631288 -280.625844 
L 399.368409 -269.106262 
L 400.10553 -253.902836 
L 400.842652 -256.048647 
L 401.579773 -251.285834 
L 402.316894 -250.937835 
L 403.054015 -245.297972 
L 403.791136 -245.282217 
L 404.528258 -261.701452 
L 405.265379 -249.744459 
L 406.0025 -246.138467 
L 406.739621 -245.906058 
L 407.476742 -239.436835 
L 408.213864 -239.19421 
L 408.950985 -239.232691 
L 409.688106 -228.477157 
L 410.425227 -228.44965 
L 411.162348 -238.875389 
L 411.89947 -254.06816 
L 412.636591 -253.738702 
L 413.373712 -241.522422 
L 414.110833 -234.459729 
L 414.847955 -229.133318 
L 415.585076 -224.33934 
L 416.322197 -224.0777 
L 417.059318 -238.214953 
L 417.796439 -242.465773 
L 418.533561 -238.560104 
L 419.270682 -243.242761 
L 420.007803 -241.779008 
L 420.744924 -241.796761 
L 421.482045 -253.688156 
L 422.219167 -253.849383 
L 422.956288 -252.01556 
L 423.693409 -243.248463 
L 424.43053 -226.239147 
L 425.167652 -233.011081 
L 425.904773 -239.355362 
L 426.641894 -253.662333 
L 427.379015 -262.505978 
L 428.116136 -263.085375 
L 428.853258 -255.842694 
L 429.590379 -248.468744 
L 430.3275 -251.94328 
L 431.064621 -245.283192 
L 431.801742 -246.757277 
L 432.538864 -231.003236 
L 433.275985 -218.214786 
L 434.013106 -201.46844 
L 434.750227 -203.892412 
L 435.487348 -212.69026 
L 436.22447 -229.750491 
L 436.961591 -236.775142 
L 437.698712 -236.088133 
L 438.435833 -239.052614 
L 439.172955 -236.223965 
L 439.910076 -236.498438 
L 440.647197 -228.888793 
L 441.384318 -235.490375 
L 442.121439 -235.889446 
L 442.858561 -244.571968 
L 443.595682 -240.324725 
L 444.332803 -256.758864 
L 445.069924 -272.800372 
L 445.807045 -280.886607 
L 446.544167 -280.754227 
L 447.281288 -269.33281 
L 448.018409 -269.098606 
L 448.75553 -267.268339 
L 449.492652 -268.40186 
L 450.229773 -268.526861 
L 450.966894 -255.07603 
L 451.704015 -254.120108 
L 452.441136 -259.153296 
L 453.178258 -260.136266 
L 453.915379 -259.765896 
L 454.6525 -255.793538 
L 455.389621 -260.006206 
L 456.126742 -259.980626 
L 456.863864 -252.842682 
L 457.600985 -261.255396 
L 458.338106 -252.119451 
L 459.075227 -261.074318 
L 459.812348 -253.083337 
L 460.54947 -253.30939 
L 461.286591 -253.523441 
L 462.023712 -249.002535 
L 462.760833 -265.302645 
L 463.497955 -256.771447 
L 464.235076 -266.399251 
L 464.972197 -252.909014 
L 465.709318 -238.937352 
L 466.446439 -239.376103 
L 467.183561 -235.27228 
L 467.920682 -235.080442 
L 468.657803 -242.247768 
L 469.394924 -236.340627 
L 470.132045 -244.606909 
L 470.869167 -246.309067 
L 471.606288 -248.949765 
L 472.343409 -244.801946 
L 473.08053 -244.664955 
L 473.817652 -248.218773 
L 474.554773 -248.21619 
L 475.291894 -257.80615 
L 476.029015 -257.729768 
L 476.766136 -269.932138 
L 477.503258 -284.357738 
L 478.240379 -288.212944 
L 478.9775 -292.374155 
L 479.714621 -291.506916 
L 480.451742 -288.057355 
L 481.188864 -293.744043 
L 481.925985 -289.806187 
L 482.663106 -290.314453 
L 483.400227 -296.006434 
L 484.137348 -304.816258 
L 484.87447 -295.038879 
L 485.611591 -288.563602 
L 486.348712 -288.902033 
L 487.085833 -288.958741 
L 487.822955 -273.123379 
L 488.560076 -274.478214 
L 489.297197 -258.742185 
L 490.034318 -242.949322 
L 490.771439 -243.109232 
L 491.508561 -244.015831 
L 492.245682 -239.712318 
L 492.982803 -237.939623 
L 493.719924 -225.93041 
L 494.457045 -225.897312 
L 495.194167 -226.285353 
L 495.931288 -227.075061 
L 496.668409 -235.62685 
L 497.40553 -230.325216 
L 498.142652 -230.06957 
L 498.879773 -226.938526 
L 499.616894 -242.698425 
L 500.354015 -241.720541 
L 501.091136 -257.20432 
L 501.828258 -270.998106 
L 502.565379 -254.933182 
L 503.3025 -254.301991 
L 504.039621 -262.225008 
L 504.776742 -264.76533 
L 505.513864 -281.114096 
L 506.250985 -270.868542 
L 506.988106 -270.287977 
L 507.725227 -269.813232 
L 508.462348 -259.456443 
L 509.19947 -259.101634 
L 509.936591 -259.385582 
L 510.673712 -262.495417 
L 511.410833 -260.606308 
L 512.147955 -262.148273 
L 512.885076 -262.476007 
L 513.622197 -257.538661 
L 514.359318 -273.54264 
L 515.096439 -261.536428 
L 515.833561 -261.652441 
L 516.570682 -261.778988 
L 517.307803 -262.018221 
L 518.044924 -271.832208 
L 518.782045 -271.486511 
L 519.519167 -271.019684 
L 520.256288 -282.686728 
L 520.993409 -295.458231 
L 521.73053 -288.370937 
L 522.467652 -287.125207 
L 523.204773 -289.095141 
L 523.941894 -289.418644 
L 524.679015 -287.941731 
L 525.416136 -287.585655 
L 526.153258 -282.950913 
L 526.890379 -288.996057 
L 527.6275 -284.716222 
L 528.364621 -284.604943 
L 529.101742 -276.521051 
L 529.838864 -274.94435 
L 530.575985 -273.831765 
L 531.313106 -274.081193 
L 532.050227 -274.13032 
L 532.787348 -274.657145 
L 533.52447 -280.106319 
L 534.261591 -266.764567 
L 534.998712 -256.678015 
L 535.735833 -247.072002 
L 536.472955 -248.588673 
L 537.210076 -255.831992 
L 537.947197 -260.350532 
L 538.684318 -264.191884 
L 538.684318 -304.26669 
L 538.684318 -304.26669 
L 537.947197 -303.524656 
L 537.210076 -301.196754 
L 536.472955 -296.877016 
L 535.735833 -296.127945 
L 534.998712 -302.509884 
L 534.261591 -309.133858 
L 533.52447 -320.30276 
L 532.787348 -317.254347 
L 532.050227 -317.030145 
L 531.313106 -317.009577 
L 530.575985 -316.898458 
L 529.838864 -317.425161 
L 529.101742 -318.122689 
L 528.364621 -322.667625 
L 527.6275 -322.708758 
L 526.890379 -324.563179 
L 526.153258 -318.99142 
L 525.416136 -320.95613 
L 524.679015 -321.198086 
L 523.941894 -321.692014 
L 523.204773 -321.594218 
L 522.467652 -320.916098 
L 521.73053 -321.329446 
L 520.993409 -324.337286 
L 520.256288 -315.82695 
L 519.519167 -308.491735 
L 518.782045 -308.670725 
L 518.044924 -308.804872 
L 517.307803 -302.844221 
L 516.570682 -302.747268 
L 515.833561 -302.696393 
L 515.096439 -302.649774 
L 514.359318 -311.463102 
L 513.622197 -297.173171 
L 512.885076 -299.992342 
L 512.147955 -299.869464 
L 511.410833 -299.240446 
L 510.673712 -300.003156 
L 509.936591 -298.669885 
L 509.19947 -298.55961 
L 508.462348 -298.995199 
L 507.725227 -306.027294 
L 506.988106 -306.194435 
L 506.250985 -306.400873 
L 505.513864 -312.065916 
L 504.776742 -297.246476 
L 504.039621 -296.33235 
L 503.3025 -292.227418 
L 502.565379 -292.467992 
L 501.828258 -306.711299 
L 501.091136 -293.65104 
L 500.354015 -279.954033 
L 499.616894 -280.360562 
L 498.879773 -266.725887 
L 498.142652 -268.083016 
L 497.40553 -268.17837 
L 496.668409 -273.083733 
L 495.931288 -267.73041 
L 495.194167 -267.405387 
L 494.457045 -267.244843 
L 493.719924 -267.258214 
L 492.982803 -280.195435 
L 492.245682 -281.020343 
L 491.508561 -283.767811 
L 490.771439 -283.39513 
L 490.034318 -283.331 
L 489.297197 -297.288991 
L 488.560076 -311.088563 
L 487.822955 -310.529833 
L 487.085833 -324.093861 
L 486.348712 -324.074965 
L 485.611591 -323.958972 
L 484.87447 -327.163901 
L 484.137348 -332.228597 
L 483.400227 -327.826706 
L 482.663106 -325.271969 
L 481.925985 -325.098256 
L 481.188864 -326.778587 
L 480.451742 -324.088889 
L 479.714621 -325.479454 
L 478.9775 -325.773125 
L 478.240379 -324.030705 
L 477.503258 -322.355022 
L 476.766136 -310.706219 
L 476.029015 -300.184573 
L 475.291894 -300.216248 
L 474.554773 -294.075816 
L 473.817652 -294.076999 
L 473.08053 -292.117247 
L 472.343409 -292.182013 
L 471.606288 -295.266051 
L 470.869167 -293.249589 
L 470.132045 -292.3913 
L 469.394924 -286.832778 
L 468.657803 -290.295681 
L 467.920682 -285.834355 
L 467.183561 -285.928309 
L 466.446439 -288.188324 
L 465.709318 -287.915751 
L 464.972197 -299.712791 
L 464.235076 -310.983321 
L 463.497955 -304.678003 
L 462.760833 -310.452487 
L 462.023712 -294.954404 
L 461.286591 -297.305338 
L 460.54947 -297.210501 
L 459.812348 -297.070458 
L 459.075227 -301.927918 
L 458.338106 -295.397778 
L 457.600985 -300.967008 
L 456.863864 -296.049965 
L 456.126742 -300.143916 
L 455.389621 -300.153951 
L 454.6525 -298.129934 
L 453.915379 -300.088546 
L 453.178258 -300.237129 
L 452.441136 -299.806328 
L 451.704015 -293.689546 
L 450.966894 -294.073039 
L 450.229773 -308.198379 
L 449.492652 -308.149903 
L 448.75553 -307.662001 
L 448.018409 -308.671247 
L 447.281288 -308.764904 
L 446.544167 -316.072686 
L 445.807045 -316.117254 
L 445.069924 -304.918607 
L 444.332803 -290.391844 
L 443.595682 -275.771892 
L 442.858561 -277.508391 
L 442.121439 -272.779545 
L 441.384318 -272.633403 
L 440.647197 -268.711962 
L 439.910076 -276.935702 
L 439.172955 -276.825251 
L 438.435833 -278.114895 
L 437.698712 -276.79327 
L 436.961591 -277.09758 
L 436.22447 -272.099934 
L 435.487348 -255.090084 
L 434.750227 -249.667239 
L 434.013106 -248.474089 
L 433.275985 -264.354445 
L 432.538864 -277.522169 
L 431.801742 -292.160627 
L 431.064621 -291.458777 
L 430.3275 -295.875408 
L 429.590379 -294.079939 
L 428.853258 -298.623068 
L 428.116136 -302.601366 
L 427.379015 -302.364662 
L 426.641894 -296.893229 
L 425.904773 -281.331115 
L 425.167652 -277.574636 
L 424.43053 -268.114385 
L 423.693409 -285.102368 
L 422.956288 -290.276539 
L 422.219167 -291.053113 
L 421.482045 -290.994702 
L 420.744924 -279.475274 
L 420.007803 -279.468501 
L 419.270682 -280.04555 
L 418.533561 -277.47696 
L 417.796439 -279.223293 
L 417.059318 -277.183952 
L 416.322197 -266.149945 
L 415.585076 -266.264342 
L 414.847955 -269.710193 
L 414.110833 -278.255402 
L 413.373712 -282.281068 
L 412.636591 -295.951586 
L 411.89947 -296.089518 
L 411.162348 -282.957148 
L 410.425227 -275.531969 
L 409.688106 -275.544661 
L 408.950985 -286.432459 
L 408.213864 -286.414204 
L 407.476742 -286.526141 
L 406.739621 -290.217793 
L 406.0025 -290.318743 
L 405.265379 -292.266509 
L 404.528258 -302.391833 
L 403.791136 -286.256374 
L 403.054015 -286.265517 
L 402.316894 -291.26059 
L 401.579773 -291.398686 
L 400.842652 -293.623744 
L 400.10553 -292.743491 
L 399.368409 -305.679282 
L 398.631288 -312.820734 
L 397.894167 -312.838501 
L 397.157045 -312.465224 
L 396.419924 -312.011863 
L 395.682803 -311.919301 
L 394.945682 -309.012226 
L 394.208561 -308.639836 
L 393.471439 -307.031449 
L 392.734318 -307.941869 
L 391.997197 -324.210882 
L 391.260076 -324.495296 
L 390.522955 -327.195607 
L 389.785833 -326.820147 
L 389.048712 -324.686215 
L 388.311591 -325.437477 
L 387.57447 -325.570705 
L 386.837348 -322.329174 
L 386.100227 -315.224137 
L 385.363106 -316.059924 
L 384.625985 -309.386479 
L 383.888864 -298.831884 
L 383.151742 -300.775863 
L 382.414621 -299.626659 
L 381.6775 -301.865436 
L 380.940379 -301.854164 
L 380.203258 -301.95655 
L 379.466136 -303.930064 
L 378.729015 -304.042687 
L 377.991894 -304.474514 
L 377.254773 -306.63921 
L 376.517652 -303.85489 
L 375.78053 -301.951999 
L 375.043409 -305.429216 
L 374.306288 -312.503882 
L 373.569167 -313.934092 
L 372.832045 -320.931383 
L 372.094924 -330.5127 
L 371.357803 -331.480542 
L 370.620682 -330.290989 
L 369.883561 -330.190594 
L 369.146439 -320.912305 
L 368.409318 -320.607989 
L 367.672197 -320.48235 
L 366.935076 -320.584698 
L 366.197955 -320.573547 
L 365.460833 -317.210526 
L 364.723712 -319.479542 
L 363.986591 -321.060253 
L 363.24947 -310.870186 
L 362.512348 -310.760803 
L 361.775227 -311.1415 
L 361.038106 -311.061384 
L 360.300985 -311.094638 
L 359.563864 -310.107828 
L 358.826742 -312.801788 
L 358.089621 -313.023422 
L 357.3525 -322.301227 
L 356.615379 -322.153818 
L 355.878258 -317.460374 
L 355.141136 -313.817069 
L 354.404015 -311.32664 
L 353.666894 -314.773403 
L 352.929773 -314.950255 
L 352.192652 -314.952829 
L 351.45553 -325.12585 
L 350.718409 -325.054741 
L 349.981288 -324.965649 
L 349.244167 -323.941425 
L 348.507045 -324.343149 
L 347.769924 -325.180577 
L 347.032803 -324.321983 
L 346.295682 -323.555114 
L 345.558561 -317.391422 
L 344.821439 -317.943438 
L 344.084318 -321.949883 
L 343.347197 -325.229905 
L 342.610076 -327.397545 
L 341.872955 -327.305599 
L 341.135833 -326.804238 
L 340.398712 -325.496988 
L 339.661591 -321.532686 
L 338.92447 -318.383199 
L 338.187348 -314.034845 
L 337.450227 -305.813772 
L 336.713106 -299.246522 
L 335.975985 -288.031806 
L 335.238864 -277.333683 
L 334.501742 -276.309065 
L 333.764621 -282.163807 
L 333.0275 -276.798555 
L 332.290379 -268.195556 
L 331.553258 -255.101431 
L 330.816136 -249.58502 
L 330.079015 -249.293316 
L 329.341894 -245.193433 
L 328.604773 -231.339589 
L 327.867652 -235.409124 
L 327.13053 -231.929651 
L 326.393409 -224.729836 
L 325.656288 -229.796721 
L 324.919167 -227.260224 
L 324.182045 -233.957435 
L 323.444924 -240.930167 
L 322.707803 -235.139333 
L 321.970682 -225.946664 
L 321.233561 -218.859071 
L 320.496439 -226.726085 
L 319.759318 -230.349298 
L 319.022197 -226.633855 
L 318.285076 -216.837188 
L 317.547955 -208.623723 
L 316.810833 -210.181812 
L 316.073712 -203.700937 
L 315.336591 -202.093128 
L 314.59947 -203.75592 
L 313.862348 -199.54315 
L 313.125227 -197.675162 
L 312.388106 -190.430341 
L 311.650985 -187.683213 
L 310.913864 -181.483696 
L 310.176742 -179.595645 
L 309.439621 -180.267102 
L 308.7025 -170.685851 
L 307.965379 -177.283939 
L 307.228258 -185.350344 
L 306.491136 -193.321595 
L 305.754015 -202.218388 
L 305.016894 -201.424486 
L 304.279773 -199.017191 
L 303.542652 -197.882646 
L 302.80553 -196.987362 
L 302.068409 -194.326188 
L 301.331288 -199.939538 
L 300.594167 -199.304396 
L 299.857045 -201.700644 
L 299.119924 -203.32681 
L 298.382803 -201.156963 
L 297.645682 -201.997583 
L 296.908561 -210.381119 
L 296.171439 -208.902058 
L 295.434318 -201.368549 
L 294.697197 -198.321144 
L 293.960076 -186.478928 
L 293.222955 -198.349989 
L 292.485833 -205.312308 
L 291.748712 -210.400756 
L 291.011591 -216.562812 
L 290.27447 -227.595733 
L 289.537348 -221.271074 
L 288.800227 -232.957014 
L 288.063106 -231.829795 
L 287.325985 -237.351421 
L 286.588864 -236.579621 
L 285.851742 -243.168163 
L 285.114621 -234.806534 
L 284.3775 -229.708463 
L 283.640379 -232.770152 
L 282.903258 -230.932343 
L 282.166136 -232.846686 
L 281.429015 -234.598501 
L 280.691894 -232.026931 
L 279.954773 -222.285349 
L 279.217652 -219.618574 
L 278.48053 -218.205345 
L 277.743409 -228.855769 
L 277.006288 -224.498493 
L 276.269167 -225.821223 
L 275.532045 -223.112088 
L 274.794924 -229.180959 
L 274.057803 -224.237372 
L 273.320682 -224.070486 
L 272.583561 -220.007889 
L 271.846439 -215.567324 
L 271.109318 -215.431172 
L 270.372197 -220.349428 
L 269.635076 -206.226175 
L 268.897955 -208.309791 
L 268.160833 -213.00727 
L 267.423712 -205.660014 
L 266.686591 -191.988106 
L 265.94947 -190.667239 
L 265.212348 -187.410753 
L 264.475227 -188.60262 
L 263.738106 -189.26484 
L 263.000985 -189.547696 
L 262.263864 -189.875548 
L 261.526742 -190.579009 
L 260.789621 -194.08605 
L 260.0525 -195.155757 
L 259.315379 -190.481469 
L 258.578258 -190.331333 
L 257.841136 -196.821261 
L 257.104015 -185.68813 
L 256.366894 -186.007721 
L 255.629773 -187.229837 
L 254.892652 -197.895745 
L 254.15553 -196.817126 
L 253.418409 -204.676158 
L 252.681288 -196.455271 
L 251.944167 -193.622079 
L 251.207045 -194.015483 
L 250.469924 -192.475549 
L 249.732803 -202.788747 
L 248.995682 -212.948986 
L 248.258561 -221.448851 
L 247.521439 -233.397385 
L 246.784318 -239.296068 
L 246.047197 -247.990875 
L 245.310076 -261.383153 
L 244.572955 -267.67169 
L 243.835833 -279.180297 
L 243.098712 -282.973498 
L 242.361591 -272.464892 
L 241.62447 -273.126113 
L 240.887348 -279.684941 
L 240.150227 -283.418784 
L 239.413106 -280.573475 
L 238.675985 -283.170827 
L 237.938864 -271.761087 
L 237.201742 -268.83443 
L 236.464621 -260.799348 
L 235.7275 -248.039334 
L 234.990379 -247.285847 
L 234.253258 -234.855041 
L 233.516136 -222.434045 
L 232.779015 -223.174222 
L 232.041894 -221.621859 
L 231.304773 -209.230422 
L 230.567652 -222.614635 
L 229.83053 -216.42091 
L 229.093409 -218.006417 
L 228.356288 -215.066866 
L 227.619167 -223.80858 
L 226.882045 -230.847289 
L 226.144924 -238.706244 
L 225.407803 -233.802217 
L 224.670682 -240.662221 
L 223.933561 -244.800181 
L 223.196439 -248.651849 
L 222.459318 -250.569496 
L 221.722197 -258.337587 
L 220.985076 -255.551386 
L 220.247955 -257.850897 
L 219.510833 -268.324735 
L 218.773712 -257.834387 
L 218.036591 -249.715004 
L 217.29947 -249.588908 
L 216.562348 -253.521954 
L 215.825227 -247.191435 
L 215.088106 -238.167513 
L 214.350985 -235.51896 
L 213.613864 -231.940467 
L 212.876742 -221.702505 
L 212.139621 -218.901963 
L 211.4025 -207.444079 
L 210.665379 -206.128887 
L 209.928258 -199.365642 
L 209.191136 -188.927035 
L 208.454015 -187.108464 
L 207.716894 -180.056182 
L 206.979773 -180.314223 
L 206.242652 -189.313792 
L 205.50553 -180.105089 
L 204.768409 -184.599488 
L 204.031288 -182.834612 
L 203.294167 -185.017125 
L 202.557045 -185.985866 
L 201.819924 -195.150223 
L 201.082803 -203.587275 
L 200.345682 -207.036866 
L 199.608561 -216.751777 
L 198.871439 -220.499442 
L 198.134318 -225.899067 
L 197.397197 -239.727219 
L 196.660076 -238.903864 
L 195.922955 -242.863556 
L 195.185833 -250.607813 
L 194.448712 -251.593205 
L 193.711591 -261.76225 
L 192.97447 -255.206374 
L 192.237348 -258.48492 
L 191.500227 -259.019538 
L 190.763106 -254.589862 
L 190.025985 -253.778425 
L 189.288864 -245.23037 
L 188.551742 -240.162854 
L 187.814621 -231.039041 
L 187.0775 -228.902804 
L 186.340379 -224.929891 
L 185.603258 -214.334538 
L 184.866136 -209.147525 
L 184.129015 -203.640809 
L 183.391894 -191.662624 
L 182.654773 -189.332654 
L 181.917652 -186.778568 
L 181.18053 -187.360096 
L 180.443409 -187.130419 
L 179.706288 -186.537656 
L 178.969167 -185.194304 
L 178.232045 -176.799952 
L 177.494924 -177.148491 
L 176.757803 -180.687644 
L 176.020682 -188.757121 
L 175.283561 -193.517555 
L 174.546439 -199.664062 
L 173.809318 -208.093449 
L 173.072197 -210.935207 
L 172.335076 -216.880936 
L 171.597955 -220.386782 
L 170.860833 -214.727923 
L 170.123712 -209.741489 
L 169.386591 -206.680368 
L 168.64947 -201.868637 
L 167.912348 -197.44444 
L 167.175227 -200.752057 
L 166.438106 -202.722062 
L 165.700985 -200.906199 
L 164.963864 -207.92339 
L 164.226742 -205.690707 
L 163.489621 -199.700354 
L 162.7525 -194.489756 
L 162.015379 -193.737353 
L 161.278258 -192.941079 
L 160.541136 -189.270181 
L 159.804015 -191.625437 
L 159.066894 -191.872797 
L 158.329773 -189.385495 
L 157.592652 -194.720866 
L 156.85553 -193.739492 
L 156.118409 -197.217943 
L 155.381288 -194.004455 
L 154.644167 -193.08408 
L 153.907045 -195.693323 
L 153.169924 -192.745168 
L 152.432803 -195.051598 
L 151.695682 -194.579432 
L 150.958561 -192.549067 
L 150.221439 -185.868357 
L 149.484318 -180.986762 
L 148.747197 -178.911834 
L 148.010076 -177.137115 
L 147.272955 -178.355123 
L 146.535833 -185.89074 
L 145.798712 -182.40931 
L 145.061591 -188.267874 
L 144.32447 -185.907344 
L 143.587348 -185.288262 
L 142.850227 -184.111497 
L 142.113106 -190.919217 
L 141.375985 -185.30018 
L 140.638864 -176.381852 
L 139.901742 -179.035275 
L 139.164621 -175.384676 
L 138.4275 -178.529849 
L 137.690379 -181.623612 
L 136.953258 -184.961649 
L 136.216136 -186.288175 
L 135.479015 -185.55514 
L 134.741894 -182.212638 
L 134.004773 -181.551244 
L 133.267652 -178.157141 
L 132.53053 -178.586005 
L 131.793409 -178.614376 
L 131.056288 -182.04852 
L 130.319167 -179.177266 
L 129.582045 -176.242254 
L 128.844924 -180.736356 
L 128.107803 -179.864513 
L 127.370682 -185.826758 
L 126.633561 -183.958658 
L 125.896439 -184.806989 
L 125.159318 -182.773069 
L 124.422197 -188.541149 
L 123.685076 -197.451137 
L 122.947955 -204.407444 
L 122.210833 -204.949164 
L 121.473712 -208.838307 
L 120.736591 -210.711223 
L 119.99947 -210.419052 
L 119.262348 -208.827072 
L 118.525227 -203.811485 
L 117.788106 -206.635654 
L 117.050985 -203.8468 
L 116.313864 -204.212259 
L 115.576742 -202.891857 
L 114.839621 -200.171173 
L 114.1025 -198.222375 
L 113.365379 -196.935152 
L 112.628258 -188.457667 
L 111.891136 -179.257011 
L 111.154015 -169.29848 
L 110.416894 -168.795374 
L 109.679773 -163.296041 
L 108.942652 -162.741916 
L 108.20553 -164.715023 
L 107.468409 -163.2894 
L 106.731288 -166.43183 
L 105.994167 -165.266744 
L 105.257045 -163.526499 
L 104.519924 -164.897279 
L 103.782803 -167.993905 
L 103.045682 -168.425679 
L 102.308561 -166.184431 
L 101.571439 -167.215921 
L 100.834318 -166.695127 
L 100.097197 -169.607964 
L 99.360076 -169.527838 
L 98.622955 -169.620223 
L 97.885833 -170.094167 
L 97.148712 -167.907034 
L 96.411591 -166.576179 
L 95.67447 -165.799838 
L 94.937348 -167.601557 
L 94.200227 -170.795956 
L 93.463106 -171.358088 
L 92.725985 -167.830613 
L 91.988864 -166.084526 
L 91.251742 -167.324204 
L 90.514621 -165.133322 
L 89.7775 -165.751828 
L 89.040379 -167.182683 
L 88.303258 -167.754137 
L 87.566136 -167.77048 
L 86.829015 -168.958291 
L 86.091894 -166.000253 
L 85.354773 -165.124422 
L 84.617652 -166.104358 
L 83.88053 -169.281955 
L 83.143409 -163.982189 
L 82.406288 -161.101144 
L 81.669167 -157.623617 
L 80.932045 -158.74362 
L 80.194924 -160.102307 
L 79.457803 -156.554682 
L 78.720682 -165.681404 
z
" style="stroke: #a77852; stroke-opacity: 0.4"/>
    </defs>
    <g clip-path="url(#pca2d7eb31b)">
     <use xlink:href="#m82c188fbee" x="0" y="352.739531" style="fill: #a77852; fill-opacity: 0.4; stroke: #a77852; stroke-opacity: 0.4"/>
    </g>
   </g>
   <g id="matplotlib.axis_1">
    <g id="xtick_1">
     <g id="line2d_1">
      <defs>
       <path id="md8677c4bbc" d="M 0 0 
L 0 3.5 
" style="stroke: #000000; stroke-width: 2"/>
      </defs>
      <g>
       <use xlink:href="#md8677c4bbc" x="66.926742" y="304.36" style="stroke: #000000; stroke-width: 2"/>
      </g>
     </g>
     <g id="text_1">
      <!-- 0 -->
      <g transform="translate(62.756039 322.096719) scale(0.15 -0.15)">
       <defs>
        <path id="ArialMT-30" d="M 266 2259 
Q 266 3072 433 3567 
Q 600 4063 929 4331 
Q 1259 4600 1759 4600 
Q 2128 4600 2406 4451 
Q 2684 4303 2865 4023 
Q 3047 3744 3150 3342 
Q 3253 2941 3253 2259 
Q 3253 1453 3087 958 
Q 2922 463 2592 192 
Q 2263 -78 1759 -78 
Q 1097 -78 719 397 
Q 266 969 266 2259 
z
M 844 2259 
Q 844 1131 1108 757 
Q 1372 384 1759 384 
Q 2147 384 2411 759 
Q 2675 1134 2675 2259 
Q 2675 3391 2411 3762 
Q 2147 4134 1753 4134 
Q 1366 4134 1134 3806 
Q 844 3388 844 2259 
z
" transform="scale(0.015625)"/>
       </defs>
       <use xlink:href="#ArialMT-30"/>
      </g>
     </g>
    </g>
    <g id="xtick_2">
     <g id="line2d_2">
      <g>
       <use xlink:href="#md8677c4bbc" x="161.278258" y="304.36" style="stroke: #000000; stroke-width: 2"/>
      </g>
     </g>
     <g id="text_2">
      <!-- 128 -->
      <g transform="translate(148.766148 322.096719) scale(0.15 -0.15)">
       <defs>
        <path id="ArialMT-31" d="M 2384 0 
L 1822 0 
L 1822 3584 
Q 1619 3391 1289 3197 
Q 959 3003 697 2906 
L 697 3450 
Q 1169 3672 1522 3987 
Q 1875 4303 2022 4600 
L 2384 4600 
L 2384 0 
z
" transform="scale(0.015625)"/>
        <path id="ArialMT-32" d="M 3222 541 
L 3222 0 
L 194 0 
Q 188 203 259 391 
Q 375 700 629 1000 
Q 884 1300 1366 1694 
Q 2113 2306 2375 2664 
Q 2638 3022 2638 3341 
Q 2638 3675 2398 3904 
Q 2159 4134 1775 4134 
Q 1369 4134 1125 3890 
Q 881 3647 878 3216 
L 300 3275 
Q 359 3922 746 4261 
Q 1134 4600 1788 4600 
Q 2447 4600 2831 4234 
Q 3216 3869 3216 3328 
Q 3216 3053 3103 2787 
Q 2991 2522 2730 2228 
Q 2469 1934 1863 1422 
Q 1356 997 1212 845 
Q 1069 694 975 541 
L 3222 541 
z
" transform="scale(0.015625)"/>
        <path id="ArialMT-38" d="M 1131 2484 
Q 781 2613 612 2850 
Q 444 3088 444 3419 
Q 444 3919 803 4259 
Q 1163 4600 1759 4600 
Q 2359 4600 2725 4251 
Q 3091 3903 3091 3403 
Q 3091 3084 2923 2848 
Q 2756 2613 2416 2484 
Q 2838 2347 3058 2040 
Q 3278 1734 3278 1309 
Q 3278 722 2862 322 
Q 2447 -78 1769 -78 
Q 1091 -78 675 323 
Q 259 725 259 1325 
Q 259 1772 486 2073 
Q 713 2375 1131 2484 
z
M 1019 3438 
Q 1019 3113 1228 2906 
Q 1438 2700 1772 2700 
Q 2097 2700 2305 2904 
Q 2513 3109 2513 3406 
Q 2513 3716 2298 3927 
Q 2084 4138 1766 4138 
Q 1444 4138 1231 3931 
Q 1019 3725 1019 3438 
z
M 838 1322 
Q 838 1081 952 856 
Q 1066 631 1291 507 
Q 1516 384 1775 384 
Q 2178 384 2440 643 
Q 2703 903 2703 1303 
Q 2703 1709 2433 1975 
Q 2163 2241 1756 2241 
Q 1359 2241 1098 1978 
Q 838 1716 838 1322 
z
" transform="scale(0.015625)"/>
       </defs>
       <use xlink:href="#ArialMT-31"/>
       <use xlink:href="#ArialMT-32" x="55.615234"/>
       <use xlink:href="#ArialMT-38" x="111.230469"/>
      </g>
     </g>
    </g>
    <g id="xtick_3">
     <g id="line2d_3">
      <g>
       <use xlink:href="#md8677c4bbc" x="255.629773" y="304.36" style="stroke: #000000; stroke-width: 2"/>
      </g>
     </g>
     <g id="text_3">
      <!-- 256 -->
      <g transform="translate(243.117663 322.096719) scale(0.15 -0.15)">
       <defs>
        <path id="ArialMT-35" d="M 266 1200 
L 856 1250 
Q 922 819 1161 601 
Q 1400 384 1738 384 
Q 2144 384 2425 690 
Q 2706 997 2706 1503 
Q 2706 1984 2436 2262 
Q 2166 2541 1728 2541 
Q 1456 2541 1237 2417 
Q 1019 2294 894 2097 
L 366 2166 
L 809 4519 
L 3088 4519 
L 3088 3981 
L 1259 3981 
L 1013 2750 
Q 1425 3038 1878 3038 
Q 2478 3038 2890 2622 
Q 3303 2206 3303 1553 
Q 3303 931 2941 478 
Q 2500 -78 1738 -78 
Q 1113 -78 717 272 
Q 322 622 266 1200 
z
" transform="scale(0.015625)"/>
        <path id="ArialMT-36" d="M 3184 3459 
L 2625 3416 
Q 2550 3747 2413 3897 
Q 2184 4138 1850 4138 
Q 1581 4138 1378 3988 
Q 1113 3794 959 3422 
Q 806 3050 800 2363 
Q 1003 2672 1297 2822 
Q 1591 2972 1913 2972 
Q 2475 2972 2870 2558 
Q 3266 2144 3266 1488 
Q 3266 1056 3080 686 
Q 2894 316 2569 119 
Q 2244 -78 1831 -78 
Q 1128 -78 684 439 
Q 241 956 241 2144 
Q 241 3472 731 4075 
Q 1159 4600 1884 4600 
Q 2425 4600 2770 4297 
Q 3116 3994 3184 3459 
z
M 888 1484 
Q 888 1194 1011 928 
Q 1134 663 1356 523 
Q 1578 384 1822 384 
Q 2178 384 2434 671 
Q 2691 959 2691 1453 
Q 2691 1928 2437 2201 
Q 2184 2475 1800 2475 
Q 1419 2475 1153 2201 
Q 888 1928 888 1484 
z
" transform="scale(0.015625)"/>
       </defs>
       <use xlink:href="#ArialMT-32"/>
       <use xlink:href="#ArialMT-35" x="55.615234"/>
       <use xlink:href="#ArialMT-36" x="111.230469"/>
      </g>
     </g>
    </g>
    <g id="xtick_4">
     <g id="line2d_4">
      <g>
       <use xlink:href="#md8677c4bbc" x="349.981288" y="304.36" style="stroke: #000000; stroke-width: 2"/>
      </g>
     </g>
     <g id="text_4">
      <!-- 384 -->
      <g transform="translate(337.469179 322.096719) scale(0.15 -0.15)">
       <defs>
        <path id="ArialMT-33" d="M 269 1209 
L 831 1284 
Q 928 806 1161 595 
Q 1394 384 1728 384 
Q 2125 384 2398 659 
Q 2672 934 2672 1341 
Q 2672 1728 2419 1979 
Q 2166 2231 1775 2231 
Q 1616 2231 1378 2169 
L 1441 2663 
Q 1497 2656 1531 2656 
Q 1891 2656 2178 2843 
Q 2466 3031 2466 3422 
Q 2466 3731 2256 3934 
Q 2047 4138 1716 4138 
Q 1388 4138 1169 3931 
Q 950 3725 888 3313 
L 325 3413 
Q 428 3978 793 4289 
Q 1159 4600 1703 4600 
Q 2078 4600 2393 4439 
Q 2709 4278 2876 4000 
Q 3044 3722 3044 3409 
Q 3044 3113 2884 2869 
Q 2725 2625 2413 2481 
Q 2819 2388 3044 2092 
Q 3269 1797 3269 1353 
Q 3269 753 2831 336 
Q 2394 -81 1725 -81 
Q 1122 -81 723 278 
Q 325 638 269 1209 
z
" transform="scale(0.015625)"/>
        <path id="ArialMT-34" d="M 2069 0 
L 2069 1097 
L 81 1097 
L 81 1613 
L 2172 4581 
L 2631 4581 
L 2631 1613 
L 3250 1613 
L 3250 1097 
L 2631 1097 
L 2631 0 
L 2069 0 
z
M 2069 1613 
L 2069 3678 
L 634 1613 
L 2069 1613 
z
" transform="scale(0.015625)"/>
       </defs>
       <use xlink:href="#ArialMT-33"/>
       <use xlink:href="#ArialMT-38" x="55.615234"/>
       <use xlink:href="#ArialMT-34" x="111.230469"/>
      </g>
     </g>
    </g>
    <g id="xtick_5">
     <g id="line2d_5">
      <g>
       <use xlink:href="#md8677c4bbc" x="444.332803" y="304.36" style="stroke: #000000; stroke-width: 2"/>
      </g>
     </g>
     <g id="text_5">
      <!-- 512 -->
      <g transform="translate(431.820694 322.096719) scale(0.15 -0.15)">
       <use xlink:href="#ArialMT-35"/>
       <use xlink:href="#ArialMT-31" x="55.615234"/>
       <use xlink:href="#ArialMT-32" x="111.230469"/>
      </g>
     </g>
    </g>
    <g id="xtick_6">
     <g id="line2d_6">
      <g>
       <use xlink:href="#md8677c4bbc" x="538.684318" y="304.36" style="stroke: #000000; stroke-width: 2"/>
      </g>
     </g>
     <g id="text_6">
      <!-- 640 -->
      <g transform="translate(526.172209 322.096719) scale(0.15 -0.15)">
       <use xlink:href="#ArialMT-36"/>
       <use xlink:href="#ArialMT-34" x="55.615234"/>
       <use xlink:href="#ArialMT-30" x="111.230469"/>
      </g>
     </g>
    </g>
    <g id="text_7">
     <!-- Trial -->
     <g transform="translate(291.542031 341.962031) scale(0.18 -0.18)">
      <defs>
       <path id="ArialMT-54" d="M 1659 0 
L 1659 4041 
L 150 4041 
L 150 4581 
L 3781 4581 
L 3781 4041 
L 2266 4041 
L 2266 0 
L 1659 0 
z
" transform="scale(0.015625)"/>
       <path id="ArialMT-72" d="M 416 0 
L 416 3319 
L 922 3319 
L 922 2816 
Q 1116 3169 1280 3281 
Q 1444 3394 1641 3394 
Q 1925 3394 2219 3213 
L 2025 2691 
Q 1819 2813 1613 2813 
Q 1428 2813 1281 2702 
Q 1134 2591 1072 2394 
Q 978 2094 978 1738 
L 978 0 
L 416 0 
z
" transform="scale(0.015625)"/>
       <path id="ArialMT-69" d="M 425 3934 
L 425 4581 
L 988 4581 
L 988 3934 
L 425 3934 
z
M 425 0 
L 425 3319 
L 988 3319 
L 988 0 
L 425 0 
z
" transform="scale(0.015625)"/>
       <path id="ArialMT-61" d="M 2588 409 
Q 2275 144 1986 34 
Q 1697 -75 1366 -75 
Q 819 -75 525 192 
Q 231 459 231 875 
Q 231 1119 342 1320 
Q 453 1522 633 1644 
Q 813 1766 1038 1828 
Q 1203 1872 1538 1913 
Q 2219 1994 2541 2106 
Q 2544 2222 2544 2253 
Q 2544 2597 2384 2738 
Q 2169 2928 1744 2928 
Q 1347 2928 1158 2789 
Q 969 2650 878 2297 
L 328 2372 
Q 403 2725 575 2942 
Q 747 3159 1072 3276 
Q 1397 3394 1825 3394 
Q 2250 3394 2515 3294 
Q 2781 3194 2906 3042 
Q 3031 2891 3081 2659 
Q 3109 2516 3109 2141 
L 3109 1391 
Q 3109 606 3145 398 
Q 3181 191 3288 0 
L 2700 0 
Q 2613 175 2588 409 
z
M 2541 1666 
Q 2234 1541 1622 1453 
Q 1275 1403 1131 1340 
Q 988 1278 909 1158 
Q 831 1038 831 891 
Q 831 666 1001 516 
Q 1172 366 1500 366 
Q 1825 366 2078 508 
Q 2331 650 2450 897 
Q 2541 1088 2541 1459 
L 2541 1666 
z
" transform="scale(0.015625)"/>
       <path id="ArialMT-6c" d="M 409 0 
L 409 4581 
L 972 4581 
L 972 0 
L 409 0 
z
" transform="scale(0.015625)"/>
      </defs>
      <use xlink:href="#ArialMT-54"/>
      <use xlink:href="#ArialMT-72" x="57.333984"/>
      <use xlink:href="#ArialMT-69" x="90.634766"/>
      <use xlink:href="#ArialMT-61" x="112.851562"/>
      <use xlink:href="#ArialMT-6c" x="168.466797"/>
     </g>
    </g>
   </g>
   <g id="matplotlib.axis_2">
    <g id="ytick_1">
     <g id="line2d_7">
      <defs>
       <path id="m789518f336" d="M 0 0 
L -3.5 0 
" style="stroke: #000000; stroke-width: 2"/>
      </defs>
      <g>
       <use xlink:href="#m789518f336" x="55.7225" y="304.36" style="stroke: #000000; stroke-width: 2"/>
      </g>
     </g>
     <g id="text_8">
      <!-- 0 -->
      <g transform="translate(40.381094 309.728359) scale(0.15 -0.15)">
       <use xlink:href="#ArialMT-30"/>
      </g>
     </g>
    </g>
    <g id="ytick_2">
     <g id="line2d_8">
      <g>
       <use xlink:href="#m789518f336" x="55.7225" y="163.316882" style="stroke: #000000; stroke-width: 2"/>
      </g>
     </g>
     <g id="text_9">
      <!-- 0.5 -->
      <g transform="translate(27.8725 168.685242) scale(0.15 -0.15)">
       <defs>
        <path id="ArialMT-2e" d="M 581 0 
L 581 641 
L 1222 641 
L 1222 0 
L 581 0 
z
" transform="scale(0.015625)"/>
       </defs>
       <use xlink:href="#ArialMT-30"/>
       <use xlink:href="#ArialMT-2e" x="55.615234"/>
       <use xlink:href="#ArialMT-35" x="83.398438"/>
      </g>
     </g>
    </g>
    <g id="ytick_3">
     <g id="line2d_9">
      <g>
       <use xlink:href="#m789518f336" x="55.7225" y="22.273765" style="stroke: #000000; stroke-width: 2"/>
      </g>
     </g>
     <g id="text_10">
      <!-- 1 -->
      <g transform="translate(40.381094 27.642124) scale(0.15 -0.15)">
       <use xlink:href="#ArialMT-31"/>
      </g>
     </g>
    </g>
    <g id="text_11">
     <!-- Accuracy -->
     <g transform="translate(20.084063 192.789687) rotate(-90) scale(0.18 -0.18)">
      <defs>
       <path id="ArialMT-41" d="M -9 0 
L 1750 4581 
L 2403 4581 
L 4278 0 
L 3588 0 
L 3053 1388 
L 1138 1388 
L 634 0 
L -9 0 
z
M 1313 1881 
L 2866 1881 
L 2388 3150 
Q 2169 3728 2063 4100 
Q 1975 3659 1816 3225 
L 1313 1881 
z
" transform="scale(0.015625)"/>
       <path id="ArialMT-63" d="M 2588 1216 
L 3141 1144 
Q 3050 572 2676 248 
Q 2303 -75 1759 -75 
Q 1078 -75 664 370 
Q 250 816 250 1647 
Q 250 2184 428 2587 
Q 606 2991 970 3192 
Q 1334 3394 1763 3394 
Q 2303 3394 2647 3120 
Q 2991 2847 3088 2344 
L 2541 2259 
Q 2463 2594 2264 2762 
Q 2066 2931 1784 2931 
Q 1359 2931 1093 2626 
Q 828 2322 828 1663 
Q 828 994 1084 691 
Q 1341 388 1753 388 
Q 2084 388 2306 591 
Q 2528 794 2588 1216 
z
" transform="scale(0.015625)"/>
       <path id="ArialMT-75" d="M 2597 0 
L 2597 488 
Q 2209 -75 1544 -75 
Q 1250 -75 995 37 
Q 741 150 617 320 
Q 494 491 444 738 
Q 409 903 409 1263 
L 409 3319 
L 972 3319 
L 972 1478 
Q 972 1038 1006 884 
Q 1059 663 1231 536 
Q 1403 409 1656 409 
Q 1909 409 2131 539 
Q 2353 669 2445 892 
Q 2538 1116 2538 1541 
L 2538 3319 
L 3100 3319 
L 3100 0 
L 2597 0 
z
" transform="scale(0.015625)"/>
       <path id="ArialMT-79" d="M 397 -1278 
L 334 -750 
Q 519 -800 656 -800 
Q 844 -800 956 -737 
Q 1069 -675 1141 -563 
Q 1194 -478 1313 -144 
Q 1328 -97 1363 -6 
L 103 3319 
L 709 3319 
L 1400 1397 
Q 1534 1031 1641 628 
Q 1738 1016 1872 1384 
L 2581 3319 
L 3144 3319 
L 1881 -56 
Q 1678 -603 1566 -809 
Q 1416 -1088 1222 -1217 
Q 1028 -1347 759 -1347 
Q 597 -1347 397 -1278 
z
" transform="scale(0.015625)"/>
      </defs>
      <use xlink:href="#ArialMT-41"/>
      <use xlink:href="#ArialMT-63" x="66.699219"/>
      <use xlink:href="#ArialMT-63" x="116.699219"/>
      <use xlink:href="#ArialMT-75" x="166.699219"/>
      <use xlink:href="#ArialMT-72" x="222.314453"/>
      <use xlink:href="#ArialMT-61" x="255.615234"/>
      <use xlink:href="#ArialMT-63" x="311.230469"/>
      <use xlink:href="#ArialMT-79" x="361.230469"/>
     </g>
    </g>
   </g>
   <g id="line2d_10">
    <path d="M 78.720682 251.468831 
L 81.669167 251.468831 
L 82.406288 269.099221 
L 85.354773 269.099221 
L 86.091894 286.72961 
L 89.040379 286.72961 
L 89.7775 269.099221 
L 90.514621 286.72961 
L 94.200227 286.72961 
L 94.937348 269.099221 
L 99.360076 269.099221 
L 100.097197 251.468831 
L 105.257045 251.468831 
L 105.994167 233.838441 
L 106.731288 251.468831 
L 107.468409 233.838441 
L 109.679773 233.838441 
L 111.154015 198.577662 
L 111.891136 198.577662 
L 112.628258 180.947272 
L 113.365379 198.577662 
L 114.1025 198.577662 
L 114.839621 180.947272 
L 115.576742 180.947272 
L 117.050985 145.686493 
L 123.685076 145.686493 
L 124.422197 163.316882 
L 125.896439 163.316882 
L 126.633561 180.947272 
L 127.370682 163.316882 
L 129.582045 216.208052 
L 130.319167 198.577662 
L 131.056288 216.208052 
L 132.53053 216.208052 
L 133.267652 198.577662 
L 135.479015 251.468831 
L 136.216136 233.838441 
L 138.4275 233.838441 
L 139.164621 251.468831 
L 139.901742 251.468831 
L 140.638864 233.838441 
L 141.375985 233.838441 
L 142.113106 251.468831 
L 142.850227 233.838441 
L 143.587348 233.838441 
L 144.32447 216.208052 
L 145.061591 233.838441 
L 146.535833 233.838441 
L 147.272955 216.208052 
L 148.010076 216.208052 
L 148.747197 198.577662 
L 149.484318 198.577662 
L 150.221439 180.947272 
L 151.695682 180.947272 
L 152.432803 198.577662 
L 153.169924 198.577662 
L 153.907045 180.947272 
L 154.644167 198.577662 
L 155.381288 180.947272 
L 156.118409 198.577662 
L 156.85553 180.947272 
L 157.592652 180.947272 
L 158.329773 163.316882 
L 160.541136 216.208052 
L 161.278258 216.208052 
L 162.015379 233.838441 
L 162.7525 216.208052 
L 164.963864 216.208052 
L 165.700985 233.838441 
L 166.438106 233.838441 
L 167.175227 251.468831 
L 167.912348 251.468831 
L 168.64947 269.099221 
L 169.386591 269.099221 
L 170.123712 286.72961 
L 170.860833 269.099221 
L 173.072197 269.099221 
L 173.809318 251.468831 
L 174.546439 269.099221 
L 176.020682 269.099221 
L 177.494924 233.838441 
L 178.232045 233.838441 
L 178.969167 216.208052 
L 179.706288 216.208052 
L 180.443409 198.577662 
L 181.917652 198.577662 
L 182.654773 216.208052 
L 183.391894 216.208052 
L 184.866136 180.947272 
L 185.603258 180.947272 
L 186.340379 163.316882 
L 187.0775 163.316882 
L 187.814621 145.686493 
L 188.551742 145.686493 
L 189.288864 163.316882 
L 190.025985 163.316882 
L 190.763106 180.947272 
L 191.500227 163.316882 
L 192.237348 180.947272 
L 192.97447 180.947272 
L 193.711591 163.316882 
L 194.448712 163.316882 
L 195.185833 145.686493 
L 195.922955 163.316882 
L 198.134318 163.316882 
L 198.871439 145.686493 
L 199.608561 163.316882 
L 200.345682 163.316882 
L 201.819924 128.056103 
L 204.768409 128.056103 
L 205.50553 145.686493 
L 207.716894 145.686493 
L 208.454015 163.316882 
L 211.4025 163.316882 
L 212.876742 198.577662 
L 213.613864 198.577662 
L 214.350985 180.947272 
L 215.088106 198.577662 
L 216.562348 163.316882 
L 217.29947 163.316882 
L 218.036591 145.686493 
L 218.773712 163.316882 
L 220.247955 128.056103 
L 221.722197 128.056103 
L 222.459318 145.686493 
L 224.670682 92.795324 
L 225.407803 92.795324 
L 226.144924 110.425713 
L 226.882045 110.425713 
L 227.619167 128.056103 
L 229.83053 128.056103 
L 230.567652 110.425713 
L 233.516136 180.947272 
L 234.253258 163.316882 
L 234.990379 163.316882 
L 235.7275 180.947272 
L 236.464621 180.947272 
L 237.201742 198.577662 
L 237.938864 180.947272 
L 240.150227 180.947272 
L 240.887348 163.316882 
L 241.62447 180.947272 
L 243.098712 180.947272 
L 243.835833 163.316882 
L 244.572955 163.316882 
L 245.310076 145.686493 
L 246.784318 180.947272 
L 248.995682 180.947272 
L 249.732803 198.577662 
L 250.469924 198.577662 
L 251.207045 180.947272 
L 252.681288 216.208052 
L 253.418409 198.577662 
L 254.892652 198.577662 
L 255.629773 216.208052 
L 256.366894 198.577662 
L 257.104015 198.577662 
L 258.578258 163.316882 
L 260.0525 163.316882 
L 260.789621 145.686493 
L 262.263864 145.686493 
L 263.000985 163.316882 
L 264.475227 128.056103 
L 265.94947 163.316882 
L 267.423712 128.056103 
L 268.897955 163.316882 
L 271.109318 163.316882 
L 272.583561 198.577662 
L 273.320682 198.577662 
L 274.794924 163.316882 
L 279.217652 163.316882 
L 280.691894 128.056103 
L 281.429015 145.686493 
L 284.3775 145.686493 
L 285.114621 128.056103 
L 285.851742 128.056103 
L 288.063106 180.947272 
L 288.800227 163.316882 
L 289.537348 163.316882 
L 292.485833 233.838441 
L 293.960076 233.838441 
L 296.171439 180.947272 
L 296.908561 198.577662 
L 298.382803 198.577662 
L 299.857045 163.316882 
L 301.331288 163.316882 
L 302.068409 145.686493 
L 305.754015 145.686493 
L 307.965379 198.577662 
L 308.7025 180.947272 
L 309.439621 198.577662 
L 310.176742 198.577662 
L 312.388106 251.468831 
L 313.125227 251.468831 
L 313.862348 269.099221 
L 321.970682 269.099221 
L 322.707803 251.468831 
L 324.182045 251.468831 
L 324.919167 233.838441 
L 326.393409 233.838441 
L 327.13053 216.208052 
L 327.867652 216.208052 
L 328.604773 198.577662 
L 331.553258 198.577662 
L 332.290379 216.208052 
L 333.0275 198.577662 
L 333.764621 198.577662 
L 334.501742 216.208052 
L 335.238864 198.577662 
L 335.975985 198.577662 
L 336.713106 216.208052 
L 339.661591 216.208052 
L 340.398712 233.838441 
L 341.135833 233.838441 
L 342.610076 198.577662 
L 343.347197 198.577662 
L 344.084318 180.947272 
L 344.821439 198.577662 
L 346.295682 163.316882 
L 347.032803 163.316882 
L 348.507045 128.056103 
L 349.244167 128.056103 
L 349.981288 110.425713 
L 351.45553 110.425713 
L 352.192652 92.795324 
L 353.666894 128.056103 
L 354.404015 128.056103 
L 355.141136 110.425713 
L 355.878258 110.425713 
L 356.615379 92.795324 
L 357.3525 92.795324 
L 358.089621 110.425713 
L 363.986591 110.425713 
L 365.460833 75.164934 
L 366.197955 75.164934 
L 366.935076 92.795324 
L 369.146439 92.795324 
L 369.883561 75.164934 
L 371.357803 75.164934 
L 372.094924 92.795324 
L 372.832045 75.164934 
L 374.306288 110.425713 
L 375.043409 92.795324 
L 377.254773 92.795324 
L 377.991894 110.425713 
L 378.729015 92.795324 
L 383.151742 92.795324 
L 383.888864 75.164934 
L 384.625985 75.164934 
L 386.100227 39.904155 
L 389.048712 39.904155 
L 389.785833 22.273765 
L 390.522955 22.273765 
L 391.997197 57.534544 
L 399.368409 57.534544 
L 400.10553 75.164934 
L 403.054015 75.164934 
L 403.791136 57.534544 
L 405.265379 57.534544 
L 406.0025 75.164934 
L 408.950985 75.164934 
L 409.688106 92.795324 
L 411.162348 92.795324 
L 411.89947 75.164934 
L 412.636591 92.795324 
L 413.373712 92.795324 
L 414.110833 110.425713 
L 417.059318 110.425713 
L 417.796439 92.795324 
L 420.744924 92.795324 
L 421.482045 75.164934 
L 424.43053 75.164934 
L 425.167652 92.795324 
L 426.641894 57.534544 
L 435.487348 57.534544 
L 436.961591 22.273765 
L 438.435833 22.273765 
L 439.172955 39.904155 
L 445.069924 39.904155 
L 445.807045 57.534544 
L 456.863864 57.534544 
L 457.600985 39.904155 
L 458.338106 57.534544 
L 461.286591 57.534544 
L 462.023712 75.164934 
L 462.760833 57.534544 
L 463.497955 75.164934 
L 469.394924 75.164934 
L 470.132045 57.534544 
L 473.08053 57.534544 
L 473.817652 39.904155 
L 474.554773 39.904155 
L 475.291894 22.273765 
L 482.663106 22.273765 
L 483.400227 39.904155 
L 484.87447 39.904155 
L 485.611591 57.534544 
L 492.982803 57.534544 
L 493.719924 75.164934 
L 494.457045 75.164934 
L 495.194167 57.534544 
L 498.142652 57.534544 
L 498.879773 75.164934 
L 504.776742 75.164934 
L 505.513864 57.534544 
L 507.725227 57.534544 
L 508.462348 75.164934 
L 509.19947 57.534544 
L 509.936591 57.534544 
L 510.673712 39.904155 
L 514.359318 39.904155 
L 515.096439 57.534544 
L 519.519167 57.534544 
L 520.256288 39.904155 
L 526.153258 39.904155 
L 526.890379 22.273765 
L 528.364621 22.273765 
L 529.101742 39.904155 
L 533.52447 39.904155 
L 534.261591 57.534544 
L 537.947197 57.534544 
L 538.684318 59.885263 
L 538.684318 59.885263 
" clip-path="url(#pca2d7eb31b)" style="fill: none; stroke: #a6a6a6; stroke-width: 2; stroke-linecap: square"/>
   </g>
   <g id="line2d_11">
    <path d="M 78.720682 218.176782 
L 79.457803 226.645095 
L 80.194924 223.614001 
L 80.932045 224.917557 
L 81.669167 225.916988 
L 83.143409 220.338077 
L 83.88053 215.386491 
L 84.617652 218.255208 
L 85.354773 219.125612 
L 86.091894 218.355586 
L 86.829015 215.820046 
L 87.566136 216.930627 
L 88.303258 216.944999 
L 89.040379 217.495069 
L 89.7775 218.746892 
L 90.514621 219.319877 
L 91.251742 217.461238 
L 91.988864 218.55498 
L 92.725985 216.867922 
L 93.463106 213.603966 
L 94.200227 214.100785 
L 94.937348 217.000449 
L 95.67447 218.76666 
L 96.411591 218.086651 
L 97.148712 216.897508 
L 97.885833 214.894174 
L 98.622955 215.312945 
L 99.360076 215.397881 
L 100.097197 215.327305 
L 100.834318 218.002116 
L 101.571439 217.551169 
L 102.308561 218.486823 
L 103.045682 216.481276 
L 103.782803 216.854921 
L 104.519924 219.791809 
L 105.257045 221.09671 
L 105.994167 219.536969 
L 106.731288 218.506232 
L 107.468409 221.38296 
L 108.20553 220.099093 
L 108.942652 221.848224 
L 109.679773 221.321936 
L 110.416894 216.123717 
L 111.154015 215.658642 
L 112.628258 196.110229 
L 113.365379 187.780238 
L 114.1025 186.608513 
L 114.839621 184.765351 
L 115.576742 182.342431 
L 116.313864 181.119686 
L 117.050985 181.459741 
L 117.788106 178.800524 
L 118.525227 181.254805 
L 119.262348 176.535732 
L 119.99947 175.041818 
L 120.736591 174.787277 
L 121.473712 176.537242 
L 122.210833 180.29539 
L 122.947955 180.796239 
L 123.685076 188.245009 
L 124.422197 197.322624 
L 125.159318 203.207353 
L 125.896439 201.266791 
L 126.633561 202.082592 
L 127.370682 200.314148 
L 128.107803 205.547089 
L 128.844924 204.730097 
L 129.582045 208.921011 
L 130.319167 206.365925 
L 131.056288 203.323555 
L 131.793409 206.469968 
L 132.53053 206.494723 
L 133.267652 206.883132 
L 134.004773 203.628486 
L 134.741894 203.016047 
L 135.479015 199.661626 
L 136.216136 199.00164 
L 136.953258 200.219703 
L 138.4275 206.163245 
L 139.164621 209.083257 
L 139.901742 205.982104 
L 140.638864 208.409131 
L 141.375985 199.488515 
L 142.113106 194.011594 
L 142.850227 200.811202 
L 143.587348 199.7649 
L 144.32447 199.220908 
L 145.061591 197.026842 
L 145.798712 202.468159 
L 146.535833 199.048273 
L 147.272955 206.187465 
L 148.010076 207.274854 
L 148.747197 205.638526 
L 149.484318 203.731242 
L 150.221439 199.172294 
L 150.958561 192.621052 
L 151.695682 190.772324 
L 152.432803 190.351748 
L 153.169924 192.906844 
L 153.907045 189.599045 
L 154.644167 191.884981 
L 155.381288 191.044745 
L 156.118409 188.079122 
L 156.85553 191.266463 
L 157.592652 190.411347 
L 158.329773 195.521306 
L 159.066894 193.322975 
L 159.804015 193.540411 
L 160.541136 195.698983 
L 161.278258 192.029817 
L 162.7525 190.392106 
L 164.226742 179.290492 
L 164.963864 176.814941 
L 165.700985 184.182279 
L 166.438106 182.606041 
L 167.175227 184.382216 
L 167.912348 187.429901 
L 169.386591 178.801183 
L 170.123712 175.96127 
L 171.597955 165.726235 
L 172.335076 168.730725 
L 173.072197 174.490149 
L 173.809318 177.281941 
L 174.546439 185.542992 
L 175.283561 191.676773 
L 176.020682 196.390823 
L 176.757803 204.539336 
L 177.494924 207.711215 
L 178.232045 208.018566 
L 178.969167 199.694688 
L 179.706288 198.488801 
L 180.443409 197.898829 
L 181.18053 197.667052 
L 181.917652 198.224114 
L 183.391894 192.904663 
L 184.129015 181.382346 
L 185.603258 170.790924 
L 186.340379 159.993222 
L 187.0775 156.165118 
L 187.814621 154.133063 
L 188.551742 144.736038 
L 189.288864 140.099337 
L 190.025985 131.605539 
L 190.763106 130.668795 
L 191.500227 126.360187 
L 192.237348 126.892781 
L 192.97447 130.057309 
L 193.711591 123.121342 
L 194.448712 133.149995 
L 195.185833 134.227097 
L 195.922955 142.106844 
L 196.660076 145.995409 
L 197.397197 145.062103 
L 198.134318 158.572061 
L 198.871439 163.67196 
L 199.608561 167.154249 
L 200.345682 177.082881 
L 201.082803 180.29641 
L 202.557045 197.918186 
L 203.294167 198.910567 
L 204.031288 200.997025 
L 204.768409 199.334892 
L 205.50553 204.264791 
L 206.242652 195.336928 
L 206.979773 203.792064 
L 207.716894 204.024174 
L 208.454015 196.708218 
L 209.191136 194.508774 
L 209.928258 184.904857 
L 210.665379 178.377195 
L 211.4025 177.193442 
L 212.139621 165.050449 
L 212.876742 162.465383 
L 213.613864 151.917787 
L 215.088106 145.834028 
L 215.825227 136.043244 
L 216.562348 129.182485 
L 217.29947 132.920424 
L 218.036591 132.777326 
L 218.773712 125.285594 
L 219.510833 114.045682 
L 220.247955 124.384338 
L 220.985076 127.155755 
L 221.722197 123.975606 
L 222.459318 131.350593 
L 223.196439 133.04702 
L 223.933561 137.78193 
L 224.670682 141.518253 
L 225.407803 148.994886 
L 226.144924 143.838268 
L 227.619167 159.417302 
L 228.356288 168.519796 
L 229.093409 165.762874 
L 229.83053 167.50143 
L 230.567652 160.121477 
L 231.304773 173.850029 
L 232.041894 161.116301 
L 232.779015 159.281635 
L 233.516136 160.165273 
L 234.990379 133.824682 
L 235.7275 132.963276 
L 236.464621 119.34467 
L 237.201742 110.185256 
L 237.938864 106.384189 
L 238.675985 94.280107 
L 239.413106 96.698848 
L 240.150227 94.069213 
L 240.887348 97.474299 
L 241.62447 103.711809 
L 242.361591 104.704999 
L 243.098712 94.634494 
L 243.835833 99.322858 
L 244.572955 110.743256 
L 245.310076 117.314041 
L 246.047197 131.127338 
L 246.784318 141.20173 
L 247.521439 147.303541 
L 248.258561 160.210004 
L 248.995682 169.718268 
L 250.469924 191.742193 
L 251.207045 190.307383 
L 251.944167 190.689916 
L 252.681288 188.084755 
L 253.418409 179.939551 
L 254.15553 188.676 
L 254.892652 187.42102 
L 255.629773 197.328636 
L 256.366894 198.345093 
L 257.104015 198.642781 
L 257.841136 187.735073 
L 258.578258 193.461133 
L 259.315379 193.320306 
L 260.0525 188.948057 
L 260.789621 189.949538 
L 261.526742 192.996794 
L 262.263864 193.622306 
L 263.738106 194.204541 
L 264.475227 194.830408 
L 265.212348 196.156508 
L 265.94947 192.842542 
L 266.686591 191.196892 
L 267.423712 177.849646 
L 268.160833 171.270191 
L 268.897955 175.373279 
L 269.635076 177.731524 
L 270.372197 163.605276 
L 271.109318 167.941507 
L 271.846439 167.804918 
L 272.583561 163.428111 
L 273.320682 159.874616 
L 274.057803 159.727009 
L 274.794924 154.683295 
L 275.532045 160.047446 
L 276.269167 157.405619 
L 277.006288 158.808742 
L 277.743409 153.630701 
L 278.48053 164.762787 
L 279.217652 162.93219 
L 279.954773 160.16928 
L 280.691894 151.039687 
L 281.429015 148.083767 
L 282.166136 150.268599 
L 282.903258 151.81874 
L 283.640379 149.909527 
L 284.3775 152.991855 
L 285.114621 147.913871 
L 285.851742 139.494083 
L 286.588864 146.052282 
L 287.325985 145.416453 
L 288.063106 150.585 
L 288.800227 149.391582 
L 289.537348 161.595346 
L 290.27447 155.517753 
L 291.011591 167.270824 
L 291.748712 173.315044 
L 292.485833 178.404729 
L 293.222955 185.771743 
L 293.960076 197.314944 
L 294.697197 186.299288 
L 295.434318 182.835474 
L 296.171439 174.556756 
L 296.908561 172.902282 
L 297.645682 181.340393 
L 298.382803 182.088212 
L 299.119924 180.230942 
L 299.857045 181.617049 
L 300.594167 184.094392 
L 301.331288 183.541357 
L 302.068409 188.991836 
L 302.80553 186.551199 
L 303.542652 185.740595 
L 304.279773 184.675129 
L 305.016894 182.328223 
L 305.754015 181.668626 
L 307.965379 207.364054 
L 308.7025 214.110184 
L 309.439621 204.247769 
L 310.176742 204.836492 
L 310.913864 203.129848 
L 311.650985 197.489818 
L 312.388106 194.637921 
L 313.125227 187.554817 
L 313.862348 185.833801 
L 314.59947 181.54302 
L 315.336591 183.041313 
L 316.073712 181.466761 
L 316.810833 174.033814 
L 317.547955 175.319452 
L 318.285076 167.484354 
L 319.022197 156.821023 
L 319.759318 153.102985 
L 320.496439 156.281971 
L 321.233561 164.607175 
L 321.970682 157.818533 
L 322.707803 147.817344 
L 323.444924 141.42189 
L 324.919167 154.801846 
L 325.656288 152.322858 
L 326.393409 157.422406 
L 327.13053 150.415233 
L 327.867652 146.687036 
L 328.604773 151.643207 
L 329.341894 137.996702 
L 330.079015 133.108836 
L 330.816136 132.707952 
L 331.553258 125.969199 
L 332.290379 112.433098 
L 333.0275 103.086523 
L 333.764621 96.343351 
L 334.501742 103.254781 
L 335.238864 101.885365 
L 336.713106 78.136429 
L 338.187348 60.883415 
L 338.92447 54.976766 
L 339.661591 50.437514 
L 340.398712 44.665958 
L 341.135833 42.304498 
L 341.872955 41.337147 
L 342.610076 41.142565 
L 343.347197 44.815101 
L 344.821439 54.635822 
L 345.558561 55.578774 
L 346.295682 47.470384 
L 347.769924 44.483308 
L 348.507045 46.018195 
L 349.244167 46.773479 
L 349.981288 44.960834 
L 351.45553 44.63941 
L 352.192652 56.581673 
L 352.929773 56.586476 
L 353.666894 56.896464 
L 354.404015 61.848407 
L 355.141136 58.037501 
L 355.878258 52.765375 
L 356.615379 45.946515 
L 357.3525 45.637573 
L 358.089621 57.006862 
L 358.826742 57.443738 
L 359.563864 61.676896 
L 360.300985 59.960632 
L 361.038106 60.019215 
L 361.775227 59.867654 
L 362.512348 60.569198 
L 363.24947 60.364941 
L 363.986591 48.321031 
L 364.723712 51.075496 
L 365.460833 54.506709 
L 366.197955 49.471733 
L 366.935076 49.449119 
L 367.672197 49.64314 
L 368.409318 49.39208 
L 369.146439 48.791311 
L 369.883561 37.308586 
L 370.620682 37.071429 
L 371.357803 35.134803 
L 372.094924 37.225149 
L 372.832045 48.431295 
L 373.569167 57.564983 
L 374.306288 59.809862 
L 375.043409 68.735981 
L 375.78053 73.596846 
L 376.517652 70.7541 
L 377.254773 66.736367 
L 377.991894 69.955522 
L 378.729015 70.659007 
L 379.466136 70.836106 
L 380.203258 73.760636 
L 380.940379 73.924845 
L 381.6775 73.90661 
L 382.414621 77.094164 
L 383.151742 75.434759 
L 383.888864 77.956865 
L 384.625985 66.059846 
L 385.363106 58.108355 
L 386.100227 59.215127 
L 386.837348 50.280414 
L 387.57447 45.44701 
L 388.311591 45.699992 
L 389.048712 47.00017 
L 389.785833 43.522427 
L 390.522955 42.794285 
L 391.260076 46.822319 
L 391.997197 47.230471 
L 392.734318 63.771531 
L 393.471439 65.330124 
L 394.208561 62.872912 
L 394.945682 62.189975 
L 395.682803 57.588764 
L 396.419924 57.396189 
L 397.157045 56.51788 
L 397.894167 55.977528 
L 398.631288 56.016243 
L 399.368409 65.34676 
L 400.10553 79.416368 
L 400.842652 77.903336 
L 401.579773 81.397271 
L 402.316894 81.640319 
L 403.054015 86.957787 
L 403.791136 86.970236 
L 404.528258 70.692889 
L 405.265379 81.734047 
L 406.0025 84.510926 
L 406.739621 84.677606 
L 407.476742 89.758043 
L 408.213864 89.935324 
L 408.950985 89.906957 
L 409.688106 100.728622 
L 410.425227 100.748722 
L 411.162348 91.823263 
L 411.89947 77.660692 
L 412.636591 77.894387 
L 413.373712 90.837786 
L 414.110833 96.381966 
L 414.847955 103.317776 
L 415.585076 107.43769 
L 416.322197 107.625709 
L 417.059318 95.040079 
L 417.796439 91.894998 
L 418.533561 94.720999 
L 419.270682 91.095376 
L 420.007803 92.115777 
L 420.744924 92.103513 
L 421.482045 80.398102 
L 422.219167 80.288283 
L 422.956288 81.593482 
L 423.693409 88.564116 
L 424.43053 105.562765 
L 425.167652 97.446673 
L 425.904773 92.396293 
L 426.641894 77.461751 
L 427.379015 70.304212 
L 428.116136 69.896161 
L 429.590379 81.46519 
L 430.3275 78.830187 
L 431.064621 84.368547 
L 431.801742 83.280579 
L 434.013106 127.768267 
L 434.750227 125.959706 
L 435.487348 118.84936 
L 436.22447 101.814319 
L 436.961591 95.80317 
L 437.698712 96.29883 
L 438.435833 94.155776 
L 439.172955 96.214924 
L 439.910076 96.022461 
L 440.647197 103.939154 
L 441.384318 98.677642 
L 442.121439 98.405036 
L 442.858561 91.699352 
L 443.595682 94.691223 
L 445.069924 63.880042 
L 445.807045 54.237601 
L 446.544167 54.326075 
L 447.281288 63.690674 
L 448.018409 63.854605 
L 448.75553 65.274362 
L 449.492652 64.46365 
L 450.229773 64.376911 
L 450.966894 78.164997 
L 451.704015 78.834704 
L 452.441136 73.259719 
L 453.178258 72.552834 
L 453.915379 72.812311 
L 454.6525 75.777795 
L 455.389621 72.659453 
L 456.126742 72.67726 
L 456.863864 78.293208 
L 457.600985 71.628329 
L 458.338106 78.980917 
L 459.075227 71.238413 
L 459.812348 77.662634 
L 461.286591 77.325142 
L 462.023712 80.761062 
L 462.760833 64.861965 
L 463.497955 72.014807 
L 464.235076 64.048245 
L 465.709318 89.31298 
L 466.446439 88.957318 
L 467.183561 92.139237 
L 467.920682 92.282133 
L 468.657803 86.467807 
L 469.394924 91.152829 
L 470.132045 84.240427 
L 470.869167 82.960203 
L 471.606288 80.631623 
L 472.343409 84.247552 
L 473.08053 84.34843 
L 473.817652 81.591645 
L 474.554773 81.593528 
L 475.291894 73.728332 
L 476.029015 73.782361 
L 477.503258 49.383151 
L 478.9775 43.665891 
L 479.714621 44.246347 
L 480.451742 46.666409 
L 481.188864 42.478216 
L 481.925985 45.28731 
L 482.663106 44.94632 
L 483.400227 40.822961 
L 484.137348 34.217103 
L 484.87447 41.638142 
L 485.611591 46.478244 
L 486.348712 46.251032 
L 487.085833 46.21323 
L 487.822955 60.912925 
L 488.560076 59.956143 
L 490.034318 89.599371 
L 490.771439 89.487351 
L 491.508561 88.84771 
L 492.245682 92.373201 
L 492.982803 93.672002 
L 493.719924 106.14522 
L 494.457045 106.168454 
L 495.194167 105.894161 
L 495.931288 105.336796 
L 496.668409 98.38424 
L 497.40553 103.487738 
L 498.142652 103.663238 
L 498.879773 105.907325 
L 499.616894 91.210038 
L 500.354015 91.902244 
L 501.828258 63.884829 
L 502.565379 79.038944 
L 503.3025 79.474827 
L 504.039621 73.460852 
L 504.776742 71.733628 
L 505.513864 56.149525 
L 506.250985 64.104824 
L 507.725227 64.819268 
L 508.462348 73.51371 
L 509.19947 73.908909 
L 509.936591 73.711797 
L 510.673712 71.490245 
L 511.410833 72.816154 
L 512.147955 71.730663 
L 512.885076 71.505357 
L 513.622197 75.383615 
L 514.359318 60.23666 
L 515.096439 70.64643 
L 517.307803 70.308311 
L 518.044924 62.420991 
L 519.519167 62.983822 
L 520.993409 42.841773 
L 521.73053 47.88934 
L 522.467652 48.718879 
L 523.204773 47.394851 
L 523.941894 47.184203 
L 524.679015 48.169623 
L 525.416136 48.468639 
L 526.153258 51.768365 
L 526.890379 45.959913 
L 527.6275 49.027041 
L 528.364621 49.103247 
L 529.101742 55.417661 
L 529.838864 56.554776 
L 530.575985 57.37442 
L 531.313106 57.194147 
L 532.050227 57.159299 
L 532.787348 56.783785 
L 533.52447 52.534991 
L 534.261591 64.790319 
L 535.735833 81.139558 
L 536.472955 80.006687 
L 537.210076 74.225158 
L 537.947197 70.801938 
L 538.684318 68.510245 
L 538.684318 68.510245 
" clip-path="url(#pca2d7eb31b)" style="fill: none; stroke: #a77852; stroke-width: 2; stroke-linecap: square"/>
   </g>
   <g id="line2d_12">
    <path d="M 161.278258 304.36 
L 161.278258 7.2 
" clip-path="url(#pca2d7eb31b)" style="fill: none; stroke-dasharray: 3.7,1.6; stroke-dashoffset: 0; stroke: #808080; stroke-opacity: 0.3"/>
   </g>
   <g id="line2d_13">
    <path d="M 255.629773 304.36 
L 255.629773 7.2 
" clip-path="url(#pca2d7eb31b)" style="fill: none; stroke-dasharray: 3.7,1.6; stroke-dashoffset: 0; stroke: #808080; stroke-opacity: 0.3"/>
   </g>
   <g id="line2d_14">
    <path d="M 349.981288 304.36 
L 349.981288 7.2 
" clip-path="url(#pca2d7eb31b)" style="fill: none; stroke-dasharray: 3.7,1.6; stroke-dashoffset: 0; stroke: #808080; stroke-opacity: 0.3"/>
   </g>
   <g id="line2d_15">
    <path d="M 444.332803 304.36 
L 444.332803 7.2 
" clip-path="url(#pca2d7eb31b)" style="fill: none; stroke-dasharray: 3.7,1.6; stroke-dashoffset: 0; stroke: #808080; stroke-opacity: 0.3"/>
   </g>
   <g id="line2d_16">
    <path d="M 538.684318 304.36 
L 538.684318 7.2 
" clip-path="url(#pca2d7eb31b)" style="fill: none; stroke-dasharray: 3.7,1.6; stroke-dashoffset: 0; stroke: #808080; stroke-opacity: 0.3"/>
   </g>
   <g id="patch_3">
    <path d="M 55.7225 304.36 
L 55.7225 7.2 
" style="fill: none; stroke: #000000; stroke-width: 2; stroke-linejoin: miter; stroke-linecap: square"/>
   </g>
   <g id="patch_4">
    <path d="M 55.7225 304.36 
L 561.6825 304.36 
" style="fill: none; stroke: #000000; stroke-width: 2; stroke-linejoin: miter; stroke-linecap: square"/>
   </g>
  </g>
 </g>
 <defs>
  <clipPath id="pca2d7eb31b">
   <rect x="55.7225" y="7.2" width="505.96" height="297.16"/>
  </clipPath>
 </defs>
</svg>
