<?xml version="1.0" encoding="utf-8" standalone="no"?>
<!DOCTYPE svg PUBLIC "-//W3C//DTD SVG 1.1//EN"
  "http://www.w3.org/Graphics/SVG/1.1/DTD/svg11.dtd">
<svg xmlns:xlink="http://www.w3.org/1999/xlink" width="1188.541563pt" height="252.294844pt" viewBox="0 0 1188.541563 252.294844" xmlns="http://www.w3.org/2000/svg" version="1.1">
 <metadata>
  <rdf:RDF xmlns:dc="http://purl.org/dc/elements/1.1/" xmlns:cc="http://creativecommons.org/ns#" xmlns:rdf="http://www.w3.org/1999/02/22-rdf-syntax-ns#">
   <cc:Work>
    <dc:type rdf:resource="http://purl.org/dc/dcmitype/StillImage"/>
    <dc:date>2025-05-15T21:50:17.049039</dc:date>
    <dc:format>image/svg+xml</dc:format>
    <dc:creator>
     <cc:Agent>
      <dc:title>Matplotlib v3.8.4, https://matplotlib.org/</dc:title>
     </cc:Agent>
    </dc:creator>
   </cc:Work>
  </rdf:RDF>
 </metadata>
 <defs>
  <style type="text/css">*{stroke-linejoin: round; stroke-linecap: butt}</style>
 </defs>
 <g id="figure_1">
  <g id="patch_1">
   <path d="M 0 252.294844 
L 1188.541563 252.294844 
L 1188.541563 0 
L 0 0 
L 0 252.294844 
z
" style="fill: none"/>
  </g>
  <g id="axes_1">
   <g id="patch_2">
    <path d="M 58.270313 202.08625 
L 518.309413 202.08625 
L 518.309413 12.92625 
L 58.270313 12.92625 
L 58.270313 202.08625 
z
" style="fill: none"/>
   </g>
   <g id="matplotlib.axis_1">
    <g id="xtick_1">
     <g id="line2d_1">
      <defs>
       <path id="m66c24750dc" d="M 0 0 
L 0 3.5 
" style="stroke: #000000; stroke-width: 0.8"/>
      </defs>
      <g>
       <use xlink:href="#m66c24750dc" x="58.270313" y="202.08625" style="stroke: #000000; stroke-width: 0.8"/>
      </g>
     </g>
     <g id="text_1">
      <!-- 0 -->
      <g transform="translate(53.821563 220.53875) scale(0.16 -0.16)">
       <defs>
        <path id="ArialMT-30" d="M 266 2259 
Q 266 3072 433 3567 
Q 600 4063 929 4331 
Q 1259 4600 1759 4600 
Q 2128 4600 2406 4451 
Q 2684 4303 2865 4023 
Q 3047 3744 3150 3342 
Q 3253 2941 3253 2259 
Q 3253 1453 3087 958 
Q 2922 463 2592 192 
Q 2263 -78 1759 -78 
Q 1097 -78 719 397 
Q 266 969 266 2259 
z
M 844 2259 
Q 844 1131 1108 757 
Q 1372 384 1759 384 
Q 2147 384 2411 759 
Q 2675 1134 2675 2259 
Q 2675 3391 2411 3762 
Q 2147 4134 1753 4134 
Q 1366 4134 1134 3806 
Q 844 3388 844 2259 
z
" transform="scale(0.015625)"/>
       </defs>
       <use xlink:href="#ArialMT-30"/>
      </g>
     </g>
    </g>
    <g id="xtick_2">
     <g id="line2d_2">
      <g>
       <use xlink:href="#m66c24750dc" x="150.278133" y="202.08625" style="stroke: #000000; stroke-width: 0.8"/>
      </g>
     </g>
     <g id="text_2">
      <!-- 128 -->
      <g transform="translate(136.931883 220.53875) scale(0.16 -0.16)">
       <defs>
        <path id="ArialMT-31" d="M 2384 0 
L 1822 0 
L 1822 3584 
Q 1619 3391 1289 3197 
Q 959 3003 697 2906 
L 697 3450 
Q 1169 3672 1522 3987 
Q 1875 4303 2022 4600 
L 2384 4600 
L 2384 0 
z
" transform="scale(0.015625)"/>
        <path id="ArialMT-32" d="M 3222 541 
L 3222 0 
L 194 0 
Q 188 203 259 391 
Q 375 700 629 1000 
Q 884 1300 1366 1694 
Q 2113 2306 2375 2664 
Q 2638 3022 2638 3341 
Q 2638 3675 2398 3904 
Q 2159 4134 1775 4134 
Q 1369 4134 1125 3890 
Q 881 3647 878 3216 
L 300 3275 
Q 359 3922 746 4261 
Q 1134 4600 1788 4600 
Q 2447 4600 2831 4234 
Q 3216 3869 3216 3328 
Q 3216 3053 3103 2787 
Q 2991 2522 2730 2228 
Q 2469 1934 1863 1422 
Q 1356 997 1212 845 
Q 1069 694 975 541 
L 3222 541 
z
" transform="scale(0.015625)"/>
        <path id="ArialMT-38" d="M 1131 2484 
Q 781 2613 612 2850 
Q 444 3088 444 3419 
Q 444 3919 803 4259 
Q 1163 4600 1759 4600 
Q 2359 4600 2725 4251 
Q 3091 3903 3091 3403 
Q 3091 3084 2923 2848 
Q 2756 2613 2416 2484 
Q 2838 2347 3058 2040 
Q 3278 1734 3278 1309 
Q 3278 722 2862 322 
Q 2447 -78 1769 -78 
Q 1091 -78 675 323 
Q 259 725 259 1325 
Q 259 1772 486 2073 
Q 713 2375 1131 2484 
z
M 1019 3438 
Q 1019 3113 1228 2906 
Q 1438 2700 1772 2700 
Q 2097 2700 2305 2904 
Q 2513 3109 2513 3406 
Q 2513 3716 2298 3927 
Q 2084 4138 1766 4138 
Q 1444 4138 1231 3931 
Q 1019 3725 1019 3438 
z
M 838 1322 
Q 838 1081 952 856 
Q 1066 631 1291 507 
Q 1516 384 1775 384 
Q 2178 384 2440 643 
Q 2703 903 2703 1303 
Q 2703 1709 2433 1975 
Q 2163 2241 1756 2241 
Q 1359 2241 1098 1978 
Q 838 1716 838 1322 
z
" transform="scale(0.015625)"/>
       </defs>
       <use xlink:href="#ArialMT-31"/>
       <use xlink:href="#ArialMT-32" x="55.615234"/>
       <use xlink:href="#ArialMT-38" x="111.230469"/>
      </g>
     </g>
    </g>
    <g id="xtick_3">
     <g id="line2d_3">
      <g>
       <use xlink:href="#m66c24750dc" x="242.285953" y="202.08625" style="stroke: #000000; stroke-width: 0.8"/>
      </g>
     </g>
     <g id="text_3">
      <!-- 256 -->
      <g transform="translate(228.939703 220.53875) scale(0.16 -0.16)">
       <defs>
        <path id="ArialMT-35" d="M 266 1200 
L 856 1250 
Q 922 819 1161 601 
Q 1400 384 1738 384 
Q 2144 384 2425 690 
Q 2706 997 2706 1503 
Q 2706 1984 2436 2262 
Q 2166 2541 1728 2541 
Q 1456 2541 1237 2417 
Q 1019 2294 894 2097 
L 366 2166 
L 809 4519 
L 3088 4519 
L 3088 3981 
L 1259 3981 
L 1013 2750 
Q 1425 3038 1878 3038 
Q 2478 3038 2890 2622 
Q 3303 2206 3303 1553 
Q 3303 931 2941 478 
Q 2500 -78 1738 -78 
Q 1113 -78 717 272 
Q 322 622 266 1200 
z
" transform="scale(0.015625)"/>
        <path id="ArialMT-36" d="M 3184 3459 
L 2625 3416 
Q 2550 3747 2413 3897 
Q 2184 4138 1850 4138 
Q 1581 4138 1378 3988 
Q 1113 3794 959 3422 
Q 806 3050 800 2363 
Q 1003 2672 1297 2822 
Q 1591 2972 1913 2972 
Q 2475 2972 2870 2558 
Q 3266 2144 3266 1488 
Q 3266 1056 3080 686 
Q 2894 316 2569 119 
Q 2244 -78 1831 -78 
Q 1128 -78 684 439 
Q 241 956 241 2144 
Q 241 3472 731 4075 
Q 1159 4600 1884 4600 
Q 2425 4600 2770 4297 
Q 3116 3994 3184 3459 
z
M 888 1484 
Q 888 1194 1011 928 
Q 1134 663 1356 523 
Q 1578 384 1822 384 
Q 2178 384 2434 671 
Q 2691 959 2691 1453 
Q 2691 1928 2437 2201 
Q 2184 2475 1800 2475 
Q 1419 2475 1153 2201 
Q 888 1928 888 1484 
z
" transform="scale(0.015625)"/>
       </defs>
       <use xlink:href="#ArialMT-32"/>
       <use xlink:href="#ArialMT-35" x="55.615234"/>
       <use xlink:href="#ArialMT-36" x="111.230469"/>
      </g>
     </g>
    </g>
    <g id="xtick_4">
     <g id="line2d_4">
      <g>
       <use xlink:href="#m66c24750dc" x="334.293772" y="202.08625" style="stroke: #000000; stroke-width: 0.8"/>
      </g>
     </g>
     <g id="text_4">
      <!-- 384 -->
      <g transform="translate(320.947522 220.53875) scale(0.16 -0.16)">
       <defs>
        <path id="ArialMT-33" d="M 269 1209 
L 831 1284 
Q 928 806 1161 595 
Q 1394 384 1728 384 
Q 2125 384 2398 659 
Q 2672 934 2672 1341 
Q 2672 1728 2419 1979 
Q 2166 2231 1775 2231 
Q 1616 2231 1378 2169 
L 1441 2663 
Q 1497 2656 1531 2656 
Q 1891 2656 2178 2843 
Q 2466 3031 2466 3422 
Q 2466 3731 2256 3934 
Q 2047 4138 1716 4138 
Q 1388 4138 1169 3931 
Q 950 3725 888 3313 
L 325 3413 
Q 428 3978 793 4289 
Q 1159 4600 1703 4600 
Q 2078 4600 2393 4439 
Q 2709 4278 2876 4000 
Q 3044 3722 3044 3409 
Q 3044 3113 2884 2869 
Q 2725 2625 2413 2481 
Q 2819 2388 3044 2092 
Q 3269 1797 3269 1353 
Q 3269 753 2831 336 
Q 2394 -81 1725 -81 
Q 1122 -81 723 278 
Q 325 638 269 1209 
z
" transform="scale(0.015625)"/>
        <path id="ArialMT-34" d="M 2069 0 
L 2069 1097 
L 81 1097 
L 81 1613 
L 2172 4581 
L 2631 4581 
L 2631 1613 
L 3250 1613 
L 3250 1097 
L 2631 1097 
L 2631 0 
L 2069 0 
z
M 2069 1613 
L 2069 3678 
L 634 1613 
L 2069 1613 
z
" transform="scale(0.015625)"/>
       </defs>
       <use xlink:href="#ArialMT-33"/>
       <use xlink:href="#ArialMT-38" x="55.615234"/>
       <use xlink:href="#ArialMT-34" x="111.230469"/>
      </g>
     </g>
    </g>
    <g id="xtick_5">
     <g id="line2d_5">
      <g>
       <use xlink:href="#m66c24750dc" x="426.301593" y="202.08625" style="stroke: #000000; stroke-width: 0.8"/>
      </g>
     </g>
     <g id="text_5">
      <!-- 512 -->
      <g transform="translate(412.955343 220.53875) scale(0.16 -0.16)">
       <use xlink:href="#ArialMT-35"/>
       <use xlink:href="#ArialMT-31" x="55.615234"/>
       <use xlink:href="#ArialMT-32" x="111.230469"/>
      </g>
     </g>
    </g>
    <g id="xtick_6">
     <g id="line2d_6">
      <g>
       <use xlink:href="#m66c24750dc" x="518.309413" y="202.08625" style="stroke: #000000; stroke-width: 0.8"/>
      </g>
     </g>
     <g id="text_6">
      <!-- 640 -->
      <g transform="translate(504.963163 220.53875) scale(0.16 -0.16)">
       <use xlink:href="#ArialMT-36"/>
       <use xlink:href="#ArialMT-34" x="55.615234"/>
       <use xlink:href="#ArialMT-30" x="111.230469"/>
      </g>
     </g>
    </g>
    <g id="text_7">
     <!-- Trial -->
     <g transform="translate(270.176034 241.318594) scale(0.19 -0.19)">
      <defs>
       <path id="ArialMT-54" d="M 1659 0 
L 1659 4041 
L 150 4041 
L 150 4581 
L 3781 4581 
L 3781 4041 
L 2266 4041 
L 2266 0 
L 1659 0 
z
" transform="scale(0.015625)"/>
       <path id="ArialMT-72" d="M 416 0 
L 416 3319 
L 922 3319 
L 922 2816 
Q 1116 3169 1280 3281 
Q 1444 3394 1641 3394 
Q 1925 3394 2219 3213 
L 2025 2691 
Q 1819 2813 1613 2813 
Q 1428 2813 1281 2702 
Q 1134 2591 1072 2394 
Q 978 2094 978 1738 
L 978 0 
L 416 0 
z
" transform="scale(0.015625)"/>
       <path id="ArialMT-69" d="M 425 3934 
L 425 4581 
L 988 4581 
L 988 3934 
L 425 3934 
z
M 425 0 
L 425 3319 
L 988 3319 
L 988 0 
L 425 0 
z
" transform="scale(0.015625)"/>
       <path id="ArialMT-61" d="M 2588 409 
Q 2275 144 1986 34 
Q 1697 -75 1366 -75 
Q 819 -75 525 192 
Q 231 459 231 875 
Q 231 1119 342 1320 
Q 453 1522 633 1644 
Q 813 1766 1038 1828 
Q 1203 1872 1538 1913 
Q 2219 1994 2541 2106 
Q 2544 2222 2544 2253 
Q 2544 2597 2384 2738 
Q 2169 2928 1744 2928 
Q 1347 2928 1158 2789 
Q 969 2650 878 2297 
L 328 2372 
Q 403 2725 575 2942 
Q 747 3159 1072 3276 
Q 1397 3394 1825 3394 
Q 2250 3394 2515 3294 
Q 2781 3194 2906 3042 
Q 3031 2891 3081 2659 
Q 3109 2516 3109 2141 
L 3109 1391 
Q 3109 606 3145 398 
Q 3181 191 3288 0 
L 2700 0 
Q 2613 175 2588 409 
z
M 2541 1666 
Q 2234 1541 1622 1453 
Q 1275 1403 1131 1340 
Q 988 1278 909 1158 
Q 831 1038 831 891 
Q 831 666 1001 516 
Q 1172 366 1500 366 
Q 1825 366 2078 508 
Q 2331 650 2450 897 
Q 2541 1088 2541 1459 
L 2541 1666 
z
" transform="scale(0.015625)"/>
       <path id="ArialMT-6c" d="M 409 0 
L 409 4581 
L 972 4581 
L 972 0 
L 409 0 
z
" transform="scale(0.015625)"/>
      </defs>
      <use xlink:href="#ArialMT-54"/>
      <use xlink:href="#ArialMT-72" x="57.333984"/>
      <use xlink:href="#ArialMT-69" x="90.634766"/>
      <use xlink:href="#ArialMT-61" x="112.851562"/>
      <use xlink:href="#ArialMT-6c" x="168.466797"/>
     </g>
    </g>
   </g>
   <g id="matplotlib.axis_2">
    <g id="ytick_1">
     <g id="line2d_7">
      <defs>
       <path id="m97627a9dbe" d="M 0 0 
L -3.5 0 
" style="stroke: #000000; stroke-width: 0.8"/>
      </defs>
      <g>
       <use xlink:href="#m97627a9dbe" x="58.270313" y="202.08625" style="stroke: #000000; stroke-width: 0.8"/>
      </g>
     </g>
     <g id="text_8">
      <!-- 0.0 -->
      <g transform="translate(29.030313 207.8125) scale(0.16 -0.16)">
       <defs>
        <path id="ArialMT-2e" d="M 581 0 
L 581 641 
L 1222 641 
L 1222 0 
L 581 0 
z
" transform="scale(0.015625)"/>
       </defs>
       <use xlink:href="#ArialMT-30"/>
       <use xlink:href="#ArialMT-2e" x="55.615234"/>
       <use xlink:href="#ArialMT-30" x="83.398438"/>
      </g>
     </g>
    </g>
    <g id="ytick_2">
     <g id="line2d_8">
      <g>
       <use xlink:href="#m97627a9dbe" x="58.270313" y="164.25425" style="stroke: #000000; stroke-width: 0.8"/>
      </g>
     </g>
     <g id="text_9">
      <!-- 0.2 -->
      <g transform="translate(29.030313 169.9805) scale(0.16 -0.16)">
       <use xlink:href="#ArialMT-30"/>
       <use xlink:href="#ArialMT-2e" x="55.615234"/>
       <use xlink:href="#ArialMT-32" x="83.398438"/>
      </g>
     </g>
    </g>
    <g id="ytick_3">
     <g id="line2d_9">
      <g>
       <use xlink:href="#m97627a9dbe" x="58.270313" y="126.42225" style="stroke: #000000; stroke-width: 0.8"/>
      </g>
     </g>
     <g id="text_10">
      <!-- 0.4 -->
      <g transform="translate(29.030313 132.1485) scale(0.16 -0.16)">
       <use xlink:href="#ArialMT-30"/>
       <use xlink:href="#ArialMT-2e" x="55.615234"/>
       <use xlink:href="#ArialMT-34" x="83.398438"/>
      </g>
     </g>
    </g>
    <g id="ytick_4">
     <g id="line2d_10">
      <g>
       <use xlink:href="#m97627a9dbe" x="58.270313" y="88.59025" style="stroke: #000000; stroke-width: 0.8"/>
      </g>
     </g>
     <g id="text_11">
      <!-- 0.6 -->
      <g transform="translate(29.030313 94.3165) scale(0.16 -0.16)">
       <use xlink:href="#ArialMT-30"/>
       <use xlink:href="#ArialMT-2e" x="55.615234"/>
       <use xlink:href="#ArialMT-36" x="83.398438"/>
      </g>
     </g>
    </g>
    <g id="ytick_5">
     <g id="line2d_11">
      <g>
       <use xlink:href="#m97627a9dbe" x="58.270313" y="50.75825" style="stroke: #000000; stroke-width: 0.8"/>
      </g>
     </g>
     <g id="text_12">
      <!-- 0.8 -->
      <g transform="translate(29.030313 56.4845) scale(0.16 -0.16)">
       <use xlink:href="#ArialMT-30"/>
       <use xlink:href="#ArialMT-2e" x="55.615234"/>
       <use xlink:href="#ArialMT-38" x="83.398438"/>
      </g>
     </g>
    </g>
    <g id="ytick_6">
     <g id="line2d_12">
      <g>
       <use xlink:href="#m97627a9dbe" x="58.270313" y="12.92625" style="stroke: #000000; stroke-width: 0.8"/>
      </g>
     </g>
     <g id="text_13">
      <!-- 1.0 -->
      <g transform="translate(29.030313 18.6525) scale(0.16 -0.16)">
       <use xlink:href="#ArialMT-31"/>
       <use xlink:href="#ArialMT-2e" x="55.615234"/>
       <use xlink:href="#ArialMT-30" x="83.398438"/>
      </g>
     </g>
    </g>
    <g id="text_14">
     <!-- P(true-hypo) -->
     <g transform="translate(21.031406 160.299531) rotate(-90) scale(0.19 -0.19)">
      <defs>
       <path id="ArialMT-50" d="M 494 0 
L 494 4581 
L 2222 4581 
Q 2678 4581 2919 4538 
Q 3256 4481 3484 4323 
Q 3713 4166 3852 3881 
Q 3991 3597 3991 3256 
Q 3991 2672 3619 2267 
Q 3247 1863 2275 1863 
L 1100 1863 
L 1100 0 
L 494 0 
z
M 1100 2403 
L 2284 2403 
Q 2872 2403 3119 2622 
Q 3366 2841 3366 3238 
Q 3366 3525 3220 3729 
Q 3075 3934 2838 4000 
Q 2684 4041 2272 4041 
L 1100 4041 
L 1100 2403 
z
" transform="scale(0.015625)"/>
       <path id="ArialMT-28" d="M 1497 -1347 
Q 1031 -759 709 28 
Q 388 816 388 1659 
Q 388 2403 628 3084 
Q 909 3875 1497 4659 
L 1900 4659 
Q 1522 4009 1400 3731 
Q 1209 3300 1100 2831 
Q 966 2247 966 1656 
Q 966 153 1900 -1347 
L 1497 -1347 
z
" transform="scale(0.015625)"/>
       <path id="ArialMT-74" d="M 1650 503 
L 1731 6 
Q 1494 -44 1306 -44 
Q 1000 -44 831 53 
Q 663 150 594 308 
Q 525 466 525 972 
L 525 2881 
L 113 2881 
L 113 3319 
L 525 3319 
L 525 4141 
L 1084 4478 
L 1084 3319 
L 1650 3319 
L 1650 2881 
L 1084 2881 
L 1084 941 
Q 1084 700 1114 631 
Q 1144 563 1211 522 
Q 1278 481 1403 481 
Q 1497 481 1650 503 
z
" transform="scale(0.015625)"/>
       <path id="ArialMT-75" d="M 2597 0 
L 2597 488 
Q 2209 -75 1544 -75 
Q 1250 -75 995 37 
Q 741 150 617 320 
Q 494 491 444 738 
Q 409 903 409 1263 
L 409 3319 
L 972 3319 
L 972 1478 
Q 972 1038 1006 884 
Q 1059 663 1231 536 
Q 1403 409 1656 409 
Q 1909 409 2131 539 
Q 2353 669 2445 892 
Q 2538 1116 2538 1541 
L 2538 3319 
L 3100 3319 
L 3100 0 
L 2597 0 
z
" transform="scale(0.015625)"/>
       <path id="ArialMT-65" d="M 2694 1069 
L 3275 997 
Q 3138 488 2766 206 
Q 2394 -75 1816 -75 
Q 1088 -75 661 373 
Q 234 822 234 1631 
Q 234 2469 665 2931 
Q 1097 3394 1784 3394 
Q 2450 3394 2872 2941 
Q 3294 2488 3294 1666 
Q 3294 1616 3291 1516 
L 816 1516 
Q 847 969 1125 678 
Q 1403 388 1819 388 
Q 2128 388 2347 550 
Q 2566 713 2694 1069 
z
M 847 1978 
L 2700 1978 
Q 2663 2397 2488 2606 
Q 2219 2931 1791 2931 
Q 1403 2931 1139 2672 
Q 875 2413 847 1978 
z
" transform="scale(0.015625)"/>
       <path id="ArialMT-2d" d="M 203 1375 
L 203 1941 
L 1931 1941 
L 1931 1375 
L 203 1375 
z
" transform="scale(0.015625)"/>
       <path id="ArialMT-68" d="M 422 0 
L 422 4581 
L 984 4581 
L 984 2938 
Q 1378 3394 1978 3394 
Q 2347 3394 2619 3248 
Q 2891 3103 3008 2847 
Q 3125 2591 3125 2103 
L 3125 0 
L 2563 0 
L 2563 2103 
Q 2563 2525 2380 2717 
Q 2197 2909 1863 2909 
Q 1613 2909 1392 2779 
Q 1172 2650 1078 2428 
Q 984 2206 984 1816 
L 984 0 
L 422 0 
z
" transform="scale(0.015625)"/>
       <path id="ArialMT-79" d="M 397 -1278 
L 334 -750 
Q 519 -800 656 -800 
Q 844 -800 956 -737 
Q 1069 -675 1141 -563 
Q 1194 -478 1313 -144 
Q 1328 -97 1363 -6 
L 103 3319 
L 709 3319 
L 1400 1397 
Q 1534 1031 1641 628 
Q 1738 1016 1872 1384 
L 2581 3319 
L 3144 3319 
L 1881 -56 
Q 1678 -603 1566 -809 
Q 1416 -1088 1222 -1217 
Q 1028 -1347 759 -1347 
Q 597 -1347 397 -1278 
z
" transform="scale(0.015625)"/>
       <path id="ArialMT-70" d="M 422 -1272 
L 422 3319 
L 934 3319 
L 934 2888 
Q 1116 3141 1344 3267 
Q 1572 3394 1897 3394 
Q 2322 3394 2647 3175 
Q 2972 2956 3137 2557 
Q 3303 2159 3303 1684 
Q 3303 1175 3120 767 
Q 2938 359 2589 142 
Q 2241 -75 1856 -75 
Q 1575 -75 1351 44 
Q 1128 163 984 344 
L 984 -1272 
L 422 -1272 
z
M 931 1641 
Q 931 1000 1190 694 
Q 1450 388 1819 388 
Q 2194 388 2461 705 
Q 2728 1022 2728 1688 
Q 2728 2322 2467 2637 
Q 2206 2953 1844 2953 
Q 1484 2953 1207 2617 
Q 931 2281 931 1641 
z
" transform="scale(0.015625)"/>
       <path id="ArialMT-6f" d="M 213 1659 
Q 213 2581 725 3025 
Q 1153 3394 1769 3394 
Q 2453 3394 2887 2945 
Q 3322 2497 3322 1706 
Q 3322 1066 3130 698 
Q 2938 331 2570 128 
Q 2203 -75 1769 -75 
Q 1072 -75 642 372 
Q 213 819 213 1659 
z
M 791 1659 
Q 791 1022 1069 705 
Q 1347 388 1769 388 
Q 2188 388 2466 706 
Q 2744 1025 2744 1678 
Q 2744 2294 2464 2611 
Q 2184 2928 1769 2928 
Q 1347 2928 1069 2612 
Q 791 2297 791 1659 
z
" transform="scale(0.015625)"/>
       <path id="ArialMT-29" d="M 791 -1347 
L 388 -1347 
Q 1322 153 1322 1656 
Q 1322 2244 1188 2822 
Q 1081 3291 891 3722 
Q 769 4003 388 4659 
L 791 4659 
Q 1378 3875 1659 3084 
Q 1900 2403 1900 1659 
Q 1900 816 1576 28 
Q 1253 -759 791 -1347 
z
" transform="scale(0.015625)"/>
      </defs>
      <use xlink:href="#ArialMT-50"/>
      <use xlink:href="#ArialMT-28" x="66.699219"/>
      <use xlink:href="#ArialMT-74" x="100"/>
      <use xlink:href="#ArialMT-72" x="127.783203"/>
      <use xlink:href="#ArialMT-75" x="161.083984"/>
      <use xlink:href="#ArialMT-65" x="216.699219"/>
      <use xlink:href="#ArialMT-2d" x="272.314453"/>
      <use xlink:href="#ArialMT-68" x="305.615234"/>
      <use xlink:href="#ArialMT-79" x="361.230469"/>
      <use xlink:href="#ArialMT-70" x="411.230469"/>
      <use xlink:href="#ArialMT-6f" x="466.845703"/>
      <use xlink:href="#ArialMT-29" x="522.460938"/>
     </g>
    </g>
   </g>
   <g id="line2d_13">
    <path d="M 69.77129 190.26375 
L 77.678212 190.26375 
L 78.397023 202.08625 
L 89.17919 202.08625 
L 89.898001 190.26375 
L 100.680167 190.26375 
L 101.398978 202.08625 
L 146.684077 202.08625 
L 148.84051 166.61875 
L 149.559321 166.61875 
L 150.278133 154.79625 
L 150.996944 154.79625 
L 152.434566 131.15125 
L 153.153377 131.15125 
L 153.872188 119.32875 
L 156.028621 119.32875 
L 157.466243 95.68375 
L 158.903866 95.68375 
L 160.341488 119.32875 
L 161.060299 119.32875 
L 161.77911 131.15125 
L 162.497921 131.15125 
L 163.216732 142.97375 
L 163.935543 142.97375 
L 164.654354 131.15125 
L 165.373165 142.97375 
L 166.091977 142.97375 
L 167.529599 119.32875 
L 168.967221 142.97375 
L 173.280088 142.97375 
L 173.998899 131.15125 
L 175.436521 131.15125 
L 176.155332 142.97375 
L 177.592954 142.97375 
L 179.030576 166.61875 
L 181.18701 131.15125 
L 181.905821 142.97375 
L 186.218687 142.97375 
L 186.937498 154.79625 
L 189.093932 154.79625 
L 189.812743 142.97375 
L 191.250365 142.97375 
L 191.969176 154.79625 
L 194.84442 154.79625 
L 195.563231 142.97375 
L 196.282043 142.97375 
L 197.000854 154.79625 
L 200.594909 154.79625 
L 201.31372 166.61875 
L 202.032531 166.61875 
L 202.751342 178.44125 
L 204.188965 178.44125 
L 204.907776 166.61875 
L 206.345398 166.61875 
L 207.064209 178.44125 
L 208.501831 178.44125 
L 209.220642 166.61875 
L 214.971131 166.61875 
L 216.408753 190.26375 
L 220.002809 190.26375 
L 220.72162 202.08625 
L 225.034486 202.08625 
L 225.753297 190.26375 
L 236.535464 190.26375 
L 237.254275 202.08625 
L 237.973086 190.26375 
L 243.723575 190.26375 
L 244.442386 178.44125 
L 246.598819 178.44125 
L 247.31763 166.61875 
L 248.755252 166.61875 
L 249.474063 178.44125 
L 250.911686 154.79625 
L 253.068119 154.79625 
L 253.78693 142.97375 
L 254.505741 142.97375 
L 255.224552 131.15125 
L 255.943363 142.97375 
L 258.099797 142.97375 
L 258.818608 154.79625 
L 260.975041 154.79625 
L 262.412663 178.44125 
L 264.569096 178.44125 
L 265.287908 190.26375 
L 271.038396 190.26375 
L 272.476018 166.61875 
L 277.507696 166.61875 
L 278.226507 178.44125 
L 281.820563 178.44125 
L 282.539374 166.61875 
L 283.976996 190.26375 
L 290.446296 190.26375 
L 291.165107 178.44125 
L 293.32154 178.44125 
L 294.040351 190.26375 
L 296.196785 190.26375 
L 296.915596 178.44125 
L 300.509651 178.44125 
L 301.947273 154.79625 
L 302.666084 166.61875 
L 303.384895 154.79625 
L 304.103707 154.79625 
L 304.822518 142.97375 
L 307.697762 142.97375 
L 308.416573 154.79625 
L 312.010629 154.79625 
L 313.448251 178.44125 
L 314.167062 178.44125 
L 314.885873 190.26375 
L 315.604684 190.26375 
L 316.323495 202.08625 
L 317.042306 190.26375 
L 319.917551 190.26375 
L 320.636362 178.44125 
L 323.511606 178.44125 
L 327.824473 107.50625 
L 328.543284 107.50625 
L 330.699717 72.03875 
L 331.418528 72.03875 
L 332.137339 83.86125 
L 332.85615 72.03875 
L 335.731395 72.03875 
L 336.450206 83.86125 
L 337.887828 83.86125 
L 338.606639 95.68375 
L 340.044261 95.68375 
L 341.481883 119.32875 
L 342.200695 119.32875 
L 343.638317 95.68375 
L 345.075939 95.68375 
L 346.513561 72.03875 
L 347.951183 72.03875 
L 348.669994 83.86125 
L 350.107617 83.86125 
L 350.826428 95.68375 
L 351.545239 95.68375 
L 352.982861 72.03875 
L 354.420483 95.68375 
L 355.139294 95.68375 
L 355.858105 107.50625 
L 356.576916 95.68375 
L 358.014539 119.32875 
L 358.73335 119.32875 
L 359.452161 107.50625 
L 360.170972 107.50625 
L 360.889783 119.32875 
L 362.327405 119.32875 
L 364.483838 154.79625 
L 368.077894 154.79625 
L 368.796705 142.97375 
L 369.515516 142.97375 
L 370.953138 166.61875 
L 371.671949 166.61875 
L 373.828383 131.15125 
L 374.547194 131.15125 
L 375.984816 107.50625 
L 376.703627 107.50625 
L 377.422438 95.68375 
L 383.172927 95.68375 
L 385.32936 131.15125 
L 386.766982 131.15125 
L 387.485793 142.97375 
L 388.923416 142.97375 
L 389.642227 154.79625 
L 390.361038 142.97375 
L 391.079849 142.97375 
L 391.79866 154.79625 
L 396.111527 83.86125 
L 399.705582 83.86125 
L 400.424393 95.68375 
L 401.143204 95.68375 
L 402.580826 119.32875 
L 403.299638 119.32875 
L 407.612504 190.26375 
L 408.331315 190.26375 
L 409.050126 178.44125 
L 409.768937 178.44125 
L 410.487748 166.61875 
L 414.081804 166.61875 
L 415.519426 142.97375 
L 417.675859 142.97375 
L 419.832293 107.50625 
L 421.988726 107.50625 
L 424.86397 60.21625 
L 427.020404 60.21625 
L 427.739215 48.39375 
L 428.458026 48.39375 
L 429.176837 36.57125 
L 432.052081 36.57125 
L 432.770892 48.39375 
L 436.364948 48.39375 
L 437.083759 36.57125 
L 439.240192 36.57125 
L 439.959003 24.74875 
L 443.553059 24.74875 
L 444.27187 12.92625 
L 444.990681 24.74875 
L 452.897603 24.74875 
L 453.616414 36.57125 
L 455.772847 36.57125 
L 456.491658 24.74875 
L 464.39858 24.74875 
L 465.117392 12.92625 
L 466.555014 12.92625 
L 467.273825 24.74875 
L 478.055991 24.74875 
L 478.774802 12.92625 
L 517.590601 12.92625 
L 517.590601 12.92625 
" style="fill: none; stroke: #a6a6a6; stroke-width: 2; stroke-linecap: square"/>
   </g>
   <g id="line2d_14">
    <path d="M 69.77129 198.064166 
L 71.208912 197.458567 
L 71.927723 197.222246 
L 72.646534 197.143258 
L 74.084157 197.480121 
L 76.959401 197.239209 
L 77.678212 197.127025 
L 78.397023 197.237506 
L 79.115834 197.218122 
L 79.834645 197.021687 
L 81.991079 197.237489 
L 84.866323 196.660018 
L 86.303945 196.84582 
L 87.022756 196.67928 
L 89.17919 197.128574 
L 89.898001 197.039871 
L 90.616812 196.706128 
L 92.054434 196.56548 
L 93.492056 196.520592 
L 94.210867 196.756344 
L 95.648489 196.498274 
L 97.804923 196.297752 
L 98.523734 196.429746 
L 99.961356 196.356227 
L 100.680167 196.356129 
L 101.398978 196.539587 
L 102.8366 197.233864 
L 104.274223 197.511867 
L 104.993034 197.294822 
L 107.149467 194.882308 
L 107.868278 194.766247 
L 110.024711 193.918573 
L 111.462333 193.655339 
L 112.181145 193.100754 
L 112.899956 191.94897 
L 113.618767 191.207276 
L 114.337578 190.770096 
L 115.056389 190.058046 
L 115.7752 189.530649 
L 116.494011 189.41787 
L 117.212822 189.993353 
L 117.931633 190.8996 
L 118.650444 191.50358 
L 119.369255 191.014984 
L 120.088067 190.718439 
L 120.806878 189.892927 
L 121.525689 189.431383 
L 122.2445 189.536456 
L 122.963311 189.482938 
L 123.682122 189.885563 
L 124.400933 190.903174 
L 125.119744 191.324557 
L 125.838555 191.495512 
L 127.276178 192.100638 
L 127.994989 192.306506 
L 128.7138 192.046807 
L 129.432611 192.028119 
L 130.151422 191.852247 
L 130.870233 192.298628 
L 131.589044 191.961829 
L 132.307855 192.429571 
L 133.026666 192.207032 
L 133.745477 191.577416 
L 135.901911 191.232872 
L 138.058344 191.711449 
L 138.777155 191.490629 
L 139.495966 190.911436 
L 140.214777 190.894148 
L 140.933588 190.518999 
L 141.652399 190.391243 
L 142.37121 189.655607 
L 143.090022 189.735077 
L 143.808833 189.149237 
L 144.527644 189.241751 
L 145.246455 188.578175 
L 145.965266 187.705457 
L 146.684077 187.216695 
L 147.402888 186.248942 
L 148.84051 183.536393 
L 150.278133 182.835741 
L 150.996944 182.948499 
L 151.715755 182.216919 
L 152.434566 181.282625 
L 153.872188 180.262548 
L 156.028621 179.379636 
L 156.747432 179.1805 
L 157.466243 178.464554 
L 158.185055 176.121297 
L 158.903866 173.148412 
L 161.060299 166.189137 
L 161.77911 165.135612 
L 162.497921 163.334838 
L 163.216732 162.135644 
L 163.935543 161.655249 
L 164.654354 160.584342 
L 165.373165 160.01892 
L 166.091977 159.260913 
L 166.810788 159.431934 
L 167.529599 157.479102 
L 168.24841 156.898771 
L 168.967221 157.671638 
L 169.686032 159.021444 
L 170.404843 160.999358 
L 171.123654 162.286562 
L 171.842465 163.992548 
L 173.280088 164.336798 
L 173.998899 165.549626 
L 174.71771 167.06389 
L 176.155332 171.557335 
L 176.874143 173.565817 
L 177.592954 174.882208 
L 178.311765 175.645995 
L 179.030576 178.241724 
L 179.749387 179.217896 
L 180.468198 178.373892 
L 181.18701 177.863171 
L 181.905821 178.273673 
L 182.624632 179.480005 
L 183.343443 179.525499 
L 184.062254 180.517202 
L 184.781065 179.696094 
L 185.499876 179.203844 
L 186.218687 178.037067 
L 186.937498 175.395356 
L 187.656309 173.496816 
L 189.093932 170.696665 
L 189.812743 169.071005 
L 190.531554 166.772358 
L 191.250365 165.23704 
L 191.969176 165.009527 
L 192.687987 165.856947 
L 193.406798 166.435864 
L 194.125609 165.533132 
L 194.84442 166.186074 
L 195.563231 166.584154 
L 196.282043 167.383954 
L 197.000854 166.815087 
L 197.719665 166.794437 
L 198.438476 167.705257 
L 199.876098 166.637269 
L 200.594909 167.105716 
L 201.31372 167.107707 
L 202.032531 168.125471 
L 202.751342 168.490483 
L 203.470153 168.600925 
L 204.188965 167.564979 
L 205.626587 166.269092 
L 207.064209 163.234075 
L 208.501831 165.694828 
L 209.220642 165.883211 
L 209.939453 165.853646 
L 210.658264 165.268602 
L 211.377075 163.519313 
L 212.095887 162.629461 
L 212.814698 162.750254 
L 213.533509 161.933548 
L 214.25232 162.143621 
L 214.971131 162.563248 
L 215.689942 162.503102 
L 216.408753 161.319676 
L 217.846375 159.390557 
L 218.565186 158.700831 
L 220.002809 155.047556 
L 220.72162 153.972989 
L 221.440431 153.19291 
L 222.878053 159.076737 
L 223.596864 160.145589 
L 224.315675 160.716981 
L 225.034486 162.082897 
L 225.753297 162.908917 
L 226.472108 163.242343 
L 227.19092 163.449467 
L 228.628542 165.796781 
L 229.347353 167.535578 
L 230.066164 170.451585 
L 231.503786 174.751099 
L 232.222597 177.164842 
L 232.941408 178.144626 
L 233.660219 176.800289 
L 234.37903 175.099267 
L 235.097842 174.594925 
L 235.816653 174.48398 
L 236.535464 173.139348 
L 237.254275 172.085678 
L 237.973086 170.008287 
L 238.691897 168.676391 
L 239.410708 166.070535 
L 240.129519 164.431495 
L 240.84833 161.389131 
L 241.567141 156.951354 
L 242.285953 155.857768 
L 243.004764 155.121774 
L 243.723575 155.262096 
L 245.161197 156.668841 
L 245.880008 158.104844 
L 248.036441 161.149466 
L 248.755252 162.335047 
L 249.474063 164.562549 
L 250.192875 166.037702 
L 250.911686 166.716425 
L 251.630497 166.796696 
L 252.349308 167.914008 
L 253.068119 167.147277 
L 253.78693 162.938183 
L 254.505741 160.135165 
L 255.224552 155.888182 
L 255.943363 153.148235 
L 256.662174 151.449065 
L 257.380985 150.270599 
L 258.818608 148.664453 
L 259.537419 148.450718 
L 260.25623 148.01243 
L 260.975041 146.595987 
L 261.693852 146.572809 
L 262.412663 147.2924 
L 263.850285 147.052423 
L 264.569096 147.769415 
L 265.287908 149.814533 
L 266.006719 150.402152 
L 266.72553 150.203717 
L 267.444341 149.770223 
L 268.163152 147.101471 
L 268.881963 143.694115 
L 269.600774 141.606395 
L 270.319585 138.906054 
L 272.476018 128.47919 
L 273.19483 129.153945 
L 273.913641 131.001178 
L 274.632452 134.075011 
L 276.070074 141.012728 
L 276.788885 143.184584 
L 277.507696 144.002354 
L 278.945318 145.941136 
L 279.664129 148.511744 
L 280.38294 150.484312 
L 281.101752 151.093433 
L 281.820563 152.534685 
L 282.539374 153.652885 
L 283.976996 157.426581 
L 286.85224 147.941047 
L 287.571051 146.158926 
L 288.289863 144.765842 
L 289.008674 146.656424 
L 289.727485 149.465675 
L 290.446296 151.333295 
L 291.165107 150.834146 
L 291.883918 150.061782 
L 293.32154 145.884459 
L 294.040351 144.017252 
L 294.759162 140.640501 
L 295.477973 139.393596 
L 297.634407 128.842606 
L 298.353218 126.749467 
L 299.072029 123.997058 
L 299.79084 122.099316 
L 301.228462 114.354871 
L 301.947273 111.419926 
L 302.666084 110.747898 
L 303.384895 110.305054 
L 304.822518 113.015635 
L 306.26014 119.177802 
L 306.978951 120.154612 
L 307.697762 123.594583 
L 309.135384 129.090423 
L 309.854195 129.194158 
L 310.573006 130.66522 
L 311.291818 131.249621 
L 312.010629 132.478727 
L 312.72944 134.414748 
L 313.448251 135.650565 
L 314.167062 137.548295 
L 315.604684 145.204553 
L 317.761117 153.241736 
L 318.479928 156.848018 
L 319.19874 159.075802 
L 319.917551 160.613313 
L 320.636362 161.829614 
L 321.355173 164.335769 
L 322.073984 165.416114 
L 322.792795 165.47143 
L 323.511606 163.208704 
L 324.230417 161.506797 
L 324.949228 158.410861 
L 325.668039 156.786085 
L 327.824473 146.074683 
L 329.980906 133.726723 
L 331.418528 125.645087 
L 332.137339 123.308042 
L 332.85615 124.953572 
L 333.574961 127.746008 
L 334.293772 129.975975 
L 335.012584 133.803377 
L 335.731395 135.467991 
L 336.450206 138.695414 
L 337.169017 137.955263 
L 337.887828 136.678754 
L 338.606639 135.821616 
L 339.32545 135.308585 
L 340.763072 130.748889 
L 341.481883 129.406014 
L 342.919506 127.726083 
L 343.638317 124.164209 
L 345.075939 110.999474 
L 346.513561 101.825688 
L 347.232372 97.111515 
L 347.951183 93.442534 
L 348.669994 91.215802 
L 349.388805 89.91706 
L 350.107617 88.14987 
L 350.826428 88.192658 
L 351.545239 91.733897 
L 353.701672 100.127025 
L 354.420483 102.779306 
L 355.858105 110.832698 
L 356.576916 111.336859 
L 358.014539 111.284588 
L 358.73335 112.050933 
L 359.452161 111.783713 
L 360.170972 112.206028 
L 360.889783 114.201278 
L 361.608594 115.839764 
L 362.327405 117.117462 
L 364.483838 113.803383 
L 365.20265 114.269251 
L 365.921461 113.843518 
L 366.640272 112.467573 
L 367.359083 110.820549 
L 368.077894 111.378369 
L 368.796705 111.221756 
L 369.515516 111.580001 
L 370.234327 112.833633 
L 370.953138 114.496805 
L 372.39076 115.539204 
L 373.109572 115.222453 
L 373.828383 113.292452 
L 374.547194 110.958995 
L 376.703627 101.51787 
L 377.422438 99.368428 
L 379.578871 94.701782 
L 382.454116 91.173205 
L 383.172927 89.602485 
L 383.891738 86.33557 
L 384.610549 85.228247 
L 385.32936 85.122056 
L 386.048171 84.664839 
L 386.766982 85.441895 
L 387.485793 85.303517 
L 388.204605 85.442845 
L 389.642227 82.678333 
L 390.361038 86.612714 
L 391.079849 88.691947 
L 392.517471 95.639176 
L 393.236282 97.490723 
L 393.955093 97.887868 
L 394.673904 99.24132 
L 395.392715 100.111264 
L 396.111527 100.72161 
L 396.830338 101.612133 
L 397.549149 102.902544 
L 398.26796 103.892256 
L 398.986771 105.759572 
L 399.705582 106.257533 
L 400.424393 107.870548 
L 401.143204 108.971436 
L 401.862015 105.428208 
L 403.299638 99.72344 
L 404.018449 96.165151 
L 404.73726 99.541483 
L 406.174882 104.99018 
L 406.893693 107.172452 
L 407.612504 107.967437 
L 408.331315 107.650091 
L 409.050126 105.358207 
L 409.768937 103.69787 
L 410.487748 100.576787 
L 411.20656 98.112774 
L 411.925371 96.699549 
L 412.644182 96.890999 
L 414.081804 97.715613 
L 414.800615 96.62452 
L 415.519426 94.933755 
L 416.238237 87.133011 
L 417.675859 75.59473 
L 418.39467 71.36996 
L 419.113482 66.261998 
L 419.832293 63.038795 
L 420.551104 61.69154 
L 421.269915 60.902887 
L 421.988726 61.678587 
L 422.707537 62.985867 
L 423.426348 62.841804 
L 424.145159 61.974976 
L 424.86397 59.588199 
L 425.582781 58.66233 
L 426.301593 57.977591 
L 427.020404 58.40405 
L 427.739215 59.11985 
L 428.458026 63.699204 
L 429.176837 65.600158 
L 429.895648 66.709483 
L 432.052081 81.431031 
L 432.770892 86.222283 
L 433.489703 89.086764 
L 434.927326 91.783685 
L 435.646137 92.487014 
L 436.364948 93.959148 
L 437.083759 97.513349 
L 437.80257 100.152763 
L 438.521381 101.846141 
L 439.240192 102.981471 
L 439.959003 99.525374 
L 440.677814 99.029872 
L 441.396625 97.815885 
L 444.27187 80.575766 
L 445.709492 75.296369 
L 446.428303 73.405791 
L 447.147114 71.885109 
L 447.865925 71.404024 
L 449.303548 66.942787 
L 450.022359 66.007809 
L 450.74117 66.680307 
L 451.459981 66.050974 
L 452.178792 64.918394 
L 452.897603 65.355369 
L 453.616414 66.041924 
L 454.335225 70.216901 
L 455.054036 73.47759 
L 455.772847 74.793832 
L 456.491658 75.378517 
L 457.21047 75.321799 
L 458.648092 75.758462 
L 459.366903 74.315855 
L 460.085714 71.380153 
L 461.523336 67.808141 
L 462.242147 64.750945 
L 464.39858 61.024334 
L 465.117392 59.26354 
L 465.836203 54.325894 
L 466.555014 50.968139 
L 467.992636 47.147787 
L 468.711447 46.906946 
L 470.149069 44.905168 
L 470.86788 44.983452 
L 471.586691 45.65797 
L 472.305503 45.508805 
L 473.024314 48.83474 
L 473.743125 50.241601 
L 474.461936 50.375539 
L 475.180747 50.816516 
L 475.899558 52.836663 
L 476.618369 53.809097 
L 477.33718 58.661888 
L 478.055991 61.154662 
L 478.774802 62.389308 
L 479.493613 62.133812 
L 480.212425 61.631936 
L 480.931236 61.759473 
L 481.650047 62.007066 
L 482.368858 61.709493 
L 483.087669 61.669026 
L 483.80648 62.116008 
L 484.525291 59.191736 
L 485.244102 57.47654 
L 486.681724 56.575855 
L 487.400535 53.643843 
L 488.119347 52.19857 
L 488.838158 46.732742 
L 489.556969 43.71458 
L 490.27578 41.447775 
L 490.994591 41.022172 
L 492.432213 41.006636 
L 493.151024 40.705221 
L 493.869835 39.530269 
L 494.588646 38.569686 
L 496.026269 35.98194 
L 498.182702 34.289648 
L 498.901513 34.320268 
L 499.620324 34.64706 
L 500.339135 34.766087 
L 501.057946 34.006716 
L 501.776757 33.782219 
L 502.495568 33.86651 
L 503.21438 33.741518 
L 503.933191 34.10587 
L 504.652002 34.72919 
L 505.370813 35.606691 
L 506.089624 36.18935 
L 506.808435 37.192687 
L 507.527246 37.717614 
L 508.246057 38.510962 
L 508.964868 38.823307 
L 509.683679 39.624952 
L 510.40249 39.952225 
L 511.121302 40.127954 
L 511.840113 40.113552 
L 512.558924 40.42835 
L 513.996546 43.130967 
L 514.715357 45.910579 
L 515.434168 47.689524 
L 516.152979 48.603513 
L 516.87179 49.055196 
L 517.590601 49.229628 
L 517.590601 49.229628 
" style="fill: none; stroke: #ffc000; stroke-width: 2; stroke-linecap: square"/>
   </g>
   <g id="line2d_15">
    <path d="M 104.274223 202.08625 
L 104.274223 12.92625 
" clip-path="url(#pda876691f1)" style="fill: none; stroke-dasharray: 3.7,1.6; stroke-dashoffset: 0; stroke: #808080; stroke-opacity: 0.3"/>
   </g>
   <g id="line2d_16">
    <path d="M 150.278133 202.08625 
L 150.278133 12.92625 
" clip-path="url(#pda876691f1)" style="fill: none; stroke-dasharray: 3.7,1.6; stroke-dashoffset: 0; stroke: #808080; stroke-opacity: 0.3"/>
   </g>
   <g id="line2d_17">
    <path d="M 196.282043 202.08625 
L 196.282043 12.92625 
" clip-path="url(#pda876691f1)" style="fill: none; stroke-dasharray: 3.7,1.6; stroke-dashoffset: 0; stroke: #808080; stroke-opacity: 0.3"/>
   </g>
   <g id="line2d_18">
    <path d="M 242.285953 202.08625 
L 242.285953 12.92625 
" clip-path="url(#pda876691f1)" style="fill: none; stroke-dasharray: 3.7,1.6; stroke-dashoffset: 0; stroke: #808080; stroke-opacity: 0.3"/>
   </g>
   <g id="line2d_19">
    <path d="M 288.289863 202.08625 
L 288.289863 12.92625 
" clip-path="url(#pda876691f1)" style="fill: none; stroke-dasharray: 3.7,1.6; stroke-dashoffset: 0; stroke: #808080; stroke-opacity: 0.3"/>
   </g>
   <g id="line2d_20">
    <path d="M 334.293772 202.08625 
L 334.293772 12.92625 
" clip-path="url(#pda876691f1)" style="fill: none; stroke-dasharray: 3.7,1.6; stroke-dashoffset: 0; stroke: #808080; stroke-opacity: 0.3"/>
   </g>
   <g id="line2d_21">
    <path d="M 380.297683 202.08625 
L 380.297683 12.92625 
" clip-path="url(#pda876691f1)" style="fill: none; stroke-dasharray: 3.7,1.6; stroke-dashoffset: 0; stroke: #808080; stroke-opacity: 0.3"/>
   </g>
   <g id="line2d_22">
    <path d="M 426.301593 202.08625 
L 426.301593 12.92625 
" clip-path="url(#pda876691f1)" style="fill: none; stroke-dasharray: 3.7,1.6; stroke-dashoffset: 0; stroke: #808080; stroke-opacity: 0.3"/>
   </g>
   <g id="line2d_23">
    <path d="M 472.305503 202.08625 
L 472.305503 12.92625 
" clip-path="url(#pda876691f1)" style="fill: none; stroke-dasharray: 3.7,1.6; stroke-dashoffset: 0; stroke: #808080; stroke-opacity: 0.3"/>
   </g>
   <g id="patch_3">
    <path d="M 58.270313 202.08625 
L 58.270313 12.92625 
" style="fill: none; stroke: #000000; stroke-width: 2; stroke-linejoin: miter; stroke-linecap: square"/>
   </g>
   <g id="patch_4">
    <path d="M 58.270313 202.08625 
L 518.309413 202.08625 
" style="fill: none; stroke: #000000; stroke-width: 2; stroke-linejoin: miter; stroke-linecap: square"/>
   </g>
   <g id="text_15">
    <!-- S14 -->
    <g transform="translate(459.723082 188.65325) scale(0.2 -0.2)">
     <defs>
      <path id="ArialMT-53" d="M 288 1472 
L 859 1522 
Q 900 1178 1048 958 
Q 1197 738 1509 602 
Q 1822 466 2213 466 
Q 2559 466 2825 569 
Q 3091 672 3220 851 
Q 3350 1031 3350 1244 
Q 3350 1459 3225 1620 
Q 3100 1781 2813 1891 
Q 2628 1963 1997 2114 
Q 1366 2266 1113 2400 
Q 784 2572 623 2826 
Q 463 3081 463 3397 
Q 463 3744 659 4045 
Q 856 4347 1234 4503 
Q 1613 4659 2075 4659 
Q 2584 4659 2973 4495 
Q 3363 4331 3572 4012 
Q 3781 3694 3797 3291 
L 3216 3247 
Q 3169 3681 2898 3903 
Q 2628 4125 2100 4125 
Q 1550 4125 1298 3923 
Q 1047 3722 1047 3438 
Q 1047 3191 1225 3031 
Q 1400 2872 2139 2705 
Q 2878 2538 3153 2413 
Q 3553 2228 3743 1945 
Q 3934 1663 3934 1294 
Q 3934 928 3725 604 
Q 3516 281 3123 101 
Q 2731 -78 2241 -78 
Q 1619 -78 1198 103 
Q 778 284 539 648 
Q 300 1013 288 1472 
z
" transform="scale(0.015625)"/>
     </defs>
     <use xlink:href="#ArialMT-53"/>
     <use xlink:href="#ArialMT-31" x="66.699219"/>
     <use xlink:href="#ArialMT-34" x="122.314453"/>
    </g>
   </g>
  </g>
  <g id="axes_2">
   <g id="patch_5">
    <path d="M 573.129413 202.08625 
L 843.152363 202.08625 
L 843.152363 12.92625 
L 573.129413 12.92625 
L 573.129413 202.08625 
z
" style="fill: none"/>
   </g>
   <g id="matplotlib.axis_3">
    <g id="xtick_7">
     <g id="line2d_24">
      <g>
       <use xlink:href="#m66c24750dc" x="573.129413" y="202.08625" style="stroke: #000000; stroke-width: 0.8"/>
      </g>
     </g>
     <g id="text_16">
      <!-- 0 -->
      <g transform="translate(568.680663 220.53875) scale(0.16 -0.16)">
       <use xlink:href="#ArialMT-30"/>
      </g>
     </g>
    </g>
    <g id="xtick_8">
     <g id="line2d_25">
      <g>
       <use xlink:href="#m66c24750dc" x="627.134003" y="202.08625" style="stroke: #000000; stroke-width: 0.8"/>
      </g>
     </g>
     <g id="text_17">
      <!-- 128 -->
      <g transform="translate(613.787753 220.53875) scale(0.16 -0.16)">
       <use xlink:href="#ArialMT-31"/>
       <use xlink:href="#ArialMT-32" x="55.615234"/>
       <use xlink:href="#ArialMT-38" x="111.230469"/>
      </g>
     </g>
    </g>
    <g id="xtick_9">
     <g id="line2d_26">
      <g>
       <use xlink:href="#m66c24750dc" x="681.138593" y="202.08625" style="stroke: #000000; stroke-width: 0.8"/>
      </g>
     </g>
     <g id="text_18">
      <!-- 256 -->
      <g transform="translate(667.792343 220.53875) scale(0.16 -0.16)">
       <use xlink:href="#ArialMT-32"/>
       <use xlink:href="#ArialMT-35" x="55.615234"/>
       <use xlink:href="#ArialMT-36" x="111.230469"/>
      </g>
     </g>
    </g>
    <g id="xtick_10">
     <g id="line2d_27">
      <g>
       <use xlink:href="#m66c24750dc" x="735.143183" y="202.08625" style="stroke: #000000; stroke-width: 0.8"/>
      </g>
     </g>
     <g id="text_19">
      <!-- 384 -->
      <g transform="translate(721.796933 220.53875) scale(0.16 -0.16)">
       <use xlink:href="#ArialMT-33"/>
       <use xlink:href="#ArialMT-38" x="55.615234"/>
       <use xlink:href="#ArialMT-34" x="111.230469"/>
      </g>
     </g>
    </g>
    <g id="xtick_11">
     <g id="line2d_28">
      <g>
       <use xlink:href="#m66c24750dc" x="789.147773" y="202.08625" style="stroke: #000000; stroke-width: 0.8"/>
      </g>
     </g>
     <g id="text_20">
      <!-- 512 -->
      <g transform="translate(775.801523 220.53875) scale(0.16 -0.16)">
       <use xlink:href="#ArialMT-35"/>
       <use xlink:href="#ArialMT-31" x="55.615234"/>
       <use xlink:href="#ArialMT-32" x="111.230469"/>
      </g>
     </g>
    </g>
    <g id="xtick_12">
     <g id="line2d_29">
      <g>
       <use xlink:href="#m66c24750dc" x="843.152363" y="202.08625" style="stroke: #000000; stroke-width: 0.8"/>
      </g>
     </g>
     <g id="text_21">
      <!-- 640 -->
      <g transform="translate(829.806113 220.53875) scale(0.16 -0.16)">
       <use xlink:href="#ArialMT-36"/>
       <use xlink:href="#ArialMT-34" x="55.615234"/>
       <use xlink:href="#ArialMT-30" x="111.230469"/>
      </g>
     </g>
    </g>
    <g id="text_22">
     <!-- Trial -->
     <g transform="translate(690.027059 241.318594) scale(0.19 -0.19)">
      <use xlink:href="#ArialMT-54"/>
      <use xlink:href="#ArialMT-72" x="57.333984"/>
      <use xlink:href="#ArialMT-69" x="90.634766"/>
      <use xlink:href="#ArialMT-61" x="112.851562"/>
      <use xlink:href="#ArialMT-6c" x="168.466797"/>
     </g>
    </g>
   </g>
   <g id="matplotlib.axis_4">
    <g id="ytick_7">
     <g id="line2d_30">
      <g>
       <use xlink:href="#m97627a9dbe" x="573.129413" y="202.08625" style="stroke: #000000; stroke-width: 0.8"/>
      </g>
     </g>
    </g>
    <g id="ytick_8">
     <g id="line2d_31">
      <g>
       <use xlink:href="#m97627a9dbe" x="573.129413" y="164.25425" style="stroke: #000000; stroke-width: 0.8"/>
      </g>
     </g>
    </g>
    <g id="ytick_9">
     <g id="line2d_32">
      <g>
       <use xlink:href="#m97627a9dbe" x="573.129413" y="126.42225" style="stroke: #000000; stroke-width: 0.8"/>
      </g>
     </g>
    </g>
    <g id="ytick_10">
     <g id="line2d_33">
      <g>
       <use xlink:href="#m97627a9dbe" x="573.129413" y="88.59025" style="stroke: #000000; stroke-width: 0.8"/>
      </g>
     </g>
    </g>
    <g id="ytick_11">
     <g id="line2d_34">
      <g>
       <use xlink:href="#m97627a9dbe" x="573.129413" y="50.75825" style="stroke: #000000; stroke-width: 0.8"/>
      </g>
     </g>
    </g>
    <g id="ytick_12">
     <g id="line2d_35">
      <g>
       <use xlink:href="#m97627a9dbe" x="573.129413" y="12.92625" style="stroke: #000000; stroke-width: 0.8"/>
      </g>
     </g>
    </g>
   </g>
   <g id="line2d_36">
    <path d="M 579.879986 190.26375 
L 584.521006 190.26375 
L 584.942917 202.08625 
L 591.271579 202.08625 
L 591.69349 190.26375 
L 598.022153 190.26375 
L 598.444064 202.08625 
L 625.024448 202.08625 
L 626.290181 166.61875 
L 626.712092 166.61875 
L 627.134003 154.79625 
L 627.555913 154.79625 
L 628.399735 131.15125 
L 628.821646 131.15125 
L 629.243557 119.32875 
L 630.509289 119.32875 
L 631.353111 95.68375 
L 632.196933 95.68375 
L 633.040755 119.32875 
L 633.462665 119.32875 
L 633.884576 131.15125 
L 634.306487 131.15125 
L 634.728398 142.97375 
L 635.150309 142.97375 
L 635.57222 131.15125 
L 635.994131 142.97375 
L 636.416041 142.97375 
L 637.259863 119.32875 
L 638.103685 142.97375 
L 640.63515 142.97375 
L 641.057061 131.15125 
L 641.900883 131.15125 
L 642.322793 142.97375 
L 643.166615 142.97375 
L 644.010437 166.61875 
L 645.276169 131.15125 
L 645.69808 142.97375 
L 648.229545 142.97375 
L 648.651456 154.79625 
L 649.917189 154.79625 
L 650.3391 142.97375 
L 651.182921 142.97375 
L 651.604832 154.79625 
L 653.292476 154.79625 
L 653.714387 142.97375 
L 654.136298 142.97375 
L 654.558208 154.79625 
L 656.667763 154.79625 
L 657.089674 166.61875 
L 657.511584 166.61875 
L 657.933495 178.44125 
L 658.777317 178.44125 
L 659.199228 166.61875 
L 660.04305 166.61875 
L 660.46496 178.44125 
L 661.308782 178.44125 
L 661.730693 166.61875 
L 665.10598 166.61875 
L 665.949802 190.26375 
L 668.059356 190.26375 
L 668.481267 202.08625 
L 671.012732 202.08625 
L 671.434643 190.26375 
L 677.763306 190.26375 
L 678.185216 202.08625 
L 678.607127 190.26375 
L 681.982414 190.26375 
L 682.404325 178.44125 
L 683.670058 178.44125 
L 684.091969 166.61875 
L 684.93579 166.61875 
L 685.357701 178.44125 
L 686.201523 154.79625 
L 687.467255 154.79625 
L 687.889166 142.97375 
L 688.311077 142.97375 
L 688.732988 131.15125 
L 689.154899 142.97375 
L 690.420631 142.97375 
L 690.842542 154.79625 
L 692.108275 154.79625 
L 692.952097 178.44125 
L 694.217829 178.44125 
L 694.63974 190.26375 
L 698.015027 190.26375 
L 698.858849 166.61875 
L 701.812225 166.61875 
L 702.234135 178.44125 
L 704.34369 178.44125 
L 704.765601 166.61875 
L 705.609422 190.26375 
L 709.40662 190.26375 
L 709.828531 178.44125 
L 711.094264 178.44125 
L 711.516174 190.26375 
L 712.781907 190.26375 
L 713.203818 178.44125 
L 715.313372 178.44125 
L 716.157194 154.79625 
L 716.579105 166.61875 
L 717.001016 154.79625 
L 717.422926 154.79625 
L 717.844837 142.97375 
L 719.532481 142.97375 
L 719.954392 154.79625 
L 722.063946 154.79625 
L 722.907768 178.44125 
L 723.329678 178.44125 
L 723.751589 190.26375 
L 724.1735 190.26375 
L 724.595411 202.08625 
L 725.017322 190.26375 
L 726.704965 190.26375 
L 727.126876 178.44125 
L 728.81452 178.44125 
L 731.345985 107.50625 
L 731.767896 107.50625 
L 733.033628 72.03875 
L 733.455539 72.03875 
L 733.87745 83.86125 
L 734.299361 72.03875 
L 735.987004 72.03875 
L 736.408915 83.86125 
L 737.252737 83.86125 
L 737.674648 95.68375 
L 738.518469 95.68375 
L 739.362291 119.32875 
L 739.784202 119.32875 
L 740.628024 95.68375 
L 741.471845 95.68375 
L 742.315667 72.03875 
L 743.159489 72.03875 
L 743.5814 83.86125 
L 744.425221 83.86125 
L 744.847132 95.68375 
L 745.269043 95.68375 
L 746.112865 72.03875 
L 746.956687 95.68375 
L 747.378597 95.68375 
L 747.800508 107.50625 
L 748.222419 95.68375 
L 749.066241 119.32875 
L 749.488152 119.32875 
L 749.910063 107.50625 
L 750.331973 107.50625 
L 750.753884 119.32875 
L 751.597706 119.32875 
L 752.863439 154.79625 
L 754.972993 154.79625 
L 755.394904 142.97375 
L 755.816815 142.97375 
L 756.660636 166.61875 
L 757.082547 166.61875 
L 758.34828 131.15125 
L 758.770191 131.15125 
L 759.614012 107.50625 
L 760.035923 107.50625 
L 760.457834 95.68375 
L 763.833121 95.68375 
L 765.098854 131.15125 
L 765.942675 131.15125 
L 766.364586 142.97375 
L 767.208408 142.97375 
L 767.630319 154.79625 
L 768.05223 142.97375 
L 768.47414 142.97375 
L 768.896051 154.79625 
L 771.427516 83.86125 
L 773.537071 83.86125 
L 773.958982 95.68375 
L 774.380892 95.68375 
L 775.224714 119.32875 
L 775.646625 119.32875 
L 778.17809 190.26375 
L 778.600001 190.26375 
L 779.021912 178.44125 
L 779.443823 178.44125 
L 779.865734 166.61875 
L 781.975288 166.61875 
L 782.81911 142.97375 
L 784.084842 142.97375 
L 785.350575 107.50625 
L 786.616307 107.50625 
L 788.303951 60.21625 
L 789.569683 60.21625 
L 789.991594 48.39375 
L 790.413505 48.39375 
L 790.835416 36.57125 
L 792.523059 36.57125 
L 792.94497 48.39375 
L 795.054525 48.39375 
L 795.476435 36.57125 
L 796.742168 36.57125 
L 797.164079 24.74875 
L 799.273633 24.74875 
L 799.695544 12.92625 
L 800.117455 24.74875 
L 804.758474 24.74875 
L 805.180385 36.57125 
L 806.446118 36.57125 
L 806.868029 24.74875 
L 811.509048 24.74875 
L 811.930959 12.92625 
L 812.774781 12.92625 
L 813.196691 24.74875 
L 819.525354 24.74875 
L 819.947265 12.92625 
L 842.730452 12.92625 
L 842.730452 12.92625 
" style="fill: none; stroke: #a6a6a6; stroke-width: 2; stroke-linecap: square"/>
   </g>
   <g id="line2d_37">
    <path d="M 579.879986 200.188155 
L 580.301897 198.290738 
L 583.677184 198.290738 
L 584.099095 200.188833 
L 586.63056 200.188833 
L 587.052471 202.08625 
L 595.490688 202.08625 
L 595.912599 194.382955 
L 602.241262 194.382955 
L 602.663173 202.08625 
L 672.278464 202.08625 
L 679.029038 12.92625 
L 842.730452 12.92625 
L 842.730452 12.92625 
" style="fill: none; stroke: #ad78d7; stroke-width: 2; stroke-linecap: square"/>
   </g>
   <g id="line2d_38">
    <path d="M 600.131708 202.08625 
L 600.131708 12.92625 
" clip-path="url(#pa068645d70)" style="fill: none; stroke-dasharray: 3.7,1.6; stroke-dashoffset: 0; stroke: #808080; stroke-opacity: 0.3"/>
   </g>
   <g id="line2d_39">
    <path d="M 627.134003 202.08625 
L 627.134003 12.92625 
" clip-path="url(#pa068645d70)" style="fill: none; stroke-dasharray: 3.7,1.6; stroke-dashoffset: 0; stroke: #808080; stroke-opacity: 0.3"/>
   </g>
   <g id="line2d_40">
    <path d="M 654.136298 202.08625 
L 654.136298 12.92625 
" clip-path="url(#pa068645d70)" style="fill: none; stroke-dasharray: 3.7,1.6; stroke-dashoffset: 0; stroke: #808080; stroke-opacity: 0.3"/>
   </g>
   <g id="line2d_41">
    <path d="M 681.138593 202.08625 
L 681.138593 12.92625 
" clip-path="url(#pa068645d70)" style="fill: none; stroke-dasharray: 3.7,1.6; stroke-dashoffset: 0; stroke: #808080; stroke-opacity: 0.3"/>
   </g>
   <g id="line2d_42">
    <path d="M 708.140888 202.08625 
L 708.140888 12.92625 
" clip-path="url(#pa068645d70)" style="fill: none; stroke-dasharray: 3.7,1.6; stroke-dashoffset: 0; stroke: #808080; stroke-opacity: 0.3"/>
   </g>
   <g id="line2d_43">
    <path d="M 735.143183 202.08625 
L 735.143183 12.92625 
" clip-path="url(#pa068645d70)" style="fill: none; stroke-dasharray: 3.7,1.6; stroke-dashoffset: 0; stroke: #808080; stroke-opacity: 0.3"/>
   </g>
   <g id="line2d_44">
    <path d="M 762.145478 202.08625 
L 762.145478 12.92625 
" clip-path="url(#pa068645d70)" style="fill: none; stroke-dasharray: 3.7,1.6; stroke-dashoffset: 0; stroke: #808080; stroke-opacity: 0.3"/>
   </g>
   <g id="line2d_45">
    <path d="M 789.147773 202.08625 
L 789.147773 12.92625 
" clip-path="url(#pa068645d70)" style="fill: none; stroke-dasharray: 3.7,1.6; stroke-dashoffset: 0; stroke: #808080; stroke-opacity: 0.3"/>
   </g>
   <g id="line2d_46">
    <path d="M 816.150068 202.08625 
L 816.150068 12.92625 
" clip-path="url(#pa068645d70)" style="fill: none; stroke-dasharray: 3.7,1.6; stroke-dashoffset: 0; stroke: #808080; stroke-opacity: 0.3"/>
   </g>
   <g id="patch_6">
    <path d="M 573.129413 202.08625 
L 573.129413 12.92625 
" style="fill: none; stroke: #000000; stroke-width: 2; stroke-linejoin: miter; stroke-linecap: square"/>
   </g>
   <g id="patch_7">
    <path d="M 573.129413 202.08625 
L 843.152363 202.08625 
" style="fill: none; stroke: #000000; stroke-width: 2; stroke-linejoin: miter; stroke-linecap: square"/>
   </g>
   <g id="text_23">
    <!-- S14 -->
    <g transform="translate(794.06684 188.65325) scale(0.2 -0.2)">
     <use xlink:href="#ArialMT-53"/>
     <use xlink:href="#ArialMT-31" x="66.699219"/>
     <use xlink:href="#ArialMT-34" x="122.314453"/>
    </g>
   </g>
  </g>
  <g id="axes_3">
   <g id="patch_8">
    <path d="M 897.972363 202.08625 
L 1167.995313 202.08625 
L 1167.995313 12.92625 
L 897.972363 12.92625 
L 897.972363 202.08625 
z
" style="fill: none"/>
   </g>
   <g id="matplotlib.axis_5">
    <g id="xtick_13">
     <g id="line2d_47">
      <g>
       <use xlink:href="#m66c24750dc" x="897.972363" y="202.08625" style="stroke: #000000; stroke-width: 0.8"/>
      </g>
     </g>
     <g id="text_24">
      <!-- 0 -->
      <g transform="translate(893.523613 220.53875) scale(0.16 -0.16)">
       <use xlink:href="#ArialMT-30"/>
      </g>
     </g>
    </g>
    <g id="xtick_14">
     <g id="line2d_48">
      <g>
       <use xlink:href="#m66c24750dc" x="951.976953" y="202.08625" style="stroke: #000000; stroke-width: 0.8"/>
      </g>
     </g>
     <g id="text_25">
      <!-- 128 -->
      <g transform="translate(938.630703 220.53875) scale(0.16 -0.16)">
       <use xlink:href="#ArialMT-31"/>
       <use xlink:href="#ArialMT-32" x="55.615234"/>
       <use xlink:href="#ArialMT-38" x="111.230469"/>
      </g>
     </g>
    </g>
    <g id="xtick_15">
     <g id="line2d_49">
      <g>
       <use xlink:href="#m66c24750dc" x="1005.981543" y="202.08625" style="stroke: #000000; stroke-width: 0.8"/>
      </g>
     </g>
     <g id="text_26">
      <!-- 256 -->
      <g transform="translate(992.635293 220.53875) scale(0.16 -0.16)">
       <use xlink:href="#ArialMT-32"/>
       <use xlink:href="#ArialMT-35" x="55.615234"/>
       <use xlink:href="#ArialMT-36" x="111.230469"/>
      </g>
     </g>
    </g>
    <g id="xtick_16">
     <g id="line2d_50">
      <g>
       <use xlink:href="#m66c24750dc" x="1059.986133" y="202.08625" style="stroke: #000000; stroke-width: 0.8"/>
      </g>
     </g>
     <g id="text_27">
      <!-- 384 -->
      <g transform="translate(1046.639883 220.53875) scale(0.16 -0.16)">
       <use xlink:href="#ArialMT-33"/>
       <use xlink:href="#ArialMT-38" x="55.615234"/>
       <use xlink:href="#ArialMT-34" x="111.230469"/>
      </g>
     </g>
    </g>
    <g id="xtick_17">
     <g id="line2d_51">
      <g>
       <use xlink:href="#m66c24750dc" x="1113.990723" y="202.08625" style="stroke: #000000; stroke-width: 0.8"/>
      </g>
     </g>
     <g id="text_28">
      <!-- 512 -->
      <g transform="translate(1100.644473 220.53875) scale(0.16 -0.16)">
       <use xlink:href="#ArialMT-35"/>
       <use xlink:href="#ArialMT-31" x="55.615234"/>
       <use xlink:href="#ArialMT-32" x="111.230469"/>
      </g>
     </g>
    </g>
    <g id="xtick_18">
     <g id="line2d_52">
      <g>
       <use xlink:href="#m66c24750dc" x="1167.995313" y="202.08625" style="stroke: #000000; stroke-width: 0.8"/>
      </g>
     </g>
     <g id="text_29">
      <!-- 640 -->
      <g transform="translate(1154.649063 220.53875) scale(0.16 -0.16)">
       <use xlink:href="#ArialMT-36"/>
       <use xlink:href="#ArialMT-34" x="55.615234"/>
       <use xlink:href="#ArialMT-30" x="111.230469"/>
      </g>
     </g>
    </g>
    <g id="text_30">
     <!-- Trial -->
     <g transform="translate(1014.870009 241.318594) scale(0.19 -0.19)">
      <use xlink:href="#ArialMT-54"/>
      <use xlink:href="#ArialMT-72" x="57.333984"/>
      <use xlink:href="#ArialMT-69" x="90.634766"/>
      <use xlink:href="#ArialMT-61" x="112.851562"/>
      <use xlink:href="#ArialMT-6c" x="168.466797"/>
     </g>
    </g>
   </g>
   <g id="matplotlib.axis_6">
    <g id="ytick_13">
     <g id="line2d_53">
      <g>
       <use xlink:href="#m97627a9dbe" x="897.972363" y="202.08625" style="stroke: #000000; stroke-width: 0.8"/>
      </g>
     </g>
    </g>
    <g id="ytick_14">
     <g id="line2d_54">
      <g>
       <use xlink:href="#m97627a9dbe" x="897.972363" y="164.25425" style="stroke: #000000; stroke-width: 0.8"/>
      </g>
     </g>
    </g>
    <g id="ytick_15">
     <g id="line2d_55">
      <g>
       <use xlink:href="#m97627a9dbe" x="897.972363" y="126.42225" style="stroke: #000000; stroke-width: 0.8"/>
      </g>
     </g>
    </g>
    <g id="ytick_16">
     <g id="line2d_56">
      <g>
       <use xlink:href="#m97627a9dbe" x="897.972363" y="88.59025" style="stroke: #000000; stroke-width: 0.8"/>
      </g>
     </g>
    </g>
    <g id="ytick_17">
     <g id="line2d_57">
      <g>
       <use xlink:href="#m97627a9dbe" x="897.972363" y="50.75825" style="stroke: #000000; stroke-width: 0.8"/>
      </g>
     </g>
    </g>
    <g id="ytick_18">
     <g id="line2d_58">
      <g>
       <use xlink:href="#m97627a9dbe" x="897.972363" y="12.92625" style="stroke: #000000; stroke-width: 0.8"/>
      </g>
     </g>
    </g>
   </g>
   <g id="line2d_59">
    <path d="M 904.722936 190.26375 
L 909.363956 190.26375 
L 909.785867 202.08625 
L 916.114529 202.08625 
L 916.53644 190.26375 
L 922.865103 190.26375 
L 923.287014 202.08625 
L 949.867398 202.08625 
L 951.133131 166.61875 
L 951.555042 166.61875 
L 951.976953 154.79625 
L 952.398863 154.79625 
L 953.242685 131.15125 
L 953.664596 131.15125 
L 954.086507 119.32875 
L 955.352239 119.32875 
L 956.196061 95.68375 
L 957.039883 95.68375 
L 957.883705 119.32875 
L 958.305615 119.32875 
L 958.727526 131.15125 
L 959.149437 131.15125 
L 959.571348 142.97375 
L 959.993259 142.97375 
L 960.41517 131.15125 
L 960.837081 142.97375 
L 961.258991 142.97375 
L 962.102813 119.32875 
L 962.946635 142.97375 
L 965.4781 142.97375 
L 965.900011 131.15125 
L 966.743833 131.15125 
L 967.165743 142.97375 
L 968.009565 142.97375 
L 968.853387 166.61875 
L 970.119119 131.15125 
L 970.54103 142.97375 
L 973.072495 142.97375 
L 973.494406 154.79625 
L 974.760139 154.79625 
L 975.18205 142.97375 
L 976.025871 142.97375 
L 976.447782 154.79625 
L 978.135426 154.79625 
L 978.557337 142.97375 
L 978.979248 142.97375 
L 979.401158 154.79625 
L 981.510713 154.79625 
L 981.932624 166.61875 
L 982.354534 166.61875 
L 982.776445 178.44125 
L 983.620267 178.44125 
L 984.042178 166.61875 
L 984.886 166.61875 
L 985.30791 178.44125 
L 986.151732 178.44125 
L 986.573643 166.61875 
L 989.94893 166.61875 
L 990.792752 190.26375 
L 992.902306 190.26375 
L 993.324217 202.08625 
L 995.855682 202.08625 
L 996.277593 190.26375 
L 1002.606256 190.26375 
L 1003.028166 202.08625 
L 1003.450077 190.26375 
L 1006.825364 190.26375 
L 1007.247275 178.44125 
L 1008.513008 178.44125 
L 1008.934919 166.61875 
L 1009.77874 166.61875 
L 1010.200651 178.44125 
L 1011.044473 154.79625 
L 1012.310205 154.79625 
L 1012.732116 142.97375 
L 1013.154027 142.97375 
L 1013.575938 131.15125 
L 1013.997849 142.97375 
L 1015.263581 142.97375 
L 1015.685492 154.79625 
L 1016.951225 154.79625 
L 1017.795047 178.44125 
L 1019.060779 178.44125 
L 1019.48269 190.26375 
L 1022.857977 190.26375 
L 1023.701799 166.61875 
L 1026.655175 166.61875 
L 1027.077085 178.44125 
L 1029.18664 178.44125 
L 1029.608551 166.61875 
L 1030.452372 190.26375 
L 1034.24957 190.26375 
L 1034.671481 178.44125 
L 1035.937214 178.44125 
L 1036.359124 190.26375 
L 1037.624857 190.26375 
L 1038.046768 178.44125 
L 1040.156322 178.44125 
L 1041.000144 154.79625 
L 1041.422055 166.61875 
L 1041.843966 154.79625 
L 1042.265876 154.79625 
L 1042.687787 142.97375 
L 1044.375431 142.97375 
L 1044.797342 154.79625 
L 1046.906896 154.79625 
L 1047.750718 178.44125 
L 1048.172628 178.44125 
L 1048.594539 190.26375 
L 1049.01645 190.26375 
L 1049.438361 202.08625 
L 1049.860272 190.26375 
L 1051.547915 190.26375 
L 1051.969826 178.44125 
L 1053.65747 178.44125 
L 1056.188935 107.50625 
L 1056.610846 107.50625 
L 1057.876578 72.03875 
L 1058.298489 72.03875 
L 1058.7204 83.86125 
L 1059.142311 72.03875 
L 1060.829954 72.03875 
L 1061.251865 83.86125 
L 1062.095687 83.86125 
L 1062.517598 95.68375 
L 1063.361419 95.68375 
L 1064.205241 119.32875 
L 1064.627152 119.32875 
L 1065.470974 95.68375 
L 1066.314795 95.68375 
L 1067.158617 72.03875 
L 1068.002439 72.03875 
L 1068.42435 83.86125 
L 1069.268171 83.86125 
L 1069.690082 95.68375 
L 1070.111993 95.68375 
L 1070.955815 72.03875 
L 1071.799637 95.68375 
L 1072.221547 95.68375 
L 1072.643458 107.50625 
L 1073.065369 95.68375 
L 1073.909191 119.32875 
L 1074.331102 119.32875 
L 1074.753013 107.50625 
L 1075.174923 107.50625 
L 1075.596834 119.32875 
L 1076.440656 119.32875 
L 1077.706389 154.79625 
L 1079.815943 154.79625 
L 1080.237854 142.97375 
L 1080.659765 142.97375 
L 1081.503586 166.61875 
L 1081.925497 166.61875 
L 1083.19123 131.15125 
L 1083.613141 131.15125 
L 1084.456962 107.50625 
L 1084.878873 107.50625 
L 1085.300784 95.68375 
L 1088.676071 95.68375 
L 1089.941804 131.15125 
L 1090.785625 131.15125 
L 1091.207536 142.97375 
L 1092.051358 142.97375 
L 1092.473269 154.79625 
L 1092.89518 142.97375 
L 1093.31709 142.97375 
L 1093.739001 154.79625 
L 1096.270466 83.86125 
L 1098.380021 83.86125 
L 1098.801932 95.68375 
L 1099.223842 95.68375 
L 1100.067664 119.32875 
L 1100.489575 119.32875 
L 1103.02104 190.26375 
L 1103.442951 190.26375 
L 1103.864862 178.44125 
L 1104.286773 178.44125 
L 1104.708684 166.61875 
L 1106.818238 166.61875 
L 1107.66206 142.97375 
L 1108.927792 142.97375 
L 1110.193525 107.50625 
L 1111.459257 107.50625 
L 1113.146901 60.21625 
L 1114.412633 60.21625 
L 1114.834544 48.39375 
L 1115.256455 48.39375 
L 1115.678366 36.57125 
L 1117.366009 36.57125 
L 1117.78792 48.39375 
L 1119.897475 48.39375 
L 1120.319385 36.57125 
L 1121.585118 36.57125 
L 1122.007029 24.74875 
L 1124.116583 24.74875 
L 1124.538494 12.92625 
L 1124.960405 24.74875 
L 1129.601424 24.74875 
L 1130.023335 36.57125 
L 1131.289068 36.57125 
L 1131.710979 24.74875 
L 1136.351998 24.74875 
L 1136.773909 12.92625 
L 1137.617731 12.92625 
L 1138.039641 24.74875 
L 1144.368304 24.74875 
L 1144.790215 12.92625 
L 1167.573402 12.92625 
L 1167.573402 12.92625 
" style="fill: none; stroke: #a6a6a6; stroke-width: 2; stroke-linecap: square"/>
   </g>
   <g id="line2d_60">
    <path d="M 904.722936 195.015785 
L 906.832491 189.206656 
L 908.520134 187.854568 
L 908.942045 187.739225 
L 912.317332 178.123914 
L 913.583064 172.765775 
L 914.426886 171.146506 
L 914.848797 170.161503 
L 915.692619 171.073443 
L 916.958351 176.047077 
L 919.489816 148.672046 
L 920.333638 141.231773 
L 922.443192 109.024096 
L 923.708925 89.120652 
L 924.130836 89.260921 
L 924.552747 88.517474 
L 926.662301 64.70019 
L 927.506123 55.559779 
L 929.193766 37.785482 
L 931.30332 13.579797 
L 931.725231 13.282922 
L 932.990964 13.140685 
L 938.897716 12.92924 
L 1167.573402 12.92625 
L 1167.573402 12.92625 
" style="fill: none; stroke: #404040; stroke-width: 2; stroke-linecap: square"/>
   </g>
   <g id="line2d_61">
    <path d="M 924.974658 202.08625 
L 924.974658 12.92625 
" clip-path="url(#pc6d0c8174f)" style="fill: none; stroke-dasharray: 3.7,1.6; stroke-dashoffset: 0; stroke: #808080; stroke-opacity: 0.3"/>
   </g>
   <g id="line2d_62">
    <path d="M 951.976953 202.08625 
L 951.976953 12.92625 
" clip-path="url(#pc6d0c8174f)" style="fill: none; stroke-dasharray: 3.7,1.6; stroke-dashoffset: 0; stroke: #808080; stroke-opacity: 0.3"/>
   </g>
   <g id="line2d_63">
    <path d="M 978.979248 202.08625 
L 978.979248 12.92625 
" clip-path="url(#pc6d0c8174f)" style="fill: none; stroke-dasharray: 3.7,1.6; stroke-dashoffset: 0; stroke: #808080; stroke-opacity: 0.3"/>
   </g>
   <g id="line2d_64">
    <path d="M 1005.981543 202.08625 
L 1005.981543 12.92625 
" clip-path="url(#pc6d0c8174f)" style="fill: none; stroke-dasharray: 3.7,1.6; stroke-dashoffset: 0; stroke: #808080; stroke-opacity: 0.3"/>
   </g>
   <g id="line2d_65">
    <path d="M 1032.983838 202.08625 
L 1032.983838 12.92625 
" clip-path="url(#pc6d0c8174f)" style="fill: none; stroke-dasharray: 3.7,1.6; stroke-dashoffset: 0; stroke: #808080; stroke-opacity: 0.3"/>
   </g>
   <g id="line2d_66">
    <path d="M 1059.986133 202.08625 
L 1059.986133 12.92625 
" clip-path="url(#pc6d0c8174f)" style="fill: none; stroke-dasharray: 3.7,1.6; stroke-dashoffset: 0; stroke: #808080; stroke-opacity: 0.3"/>
   </g>
   <g id="line2d_67">
    <path d="M 1086.988428 202.08625 
L 1086.988428 12.92625 
" clip-path="url(#pc6d0c8174f)" style="fill: none; stroke-dasharray: 3.7,1.6; stroke-dashoffset: 0; stroke: #808080; stroke-opacity: 0.3"/>
   </g>
   <g id="line2d_68">
    <path d="M 1113.990723 202.08625 
L 1113.990723 12.92625 
" clip-path="url(#pc6d0c8174f)" style="fill: none; stroke-dasharray: 3.7,1.6; stroke-dashoffset: 0; stroke: #808080; stroke-opacity: 0.3"/>
   </g>
   <g id="line2d_69">
    <path d="M 1140.993018 202.08625 
L 1140.993018 12.92625 
" clip-path="url(#pc6d0c8174f)" style="fill: none; stroke-dasharray: 3.7,1.6; stroke-dashoffset: 0; stroke: #808080; stroke-opacity: 0.3"/>
   </g>
   <g id="patch_9">
    <path d="M 897.972363 202.08625 
L 897.972363 12.92625 
" style="fill: none; stroke: #000000; stroke-width: 2; stroke-linejoin: miter; stroke-linecap: square"/>
   </g>
   <g id="patch_10">
    <path d="M 897.972363 202.08625 
L 1167.995313 202.08625 
" style="fill: none; stroke: #000000; stroke-width: 2; stroke-linejoin: miter; stroke-linecap: square"/>
   </g>
   <g id="text_31">
    <!-- S14 -->
    <g transform="translate(1118.90979 188.65325) scale(0.2 -0.2)">
     <use xlink:href="#ArialMT-53"/>
     <use xlink:href="#ArialMT-31" x="66.699219"/>
     <use xlink:href="#ArialMT-34" x="122.314453"/>
    </g>
   </g>
  </g>
 </g>
 <defs>
  <clipPath id="pda876691f1">
   <rect x="58.270313" y="12.92625" width="460.0391" height="189.16"/>
  </clipPath>
  <clipPath id="pa068645d70">
   <rect x="573.129413" y="12.92625" width="270.02295" height="189.16"/>
  </clipPath>
  <clipPath id="pc6d0c8174f">
   <rect x="897.972363" y="12.92625" width="270.02295" height="189.16"/>
  </clipPath>
 </defs>
</svg>
