<?xml version="1.0" encoding="utf-8" standalone="no"?>
<!DOCTYPE svg PUBLIC "-//W3C//DTD SVG 1.1//EN"
  "http://www.w3.org/Graphics/SVG/1.1/DTD/svg11.dtd">
<svg xmlns:xlink="http://www.w3.org/1999/xlink" width="1188.31pt" height="252.294844pt" viewBox="0 0 1188.31 252.294844" xmlns="http://www.w3.org/2000/svg" version="1.1">
 <metadata>
  <rdf:RDF xmlns:dc="http://purl.org/dc/elements/1.1/" xmlns:cc="http://creativecommons.org/ns#" xmlns:rdf="http://www.w3.org/1999/02/22-rdf-syntax-ns#">
   <cc:Work>
    <dc:type rdf:resource="http://purl.org/dc/dcmitype/StillImage"/>
    <dc:date>2025-05-15T11:59:13.578308</dc:date>
    <dc:format>image/svg+xml</dc:format>
    <dc:creator>
     <cc:Agent>
      <dc:title>Matplotlib v3.8.4, https://matplotlib.org/</dc:title>
     </cc:Agent>
    </dc:creator>
   </cc:Work>
  </rdf:RDF>
 </metadata>
 <defs>
  <style type="text/css">*{stroke-linejoin: round; stroke-linecap: butt}</style>
 </defs>
 <g id="figure_1">
  <g id="patch_1">
   <path d="M 0 252.294844 
L 1188.31 252.294844 
L 1188.31 0 
L 0 0 
L 0 252.294844 
z
" style="fill: none"/>
  </g>
  <g id="axes_1">
   <g id="patch_2">
    <path d="M 58.03875 202.08625 
L 518.07785 202.08625 
L 518.07785 12.92625 
L 58.03875 12.92625 
L 58.03875 202.08625 
z
" style="fill: none"/>
   </g>
   <g id="matplotlib.axis_1">
    <g id="xtick_1">
     <g id="line2d_1">
      <defs>
       <path id="mb1b26c4984" d="M 0 0 
L 0 3.5 
" style="stroke: #000000; stroke-width: 0.8"/>
      </defs>
      <g>
       <use xlink:href="#mb1b26c4984" x="58.03875" y="202.08625" style="stroke: #000000; stroke-width: 0.8"/>
      </g>
     </g>
     <g id="text_1">
      <!-- 0 -->
      <g transform="translate(53.59 220.53875) scale(0.16 -0.16)">
       <defs>
        <path id="ArialMT-30" d="M 266 2259 
Q 266 3072 433 3567 
Q 600 4063 929 4331 
Q 1259 4600 1759 4600 
Q 2128 4600 2406 4451 
Q 2684 4303 2865 4023 
Q 3047 3744 3150 3342 
Q 3253 2941 3253 2259 
Q 3253 1453 3087 958 
Q 2922 463 2592 192 
Q 2263 -78 1759 -78 
Q 1097 -78 719 397 
Q 266 969 266 2259 
z
M 844 2259 
Q 844 1131 1108 757 
Q 1372 384 1759 384 
Q 2147 384 2411 759 
Q 2675 1134 2675 2259 
Q 2675 3391 2411 3762 
Q 2147 4134 1753 4134 
Q 1366 4134 1134 3806 
Q 844 3388 844 2259 
z
" transform="scale(0.015625)"/>
       </defs>
       <use xlink:href="#ArialMT-30"/>
      </g>
     </g>
    </g>
    <g id="xtick_2">
     <g id="line2d_2">
      <g>
       <use xlink:href="#mb1b26c4984" x="150.04657" y="202.08625" style="stroke: #000000; stroke-width: 0.8"/>
      </g>
     </g>
     <g id="text_2">
      <!-- 128 -->
      <g transform="translate(136.70032 220.53875) scale(0.16 -0.16)">
       <defs>
        <path id="ArialMT-31" d="M 2384 0 
L 1822 0 
L 1822 3584 
Q 1619 3391 1289 3197 
Q 959 3003 697 2906 
L 697 3450 
Q 1169 3672 1522 3987 
Q 1875 4303 2022 4600 
L 2384 4600 
L 2384 0 
z
" transform="scale(0.015625)"/>
        <path id="ArialMT-32" d="M 3222 541 
L 3222 0 
L 194 0 
Q 188 203 259 391 
Q 375 700 629 1000 
Q 884 1300 1366 1694 
Q 2113 2306 2375 2664 
Q 2638 3022 2638 3341 
Q 2638 3675 2398 3904 
Q 2159 4134 1775 4134 
Q 1369 4134 1125 3890 
Q 881 3647 878 3216 
L 300 3275 
Q 359 3922 746 4261 
Q 1134 4600 1788 4600 
Q 2447 4600 2831 4234 
Q 3216 3869 3216 3328 
Q 3216 3053 3103 2787 
Q 2991 2522 2730 2228 
Q 2469 1934 1863 1422 
Q 1356 997 1212 845 
Q 1069 694 975 541 
L 3222 541 
z
" transform="scale(0.015625)"/>
        <path id="ArialMT-38" d="M 1131 2484 
Q 781 2613 612 2850 
Q 444 3088 444 3419 
Q 444 3919 803 4259 
Q 1163 4600 1759 4600 
Q 2359 4600 2725 4251 
Q 3091 3903 3091 3403 
Q 3091 3084 2923 2848 
Q 2756 2613 2416 2484 
Q 2838 2347 3058 2040 
Q 3278 1734 3278 1309 
Q 3278 722 2862 322 
Q 2447 -78 1769 -78 
Q 1091 -78 675 323 
Q 259 725 259 1325 
Q 259 1772 486 2073 
Q 713 2375 1131 2484 
z
M 1019 3438 
Q 1019 3113 1228 2906 
Q 1438 2700 1772 2700 
Q 2097 2700 2305 2904 
Q 2513 3109 2513 3406 
Q 2513 3716 2298 3927 
Q 2084 4138 1766 4138 
Q 1444 4138 1231 3931 
Q 1019 3725 1019 3438 
z
M 838 1322 
Q 838 1081 952 856 
Q 1066 631 1291 507 
Q 1516 384 1775 384 
Q 2178 384 2440 643 
Q 2703 903 2703 1303 
Q 2703 1709 2433 1975 
Q 2163 2241 1756 2241 
Q 1359 2241 1098 1978 
Q 838 1716 838 1322 
z
" transform="scale(0.015625)"/>
       </defs>
       <use xlink:href="#ArialMT-31"/>
       <use xlink:href="#ArialMT-32" x="55.615234"/>
       <use xlink:href="#ArialMT-38" x="111.230469"/>
      </g>
     </g>
    </g>
    <g id="xtick_3">
     <g id="line2d_3">
      <g>
       <use xlink:href="#mb1b26c4984" x="242.05439" y="202.08625" style="stroke: #000000; stroke-width: 0.8"/>
      </g>
     </g>
     <g id="text_3">
      <!-- 256 -->
      <g transform="translate(228.70814 220.53875) scale(0.16 -0.16)">
       <defs>
        <path id="ArialMT-35" d="M 266 1200 
L 856 1250 
Q 922 819 1161 601 
Q 1400 384 1738 384 
Q 2144 384 2425 690 
Q 2706 997 2706 1503 
Q 2706 1984 2436 2262 
Q 2166 2541 1728 2541 
Q 1456 2541 1237 2417 
Q 1019 2294 894 2097 
L 366 2166 
L 809 4519 
L 3088 4519 
L 3088 3981 
L 1259 3981 
L 1013 2750 
Q 1425 3038 1878 3038 
Q 2478 3038 2890 2622 
Q 3303 2206 3303 1553 
Q 3303 931 2941 478 
Q 2500 -78 1738 -78 
Q 1113 -78 717 272 
Q 322 622 266 1200 
z
" transform="scale(0.015625)"/>
        <path id="ArialMT-36" d="M 3184 3459 
L 2625 3416 
Q 2550 3747 2413 3897 
Q 2184 4138 1850 4138 
Q 1581 4138 1378 3988 
Q 1113 3794 959 3422 
Q 806 3050 800 2363 
Q 1003 2672 1297 2822 
Q 1591 2972 1913 2972 
Q 2475 2972 2870 2558 
Q 3266 2144 3266 1488 
Q 3266 1056 3080 686 
Q 2894 316 2569 119 
Q 2244 -78 1831 -78 
Q 1128 -78 684 439 
Q 241 956 241 2144 
Q 241 3472 731 4075 
Q 1159 4600 1884 4600 
Q 2425 4600 2770 4297 
Q 3116 3994 3184 3459 
z
M 888 1484 
Q 888 1194 1011 928 
Q 1134 663 1356 523 
Q 1578 384 1822 384 
Q 2178 384 2434 671 
Q 2691 959 2691 1453 
Q 2691 1928 2437 2201 
Q 2184 2475 1800 2475 
Q 1419 2475 1153 2201 
Q 888 1928 888 1484 
z
" transform="scale(0.015625)"/>
       </defs>
       <use xlink:href="#ArialMT-32"/>
       <use xlink:href="#ArialMT-35" x="55.615234"/>
       <use xlink:href="#ArialMT-36" x="111.230469"/>
      </g>
     </g>
    </g>
    <g id="xtick_4">
     <g id="line2d_4">
      <g>
       <use xlink:href="#mb1b26c4984" x="334.06221" y="202.08625" style="stroke: #000000; stroke-width: 0.8"/>
      </g>
     </g>
     <g id="text_4">
      <!-- 384 -->
      <g transform="translate(320.71596 220.53875) scale(0.16 -0.16)">
       <defs>
        <path id="ArialMT-33" d="M 269 1209 
L 831 1284 
Q 928 806 1161 595 
Q 1394 384 1728 384 
Q 2125 384 2398 659 
Q 2672 934 2672 1341 
Q 2672 1728 2419 1979 
Q 2166 2231 1775 2231 
Q 1616 2231 1378 2169 
L 1441 2663 
Q 1497 2656 1531 2656 
Q 1891 2656 2178 2843 
Q 2466 3031 2466 3422 
Q 2466 3731 2256 3934 
Q 2047 4138 1716 4138 
Q 1388 4138 1169 3931 
Q 950 3725 888 3313 
L 325 3413 
Q 428 3978 793 4289 
Q 1159 4600 1703 4600 
Q 2078 4600 2393 4439 
Q 2709 4278 2876 4000 
Q 3044 3722 3044 3409 
Q 3044 3113 2884 2869 
Q 2725 2625 2413 2481 
Q 2819 2388 3044 2092 
Q 3269 1797 3269 1353 
Q 3269 753 2831 336 
Q 2394 -81 1725 -81 
Q 1122 -81 723 278 
Q 325 638 269 1209 
z
" transform="scale(0.015625)"/>
        <path id="ArialMT-34" d="M 2069 0 
L 2069 1097 
L 81 1097 
L 81 1613 
L 2172 4581 
L 2631 4581 
L 2631 1613 
L 3250 1613 
L 3250 1097 
L 2631 1097 
L 2631 0 
L 2069 0 
z
M 2069 1613 
L 2069 3678 
L 634 1613 
L 2069 1613 
z
" transform="scale(0.015625)"/>
       </defs>
       <use xlink:href="#ArialMT-33"/>
       <use xlink:href="#ArialMT-38" x="55.615234"/>
       <use xlink:href="#ArialMT-34" x="111.230469"/>
      </g>
     </g>
    </g>
    <g id="xtick_5">
     <g id="line2d_5">
      <g>
       <use xlink:href="#mb1b26c4984" x="426.07003" y="202.08625" style="stroke: #000000; stroke-width: 0.8"/>
      </g>
     </g>
     <g id="text_5">
      <!-- 512 -->
      <g transform="translate(412.72378 220.53875) scale(0.16 -0.16)">
       <use xlink:href="#ArialMT-35"/>
       <use xlink:href="#ArialMT-31" x="55.615234"/>
       <use xlink:href="#ArialMT-32" x="111.230469"/>
      </g>
     </g>
    </g>
    <g id="xtick_6">
     <g id="line2d_6">
      <g>
       <use xlink:href="#mb1b26c4984" x="518.07785" y="202.08625" style="stroke: #000000; stroke-width: 0.8"/>
      </g>
     </g>
     <g id="text_6">
      <!-- 640 -->
      <g transform="translate(504.7316 220.53875) scale(0.16 -0.16)">
       <use xlink:href="#ArialMT-36"/>
       <use xlink:href="#ArialMT-34" x="55.615234"/>
       <use xlink:href="#ArialMT-30" x="111.230469"/>
      </g>
     </g>
    </g>
    <g id="text_7">
     <!-- Trial -->
     <g transform="translate(269.944472 241.318594) scale(0.19 -0.19)">
      <defs>
       <path id="ArialMT-54" d="M 1659 0 
L 1659 4041 
L 150 4041 
L 150 4581 
L 3781 4581 
L 3781 4041 
L 2266 4041 
L 2266 0 
L 1659 0 
z
" transform="scale(0.015625)"/>
       <path id="ArialMT-72" d="M 416 0 
L 416 3319 
L 922 3319 
L 922 2816 
Q 1116 3169 1280 3281 
Q 1444 3394 1641 3394 
Q 1925 3394 2219 3213 
L 2025 2691 
Q 1819 2813 1613 2813 
Q 1428 2813 1281 2702 
Q 1134 2591 1072 2394 
Q 978 2094 978 1738 
L 978 0 
L 416 0 
z
" transform="scale(0.015625)"/>
       <path id="ArialMT-69" d="M 425 3934 
L 425 4581 
L 988 4581 
L 988 3934 
L 425 3934 
z
M 425 0 
L 425 3319 
L 988 3319 
L 988 0 
L 425 0 
z
" transform="scale(0.015625)"/>
       <path id="ArialMT-61" d="M 2588 409 
Q 2275 144 1986 34 
Q 1697 -75 1366 -75 
Q 819 -75 525 192 
Q 231 459 231 875 
Q 231 1119 342 1320 
Q 453 1522 633 1644 
Q 813 1766 1038 1828 
Q 1203 1872 1538 1913 
Q 2219 1994 2541 2106 
Q 2544 2222 2544 2253 
Q 2544 2597 2384 2738 
Q 2169 2928 1744 2928 
Q 1347 2928 1158 2789 
Q 969 2650 878 2297 
L 328 2372 
Q 403 2725 575 2942 
Q 747 3159 1072 3276 
Q 1397 3394 1825 3394 
Q 2250 3394 2515 3294 
Q 2781 3194 2906 3042 
Q 3031 2891 3081 2659 
Q 3109 2516 3109 2141 
L 3109 1391 
Q 3109 606 3145 398 
Q 3181 191 3288 0 
L 2700 0 
Q 2613 175 2588 409 
z
M 2541 1666 
Q 2234 1541 1622 1453 
Q 1275 1403 1131 1340 
Q 988 1278 909 1158 
Q 831 1038 831 891 
Q 831 666 1001 516 
Q 1172 366 1500 366 
Q 1825 366 2078 508 
Q 2331 650 2450 897 
Q 2541 1088 2541 1459 
L 2541 1666 
z
" transform="scale(0.015625)"/>
       <path id="ArialMT-6c" d="M 409 0 
L 409 4581 
L 972 4581 
L 972 0 
L 409 0 
z
" transform="scale(0.015625)"/>
      </defs>
      <use xlink:href="#ArialMT-54"/>
      <use xlink:href="#ArialMT-72" x="57.333984"/>
      <use xlink:href="#ArialMT-69" x="90.634766"/>
      <use xlink:href="#ArialMT-61" x="112.851562"/>
      <use xlink:href="#ArialMT-6c" x="168.466797"/>
     </g>
    </g>
   </g>
   <g id="matplotlib.axis_2">
    <g id="ytick_1">
     <g id="line2d_7">
      <defs>
       <path id="m1049bca8e9" d="M 0 0 
L -3.5 0 
" style="stroke: #000000; stroke-width: 0.8"/>
      </defs>
      <g>
       <use xlink:href="#m1049bca8e9" x="58.03875" y="202.08625" style="stroke: #000000; stroke-width: 0.8"/>
      </g>
     </g>
     <g id="text_8">
      <!-- 0.0 -->
      <g transform="translate(28.79875 207.8125) scale(0.16 -0.16)">
       <defs>
        <path id="ArialMT-2e" d="M 581 0 
L 581 641 
L 1222 641 
L 1222 0 
L 581 0 
z
" transform="scale(0.015625)"/>
       </defs>
       <use xlink:href="#ArialMT-30"/>
       <use xlink:href="#ArialMT-2e" x="55.615234"/>
       <use xlink:href="#ArialMT-30" x="83.398438"/>
      </g>
     </g>
    </g>
    <g id="ytick_2">
     <g id="line2d_8">
      <g>
       <use xlink:href="#m1049bca8e9" x="58.03875" y="164.25425" style="stroke: #000000; stroke-width: 0.8"/>
      </g>
     </g>
     <g id="text_9">
      <!-- 0.2 -->
      <g transform="translate(28.79875 169.9805) scale(0.16 -0.16)">
       <use xlink:href="#ArialMT-30"/>
       <use xlink:href="#ArialMT-2e" x="55.615234"/>
       <use xlink:href="#ArialMT-32" x="83.398438"/>
      </g>
     </g>
    </g>
    <g id="ytick_3">
     <g id="line2d_9">
      <g>
       <use xlink:href="#m1049bca8e9" x="58.03875" y="126.42225" style="stroke: #000000; stroke-width: 0.8"/>
      </g>
     </g>
     <g id="text_10">
      <!-- 0.4 -->
      <g transform="translate(28.79875 132.1485) scale(0.16 -0.16)">
       <use xlink:href="#ArialMT-30"/>
       <use xlink:href="#ArialMT-2e" x="55.615234"/>
       <use xlink:href="#ArialMT-34" x="83.398438"/>
      </g>
     </g>
    </g>
    <g id="ytick_4">
     <g id="line2d_10">
      <g>
       <use xlink:href="#m1049bca8e9" x="58.03875" y="88.59025" style="stroke: #000000; stroke-width: 0.8"/>
      </g>
     </g>
     <g id="text_11">
      <!-- 0.6 -->
      <g transform="translate(28.79875 94.3165) scale(0.16 -0.16)">
       <use xlink:href="#ArialMT-30"/>
       <use xlink:href="#ArialMT-2e" x="55.615234"/>
       <use xlink:href="#ArialMT-36" x="83.398438"/>
      </g>
     </g>
    </g>
    <g id="ytick_5">
     <g id="line2d_11">
      <g>
       <use xlink:href="#m1049bca8e9" x="58.03875" y="50.75825" style="stroke: #000000; stroke-width: 0.8"/>
      </g>
     </g>
     <g id="text_12">
      <!-- 0.8 -->
      <g transform="translate(28.79875 56.4845) scale(0.16 -0.16)">
       <use xlink:href="#ArialMT-30"/>
       <use xlink:href="#ArialMT-2e" x="55.615234"/>
       <use xlink:href="#ArialMT-38" x="83.398438"/>
      </g>
     </g>
    </g>
    <g id="ytick_6">
     <g id="line2d_12">
      <g>
       <use xlink:href="#m1049bca8e9" x="58.03875" y="12.92625" style="stroke: #000000; stroke-width: 0.8"/>
      </g>
     </g>
     <g id="text_13">
      <!-- 1.0 -->
      <g transform="translate(28.79875 18.6525) scale(0.16 -0.16)">
       <use xlink:href="#ArialMT-31"/>
       <use xlink:href="#ArialMT-2e" x="55.615234"/>
       <use xlink:href="#ArialMT-30" x="83.398438"/>
      </g>
     </g>
    </g>
    <g id="text_14">
     <!-- True-hypo probability -->
     <g transform="translate(20.799844 196.381719) rotate(-90) scale(0.19 -0.19)">
      <defs>
       <path id="ArialMT-75" d="M 2597 0 
L 2597 488 
Q 2209 -75 1544 -75 
Q 1250 -75 995 37 
Q 741 150 617 320 
Q 494 491 444 738 
Q 409 903 409 1263 
L 409 3319 
L 972 3319 
L 972 1478 
Q 972 1038 1006 884 
Q 1059 663 1231 536 
Q 1403 409 1656 409 
Q 1909 409 2131 539 
Q 2353 669 2445 892 
Q 2538 1116 2538 1541 
L 2538 3319 
L 3100 3319 
L 3100 0 
L 2597 0 
z
" transform="scale(0.015625)"/>
       <path id="ArialMT-65" d="M 2694 1069 
L 3275 997 
Q 3138 488 2766 206 
Q 2394 -75 1816 -75 
Q 1088 -75 661 373 
Q 234 822 234 1631 
Q 234 2469 665 2931 
Q 1097 3394 1784 3394 
Q 2450 3394 2872 2941 
Q 3294 2488 3294 1666 
Q 3294 1616 3291 1516 
L 816 1516 
Q 847 969 1125 678 
Q 1403 388 1819 388 
Q 2128 388 2347 550 
Q 2566 713 2694 1069 
z
M 847 1978 
L 2700 1978 
Q 2663 2397 2488 2606 
Q 2219 2931 1791 2931 
Q 1403 2931 1139 2672 
Q 875 2413 847 1978 
z
" transform="scale(0.015625)"/>
       <path id="ArialMT-2d" d="M 203 1375 
L 203 1941 
L 1931 1941 
L 1931 1375 
L 203 1375 
z
" transform="scale(0.015625)"/>
       <path id="ArialMT-68" d="M 422 0 
L 422 4581 
L 984 4581 
L 984 2938 
Q 1378 3394 1978 3394 
Q 2347 3394 2619 3248 
Q 2891 3103 3008 2847 
Q 3125 2591 3125 2103 
L 3125 0 
L 2563 0 
L 2563 2103 
Q 2563 2525 2380 2717 
Q 2197 2909 1863 2909 
Q 1613 2909 1392 2779 
Q 1172 2650 1078 2428 
Q 984 2206 984 1816 
L 984 0 
L 422 0 
z
" transform="scale(0.015625)"/>
       <path id="ArialMT-79" d="M 397 -1278 
L 334 -750 
Q 519 -800 656 -800 
Q 844 -800 956 -737 
Q 1069 -675 1141 -563 
Q 1194 -478 1313 -144 
Q 1328 -97 1363 -6 
L 103 3319 
L 709 3319 
L 1400 1397 
Q 1534 1031 1641 628 
Q 1738 1016 1872 1384 
L 2581 3319 
L 3144 3319 
L 1881 -56 
Q 1678 -603 1566 -809 
Q 1416 -1088 1222 -1217 
Q 1028 -1347 759 -1347 
Q 597 -1347 397 -1278 
z
" transform="scale(0.015625)"/>
       <path id="ArialMT-70" d="M 422 -1272 
L 422 3319 
L 934 3319 
L 934 2888 
Q 1116 3141 1344 3267 
Q 1572 3394 1897 3394 
Q 2322 3394 2647 3175 
Q 2972 2956 3137 2557 
Q 3303 2159 3303 1684 
Q 3303 1175 3120 767 
Q 2938 359 2589 142 
Q 2241 -75 1856 -75 
Q 1575 -75 1351 44 
Q 1128 163 984 344 
L 984 -1272 
L 422 -1272 
z
M 931 1641 
Q 931 1000 1190 694 
Q 1450 388 1819 388 
Q 2194 388 2461 705 
Q 2728 1022 2728 1688 
Q 2728 2322 2467 2637 
Q 2206 2953 1844 2953 
Q 1484 2953 1207 2617 
Q 931 2281 931 1641 
z
" transform="scale(0.015625)"/>
       <path id="ArialMT-6f" d="M 213 1659 
Q 213 2581 725 3025 
Q 1153 3394 1769 3394 
Q 2453 3394 2887 2945 
Q 3322 2497 3322 1706 
Q 3322 1066 3130 698 
Q 2938 331 2570 128 
Q 2203 -75 1769 -75 
Q 1072 -75 642 372 
Q 213 819 213 1659 
z
M 791 1659 
Q 791 1022 1069 705 
Q 1347 388 1769 388 
Q 2188 388 2466 706 
Q 2744 1025 2744 1678 
Q 2744 2294 2464 2611 
Q 2184 2928 1769 2928 
Q 1347 2928 1069 2612 
Q 791 2297 791 1659 
z
" transform="scale(0.015625)"/>
       <path id="ArialMT-20" transform="scale(0.015625)"/>
       <path id="ArialMT-62" d="M 941 0 
L 419 0 
L 419 4581 
L 981 4581 
L 981 2947 
Q 1338 3394 1891 3394 
Q 2197 3394 2470 3270 
Q 2744 3147 2920 2923 
Q 3097 2700 3197 2384 
Q 3297 2069 3297 1709 
Q 3297 856 2875 390 
Q 2453 -75 1863 -75 
Q 1275 -75 941 416 
L 941 0 
z
M 934 1684 
Q 934 1088 1097 822 
Q 1363 388 1816 388 
Q 2184 388 2453 708 
Q 2722 1028 2722 1663 
Q 2722 2313 2464 2622 
Q 2206 2931 1841 2931 
Q 1472 2931 1203 2611 
Q 934 2291 934 1684 
z
" transform="scale(0.015625)"/>
       <path id="ArialMT-74" d="M 1650 503 
L 1731 6 
Q 1494 -44 1306 -44 
Q 1000 -44 831 53 
Q 663 150 594 308 
Q 525 466 525 972 
L 525 2881 
L 113 2881 
L 113 3319 
L 525 3319 
L 525 4141 
L 1084 4478 
L 1084 3319 
L 1650 3319 
L 1650 2881 
L 1084 2881 
L 1084 941 
Q 1084 700 1114 631 
Q 1144 563 1211 522 
Q 1278 481 1403 481 
Q 1497 481 1650 503 
z
" transform="scale(0.015625)"/>
      </defs>
      <use xlink:href="#ArialMT-54"/>
      <use xlink:href="#ArialMT-72" x="57.333984"/>
      <use xlink:href="#ArialMT-75" x="90.634766"/>
      <use xlink:href="#ArialMT-65" x="146.25"/>
      <use xlink:href="#ArialMT-2d" x="201.865234"/>
      <use xlink:href="#ArialMT-68" x="235.166016"/>
      <use xlink:href="#ArialMT-79" x="290.78125"/>
      <use xlink:href="#ArialMT-70" x="340.78125"/>
      <use xlink:href="#ArialMT-6f" x="396.396484"/>
      <use xlink:href="#ArialMT-20" x="452.011719"/>
      <use xlink:href="#ArialMT-70" x="479.794922"/>
      <use xlink:href="#ArialMT-72" x="535.410156"/>
      <use xlink:href="#ArialMT-6f" x="568.710938"/>
      <use xlink:href="#ArialMT-62" x="624.326172"/>
      <use xlink:href="#ArialMT-61" x="679.941406"/>
      <use xlink:href="#ArialMT-62" x="735.556641"/>
      <use xlink:href="#ArialMT-69" x="791.171875"/>
      <use xlink:href="#ArialMT-6c" x="813.388672"/>
      <use xlink:href="#ArialMT-69" x="835.605469"/>
      <use xlink:href="#ArialMT-74" x="857.822266"/>
      <use xlink:href="#ArialMT-79" x="885.605469"/>
     </g>
    </g>
   </g>
   <g id="line2d_13">
    <path d="M 69.539728 190.26375 
L 77.44665 190.26375 
L 78.165461 202.08625 
L 88.947627 202.08625 
L 89.666438 190.26375 
L 100.448605 190.26375 
L 101.167416 202.08625 
L 146.452515 202.08625 
L 148.608948 166.61875 
L 149.327759 166.61875 
L 150.04657 154.79625 
L 150.765381 154.79625 
L 152.203003 131.15125 
L 152.921814 131.15125 
L 153.640625 119.32875 
L 155.797059 119.32875 
L 157.234681 95.68375 
L 158.672303 95.68375 
L 160.109925 119.32875 
L 160.828736 119.32875 
L 161.547548 131.15125 
L 162.266359 131.15125 
L 162.98517 142.97375 
L 163.703981 142.97375 
L 164.422792 131.15125 
L 165.141603 142.97375 
L 165.860414 142.97375 
L 167.298036 119.32875 
L 168.735658 142.97375 
L 173.048525 142.97375 
L 173.767336 131.15125 
L 175.204958 131.15125 
L 175.923769 142.97375 
L 177.361392 142.97375 
L 178.799014 166.61875 
L 180.955447 131.15125 
L 181.674258 142.97375 
L 185.987125 142.97375 
L 186.705936 154.79625 
L 188.862369 154.79625 
L 189.58118 142.97375 
L 191.018802 142.97375 
L 191.737613 154.79625 
L 194.612858 154.79625 
L 195.331669 142.97375 
L 196.05048 142.97375 
L 196.769291 154.79625 
L 200.363347 154.79625 
L 201.082158 166.61875 
L 201.800969 166.61875 
L 202.51978 178.44125 
L 203.957402 178.44125 
L 204.676213 166.61875 
L 206.113835 166.61875 
L 206.832646 178.44125 
L 208.270269 178.44125 
L 208.98908 166.61875 
L 214.739568 166.61875 
L 216.177191 190.26375 
L 219.771246 190.26375 
L 220.490057 202.08625 
L 224.802924 202.08625 
L 225.521735 190.26375 
L 236.303901 190.26375 
L 237.022712 202.08625 
L 237.741523 190.26375 
L 243.492012 190.26375 
L 244.210823 178.44125 
L 246.367257 178.44125 
L 247.086068 166.61875 
L 248.52369 166.61875 
L 249.242501 178.44125 
L 250.680123 154.79625 
L 252.836556 154.79625 
L 253.555368 142.97375 
L 254.274179 142.97375 
L 254.99299 131.15125 
L 255.711801 142.97375 
L 257.868234 142.97375 
L 258.587045 154.79625 
L 260.743478 154.79625 
L 262.181101 178.44125 
L 264.337534 178.44125 
L 265.056345 190.26375 
L 270.806834 190.26375 
L 272.244456 166.61875 
L 277.276134 166.61875 
L 277.994945 178.44125 
L 281.589 178.44125 
L 282.307811 166.61875 
L 283.745433 190.26375 
L 290.214733 190.26375 
L 290.933544 178.44125 
L 293.089978 178.44125 
L 293.808789 190.26375 
L 295.965222 190.26375 
L 296.684033 178.44125 
L 300.278089 178.44125 
L 301.715711 154.79625 
L 302.434522 166.61875 
L 303.153333 154.79625 
L 303.872144 154.79625 
L 304.590955 142.97375 
L 307.4662 142.97375 
L 308.185011 154.79625 
L 311.779066 154.79625 
L 313.216688 178.44125 
L 313.935499 178.44125 
L 314.65431 190.26375 
L 315.373122 190.26375 
L 316.091933 202.08625 
L 316.810744 190.26375 
L 319.685988 190.26375 
L 320.404799 178.44125 
L 323.280044 178.44125 
L 327.59291 107.50625 
L 328.311721 107.50625 
L 330.468155 72.03875 
L 331.186966 72.03875 
L 331.905777 83.86125 
L 332.624588 72.03875 
L 335.499832 72.03875 
L 336.218643 83.86125 
L 337.656265 83.86125 
L 338.375077 95.68375 
L 339.812699 95.68375 
L 341.250321 119.32875 
L 341.969132 119.32875 
L 343.406754 95.68375 
L 344.844376 95.68375 
L 346.281999 72.03875 
L 347.719621 72.03875 
L 348.438432 83.86125 
L 349.876054 83.86125 
L 350.594865 95.68375 
L 351.313676 95.68375 
L 352.751298 72.03875 
L 354.188921 95.68375 
L 354.907732 95.68375 
L 355.626543 107.50625 
L 356.345354 95.68375 
L 357.782976 119.32875 
L 358.501787 119.32875 
L 359.220598 107.50625 
L 359.939409 107.50625 
L 360.65822 119.32875 
L 362.095843 119.32875 
L 364.252276 154.79625 
L 367.846331 154.79625 
L 368.565143 142.97375 
L 369.283954 142.97375 
L 370.721576 166.61875 
L 371.440387 166.61875 
L 373.59682 131.15125 
L 374.315631 131.15125 
L 375.753253 107.50625 
L 376.472065 107.50625 
L 377.190876 95.68375 
L 382.941364 95.68375 
L 385.097798 131.15125 
L 386.53542 131.15125 
L 387.254231 142.97375 
L 388.691853 142.97375 
L 389.410664 154.79625 
L 390.129475 142.97375 
L 390.848286 142.97375 
L 391.567098 154.79625 
L 395.879964 83.86125 
L 399.47402 83.86125 
L 400.192831 95.68375 
L 400.911642 95.68375 
L 402.349264 119.32875 
L 403.068075 119.32875 
L 407.380942 190.26375 
L 408.099753 190.26375 
L 408.818564 178.44125 
L 409.537375 178.44125 
L 410.256186 166.61875 
L 413.850241 166.61875 
L 415.287864 142.97375 
L 417.444297 142.97375 
L 419.60073 107.50625 
L 421.757163 107.50625 
L 424.632408 60.21625 
L 426.788841 60.21625 
L 427.507652 48.39375 
L 428.226463 48.39375 
L 428.945274 36.57125 
L 431.820519 36.57125 
L 432.53933 48.39375 
L 436.133385 48.39375 
L 436.852196 36.57125 
L 439.00863 36.57125 
L 439.727441 24.74875 
L 443.321496 24.74875 
L 444.040307 12.92625 
L 444.759118 24.74875 
L 452.66604 24.74875 
L 453.384852 36.57125 
L 455.541285 36.57125 
L 456.260096 24.74875 
L 464.167018 24.74875 
L 464.885829 12.92625 
L 466.323451 12.92625 
L 467.042262 24.74875 
L 477.824429 24.74875 
L 478.54324 12.92625 
L 517.359039 12.92625 
L 517.359039 12.92625 
" style="fill: none; stroke: #a6a6a6; stroke-width: 2; stroke-linecap: square"/>
   </g>
   <g id="line2d_14">
    <path d="M 69.539728 198.064166 
L 70.97735 197.458567 
L 71.696161 197.222246 
L 72.414972 197.143258 
L 73.852594 197.480121 
L 76.727838 197.239209 
L 77.44665 197.127025 
L 78.165461 197.237506 
L 78.884272 197.218122 
L 79.603083 197.021687 
L 81.759516 197.237489 
L 84.63476 196.660018 
L 86.072383 196.84582 
L 86.791194 196.67928 
L 88.947627 197.128574 
L 89.666438 197.039871 
L 90.385249 196.706128 
L 91.822871 196.56548 
L 93.260494 196.520592 
L 93.979305 196.756344 
L 95.416927 196.498274 
L 97.57336 196.297752 
L 98.292171 196.429746 
L 99.729793 196.356227 
L 100.448605 196.356129 
L 101.167416 196.539587 
L 102.605038 197.233864 
L 104.04266 197.511867 
L 104.761471 197.294822 
L 106.917904 194.882308 
L 107.636715 194.766247 
L 109.793149 193.918573 
L 111.230771 193.655339 
L 111.949582 193.100754 
L 112.668393 191.94897 
L 113.387204 191.207276 
L 114.106015 190.770096 
L 114.824826 190.058046 
L 115.543638 189.530649 
L 116.262449 189.41787 
L 116.98126 189.993353 
L 117.700071 190.8996 
L 118.418882 191.50358 
L 119.137693 191.014984 
L 119.856504 190.718439 
L 120.575315 189.892927 
L 121.294126 189.431383 
L 122.012937 189.536456 
L 122.731748 189.482938 
L 123.45056 189.885563 
L 124.169371 190.903174 
L 124.888182 191.324557 
L 125.606993 191.495512 
L 127.044615 192.100638 
L 127.763426 192.306506 
L 128.482237 192.046807 
L 129.201048 192.028119 
L 129.919859 191.852247 
L 130.63867 192.298628 
L 131.357482 191.961829 
L 132.076293 192.429571 
L 132.795104 192.207032 
L 133.513915 191.577416 
L 135.670348 191.232872 
L 137.826781 191.711449 
L 138.545592 191.490629 
L 139.264404 190.911436 
L 139.983215 190.894148 
L 140.702026 190.518999 
L 141.420837 190.391243 
L 142.139648 189.655607 
L 142.858459 189.735077 
L 143.57727 189.149237 
L 144.296081 189.241751 
L 145.014892 188.578175 
L 145.733703 187.705457 
L 146.452515 187.216695 
L 147.171326 186.248942 
L 148.608948 183.536393 
L 150.04657 182.835741 
L 150.765381 182.948499 
L 151.484192 182.216919 
L 152.203003 181.282625 
L 153.640625 180.262548 
L 155.797059 179.379636 
L 156.51587 179.1805 
L 157.234681 178.464554 
L 157.953492 176.121297 
L 158.672303 173.148412 
L 160.828736 166.189137 
L 161.547548 165.135612 
L 162.266359 163.334838 
L 162.98517 162.135644 
L 163.703981 161.655249 
L 164.422792 160.584342 
L 165.141603 160.01892 
L 165.860414 159.260913 
L 166.579225 159.431934 
L 167.298036 157.479102 
L 168.016847 156.898771 
L 168.735658 157.671638 
L 169.45447 159.021444 
L 170.173281 160.999358 
L 170.892092 162.286562 
L 171.610903 163.992548 
L 173.048525 164.336798 
L 173.767336 165.549626 
L 174.486147 167.06389 
L 175.923769 171.557335 
L 176.64258 173.565817 
L 177.361392 174.882208 
L 178.080203 175.645995 
L 178.799014 178.241724 
L 179.517825 179.217896 
L 180.236636 178.373892 
L 180.955447 177.863171 
L 181.674258 178.273673 
L 182.393069 179.480005 
L 183.11188 179.525499 
L 183.830691 180.517202 
L 184.549503 179.696094 
L 185.268314 179.203844 
L 185.987125 178.037067 
L 186.705936 175.395356 
L 187.424747 173.496816 
L 188.862369 170.696665 
L 189.58118 169.071005 
L 190.299991 166.772358 
L 191.018802 165.23704 
L 191.737613 165.009527 
L 192.456425 165.856947 
L 193.175236 166.435864 
L 193.894047 165.533132 
L 194.612858 166.186074 
L 195.331669 166.584154 
L 196.05048 167.383954 
L 196.769291 166.815087 
L 197.488102 166.794437 
L 198.206913 167.705257 
L 199.644535 166.637269 
L 200.363347 167.105716 
L 201.082158 167.107707 
L 201.800969 168.125471 
L 202.51978 168.490483 
L 203.238591 168.600925 
L 203.957402 167.564979 
L 205.395024 166.269092 
L 206.832646 163.234075 
L 208.270269 165.694828 
L 208.98908 165.883211 
L 209.707891 165.853646 
L 210.426702 165.268602 
L 211.145513 163.519313 
L 211.864324 162.629461 
L 212.583135 162.750254 
L 213.301946 161.933548 
L 214.020757 162.143621 
L 214.739568 162.563248 
L 215.45838 162.503102 
L 216.177191 161.319676 
L 217.614813 159.390557 
L 218.333624 158.700831 
L 219.771246 155.047556 
L 220.490057 153.972989 
L 221.208868 153.19291 
L 222.64649 159.076737 
L 223.365302 160.145589 
L 224.084113 160.716981 
L 224.802924 162.082897 
L 225.521735 162.908917 
L 226.240546 163.242343 
L 226.959357 163.449467 
L 228.396979 165.796781 
L 229.11579 167.535578 
L 229.834601 170.451585 
L 231.272224 174.751099 
L 231.991035 177.164842 
L 232.709846 178.144626 
L 233.428657 176.800289 
L 234.147468 175.099267 
L 234.866279 174.594925 
L 235.58509 174.48398 
L 236.303901 173.139348 
L 237.022712 172.085678 
L 237.741523 170.008287 
L 238.460335 168.676391 
L 239.179146 166.070535 
L 239.897957 164.431495 
L 240.616768 161.389131 
L 241.335579 156.951354 
L 242.05439 155.857768 
L 242.773201 155.121774 
L 243.492012 155.262096 
L 244.929634 156.668841 
L 245.648445 158.104844 
L 247.804879 161.149466 
L 248.52369 162.335047 
L 249.242501 164.562549 
L 249.961312 166.037702 
L 250.680123 166.716425 
L 251.398934 166.796696 
L 252.117745 167.914008 
L 252.836556 167.147277 
L 253.555368 162.938183 
L 254.274179 160.135165 
L 254.99299 155.888182 
L 255.711801 153.148235 
L 256.430612 151.449065 
L 257.149423 150.270599 
L 258.587045 148.664453 
L 259.305856 148.450718 
L 260.024667 148.01243 
L 260.743478 146.595987 
L 261.46229 146.572809 
L 262.181101 147.2924 
L 263.618723 147.052423 
L 264.337534 147.769415 
L 265.056345 149.814533 
L 265.775156 150.402152 
L 266.493967 150.203717 
L 267.212778 149.770223 
L 267.931589 147.101471 
L 268.6504 143.694115 
L 269.369212 141.606395 
L 270.088023 138.906054 
L 272.244456 128.47919 
L 272.963267 129.153945 
L 273.682078 131.001178 
L 274.400889 134.075011 
L 275.838511 141.012728 
L 276.557323 143.184584 
L 277.276134 144.002354 
L 278.713756 145.941136 
L 279.432567 148.511744 
L 280.151378 150.484312 
L 280.870189 151.093433 
L 281.589 152.534685 
L 282.307811 153.652885 
L 283.745433 157.426581 
L 286.620678 147.941047 
L 287.339489 146.158926 
L 288.0583 144.765842 
L 288.777111 146.656424 
L 289.495922 149.465675 
L 290.214733 151.333295 
L 290.933544 150.834146 
L 291.652355 150.061782 
L 293.089978 145.884459 
L 293.808789 144.017252 
L 294.5276 140.640501 
L 295.246411 139.393596 
L 297.402844 128.842606 
L 298.121655 126.749467 
L 298.840466 123.997058 
L 299.559278 122.099316 
L 300.9969 114.354871 
L 301.715711 111.419926 
L 302.434522 110.747898 
L 303.153333 110.305054 
L 304.590955 113.015635 
L 306.028577 119.177802 
L 306.747388 120.154612 
L 307.4662 123.594583 
L 308.903822 129.090423 
L 309.622633 129.194158 
L 310.341444 130.66522 
L 311.060255 131.249621 
L 311.779066 132.478727 
L 312.497877 134.414748 
L 313.216688 135.650565 
L 313.935499 137.548295 
L 315.373122 145.204553 
L 317.529555 153.241736 
L 318.248366 156.848018 
L 318.967177 159.075802 
L 319.685988 160.613313 
L 320.404799 161.829614 
L 321.12361 164.335769 
L 321.842421 165.416114 
L 322.561233 165.47143 
L 323.280044 163.208704 
L 323.998855 161.506797 
L 324.717666 158.410861 
L 325.436477 156.786085 
L 327.59291 146.074683 
L 329.749343 133.726723 
L 331.186966 125.645087 
L 331.905777 123.308042 
L 332.624588 124.953572 
L 333.343399 127.746008 
L 334.06221 129.975975 
L 334.781021 133.803377 
L 335.499832 135.467991 
L 336.218643 138.695414 
L 336.937454 137.955263 
L 337.656265 136.678754 
L 338.375077 135.821616 
L 339.093888 135.308585 
L 340.53151 130.748889 
L 341.250321 129.406014 
L 342.687943 127.726083 
L 343.406754 124.164209 
L 344.844376 110.999474 
L 346.281999 101.825688 
L 347.00081 97.111515 
L 347.719621 93.442534 
L 348.438432 91.215802 
L 349.157243 89.91706 
L 349.876054 88.14987 
L 350.594865 88.192658 
L 351.313676 91.733897 
L 353.47011 100.127025 
L 354.188921 102.779306 
L 355.626543 110.832698 
L 356.345354 111.336859 
L 357.782976 111.284588 
L 358.501787 112.050933 
L 359.220598 111.783713 
L 359.939409 112.206028 
L 360.65822 114.201278 
L 361.377032 115.839764 
L 362.095843 117.117462 
L 364.252276 113.803383 
L 364.971087 114.269251 
L 365.689898 113.843518 
L 366.408709 112.467573 
L 367.12752 110.820549 
L 367.846331 111.378369 
L 368.565143 111.221756 
L 369.283954 111.580001 
L 370.002765 112.833633 
L 370.721576 114.496805 
L 372.159198 115.539204 
L 372.878009 115.222453 
L 373.59682 113.292452 
L 374.315631 110.958995 
L 376.472065 101.51787 
L 377.190876 99.368428 
L 379.347309 94.701782 
L 382.222553 91.173205 
L 382.941364 89.602485 
L 383.660175 86.33557 
L 384.378987 85.228247 
L 385.097798 85.122056 
L 385.816609 84.664839 
L 386.53542 85.441895 
L 387.254231 85.303517 
L 387.973042 85.442845 
L 389.410664 82.678333 
L 390.129475 86.612714 
L 390.848286 88.691947 
L 392.285909 95.639176 
L 393.00472 97.490723 
L 393.723531 97.887868 
L 394.442342 99.24132 
L 395.161153 100.111264 
L 395.879964 100.72161 
L 396.598775 101.612133 
L 397.317586 102.902544 
L 398.036397 103.892256 
L 398.755208 105.759572 
L 399.47402 106.257533 
L 400.192831 107.870548 
L 400.911642 108.971436 
L 401.630453 105.428208 
L 403.068075 99.72344 
L 403.786886 96.165151 
L 404.505697 99.541483 
L 405.943319 104.99018 
L 406.66213 107.172452 
L 407.380942 107.967437 
L 408.099753 107.650091 
L 408.818564 105.358207 
L 409.537375 103.69787 
L 410.256186 100.576787 
L 410.974997 98.112774 
L 411.693808 96.699549 
L 412.412619 96.890999 
L 413.850241 97.715613 
L 414.569053 96.62452 
L 415.287864 94.933755 
L 416.006675 87.133011 
L 417.444297 75.59473 
L 418.163108 71.36996 
L 418.881919 66.261998 
L 419.60073 63.038795 
L 420.319541 61.69154 
L 421.038352 60.902887 
L 421.757163 61.678587 
L 422.475975 62.985867 
L 423.194786 62.841804 
L 423.913597 61.974976 
L 424.632408 59.588199 
L 425.351219 58.66233 
L 426.07003 57.977591 
L 426.788841 58.40405 
L 427.507652 59.11985 
L 428.226463 63.699204 
L 428.945274 65.600158 
L 429.664085 66.709483 
L 431.820519 81.431031 
L 432.53933 86.222283 
L 433.258141 89.086764 
L 434.695763 91.783685 
L 435.414574 92.487014 
L 436.133385 93.959148 
L 436.852196 97.513349 
L 437.571008 100.152763 
L 438.289819 101.846141 
L 439.00863 102.981471 
L 439.727441 99.525374 
L 440.446252 99.029872 
L 441.165063 97.815885 
L 444.040307 80.575766 
L 445.47793 75.296369 
L 446.196741 73.405791 
L 446.915552 71.885109 
L 447.634363 71.404024 
L 449.071985 66.942787 
L 449.790796 66.007809 
L 450.509607 66.680307 
L 451.228418 66.050974 
L 451.947229 64.918394 
L 452.66604 65.355369 
L 453.384852 66.041924 
L 454.103663 70.216901 
L 454.822474 73.47759 
L 455.541285 74.793832 
L 456.260096 75.378517 
L 456.978907 75.321799 
L 458.416529 75.758462 
L 459.13534 74.315855 
L 459.854151 71.380153 
L 461.291774 67.808141 
L 462.010585 64.750945 
L 464.167018 61.024334 
L 464.885829 59.26354 
L 465.60464 54.325894 
L 466.323451 50.968139 
L 467.761073 47.147787 
L 468.479885 46.906946 
L 469.917507 44.905168 
L 470.636318 44.983452 
L 471.355129 45.65797 
L 472.07394 45.508805 
L 472.792751 48.83474 
L 473.511562 50.241601 
L 474.230373 50.375539 
L 474.949184 50.816516 
L 475.667995 52.836663 
L 476.386807 53.809097 
L 477.105618 58.661888 
L 477.824429 61.154662 
L 478.54324 62.389308 
L 479.262051 62.133812 
L 479.980862 61.631936 
L 480.699673 61.759473 
L 481.418484 62.007066 
L 482.137295 61.709493 
L 482.856106 61.669026 
L 483.574918 62.116008 
L 484.293729 59.191736 
L 485.01254 57.47654 
L 486.450162 56.575855 
L 487.168973 53.643843 
L 487.887784 52.19857 
L 488.606595 46.732742 
L 489.325406 43.71458 
L 490.044217 41.447775 
L 490.763028 41.022172 
L 492.200651 41.006636 
L 492.919462 40.705221 
L 493.638273 39.530269 
L 494.357084 38.569686 
L 495.794706 35.98194 
L 497.951139 34.289648 
L 498.66995 34.320268 
L 499.388762 34.64706 
L 500.107573 34.766087 
L 500.826384 34.006716 
L 501.545195 33.782219 
L 502.264006 33.86651 
L 502.982817 33.741518 
L 503.701628 34.10587 
L 504.420439 34.72919 
L 505.13925 35.606691 
L 505.858061 36.18935 
L 506.576873 37.192687 
L 507.295684 37.717614 
L 508.014495 38.510962 
L 508.733306 38.823307 
L 509.452117 39.624952 
L 510.170928 39.952225 
L 510.889739 40.127954 
L 511.60855 40.113552 
L 512.327361 40.42835 
L 513.764983 43.130967 
L 514.483795 45.910579 
L 515.202606 47.689524 
L 515.921417 48.603513 
L 516.640228 49.055196 
L 517.359039 49.229628 
L 517.359039 49.229628 
" style="fill: none; stroke: #ffc000; stroke-width: 2; stroke-linecap: square"/>
   </g>
   <g id="line2d_15">
    <path d="M 104.04266 202.08625 
L 104.04266 12.92625 
" clip-path="url(#p7be685c512)" style="fill: none; stroke-dasharray: 3.7,1.6; stroke-dashoffset: 0; stroke: #808080; stroke-opacity: 0.3"/>
   </g>
   <g id="line2d_16">
    <path d="M 150.04657 202.08625 
L 150.04657 12.92625 
" clip-path="url(#p7be685c512)" style="fill: none; stroke-dasharray: 3.7,1.6; stroke-dashoffset: 0; stroke: #808080; stroke-opacity: 0.3"/>
   </g>
   <g id="line2d_17">
    <path d="M 196.05048 202.08625 
L 196.05048 12.92625 
" clip-path="url(#p7be685c512)" style="fill: none; stroke-dasharray: 3.7,1.6; stroke-dashoffset: 0; stroke: #808080; stroke-opacity: 0.3"/>
   </g>
   <g id="line2d_18">
    <path d="M 242.05439 202.08625 
L 242.05439 12.92625 
" clip-path="url(#p7be685c512)" style="fill: none; stroke-dasharray: 3.7,1.6; stroke-dashoffset: 0; stroke: #808080; stroke-opacity: 0.3"/>
   </g>
   <g id="line2d_19">
    <path d="M 288.0583 202.08625 
L 288.0583 12.92625 
" clip-path="url(#p7be685c512)" style="fill: none; stroke-dasharray: 3.7,1.6; stroke-dashoffset: 0; stroke: #808080; stroke-opacity: 0.3"/>
   </g>
   <g id="line2d_20">
    <path d="M 334.06221 202.08625 
L 334.06221 12.92625 
" clip-path="url(#p7be685c512)" style="fill: none; stroke-dasharray: 3.7,1.6; stroke-dashoffset: 0; stroke: #808080; stroke-opacity: 0.3"/>
   </g>
   <g id="line2d_21">
    <path d="M 380.06612 202.08625 
L 380.06612 12.92625 
" clip-path="url(#p7be685c512)" style="fill: none; stroke-dasharray: 3.7,1.6; stroke-dashoffset: 0; stroke: #808080; stroke-opacity: 0.3"/>
   </g>
   <g id="line2d_22">
    <path d="M 426.07003 202.08625 
L 426.07003 12.92625 
" clip-path="url(#p7be685c512)" style="fill: none; stroke-dasharray: 3.7,1.6; stroke-dashoffset: 0; stroke: #808080; stroke-opacity: 0.3"/>
   </g>
   <g id="line2d_23">
    <path d="M 472.07394 202.08625 
L 472.07394 12.92625 
" clip-path="url(#p7be685c512)" style="fill: none; stroke-dasharray: 3.7,1.6; stroke-dashoffset: 0; stroke: #808080; stroke-opacity: 0.3"/>
   </g>
   <g id="patch_3">
    <path d="M 58.03875 202.08625 
L 58.03875 12.92625 
" style="fill: none; stroke: #000000; stroke-width: 2; stroke-linejoin: miter; stroke-linecap: square"/>
   </g>
   <g id="patch_4">
    <path d="M 58.03875 202.08625 
L 518.07785 202.08625 
" style="fill: none; stroke: #000000; stroke-width: 2; stroke-linejoin: miter; stroke-linecap: square"/>
   </g>
   <g id="text_15">
    <!-- S14 -->
    <g transform="translate(459.49152 188.65325) scale(0.2 -0.2)">
     <defs>
      <path id="ArialMT-53" d="M 288 1472 
L 859 1522 
Q 900 1178 1048 958 
Q 1197 738 1509 602 
Q 1822 466 2213 466 
Q 2559 466 2825 569 
Q 3091 672 3220 851 
Q 3350 1031 3350 1244 
Q 3350 1459 3225 1620 
Q 3100 1781 2813 1891 
Q 2628 1963 1997 2114 
Q 1366 2266 1113 2400 
Q 784 2572 623 2826 
Q 463 3081 463 3397 
Q 463 3744 659 4045 
Q 856 4347 1234 4503 
Q 1613 4659 2075 4659 
Q 2584 4659 2973 4495 
Q 3363 4331 3572 4012 
Q 3781 3694 3797 3291 
L 3216 3247 
Q 3169 3681 2898 3903 
Q 2628 4125 2100 4125 
Q 1550 4125 1298 3923 
Q 1047 3722 1047 3438 
Q 1047 3191 1225 3031 
Q 1400 2872 2139 2705 
Q 2878 2538 3153 2413 
Q 3553 2228 3743 1945 
Q 3934 1663 3934 1294 
Q 3934 928 3725 604 
Q 3516 281 3123 101 
Q 2731 -78 2241 -78 
Q 1619 -78 1198 103 
Q 778 284 539 648 
Q 300 1013 288 1472 
z
" transform="scale(0.015625)"/>
     </defs>
     <use xlink:href="#ArialMT-53"/>
     <use xlink:href="#ArialMT-31" x="66.699219"/>
     <use xlink:href="#ArialMT-34" x="122.314453"/>
    </g>
   </g>
  </g>
  <g id="axes_2">
   <g id="patch_5">
    <path d="M 572.89785 202.08625 
L 842.9208 202.08625 
L 842.9208 12.92625 
L 572.89785 12.92625 
L 572.89785 202.08625 
z
" style="fill: none"/>
   </g>
   <g id="matplotlib.axis_3">
    <g id="xtick_7">
     <g id="line2d_24">
      <g>
       <use xlink:href="#mb1b26c4984" x="572.89785" y="202.08625" style="stroke: #000000; stroke-width: 0.8"/>
      </g>
     </g>
     <g id="text_16">
      <!-- 0 -->
      <g transform="translate(568.4491 220.53875) scale(0.16 -0.16)">
       <use xlink:href="#ArialMT-30"/>
      </g>
     </g>
    </g>
    <g id="xtick_8">
     <g id="line2d_25">
      <g>
       <use xlink:href="#mb1b26c4984" x="626.90244" y="202.08625" style="stroke: #000000; stroke-width: 0.8"/>
      </g>
     </g>
     <g id="text_17">
      <!-- 128 -->
      <g transform="translate(613.55619 220.53875) scale(0.16 -0.16)">
       <use xlink:href="#ArialMT-31"/>
       <use xlink:href="#ArialMT-32" x="55.615234"/>
       <use xlink:href="#ArialMT-38" x="111.230469"/>
      </g>
     </g>
    </g>
    <g id="xtick_9">
     <g id="line2d_26">
      <g>
       <use xlink:href="#mb1b26c4984" x="680.90703" y="202.08625" style="stroke: #000000; stroke-width: 0.8"/>
      </g>
     </g>
     <g id="text_18">
      <!-- 256 -->
      <g transform="translate(667.56078 220.53875) scale(0.16 -0.16)">
       <use xlink:href="#ArialMT-32"/>
       <use xlink:href="#ArialMT-35" x="55.615234"/>
       <use xlink:href="#ArialMT-36" x="111.230469"/>
      </g>
     </g>
    </g>
    <g id="xtick_10">
     <g id="line2d_27">
      <g>
       <use xlink:href="#mb1b26c4984" x="734.91162" y="202.08625" style="stroke: #000000; stroke-width: 0.8"/>
      </g>
     </g>
     <g id="text_19">
      <!-- 384 -->
      <g transform="translate(721.56537 220.53875) scale(0.16 -0.16)">
       <use xlink:href="#ArialMT-33"/>
       <use xlink:href="#ArialMT-38" x="55.615234"/>
       <use xlink:href="#ArialMT-34" x="111.230469"/>
      </g>
     </g>
    </g>
    <g id="xtick_11">
     <g id="line2d_28">
      <g>
       <use xlink:href="#mb1b26c4984" x="788.91621" y="202.08625" style="stroke: #000000; stroke-width: 0.8"/>
      </g>
     </g>
     <g id="text_20">
      <!-- 512 -->
      <g transform="translate(775.56996 220.53875) scale(0.16 -0.16)">
       <use xlink:href="#ArialMT-35"/>
       <use xlink:href="#ArialMT-31" x="55.615234"/>
       <use xlink:href="#ArialMT-32" x="111.230469"/>
      </g>
     </g>
    </g>
    <g id="xtick_12">
     <g id="line2d_29">
      <g>
       <use xlink:href="#mb1b26c4984" x="842.9208" y="202.08625" style="stroke: #000000; stroke-width: 0.8"/>
      </g>
     </g>
     <g id="text_21">
      <!-- 640 -->
      <g transform="translate(829.57455 220.53875) scale(0.16 -0.16)">
       <use xlink:href="#ArialMT-36"/>
       <use xlink:href="#ArialMT-34" x="55.615234"/>
       <use xlink:href="#ArialMT-30" x="111.230469"/>
      </g>
     </g>
    </g>
    <g id="text_22">
     <!-- Trial -->
     <g transform="translate(689.795497 241.318594) scale(0.19 -0.19)">
      <use xlink:href="#ArialMT-54"/>
      <use xlink:href="#ArialMT-72" x="57.333984"/>
      <use xlink:href="#ArialMT-69" x="90.634766"/>
      <use xlink:href="#ArialMT-61" x="112.851562"/>
      <use xlink:href="#ArialMT-6c" x="168.466797"/>
     </g>
    </g>
   </g>
   <g id="matplotlib.axis_4">
    <g id="ytick_7">
     <g id="line2d_30">
      <g>
       <use xlink:href="#m1049bca8e9" x="572.89785" y="202.08625" style="stroke: #000000; stroke-width: 0.8"/>
      </g>
     </g>
    </g>
    <g id="ytick_8">
     <g id="line2d_31">
      <g>
       <use xlink:href="#m1049bca8e9" x="572.89785" y="164.25425" style="stroke: #000000; stroke-width: 0.8"/>
      </g>
     </g>
    </g>
    <g id="ytick_9">
     <g id="line2d_32">
      <g>
       <use xlink:href="#m1049bca8e9" x="572.89785" y="126.42225" style="stroke: #000000; stroke-width: 0.8"/>
      </g>
     </g>
    </g>
    <g id="ytick_10">
     <g id="line2d_33">
      <g>
       <use xlink:href="#m1049bca8e9" x="572.89785" y="88.59025" style="stroke: #000000; stroke-width: 0.8"/>
      </g>
     </g>
    </g>
    <g id="ytick_11">
     <g id="line2d_34">
      <g>
       <use xlink:href="#m1049bca8e9" x="572.89785" y="50.75825" style="stroke: #000000; stroke-width: 0.8"/>
      </g>
     </g>
    </g>
    <g id="ytick_12">
     <g id="line2d_35">
      <g>
       <use xlink:href="#m1049bca8e9" x="572.89785" y="12.92625" style="stroke: #000000; stroke-width: 0.8"/>
      </g>
     </g>
    </g>
   </g>
   <g id="line2d_36">
    <path d="M 579.648424 190.26375 
L 584.289443 190.26375 
L 584.711354 202.08625 
L 591.040017 202.08625 
L 591.461928 190.26375 
L 597.790591 190.26375 
L 598.212502 202.08625 
L 624.792886 202.08625 
L 626.058618 166.61875 
L 626.480529 166.61875 
L 626.90244 154.79625 
L 627.324351 154.79625 
L 628.168173 131.15125 
L 628.590083 131.15125 
L 629.011994 119.32875 
L 630.277727 119.32875 
L 631.121549 95.68375 
L 631.96537 95.68375 
L 632.809192 119.32875 
L 633.231103 119.32875 
L 633.653014 131.15125 
L 634.074925 131.15125 
L 634.496835 142.97375 
L 634.918746 142.97375 
L 635.340657 131.15125 
L 635.762568 142.97375 
L 636.184479 142.97375 
L 637.028301 119.32875 
L 637.872122 142.97375 
L 640.403588 142.97375 
L 640.825498 131.15125 
L 641.66932 131.15125 
L 642.091231 142.97375 
L 642.935053 142.97375 
L 643.778874 166.61875 
L 645.044607 131.15125 
L 645.466518 142.97375 
L 647.997983 142.97375 
L 648.419894 154.79625 
L 649.685626 154.79625 
L 650.107537 142.97375 
L 650.951359 142.97375 
L 651.37327 154.79625 
L 653.060913 154.79625 
L 653.482824 142.97375 
L 653.904735 142.97375 
L 654.326646 154.79625 
L 656.4362 154.79625 
L 656.858111 166.61875 
L 657.280022 166.61875 
L 657.701933 178.44125 
L 658.545754 178.44125 
L 658.967665 166.61875 
L 659.811487 166.61875 
L 660.233398 178.44125 
L 661.07722 178.44125 
L 661.49913 166.61875 
L 664.874417 166.61875 
L 665.718239 190.26375 
L 667.827793 190.26375 
L 668.249704 202.08625 
L 670.781169 202.08625 
L 671.20308 190.26375 
L 677.531743 190.26375 
L 677.953654 202.08625 
L 678.375565 190.26375 
L 681.750852 190.26375 
L 682.172763 178.44125 
L 683.438495 178.44125 
L 683.860406 166.61875 
L 684.704228 166.61875 
L 685.126139 178.44125 
L 685.96996 154.79625 
L 687.235693 154.79625 
L 687.657604 142.97375 
L 688.079515 142.97375 
L 688.501425 131.15125 
L 688.923336 142.97375 
L 690.189069 142.97375 
L 690.61098 154.79625 
L 691.876712 154.79625 
L 692.720534 178.44125 
L 693.986267 178.44125 
L 694.408178 190.26375 
L 697.783464 190.26375 
L 698.627286 166.61875 
L 701.580662 166.61875 
L 702.002573 178.44125 
L 704.112127 178.44125 
L 704.534038 166.61875 
L 705.37786 190.26375 
L 709.175058 190.26375 
L 709.596968 178.44125 
L 710.862701 178.44125 
L 711.284612 190.26375 
L 712.550344 190.26375 
L 712.972255 178.44125 
L 715.08181 178.44125 
L 715.925631 154.79625 
L 716.347542 166.61875 
L 716.769453 154.79625 
L 717.191364 154.79625 
L 717.613275 142.97375 
L 719.300918 142.97375 
L 719.722829 154.79625 
L 721.832383 154.79625 
L 722.676205 178.44125 
L 723.098116 178.44125 
L 723.520027 190.26375 
L 723.941938 190.26375 
L 724.363849 202.08625 
L 724.785759 190.26375 
L 726.473403 190.26375 
L 726.895314 178.44125 
L 728.582957 178.44125 
L 731.114422 107.50625 
L 731.536333 107.50625 
L 732.802066 72.03875 
L 733.223977 72.03875 
L 733.645887 83.86125 
L 734.067798 72.03875 
L 735.755442 72.03875 
L 736.177353 83.86125 
L 737.021174 83.86125 
L 737.443085 95.68375 
L 738.286907 95.68375 
L 739.130729 119.32875 
L 739.552639 119.32875 
L 740.396461 95.68375 
L 741.240283 95.68375 
L 742.084105 72.03875 
L 742.927926 72.03875 
L 743.349837 83.86125 
L 744.193659 83.86125 
L 744.61557 95.68375 
L 745.037481 95.68375 
L 745.881302 72.03875 
L 746.725124 95.68375 
L 747.147035 95.68375 
L 747.568946 107.50625 
L 747.990857 95.68375 
L 748.834678 119.32875 
L 749.256589 119.32875 
L 749.6785 107.50625 
L 750.100411 107.50625 
L 750.522322 119.32875 
L 751.366144 119.32875 
L 752.631876 154.79625 
L 754.74143 154.79625 
L 755.163341 142.97375 
L 755.585252 142.97375 
L 756.429074 166.61875 
L 756.850985 166.61875 
L 758.116717 131.15125 
L 758.538628 131.15125 
L 759.38245 107.50625 
L 759.804361 107.50625 
L 760.226272 95.68375 
L 763.601558 95.68375 
L 764.867291 131.15125 
L 765.711113 131.15125 
L 766.133024 142.97375 
L 766.976845 142.97375 
L 767.398756 154.79625 
L 767.820667 142.97375 
L 768.242578 142.97375 
L 768.664489 154.79625 
L 771.195954 83.86125 
L 773.305508 83.86125 
L 773.727419 95.68375 
L 774.14933 95.68375 
L 774.993152 119.32875 
L 775.415063 119.32875 
L 777.946528 190.26375 
L 778.368439 190.26375 
L 778.790349 178.44125 
L 779.21226 178.44125 
L 779.634171 166.61875 
L 781.743725 166.61875 
L 782.587547 142.97375 
L 783.85328 142.97375 
L 785.119012 107.50625 
L 786.384745 107.50625 
L 788.072388 60.21625 
L 789.338121 60.21625 
L 789.760032 48.39375 
L 790.181943 48.39375 
L 790.603853 36.57125 
L 792.291497 36.57125 
L 792.713408 48.39375 
L 794.822962 48.39375 
L 795.244873 36.57125 
L 796.510605 36.57125 
L 796.932516 24.74875 
L 799.042071 24.74875 
L 799.463981 12.92625 
L 799.885892 24.74875 
L 804.526912 24.74875 
L 804.948823 36.57125 
L 806.214555 36.57125 
L 806.636466 24.74875 
L 811.277486 24.74875 
L 811.699396 12.92625 
L 812.543218 12.92625 
L 812.965129 24.74875 
L 819.293792 24.74875 
L 819.715703 12.92625 
L 842.498889 12.92625 
L 842.498889 12.92625 
" style="fill: none; stroke: #a6a6a6; stroke-width: 2; stroke-linecap: square"/>
   </g>
   <g id="line2d_37">
    <path d="M 579.648424 200.188155 
L 580.070335 198.290738 
L 583.445621 198.290738 
L 583.867532 200.188833 
L 586.398998 200.188833 
L 586.820908 202.08625 
L 595.259126 202.08625 
L 595.681036 194.382955 
L 602.009699 194.382955 
L 602.43161 202.08625 
L 672.046902 202.08625 
L 678.797476 12.92625 
L 842.498889 12.92625 
L 842.498889 12.92625 
" style="fill: none; stroke: #ad78d7; stroke-width: 2; stroke-linecap: square"/>
   </g>
   <g id="line2d_38">
    <path d="M 599.900145 202.08625 
L 599.900145 12.92625 
" clip-path="url(#p446cd8cc08)" style="fill: none; stroke-dasharray: 3.7,1.6; stroke-dashoffset: 0; stroke: #808080; stroke-opacity: 0.3"/>
   </g>
   <g id="line2d_39">
    <path d="M 626.90244 202.08625 
L 626.90244 12.92625 
" clip-path="url(#p446cd8cc08)" style="fill: none; stroke-dasharray: 3.7,1.6; stroke-dashoffset: 0; stroke: #808080; stroke-opacity: 0.3"/>
   </g>
   <g id="line2d_40">
    <path d="M 653.904735 202.08625 
L 653.904735 12.92625 
" clip-path="url(#p446cd8cc08)" style="fill: none; stroke-dasharray: 3.7,1.6; stroke-dashoffset: 0; stroke: #808080; stroke-opacity: 0.3"/>
   </g>
   <g id="line2d_41">
    <path d="M 680.90703 202.08625 
L 680.90703 12.92625 
" clip-path="url(#p446cd8cc08)" style="fill: none; stroke-dasharray: 3.7,1.6; stroke-dashoffset: 0; stroke: #808080; stroke-opacity: 0.3"/>
   </g>
   <g id="line2d_42">
    <path d="M 707.909325 202.08625 
L 707.909325 12.92625 
" clip-path="url(#p446cd8cc08)" style="fill: none; stroke-dasharray: 3.7,1.6; stroke-dashoffset: 0; stroke: #808080; stroke-opacity: 0.3"/>
   </g>
   <g id="line2d_43">
    <path d="M 734.91162 202.08625 
L 734.91162 12.92625 
" clip-path="url(#p446cd8cc08)" style="fill: none; stroke-dasharray: 3.7,1.6; stroke-dashoffset: 0; stroke: #808080; stroke-opacity: 0.3"/>
   </g>
   <g id="line2d_44">
    <path d="M 761.913915 202.08625 
L 761.913915 12.92625 
" clip-path="url(#p446cd8cc08)" style="fill: none; stroke-dasharray: 3.7,1.6; stroke-dashoffset: 0; stroke: #808080; stroke-opacity: 0.3"/>
   </g>
   <g id="line2d_45">
    <path d="M 788.91621 202.08625 
L 788.91621 12.92625 
" clip-path="url(#p446cd8cc08)" style="fill: none; stroke-dasharray: 3.7,1.6; stroke-dashoffset: 0; stroke: #808080; stroke-opacity: 0.3"/>
   </g>
   <g id="line2d_46">
    <path d="M 815.918505 202.08625 
L 815.918505 12.92625 
" clip-path="url(#p446cd8cc08)" style="fill: none; stroke-dasharray: 3.7,1.6; stroke-dashoffset: 0; stroke: #808080; stroke-opacity: 0.3"/>
   </g>
   <g id="patch_6">
    <path d="M 572.89785 202.08625 
L 572.89785 12.92625 
" style="fill: none; stroke: #000000; stroke-width: 2; stroke-linejoin: miter; stroke-linecap: square"/>
   </g>
   <g id="patch_7">
    <path d="M 572.89785 202.08625 
L 842.9208 202.08625 
" style="fill: none; stroke: #000000; stroke-width: 2; stroke-linejoin: miter; stroke-linecap: square"/>
   </g>
   <g id="text_23">
    <!-- S14 -->
    <g transform="translate(793.835278 188.65325) scale(0.2 -0.2)">
     <use xlink:href="#ArialMT-53"/>
     <use xlink:href="#ArialMT-31" x="66.699219"/>
     <use xlink:href="#ArialMT-34" x="122.314453"/>
    </g>
   </g>
  </g>
  <g id="axes_3">
   <g id="patch_8">
    <path d="M 897.7408 202.08625 
L 1167.76375 202.08625 
L 1167.76375 12.92625 
L 897.7408 12.92625 
L 897.7408 202.08625 
z
" style="fill: none"/>
   </g>
   <g id="matplotlib.axis_5">
    <g id="xtick_13">
     <g id="line2d_47">
      <g>
       <use xlink:href="#mb1b26c4984" x="897.7408" y="202.08625" style="stroke: #000000; stroke-width: 0.8"/>
      </g>
     </g>
     <g id="text_24">
      <!-- 0 -->
      <g transform="translate(893.29205 220.53875) scale(0.16 -0.16)">
       <use xlink:href="#ArialMT-30"/>
      </g>
     </g>
    </g>
    <g id="xtick_14">
     <g id="line2d_48">
      <g>
       <use xlink:href="#mb1b26c4984" x="951.74539" y="202.08625" style="stroke: #000000; stroke-width: 0.8"/>
      </g>
     </g>
     <g id="text_25">
      <!-- 128 -->
      <g transform="translate(938.39914 220.53875) scale(0.16 -0.16)">
       <use xlink:href="#ArialMT-31"/>
       <use xlink:href="#ArialMT-32" x="55.615234"/>
       <use xlink:href="#ArialMT-38" x="111.230469"/>
      </g>
     </g>
    </g>
    <g id="xtick_15">
     <g id="line2d_49">
      <g>
       <use xlink:href="#mb1b26c4984" x="1005.74998" y="202.08625" style="stroke: #000000; stroke-width: 0.8"/>
      </g>
     </g>
     <g id="text_26">
      <!-- 256 -->
      <g transform="translate(992.40373 220.53875) scale(0.16 -0.16)">
       <use xlink:href="#ArialMT-32"/>
       <use xlink:href="#ArialMT-35" x="55.615234"/>
       <use xlink:href="#ArialMT-36" x="111.230469"/>
      </g>
     </g>
    </g>
    <g id="xtick_16">
     <g id="line2d_50">
      <g>
       <use xlink:href="#mb1b26c4984" x="1059.75457" y="202.08625" style="stroke: #000000; stroke-width: 0.8"/>
      </g>
     </g>
     <g id="text_27">
      <!-- 384 -->
      <g transform="translate(1046.40832 220.53875) scale(0.16 -0.16)">
       <use xlink:href="#ArialMT-33"/>
       <use xlink:href="#ArialMT-38" x="55.615234"/>
       <use xlink:href="#ArialMT-34" x="111.230469"/>
      </g>
     </g>
    </g>
    <g id="xtick_17">
     <g id="line2d_51">
      <g>
       <use xlink:href="#mb1b26c4984" x="1113.75916" y="202.08625" style="stroke: #000000; stroke-width: 0.8"/>
      </g>
     </g>
     <g id="text_28">
      <!-- 512 -->
      <g transform="translate(1100.41291 220.53875) scale(0.16 -0.16)">
       <use xlink:href="#ArialMT-35"/>
       <use xlink:href="#ArialMT-31" x="55.615234"/>
       <use xlink:href="#ArialMT-32" x="111.230469"/>
      </g>
     </g>
    </g>
    <g id="xtick_18">
     <g id="line2d_52">
      <g>
       <use xlink:href="#mb1b26c4984" x="1167.76375" y="202.08625" style="stroke: #000000; stroke-width: 0.8"/>
      </g>
     </g>
     <g id="text_29">
      <!-- 640 -->
      <g transform="translate(1154.4175 220.53875) scale(0.16 -0.16)">
       <use xlink:href="#ArialMT-36"/>
       <use xlink:href="#ArialMT-34" x="55.615234"/>
       <use xlink:href="#ArialMT-30" x="111.230469"/>
      </g>
     </g>
    </g>
    <g id="text_30">
     <!-- Trial -->
     <g transform="translate(1014.638447 241.318594) scale(0.19 -0.19)">
      <use xlink:href="#ArialMT-54"/>
      <use xlink:href="#ArialMT-72" x="57.333984"/>
      <use xlink:href="#ArialMT-69" x="90.634766"/>
      <use xlink:href="#ArialMT-61" x="112.851562"/>
      <use xlink:href="#ArialMT-6c" x="168.466797"/>
     </g>
    </g>
   </g>
   <g id="matplotlib.axis_6">
    <g id="ytick_13">
     <g id="line2d_53">
      <g>
       <use xlink:href="#m1049bca8e9" x="897.7408" y="202.08625" style="stroke: #000000; stroke-width: 0.8"/>
      </g>
     </g>
    </g>
    <g id="ytick_14">
     <g id="line2d_54">
      <g>
       <use xlink:href="#m1049bca8e9" x="897.7408" y="164.25425" style="stroke: #000000; stroke-width: 0.8"/>
      </g>
     </g>
    </g>
    <g id="ytick_15">
     <g id="line2d_55">
      <g>
       <use xlink:href="#m1049bca8e9" x="897.7408" y="126.42225" style="stroke: #000000; stroke-width: 0.8"/>
      </g>
     </g>
    </g>
    <g id="ytick_16">
     <g id="line2d_56">
      <g>
       <use xlink:href="#m1049bca8e9" x="897.7408" y="88.59025" style="stroke: #000000; stroke-width: 0.8"/>
      </g>
     </g>
    </g>
    <g id="ytick_17">
     <g id="line2d_57">
      <g>
       <use xlink:href="#m1049bca8e9" x="897.7408" y="50.75825" style="stroke: #000000; stroke-width: 0.8"/>
      </g>
     </g>
    </g>
    <g id="ytick_18">
     <g id="line2d_58">
      <g>
       <use xlink:href="#m1049bca8e9" x="897.7408" y="12.92625" style="stroke: #000000; stroke-width: 0.8"/>
      </g>
     </g>
    </g>
   </g>
   <g id="line2d_59">
    <path d="M 904.491374 190.26375 
L 909.132393 190.26375 
L 909.554304 202.08625 
L 915.882967 202.08625 
L 916.304878 190.26375 
L 922.633541 190.26375 
L 923.055452 202.08625 
L 949.635836 202.08625 
L 950.901568 166.61875 
L 951.323479 166.61875 
L 951.74539 154.79625 
L 952.167301 154.79625 
L 953.011123 131.15125 
L 953.433033 131.15125 
L 953.854944 119.32875 
L 955.120677 119.32875 
L 955.964499 95.68375 
L 956.80832 95.68375 
L 957.652142 119.32875 
L 958.074053 119.32875 
L 958.495964 131.15125 
L 958.917875 131.15125 
L 959.339785 142.97375 
L 959.761696 142.97375 
L 960.183607 131.15125 
L 960.605518 142.97375 
L 961.027429 142.97375 
L 961.871251 119.32875 
L 962.715072 142.97375 
L 965.246538 142.97375 
L 965.668448 131.15125 
L 966.51227 131.15125 
L 966.934181 142.97375 
L 967.778003 142.97375 
L 968.621824 166.61875 
L 969.887557 131.15125 
L 970.309468 142.97375 
L 972.840933 142.97375 
L 973.262844 154.79625 
L 974.528576 154.79625 
L 974.950487 142.97375 
L 975.794309 142.97375 
L 976.21622 154.79625 
L 977.903863 154.79625 
L 978.325774 142.97375 
L 978.747685 142.97375 
L 979.169596 154.79625 
L 981.27915 154.79625 
L 981.701061 166.61875 
L 982.122972 166.61875 
L 982.544883 178.44125 
L 983.388704 178.44125 
L 983.810615 166.61875 
L 984.654437 166.61875 
L 985.076348 178.44125 
L 985.92017 178.44125 
L 986.34208 166.61875 
L 989.717367 166.61875 
L 990.561189 190.26375 
L 992.670743 190.26375 
L 993.092654 202.08625 
L 995.624119 202.08625 
L 996.04603 190.26375 
L 1002.374693 190.26375 
L 1002.796604 202.08625 
L 1003.218515 190.26375 
L 1006.593802 190.26375 
L 1007.015713 178.44125 
L 1008.281445 178.44125 
L 1008.703356 166.61875 
L 1009.547178 166.61875 
L 1009.969089 178.44125 
L 1010.81291 154.79625 
L 1012.078643 154.79625 
L 1012.500554 142.97375 
L 1012.922465 142.97375 
L 1013.344375 131.15125 
L 1013.766286 142.97375 
L 1015.032019 142.97375 
L 1015.45393 154.79625 
L 1016.719662 154.79625 
L 1017.563484 178.44125 
L 1018.829217 178.44125 
L 1019.251128 190.26375 
L 1022.626414 190.26375 
L 1023.470236 166.61875 
L 1026.423612 166.61875 
L 1026.845523 178.44125 
L 1028.955077 178.44125 
L 1029.376988 166.61875 
L 1030.22081 190.26375 
L 1034.018008 190.26375 
L 1034.439918 178.44125 
L 1035.705651 178.44125 
L 1036.127562 190.26375 
L 1037.393294 190.26375 
L 1037.815205 178.44125 
L 1039.92476 178.44125 
L 1040.768581 154.79625 
L 1041.190492 166.61875 
L 1041.612403 154.79625 
L 1042.034314 154.79625 
L 1042.456225 142.97375 
L 1044.143868 142.97375 
L 1044.565779 154.79625 
L 1046.675333 154.79625 
L 1047.519155 178.44125 
L 1047.941066 178.44125 
L 1048.362977 190.26375 
L 1048.784888 190.26375 
L 1049.206799 202.08625 
L 1049.628709 190.26375 
L 1051.316353 190.26375 
L 1051.738264 178.44125 
L 1053.425907 178.44125 
L 1055.957372 107.50625 
L 1056.379283 107.50625 
L 1057.645016 72.03875 
L 1058.066927 72.03875 
L 1058.488837 83.86125 
L 1058.910748 72.03875 
L 1060.598392 72.03875 
L 1061.020303 83.86125 
L 1061.864124 83.86125 
L 1062.286035 95.68375 
L 1063.129857 95.68375 
L 1063.973679 119.32875 
L 1064.395589 119.32875 
L 1065.239411 95.68375 
L 1066.083233 95.68375 
L 1066.927055 72.03875 
L 1067.770876 72.03875 
L 1068.192787 83.86125 
L 1069.036609 83.86125 
L 1069.45852 95.68375 
L 1069.880431 95.68375 
L 1070.724252 72.03875 
L 1071.568074 95.68375 
L 1071.989985 95.68375 
L 1072.411896 107.50625 
L 1072.833807 95.68375 
L 1073.677628 119.32875 
L 1074.099539 119.32875 
L 1074.52145 107.50625 
L 1074.943361 107.50625 
L 1075.365272 119.32875 
L 1076.209094 119.32875 
L 1077.474826 154.79625 
L 1079.58438 154.79625 
L 1080.006291 142.97375 
L 1080.428202 142.97375 
L 1081.272024 166.61875 
L 1081.693935 166.61875 
L 1082.959667 131.15125 
L 1083.381578 131.15125 
L 1084.2254 107.50625 
L 1084.647311 107.50625 
L 1085.069222 95.68375 
L 1088.444508 95.68375 
L 1089.710241 131.15125 
L 1090.554063 131.15125 
L 1090.975974 142.97375 
L 1091.819795 142.97375 
L 1092.241706 154.79625 
L 1092.663617 142.97375 
L 1093.085528 142.97375 
L 1093.507439 154.79625 
L 1096.038904 83.86125 
L 1098.148458 83.86125 
L 1098.570369 95.68375 
L 1098.99228 95.68375 
L 1099.836102 119.32875 
L 1100.258013 119.32875 
L 1102.789478 190.26375 
L 1103.211389 190.26375 
L 1103.633299 178.44125 
L 1104.05521 178.44125 
L 1104.477121 166.61875 
L 1106.586675 166.61875 
L 1107.430497 142.97375 
L 1108.69623 142.97375 
L 1109.961962 107.50625 
L 1111.227695 107.50625 
L 1112.915338 60.21625 
L 1114.181071 60.21625 
L 1114.602982 48.39375 
L 1115.024893 48.39375 
L 1115.446803 36.57125 
L 1117.134447 36.57125 
L 1117.556358 48.39375 
L 1119.665912 48.39375 
L 1120.087823 36.57125 
L 1121.353555 36.57125 
L 1121.775466 24.74875 
L 1123.885021 24.74875 
L 1124.306931 12.92625 
L 1124.728842 24.74875 
L 1129.369862 24.74875 
L 1129.791773 36.57125 
L 1131.057505 36.57125 
L 1131.479416 24.74875 
L 1136.120436 24.74875 
L 1136.542346 12.92625 
L 1137.386168 12.92625 
L 1137.808079 24.74875 
L 1144.136742 24.74875 
L 1144.558653 12.92625 
L 1167.341839 12.92625 
L 1167.341839 12.92625 
" style="fill: none; stroke: #a6a6a6; stroke-width: 2; stroke-linecap: square"/>
   </g>
   <g id="line2d_60">
    <path d="M 904.491374 195.015785 
L 906.600928 189.206656 
L 908.288571 187.854568 
L 908.710482 187.739225 
L 912.085769 178.123914 
L 913.351502 172.765775 
L 914.195324 171.146506 
L 914.617234 170.161503 
L 915.461056 171.073443 
L 916.726789 176.047077 
L 919.258254 148.672046 
L 920.102076 141.231773 
L 922.21163 109.024096 
L 923.477362 89.120652 
L 923.899273 89.260921 
L 924.321184 88.517474 
L 926.430738 64.70019 
L 927.27456 55.559779 
L 928.962204 37.785482 
L 931.071758 13.579797 
L 931.493669 13.282922 
L 932.759401 13.140685 
L 938.666153 12.92924 
L 1167.341839 12.92625 
L 1167.341839 12.92625 
" style="fill: none; stroke: #404040; stroke-width: 2; stroke-linecap: square"/>
   </g>
   <g id="line2d_61">
    <path d="M 924.743095 202.08625 
L 924.743095 12.92625 
" clip-path="url(#p7280247c83)" style="fill: none; stroke-dasharray: 3.7,1.6; stroke-dashoffset: 0; stroke: #808080; stroke-opacity: 0.3"/>
   </g>
   <g id="line2d_62">
    <path d="M 951.74539 202.08625 
L 951.74539 12.92625 
" clip-path="url(#p7280247c83)" style="fill: none; stroke-dasharray: 3.7,1.6; stroke-dashoffset: 0; stroke: #808080; stroke-opacity: 0.3"/>
   </g>
   <g id="line2d_63">
    <path d="M 978.747685 202.08625 
L 978.747685 12.92625 
" clip-path="url(#p7280247c83)" style="fill: none; stroke-dasharray: 3.7,1.6; stroke-dashoffset: 0; stroke: #808080; stroke-opacity: 0.3"/>
   </g>
   <g id="line2d_64">
    <path d="M 1005.74998 202.08625 
L 1005.74998 12.92625 
" clip-path="url(#p7280247c83)" style="fill: none; stroke-dasharray: 3.7,1.6; stroke-dashoffset: 0; stroke: #808080; stroke-opacity: 0.3"/>
   </g>
   <g id="line2d_65">
    <path d="M 1032.752275 202.08625 
L 1032.752275 12.92625 
" clip-path="url(#p7280247c83)" style="fill: none; stroke-dasharray: 3.7,1.6; stroke-dashoffset: 0; stroke: #808080; stroke-opacity: 0.3"/>
   </g>
   <g id="line2d_66">
    <path d="M 1059.75457 202.08625 
L 1059.75457 12.92625 
" clip-path="url(#p7280247c83)" style="fill: none; stroke-dasharray: 3.7,1.6; stroke-dashoffset: 0; stroke: #808080; stroke-opacity: 0.3"/>
   </g>
   <g id="line2d_67">
    <path d="M 1086.756865 202.08625 
L 1086.756865 12.92625 
" clip-path="url(#p7280247c83)" style="fill: none; stroke-dasharray: 3.7,1.6; stroke-dashoffset: 0; stroke: #808080; stroke-opacity: 0.3"/>
   </g>
   <g id="line2d_68">
    <path d="M 1113.75916 202.08625 
L 1113.75916 12.92625 
" clip-path="url(#p7280247c83)" style="fill: none; stroke-dasharray: 3.7,1.6; stroke-dashoffset: 0; stroke: #808080; stroke-opacity: 0.3"/>
   </g>
   <g id="line2d_69">
    <path d="M 1140.761455 202.08625 
L 1140.761455 12.92625 
" clip-path="url(#p7280247c83)" style="fill: none; stroke-dasharray: 3.7,1.6; stroke-dashoffset: 0; stroke: #808080; stroke-opacity: 0.3"/>
   </g>
   <g id="patch_9">
    <path d="M 897.7408 202.08625 
L 897.7408 12.92625 
" style="fill: none; stroke: #000000; stroke-width: 2; stroke-linejoin: miter; stroke-linecap: square"/>
   </g>
   <g id="patch_10">
    <path d="M 897.7408 202.08625 
L 1167.76375 202.08625 
" style="fill: none; stroke: #000000; stroke-width: 2; stroke-linejoin: miter; stroke-linecap: square"/>
   </g>
   <g id="text_31">
    <!-- S14 -->
    <g transform="translate(1118.678228 188.65325) scale(0.2 -0.2)">
     <use xlink:href="#ArialMT-53"/>
     <use xlink:href="#ArialMT-31" x="66.699219"/>
     <use xlink:href="#ArialMT-34" x="122.314453"/>
    </g>
   </g>
  </g>
 </g>
 <defs>
  <clipPath id="p7be685c512">
   <rect x="58.03875" y="12.92625" width="460.0391" height="189.16"/>
  </clipPath>
  <clipPath id="p446cd8cc08">
   <rect x="572.89785" y="12.92625" width="270.02295" height="189.16"/>
  </clipPath>
  <clipPath id="p7280247c83">
   <rect x="897.7408" y="12.92625" width="270.02295" height="189.16"/>
  </clipPath>
 </defs>
</svg>
