<?xml version="1.0" encoding="utf-8" standalone="no"?>
<!DOCTYPE svg PUBLIC "-//W3C//DTD SVG 1.1//EN"
  "http://www.w3.org/Graphics/SVG/1.1/DTD/svg11.dtd">
<svg xmlns:xlink="http://www.w3.org/1999/xlink" width="1185.168283pt" height="252.294844pt" viewBox="0 0 1185.168283 252.294844" xmlns="http://www.w3.org/2000/svg" version="1.1">
 <metadata>
  <rdf:RDF xmlns:dc="http://purl.org/dc/elements/1.1/" xmlns:cc="http://creativecommons.org/ns#" xmlns:rdf="http://www.w3.org/1999/02/22-rdf-syntax-ns#">
   <cc:Work>
    <dc:type rdf:resource="http://purl.org/dc/dcmitype/StillImage"/>
    <dc:date>2025-05-15T21:48:42.623669</dc:date>
    <dc:format>image/svg+xml</dc:format>
    <dc:creator>
     <cc:Agent>
      <dc:title>Matplotlib v3.8.4, https://matplotlib.org/</dc:title>
     </cc:Agent>
    </dc:creator>
   </cc:Work>
  </rdf:RDF>
 </metadata>
 <defs>
  <style type="text/css">*{stroke-linejoin: round; stroke-linecap: butt}</style>
 </defs>
 <g id="figure_1">
  <g id="patch_1">
   <path d="M 0 252.294844 
L 1185.168283 252.294844 
L 1185.168283 0 
L 0 0 
L 0 252.294844 
z
" style="fill: none"/>
  </g>
  <g id="axes_1">
   <g id="patch_2">
    <path d="M 58.270313 202.08625 
L 530.338125 202.08625 
L 530.338125 12.92625 
L 58.270313 12.92625 
L 58.270313 202.08625 
z
" style="fill: none"/>
   </g>
   <g id="matplotlib.axis_1">
    <g id="xtick_1">
     <g id="line2d_1">
      <defs>
       <path id="m3f67f49998" d="M 0 0 
L 0 3.5 
" style="stroke: #000000; stroke-width: 0.8"/>
      </defs>
      <g>
       <use xlink:href="#m3f67f49998" x="58.270313" y="202.08625" style="stroke: #000000; stroke-width: 0.8"/>
      </g>
     </g>
     <g id="text_1">
      <!-- 0 -->
      <g transform="translate(53.821563 220.53875) scale(0.16 -0.16)">
       <defs>
        <path id="ArialMT-30" d="M 266 2259 
Q 266 3072 433 3567 
Q 600 4063 929 4331 
Q 1259 4600 1759 4600 
Q 2128 4600 2406 4451 
Q 2684 4303 2865 4023 
Q 3047 3744 3150 3342 
Q 3253 2941 3253 2259 
Q 3253 1453 3087 958 
Q 2922 463 2592 192 
Q 2263 -78 1759 -78 
Q 1097 -78 719 397 
Q 266 969 266 2259 
z
M 844 2259 
Q 844 1131 1108 757 
Q 1372 384 1759 384 
Q 2147 384 2411 759 
Q 2675 1134 2675 2259 
Q 2675 3391 2411 3762 
Q 2147 4134 1753 4134 
Q 1366 4134 1134 3806 
Q 844 3388 844 2259 
z
" transform="scale(0.015625)"/>
       </defs>
       <use xlink:href="#ArialMT-30"/>
      </g>
     </g>
    </g>
    <g id="xtick_2">
     <g id="line2d_2">
      <g>
       <use xlink:href="#m3f67f49998" x="113.756704" y="202.08625" style="stroke: #000000; stroke-width: 0.8"/>
      </g>
     </g>
     <g id="text_2">
      <!-- 128 -->
      <g transform="translate(100.410454 220.53875) scale(0.16 -0.16)">
       <defs>
        <path id="ArialMT-31" d="M 2384 0 
L 1822 0 
L 1822 3584 
Q 1619 3391 1289 3197 
Q 959 3003 697 2906 
L 697 3450 
Q 1169 3672 1522 3987 
Q 1875 4303 2022 4600 
L 2384 4600 
L 2384 0 
z
" transform="scale(0.015625)"/>
        <path id="ArialMT-32" d="M 3222 541 
L 3222 0 
L 194 0 
Q 188 203 259 391 
Q 375 700 629 1000 
Q 884 1300 1366 1694 
Q 2113 2306 2375 2664 
Q 2638 3022 2638 3341 
Q 2638 3675 2398 3904 
Q 2159 4134 1775 4134 
Q 1369 4134 1125 3890 
Q 881 3647 878 3216 
L 300 3275 
Q 359 3922 746 4261 
Q 1134 4600 1788 4600 
Q 2447 4600 2831 4234 
Q 3216 3869 3216 3328 
Q 3216 3053 3103 2787 
Q 2991 2522 2730 2228 
Q 2469 1934 1863 1422 
Q 1356 997 1212 845 
Q 1069 694 975 541 
L 3222 541 
z
" transform="scale(0.015625)"/>
        <path id="ArialMT-38" d="M 1131 2484 
Q 781 2613 612 2850 
Q 444 3088 444 3419 
Q 444 3919 803 4259 
Q 1163 4600 1759 4600 
Q 2359 4600 2725 4251 
Q 3091 3903 3091 3403 
Q 3091 3084 2923 2848 
Q 2756 2613 2416 2484 
Q 2838 2347 3058 2040 
Q 3278 1734 3278 1309 
Q 3278 722 2862 322 
Q 2447 -78 1769 -78 
Q 1091 -78 675 323 
Q 259 725 259 1325 
Q 259 1772 486 2073 
Q 713 2375 1131 2484 
z
M 1019 3438 
Q 1019 3113 1228 2906 
Q 1438 2700 1772 2700 
Q 2097 2700 2305 2904 
Q 2513 3109 2513 3406 
Q 2513 3716 2298 3927 
Q 2084 4138 1766 4138 
Q 1444 4138 1231 3931 
Q 1019 3725 1019 3438 
z
M 838 1322 
Q 838 1081 952 856 
Q 1066 631 1291 507 
Q 1516 384 1775 384 
Q 2178 384 2440 643 
Q 2703 903 2703 1303 
Q 2703 1709 2433 1975 
Q 2163 2241 1756 2241 
Q 1359 2241 1098 1978 
Q 838 1716 838 1322 
z
" transform="scale(0.015625)"/>
       </defs>
       <use xlink:href="#ArialMT-31"/>
       <use xlink:href="#ArialMT-32" x="55.615234"/>
       <use xlink:href="#ArialMT-38" x="111.230469"/>
      </g>
     </g>
    </g>
    <g id="xtick_3">
     <g id="line2d_3">
      <g>
       <use xlink:href="#m3f67f49998" x="169.243095" y="202.08625" style="stroke: #000000; stroke-width: 0.8"/>
      </g>
     </g>
     <g id="text_3">
      <!-- 256 -->
      <g transform="translate(155.896845 220.53875) scale(0.16 -0.16)">
       <defs>
        <path id="ArialMT-35" d="M 266 1200 
L 856 1250 
Q 922 819 1161 601 
Q 1400 384 1738 384 
Q 2144 384 2425 690 
Q 2706 997 2706 1503 
Q 2706 1984 2436 2262 
Q 2166 2541 1728 2541 
Q 1456 2541 1237 2417 
Q 1019 2294 894 2097 
L 366 2166 
L 809 4519 
L 3088 4519 
L 3088 3981 
L 1259 3981 
L 1013 2750 
Q 1425 3038 1878 3038 
Q 2478 3038 2890 2622 
Q 3303 2206 3303 1553 
Q 3303 931 2941 478 
Q 2500 -78 1738 -78 
Q 1113 -78 717 272 
Q 322 622 266 1200 
z
" transform="scale(0.015625)"/>
        <path id="ArialMT-36" d="M 3184 3459 
L 2625 3416 
Q 2550 3747 2413 3897 
Q 2184 4138 1850 4138 
Q 1581 4138 1378 3988 
Q 1113 3794 959 3422 
Q 806 3050 800 2363 
Q 1003 2672 1297 2822 
Q 1591 2972 1913 2972 
Q 2475 2972 2870 2558 
Q 3266 2144 3266 1488 
Q 3266 1056 3080 686 
Q 2894 316 2569 119 
Q 2244 -78 1831 -78 
Q 1128 -78 684 439 
Q 241 956 241 2144 
Q 241 3472 731 4075 
Q 1159 4600 1884 4600 
Q 2425 4600 2770 4297 
Q 3116 3994 3184 3459 
z
M 888 1484 
Q 888 1194 1011 928 
Q 1134 663 1356 523 
Q 1578 384 1822 384 
Q 2178 384 2434 671 
Q 2691 959 2691 1453 
Q 2691 1928 2437 2201 
Q 2184 2475 1800 2475 
Q 1419 2475 1153 2201 
Q 888 1928 888 1484 
z
" transform="scale(0.015625)"/>
       </defs>
       <use xlink:href="#ArialMT-32"/>
       <use xlink:href="#ArialMT-35" x="55.615234"/>
       <use xlink:href="#ArialMT-36" x="111.230469"/>
      </g>
     </g>
    </g>
    <g id="xtick_4">
     <g id="line2d_4">
      <g>
       <use xlink:href="#m3f67f49998" x="224.729486" y="202.08625" style="stroke: #000000; stroke-width: 0.8"/>
      </g>
     </g>
     <g id="text_4">
      <!-- 384 -->
      <g transform="translate(211.383236 220.53875) scale(0.16 -0.16)">
       <defs>
        <path id="ArialMT-33" d="M 269 1209 
L 831 1284 
Q 928 806 1161 595 
Q 1394 384 1728 384 
Q 2125 384 2398 659 
Q 2672 934 2672 1341 
Q 2672 1728 2419 1979 
Q 2166 2231 1775 2231 
Q 1616 2231 1378 2169 
L 1441 2663 
Q 1497 2656 1531 2656 
Q 1891 2656 2178 2843 
Q 2466 3031 2466 3422 
Q 2466 3731 2256 3934 
Q 2047 4138 1716 4138 
Q 1388 4138 1169 3931 
Q 950 3725 888 3313 
L 325 3413 
Q 428 3978 793 4289 
Q 1159 4600 1703 4600 
Q 2078 4600 2393 4439 
Q 2709 4278 2876 4000 
Q 3044 3722 3044 3409 
Q 3044 3113 2884 2869 
Q 2725 2625 2413 2481 
Q 2819 2388 3044 2092 
Q 3269 1797 3269 1353 
Q 3269 753 2831 336 
Q 2394 -81 1725 -81 
Q 1122 -81 723 278 
Q 325 638 269 1209 
z
" transform="scale(0.015625)"/>
        <path id="ArialMT-34" d="M 2069 0 
L 2069 1097 
L 81 1097 
L 81 1613 
L 2172 4581 
L 2631 4581 
L 2631 1613 
L 3250 1613 
L 3250 1097 
L 2631 1097 
L 2631 0 
L 2069 0 
z
M 2069 1613 
L 2069 3678 
L 634 1613 
L 2069 1613 
z
" transform="scale(0.015625)"/>
       </defs>
       <use xlink:href="#ArialMT-33"/>
       <use xlink:href="#ArialMT-38" x="55.615234"/>
       <use xlink:href="#ArialMT-34" x="111.230469"/>
      </g>
     </g>
    </g>
    <g id="xtick_5">
     <g id="line2d_5">
      <g>
       <use xlink:href="#m3f67f49998" x="280.215877" y="202.08625" style="stroke: #000000; stroke-width: 0.8"/>
      </g>
     </g>
     <g id="text_5">
      <!-- 512 -->
      <g transform="translate(266.869627 220.53875) scale(0.16 -0.16)">
       <use xlink:href="#ArialMT-35"/>
       <use xlink:href="#ArialMT-31" x="55.615234"/>
       <use xlink:href="#ArialMT-32" x="111.230469"/>
      </g>
     </g>
    </g>
    <g id="xtick_6">
     <g id="line2d_6">
      <g>
       <use xlink:href="#m3f67f49998" x="335.702269" y="202.08625" style="stroke: #000000; stroke-width: 0.8"/>
      </g>
     </g>
     <g id="text_6">
      <!-- 640 -->
      <g transform="translate(322.356019 220.53875) scale(0.16 -0.16)">
       <use xlink:href="#ArialMT-36"/>
       <use xlink:href="#ArialMT-34" x="55.615234"/>
       <use xlink:href="#ArialMT-30" x="111.230469"/>
      </g>
     </g>
    </g>
    <g id="xtick_7">
     <g id="line2d_7">
      <g>
       <use xlink:href="#m3f67f49998" x="391.18866" y="202.08625" style="stroke: #000000; stroke-width: 0.8"/>
      </g>
     </g>
     <g id="text_7">
      <!-- 768 -->
      <g transform="translate(377.84241 220.53875) scale(0.16 -0.16)">
       <defs>
        <path id="ArialMT-37" d="M 303 3981 
L 303 4522 
L 3269 4522 
L 3269 4084 
Q 2831 3619 2401 2847 
Q 1972 2075 1738 1259 
Q 1569 684 1522 0 
L 944 0 
Q 953 541 1156 1306 
Q 1359 2072 1739 2783 
Q 2119 3494 2547 3981 
L 303 3981 
z
" transform="scale(0.015625)"/>
       </defs>
       <use xlink:href="#ArialMT-37"/>
       <use xlink:href="#ArialMT-36" x="55.615234"/>
       <use xlink:href="#ArialMT-38" x="111.230469"/>
      </g>
     </g>
    </g>
    <g id="xtick_8">
     <g id="line2d_8">
      <g>
       <use xlink:href="#m3f67f49998" x="446.675051" y="202.08625" style="stroke: #000000; stroke-width: 0.8"/>
      </g>
     </g>
     <g id="text_8">
      <!-- 896 -->
      <g transform="translate(433.328801 220.53875) scale(0.16 -0.16)">
       <defs>
        <path id="ArialMT-39" d="M 350 1059 
L 891 1109 
Q 959 728 1153 556 
Q 1347 384 1650 384 
Q 1909 384 2104 503 
Q 2300 622 2425 820 
Q 2550 1019 2634 1356 
Q 2719 1694 2719 2044 
Q 2719 2081 2716 2156 
Q 2547 1888 2255 1720 
Q 1963 1553 1622 1553 
Q 1053 1553 659 1965 
Q 266 2378 266 3053 
Q 266 3750 677 4175 
Q 1088 4600 1706 4600 
Q 2153 4600 2523 4359 
Q 2894 4119 3086 3673 
Q 3278 3228 3278 2384 
Q 3278 1506 3087 986 
Q 2897 466 2520 194 
Q 2144 -78 1638 -78 
Q 1100 -78 759 220 
Q 419 519 350 1059 
z
M 2653 3081 
Q 2653 3566 2395 3850 
Q 2138 4134 1775 4134 
Q 1400 4134 1122 3828 
Q 844 3522 844 3034 
Q 844 2597 1108 2323 
Q 1372 2050 1759 2050 
Q 2150 2050 2401 2323 
Q 2653 2597 2653 3081 
z
" transform="scale(0.015625)"/>
       </defs>
       <use xlink:href="#ArialMT-38"/>
       <use xlink:href="#ArialMT-39" x="55.615234"/>
       <use xlink:href="#ArialMT-36" x="111.230469"/>
      </g>
     </g>
    </g>
    <g id="xtick_9">
     <g id="line2d_9">
      <g>
       <use xlink:href="#m3f67f49998" x="502.161442" y="202.08625" style="stroke: #000000; stroke-width: 0.8"/>
      </g>
     </g>
     <g id="text_9">
      <!-- 1024 -->
      <g transform="translate(484.366442 220.53875) scale(0.16 -0.16)">
       <use xlink:href="#ArialMT-31"/>
       <use xlink:href="#ArialMT-30" x="55.615234"/>
       <use xlink:href="#ArialMT-32" x="111.230469"/>
       <use xlink:href="#ArialMT-34" x="166.845703"/>
      </g>
     </g>
    </g>
    <g id="text_10">
     <!-- Trial -->
     <g transform="translate(276.190391 241.318594) scale(0.19 -0.19)">
      <defs>
       <path id="ArialMT-54" d="M 1659 0 
L 1659 4041 
L 150 4041 
L 150 4581 
L 3781 4581 
L 3781 4041 
L 2266 4041 
L 2266 0 
L 1659 0 
z
" transform="scale(0.015625)"/>
       <path id="ArialMT-72" d="M 416 0 
L 416 3319 
L 922 3319 
L 922 2816 
Q 1116 3169 1280 3281 
Q 1444 3394 1641 3394 
Q 1925 3394 2219 3213 
L 2025 2691 
Q 1819 2813 1613 2813 
Q 1428 2813 1281 2702 
Q 1134 2591 1072 2394 
Q 978 2094 978 1738 
L 978 0 
L 416 0 
z
" transform="scale(0.015625)"/>
       <path id="ArialMT-69" d="M 425 3934 
L 425 4581 
L 988 4581 
L 988 3934 
L 425 3934 
z
M 425 0 
L 425 3319 
L 988 3319 
L 988 0 
L 425 0 
z
" transform="scale(0.015625)"/>
       <path id="ArialMT-61" d="M 2588 409 
Q 2275 144 1986 34 
Q 1697 -75 1366 -75 
Q 819 -75 525 192 
Q 231 459 231 875 
Q 231 1119 342 1320 
Q 453 1522 633 1644 
Q 813 1766 1038 1828 
Q 1203 1872 1538 1913 
Q 2219 1994 2541 2106 
Q 2544 2222 2544 2253 
Q 2544 2597 2384 2738 
Q 2169 2928 1744 2928 
Q 1347 2928 1158 2789 
Q 969 2650 878 2297 
L 328 2372 
Q 403 2725 575 2942 
Q 747 3159 1072 3276 
Q 1397 3394 1825 3394 
Q 2250 3394 2515 3294 
Q 2781 3194 2906 3042 
Q 3031 2891 3081 2659 
Q 3109 2516 3109 2141 
L 3109 1391 
Q 3109 606 3145 398 
Q 3181 191 3288 0 
L 2700 0 
Q 2613 175 2588 409 
z
M 2541 1666 
Q 2234 1541 1622 1453 
Q 1275 1403 1131 1340 
Q 988 1278 909 1158 
Q 831 1038 831 891 
Q 831 666 1001 516 
Q 1172 366 1500 366 
Q 1825 366 2078 508 
Q 2331 650 2450 897 
Q 2541 1088 2541 1459 
L 2541 1666 
z
" transform="scale(0.015625)"/>
       <path id="ArialMT-6c" d="M 409 0 
L 409 4581 
L 972 4581 
L 972 0 
L 409 0 
z
" transform="scale(0.015625)"/>
      </defs>
      <use xlink:href="#ArialMT-54"/>
      <use xlink:href="#ArialMT-72" x="57.333984"/>
      <use xlink:href="#ArialMT-69" x="90.634766"/>
      <use xlink:href="#ArialMT-61" x="112.851562"/>
      <use xlink:href="#ArialMT-6c" x="168.466797"/>
     </g>
    </g>
   </g>
   <g id="matplotlib.axis_2">
    <g id="ytick_1">
     <g id="line2d_10">
      <defs>
       <path id="md04bb6a73a" d="M 0 0 
L -3.5 0 
" style="stroke: #000000; stroke-width: 0.8"/>
      </defs>
      <g>
       <use xlink:href="#md04bb6a73a" x="58.270313" y="202.08625" style="stroke: #000000; stroke-width: 0.8"/>
      </g>
     </g>
     <g id="text_11">
      <!-- 0.0 -->
      <g transform="translate(29.030313 207.8125) scale(0.16 -0.16)">
       <defs>
        <path id="ArialMT-2e" d="M 581 0 
L 581 641 
L 1222 641 
L 1222 0 
L 581 0 
z
" transform="scale(0.015625)"/>
       </defs>
       <use xlink:href="#ArialMT-30"/>
       <use xlink:href="#ArialMT-2e" x="55.615234"/>
       <use xlink:href="#ArialMT-30" x="83.398438"/>
      </g>
     </g>
    </g>
    <g id="ytick_2">
     <g id="line2d_11">
      <g>
       <use xlink:href="#md04bb6a73a" x="58.270313" y="164.25425" style="stroke: #000000; stroke-width: 0.8"/>
      </g>
     </g>
     <g id="text_12">
      <!-- 0.2 -->
      <g transform="translate(29.030313 169.9805) scale(0.16 -0.16)">
       <use xlink:href="#ArialMT-30"/>
       <use xlink:href="#ArialMT-2e" x="55.615234"/>
       <use xlink:href="#ArialMT-32" x="83.398438"/>
      </g>
     </g>
    </g>
    <g id="ytick_3">
     <g id="line2d_12">
      <g>
       <use xlink:href="#md04bb6a73a" x="58.270313" y="126.42225" style="stroke: #000000; stroke-width: 0.8"/>
      </g>
     </g>
     <g id="text_13">
      <!-- 0.4 -->
      <g transform="translate(29.030313 132.1485) scale(0.16 -0.16)">
       <use xlink:href="#ArialMT-30"/>
       <use xlink:href="#ArialMT-2e" x="55.615234"/>
       <use xlink:href="#ArialMT-34" x="83.398438"/>
      </g>
     </g>
    </g>
    <g id="ytick_4">
     <g id="line2d_13">
      <g>
       <use xlink:href="#md04bb6a73a" x="58.270313" y="88.59025" style="stroke: #000000; stroke-width: 0.8"/>
      </g>
     </g>
     <g id="text_14">
      <!-- 0.6 -->
      <g transform="translate(29.030313 94.3165) scale(0.16 -0.16)">
       <use xlink:href="#ArialMT-30"/>
       <use xlink:href="#ArialMT-2e" x="55.615234"/>
       <use xlink:href="#ArialMT-36" x="83.398438"/>
      </g>
     </g>
    </g>
    <g id="ytick_5">
     <g id="line2d_14">
      <g>
       <use xlink:href="#md04bb6a73a" x="58.270313" y="50.75825" style="stroke: #000000; stroke-width: 0.8"/>
      </g>
     </g>
     <g id="text_15">
      <!-- 0.8 -->
      <g transform="translate(29.030313 56.4845) scale(0.16 -0.16)">
       <use xlink:href="#ArialMT-30"/>
       <use xlink:href="#ArialMT-2e" x="55.615234"/>
       <use xlink:href="#ArialMT-38" x="83.398438"/>
      </g>
     </g>
    </g>
    <g id="ytick_6">
     <g id="line2d_15">
      <g>
       <use xlink:href="#md04bb6a73a" x="58.270313" y="12.92625" style="stroke: #000000; stroke-width: 0.8"/>
      </g>
     </g>
     <g id="text_16">
      <!-- 1.0 -->
      <g transform="translate(29.030313 18.6525) scale(0.16 -0.16)">
       <use xlink:href="#ArialMT-31"/>
       <use xlink:href="#ArialMT-2e" x="55.615234"/>
       <use xlink:href="#ArialMT-30" x="83.398438"/>
      </g>
     </g>
    </g>
    <g id="text_17">
     <!-- P(true-hypo) -->
     <g transform="translate(21.031406 160.299531) rotate(-90) scale(0.19 -0.19)">
      <defs>
       <path id="ArialMT-50" d="M 494 0 
L 494 4581 
L 2222 4581 
Q 2678 4581 2919 4538 
Q 3256 4481 3484 4323 
Q 3713 4166 3852 3881 
Q 3991 3597 3991 3256 
Q 3991 2672 3619 2267 
Q 3247 1863 2275 1863 
L 1100 1863 
L 1100 0 
L 494 0 
z
M 1100 2403 
L 2284 2403 
Q 2872 2403 3119 2622 
Q 3366 2841 3366 3238 
Q 3366 3525 3220 3729 
Q 3075 3934 2838 4000 
Q 2684 4041 2272 4041 
L 1100 4041 
L 1100 2403 
z
" transform="scale(0.015625)"/>
       <path id="ArialMT-28" d="M 1497 -1347 
Q 1031 -759 709 28 
Q 388 816 388 1659 
Q 388 2403 628 3084 
Q 909 3875 1497 4659 
L 1900 4659 
Q 1522 4009 1400 3731 
Q 1209 3300 1100 2831 
Q 966 2247 966 1656 
Q 966 153 1900 -1347 
L 1497 -1347 
z
" transform="scale(0.015625)"/>
       <path id="ArialMT-74" d="M 1650 503 
L 1731 6 
Q 1494 -44 1306 -44 
Q 1000 -44 831 53 
Q 663 150 594 308 
Q 525 466 525 972 
L 525 2881 
L 113 2881 
L 113 3319 
L 525 3319 
L 525 4141 
L 1084 4478 
L 1084 3319 
L 1650 3319 
L 1650 2881 
L 1084 2881 
L 1084 941 
Q 1084 700 1114 631 
Q 1144 563 1211 522 
Q 1278 481 1403 481 
Q 1497 481 1650 503 
z
" transform="scale(0.015625)"/>
       <path id="ArialMT-75" d="M 2597 0 
L 2597 488 
Q 2209 -75 1544 -75 
Q 1250 -75 995 37 
Q 741 150 617 320 
Q 494 491 444 738 
Q 409 903 409 1263 
L 409 3319 
L 972 3319 
L 972 1478 
Q 972 1038 1006 884 
Q 1059 663 1231 536 
Q 1403 409 1656 409 
Q 1909 409 2131 539 
Q 2353 669 2445 892 
Q 2538 1116 2538 1541 
L 2538 3319 
L 3100 3319 
L 3100 0 
L 2597 0 
z
" transform="scale(0.015625)"/>
       <path id="ArialMT-65" d="M 2694 1069 
L 3275 997 
Q 3138 488 2766 206 
Q 2394 -75 1816 -75 
Q 1088 -75 661 373 
Q 234 822 234 1631 
Q 234 2469 665 2931 
Q 1097 3394 1784 3394 
Q 2450 3394 2872 2941 
Q 3294 2488 3294 1666 
Q 3294 1616 3291 1516 
L 816 1516 
Q 847 969 1125 678 
Q 1403 388 1819 388 
Q 2128 388 2347 550 
Q 2566 713 2694 1069 
z
M 847 1978 
L 2700 1978 
Q 2663 2397 2488 2606 
Q 2219 2931 1791 2931 
Q 1403 2931 1139 2672 
Q 875 2413 847 1978 
z
" transform="scale(0.015625)"/>
       <path id="ArialMT-2d" d="M 203 1375 
L 203 1941 
L 1931 1941 
L 1931 1375 
L 203 1375 
z
" transform="scale(0.015625)"/>
       <path id="ArialMT-68" d="M 422 0 
L 422 4581 
L 984 4581 
L 984 2938 
Q 1378 3394 1978 3394 
Q 2347 3394 2619 3248 
Q 2891 3103 3008 2847 
Q 3125 2591 3125 2103 
L 3125 0 
L 2563 0 
L 2563 2103 
Q 2563 2525 2380 2717 
Q 2197 2909 1863 2909 
Q 1613 2909 1392 2779 
Q 1172 2650 1078 2428 
Q 984 2206 984 1816 
L 984 0 
L 422 0 
z
" transform="scale(0.015625)"/>
       <path id="ArialMT-79" d="M 397 -1278 
L 334 -750 
Q 519 -800 656 -800 
Q 844 -800 956 -737 
Q 1069 -675 1141 -563 
Q 1194 -478 1313 -144 
Q 1328 -97 1363 -6 
L 103 3319 
L 709 3319 
L 1400 1397 
Q 1534 1031 1641 628 
Q 1738 1016 1872 1384 
L 2581 3319 
L 3144 3319 
L 1881 -56 
Q 1678 -603 1566 -809 
Q 1416 -1088 1222 -1217 
Q 1028 -1347 759 -1347 
Q 597 -1347 397 -1278 
z
" transform="scale(0.015625)"/>
       <path id="ArialMT-70" d="M 422 -1272 
L 422 3319 
L 934 3319 
L 934 2888 
Q 1116 3141 1344 3267 
Q 1572 3394 1897 3394 
Q 2322 3394 2647 3175 
Q 2972 2956 3137 2557 
Q 3303 2159 3303 1684 
Q 3303 1175 3120 767 
Q 2938 359 2589 142 
Q 2241 -75 1856 -75 
Q 1575 -75 1351 44 
Q 1128 163 984 344 
L 984 -1272 
L 422 -1272 
z
M 931 1641 
Q 931 1000 1190 694 
Q 1450 388 1819 388 
Q 2194 388 2461 705 
Q 2728 1022 2728 1688 
Q 2728 2322 2467 2637 
Q 2206 2953 1844 2953 
Q 1484 2953 1207 2617 
Q 931 2281 931 1641 
z
" transform="scale(0.015625)"/>
       <path id="ArialMT-6f" d="M 213 1659 
Q 213 2581 725 3025 
Q 1153 3394 1769 3394 
Q 2453 3394 2887 2945 
Q 3322 2497 3322 1706 
Q 3322 1066 3130 698 
Q 2938 331 2570 128 
Q 2203 -75 1769 -75 
Q 1072 -75 642 372 
Q 213 819 213 1659 
z
M 791 1659 
Q 791 1022 1069 705 
Q 1347 388 1769 388 
Q 2188 388 2466 706 
Q 2744 1025 2744 1678 
Q 2744 2294 2464 2611 
Q 2184 2928 1769 2928 
Q 1347 2928 1069 2612 
Q 791 2297 791 1659 
z
" transform="scale(0.015625)"/>
       <path id="ArialMT-29" d="M 791 -1347 
L 388 -1347 
Q 1322 153 1322 1656 
Q 1322 2244 1188 2822 
Q 1081 3291 891 3722 
Q 769 4003 388 4659 
L 791 4659 
Q 1378 3875 1659 3084 
Q 1900 2403 1900 1659 
Q 1900 816 1576 28 
Q 1253 -759 791 -1347 
z
" transform="scale(0.015625)"/>
      </defs>
      <use xlink:href="#ArialMT-50"/>
      <use xlink:href="#ArialMT-28" x="66.699219"/>
      <use xlink:href="#ArialMT-74" x="100"/>
      <use xlink:href="#ArialMT-72" x="127.783203"/>
      <use xlink:href="#ArialMT-75" x="161.083984"/>
      <use xlink:href="#ArialMT-65" x="216.699219"/>
      <use xlink:href="#ArialMT-2d" x="272.314453"/>
      <use xlink:href="#ArialMT-68" x="305.615234"/>
      <use xlink:href="#ArialMT-79" x="361.230469"/>
      <use xlink:href="#ArialMT-70" x="411.230469"/>
      <use xlink:href="#ArialMT-6f" x="466.845703"/>
      <use xlink:href="#ArialMT-29" x="522.460938"/>
     </g>
    </g>
   </g>
   <g id="line2d_16">
    <path d="M 65.206111 202.08625 
L 66.940061 202.08625 
L 67.373549 190.26375 
L 68.240523 190.26375 
L 69.107498 166.61875 
L 71.708423 166.61875 
L 72.575398 142.97375 
L 73.008885 142.97375 
L 73.442373 131.15125 
L 75.176322 131.15125 
L 76.043297 154.79625 
L 78.644222 154.79625 
L 79.511197 178.44125 
L 79.944684 178.44125 
L 80.378171 190.26375 
L 80.811659 190.26375 
L 81.245146 202.08625 
L 115.490653 202.08625 
L 115.924141 190.26375 
L 122.426452 190.26375 
L 122.85994 202.08625 
L 212.591838 202.08625 
L 214.759275 142.97375 
L 215.62625 142.97375 
L 216.059737 131.15125 
L 216.926712 131.15125 
L 217.793687 107.50625 
L 220.828099 107.50625 
L 221.695074 131.15125 
L 223.862511 131.15125 
L 224.729486 154.79625 
L 226.463436 154.79625 
L 227.763898 190.26375 
L 229.931335 190.26375 
L 230.364823 178.44125 
L 231.231798 178.44125 
L 231.665285 166.61875 
L 232.965747 166.61875 
L 233.832722 142.97375 
L 235.566672 142.97375 
L 236.000159 131.15125 
L 236.433647 131.15125 
L 236.867134 142.97375 
L 238.167596 142.97375 
L 238.601084 154.79625 
L 239.901546 154.79625 
L 240.768521 178.44125 
L 241.202008 178.44125 
L 241.635496 166.61875 
L 242.502471 166.61875 
L 242.935958 178.44125 
L 243.802933 178.44125 
L 244.236421 190.26375 
L 244.669908 178.44125 
L 245.536883 178.44125 
L 245.97037 166.61875 
L 248.137807 166.61875 
L 248.571295 178.44125 
L 249.004782 166.61875 
L 251.172219 166.61875 
L 251.605707 178.44125 
L 252.472682 178.44125 
L 252.906169 190.26375 
L 253.773144 190.26375 
L 254.640119 166.61875 
L 255.507094 166.61875 
L 255.940581 178.44125 
L 258.974993 178.44125 
L 259.408481 166.61875 
L 261.14243 166.61875 
L 261.575918 178.44125 
L 262.009405 166.61875 
L 262.442893 166.61875 
L 262.87638 154.79625 
L 263.309867 154.79625 
L 263.743355 142.97375 
L 265.910792 142.97375 
L 266.34428 154.79625 
L 267.644742 154.79625 
L 268.078229 166.61875 
L 269.378692 166.61875 
L 269.812179 178.44125 
L 271.546129 178.44125 
L 272.413104 154.79625 
L 273.280078 154.79625 
L 273.713566 142.97375 
L 274.147053 142.97375 
L 274.580541 131.15125 
L 275.014028 131.15125 
L 275.447516 119.32875 
L 275.881003 131.15125 
L 277.181465 131.15125 
L 277.614953 142.97375 
L 278.481928 142.97375 
L 279.348902 166.61875 
L 279.78239 166.61875 
L 280.215877 154.79625 
L 280.649365 166.61875 
L 281.949827 166.61875 
L 282.383314 178.44125 
L 283.250289 178.44125 
L 283.683777 166.61875 
L 284.550752 166.61875 
L 284.984239 154.79625 
L 285.851214 154.79625 
L 286.284701 142.97375 
L 286.718189 142.97375 
L 287.151676 154.79625 
L 288.018651 131.15125 
L 288.452138 142.97375 
L 290.186088 142.97375 
L 290.619576 154.79625 
L 291.053063 142.97375 
L 291.486551 142.97375 
L 291.920038 154.79625 
L 292.787013 154.79625 
L 293.2205 166.61875 
L 293.653988 154.79625 
L 294.087475 154.79625 
L 294.95445 178.44125 
L 297.555375 178.44125 
L 297.988862 190.26375 
L 299.722812 190.26375 
L 300.156299 178.44125 
L 300.589787 190.26375 
L 303.624199 190.26375 
L 304.491173 166.61875 
L 304.924661 166.61875 
L 305.791636 142.97375 
L 306.658611 142.97375 
L 307.092098 154.79625 
L 310.559997 154.79625 
L 311.426972 178.44125 
L 311.86046 178.44125 
L 312.727435 202.08625 
L 323.56462 202.08625 
L 323.998108 190.26375 
L 324.431595 190.26375 
L 324.865083 178.44125 
L 325.29857 178.44125 
L 325.732058 166.61875 
L 327.03252 166.61875 
L 327.466007 154.79625 
L 327.899495 154.79625 
L 328.332982 142.97375 
L 328.76647 142.97375 
L 329.199957 131.15125 
L 329.633444 131.15125 
L 330.500419 107.50625 
L 330.933907 119.32875 
L 332.234369 119.32875 
L 332.667856 131.15125 
L 333.968319 131.15125 
L 334.401806 142.97375 
L 334.835294 142.97375 
L 335.268781 154.79625 
L 337.002731 154.79625 
L 337.436218 166.61875 
L 338.303193 166.61875 
L 338.736681 178.44125 
L 342.638067 178.44125 
L 343.071555 190.26375 
L 343.505042 190.26375 
L 343.93853 202.08625 
L 351.307816 202.08625 
L 352.174791 178.44125 
L 353.475253 178.44125 
L 353.908741 166.61875 
L 354.342228 166.61875 
L 354.775715 154.79625 
L 355.64269 154.79625 
L 356.509665 131.15125 
L 358.677102 131.15125 
L 359.11059 142.97375 
L 361.278027 142.97375 
L 361.711514 154.79625 
L 362.578489 154.79625 
L 363.445464 178.44125 
L 363.878952 166.61875 
L 365.179414 166.61875 
L 365.612901 178.44125 
L 367.346851 178.44125 
L 367.780338 190.26375 
L 370.381263 190.26375 
L 370.81475 202.08625 
L 385.553323 202.08625 
L 385.986811 190.26375 
L 386.420298 190.26375 
L 387.72076 154.79625 
L 388.154248 154.79625 
L 389.888197 107.50625 
L 390.755172 107.50625 
L 392.055635 72.03875 
L 392.489122 72.03875 
L 392.922609 83.86125 
L 396.390509 83.86125 
L 396.823996 95.68375 
L 397.690971 72.03875 
L 398.557946 95.68375 
L 398.991433 95.68375 
L 399.424921 83.86125 
L 399.858408 83.86125 
L 400.291896 72.03875 
L 400.725383 83.86125 
L 402.89282 83.86125 
L 403.326308 95.68375 
L 403.759795 95.68375 
L 404.62677 119.32875 
L 405.060258 107.50625 
L 406.36072 107.50625 
L 406.794207 95.68375 
L 407.227695 95.68375 
L 407.661182 83.86125 
L 408.09467 95.68375 
L 408.528157 95.68375 
L 408.961644 83.86125 
L 409.828619 107.50625 
L 410.695594 107.50625 
L 411.129082 95.68375 
L 412.863031 95.68375 
L 414.163494 131.15125 
L 415.030468 131.15125 
L 415.897443 154.79625 
L 416.330931 154.79625 
L 416.764418 142.97375 
L 418.06488 142.97375 
L 418.498368 131.15125 
L 418.931855 142.97375 
L 419.365343 142.97375 
L 419.79883 154.79625 
L 420.232318 154.79625 
L 421.099292 131.15125 
L 421.53278 142.97375 
L 422.833242 142.97375 
L 423.26673 131.15125 
L 423.700217 142.97375 
L 424.133704 131.15125 
L 424.567192 131.15125 
L 425.000679 142.97375 
L 426.734629 142.97375 
L 427.168117 131.15125 
L 427.601604 131.15125 
L 428.035091 142.97375 
L 428.902066 119.32875 
L 429.769041 119.32875 
L 430.202529 131.15125 
L 430.636016 131.15125 
L 431.069503 142.97375 
L 431.502991 142.97375 
L 431.936478 131.15125 
L 432.369966 142.97375 
L 433.670428 142.97375 
L 434.103915 154.79625 
L 434.97089 154.79625 
L 435.837865 178.44125 
L 436.70484 154.79625 
L 437.138327 154.79625 
L 437.571815 142.97375 
L 438.43879 142.97375 
L 438.872277 154.79625 
L 440.606227 107.50625 
L 441.039714 107.50625 
L 441.473202 119.32875 
L 442.340177 119.32875 
L 442.773664 107.50625 
L 443.640639 107.50625 
L 444.074126 95.68375 
L 444.507614 95.68375 
L 445.808076 60.21625 
L 447.542026 60.21625 
L 449.275975 12.92625 
L 474.418247 12.92625 
L 476.152196 60.21625 
L 476.585684 60.21625 
L 481.354045 190.26375 
L 483.087995 190.26375 
L 483.521483 202.08625 
L 485.255432 202.08625 
L 486.122407 178.44125 
L 486.989382 178.44125 
L 492.191231 36.57125 
L 493.058206 36.57125 
L 493.925181 12.92625 
L 501.727955 12.92625 
L 502.161442 24.74875 
L 504.328879 24.74875 
L 504.762367 36.57125 
L 508.663754 36.57125 
L 509.097241 24.74875 
L 511.264678 24.74875 
L 511.698166 12.92625 
L 529.904638 12.92625 
L 529.904638 12.92625 
" style="fill: none; stroke: #a6a6a6; stroke-width: 2; stroke-linecap: square"/>
   </g>
   <g id="line2d_17">
    <path d="M 65.206111 199.451907 
L 65.639599 199.411965 
L 66.506574 199.106102 
L 68.674011 199.011019 
L 69.540986 198.523412 
L 70.407961 198.213106 
L 70.841448 197.964633 
L 71.708423 197.712075 
L 72.14191 197.439692 
L 72.575398 196.990961 
L 73.442373 196.883824 
L 73.87586 196.517247 
L 74.309347 195.838304 
L 74.742835 195.906516 
L 75.176322 195.466101 
L 76.043297 195.259952 
L 76.476785 195.130594 
L 77.777247 193.707521 
L 78.210734 192.580194 
L 78.644222 192.079099 
L 79.077709 192.009701 
L 79.511197 191.734036 
L 80.378171 191.545398 
L 80.811659 191.656684 
L 81.245146 192.025448 
L 81.678634 191.571462 
L 82.979096 191.907955 
L 83.412584 192.093414 
L 84.279558 192.967765 
L 85.146533 194.480127 
L 86.013508 194.547954 
L 86.446996 195.007859 
L 86.880483 194.930991 
L 87.31397 194.445196 
L 87.747458 194.410275 
L 88.180945 194.051556 
L 89.04792 193.894954 
L 89.481408 193.47929 
L 89.914895 193.262895 
L 91.215357 193.388013 
L 92.082332 193.466813 
L 92.51582 193.947266 
L 92.949307 194.236281 
L 93.382794 194.224577 
L 93.816282 194.489988 
L 94.249769 195.235437 
L 95.116744 196.367414 
L 95.550232 197.036188 
L 95.983719 197.424948 
L 96.417206 198.013175 
L 96.850694 198.161224 
L 97.717669 197.97585 
L 98.584644 197.937414 
L 99.018131 198.170899 
L 99.451618 197.828569 
L 99.885106 197.255893 
L 101.619056 196.643641 
L 102.052543 196.256522 
L 102.919518 195.831209 
L 103.786493 195.817639 
L 104.21998 195.468078 
L 104.653468 195.406054 
L 105.520443 194.733431 
L 105.95393 194.563628 
L 106.387417 194.858068 
L 107.254392 195.727931 
L 107.68788 195.914328 
L 108.554855 195.44614 
L 108.988342 195.590251 
L 109.421829 195.234609 
L 109.855317 195.446108 
L 110.722292 195.648129 
L 111.155779 196.086317 
L 111.589267 196.191488 
L 112.456241 196.811984 
L 112.889729 196.905078 
L 114.190191 196.711456 
L 114.623679 196.334572 
L 115.057166 196.347702 
L 115.490653 196.004774 
L 115.924141 195.210413 
L 116.357628 195.176548 
L 117.658091 191.719463 
L 118.091578 191.151626 
L 118.958553 189.07545 
L 119.39204 187.538672 
L 119.825528 186.869763 
L 120.259015 186.526004 
L 121.12599 186.820997 
L 122.426452 188.241883 
L 122.85994 188.99081 
L 123.293427 188.951095 
L 123.726915 189.039334 
L 124.160402 189.600856 
L 124.593889 190.451215 
L 125.027377 190.932283 
L 125.894352 192.782066 
L 126.327839 194.157896 
L 127.194814 194.232971 
L 127.628302 193.968491 
L 128.061789 193.847805 
L 128.495276 193.381987 
L 128.928764 192.437937 
L 129.362251 191.21883 
L 129.795739 190.719156 
L 130.229226 190.900919 
L 130.662714 191.276505 
L 131.096201 191.349636 
L 131.529688 191.003099 
L 131.963176 190.811201 
L 132.396663 189.964657 
L 132.830151 189.816484 
L 133.263638 189.90959 
L 133.697126 190.495244 
L 134.130613 190.786998 
L 134.5641 190.427611 
L 135.431075 190.742757 
L 135.864563 191.359705 
L 136.29805 192.351394 
L 136.731538 192.897485 
L 138.032 193.002598 
L 139.332462 192.763711 
L 139.76595 192.796777 
L 140.632924 192.536876 
L 141.066412 192.457845 
L 141.499899 192.695145 
L 141.933387 191.685581 
L 142.366874 191.28919 
L 142.800362 191.207571 
L 143.233849 190.687522 
L 143.667336 190.452828 
L 144.100824 190.500724 
L 144.534311 190.926674 
L 144.967799 190.991516 
L 145.401286 190.783001 
L 145.834774 190.701358 
L 146.268261 191.257387 
L 146.701748 191.405654 
L 147.135236 190.912308 
L 147.568723 190.139021 
L 148.435698 187.792448 
L 148.869186 187.931224 
L 149.302673 187.109282 
L 149.73616 186.699869 
L 150.169648 186.571248 
L 151.036623 186.027591 
L 151.47011 185.828507 
L 151.903598 185.916164 
L 152.337085 186.447704 
L 152.770573 186.727403 
L 153.20406 186.236637 
L 153.637547 185.969483 
L 154.071035 186.338499 
L 154.504522 186.995583 
L 154.93801 188.104437 
L 155.371497 188.747477 
L 155.804985 188.577205 
L 156.238472 189.297755 
L 156.671959 189.586914 
L 157.972422 190.954608 
L 158.405909 191.247514 
L 158.839397 190.99037 
L 160.139859 191.163109 
L 160.573346 190.601628 
L 161.006834 190.585266 
L 161.440321 190.726191 
L 161.873809 190.305742 
L 162.307296 190.553613 
L 162.740783 190.414335 
L 163.174271 189.819161 
L 164.041246 189.379624 
L 164.474733 189.259467 
L 165.341708 188.842203 
L 165.775195 189.201316 
L 167.075658 189.279003 
L 167.509145 189.894574 
L 167.942633 189.936076 
L 168.37612 189.000158 
L 168.809607 188.982506 
L 169.243095 188.243341 
L 169.676582 187.847459 
L 170.11007 188.956306 
L 170.543557 189.530643 
L 171.410532 189.708747 
L 172.710994 189.514132 
L 173.144482 188.785367 
L 174.011457 187.976889 
L 174.444944 187.767913 
L 174.878432 187.227653 
L 175.311919 187.436366 
L 175.745406 187.475514 
L 176.178894 188.094681 
L 176.612381 188.29291 
L 177.045869 187.675269 
L 178.779818 186.180513 
L 179.646793 184.042375 
L 180.513768 183.958987 
L 180.947256 184.523231 
L 181.380743 184.82265 
L 181.81423 185.395285 
L 182.247718 185.287401 
L 182.681205 184.745395 
L 183.114693 184.579211 
L 183.54818 185.288857 
L 183.981668 185.450931 
L 184.415155 184.749604 
L 184.848642 184.66201 
L 185.715617 185.010049 
L 186.582592 186.899664 
L 187.01608 187.47297 
L 187.883054 188.038146 
L 188.750029 188.250767 
L 190.050492 190.359023 
L 190.917466 190.940801 
L 191.350954 191.55774 
L 191.784441 190.847766 
L 193.518391 189.822777 
L 194.385366 189.810939 
L 194.818853 189.597533 
L 195.252341 188.795949 
L 196.119316 188.06818 
L 197.419778 185.007775 
L 197.853265 185.289555 
L 198.286753 185.815791 
L 198.72024 187.267115 
L 199.587215 188.924994 
L 200.020703 189.375815 
L 201.321165 189.296447 
L 202.621627 189.533592 
L 203.055115 189.475072 
L 203.488602 189.544278 
L 204.355577 189.152323 
L 204.789064 188.364795 
L 205.656039 187.500037 
L 206.956501 187.270562 
L 207.389989 186.99764 
L 208.256964 185.309679 
L 208.690451 184.866205 
L 209.123939 185.193693 
L 209.557426 185.321948 
L 209.990913 184.822279 
L 210.424401 185.325195 
L 210.857888 186.507846 
L 211.291376 187.008823 
L 211.724863 187.290679 
L 212.158351 187.381199 
L 212.591838 186.685994 
L 213.458813 183.853765 
L 213.8923 183.063387 
L 214.325788 183.148542 
L 214.759275 183.989364 
L 215.192763 184.2302 
L 215.62625 183.37553 
L 216.059737 182.932268 
L 216.493225 181.808833 
L 216.926712 181.817303 
L 217.3602 180.850663 
L 217.793687 179.034579 
L 218.227175 178.175807 
L 218.660662 177.580196 
L 219.527637 175.689571 
L 219.961124 174.859948 
L 220.394612 174.765378 
L 220.828099 175.395133 
L 221.261587 175.707971 
L 221.695074 175.798428 
L 222.128562 176.114961 
L 222.562049 177.208342 
L 223.429024 176.531827 
L 223.862511 175.268018 
L 224.295999 174.764474 
L 224.729486 175.762444 
L 225.162974 175.115512 
L 226.029948 174.476036 
L 226.896923 176.083693 
L 227.330411 175.735035 
L 227.763898 173.935136 
L 228.197386 172.819412 
L 228.630873 172.20895 
L 229.06436 171.094939 
L 229.931335 170.9128 
L 230.79831 171.135812 
L 231.231798 170.882223 
L 231.665285 168.985029 
L 232.098772 169.211553 
L 232.965747 168.197127 
L 233.832722 166.35146 
L 235.133184 167.383403 
L 235.566672 167.270279 
L 236.000159 168.110558 
L 236.433647 168.072156 
L 236.867134 168.410558 
L 237.300622 168.407455 
L 237.734109 169.237584 
L 238.167596 170.809743 
L 238.601084 173.374752 
L 239.901546 177.05723 
L 240.335034 177.751308 
L 240.768521 177.682447 
L 241.202008 177.750805 
L 241.635496 177.229458 
L 242.068983 175.970122 
L 242.502471 174.035952 
L 242.935958 172.755778 
L 243.369446 172.428159 
L 243.802933 173.483529 
L 244.236421 175.194457 
L 244.669908 175.88404 
L 245.536883 176.452025 
L 245.97037 175.506433 
L 246.403858 174.959537 
L 247.270833 173.330008 
L 247.70432 173.335199 
L 248.137807 173.181121 
L 249.004782 177.061648 
L 249.43827 178.771188 
L 249.871757 178.838459 
L 250.305245 177.167873 
L 250.738732 176.220289 
L 251.172219 174.539122 
L 251.605707 173.968142 
L 252.039194 173.042707 
L 252.472682 171.433554 
L 252.906169 171.337816 
L 253.339657 170.273662 
L 253.773144 170.754382 
L 254.206631 170.885509 
L 254.640119 170.443896 
L 255.073606 170.168631 
L 255.507094 167.51424 
L 255.940581 166.507241 
L 256.374069 166.550319 
L 256.807556 165.954723 
L 257.241043 165.721109 
L 257.674531 162.896391 
L 258.108018 162.285067 
L 258.541506 162.022292 
L 258.974993 161.319614 
L 259.408481 160.900509 
L 259.841968 160.706592 
L 260.275455 161.46185 
L 260.708943 160.809648 
L 261.14243 161.990383 
L 261.575918 164.025782 
L 262.009405 163.71967 
L 262.442893 164.917808 
L 262.87638 165.485309 
L 263.309867 164.431655 
L 263.743355 165.31071 
L 264.176842 166.939855 
L 264.61033 169.759869 
L 265.043817 170.070913 
L 265.477305 168.955967 
L 265.910792 169.279158 
L 266.777767 171.461896 
L 267.211254 172.108137 
L 267.644742 172.432914 
L 268.078229 170.460744 
L 268.511717 169.214936 
L 268.945204 170.051026 
L 269.378692 170.46586 
L 269.812179 169.819958 
L 270.245666 170.163338 
L 271.112641 170.41477 
L 271.546129 170.390472 
L 271.979616 169.983709 
L 272.413104 170.862217 
L 272.846591 171.409357 
L 273.280078 170.24664 
L 273.713566 167.852363 
L 274.147053 167.470443 
L 274.580541 167.28609 
L 275.014028 167.873675 
L 275.447516 168.270875 
L 275.881003 169.020704 
L 276.31449 169.434189 
L 277.181465 171.715597 
L 277.614953 172.325404 
L 278.04844 171.610404 
L 278.481928 171.235367 
L 278.915415 173.188863 
L 279.348902 174.204197 
L 279.78239 173.838572 
L 280.215877 174.929996 
L 280.649365 175.545147 
L 281.082852 174.736813 
L 281.51634 176.398235 
L 281.949827 177.40372 
L 282.383314 177.292793 
L 282.816802 176.43446 
L 283.250289 174.735168 
L 283.683777 171.998717 
L 284.117264 171.433805 
L 284.550752 170.043323 
L 284.984239 169.229466 
L 285.417726 167.895838 
L 285.851214 165.185438 
L 286.284701 161.416336 
L 286.718189 160.203623 
L 287.151676 159.632329 
L 287.585164 159.500588 
L 288.018651 158.467129 
L 288.452138 156.631638 
L 289.319113 155.887655 
L 290.186088 155.619942 
L 290.619576 157.454123 
L 291.486551 154.733554 
L 291.920038 153.367753 
L 292.787013 152.504438 
L 293.653988 155.882664 
L 294.087475 155.463221 
L 294.520963 156.310179 
L 294.95445 157.827185 
L 295.387937 157.204403 
L 295.821425 155.30601 
L 296.254912 154.803523 
L 297.121887 151.377 
L 297.555375 148.757053 
L 297.988862 148.939654 
L 298.855837 154.033988 
L 299.289324 155.683425 
L 299.722812 158.579674 
L 300.156299 159.536102 
L 300.589787 158.326832 
L 301.023274 158.538311 
L 301.890249 157.071751 
L 302.323736 157.184074 
L 303.190711 157.758802 
L 303.624199 157.61562 
L 304.057686 158.207889 
L 304.491173 157.819809 
L 304.924661 157.207473 
L 305.791636 150.924076 
L 306.225123 149.348156 
L 306.658611 146.35375 
L 307.092098 145.179423 
L 307.525585 145.370751 
L 307.959073 144.239849 
L 308.39256 144.469465 
L 309.259535 147.997448 
L 309.693023 149.919903 
L 310.12651 149.543701 
L 310.559997 150.830397 
L 310.993485 150.938457 
L 311.426972 152.938092 
L 311.86046 154.255306 
L 312.293947 155.012167 
L 312.727435 157.003047 
L 313.160922 157.99753 
L 313.59441 159.989914 
L 314.027897 159.902306 
L 314.461384 161.791092 
L 315.328359 166.819325 
L 316.195334 167.213755 
L 316.628822 167.138115 
L 317.062309 167.191919 
L 317.495796 165.935672 
L 317.929284 166.03237 
L 318.362771 165.294194 
L 318.796259 165.668758 
L 319.229746 167.451372 
L 319.663234 167.139109 
L 320.096721 167.19349 
L 320.530208 168.036374 
L 320.963696 169.99596 
L 321.830671 168.376065 
L 322.697646 165.818716 
L 323.131133 164.91757 
L 323.998108 162.197983 
L 324.431595 162.764913 
L 324.865083 162.677274 
L 325.29857 161.35471 
L 326.599032 159.488294 
L 327.03252 158.512169 
L 327.466007 155.315634 
L 327.899495 153.244001 
L 328.332982 152.035292 
L 328.76647 151.544957 
L 330.066932 144.613649 
L 330.500419 144.465429 
L 330.933907 144.121048 
L 331.367394 142.105436 
L 331.800882 143.38452 
L 332.234369 143.948288 
L 332.667856 141.538568 
L 333.101344 140.192644 
L 333.968319 141.829979 
L 334.401806 144.061925 
L 334.835294 145.391339 
L 335.268781 146.238902 
L 335.702269 146.44594 
L 338.303193 161.703339 
L 338.736681 160.601982 
L 339.603655 163.53898 
L 340.037143 163.853931 
L 340.904118 163.787671 
L 341.337605 163.460617 
L 341.771093 161.700457 
L 342.20458 160.438764 
L 342.638067 159.527132 
L 343.071555 157.154 
L 343.505042 154.08063 
L 344.372017 150.110731 
L 344.805505 148.931183 
L 345.238992 148.149354 
L 345.672479 150.81342 
L 347.406429 156.938008 
L 347.839917 157.530355 
L 348.273404 157.891663 
L 348.706891 159.658573 
L 349.140379 160.661548 
L 349.573866 161.363479 
L 350.440841 164.09443 
L 351.307816 165.082411 
L 351.741303 164.096785 
L 352.174791 164.031152 
L 352.608278 160.243153 
L 353.041766 157.634283 
L 353.475253 156.047254 
L 353.908741 155.395641 
L 354.342228 153.22556 
L 354.775715 152.003108 
L 355.209203 151.359839 
L 355.64269 150.936206 
L 356.076178 149.295402 
L 357.37664 140.011946 
L 357.810127 138.600795 
L 358.243615 136.297917 
L 358.677102 134.650157 
L 359.11059 131.939634 
L 359.544077 131.698385 
L 359.977565 131.75504 
L 360.411052 131.667576 
L 360.84454 131.063231 
L 361.278027 132.373944 
L 361.711514 132.897329 
L 362.145002 131.642623 
L 362.578489 129.623881 
L 363.011977 128.816222 
L 363.445464 130.14229 
L 363.878952 132.717368 
L 364.312439 134.426984 
L 364.745926 135.148232 
L 365.612901 135.254822 
L 366.046389 136.523009 
L 366.479876 137.391392 
L 366.913364 137.834239 
L 367.346851 137.845888 
L 368.213826 135.978777 
L 368.647313 135.277735 
L 369.080801 136.41144 
L 369.514288 137.081478 
L 369.947776 138.483301 
L 370.381263 139.251309 
L 370.81475 139.777994 
L 371.248238 140.84214 
L 371.681725 141.45741 
L 372.982188 147.891989 
L 373.415675 149.007202 
L 373.849162 147.349295 
L 374.28265 146.305018 
L 374.716137 144.937396 
L 375.583112 139.838077 
L 376.0166 138.009616 
L 376.883574 138.396853 
L 377.750549 135.807949 
L 378.184037 134.701062 
L 379.484499 128.830712 
L 379.917986 128.815882 
L 380.351474 126.957895 
L 380.784961 127.487222 
L 381.218449 127.813237 
L 381.651936 128.287631 
L 382.085424 128.980842 
L 382.952399 131.917581 
L 383.385886 132.49198 
L 384.252861 134.161513 
L 384.686348 134.655489 
L 385.119836 134.70385 
L 385.553323 135.497481 
L 386.420298 135.839969 
L 386.853785 135.981469 
L 387.72076 139.222682 
L 388.587735 141.126111 
L 389.021223 141.484011 
L 389.45471 140.738182 
L 389.888197 138.437843 
L 391.18866 134.387424 
L 391.622147 132.160915 
L 392.922609 132.135226 
L 393.356097 131.185519 
L 393.789584 128.941443 
L 394.223072 125.870638 
L 395.090047 121.82087 
L 395.523534 121.483994 
L 395.957021 123.154462 
L 396.390509 122.654331 
L 396.823996 121.430679 
L 398.124459 115.217061 
L 398.557946 115.476357 
L 398.991433 113.846001 
L 399.424921 111.763311 
L 399.858408 111.803088 
L 400.291896 112.469382 
L 400.725383 112.195768 
L 401.158871 112.449362 
L 401.592358 110.136411 
L 402.025845 108.784368 
L 402.459333 108.291277 
L 402.89282 105.673939 
L 403.759795 104.64505 
L 404.193283 105.466153 
L 404.62677 105.412725 
L 405.060258 106.427342 
L 405.493745 107.154533 
L 405.927232 112.112968 
L 406.36072 115.376187 
L 406.794207 116.009011 
L 407.227695 115.025743 
L 407.661182 115.27513 
L 408.09467 115.880857 
L 408.528157 116.947513 
L 408.961644 117.132147 
L 409.395132 116.278621 
L 409.828619 116.305235 
L 410.262107 115.922632 
L 410.695594 116.489954 
L 411.129082 116.000074 
L 411.562569 116.683584 
L 411.996056 114.879198 
L 412.429544 113.879248 
L 412.863031 112.122599 
L 413.730006 111.797992 
L 414.163494 112.733681 
L 415.030468 115.323563 
L 415.463956 116.374702 
L 416.330931 117.238956 
L 416.764418 116.924874 
L 417.197906 117.207355 
L 417.631393 118.990973 
L 418.06488 118.740788 
L 418.498368 117.545205 
L 418.931855 117.545706 
L 419.365343 117.784412 
L 419.79883 116.009054 
L 420.665805 110.980251 
L 421.099292 108.617778 
L 421.53278 108.787038 
L 422.399755 107.620579 
L 422.833242 107.753924 
L 423.26673 106.819806 
L 424.133704 107.193758 
L 424.567192 105.483931 
L 425.000679 105.448964 
L 425.434167 104.983659 
L 425.867654 104.080215 
L 426.734629 101.943802 
L 427.168117 103.00298 
L 427.601604 103.147324 
L 428.035091 102.899834 
L 428.468579 101.988634 
L 428.902066 100.564384 
L 429.335554 100.409605 
L 429.769041 98.448925 
L 430.202529 98.59208 
L 430.636016 97.34074 
L 431.069503 97.182695 
L 431.502991 98.322252 
L 431.936478 98.156672 
L 432.369966 101.128614 
L 432.803453 102.566646 
L 433.236941 104.666595 
L 433.670428 105.628524 
L 434.103915 104.230872 
L 434.97089 101.992966 
L 436.271353 97.178095 
L 436.70484 97.25705 
L 437.138327 100.508311 
L 437.571815 102.509305 
L 438.005302 103.856034 
L 438.43879 104.6107 
L 438.872277 106.658738 
L 439.305765 105.696034 
L 439.739252 105.465659 
L 440.606227 101.769094 
L 441.039714 102.572974 
L 441.906689 104.683108 
L 442.340177 104.767586 
L 442.773664 105.211953 
L 443.207151 104.864171 
L 443.640639 103.187377 
L 444.074126 97.38942 
L 444.941101 90.033998 
L 445.374589 89.770229 
L 445.808076 90.961701 
L 446.241563 90.23613 
L 446.675051 90.089275 
L 447.108538 90.849108 
L 447.542026 90.926141 
L 447.975513 89.703294 
L 448.409001 89.202095 
L 448.842488 89.136388 
L 449.275975 88.943143 
L 449.709463 89.102774 
L 450.14295 89.586065 
L 450.576438 91.103764 
L 451.009925 91.727786 
L 451.443413 91.52546 
L 451.8769 91.606224 
L 452.310388 88.50495 
L 452.743875 83.573495 
L 453.61085 79.301364 
L 454.044337 80.095497 
L 454.911312 82.380793 
L 455.3448 82.880447 
L 455.778287 82.638418 
L 456.211774 81.906862 
L 456.645262 80.909658 
L 457.078749 78.94575 
L 457.512237 79.3968 
L 457.945724 80.188925 
L 458.379212 81.743916 
L 458.812699 82.558798 
L 459.246186 85.634541 
L 459.679674 86.578681 
L 460.113161 86.509658 
L 460.546649 87.144573 
L 461.413624 78.593391 
L 462.280598 73.387935 
L 462.714086 72.259242 
L 463.147573 71.740053 
L 463.581061 71.653876 
L 464.014548 72.243887 
L 464.448036 73.239937 
L 464.881523 72.230309 
L 465.748498 69.682565 
L 466.181985 65.653097 
L 466.615473 64.002163 
L 467.482448 62.267784 
L 468.78291 62.352529 
L 469.216397 62.595046 
L 469.649885 62.415971 
L 470.083372 61.829998 
L 470.51686 61.808356 
L 470.950347 61.4953 
L 471.383834 60.084673 
L 471.817322 60.408876 
L 472.250809 60.894646 
L 473.117784 64.281992 
L 473.551272 64.756906 
L 474.418247 66.557259 
L 475.718709 71.834162 
L 476.152196 74.885109 
L 476.585684 76.712389 
L 477.019171 77.776213 
L 477.452659 79.26272 
L 477.886146 82.354685 
L 478.319633 84.131041 
L 479.186608 90.22347 
L 480.053583 93.99986 
L 480.920558 100.086505 
L 481.787533 103.20012 
L 482.22102 104.505574 
L 482.654508 104.299645 
L 483.087995 103.342741 
L 483.521483 103.882804 
L 483.95497 105.587079 
L 484.388457 106.809194 
L 484.821945 107.345026 
L 485.255432 106.325876 
L 486.122407 101.474074 
L 487.422869 95.941238 
L 487.856357 93.659086 
L 488.289844 92.417904 
L 488.723332 90.2239 
L 489.590307 87.25871 
L 490.890769 80.734894 
L 492.191231 72.132039 
L 492.624719 71.337952 
L 493.058206 70.050701 
L 493.925181 66.264564 
L 494.358668 64.209207 
L 494.792156 62.928952 
L 495.225643 61.250501 
L 495.659131 60.217289 
L 496.092618 58.294606 
L 496.526106 57.625288 
L 496.959593 57.336648 
L 497.39308 56.855105 
L 497.826568 55.689368 
L 498.260055 55.708827 
L 498.693543 55.896708 
L 499.12703 55.347161 
L 499.560518 53.234852 
L 500.427492 51.390791 
L 500.86098 50.955172 
L 501.727955 51.759853 
L 502.161442 52.985987 
L 502.59493 53.569341 
L 503.028417 53.731083 
L 503.461904 53.577074 
L 503.895392 52.994433 
L 504.328879 51.269478 
L 504.762367 50.908836 
L 505.195854 50.09944 
L 505.629342 48.995303 
L 506.062829 48.567698 
L 506.496316 48.545698 
L 506.929804 48.259558 
L 507.363291 47.518194 
L 507.796779 48.032817 
L 508.230266 48.934023 
L 508.663754 48.693466 
L 509.097241 47.21116 
L 509.530728 46.724773 
L 510.397703 47.504181 
L 510.831191 48.563314 
L 511.698166 52.022194 
L 512.131653 53.001113 
L 512.56514 52.839323 
L 512.998628 52.34732 
L 513.432115 52.48553 
L 513.865603 53.103377 
L 514.29909 54.293661 
L 514.732578 53.784322 
L 515.166065 52.632266 
L 515.599552 52.444417 
L 516.03304 53.041117 
L 516.466527 52.992178 
L 516.900015 52.803334 
L 517.76699 51.20727 
L 519.067452 48.137782 
L 519.500939 47.849051 
L 519.934427 47.425069 
L 520.367914 47.671536 
L 520.801402 47.481512 
L 521.234889 50.995758 
L 521.668377 52.31161 
L 522.101864 52.94493 
L 522.535351 53.804241 
L 522.968839 54.180166 
L 523.402326 54.041931 
L 523.835814 53.370491 
L 524.269301 53.225042 
L 524.702789 53.235817 
L 525.136276 53.761018 
L 525.569763 53.841182 
L 526.436738 61.019592 
L 526.870226 64.11458 
L 527.737201 67.785052 
L 528.170688 65.649615 
L 528.604175 65.174066 
L 529.037663 64.867901 
L 529.47115 64.12477 
L 529.904638 64.04479 
L 529.904638 64.04479 
" style="fill: none; stroke: #ffc000; stroke-width: 2; stroke-linecap: square"/>
   </g>
   <g id="line2d_18">
    <path d="M 86.013508 202.08625 
L 86.013508 12.92625 
" clip-path="url(#p3757b71857)" style="fill: none; stroke-dasharray: 3.7,1.6; stroke-dashoffset: 0; stroke: #808080; stroke-opacity: 0.3"/>
   </g>
   <g id="line2d_19">
    <path d="M 113.756704 202.08625 
L 113.756704 12.92625 
" clip-path="url(#p3757b71857)" style="fill: none; stroke-dasharray: 3.7,1.6; stroke-dashoffset: 0; stroke: #808080; stroke-opacity: 0.3"/>
   </g>
   <g id="line2d_20">
    <path d="M 141.499899 202.08625 
L 141.499899 12.92625 
" clip-path="url(#p3757b71857)" style="fill: none; stroke-dasharray: 3.7,1.6; stroke-dashoffset: 0; stroke: #808080; stroke-opacity: 0.3"/>
   </g>
   <g id="line2d_21">
    <path d="M 169.243095 202.08625 
L 169.243095 12.92625 
" clip-path="url(#p3757b71857)" style="fill: none; stroke-dasharray: 3.7,1.6; stroke-dashoffset: 0; stroke: #808080; stroke-opacity: 0.3"/>
   </g>
   <g id="line2d_22">
    <path d="M 196.986291 202.08625 
L 196.986291 12.92625 
" clip-path="url(#p3757b71857)" style="fill: none; stroke-dasharray: 3.7,1.6; stroke-dashoffset: 0; stroke: #808080; stroke-opacity: 0.3"/>
   </g>
   <g id="line2d_23">
    <path d="M 224.729486 202.08625 
L 224.729486 12.92625 
" clip-path="url(#p3757b71857)" style="fill: none; stroke-dasharray: 3.7,1.6; stroke-dashoffset: 0; stroke: #808080; stroke-opacity: 0.3"/>
   </g>
   <g id="line2d_24">
    <path d="M 252.472682 202.08625 
L 252.472682 12.92625 
" clip-path="url(#p3757b71857)" style="fill: none; stroke-dasharray: 3.7,1.6; stroke-dashoffset: 0; stroke: #808080; stroke-opacity: 0.3"/>
   </g>
   <g id="line2d_25">
    <path d="M 280.215877 202.08625 
L 280.215877 12.92625 
" clip-path="url(#p3757b71857)" style="fill: none; stroke-dasharray: 3.7,1.6; stroke-dashoffset: 0; stroke: #808080; stroke-opacity: 0.3"/>
   </g>
   <g id="line2d_26">
    <path d="M 307.959073 202.08625 
L 307.959073 12.92625 
" clip-path="url(#p3757b71857)" style="fill: none; stroke-dasharray: 3.7,1.6; stroke-dashoffset: 0; stroke: #808080; stroke-opacity: 0.3"/>
   </g>
   <g id="line2d_27">
    <path d="M 335.702269 202.08625 
L 335.702269 12.92625 
" clip-path="url(#p3757b71857)" style="fill: none; stroke-dasharray: 3.7,1.6; stroke-dashoffset: 0; stroke: #808080; stroke-opacity: 0.3"/>
   </g>
   <g id="line2d_28">
    <path d="M 363.445464 202.08625 
L 363.445464 12.92625 
" clip-path="url(#p3757b71857)" style="fill: none; stroke-dasharray: 3.7,1.6; stroke-dashoffset: 0; stroke: #808080; stroke-opacity: 0.3"/>
   </g>
   <g id="line2d_29">
    <path d="M 391.18866 202.08625 
L 391.18866 12.92625 
" clip-path="url(#p3757b71857)" style="fill: none; stroke-dasharray: 3.7,1.6; stroke-dashoffset: 0; stroke: #808080; stroke-opacity: 0.3"/>
   </g>
   <g id="line2d_30">
    <path d="M 418.931855 202.08625 
L 418.931855 12.92625 
" clip-path="url(#p3757b71857)" style="fill: none; stroke-dasharray: 3.7,1.6; stroke-dashoffset: 0; stroke: #808080; stroke-opacity: 0.3"/>
   </g>
   <g id="line2d_31">
    <path d="M 446.675051 202.08625 
L 446.675051 12.92625 
" clip-path="url(#p3757b71857)" style="fill: none; stroke-dasharray: 3.7,1.6; stroke-dashoffset: 0; stroke: #808080; stroke-opacity: 0.3"/>
   </g>
   <g id="line2d_32">
    <path d="M 474.418247 202.08625 
L 474.418247 12.92625 
" clip-path="url(#p3757b71857)" style="fill: none; stroke-dasharray: 3.7,1.6; stroke-dashoffset: 0; stroke: #808080; stroke-opacity: 0.3"/>
   </g>
   <g id="line2d_33">
    <path d="M 502.161442 202.08625 
L 502.161442 12.92625 
" clip-path="url(#p3757b71857)" style="fill: none; stroke-dasharray: 3.7,1.6; stroke-dashoffset: 0; stroke: #808080; stroke-opacity: 0.3"/>
   </g>
   <g id="line2d_34">
    <path d="M 529.904638 202.08625 
L 529.904638 12.92625 
" clip-path="url(#p3757b71857)" style="fill: none; stroke-dasharray: 3.7,1.6; stroke-dashoffset: 0; stroke: #808080; stroke-opacity: 0.3"/>
   </g>
   <g id="patch_3">
    <path d="M 58.270313 202.08625 
L 58.270313 12.92625 
" style="fill: none; stroke: #000000; stroke-width: 2; stroke-linejoin: miter; stroke-linecap: square"/>
   </g>
   <g id="patch_4">
    <path d="M 58.270313 202.08625 
L 530.338125 202.08625 
" style="fill: none; stroke: #000000; stroke-width: 2; stroke-linejoin: miter; stroke-linecap: square"/>
   </g>
   <g id="text_18">
    <!-- S13 -->
    <g transform="translate(471.15036 188.65325) scale(0.2 -0.2)">
     <defs>
      <path id="ArialMT-53" d="M 288 1472 
L 859 1522 
Q 900 1178 1048 958 
Q 1197 738 1509 602 
Q 1822 466 2213 466 
Q 2559 466 2825 569 
Q 3091 672 3220 851 
Q 3350 1031 3350 1244 
Q 3350 1459 3225 1620 
Q 3100 1781 2813 1891 
Q 2628 1963 1997 2114 
Q 1366 2266 1113 2400 
Q 784 2572 623 2826 
Q 463 3081 463 3397 
Q 463 3744 659 4045 
Q 856 4347 1234 4503 
Q 1613 4659 2075 4659 
Q 2584 4659 2973 4495 
Q 3363 4331 3572 4012 
Q 3781 3694 3797 3291 
L 3216 3247 
Q 3169 3681 2898 3903 
Q 2628 4125 2100 4125 
Q 1550 4125 1298 3923 
Q 1047 3722 1047 3438 
Q 1047 3191 1225 3031 
Q 1400 2872 2139 2705 
Q 2878 2538 3153 2413 
Q 3553 2228 3743 1945 
Q 3934 1663 3934 1294 
Q 3934 928 3725 604 
Q 3516 281 3123 101 
Q 2731 -78 2241 -78 
Q 1619 -78 1198 103 
Q 778 284 539 648 
Q 300 1013 288 1472 
z
" transform="scale(0.015625)"/>
     </defs>
     <use xlink:href="#ArialMT-53"/>
     <use xlink:href="#ArialMT-31" x="66.699219"/>
     <use xlink:href="#ArialMT-33" x="122.314453"/>
    </g>
   </g>
  </g>
  <g id="axes_2">
   <g id="patch_5">
    <path d="M 576.441667 202.08625 
L 853.524948 202.08625 
L 853.524948 12.92625 
L 576.441667 12.92625 
L 576.441667 202.08625 
z
" style="fill: none"/>
   </g>
   <g id="matplotlib.axis_3">
    <g id="xtick_10">
     <g id="line2d_35">
      <g>
       <use xlink:href="#m3f67f49998" x="576.441667" y="202.08625" style="stroke: #000000; stroke-width: 0.8"/>
      </g>
     </g>
     <g id="text_19">
      <!-- 0 -->
      <g transform="translate(571.992917 220.53875) scale(0.16 -0.16)">
       <use xlink:href="#ArialMT-30"/>
      </g>
     </g>
    </g>
    <g id="xtick_11">
     <g id="line2d_36">
      <g>
       <use xlink:href="#m3f67f49998" x="609.009766" y="202.08625" style="stroke: #000000; stroke-width: 0.8"/>
      </g>
     </g>
     <g id="text_20">
      <!-- 128 -->
      <g transform="translate(595.663516 220.53875) scale(0.16 -0.16)">
       <use xlink:href="#ArialMT-31"/>
       <use xlink:href="#ArialMT-32" x="55.615234"/>
       <use xlink:href="#ArialMT-38" x="111.230469"/>
      </g>
     </g>
    </g>
    <g id="xtick_12">
     <g id="line2d_37">
      <g>
       <use xlink:href="#m3f67f49998" x="641.577865" y="202.08625" style="stroke: #000000; stroke-width: 0.8"/>
      </g>
     </g>
     <g id="text_21">
      <!-- 256 -->
      <g transform="translate(628.231615 220.53875) scale(0.16 -0.16)">
       <use xlink:href="#ArialMT-32"/>
       <use xlink:href="#ArialMT-35" x="55.615234"/>
       <use xlink:href="#ArialMT-36" x="111.230469"/>
      </g>
     </g>
    </g>
    <g id="xtick_13">
     <g id="line2d_38">
      <g>
       <use xlink:href="#m3f67f49998" x="674.145964" y="202.08625" style="stroke: #000000; stroke-width: 0.8"/>
      </g>
     </g>
     <g id="text_22">
      <!-- 384 -->
      <g transform="translate(660.799714 220.53875) scale(0.16 -0.16)">
       <use xlink:href="#ArialMT-33"/>
       <use xlink:href="#ArialMT-38" x="55.615234"/>
       <use xlink:href="#ArialMT-34" x="111.230469"/>
      </g>
     </g>
    </g>
    <g id="xtick_14">
     <g id="line2d_39">
      <g>
       <use xlink:href="#m3f67f49998" x="706.714063" y="202.08625" style="stroke: #000000; stroke-width: 0.8"/>
      </g>
     </g>
     <g id="text_23">
      <!-- 512 -->
      <g transform="translate(693.367813 220.53875) scale(0.16 -0.16)">
       <use xlink:href="#ArialMT-35"/>
       <use xlink:href="#ArialMT-31" x="55.615234"/>
       <use xlink:href="#ArialMT-32" x="111.230469"/>
      </g>
     </g>
    </g>
    <g id="xtick_15">
     <g id="line2d_40">
      <g>
       <use xlink:href="#m3f67f49998" x="739.282163" y="202.08625" style="stroke: #000000; stroke-width: 0.8"/>
      </g>
     </g>
     <g id="text_24">
      <!-- 640 -->
      <g transform="translate(725.935913 220.53875) scale(0.16 -0.16)">
       <use xlink:href="#ArialMT-36"/>
       <use xlink:href="#ArialMT-34" x="55.615234"/>
       <use xlink:href="#ArialMT-30" x="111.230469"/>
      </g>
     </g>
    </g>
    <g id="xtick_16">
     <g id="line2d_41">
      <g>
       <use xlink:href="#m3f67f49998" x="771.850262" y="202.08625" style="stroke: #000000; stroke-width: 0.8"/>
      </g>
     </g>
     <g id="text_25">
      <!-- 768 -->
      <g transform="translate(758.504012 220.53875) scale(0.16 -0.16)">
       <use xlink:href="#ArialMT-37"/>
       <use xlink:href="#ArialMT-36" x="55.615234"/>
       <use xlink:href="#ArialMT-38" x="111.230469"/>
      </g>
     </g>
    </g>
    <g id="xtick_17">
     <g id="line2d_42">
      <g>
       <use xlink:href="#m3f67f49998" x="804.418361" y="202.08625" style="stroke: #000000; stroke-width: 0.8"/>
      </g>
     </g>
     <g id="text_26">
      <!-- 896 -->
      <g transform="translate(791.072111 220.53875) scale(0.16 -0.16)">
       <use xlink:href="#ArialMT-38"/>
       <use xlink:href="#ArialMT-39" x="55.615234"/>
       <use xlink:href="#ArialMT-36" x="111.230469"/>
      </g>
     </g>
    </g>
    <g id="xtick_18">
     <g id="line2d_43">
      <g>
       <use xlink:href="#m3f67f49998" x="836.98646" y="202.08625" style="stroke: #000000; stroke-width: 0.8"/>
      </g>
     </g>
     <g id="text_27">
      <!-- 1024 -->
      <g transform="translate(819.19146 220.53875) scale(0.16 -0.16)">
       <use xlink:href="#ArialMT-31"/>
       <use xlink:href="#ArialMT-30" x="55.615234"/>
       <use xlink:href="#ArialMT-32" x="111.230469"/>
       <use xlink:href="#ArialMT-34" x="166.845703"/>
      </g>
     </g>
    </g>
    <g id="text_28">
     <!-- Trial -->
     <g transform="translate(696.869479 241.318594) scale(0.19 -0.19)">
      <use xlink:href="#ArialMT-54"/>
      <use xlink:href="#ArialMT-72" x="57.333984"/>
      <use xlink:href="#ArialMT-69" x="90.634766"/>
      <use xlink:href="#ArialMT-61" x="112.851562"/>
      <use xlink:href="#ArialMT-6c" x="168.466797"/>
     </g>
    </g>
   </g>
   <g id="matplotlib.axis_4">
    <g id="ytick_7">
     <g id="line2d_44">
      <g>
       <use xlink:href="#md04bb6a73a" x="576.441667" y="202.08625" style="stroke: #000000; stroke-width: 0.8"/>
      </g>
     </g>
    </g>
    <g id="ytick_8">
     <g id="line2d_45">
      <g>
       <use xlink:href="#md04bb6a73a" x="576.441667" y="164.25425" style="stroke: #000000; stroke-width: 0.8"/>
      </g>
     </g>
    </g>
    <g id="ytick_9">
     <g id="line2d_46">
      <g>
       <use xlink:href="#md04bb6a73a" x="576.441667" y="126.42225" style="stroke: #000000; stroke-width: 0.8"/>
      </g>
     </g>
    </g>
    <g id="ytick_10">
     <g id="line2d_47">
      <g>
       <use xlink:href="#md04bb6a73a" x="576.441667" y="88.59025" style="stroke: #000000; stroke-width: 0.8"/>
      </g>
     </g>
    </g>
    <g id="ytick_11">
     <g id="line2d_48">
      <g>
       <use xlink:href="#md04bb6a73a" x="576.441667" y="50.75825" style="stroke: #000000; stroke-width: 0.8"/>
      </g>
     </g>
    </g>
    <g id="ytick_12">
     <g id="line2d_49">
      <g>
       <use xlink:href="#md04bb6a73a" x="576.441667" y="12.92625" style="stroke: #000000; stroke-width: 0.8"/>
      </g>
     </g>
    </g>
   </g>
   <g id="line2d_50">
    <path d="M 580.512679 202.08625 
L 581.530432 202.08625 
L 581.78487 190.26375 
L 582.293747 190.26375 
L 582.802624 166.61875 
L 584.329253 166.61875 
L 584.83813 142.97375 
L 585.092568 142.97375 
L 585.347006 131.15125 
L 586.364759 131.15125 
L 586.873636 154.79625 
L 588.400266 154.79625 
L 588.909142 178.44125 
L 589.16358 178.44125 
L 589.418019 190.26375 
L 589.672457 190.26375 
L 589.926895 202.08625 
L 610.027519 202.08625 
L 610.281957 190.26375 
L 614.098531 190.26375 
L 614.35297 202.08625 
L 667.021693 202.08625 
L 668.293884 142.97375 
L 668.80276 142.97375 
L 669.057199 131.15125 
L 669.566075 131.15125 
L 670.074952 107.50625 
L 671.85602 107.50625 
L 672.364896 131.15125 
L 673.637088 131.15125 
L 674.145964 154.79625 
L 675.163717 154.79625 
L 675.927032 190.26375 
L 677.199224 190.26375 
L 677.453662 178.44125 
L 677.962538 178.44125 
L 678.216977 166.61875 
L 678.980291 166.61875 
L 679.489168 142.97375 
L 680.506921 142.97375 
L 680.761359 131.15125 
L 681.015798 131.15125 
L 681.270236 142.97375 
L 682.033551 142.97375 
L 682.287989 154.79625 
L 683.051304 154.79625 
L 683.56018 178.44125 
L 683.814619 178.44125 
L 684.069057 166.61875 
L 684.577934 166.61875 
L 684.832372 178.44125 
L 685.341248 178.44125 
L 685.595687 190.26375 
L 685.850125 178.44125 
L 686.359001 178.44125 
L 686.61344 166.61875 
L 687.885631 166.61875 
L 688.140069 178.44125 
L 688.394508 166.61875 
L 689.666699 166.61875 
L 689.921137 178.44125 
L 690.430014 178.44125 
L 690.684452 190.26375 
L 691.193329 190.26375 
L 691.702205 166.61875 
L 692.211082 166.61875 
L 692.46552 178.44125 
L 694.246588 178.44125 
L 694.501026 166.61875 
L 695.518779 166.61875 
L 695.773218 178.44125 
L 696.027656 166.61875 
L 696.282094 166.61875 
L 696.536532 154.79625 
L 696.790971 154.79625 
L 697.045409 142.97375 
L 698.3176 142.97375 
L 698.572039 154.79625 
L 699.335353 154.79625 
L 699.589792 166.61875 
L 700.353107 166.61875 
L 700.607545 178.44125 
L 701.625298 178.44125 
L 702.134174 154.79625 
L 702.643051 154.79625 
L 702.897489 142.97375 
L 703.151928 142.97375 
L 703.406366 131.15125 
L 703.660804 131.15125 
L 703.915242 119.32875 
L 704.169681 131.15125 
L 704.932996 131.15125 
L 705.187434 142.97375 
L 705.69631 142.97375 
L 706.205187 166.61875 
L 706.459625 166.61875 
L 706.714063 154.79625 
L 706.968502 166.61875 
L 707.731817 166.61875 
L 707.986255 178.44125 
L 708.495131 178.44125 
L 708.74957 166.61875 
L 709.258446 166.61875 
L 709.512884 154.79625 
L 710.021761 154.79625 
L 710.276199 142.97375 
L 710.530638 142.97375 
L 710.785076 154.79625 
L 711.293952 131.15125 
L 711.548391 142.97375 
L 712.566144 142.97375 
L 712.820582 154.79625 
L 713.07502 142.97375 
L 713.329459 142.97375 
L 713.583897 154.79625 
L 714.092773 154.79625 
L 714.347212 166.61875 
L 714.60165 154.79625 
L 714.856088 154.79625 
L 715.364965 178.44125 
L 716.891594 178.44125 
L 717.146033 190.26375 
L 718.163786 190.26375 
L 718.418224 178.44125 
L 718.672662 190.26375 
L 720.45373 190.26375 
L 720.962607 166.61875 
L 721.217045 166.61875 
L 721.725922 142.97375 
L 722.234798 142.97375 
L 722.489236 154.79625 
L 724.524743 154.79625 
L 725.033619 178.44125 
L 725.288058 178.44125 
L 725.796934 202.08625 
L 732.157891 202.08625 
L 732.412329 190.26375 
L 732.666767 190.26375 
L 732.921206 178.44125 
L 733.175644 178.44125 
L 733.430082 166.61875 
L 734.193397 166.61875 
L 734.447835 154.79625 
L 734.702274 154.79625 
L 734.956712 142.97375 
L 735.21115 142.97375 
L 735.465588 131.15125 
L 735.720027 131.15125 
L 736.228903 107.50625 
L 736.483342 119.32875 
L 737.246656 119.32875 
L 737.501095 131.15125 
L 738.26441 131.15125 
L 738.518848 142.97375 
L 738.773286 142.97375 
L 739.027724 154.79625 
L 740.045477 154.79625 
L 740.299916 166.61875 
L 740.808792 166.61875 
L 741.063231 178.44125 
L 743.353175 178.44125 
L 743.607613 190.26375 
L 743.862052 190.26375 
L 744.11649 202.08625 
L 748.441941 202.08625 
L 748.950817 178.44125 
L 749.714132 178.44125 
L 749.96857 166.61875 
L 750.223008 166.61875 
L 750.477447 154.79625 
L 750.986323 154.79625 
L 751.4952 131.15125 
L 752.767391 131.15125 
L 753.021829 142.97375 
L 754.294021 142.97375 
L 754.548459 154.79625 
L 755.057336 154.79625 
L 755.566212 178.44125 
L 755.82065 166.61875 
L 756.583965 166.61875 
L 756.838404 178.44125 
L 757.856157 178.44125 
L 758.110595 190.26375 
L 759.637225 190.26375 
L 759.891663 202.08625 
L 768.542564 202.08625 
L 768.797003 190.26375 
L 769.051441 190.26375 
L 769.814756 154.79625 
L 770.069194 154.79625 
L 771.086947 107.50625 
L 771.595824 107.50625 
L 772.359138 72.03875 
L 772.613577 72.03875 
L 772.868015 83.86125 
L 774.903521 83.86125 
L 775.157959 95.68375 
L 775.666836 72.03875 
L 776.175712 95.68375 
L 776.430151 95.68375 
L 776.684589 83.86125 
L 776.939027 83.86125 
L 777.193466 72.03875 
L 777.447904 83.86125 
L 778.720095 83.86125 
L 778.974534 95.68375 
L 779.228972 95.68375 
L 779.737848 119.32875 
L 779.992287 107.50625 
L 780.755601 107.50625 
L 781.01004 95.68375 
L 781.264478 95.68375 
L 781.518916 83.86125 
L 781.773355 95.68375 
L 782.027793 95.68375 
L 782.282231 83.86125 
L 782.791108 107.50625 
L 783.299984 107.50625 
L 783.554422 95.68375 
L 784.572176 95.68375 
L 785.33549 131.15125 
L 785.844367 131.15125 
L 786.353243 154.79625 
L 786.607682 154.79625 
L 786.86212 142.97375 
L 787.625435 142.97375 
L 787.879873 131.15125 
L 788.134311 142.97375 
L 788.38875 142.97375 
L 788.643188 154.79625 
L 788.897626 154.79625 
L 789.406503 131.15125 
L 789.660941 142.97375 
L 790.424256 142.97375 
L 790.678694 131.15125 
L 790.933132 142.97375 
L 791.187571 131.15125 
L 791.442009 131.15125 
L 791.696447 142.97375 
L 792.7142 142.97375 
L 792.968639 131.15125 
L 793.223077 131.15125 
L 793.477515 142.97375 
L 793.986392 119.32875 
L 794.495268 119.32875 
L 794.749707 131.15125 
L 795.004145 131.15125 
L 795.258583 142.97375 
L 795.513021 142.97375 
L 795.76746 131.15125 
L 796.021898 142.97375 
L 796.785213 142.97375 
L 797.039651 154.79625 
L 797.548528 154.79625 
L 798.057404 178.44125 
L 798.566281 154.79625 
L 798.820719 154.79625 
L 799.075157 142.97375 
L 799.584034 142.97375 
L 799.838472 154.79625 
L 800.856225 107.50625 
L 801.110663 107.50625 
L 801.365102 119.32875 
L 801.873978 119.32875 
L 802.128417 107.50625 
L 802.637293 107.50625 
L 802.891731 95.68375 
L 803.14617 95.68375 
L 803.909484 60.21625 
L 804.927238 60.21625 
L 805.944991 12.92625 
L 820.702411 12.92625 
L 821.720164 60.21625 
L 821.974602 60.21625 
L 824.773423 190.26375 
L 825.791176 190.26375 
L 826.045614 202.08625 
L 827.063367 202.08625 
L 827.572244 178.44125 
L 828.081121 178.44125 
L 831.13438 36.57125 
L 831.643256 36.57125 
L 832.152133 12.92625 
L 836.732022 12.92625 
L 836.98646 24.74875 
L 838.258652 24.74875 
L 838.51309 36.57125 
L 840.803034 36.57125 
L 841.057473 24.74875 
L 842.329664 24.74875 
L 842.584102 12.92625 
L 853.27051 12.92625 
L 853.27051 12.92625 
" style="fill: none; stroke: #a6a6a6; stroke-width: 2; stroke-linecap: square"/>
   </g>
   <g id="line2d_51">
    <path d="M 580.512679 202.08625 
L 626.311569 202.08625 
L 630.382581 12.92625 
L 853.27051 12.92625 
L 853.27051 12.92625 
" style="fill: none; stroke: #ad78d7; stroke-width: 2; stroke-linecap: square"/>
   </g>
   <g id="line2d_52">
    <path d="M 592.725716 202.08625 
L 592.725716 12.92625 
" clip-path="url(#pd9b43c6778)" style="fill: none; stroke-dasharray: 3.7,1.6; stroke-dashoffset: 0; stroke: #808080; stroke-opacity: 0.3"/>
   </g>
   <g id="line2d_53">
    <path d="M 609.009766 202.08625 
L 609.009766 12.92625 
" clip-path="url(#pd9b43c6778)" style="fill: none; stroke-dasharray: 3.7,1.6; stroke-dashoffset: 0; stroke: #808080; stroke-opacity: 0.3"/>
   </g>
   <g id="line2d_54">
    <path d="M 625.293815 202.08625 
L 625.293815 12.92625 
" clip-path="url(#pd9b43c6778)" style="fill: none; stroke-dasharray: 3.7,1.6; stroke-dashoffset: 0; stroke: #808080; stroke-opacity: 0.3"/>
   </g>
   <g id="line2d_55">
    <path d="M 641.577865 202.08625 
L 641.577865 12.92625 
" clip-path="url(#pd9b43c6778)" style="fill: none; stroke-dasharray: 3.7,1.6; stroke-dashoffset: 0; stroke: #808080; stroke-opacity: 0.3"/>
   </g>
   <g id="line2d_56">
    <path d="M 657.861915 202.08625 
L 657.861915 12.92625 
" clip-path="url(#pd9b43c6778)" style="fill: none; stroke-dasharray: 3.7,1.6; stroke-dashoffset: 0; stroke: #808080; stroke-opacity: 0.3"/>
   </g>
   <g id="line2d_57">
    <path d="M 674.145964 202.08625 
L 674.145964 12.92625 
" clip-path="url(#pd9b43c6778)" style="fill: none; stroke-dasharray: 3.7,1.6; stroke-dashoffset: 0; stroke: #808080; stroke-opacity: 0.3"/>
   </g>
   <g id="line2d_58">
    <path d="M 690.430014 202.08625 
L 690.430014 12.92625 
" clip-path="url(#pd9b43c6778)" style="fill: none; stroke-dasharray: 3.7,1.6; stroke-dashoffset: 0; stroke: #808080; stroke-opacity: 0.3"/>
   </g>
   <g id="line2d_59">
    <path d="M 706.714063 202.08625 
L 706.714063 12.92625 
" clip-path="url(#pd9b43c6778)" style="fill: none; stroke-dasharray: 3.7,1.6; stroke-dashoffset: 0; stroke: #808080; stroke-opacity: 0.3"/>
   </g>
   <g id="line2d_60">
    <path d="M 722.998113 202.08625 
L 722.998113 12.92625 
" clip-path="url(#pd9b43c6778)" style="fill: none; stroke-dasharray: 3.7,1.6; stroke-dashoffset: 0; stroke: #808080; stroke-opacity: 0.3"/>
   </g>
   <g id="line2d_61">
    <path d="M 739.282163 202.08625 
L 739.282163 12.92625 
" clip-path="url(#pd9b43c6778)" style="fill: none; stroke-dasharray: 3.7,1.6; stroke-dashoffset: 0; stroke: #808080; stroke-opacity: 0.3"/>
   </g>
   <g id="line2d_62">
    <path d="M 755.566212 202.08625 
L 755.566212 12.92625 
" clip-path="url(#pd9b43c6778)" style="fill: none; stroke-dasharray: 3.7,1.6; stroke-dashoffset: 0; stroke: #808080; stroke-opacity: 0.3"/>
   </g>
   <g id="line2d_63">
    <path d="M 771.850262 202.08625 
L 771.850262 12.92625 
" clip-path="url(#pd9b43c6778)" style="fill: none; stroke-dasharray: 3.7,1.6; stroke-dashoffset: 0; stroke: #808080; stroke-opacity: 0.3"/>
   </g>
   <g id="line2d_64">
    <path d="M 788.134311 202.08625 
L 788.134311 12.92625 
" clip-path="url(#pd9b43c6778)" style="fill: none; stroke-dasharray: 3.7,1.6; stroke-dashoffset: 0; stroke: #808080; stroke-opacity: 0.3"/>
   </g>
   <g id="line2d_65">
    <path d="M 804.418361 202.08625 
L 804.418361 12.92625 
" clip-path="url(#pd9b43c6778)" style="fill: none; stroke-dasharray: 3.7,1.6; stroke-dashoffset: 0; stroke: #808080; stroke-opacity: 0.3"/>
   </g>
   <g id="line2d_66">
    <path d="M 820.702411 202.08625 
L 820.702411 12.92625 
" clip-path="url(#pd9b43c6778)" style="fill: none; stroke-dasharray: 3.7,1.6; stroke-dashoffset: 0; stroke: #808080; stroke-opacity: 0.3"/>
   </g>
   <g id="line2d_67">
    <path d="M 836.98646 202.08625 
L 836.98646 12.92625 
" clip-path="url(#pd9b43c6778)" style="fill: none; stroke-dasharray: 3.7,1.6; stroke-dashoffset: 0; stroke: #808080; stroke-opacity: 0.3"/>
   </g>
   <g id="line2d_68">
    <path d="M 853.27051 202.08625 
L 853.27051 12.92625 
" clip-path="url(#pd9b43c6778)" style="fill: none; stroke-dasharray: 3.7,1.6; stroke-dashoffset: 0; stroke: #808080; stroke-opacity: 0.3"/>
   </g>
   <g id="patch_6">
    <path d="M 576.441667 202.08625 
L 576.441667 12.92625 
" style="fill: none; stroke: #000000; stroke-width: 2; stroke-linejoin: miter; stroke-linecap: square"/>
   </g>
   <g id="patch_7">
    <path d="M 576.441667 202.08625 
L 853.524948 202.08625 
" style="fill: none; stroke: #000000; stroke-width: 2; stroke-linejoin: miter; stroke-linecap: square"/>
   </g>
   <g id="text_29">
    <!-- S13 -->
    <g transform="translate(804.086409 188.65325) scale(0.2 -0.2)">
     <use xlink:href="#ArialMT-53"/>
     <use xlink:href="#ArialMT-31" x="66.699219"/>
     <use xlink:href="#ArialMT-33" x="122.314453"/>
    </g>
   </g>
  </g>
  <g id="axes_3">
   <g id="patch_8">
    <path d="M 899.62849 202.08625 
L 1176.711771 202.08625 
L 1176.711771 12.92625 
L 899.62849 12.92625 
L 899.62849 202.08625 
z
" style="fill: none"/>
   </g>
   <g id="matplotlib.axis_5">
    <g id="xtick_19">
     <g id="line2d_69">
      <g>
       <use xlink:href="#m3f67f49998" x="899.62849" y="202.08625" style="stroke: #000000; stroke-width: 0.8"/>
      </g>
     </g>
     <g id="text_30">
      <!-- 0 -->
      <g transform="translate(895.17974 220.53875) scale(0.16 -0.16)">
       <use xlink:href="#ArialMT-30"/>
      </g>
     </g>
    </g>
    <g id="xtick_20">
     <g id="line2d_70">
      <g>
       <use xlink:href="#m3f67f49998" x="932.196589" y="202.08625" style="stroke: #000000; stroke-width: 0.8"/>
      </g>
     </g>
     <g id="text_31">
      <!-- 128 -->
      <g transform="translate(918.850339 220.53875) scale(0.16 -0.16)">
       <use xlink:href="#ArialMT-31"/>
       <use xlink:href="#ArialMT-32" x="55.615234"/>
       <use xlink:href="#ArialMT-38" x="111.230469"/>
      </g>
     </g>
    </g>
    <g id="xtick_21">
     <g id="line2d_71">
      <g>
       <use xlink:href="#m3f67f49998" x="964.764688" y="202.08625" style="stroke: #000000; stroke-width: 0.8"/>
      </g>
     </g>
     <g id="text_32">
      <!-- 256 -->
      <g transform="translate(951.418438 220.53875) scale(0.16 -0.16)">
       <use xlink:href="#ArialMT-32"/>
       <use xlink:href="#ArialMT-35" x="55.615234"/>
       <use xlink:href="#ArialMT-36" x="111.230469"/>
      </g>
     </g>
    </g>
    <g id="xtick_22">
     <g id="line2d_72">
      <g>
       <use xlink:href="#m3f67f49998" x="997.332787" y="202.08625" style="stroke: #000000; stroke-width: 0.8"/>
      </g>
     </g>
     <g id="text_33">
      <!-- 384 -->
      <g transform="translate(983.986537 220.53875) scale(0.16 -0.16)">
       <use xlink:href="#ArialMT-33"/>
       <use xlink:href="#ArialMT-38" x="55.615234"/>
       <use xlink:href="#ArialMT-34" x="111.230469"/>
      </g>
     </g>
    </g>
    <g id="xtick_23">
     <g id="line2d_73">
      <g>
       <use xlink:href="#m3f67f49998" x="1029.900886" y="202.08625" style="stroke: #000000; stroke-width: 0.8"/>
      </g>
     </g>
     <g id="text_34">
      <!-- 512 -->
      <g transform="translate(1016.554636 220.53875) scale(0.16 -0.16)">
       <use xlink:href="#ArialMT-35"/>
       <use xlink:href="#ArialMT-31" x="55.615234"/>
       <use xlink:href="#ArialMT-32" x="111.230469"/>
      </g>
     </g>
    </g>
    <g id="xtick_24">
     <g id="line2d_74">
      <g>
       <use xlink:href="#m3f67f49998" x="1062.468986" y="202.08625" style="stroke: #000000; stroke-width: 0.8"/>
      </g>
     </g>
     <g id="text_35">
      <!-- 640 -->
      <g transform="translate(1049.122736 220.53875) scale(0.16 -0.16)">
       <use xlink:href="#ArialMT-36"/>
       <use xlink:href="#ArialMT-34" x="55.615234"/>
       <use xlink:href="#ArialMT-30" x="111.230469"/>
      </g>
     </g>
    </g>
    <g id="xtick_25">
     <g id="line2d_75">
      <g>
       <use xlink:href="#m3f67f49998" x="1095.037085" y="202.08625" style="stroke: #000000; stroke-width: 0.8"/>
      </g>
     </g>
     <g id="text_36">
      <!-- 768 -->
      <g transform="translate(1081.690835 220.53875) scale(0.16 -0.16)">
       <use xlink:href="#ArialMT-37"/>
       <use xlink:href="#ArialMT-36" x="55.615234"/>
       <use xlink:href="#ArialMT-38" x="111.230469"/>
      </g>
     </g>
    </g>
    <g id="xtick_26">
     <g id="line2d_76">
      <g>
       <use xlink:href="#m3f67f49998" x="1127.605184" y="202.08625" style="stroke: #000000; stroke-width: 0.8"/>
      </g>
     </g>
     <g id="text_37">
      <!-- 896 -->
      <g transform="translate(1114.258934 220.53875) scale(0.16 -0.16)">
       <use xlink:href="#ArialMT-38"/>
       <use xlink:href="#ArialMT-39" x="55.615234"/>
       <use xlink:href="#ArialMT-36" x="111.230469"/>
      </g>
     </g>
    </g>
    <g id="xtick_27">
     <g id="line2d_77">
      <g>
       <use xlink:href="#m3f67f49998" x="1160.173283" y="202.08625" style="stroke: #000000; stroke-width: 0.8"/>
      </g>
     </g>
     <g id="text_38">
      <!-- 1024 -->
      <g transform="translate(1142.378283 220.53875) scale(0.16 -0.16)">
       <use xlink:href="#ArialMT-31"/>
       <use xlink:href="#ArialMT-30" x="55.615234"/>
       <use xlink:href="#ArialMT-32" x="111.230469"/>
       <use xlink:href="#ArialMT-34" x="166.845703"/>
      </g>
     </g>
    </g>
    <g id="text_39">
     <!-- Trial -->
     <g transform="translate(1020.056302 241.318594) scale(0.19 -0.19)">
      <use xlink:href="#ArialMT-54"/>
      <use xlink:href="#ArialMT-72" x="57.333984"/>
      <use xlink:href="#ArialMT-69" x="90.634766"/>
      <use xlink:href="#ArialMT-61" x="112.851562"/>
      <use xlink:href="#ArialMT-6c" x="168.466797"/>
     </g>
    </g>
   </g>
   <g id="matplotlib.axis_6">
    <g id="ytick_13">
     <g id="line2d_78">
      <g>
       <use xlink:href="#md04bb6a73a" x="899.62849" y="202.08625" style="stroke: #000000; stroke-width: 0.8"/>
      </g>
     </g>
    </g>
    <g id="ytick_14">
     <g id="line2d_79">
      <g>
       <use xlink:href="#md04bb6a73a" x="899.62849" y="164.25425" style="stroke: #000000; stroke-width: 0.8"/>
      </g>
     </g>
    </g>
    <g id="ytick_15">
     <g id="line2d_80">
      <g>
       <use xlink:href="#md04bb6a73a" x="899.62849" y="126.42225" style="stroke: #000000; stroke-width: 0.8"/>
      </g>
     </g>
    </g>
    <g id="ytick_16">
     <g id="line2d_81">
      <g>
       <use xlink:href="#md04bb6a73a" x="899.62849" y="88.59025" style="stroke: #000000; stroke-width: 0.8"/>
      </g>
     </g>
    </g>
    <g id="ytick_17">
     <g id="line2d_82">
      <g>
       <use xlink:href="#md04bb6a73a" x="899.62849" y="50.75825" style="stroke: #000000; stroke-width: 0.8"/>
      </g>
     </g>
    </g>
    <g id="ytick_18">
     <g id="line2d_83">
      <g>
       <use xlink:href="#md04bb6a73a" x="899.62849" y="12.92625" style="stroke: #000000; stroke-width: 0.8"/>
      </g>
     </g>
    </g>
   </g>
   <g id="line2d_84">
    <path d="M 903.699502 202.08625 
L 904.717255 202.08625 
L 904.971693 190.26375 
L 905.48057 190.26375 
L 905.989446 166.61875 
L 907.516076 166.61875 
L 908.024953 142.97375 
L 908.279391 142.97375 
L 908.533829 131.15125 
L 909.551582 131.15125 
L 910.060459 154.79625 
L 911.587089 154.79625 
L 912.095965 178.44125 
L 912.350403 178.44125 
L 912.604842 190.26375 
L 912.85928 190.26375 
L 913.113718 202.08625 
L 933.214342 202.08625 
L 933.46878 190.26375 
L 937.285354 190.26375 
L 937.539793 202.08625 
L 990.208515 202.08625 
L 991.480707 142.97375 
L 991.989583 142.97375 
L 992.244022 131.15125 
L 992.752898 131.15125 
L 993.261775 107.50625 
L 995.042843 107.50625 
L 995.551719 131.15125 
L 996.823911 131.15125 
L 997.332787 154.79625 
L 998.35054 154.79625 
L 999.113855 190.26375 
L 1000.386046 190.26375 
L 1000.640485 178.44125 
L 1001.149361 178.44125 
L 1001.4038 166.61875 
L 1002.167114 166.61875 
L 1002.675991 142.97375 
L 1003.693744 142.97375 
L 1003.948182 131.15125 
L 1004.202621 131.15125 
L 1004.457059 142.97375 
L 1005.220374 142.97375 
L 1005.474812 154.79625 
L 1006.238127 154.79625 
L 1006.747003 178.44125 
L 1007.001442 178.44125 
L 1007.25588 166.61875 
L 1007.764756 166.61875 
L 1008.019195 178.44125 
L 1008.528071 178.44125 
L 1008.78251 190.26375 
L 1009.036948 178.44125 
L 1009.545824 178.44125 
L 1009.800263 166.61875 
L 1011.072454 166.61875 
L 1011.326892 178.44125 
L 1011.581331 166.61875 
L 1012.853522 166.61875 
L 1013.10796 178.44125 
L 1013.616837 178.44125 
L 1013.871275 190.26375 
L 1014.380152 190.26375 
L 1014.889028 166.61875 
L 1015.397905 166.61875 
L 1015.652343 178.44125 
L 1017.433411 178.44125 
L 1017.687849 166.61875 
L 1018.705602 166.61875 
L 1018.960041 178.44125 
L 1019.214479 166.61875 
L 1019.468917 166.61875 
L 1019.723355 154.79625 
L 1019.977794 154.79625 
L 1020.232232 142.97375 
L 1021.504423 142.97375 
L 1021.758862 154.79625 
L 1022.522176 154.79625 
L 1022.776615 166.61875 
L 1023.539929 166.61875 
L 1023.794368 178.44125 
L 1024.812121 178.44125 
L 1025.320997 154.79625 
L 1025.829874 154.79625 
L 1026.084312 142.97375 
L 1026.33875 142.97375 
L 1026.593189 131.15125 
L 1026.847627 131.15125 
L 1027.102065 119.32875 
L 1027.356504 131.15125 
L 1028.119818 131.15125 
L 1028.374257 142.97375 
L 1028.883133 142.97375 
L 1029.39201 166.61875 
L 1029.646448 166.61875 
L 1029.900886 154.79625 
L 1030.155325 166.61875 
L 1030.918639 166.61875 
L 1031.173078 178.44125 
L 1031.681954 178.44125 
L 1031.936393 166.61875 
L 1032.445269 166.61875 
L 1032.699707 154.79625 
L 1033.208584 154.79625 
L 1033.463022 142.97375 
L 1033.71746 142.97375 
L 1033.971899 154.79625 
L 1034.480775 131.15125 
L 1034.735214 142.97375 
L 1035.752967 142.97375 
L 1036.007405 154.79625 
L 1036.261843 142.97375 
L 1036.516281 142.97375 
L 1036.77072 154.79625 
L 1037.279596 154.79625 
L 1037.534035 166.61875 
L 1037.788473 154.79625 
L 1038.042911 154.79625 
L 1038.551788 178.44125 
L 1040.078417 178.44125 
L 1040.332856 190.26375 
L 1041.350609 190.26375 
L 1041.605047 178.44125 
L 1041.859485 190.26375 
L 1043.640553 190.26375 
L 1044.14943 166.61875 
L 1044.403868 166.61875 
L 1044.912745 142.97375 
L 1045.421621 142.97375 
L 1045.676059 154.79625 
L 1047.711566 154.79625 
L 1048.220442 178.44125 
L 1048.47488 178.44125 
L 1048.983757 202.08625 
L 1055.344714 202.08625 
L 1055.599152 190.26375 
L 1055.85359 190.26375 
L 1056.108029 178.44125 
L 1056.362467 178.44125 
L 1056.616905 166.61875 
L 1057.38022 166.61875 
L 1057.634658 154.79625 
L 1057.889097 154.79625 
L 1058.143535 142.97375 
L 1058.397973 142.97375 
L 1058.652411 131.15125 
L 1058.90685 131.15125 
L 1059.415726 107.50625 
L 1059.670164 119.32875 
L 1060.433479 119.32875 
L 1060.687918 131.15125 
L 1061.451232 131.15125 
L 1061.705671 142.97375 
L 1061.960109 142.97375 
L 1062.214547 154.79625 
L 1063.2323 154.79625 
L 1063.486739 166.61875 
L 1063.995615 166.61875 
L 1064.250053 178.44125 
L 1066.539998 178.44125 
L 1066.794436 190.26375 
L 1067.048874 190.26375 
L 1067.303313 202.08625 
L 1071.628763 202.08625 
L 1072.13764 178.44125 
L 1072.900955 178.44125 
L 1073.155393 166.61875 
L 1073.409831 166.61875 
L 1073.66427 154.79625 
L 1074.173146 154.79625 
L 1074.682023 131.15125 
L 1075.954214 131.15125 
L 1076.208652 142.97375 
L 1077.480844 142.97375 
L 1077.735282 154.79625 
L 1078.244159 154.79625 
L 1078.753035 178.44125 
L 1079.007473 166.61875 
L 1079.770788 166.61875 
L 1080.025226 178.44125 
L 1081.04298 178.44125 
L 1081.297418 190.26375 
L 1082.824048 190.26375 
L 1083.078486 202.08625 
L 1091.729387 202.08625 
L 1091.983825 190.26375 
L 1092.238264 190.26375 
L 1093.001579 154.79625 
L 1093.256017 154.79625 
L 1094.27377 107.50625 
L 1094.782646 107.50625 
L 1095.545961 72.03875 
L 1095.8004 72.03875 
L 1096.054838 83.86125 
L 1098.090344 83.86125 
L 1098.344782 95.68375 
L 1098.853659 72.03875 
L 1099.362535 95.68375 
L 1099.616974 95.68375 
L 1099.871412 83.86125 
L 1100.12585 83.86125 
L 1100.380288 72.03875 
L 1100.634727 83.86125 
L 1101.906918 83.86125 
L 1102.161356 95.68375 
L 1102.415795 95.68375 
L 1102.924671 119.32875 
L 1103.179109 107.50625 
L 1103.942424 107.50625 
L 1104.196863 95.68375 
L 1104.451301 95.68375 
L 1104.705739 83.86125 
L 1104.960177 95.68375 
L 1105.214616 95.68375 
L 1105.469054 83.86125 
L 1105.977931 107.50625 
L 1106.486807 107.50625 
L 1106.741245 95.68375 
L 1107.758998 95.68375 
L 1108.522313 131.15125 
L 1109.03119 131.15125 
L 1109.540066 154.79625 
L 1109.794505 154.79625 
L 1110.048943 142.97375 
L 1110.812258 142.97375 
L 1111.066696 131.15125 
L 1111.321134 142.97375 
L 1111.575573 142.97375 
L 1111.830011 154.79625 
L 1112.084449 154.79625 
L 1112.593326 131.15125 
L 1112.847764 142.97375 
L 1113.611079 142.97375 
L 1113.865517 131.15125 
L 1114.119955 142.97375 
L 1114.374394 131.15125 
L 1114.628832 131.15125 
L 1114.88327 142.97375 
L 1115.901023 142.97375 
L 1116.155462 131.15125 
L 1116.4099 131.15125 
L 1116.664338 142.97375 
L 1117.173215 119.32875 
L 1117.682091 119.32875 
L 1117.936529 131.15125 
L 1118.190968 131.15125 
L 1118.445406 142.97375 
L 1118.699844 142.97375 
L 1118.954283 131.15125 
L 1119.208721 142.97375 
L 1119.972036 142.97375 
L 1120.226474 154.79625 
L 1120.73535 154.79625 
L 1121.244227 178.44125 
L 1121.753104 154.79625 
L 1122.007542 154.79625 
L 1122.26198 142.97375 
L 1122.770857 142.97375 
L 1123.025295 154.79625 
L 1124.043048 107.50625 
L 1124.297486 107.50625 
L 1124.551925 119.32875 
L 1125.060801 119.32875 
L 1125.315239 107.50625 
L 1125.824116 107.50625 
L 1126.078554 95.68375 
L 1126.332993 95.68375 
L 1127.096307 60.21625 
L 1128.11406 60.21625 
L 1129.131814 12.92625 
L 1143.889233 12.92625 
L 1144.906987 60.21625 
L 1145.161425 60.21625 
L 1147.960246 190.26375 
L 1148.977999 190.26375 
L 1149.232437 202.08625 
L 1150.25019 202.08625 
L 1150.759067 178.44125 
L 1151.267943 178.44125 
L 1154.321203 36.57125 
L 1154.830079 36.57125 
L 1155.338956 12.92625 
L 1159.918845 12.92625 
L 1160.173283 24.74875 
L 1161.445474 24.74875 
L 1161.699913 36.57125 
L 1163.989857 36.57125 
L 1164.244295 24.74875 
L 1165.516487 24.74875 
L 1165.770925 12.92625 
L 1176.457333 12.92625 
L 1176.457333 12.92625 
" style="fill: none; stroke: #a6a6a6; stroke-width: 2; stroke-linecap: square"/>
   </g>
   <g id="line2d_85">
    <path d="M 903.699502 185.112603 
L 903.95394 182.775087 
L 904.208379 178.727605 
L 904.717255 166.215474 
L 905.48057 144.238361 
L 906.752761 111.59511 
L 908.533829 64.118718 
L 909.042706 57.169817 
L 909.297144 55.194717 
L 909.806021 44.879948 
L 911.078212 26.387541 
L 911.841527 18.597851 
L 912.604842 14.879224 
L 913.368156 13.66515 
L 914.131471 13.156736 
L 914.640348 13.03644 
L 916.421416 12.933586 
L 927.6167 12.926552 
L 1176.457333 12.92625 
L 1176.457333 12.92625 
" style="fill: none; stroke: #404040; stroke-width: 2; stroke-linecap: square"/>
   </g>
   <g id="line2d_86">
    <path d="M 915.912539 202.08625 
L 915.912539 12.92625 
" clip-path="url(#pf4f6053357)" style="fill: none; stroke-dasharray: 3.7,1.6; stroke-dashoffset: 0; stroke: #808080; stroke-opacity: 0.3"/>
   </g>
   <g id="line2d_87">
    <path d="M 932.196589 202.08625 
L 932.196589 12.92625 
" clip-path="url(#pf4f6053357)" style="fill: none; stroke-dasharray: 3.7,1.6; stroke-dashoffset: 0; stroke: #808080; stroke-opacity: 0.3"/>
   </g>
   <g id="line2d_88">
    <path d="M 948.480638 202.08625 
L 948.480638 12.92625 
" clip-path="url(#pf4f6053357)" style="fill: none; stroke-dasharray: 3.7,1.6; stroke-dashoffset: 0; stroke: #808080; stroke-opacity: 0.3"/>
   </g>
   <g id="line2d_89">
    <path d="M 964.764688 202.08625 
L 964.764688 12.92625 
" clip-path="url(#pf4f6053357)" style="fill: none; stroke-dasharray: 3.7,1.6; stroke-dashoffset: 0; stroke: #808080; stroke-opacity: 0.3"/>
   </g>
   <g id="line2d_90">
    <path d="M 981.048738 202.08625 
L 981.048738 12.92625 
" clip-path="url(#pf4f6053357)" style="fill: none; stroke-dasharray: 3.7,1.6; stroke-dashoffset: 0; stroke: #808080; stroke-opacity: 0.3"/>
   </g>
   <g id="line2d_91">
    <path d="M 997.332787 202.08625 
L 997.332787 12.92625 
" clip-path="url(#pf4f6053357)" style="fill: none; stroke-dasharray: 3.7,1.6; stroke-dashoffset: 0; stroke: #808080; stroke-opacity: 0.3"/>
   </g>
   <g id="line2d_92">
    <path d="M 1013.616837 202.08625 
L 1013.616837 12.92625 
" clip-path="url(#pf4f6053357)" style="fill: none; stroke-dasharray: 3.7,1.6; stroke-dashoffset: 0; stroke: #808080; stroke-opacity: 0.3"/>
   </g>
   <g id="line2d_93">
    <path d="M 1029.900886 202.08625 
L 1029.900886 12.92625 
" clip-path="url(#pf4f6053357)" style="fill: none; stroke-dasharray: 3.7,1.6; stroke-dashoffset: 0; stroke: #808080; stroke-opacity: 0.3"/>
   </g>
   <g id="line2d_94">
    <path d="M 1046.184936 202.08625 
L 1046.184936 12.92625 
" clip-path="url(#pf4f6053357)" style="fill: none; stroke-dasharray: 3.7,1.6; stroke-dashoffset: 0; stroke: #808080; stroke-opacity: 0.3"/>
   </g>
   <g id="line2d_95">
    <path d="M 1062.468986 202.08625 
L 1062.468986 12.92625 
" clip-path="url(#pf4f6053357)" style="fill: none; stroke-dasharray: 3.7,1.6; stroke-dashoffset: 0; stroke: #808080; stroke-opacity: 0.3"/>
   </g>
   <g id="line2d_96">
    <path d="M 1078.753035 202.08625 
L 1078.753035 12.92625 
" clip-path="url(#pf4f6053357)" style="fill: none; stroke-dasharray: 3.7,1.6; stroke-dashoffset: 0; stroke: #808080; stroke-opacity: 0.3"/>
   </g>
   <g id="line2d_97">
    <path d="M 1095.037085 202.08625 
L 1095.037085 12.92625 
" clip-path="url(#pf4f6053357)" style="fill: none; stroke-dasharray: 3.7,1.6; stroke-dashoffset: 0; stroke: #808080; stroke-opacity: 0.3"/>
   </g>
   <g id="line2d_98">
    <path d="M 1111.321134 202.08625 
L 1111.321134 12.92625 
" clip-path="url(#pf4f6053357)" style="fill: none; stroke-dasharray: 3.7,1.6; stroke-dashoffset: 0; stroke: #808080; stroke-opacity: 0.3"/>
   </g>
   <g id="line2d_99">
    <path d="M 1127.605184 202.08625 
L 1127.605184 12.92625 
" clip-path="url(#pf4f6053357)" style="fill: none; stroke-dasharray: 3.7,1.6; stroke-dashoffset: 0; stroke: #808080; stroke-opacity: 0.3"/>
   </g>
   <g id="line2d_100">
    <path d="M 1143.889233 202.08625 
L 1143.889233 12.92625 
" clip-path="url(#pf4f6053357)" style="fill: none; stroke-dasharray: 3.7,1.6; stroke-dashoffset: 0; stroke: #808080; stroke-opacity: 0.3"/>
   </g>
   <g id="line2d_101">
    <path d="M 1160.173283 202.08625 
L 1160.173283 12.92625 
" clip-path="url(#pf4f6053357)" style="fill: none; stroke-dasharray: 3.7,1.6; stroke-dashoffset: 0; stroke: #808080; stroke-opacity: 0.3"/>
   </g>
   <g id="line2d_102">
    <path d="M 1176.457333 202.08625 
L 1176.457333 12.92625 
" clip-path="url(#pf4f6053357)" style="fill: none; stroke-dasharray: 3.7,1.6; stroke-dashoffset: 0; stroke: #808080; stroke-opacity: 0.3"/>
   </g>
   <g id="patch_9">
    <path d="M 899.62849 202.08625 
L 899.62849 12.92625 
" style="fill: none; stroke: #000000; stroke-width: 2; stroke-linejoin: miter; stroke-linecap: square"/>
   </g>
   <g id="patch_10">
    <path d="M 899.62849 202.08625 
L 1176.711771 202.08625 
" style="fill: none; stroke: #000000; stroke-width: 2; stroke-linejoin: miter; stroke-linecap: square"/>
   </g>
   <g id="text_40">
    <!-- S13 -->
    <g transform="translate(1127.273232 188.65325) scale(0.2 -0.2)">
     <use xlink:href="#ArialMT-53"/>
     <use xlink:href="#ArialMT-31" x="66.699219"/>
     <use xlink:href="#ArialMT-33" x="122.314453"/>
    </g>
   </g>
  </g>
 </g>
 <defs>
  <clipPath id="p3757b71857">
   <rect x="58.270313" y="12.92625" width="472.067813" height="189.16"/>
  </clipPath>
  <clipPath id="pd9b43c6778">
   <rect x="576.441667" y="12.92625" width="277.083281" height="189.16"/>
  </clipPath>
  <clipPath id="pf4f6053357">
   <rect x="899.62849" y="12.92625" width="277.083281" height="189.16"/>
  </clipPath>
 </defs>
</svg>
