<?xml version="1.0" encoding="utf-8" standalone="no"?>
<!DOCTYPE svg PUBLIC "-//W3C//DTD SVG 1.1//EN"
  "http://www.w3.org/Graphics/SVG/1.1/DTD/svg11.dtd">
<svg xmlns:xlink="http://www.w3.org/1999/xlink" width="1184.936721pt" height="252.294844pt" viewBox="0 0 1184.936721 252.294844" xmlns="http://www.w3.org/2000/svg" version="1.1">
 <metadata>
  <rdf:RDF xmlns:dc="http://purl.org/dc/elements/1.1/" xmlns:cc="http://creativecommons.org/ns#" xmlns:rdf="http://www.w3.org/1999/02/22-rdf-syntax-ns#">
   <cc:Work>
    <dc:type rdf:resource="http://purl.org/dc/dcmitype/StillImage"/>
    <dc:date>2025-05-15T13:49:33.028842</dc:date>
    <dc:format>image/svg+xml</dc:format>
    <dc:creator>
     <cc:Agent>
      <dc:title>Matplotlib v3.8.4, https://matplotlib.org/</dc:title>
     </cc:Agent>
    </dc:creator>
   </cc:Work>
  </rdf:RDF>
 </metadata>
 <defs>
  <style type="text/css">*{stroke-linejoin: round; stroke-linecap: butt}</style>
 </defs>
 <g id="figure_1">
  <g id="patch_1">
   <path d="M 0 252.294844 
L 1184.936721 252.294844 
L 1184.936721 0 
L 0 0 
L 0 252.294844 
z
" style="fill: none"/>
  </g>
  <g id="axes_1">
   <g id="patch_2">
    <path d="M 58.03875 202.08625 
L 530.106563 202.08625 
L 530.106563 12.92625 
L 58.03875 12.92625 
L 58.03875 202.08625 
z
" style="fill: none"/>
   </g>
   <g id="matplotlib.axis_1">
    <g id="xtick_1">
     <g id="line2d_1">
      <defs>
       <path id="m7c2a0f4f67" d="M 0 0 
L 0 3.5 
" style="stroke: #000000; stroke-width: 0.8"/>
      </defs>
      <g>
       <use xlink:href="#m7c2a0f4f67" x="58.03875" y="202.08625" style="stroke: #000000; stroke-width: 0.8"/>
      </g>
     </g>
     <g id="text_1">
      <!-- 0 -->
      <g transform="translate(53.59 220.53875) scale(0.16 -0.16)">
       <defs>
        <path id="ArialMT-30" d="M 266 2259 
Q 266 3072 433 3567 
Q 600 4063 929 4331 
Q 1259 4600 1759 4600 
Q 2128 4600 2406 4451 
Q 2684 4303 2865 4023 
Q 3047 3744 3150 3342 
Q 3253 2941 3253 2259 
Q 3253 1453 3087 958 
Q 2922 463 2592 192 
Q 2263 -78 1759 -78 
Q 1097 -78 719 397 
Q 266 969 266 2259 
z
M 844 2259 
Q 844 1131 1108 757 
Q 1372 384 1759 384 
Q 2147 384 2411 759 
Q 2675 1134 2675 2259 
Q 2675 3391 2411 3762 
Q 2147 4134 1753 4134 
Q 1366 4134 1134 3806 
Q 844 3388 844 2259 
z
" transform="scale(0.015625)"/>
       </defs>
       <use xlink:href="#ArialMT-30"/>
      </g>
     </g>
    </g>
    <g id="xtick_2">
     <g id="line2d_2">
      <g>
       <use xlink:href="#m7c2a0f4f67" x="113.525141" y="202.08625" style="stroke: #000000; stroke-width: 0.8"/>
      </g>
     </g>
     <g id="text_2">
      <!-- 128 -->
      <g transform="translate(100.178891 220.53875) scale(0.16 -0.16)">
       <defs>
        <path id="ArialMT-31" d="M 2384 0 
L 1822 0 
L 1822 3584 
Q 1619 3391 1289 3197 
Q 959 3003 697 2906 
L 697 3450 
Q 1169 3672 1522 3987 
Q 1875 4303 2022 4600 
L 2384 4600 
L 2384 0 
z
" transform="scale(0.015625)"/>
        <path id="ArialMT-32" d="M 3222 541 
L 3222 0 
L 194 0 
Q 188 203 259 391 
Q 375 700 629 1000 
Q 884 1300 1366 1694 
Q 2113 2306 2375 2664 
Q 2638 3022 2638 3341 
Q 2638 3675 2398 3904 
Q 2159 4134 1775 4134 
Q 1369 4134 1125 3890 
Q 881 3647 878 3216 
L 300 3275 
Q 359 3922 746 4261 
Q 1134 4600 1788 4600 
Q 2447 4600 2831 4234 
Q 3216 3869 3216 3328 
Q 3216 3053 3103 2787 
Q 2991 2522 2730 2228 
Q 2469 1934 1863 1422 
Q 1356 997 1212 845 
Q 1069 694 975 541 
L 3222 541 
z
" transform="scale(0.015625)"/>
        <path id="ArialMT-38" d="M 1131 2484 
Q 781 2613 612 2850 
Q 444 3088 444 3419 
Q 444 3919 803 4259 
Q 1163 4600 1759 4600 
Q 2359 4600 2725 4251 
Q 3091 3903 3091 3403 
Q 3091 3084 2923 2848 
Q 2756 2613 2416 2484 
Q 2838 2347 3058 2040 
Q 3278 1734 3278 1309 
Q 3278 722 2862 322 
Q 2447 -78 1769 -78 
Q 1091 -78 675 323 
Q 259 725 259 1325 
Q 259 1772 486 2073 
Q 713 2375 1131 2484 
z
M 1019 3438 
Q 1019 3113 1228 2906 
Q 1438 2700 1772 2700 
Q 2097 2700 2305 2904 
Q 2513 3109 2513 3406 
Q 2513 3716 2298 3927 
Q 2084 4138 1766 4138 
Q 1444 4138 1231 3931 
Q 1019 3725 1019 3438 
z
M 838 1322 
Q 838 1081 952 856 
Q 1066 631 1291 507 
Q 1516 384 1775 384 
Q 2178 384 2440 643 
Q 2703 903 2703 1303 
Q 2703 1709 2433 1975 
Q 2163 2241 1756 2241 
Q 1359 2241 1098 1978 
Q 838 1716 838 1322 
z
" transform="scale(0.015625)"/>
       </defs>
       <use xlink:href="#ArialMT-31"/>
       <use xlink:href="#ArialMT-32" x="55.615234"/>
       <use xlink:href="#ArialMT-38" x="111.230469"/>
      </g>
     </g>
    </g>
    <g id="xtick_3">
     <g id="line2d_3">
      <g>
       <use xlink:href="#m7c2a0f4f67" x="169.011532" y="202.08625" style="stroke: #000000; stroke-width: 0.8"/>
      </g>
     </g>
     <g id="text_3">
      <!-- 256 -->
      <g transform="translate(155.665282 220.53875) scale(0.16 -0.16)">
       <defs>
        <path id="ArialMT-35" d="M 266 1200 
L 856 1250 
Q 922 819 1161 601 
Q 1400 384 1738 384 
Q 2144 384 2425 690 
Q 2706 997 2706 1503 
Q 2706 1984 2436 2262 
Q 2166 2541 1728 2541 
Q 1456 2541 1237 2417 
Q 1019 2294 894 2097 
L 366 2166 
L 809 4519 
L 3088 4519 
L 3088 3981 
L 1259 3981 
L 1013 2750 
Q 1425 3038 1878 3038 
Q 2478 3038 2890 2622 
Q 3303 2206 3303 1553 
Q 3303 931 2941 478 
Q 2500 -78 1738 -78 
Q 1113 -78 717 272 
Q 322 622 266 1200 
z
" transform="scale(0.015625)"/>
        <path id="ArialMT-36" d="M 3184 3459 
L 2625 3416 
Q 2550 3747 2413 3897 
Q 2184 4138 1850 4138 
Q 1581 4138 1378 3988 
Q 1113 3794 959 3422 
Q 806 3050 800 2363 
Q 1003 2672 1297 2822 
Q 1591 2972 1913 2972 
Q 2475 2972 2870 2558 
Q 3266 2144 3266 1488 
Q 3266 1056 3080 686 
Q 2894 316 2569 119 
Q 2244 -78 1831 -78 
Q 1128 -78 684 439 
Q 241 956 241 2144 
Q 241 3472 731 4075 
Q 1159 4600 1884 4600 
Q 2425 4600 2770 4297 
Q 3116 3994 3184 3459 
z
M 888 1484 
Q 888 1194 1011 928 
Q 1134 663 1356 523 
Q 1578 384 1822 384 
Q 2178 384 2434 671 
Q 2691 959 2691 1453 
Q 2691 1928 2437 2201 
Q 2184 2475 1800 2475 
Q 1419 2475 1153 2201 
Q 888 1928 888 1484 
z
" transform="scale(0.015625)"/>
       </defs>
       <use xlink:href="#ArialMT-32"/>
       <use xlink:href="#ArialMT-35" x="55.615234"/>
       <use xlink:href="#ArialMT-36" x="111.230469"/>
      </g>
     </g>
    </g>
    <g id="xtick_4">
     <g id="line2d_4">
      <g>
       <use xlink:href="#m7c2a0f4f67" x="224.497924" y="202.08625" style="stroke: #000000; stroke-width: 0.8"/>
      </g>
     </g>
     <g id="text_4">
      <!-- 384 -->
      <g transform="translate(211.151674 220.53875) scale(0.16 -0.16)">
       <defs>
        <path id="ArialMT-33" d="M 269 1209 
L 831 1284 
Q 928 806 1161 595 
Q 1394 384 1728 384 
Q 2125 384 2398 659 
Q 2672 934 2672 1341 
Q 2672 1728 2419 1979 
Q 2166 2231 1775 2231 
Q 1616 2231 1378 2169 
L 1441 2663 
Q 1497 2656 1531 2656 
Q 1891 2656 2178 2843 
Q 2466 3031 2466 3422 
Q 2466 3731 2256 3934 
Q 2047 4138 1716 4138 
Q 1388 4138 1169 3931 
Q 950 3725 888 3313 
L 325 3413 
Q 428 3978 793 4289 
Q 1159 4600 1703 4600 
Q 2078 4600 2393 4439 
Q 2709 4278 2876 4000 
Q 3044 3722 3044 3409 
Q 3044 3113 2884 2869 
Q 2725 2625 2413 2481 
Q 2819 2388 3044 2092 
Q 3269 1797 3269 1353 
Q 3269 753 2831 336 
Q 2394 -81 1725 -81 
Q 1122 -81 723 278 
Q 325 638 269 1209 
z
" transform="scale(0.015625)"/>
        <path id="ArialMT-34" d="M 2069 0 
L 2069 1097 
L 81 1097 
L 81 1613 
L 2172 4581 
L 2631 4581 
L 2631 1613 
L 3250 1613 
L 3250 1097 
L 2631 1097 
L 2631 0 
L 2069 0 
z
M 2069 1613 
L 2069 3678 
L 634 1613 
L 2069 1613 
z
" transform="scale(0.015625)"/>
       </defs>
       <use xlink:href="#ArialMT-33"/>
       <use xlink:href="#ArialMT-38" x="55.615234"/>
       <use xlink:href="#ArialMT-34" x="111.230469"/>
      </g>
     </g>
    </g>
    <g id="xtick_5">
     <g id="line2d_5">
      <g>
       <use xlink:href="#m7c2a0f4f67" x="279.984315" y="202.08625" style="stroke: #000000; stroke-width: 0.8"/>
      </g>
     </g>
     <g id="text_5">
      <!-- 512 -->
      <g transform="translate(266.638065 220.53875) scale(0.16 -0.16)">
       <use xlink:href="#ArialMT-35"/>
       <use xlink:href="#ArialMT-31" x="55.615234"/>
       <use xlink:href="#ArialMT-32" x="111.230469"/>
      </g>
     </g>
    </g>
    <g id="xtick_6">
     <g id="line2d_6">
      <g>
       <use xlink:href="#m7c2a0f4f67" x="335.470706" y="202.08625" style="stroke: #000000; stroke-width: 0.8"/>
      </g>
     </g>
     <g id="text_6">
      <!-- 640 -->
      <g transform="translate(322.124456 220.53875) scale(0.16 -0.16)">
       <use xlink:href="#ArialMT-36"/>
       <use xlink:href="#ArialMT-34" x="55.615234"/>
       <use xlink:href="#ArialMT-30" x="111.230469"/>
      </g>
     </g>
    </g>
    <g id="xtick_7">
     <g id="line2d_7">
      <g>
       <use xlink:href="#m7c2a0f4f67" x="390.957097" y="202.08625" style="stroke: #000000; stroke-width: 0.8"/>
      </g>
     </g>
     <g id="text_7">
      <!-- 768 -->
      <g transform="translate(377.610847 220.53875) scale(0.16 -0.16)">
       <defs>
        <path id="ArialMT-37" d="M 303 3981 
L 303 4522 
L 3269 4522 
L 3269 4084 
Q 2831 3619 2401 2847 
Q 1972 2075 1738 1259 
Q 1569 684 1522 0 
L 944 0 
Q 953 541 1156 1306 
Q 1359 2072 1739 2783 
Q 2119 3494 2547 3981 
L 303 3981 
z
" transform="scale(0.015625)"/>
       </defs>
       <use xlink:href="#ArialMT-37"/>
       <use xlink:href="#ArialMT-36" x="55.615234"/>
       <use xlink:href="#ArialMT-38" x="111.230469"/>
      </g>
     </g>
    </g>
    <g id="xtick_8">
     <g id="line2d_8">
      <g>
       <use xlink:href="#m7c2a0f4f67" x="446.443488" y="202.08625" style="stroke: #000000; stroke-width: 0.8"/>
      </g>
     </g>
     <g id="text_8">
      <!-- 896 -->
      <g transform="translate(433.097238 220.53875) scale(0.16 -0.16)">
       <defs>
        <path id="ArialMT-39" d="M 350 1059 
L 891 1109 
Q 959 728 1153 556 
Q 1347 384 1650 384 
Q 1909 384 2104 503 
Q 2300 622 2425 820 
Q 2550 1019 2634 1356 
Q 2719 1694 2719 2044 
Q 2719 2081 2716 2156 
Q 2547 1888 2255 1720 
Q 1963 1553 1622 1553 
Q 1053 1553 659 1965 
Q 266 2378 266 3053 
Q 266 3750 677 4175 
Q 1088 4600 1706 4600 
Q 2153 4600 2523 4359 
Q 2894 4119 3086 3673 
Q 3278 3228 3278 2384 
Q 3278 1506 3087 986 
Q 2897 466 2520 194 
Q 2144 -78 1638 -78 
Q 1100 -78 759 220 
Q 419 519 350 1059 
z
M 2653 3081 
Q 2653 3566 2395 3850 
Q 2138 4134 1775 4134 
Q 1400 4134 1122 3828 
Q 844 3522 844 3034 
Q 844 2597 1108 2323 
Q 1372 2050 1759 2050 
Q 2150 2050 2401 2323 
Q 2653 2597 2653 3081 
z
" transform="scale(0.015625)"/>
       </defs>
       <use xlink:href="#ArialMT-38"/>
       <use xlink:href="#ArialMT-39" x="55.615234"/>
       <use xlink:href="#ArialMT-36" x="111.230469"/>
      </g>
     </g>
    </g>
    <g id="xtick_9">
     <g id="line2d_9">
      <g>
       <use xlink:href="#m7c2a0f4f67" x="501.92988" y="202.08625" style="stroke: #000000; stroke-width: 0.8"/>
      </g>
     </g>
     <g id="text_9">
      <!-- 1024 -->
      <g transform="translate(484.13488 220.53875) scale(0.16 -0.16)">
       <use xlink:href="#ArialMT-31"/>
       <use xlink:href="#ArialMT-30" x="55.615234"/>
       <use xlink:href="#ArialMT-32" x="111.230469"/>
       <use xlink:href="#ArialMT-34" x="166.845703"/>
      </g>
     </g>
    </g>
    <g id="text_10">
     <!-- Trial -->
     <g transform="translate(275.958828 241.318594) scale(0.19 -0.19)">
      <defs>
       <path id="ArialMT-54" d="M 1659 0 
L 1659 4041 
L 150 4041 
L 150 4581 
L 3781 4581 
L 3781 4041 
L 2266 4041 
L 2266 0 
L 1659 0 
z
" transform="scale(0.015625)"/>
       <path id="ArialMT-72" d="M 416 0 
L 416 3319 
L 922 3319 
L 922 2816 
Q 1116 3169 1280 3281 
Q 1444 3394 1641 3394 
Q 1925 3394 2219 3213 
L 2025 2691 
Q 1819 2813 1613 2813 
Q 1428 2813 1281 2702 
Q 1134 2591 1072 2394 
Q 978 2094 978 1738 
L 978 0 
L 416 0 
z
" transform="scale(0.015625)"/>
       <path id="ArialMT-69" d="M 425 3934 
L 425 4581 
L 988 4581 
L 988 3934 
L 425 3934 
z
M 425 0 
L 425 3319 
L 988 3319 
L 988 0 
L 425 0 
z
" transform="scale(0.015625)"/>
       <path id="ArialMT-61" d="M 2588 409 
Q 2275 144 1986 34 
Q 1697 -75 1366 -75 
Q 819 -75 525 192 
Q 231 459 231 875 
Q 231 1119 342 1320 
Q 453 1522 633 1644 
Q 813 1766 1038 1828 
Q 1203 1872 1538 1913 
Q 2219 1994 2541 2106 
Q 2544 2222 2544 2253 
Q 2544 2597 2384 2738 
Q 2169 2928 1744 2928 
Q 1347 2928 1158 2789 
Q 969 2650 878 2297 
L 328 2372 
Q 403 2725 575 2942 
Q 747 3159 1072 3276 
Q 1397 3394 1825 3394 
Q 2250 3394 2515 3294 
Q 2781 3194 2906 3042 
Q 3031 2891 3081 2659 
Q 3109 2516 3109 2141 
L 3109 1391 
Q 3109 606 3145 398 
Q 3181 191 3288 0 
L 2700 0 
Q 2613 175 2588 409 
z
M 2541 1666 
Q 2234 1541 1622 1453 
Q 1275 1403 1131 1340 
Q 988 1278 909 1158 
Q 831 1038 831 891 
Q 831 666 1001 516 
Q 1172 366 1500 366 
Q 1825 366 2078 508 
Q 2331 650 2450 897 
Q 2541 1088 2541 1459 
L 2541 1666 
z
" transform="scale(0.015625)"/>
       <path id="ArialMT-6c" d="M 409 0 
L 409 4581 
L 972 4581 
L 972 0 
L 409 0 
z
" transform="scale(0.015625)"/>
      </defs>
      <use xlink:href="#ArialMT-54"/>
      <use xlink:href="#ArialMT-72" x="57.333984"/>
      <use xlink:href="#ArialMT-69" x="90.634766"/>
      <use xlink:href="#ArialMT-61" x="112.851562"/>
      <use xlink:href="#ArialMT-6c" x="168.466797"/>
     </g>
    </g>
   </g>
   <g id="matplotlib.axis_2">
    <g id="ytick_1">
     <g id="line2d_10">
      <defs>
       <path id="m3761b337f6" d="M 0 0 
L -3.5 0 
" style="stroke: #000000; stroke-width: 0.8"/>
      </defs>
      <g>
       <use xlink:href="#m3761b337f6" x="58.03875" y="202.08625" style="stroke: #000000; stroke-width: 0.8"/>
      </g>
     </g>
     <g id="text_11">
      <!-- 0.0 -->
      <g transform="translate(28.79875 207.8125) scale(0.16 -0.16)">
       <defs>
        <path id="ArialMT-2e" d="M 581 0 
L 581 641 
L 1222 641 
L 1222 0 
L 581 0 
z
" transform="scale(0.015625)"/>
       </defs>
       <use xlink:href="#ArialMT-30"/>
       <use xlink:href="#ArialMT-2e" x="55.615234"/>
       <use xlink:href="#ArialMT-30" x="83.398438"/>
      </g>
     </g>
    </g>
    <g id="ytick_2">
     <g id="line2d_11">
      <g>
       <use xlink:href="#m3761b337f6" x="58.03875" y="164.25425" style="stroke: #000000; stroke-width: 0.8"/>
      </g>
     </g>
     <g id="text_12">
      <!-- 0.2 -->
      <g transform="translate(28.79875 169.9805) scale(0.16 -0.16)">
       <use xlink:href="#ArialMT-30"/>
       <use xlink:href="#ArialMT-2e" x="55.615234"/>
       <use xlink:href="#ArialMT-32" x="83.398438"/>
      </g>
     </g>
    </g>
    <g id="ytick_3">
     <g id="line2d_12">
      <g>
       <use xlink:href="#m3761b337f6" x="58.03875" y="126.42225" style="stroke: #000000; stroke-width: 0.8"/>
      </g>
     </g>
     <g id="text_13">
      <!-- 0.4 -->
      <g transform="translate(28.79875 132.1485) scale(0.16 -0.16)">
       <use xlink:href="#ArialMT-30"/>
       <use xlink:href="#ArialMT-2e" x="55.615234"/>
       <use xlink:href="#ArialMT-34" x="83.398438"/>
      </g>
     </g>
    </g>
    <g id="ytick_4">
     <g id="line2d_13">
      <g>
       <use xlink:href="#m3761b337f6" x="58.03875" y="88.59025" style="stroke: #000000; stroke-width: 0.8"/>
      </g>
     </g>
     <g id="text_14">
      <!-- 0.6 -->
      <g transform="translate(28.79875 94.3165) scale(0.16 -0.16)">
       <use xlink:href="#ArialMT-30"/>
       <use xlink:href="#ArialMT-2e" x="55.615234"/>
       <use xlink:href="#ArialMT-36" x="83.398438"/>
      </g>
     </g>
    </g>
    <g id="ytick_5">
     <g id="line2d_14">
      <g>
       <use xlink:href="#m3761b337f6" x="58.03875" y="50.75825" style="stroke: #000000; stroke-width: 0.8"/>
      </g>
     </g>
     <g id="text_15">
      <!-- 0.8 -->
      <g transform="translate(28.79875 56.4845) scale(0.16 -0.16)">
       <use xlink:href="#ArialMT-30"/>
       <use xlink:href="#ArialMT-2e" x="55.615234"/>
       <use xlink:href="#ArialMT-38" x="83.398438"/>
      </g>
     </g>
    </g>
    <g id="ytick_6">
     <g id="line2d_15">
      <g>
       <use xlink:href="#m3761b337f6" x="58.03875" y="12.92625" style="stroke: #000000; stroke-width: 0.8"/>
      </g>
     </g>
     <g id="text_16">
      <!-- 1.0 -->
      <g transform="translate(28.79875 18.6525) scale(0.16 -0.16)">
       <use xlink:href="#ArialMT-31"/>
       <use xlink:href="#ArialMT-2e" x="55.615234"/>
       <use xlink:href="#ArialMT-30" x="83.398438"/>
      </g>
     </g>
    </g>
    <g id="text_17">
     <!-- True-hypo probability -->
     <g transform="translate(20.799844 196.381719) rotate(-90) scale(0.19 -0.19)">
      <defs>
       <path id="ArialMT-75" d="M 2597 0 
L 2597 488 
Q 2209 -75 1544 -75 
Q 1250 -75 995 37 
Q 741 150 617 320 
Q 494 491 444 738 
Q 409 903 409 1263 
L 409 3319 
L 972 3319 
L 972 1478 
Q 972 1038 1006 884 
Q 1059 663 1231 536 
Q 1403 409 1656 409 
Q 1909 409 2131 539 
Q 2353 669 2445 892 
Q 2538 1116 2538 1541 
L 2538 3319 
L 3100 3319 
L 3100 0 
L 2597 0 
z
" transform="scale(0.015625)"/>
       <path id="ArialMT-65" d="M 2694 1069 
L 3275 997 
Q 3138 488 2766 206 
Q 2394 -75 1816 -75 
Q 1088 -75 661 373 
Q 234 822 234 1631 
Q 234 2469 665 2931 
Q 1097 3394 1784 3394 
Q 2450 3394 2872 2941 
Q 3294 2488 3294 1666 
Q 3294 1616 3291 1516 
L 816 1516 
Q 847 969 1125 678 
Q 1403 388 1819 388 
Q 2128 388 2347 550 
Q 2566 713 2694 1069 
z
M 847 1978 
L 2700 1978 
Q 2663 2397 2488 2606 
Q 2219 2931 1791 2931 
Q 1403 2931 1139 2672 
Q 875 2413 847 1978 
z
" transform="scale(0.015625)"/>
       <path id="ArialMT-2d" d="M 203 1375 
L 203 1941 
L 1931 1941 
L 1931 1375 
L 203 1375 
z
" transform="scale(0.015625)"/>
       <path id="ArialMT-68" d="M 422 0 
L 422 4581 
L 984 4581 
L 984 2938 
Q 1378 3394 1978 3394 
Q 2347 3394 2619 3248 
Q 2891 3103 3008 2847 
Q 3125 2591 3125 2103 
L 3125 0 
L 2563 0 
L 2563 2103 
Q 2563 2525 2380 2717 
Q 2197 2909 1863 2909 
Q 1613 2909 1392 2779 
Q 1172 2650 1078 2428 
Q 984 2206 984 1816 
L 984 0 
L 422 0 
z
" transform="scale(0.015625)"/>
       <path id="ArialMT-79" d="M 397 -1278 
L 334 -750 
Q 519 -800 656 -800 
Q 844 -800 956 -737 
Q 1069 -675 1141 -563 
Q 1194 -478 1313 -144 
Q 1328 -97 1363 -6 
L 103 3319 
L 709 3319 
L 1400 1397 
Q 1534 1031 1641 628 
Q 1738 1016 1872 1384 
L 2581 3319 
L 3144 3319 
L 1881 -56 
Q 1678 -603 1566 -809 
Q 1416 -1088 1222 -1217 
Q 1028 -1347 759 -1347 
Q 597 -1347 397 -1278 
z
" transform="scale(0.015625)"/>
       <path id="ArialMT-70" d="M 422 -1272 
L 422 3319 
L 934 3319 
L 934 2888 
Q 1116 3141 1344 3267 
Q 1572 3394 1897 3394 
Q 2322 3394 2647 3175 
Q 2972 2956 3137 2557 
Q 3303 2159 3303 1684 
Q 3303 1175 3120 767 
Q 2938 359 2589 142 
Q 2241 -75 1856 -75 
Q 1575 -75 1351 44 
Q 1128 163 984 344 
L 984 -1272 
L 422 -1272 
z
M 931 1641 
Q 931 1000 1190 694 
Q 1450 388 1819 388 
Q 2194 388 2461 705 
Q 2728 1022 2728 1688 
Q 2728 2322 2467 2637 
Q 2206 2953 1844 2953 
Q 1484 2953 1207 2617 
Q 931 2281 931 1641 
z
" transform="scale(0.015625)"/>
       <path id="ArialMT-6f" d="M 213 1659 
Q 213 2581 725 3025 
Q 1153 3394 1769 3394 
Q 2453 3394 2887 2945 
Q 3322 2497 3322 1706 
Q 3322 1066 3130 698 
Q 2938 331 2570 128 
Q 2203 -75 1769 -75 
Q 1072 -75 642 372 
Q 213 819 213 1659 
z
M 791 1659 
Q 791 1022 1069 705 
Q 1347 388 1769 388 
Q 2188 388 2466 706 
Q 2744 1025 2744 1678 
Q 2744 2294 2464 2611 
Q 2184 2928 1769 2928 
Q 1347 2928 1069 2612 
Q 791 2297 791 1659 
z
" transform="scale(0.015625)"/>
       <path id="ArialMT-20" transform="scale(0.015625)"/>
       <path id="ArialMT-62" d="M 941 0 
L 419 0 
L 419 4581 
L 981 4581 
L 981 2947 
Q 1338 3394 1891 3394 
Q 2197 3394 2470 3270 
Q 2744 3147 2920 2923 
Q 3097 2700 3197 2384 
Q 3297 2069 3297 1709 
Q 3297 856 2875 390 
Q 2453 -75 1863 -75 
Q 1275 -75 941 416 
L 941 0 
z
M 934 1684 
Q 934 1088 1097 822 
Q 1363 388 1816 388 
Q 2184 388 2453 708 
Q 2722 1028 2722 1663 
Q 2722 2313 2464 2622 
Q 2206 2931 1841 2931 
Q 1472 2931 1203 2611 
Q 934 2291 934 1684 
z
" transform="scale(0.015625)"/>
       <path id="ArialMT-74" d="M 1650 503 
L 1731 6 
Q 1494 -44 1306 -44 
Q 1000 -44 831 53 
Q 663 150 594 308 
Q 525 466 525 972 
L 525 2881 
L 113 2881 
L 113 3319 
L 525 3319 
L 525 4141 
L 1084 4478 
L 1084 3319 
L 1650 3319 
L 1650 2881 
L 1084 2881 
L 1084 941 
Q 1084 700 1114 631 
Q 1144 563 1211 522 
Q 1278 481 1403 481 
Q 1497 481 1650 503 
z
" transform="scale(0.015625)"/>
      </defs>
      <use xlink:href="#ArialMT-54"/>
      <use xlink:href="#ArialMT-72" x="57.333984"/>
      <use xlink:href="#ArialMT-75" x="90.634766"/>
      <use xlink:href="#ArialMT-65" x="146.25"/>
      <use xlink:href="#ArialMT-2d" x="201.865234"/>
      <use xlink:href="#ArialMT-68" x="235.166016"/>
      <use xlink:href="#ArialMT-79" x="290.78125"/>
      <use xlink:href="#ArialMT-70" x="340.78125"/>
      <use xlink:href="#ArialMT-6f" x="396.396484"/>
      <use xlink:href="#ArialMT-20" x="452.011719"/>
      <use xlink:href="#ArialMT-70" x="479.794922"/>
      <use xlink:href="#ArialMT-72" x="535.410156"/>
      <use xlink:href="#ArialMT-6f" x="568.710938"/>
      <use xlink:href="#ArialMT-62" x="624.326172"/>
      <use xlink:href="#ArialMT-61" x="679.941406"/>
      <use xlink:href="#ArialMT-62" x="735.556641"/>
      <use xlink:href="#ArialMT-69" x="791.171875"/>
      <use xlink:href="#ArialMT-6c" x="813.388672"/>
      <use xlink:href="#ArialMT-69" x="835.605469"/>
      <use xlink:href="#ArialMT-74" x="857.822266"/>
      <use xlink:href="#ArialMT-79" x="885.605469"/>
     </g>
    </g>
   </g>
   <g id="line2d_16">
    <path d="M 64.974549 202.08625 
L 66.708499 202.08625 
L 67.141986 190.26375 
L 68.008961 190.26375 
L 68.875936 166.61875 
L 71.47686 166.61875 
L 72.343835 142.97375 
L 72.777323 142.97375 
L 73.21081 131.15125 
L 74.94476 131.15125 
L 75.811735 154.79625 
L 78.412659 154.79625 
L 79.279634 178.44125 
L 79.713122 178.44125 
L 80.146609 190.26375 
L 80.580096 190.26375 
L 81.013584 202.08625 
L 115.259091 202.08625 
L 115.692578 190.26375 
L 122.19489 190.26375 
L 122.628377 202.08625 
L 212.360276 202.08625 
L 214.527713 142.97375 
L 215.394688 142.97375 
L 215.828175 131.15125 
L 216.69515 131.15125 
L 217.562125 107.50625 
L 220.596537 107.50625 
L 221.463512 131.15125 
L 223.630949 131.15125 
L 224.497924 154.79625 
L 226.231873 154.79625 
L 227.532336 190.26375 
L 229.699773 190.26375 
L 230.13326 178.44125 
L 231.000235 178.44125 
L 231.433723 166.61875 
L 232.734185 166.61875 
L 233.60116 142.97375 
L 235.335109 142.97375 
L 235.768597 131.15125 
L 236.202084 131.15125 
L 236.635572 142.97375 
L 237.936034 142.97375 
L 238.369521 154.79625 
L 239.669984 154.79625 
L 240.536959 178.44125 
L 240.970446 178.44125 
L 241.403933 166.61875 
L 242.270908 166.61875 
L 242.704396 178.44125 
L 243.571371 178.44125 
L 244.004858 190.26375 
L 244.438345 178.44125 
L 245.30532 178.44125 
L 245.738808 166.61875 
L 247.906245 166.61875 
L 248.339732 178.44125 
L 248.77322 166.61875 
L 250.940657 166.61875 
L 251.374144 178.44125 
L 252.241119 178.44125 
L 252.674607 190.26375 
L 253.541581 190.26375 
L 254.408556 166.61875 
L 255.275531 166.61875 
L 255.709019 178.44125 
L 258.743431 178.44125 
L 259.176918 166.61875 
L 260.910868 166.61875 
L 261.344355 178.44125 
L 261.777843 166.61875 
L 262.21133 166.61875 
L 262.644818 154.79625 
L 263.078305 154.79625 
L 263.511792 142.97375 
L 265.67923 142.97375 
L 266.112717 154.79625 
L 267.413179 154.79625 
L 267.846667 166.61875 
L 269.147129 166.61875 
L 269.580616 178.44125 
L 271.314566 178.44125 
L 272.181541 154.79625 
L 273.048516 154.79625 
L 273.482003 142.97375 
L 273.915491 142.97375 
L 274.348978 131.15125 
L 274.782466 131.15125 
L 275.215953 119.32875 
L 275.64944 131.15125 
L 276.949903 131.15125 
L 277.38339 142.97375 
L 278.250365 142.97375 
L 279.11734 166.61875 
L 279.550827 166.61875 
L 279.984315 154.79625 
L 280.417802 166.61875 
L 281.718265 166.61875 
L 282.151752 178.44125 
L 283.018727 178.44125 
L 283.452214 166.61875 
L 284.319189 166.61875 
L 284.752677 154.79625 
L 285.619651 154.79625 
L 286.053139 142.97375 
L 286.486626 142.97375 
L 286.920114 154.79625 
L 287.787089 131.15125 
L 288.220576 142.97375 
L 289.954526 142.97375 
L 290.388013 154.79625 
L 290.821501 142.97375 
L 291.254988 142.97375 
L 291.688475 154.79625 
L 292.55545 154.79625 
L 292.988938 166.61875 
L 293.422425 154.79625 
L 293.855913 154.79625 
L 294.722887 178.44125 
L 297.323812 178.44125 
L 297.757299 190.26375 
L 299.491249 190.26375 
L 299.924737 178.44125 
L 300.358224 190.26375 
L 303.392636 190.26375 
L 304.259611 166.61875 
L 304.693098 166.61875 
L 305.560073 142.97375 
L 306.427048 142.97375 
L 306.860536 154.79625 
L 310.328435 154.79625 
L 311.19541 178.44125 
L 311.628897 178.44125 
L 312.495872 202.08625 
L 323.333058 202.08625 
L 323.766545 190.26375 
L 324.200033 190.26375 
L 324.63352 178.44125 
L 325.067008 178.44125 
L 325.500495 166.61875 
L 326.800957 166.61875 
L 327.234445 154.79625 
L 327.667932 154.79625 
L 328.10142 142.97375 
L 328.534907 142.97375 
L 328.968395 131.15125 
L 329.401882 131.15125 
L 330.268857 107.50625 
L 330.702344 119.32875 
L 332.002807 119.32875 
L 332.436294 131.15125 
L 333.736756 131.15125 
L 334.170244 142.97375 
L 334.603731 142.97375 
L 335.037219 154.79625 
L 336.771168 154.79625 
L 337.204656 166.61875 
L 338.071631 166.61875 
L 338.505118 178.44125 
L 342.406505 178.44125 
L 342.839992 190.26375 
L 343.27348 190.26375 
L 343.706967 202.08625 
L 351.076254 202.08625 
L 351.943228 178.44125 
L 353.243691 178.44125 
L 353.677178 166.61875 
L 354.110666 166.61875 
L 354.544153 154.79625 
L 355.411128 154.79625 
L 356.278103 131.15125 
L 358.44554 131.15125 
L 358.879027 142.97375 
L 361.046464 142.97375 
L 361.479952 154.79625 
L 362.346927 154.79625 
L 363.213902 178.44125 
L 363.647389 166.61875 
L 364.947851 166.61875 
L 365.381339 178.44125 
L 367.115288 178.44125 
L 367.548776 190.26375 
L 370.149701 190.26375 
L 370.583188 202.08625 
L 385.321761 202.08625 
L 385.755248 190.26375 
L 386.188735 190.26375 
L 387.489198 154.79625 
L 387.922685 154.79625 
L 389.656635 107.50625 
L 390.52361 107.50625 
L 391.824072 72.03875 
L 392.257559 72.03875 
L 392.691047 83.86125 
L 396.158946 83.86125 
L 396.592434 95.68375 
L 397.459409 72.03875 
L 398.326384 95.68375 
L 398.759871 95.68375 
L 399.193358 83.86125 
L 399.626846 83.86125 
L 400.060333 72.03875 
L 400.493821 83.86125 
L 402.661258 83.86125 
L 403.094745 95.68375 
L 403.528233 95.68375 
L 404.395208 119.32875 
L 404.828695 107.50625 
L 406.129157 107.50625 
L 406.562645 95.68375 
L 406.996132 95.68375 
L 407.42962 83.86125 
L 407.863107 95.68375 
L 408.296594 95.68375 
L 408.730082 83.86125 
L 409.597057 107.50625 
L 410.464032 107.50625 
L 410.897519 95.68375 
L 412.631469 95.68375 
L 413.931931 131.15125 
L 414.798906 131.15125 
L 415.665881 154.79625 
L 416.099368 154.79625 
L 416.532856 142.97375 
L 417.833318 142.97375 
L 418.266805 131.15125 
L 418.700293 142.97375 
L 419.13378 142.97375 
L 419.567268 154.79625 
L 420.000755 154.79625 
L 420.86773 131.15125 
L 421.301217 142.97375 
L 422.60168 142.97375 
L 423.035167 131.15125 
L 423.468655 142.97375 
L 423.902142 131.15125 
L 424.335629 131.15125 
L 424.769117 142.97375 
L 426.503067 142.97375 
L 426.936554 131.15125 
L 427.370041 131.15125 
L 427.803529 142.97375 
L 428.670504 119.32875 
L 429.537479 119.32875 
L 429.970966 131.15125 
L 430.404453 131.15125 
L 430.837941 142.97375 
L 431.271428 142.97375 
L 431.704916 131.15125 
L 432.138403 142.97375 
L 433.438865 142.97375 
L 433.872353 154.79625 
L 434.739328 154.79625 
L 435.606303 178.44125 
L 436.473277 154.79625 
L 436.906765 154.79625 
L 437.340252 142.97375 
L 438.207227 142.97375 
L 438.640715 154.79625 
L 440.374664 107.50625 
L 440.808152 107.50625 
L 441.241639 119.32875 
L 442.108614 119.32875 
L 442.542102 107.50625 
L 443.409076 107.50625 
L 443.842564 95.68375 
L 444.276051 95.68375 
L 445.576514 60.21625 
L 447.310463 60.21625 
L 449.044413 12.92625 
L 474.186684 12.92625 
L 475.920634 60.21625 
L 476.354121 60.21625 
L 481.122483 190.26375 
L 482.856433 190.26375 
L 483.28992 202.08625 
L 485.02387 202.08625 
L 485.890845 178.44125 
L 486.75782 178.44125 
L 491.959669 36.57125 
L 492.826644 36.57125 
L 493.693618 12.92625 
L 501.496392 12.92625 
L 501.92988 24.74875 
L 504.097317 24.74875 
L 504.530804 36.57125 
L 508.432191 36.57125 
L 508.865679 24.74875 
L 511.033116 24.74875 
L 511.466603 12.92625 
L 529.673075 12.92625 
L 529.673075 12.92625 
" style="fill: none; stroke: #a6a6a6; stroke-width: 2; stroke-linecap: square"/>
   </g>
   <g id="line2d_17">
    <path d="M 64.974549 199.451907 
L 65.408036 199.411965 
L 66.275011 199.106102 
L 68.442448 199.011019 
L 69.309423 198.523412 
L 70.176398 198.213106 
L 70.609886 197.964633 
L 71.47686 197.712075 
L 71.910348 197.439692 
L 72.343835 196.990961 
L 73.21081 196.883824 
L 73.644298 196.517247 
L 74.077785 195.838304 
L 74.511272 195.906516 
L 74.94476 195.466101 
L 75.811735 195.259952 
L 76.245222 195.130594 
L 77.545684 193.707521 
L 77.979172 192.580194 
L 78.412659 192.079099 
L 78.846147 192.009701 
L 79.279634 191.734036 
L 80.146609 191.545398 
L 80.580096 191.656684 
L 81.013584 192.025448 
L 81.447071 191.571462 
L 82.747534 191.907955 
L 83.181021 192.093414 
L 84.047996 192.967765 
L 84.914971 194.480127 
L 85.781946 194.547954 
L 86.215433 195.007859 
L 86.64892 194.930991 
L 87.082408 194.445196 
L 87.515895 194.410275 
L 87.949383 194.051556 
L 88.816358 193.894954 
L 89.249845 193.47929 
L 89.683332 193.262895 
L 90.983795 193.388013 
L 91.85077 193.466813 
L 92.284257 193.947266 
L 92.717745 194.236281 
L 93.151232 194.224577 
L 93.584719 194.489988 
L 94.018207 195.235437 
L 94.885182 196.367414 
L 95.318669 197.036188 
L 95.752157 197.424948 
L 96.185644 198.013175 
L 96.619131 198.161224 
L 97.486106 197.97585 
L 98.353081 197.937414 
L 98.786569 198.170899 
L 99.220056 197.828569 
L 99.653543 197.255893 
L 101.387493 196.643641 
L 101.820981 196.256522 
L 102.687955 195.831209 
L 103.55493 195.817639 
L 103.988418 195.468078 
L 104.421905 195.406054 
L 105.28888 194.733431 
L 105.722367 194.563628 
L 106.155855 194.858068 
L 107.02283 195.727931 
L 107.456317 195.914328 
L 108.323292 195.44614 
L 108.756779 195.590251 
L 109.190267 195.234609 
L 109.623754 195.446108 
L 110.490729 195.648129 
L 110.924217 196.086317 
L 111.357704 196.191488 
L 112.224679 196.811984 
L 112.658166 196.905078 
L 113.958629 196.711456 
L 114.392116 196.334572 
L 114.825603 196.347702 
L 115.259091 196.004774 
L 115.692578 195.210413 
L 116.126066 195.176548 
L 117.426528 191.719463 
L 117.860016 191.151626 
L 118.72699 189.07545 
L 119.160478 187.538672 
L 119.593965 186.869763 
L 120.027453 186.526004 
L 120.894428 186.820997 
L 122.19489 188.241883 
L 122.628377 188.99081 
L 123.061865 188.951095 
L 123.495352 189.039334 
L 123.92884 189.600856 
L 124.362327 190.451215 
L 124.795814 190.932283 
L 125.662789 192.782066 
L 126.096277 194.157896 
L 126.963252 194.232971 
L 127.396739 193.968491 
L 127.830226 193.847805 
L 128.263714 193.381987 
L 128.697201 192.437937 
L 129.130689 191.21883 
L 129.564176 190.719156 
L 129.997664 190.900919 
L 130.431151 191.276505 
L 130.864638 191.349636 
L 131.298126 191.003099 
L 131.731613 190.811201 
L 132.165101 189.964657 
L 132.598588 189.816484 
L 133.032076 189.90959 
L 133.465563 190.495244 
L 133.89905 190.786998 
L 134.332538 190.427611 
L 135.199513 190.742757 
L 135.633 191.359705 
L 136.066488 192.351394 
L 136.499975 192.897485 
L 137.800437 193.002598 
L 139.1009 192.763711 
L 139.534387 192.796777 
L 140.401362 192.536876 
L 140.834849 192.457845 
L 141.268337 192.695145 
L 141.701824 191.685581 
L 142.135312 191.28919 
L 142.568799 191.207571 
L 143.002287 190.687522 
L 143.435774 190.452828 
L 143.869261 190.500724 
L 144.302749 190.926674 
L 144.736236 190.991516 
L 145.169724 190.783001 
L 145.603211 190.701358 
L 146.036699 191.257387 
L 146.470186 191.405654 
L 146.903673 190.912308 
L 147.337161 190.139021 
L 148.204136 187.792448 
L 148.637623 187.931224 
L 149.071111 187.109282 
L 149.504598 186.699869 
L 149.938085 186.571248 
L 150.80506 186.027591 
L 151.238548 185.828507 
L 151.672035 185.916164 
L 152.105523 186.447704 
L 152.53901 186.727403 
L 152.972497 186.236637 
L 153.405985 185.969483 
L 153.839472 186.338499 
L 154.27296 186.995583 
L 154.706447 188.104437 
L 155.139935 188.747477 
L 155.573422 188.577205 
L 156.006909 189.297755 
L 156.440397 189.586914 
L 157.740859 190.954608 
L 158.174347 191.247514 
L 158.607834 190.99037 
L 159.908296 191.163109 
L 160.341784 190.601628 
L 160.775271 190.585266 
L 161.208759 190.726191 
L 161.642246 190.305742 
L 162.075734 190.553613 
L 162.509221 190.414335 
L 162.942708 189.819161 
L 163.809683 189.379624 
L 164.243171 189.259467 
L 165.110146 188.842203 
L 165.543633 189.201316 
L 166.844095 189.279003 
L 167.277583 189.894574 
L 167.71107 189.936076 
L 168.144558 189.000158 
L 168.578045 188.982506 
L 169.011532 188.243341 
L 169.44502 187.847459 
L 169.878507 188.956306 
L 170.311995 189.530643 
L 171.17897 189.708747 
L 172.479432 189.514132 
L 172.912919 188.785367 
L 173.779894 187.976889 
L 174.213382 187.767913 
L 174.646869 187.227653 
L 175.080356 187.436366 
L 175.513844 187.475514 
L 175.947331 188.094681 
L 176.380819 188.29291 
L 176.814306 187.675269 
L 178.548256 186.180513 
L 179.415231 184.042375 
L 180.282206 183.958987 
L 180.715693 184.523231 
L 181.14918 184.82265 
L 181.582668 185.395285 
L 182.016155 185.287401 
L 182.449643 184.745395 
L 182.88313 184.579211 
L 183.316618 185.288857 
L 183.750105 185.450931 
L 184.183592 184.749604 
L 184.61708 184.66201 
L 185.484055 185.010049 
L 186.35103 186.899664 
L 186.784517 187.47297 
L 187.651492 188.038146 
L 188.518467 188.250767 
L 189.818929 190.359023 
L 190.685904 190.940801 
L 191.119391 191.55774 
L 191.552879 190.847766 
L 193.286829 189.822777 
L 194.153803 189.810939 
L 194.587291 189.597533 
L 195.020778 188.795949 
L 195.887753 188.06818 
L 197.188215 185.007775 
L 197.621703 185.289555 
L 198.05519 185.815791 
L 198.488678 187.267115 
L 199.355653 188.924994 
L 199.78914 189.375815 
L 201.089602 189.296447 
L 202.390065 189.533592 
L 202.823552 189.475072 
L 203.257039 189.544278 
L 204.124014 189.152323 
L 204.557502 188.364795 
L 205.424477 187.500037 
L 206.724939 187.270562 
L 207.158426 186.99764 
L 208.025401 185.309679 
L 208.458889 184.866205 
L 208.892376 185.193693 
L 209.325864 185.321948 
L 209.759351 184.822279 
L 210.192838 185.325195 
L 210.626326 186.507846 
L 211.059813 187.008823 
L 211.493301 187.290679 
L 211.926788 187.381199 
L 212.360276 186.685994 
L 213.22725 183.853765 
L 213.660738 183.063387 
L 214.094225 183.148542 
L 214.527713 183.989364 
L 214.9612 184.2302 
L 215.394688 183.37553 
L 215.828175 182.932268 
L 216.261662 181.808833 
L 216.69515 181.817303 
L 217.128637 180.850663 
L 217.562125 179.034579 
L 217.995612 178.175807 
L 218.4291 177.580196 
L 219.296074 175.689571 
L 219.729562 174.859948 
L 220.163049 174.765378 
L 220.596537 175.395133 
L 221.030024 175.707971 
L 221.463512 175.798428 
L 221.896999 176.114961 
L 222.330486 177.208342 
L 223.197461 176.531827 
L 223.630949 175.268018 
L 224.064436 174.764474 
L 224.497924 175.762444 
L 224.931411 175.115512 
L 225.798386 174.476036 
L 226.665361 176.083693 
L 227.098848 175.735035 
L 227.532336 173.935136 
L 227.965823 172.819412 
L 228.39931 172.20895 
L 228.832798 171.094939 
L 229.699773 170.9128 
L 230.566748 171.135812 
L 231.000235 170.882223 
L 231.433723 168.985029 
L 231.86721 169.211553 
L 232.734185 168.197127 
L 233.60116 166.35146 
L 234.901622 167.383403 
L 235.335109 167.270279 
L 235.768597 168.110558 
L 236.202084 168.072156 
L 236.635572 168.410558 
L 237.069059 168.407455 
L 237.502547 169.237584 
L 237.936034 170.809743 
L 238.369521 173.374752 
L 239.669984 177.05723 
L 240.103471 177.751308 
L 240.536959 177.682447 
L 240.970446 177.750805 
L 241.403933 177.229458 
L 241.837421 175.970122 
L 242.270908 174.035952 
L 242.704396 172.755778 
L 243.137883 172.428159 
L 243.571371 173.483529 
L 244.004858 175.194457 
L 244.438345 175.88404 
L 245.30532 176.452025 
L 245.738808 175.506433 
L 246.172295 174.959537 
L 247.03927 173.330008 
L 247.472757 173.335199 
L 247.906245 173.181121 
L 248.77322 177.061648 
L 249.206707 178.771188 
L 249.640195 178.838459 
L 250.073682 177.167873 
L 250.507169 176.220289 
L 250.940657 174.539122 
L 251.374144 173.968142 
L 251.807632 173.042707 
L 252.241119 171.433554 
L 252.674607 171.337816 
L 253.108094 170.273662 
L 253.541581 170.754382 
L 253.975069 170.885509 
L 254.408556 170.443896 
L 254.842044 170.168631 
L 255.275531 167.51424 
L 255.709019 166.507241 
L 256.142506 166.550319 
L 256.575994 165.954723 
L 257.009481 165.721109 
L 257.442968 162.896391 
L 257.876456 162.285067 
L 258.309943 162.022292 
L 258.743431 161.319614 
L 259.176918 160.900509 
L 259.610406 160.706592 
L 260.043893 161.46185 
L 260.47738 160.809648 
L 260.910868 161.990383 
L 261.344355 164.025782 
L 261.777843 163.71967 
L 262.21133 164.917808 
L 262.644818 165.485309 
L 263.078305 164.431655 
L 263.511792 165.31071 
L 263.94528 166.939855 
L 264.378767 169.759869 
L 264.812255 170.070913 
L 265.245742 168.955967 
L 265.67923 169.279158 
L 266.546204 171.461896 
L 266.979692 172.108137 
L 267.413179 172.432914 
L 267.846667 170.460744 
L 268.280154 169.214936 
L 268.713642 170.051026 
L 269.147129 170.46586 
L 269.580616 169.819958 
L 270.014104 170.163338 
L 270.881079 170.41477 
L 271.314566 170.390472 
L 271.748054 169.983709 
L 272.181541 170.862217 
L 272.615028 171.409357 
L 273.048516 170.24664 
L 273.482003 167.852363 
L 273.915491 167.470443 
L 274.348978 167.28609 
L 274.782466 167.873675 
L 275.215953 168.270875 
L 275.64944 169.020704 
L 276.082928 169.434189 
L 276.949903 171.715597 
L 277.38339 172.325404 
L 277.816878 171.610404 
L 278.250365 171.235367 
L 278.683853 173.188863 
L 279.11734 174.204197 
L 279.550827 173.838572 
L 279.984315 174.929996 
L 280.417802 175.545147 
L 280.85129 174.736813 
L 281.284777 176.398235 
L 281.718265 177.40372 
L 282.151752 177.292793 
L 282.585239 176.43446 
L 283.018727 174.735168 
L 283.452214 171.998717 
L 283.885702 171.433805 
L 284.319189 170.043323 
L 284.752677 169.229466 
L 285.186164 167.895838 
L 285.619651 165.185438 
L 286.053139 161.416336 
L 286.486626 160.203623 
L 286.920114 159.632329 
L 287.353601 159.500588 
L 287.787089 158.467129 
L 288.220576 156.631638 
L 289.087551 155.887655 
L 289.954526 155.619942 
L 290.388013 157.454123 
L 291.254988 154.733554 
L 291.688475 153.367753 
L 292.55545 152.504438 
L 293.422425 155.882664 
L 293.855913 155.463221 
L 294.2894 156.310179 
L 294.722887 157.827185 
L 295.156375 157.204403 
L 295.589862 155.30601 
L 296.02335 154.803523 
L 296.890325 151.377 
L 297.323812 148.757053 
L 297.757299 148.939654 
L 298.624274 154.033988 
L 299.057762 155.683425 
L 299.491249 158.579674 
L 299.924737 159.536102 
L 300.358224 158.326832 
L 300.791712 158.538311 
L 301.658686 157.071751 
L 302.092174 157.184074 
L 302.959149 157.758802 
L 303.392636 157.61562 
L 303.826124 158.207889 
L 304.259611 157.819809 
L 304.693098 157.207473 
L 305.560073 150.924076 
L 305.993561 149.348156 
L 306.427048 146.35375 
L 306.860536 145.179423 
L 307.294023 145.370751 
L 307.72751 144.239849 
L 308.160998 144.469465 
L 309.027973 147.997448 
L 309.46146 149.919903 
L 309.894948 149.543701 
L 310.328435 150.830397 
L 310.761922 150.938457 
L 311.19541 152.938092 
L 311.628897 154.255306 
L 312.062385 155.012167 
L 312.495872 157.003047 
L 312.92936 157.99753 
L 313.362847 159.989914 
L 313.796334 159.902306 
L 314.229822 161.791092 
L 315.096797 166.819325 
L 315.963772 167.213755 
L 316.397259 167.138115 
L 316.830746 167.191919 
L 317.264234 165.935672 
L 317.697721 166.03237 
L 318.131209 165.294194 
L 318.564696 165.668758 
L 318.998184 167.451372 
L 319.431671 167.139109 
L 319.865158 167.19349 
L 320.298646 168.036374 
L 320.732133 169.99596 
L 321.599108 168.376065 
L 322.466083 165.818716 
L 322.89957 164.91757 
L 323.766545 162.197983 
L 324.200033 162.764913 
L 324.63352 162.677274 
L 325.067008 161.35471 
L 326.36747 159.488294 
L 326.800957 158.512169 
L 327.234445 155.315634 
L 327.667932 153.244001 
L 328.10142 152.035292 
L 328.534907 151.544957 
L 329.835369 144.613649 
L 330.268857 144.465429 
L 330.702344 144.121048 
L 331.135832 142.105436 
L 331.569319 143.38452 
L 332.002807 143.948288 
L 332.436294 141.538568 
L 332.869781 140.192644 
L 333.736756 141.829979 
L 334.170244 144.061925 
L 334.603731 145.391339 
L 335.037219 146.238902 
L 335.470706 146.44594 
L 338.071631 161.703339 
L 338.505118 160.601982 
L 339.372093 163.53898 
L 339.80558 163.853931 
L 340.672555 163.787671 
L 341.106043 163.460617 
L 341.53953 161.700457 
L 341.973017 160.438764 
L 342.406505 159.527132 
L 342.839992 157.154 
L 343.27348 154.08063 
L 344.140455 150.110731 
L 344.573942 148.931183 
L 345.007429 148.149354 
L 345.440917 150.81342 
L 347.174867 156.938008 
L 347.608354 157.530355 
L 348.041842 157.891663 
L 348.475329 159.658573 
L 348.908816 160.661548 
L 349.342304 161.363479 
L 350.209279 164.09443 
L 351.076254 165.082411 
L 351.509741 164.096785 
L 351.943228 164.031152 
L 352.376716 160.243153 
L 352.810203 157.634283 
L 353.243691 156.047254 
L 353.677178 155.395641 
L 354.110666 153.22556 
L 354.544153 152.003108 
L 354.97764 151.359839 
L 355.411128 150.936206 
L 355.844615 149.295402 
L 357.145078 140.011946 
L 357.578565 138.600795 
L 358.012052 136.297917 
L 358.44554 134.650157 
L 358.879027 131.939634 
L 359.312515 131.698385 
L 359.746002 131.75504 
L 360.17949 131.667576 
L 360.612977 131.063231 
L 361.046464 132.373944 
L 361.479952 132.897329 
L 361.913439 131.642623 
L 362.346927 129.623881 
L 362.780414 128.816222 
L 363.213902 130.14229 
L 363.647389 132.717368 
L 364.080876 134.426984 
L 364.514364 135.148232 
L 365.381339 135.254822 
L 365.814826 136.523009 
L 366.248314 137.391392 
L 366.681801 137.834239 
L 367.115288 137.845888 
L 367.982263 135.978777 
L 368.415751 135.277735 
L 368.849238 136.41144 
L 369.282726 137.081478 
L 369.716213 138.483301 
L 370.149701 139.251309 
L 370.583188 139.777994 
L 371.016675 140.84214 
L 371.450163 141.45741 
L 372.750625 147.891989 
L 373.184113 149.007202 
L 373.6176 147.349295 
L 374.051087 146.305018 
L 374.484575 144.937396 
L 375.35155 139.838077 
L 375.785037 138.009616 
L 376.652012 138.396853 
L 377.518987 135.807949 
L 377.952474 134.701062 
L 379.252937 128.830712 
L 379.686424 128.815882 
L 380.119911 126.957895 
L 380.553399 127.487222 
L 380.986886 127.813237 
L 381.420374 128.287631 
L 381.853861 128.980842 
L 382.720836 131.917581 
L 383.154323 132.49198 
L 384.021298 134.161513 
L 384.454786 134.655489 
L 384.888273 134.70385 
L 385.321761 135.497481 
L 386.188735 135.839969 
L 386.622223 135.981469 
L 387.489198 139.222682 
L 388.356173 141.126111 
L 388.78966 141.484011 
L 389.223147 140.738182 
L 389.656635 138.437843 
L 390.957097 134.387424 
L 391.390585 132.160915 
L 392.691047 132.135226 
L 393.124534 131.185519 
L 393.558022 128.941443 
L 393.991509 125.870638 
L 394.858484 121.82087 
L 395.291972 121.483994 
L 395.725459 123.154462 
L 396.158946 122.654331 
L 396.592434 121.430679 
L 397.892896 115.217061 
L 398.326384 115.476357 
L 398.759871 113.846001 
L 399.193358 111.763311 
L 399.626846 111.803088 
L 400.060333 112.469382 
L 400.493821 112.195768 
L 400.927308 112.449362 
L 401.360796 110.136411 
L 401.794283 108.784368 
L 402.22777 108.291277 
L 402.661258 105.673939 
L 403.528233 104.64505 
L 403.96172 105.466153 
L 404.395208 105.412725 
L 404.828695 106.427342 
L 405.262182 107.154533 
L 405.69567 112.112968 
L 406.129157 115.376187 
L 406.562645 116.009011 
L 406.996132 115.025743 
L 407.42962 115.27513 
L 407.863107 115.880857 
L 408.296594 116.947513 
L 408.730082 117.132147 
L 409.163569 116.278621 
L 409.597057 116.305235 
L 410.030544 115.922632 
L 410.464032 116.489954 
L 410.897519 116.000074 
L 411.331006 116.683584 
L 411.764494 114.879198 
L 412.197981 113.879248 
L 412.631469 112.122599 
L 413.498444 111.797992 
L 413.931931 112.733681 
L 414.798906 115.323563 
L 415.232393 116.374702 
L 416.099368 117.238956 
L 416.532856 116.924874 
L 416.966343 117.207355 
L 417.399831 118.990973 
L 417.833318 118.740788 
L 418.266805 117.545205 
L 418.700293 117.545706 
L 419.13378 117.784412 
L 419.567268 116.009054 
L 420.434243 110.980251 
L 420.86773 108.617778 
L 421.301217 108.787038 
L 422.168192 107.620579 
L 422.60168 107.753924 
L 423.035167 106.819806 
L 423.902142 107.193758 
L 424.335629 105.483931 
L 424.769117 105.448964 
L 425.202604 104.983659 
L 425.636092 104.080215 
L 426.503067 101.943802 
L 426.936554 103.00298 
L 427.370041 103.147324 
L 427.803529 102.899834 
L 428.237016 101.988634 
L 428.670504 100.564384 
L 429.103991 100.409605 
L 429.537479 98.448925 
L 429.970966 98.59208 
L 430.404453 97.34074 
L 430.837941 97.182695 
L 431.271428 98.322252 
L 431.704916 98.156672 
L 432.138403 101.128614 
L 432.571891 102.566646 
L 433.005378 104.666595 
L 433.438865 105.628524 
L 433.872353 104.230872 
L 434.739328 101.992966 
L 436.03979 97.178095 
L 436.473277 97.25705 
L 436.906765 100.508311 
L 437.340252 102.509305 
L 437.77374 103.856034 
L 438.207227 104.6107 
L 438.640715 106.658738 
L 439.074202 105.696034 
L 439.50769 105.465659 
L 440.374664 101.769094 
L 440.808152 102.572974 
L 441.675127 104.683108 
L 442.108614 104.767586 
L 442.542102 105.211953 
L 442.975589 104.864171 
L 443.409076 103.187377 
L 443.842564 97.38942 
L 444.709539 90.033998 
L 445.143026 89.770229 
L 445.576514 90.961701 
L 446.010001 90.23613 
L 446.443488 90.089275 
L 446.876976 90.849108 
L 447.310463 90.926141 
L 447.743951 89.703294 
L 448.177438 89.202095 
L 448.610926 89.136388 
L 449.044413 88.943143 
L 449.4779 89.102774 
L 449.911388 89.586065 
L 450.344875 91.103764 
L 450.778363 91.727786 
L 451.21185 91.52546 
L 451.645338 91.606224 
L 452.078825 88.50495 
L 452.512312 83.573495 
L 453.379287 79.301364 
L 453.812775 80.095497 
L 454.67975 82.380793 
L 455.113237 82.880447 
L 455.546724 82.638418 
L 455.980212 81.906862 
L 456.413699 80.909658 
L 456.847187 78.94575 
L 457.280674 79.3968 
L 457.714162 80.188925 
L 458.147649 81.743916 
L 458.581136 82.558798 
L 459.014624 85.634541 
L 459.448111 86.578681 
L 459.881599 86.509658 
L 460.315086 87.144573 
L 461.182061 78.593391 
L 462.049036 73.387935 
L 462.482523 72.259242 
L 462.916011 71.740053 
L 463.349498 71.653876 
L 463.782986 72.243887 
L 464.216473 73.239937 
L 464.649961 72.230309 
L 465.516935 69.682565 
L 465.950423 65.653097 
L 466.38391 64.002163 
L 467.250885 62.267784 
L 468.551347 62.352529 
L 468.984835 62.595046 
L 469.418322 62.415971 
L 469.85181 61.829998 
L 470.285297 61.808356 
L 470.718785 61.4953 
L 471.152272 60.084673 
L 471.585759 60.408876 
L 472.019247 60.894646 
L 472.886222 64.281992 
L 473.319709 64.756906 
L 474.186684 66.557259 
L 475.487146 71.834162 
L 475.920634 74.885109 
L 476.354121 76.712389 
L 476.787609 77.776213 
L 477.221096 79.26272 
L 477.654583 82.354685 
L 478.088071 84.131041 
L 478.955046 90.22347 
L 479.822021 93.99986 
L 480.688995 100.086505 
L 481.55597 103.20012 
L 481.989458 104.505574 
L 482.422945 104.299645 
L 482.856433 103.342741 
L 483.28992 103.882804 
L 483.723407 105.587079 
L 484.156895 106.809194 
L 484.590382 107.345026 
L 485.02387 106.325876 
L 485.890845 101.474074 
L 487.191307 95.941238 
L 487.624794 93.659086 
L 488.058282 92.417904 
L 488.491769 90.2239 
L 489.358744 87.25871 
L 490.659206 80.734894 
L 491.959669 72.132039 
L 492.393156 71.337952 
L 492.826644 70.050701 
L 493.693618 66.264564 
L 494.127106 64.209207 
L 494.560593 62.928952 
L 494.994081 61.250501 
L 495.427568 60.217289 
L 495.861056 58.294606 
L 496.294543 57.625288 
L 496.72803 57.336648 
L 497.161518 56.855105 
L 497.595005 55.689368 
L 498.028493 55.708827 
L 498.46198 55.896708 
L 498.895468 55.347161 
L 499.328955 53.234852 
L 500.19593 51.390791 
L 500.629417 50.955172 
L 501.496392 51.759853 
L 501.92988 52.985987 
L 502.363367 53.569341 
L 502.796854 53.731083 
L 503.230342 53.577074 
L 503.663829 52.994433 
L 504.097317 51.269478 
L 504.530804 50.908836 
L 504.964292 50.09944 
L 505.397779 48.995303 
L 505.831266 48.567698 
L 506.264754 48.545698 
L 506.698241 48.259558 
L 507.131729 47.518194 
L 507.565216 48.032817 
L 507.998704 48.934023 
L 508.432191 48.693466 
L 508.865679 47.21116 
L 509.299166 46.724773 
L 510.166141 47.504181 
L 510.599628 48.563314 
L 511.466603 52.022194 
L 511.900091 53.001113 
L 512.333578 52.839323 
L 512.767065 52.34732 
L 513.200553 52.48553 
L 513.63404 53.103377 
L 514.067528 54.293661 
L 514.501015 53.784322 
L 514.934503 52.632266 
L 515.36799 52.444417 
L 515.801477 53.041117 
L 516.234965 52.992178 
L 516.668452 52.803334 
L 517.535427 51.20727 
L 518.835889 48.137782 
L 519.269377 47.849051 
L 519.702864 47.425069 
L 520.136352 47.671536 
L 520.569839 47.481512 
L 521.003327 50.995758 
L 521.436814 52.31161 
L 521.870301 52.94493 
L 522.303789 53.804241 
L 522.737276 54.180166 
L 523.170764 54.041931 
L 523.604251 53.370491 
L 524.037739 53.225042 
L 524.471226 53.235817 
L 524.904713 53.761018 
L 525.338201 53.841182 
L 526.205176 61.019592 
L 526.638663 64.11458 
L 527.505638 67.785052 
L 527.939125 65.649615 
L 528.372613 65.174066 
L 528.8061 64.867901 
L 529.239588 64.12477 
L 529.673075 64.04479 
L 529.673075 64.04479 
" style="fill: none; stroke: #ffc000; stroke-width: 2; stroke-linecap: square"/>
   </g>
   <g id="line2d_18">
    <path d="M 85.781946 202.08625 
L 85.781946 12.92625 
" clip-path="url(#pfb3dd77548)" style="fill: none; stroke-dasharray: 3.7,1.6; stroke-dashoffset: 0; stroke: #808080; stroke-opacity: 0.3"/>
   </g>
   <g id="line2d_19">
    <path d="M 113.525141 202.08625 
L 113.525141 12.92625 
" clip-path="url(#pfb3dd77548)" style="fill: none; stroke-dasharray: 3.7,1.6; stroke-dashoffset: 0; stroke: #808080; stroke-opacity: 0.3"/>
   </g>
   <g id="line2d_20">
    <path d="M 141.268337 202.08625 
L 141.268337 12.92625 
" clip-path="url(#pfb3dd77548)" style="fill: none; stroke-dasharray: 3.7,1.6; stroke-dashoffset: 0; stroke: #808080; stroke-opacity: 0.3"/>
   </g>
   <g id="line2d_21">
    <path d="M 169.011532 202.08625 
L 169.011532 12.92625 
" clip-path="url(#pfb3dd77548)" style="fill: none; stroke-dasharray: 3.7,1.6; stroke-dashoffset: 0; stroke: #808080; stroke-opacity: 0.3"/>
   </g>
   <g id="line2d_22">
    <path d="M 196.754728 202.08625 
L 196.754728 12.92625 
" clip-path="url(#pfb3dd77548)" style="fill: none; stroke-dasharray: 3.7,1.6; stroke-dashoffset: 0; stroke: #808080; stroke-opacity: 0.3"/>
   </g>
   <g id="line2d_23">
    <path d="M 224.497924 202.08625 
L 224.497924 12.92625 
" clip-path="url(#pfb3dd77548)" style="fill: none; stroke-dasharray: 3.7,1.6; stroke-dashoffset: 0; stroke: #808080; stroke-opacity: 0.3"/>
   </g>
   <g id="line2d_24">
    <path d="M 252.241119 202.08625 
L 252.241119 12.92625 
" clip-path="url(#pfb3dd77548)" style="fill: none; stroke-dasharray: 3.7,1.6; stroke-dashoffset: 0; stroke: #808080; stroke-opacity: 0.3"/>
   </g>
   <g id="line2d_25">
    <path d="M 279.984315 202.08625 
L 279.984315 12.92625 
" clip-path="url(#pfb3dd77548)" style="fill: none; stroke-dasharray: 3.7,1.6; stroke-dashoffset: 0; stroke: #808080; stroke-opacity: 0.3"/>
   </g>
   <g id="line2d_26">
    <path d="M 307.72751 202.08625 
L 307.72751 12.92625 
" clip-path="url(#pfb3dd77548)" style="fill: none; stroke-dasharray: 3.7,1.6; stroke-dashoffset: 0; stroke: #808080; stroke-opacity: 0.3"/>
   </g>
   <g id="line2d_27">
    <path d="M 335.470706 202.08625 
L 335.470706 12.92625 
" clip-path="url(#pfb3dd77548)" style="fill: none; stroke-dasharray: 3.7,1.6; stroke-dashoffset: 0; stroke: #808080; stroke-opacity: 0.3"/>
   </g>
   <g id="line2d_28">
    <path d="M 363.213902 202.08625 
L 363.213902 12.92625 
" clip-path="url(#pfb3dd77548)" style="fill: none; stroke-dasharray: 3.7,1.6; stroke-dashoffset: 0; stroke: #808080; stroke-opacity: 0.3"/>
   </g>
   <g id="line2d_29">
    <path d="M 390.957097 202.08625 
L 390.957097 12.92625 
" clip-path="url(#pfb3dd77548)" style="fill: none; stroke-dasharray: 3.7,1.6; stroke-dashoffset: 0; stroke: #808080; stroke-opacity: 0.3"/>
   </g>
   <g id="line2d_30">
    <path d="M 418.700293 202.08625 
L 418.700293 12.92625 
" clip-path="url(#pfb3dd77548)" style="fill: none; stroke-dasharray: 3.7,1.6; stroke-dashoffset: 0; stroke: #808080; stroke-opacity: 0.3"/>
   </g>
   <g id="line2d_31">
    <path d="M 446.443488 202.08625 
L 446.443488 12.92625 
" clip-path="url(#pfb3dd77548)" style="fill: none; stroke-dasharray: 3.7,1.6; stroke-dashoffset: 0; stroke: #808080; stroke-opacity: 0.3"/>
   </g>
   <g id="line2d_32">
    <path d="M 474.186684 202.08625 
L 474.186684 12.92625 
" clip-path="url(#pfb3dd77548)" style="fill: none; stroke-dasharray: 3.7,1.6; stroke-dashoffset: 0; stroke: #808080; stroke-opacity: 0.3"/>
   </g>
   <g id="line2d_33">
    <path d="M 501.92988 202.08625 
L 501.92988 12.92625 
" clip-path="url(#pfb3dd77548)" style="fill: none; stroke-dasharray: 3.7,1.6; stroke-dashoffset: 0; stroke: #808080; stroke-opacity: 0.3"/>
   </g>
   <g id="line2d_34">
    <path d="M 529.673075 202.08625 
L 529.673075 12.92625 
" clip-path="url(#pfb3dd77548)" style="fill: none; stroke-dasharray: 3.7,1.6; stroke-dashoffset: 0; stroke: #808080; stroke-opacity: 0.3"/>
   </g>
   <g id="patch_3">
    <path d="M 58.03875 202.08625 
L 58.03875 12.92625 
" style="fill: none; stroke: #000000; stroke-width: 2; stroke-linejoin: miter; stroke-linecap: square"/>
   </g>
   <g id="patch_4">
    <path d="M 58.03875 202.08625 
L 530.106563 202.08625 
" style="fill: none; stroke: #000000; stroke-width: 2; stroke-linejoin: miter; stroke-linecap: square"/>
   </g>
   <g id="text_18">
    <!-- S13 -->
    <g transform="translate(470.918797 188.65325) scale(0.2 -0.2)">
     <defs>
      <path id="ArialMT-53" d="M 288 1472 
L 859 1522 
Q 900 1178 1048 958 
Q 1197 738 1509 602 
Q 1822 466 2213 466 
Q 2559 466 2825 569 
Q 3091 672 3220 851 
Q 3350 1031 3350 1244 
Q 3350 1459 3225 1620 
Q 3100 1781 2813 1891 
Q 2628 1963 1997 2114 
Q 1366 2266 1113 2400 
Q 784 2572 623 2826 
Q 463 3081 463 3397 
Q 463 3744 659 4045 
Q 856 4347 1234 4503 
Q 1613 4659 2075 4659 
Q 2584 4659 2973 4495 
Q 3363 4331 3572 4012 
Q 3781 3694 3797 3291 
L 3216 3247 
Q 3169 3681 2898 3903 
Q 2628 4125 2100 4125 
Q 1550 4125 1298 3923 
Q 1047 3722 1047 3438 
Q 1047 3191 1225 3031 
Q 1400 2872 2139 2705 
Q 2878 2538 3153 2413 
Q 3553 2228 3743 1945 
Q 3934 1663 3934 1294 
Q 3934 928 3725 604 
Q 3516 281 3123 101 
Q 2731 -78 2241 -78 
Q 1619 -78 1198 103 
Q 778 284 539 648 
Q 300 1013 288 1472 
z
" transform="scale(0.015625)"/>
     </defs>
     <use xlink:href="#ArialMT-53"/>
     <use xlink:href="#ArialMT-31" x="66.699219"/>
     <use xlink:href="#ArialMT-33" x="122.314453"/>
    </g>
   </g>
  </g>
  <g id="axes_2">
   <g id="patch_5">
    <path d="M 576.210104 202.08625 
L 853.293386 202.08625 
L 853.293386 12.92625 
L 576.210104 12.92625 
L 576.210104 202.08625 
z
" style="fill: none"/>
   </g>
   <g id="matplotlib.axis_3">
    <g id="xtick_10">
     <g id="line2d_35">
      <g>
       <use xlink:href="#m7c2a0f4f67" x="576.210104" y="202.08625" style="stroke: #000000; stroke-width: 0.8"/>
      </g>
     </g>
     <g id="text_19">
      <!-- 0 -->
      <g transform="translate(571.761354 220.53875) scale(0.16 -0.16)">
       <use xlink:href="#ArialMT-30"/>
      </g>
     </g>
    </g>
    <g id="xtick_11">
     <g id="line2d_36">
      <g>
       <use xlink:href="#m7c2a0f4f67" x="608.778203" y="202.08625" style="stroke: #000000; stroke-width: 0.8"/>
      </g>
     </g>
     <g id="text_20">
      <!-- 128 -->
      <g transform="translate(595.431953 220.53875) scale(0.16 -0.16)">
       <use xlink:href="#ArialMT-31"/>
       <use xlink:href="#ArialMT-32" x="55.615234"/>
       <use xlink:href="#ArialMT-38" x="111.230469"/>
      </g>
     </g>
    </g>
    <g id="xtick_12">
     <g id="line2d_37">
      <g>
       <use xlink:href="#m7c2a0f4f67" x="641.346303" y="202.08625" style="stroke: #000000; stroke-width: 0.8"/>
      </g>
     </g>
     <g id="text_21">
      <!-- 256 -->
      <g transform="translate(628.000053 220.53875) scale(0.16 -0.16)">
       <use xlink:href="#ArialMT-32"/>
       <use xlink:href="#ArialMT-35" x="55.615234"/>
       <use xlink:href="#ArialMT-36" x="111.230469"/>
      </g>
     </g>
    </g>
    <g id="xtick_13">
     <g id="line2d_38">
      <g>
       <use xlink:href="#m7c2a0f4f67" x="673.914402" y="202.08625" style="stroke: #000000; stroke-width: 0.8"/>
      </g>
     </g>
     <g id="text_22">
      <!-- 384 -->
      <g transform="translate(660.568152 220.53875) scale(0.16 -0.16)">
       <use xlink:href="#ArialMT-33"/>
       <use xlink:href="#ArialMT-38" x="55.615234"/>
       <use xlink:href="#ArialMT-34" x="111.230469"/>
      </g>
     </g>
    </g>
    <g id="xtick_14">
     <g id="line2d_39">
      <g>
       <use xlink:href="#m7c2a0f4f67" x="706.482501" y="202.08625" style="stroke: #000000; stroke-width: 0.8"/>
      </g>
     </g>
     <g id="text_23">
      <!-- 512 -->
      <g transform="translate(693.136251 220.53875) scale(0.16 -0.16)">
       <use xlink:href="#ArialMT-35"/>
       <use xlink:href="#ArialMT-31" x="55.615234"/>
       <use xlink:href="#ArialMT-32" x="111.230469"/>
      </g>
     </g>
    </g>
    <g id="xtick_15">
     <g id="line2d_40">
      <g>
       <use xlink:href="#m7c2a0f4f67" x="739.0506" y="202.08625" style="stroke: #000000; stroke-width: 0.8"/>
      </g>
     </g>
     <g id="text_24">
      <!-- 640 -->
      <g transform="translate(725.70435 220.53875) scale(0.16 -0.16)">
       <use xlink:href="#ArialMT-36"/>
       <use xlink:href="#ArialMT-34" x="55.615234"/>
       <use xlink:href="#ArialMT-30" x="111.230469"/>
      </g>
     </g>
    </g>
    <g id="xtick_16">
     <g id="line2d_41">
      <g>
       <use xlink:href="#m7c2a0f4f67" x="771.618699" y="202.08625" style="stroke: #000000; stroke-width: 0.8"/>
      </g>
     </g>
     <g id="text_25">
      <!-- 768 -->
      <g transform="translate(758.272449 220.53875) scale(0.16 -0.16)">
       <use xlink:href="#ArialMT-37"/>
       <use xlink:href="#ArialMT-36" x="55.615234"/>
       <use xlink:href="#ArialMT-38" x="111.230469"/>
      </g>
     </g>
    </g>
    <g id="xtick_17">
     <g id="line2d_42">
      <g>
       <use xlink:href="#m7c2a0f4f67" x="804.186798" y="202.08625" style="stroke: #000000; stroke-width: 0.8"/>
      </g>
     </g>
     <g id="text_26">
      <!-- 896 -->
      <g transform="translate(790.840548 220.53875) scale(0.16 -0.16)">
       <use xlink:href="#ArialMT-38"/>
       <use xlink:href="#ArialMT-39" x="55.615234"/>
       <use xlink:href="#ArialMT-36" x="111.230469"/>
      </g>
     </g>
    </g>
    <g id="xtick_18">
     <g id="line2d_43">
      <g>
       <use xlink:href="#m7c2a0f4f67" x="836.754898" y="202.08625" style="stroke: #000000; stroke-width: 0.8"/>
      </g>
     </g>
     <g id="text_27">
      <!-- 1024 -->
      <g transform="translate(818.959898 220.53875) scale(0.16 -0.16)">
       <use xlink:href="#ArialMT-31"/>
       <use xlink:href="#ArialMT-30" x="55.615234"/>
       <use xlink:href="#ArialMT-32" x="111.230469"/>
       <use xlink:href="#ArialMT-34" x="166.845703"/>
      </g>
     </g>
    </g>
    <g id="text_28">
     <!-- Trial -->
     <g transform="translate(696.637917 241.318594) scale(0.19 -0.19)">
      <use xlink:href="#ArialMT-54"/>
      <use xlink:href="#ArialMT-72" x="57.333984"/>
      <use xlink:href="#ArialMT-69" x="90.634766"/>
      <use xlink:href="#ArialMT-61" x="112.851562"/>
      <use xlink:href="#ArialMT-6c" x="168.466797"/>
     </g>
    </g>
   </g>
   <g id="matplotlib.axis_4">
    <g id="ytick_7">
     <g id="line2d_44">
      <g>
       <use xlink:href="#m3761b337f6" x="576.210104" y="202.08625" style="stroke: #000000; stroke-width: 0.8"/>
      </g>
     </g>
    </g>
    <g id="ytick_8">
     <g id="line2d_45">
      <g>
       <use xlink:href="#m3761b337f6" x="576.210104" y="164.25425" style="stroke: #000000; stroke-width: 0.8"/>
      </g>
     </g>
    </g>
    <g id="ytick_9">
     <g id="line2d_46">
      <g>
       <use xlink:href="#m3761b337f6" x="576.210104" y="126.42225" style="stroke: #000000; stroke-width: 0.8"/>
      </g>
     </g>
    </g>
    <g id="ytick_10">
     <g id="line2d_47">
      <g>
       <use xlink:href="#m3761b337f6" x="576.210104" y="88.59025" style="stroke: #000000; stroke-width: 0.8"/>
      </g>
     </g>
    </g>
    <g id="ytick_11">
     <g id="line2d_48">
      <g>
       <use xlink:href="#m3761b337f6" x="576.210104" y="50.75825" style="stroke: #000000; stroke-width: 0.8"/>
      </g>
     </g>
    </g>
    <g id="ytick_12">
     <g id="line2d_49">
      <g>
       <use xlink:href="#m3761b337f6" x="576.210104" y="12.92625" style="stroke: #000000; stroke-width: 0.8"/>
      </g>
     </g>
    </g>
   </g>
   <g id="line2d_50">
    <path d="M 580.281117 202.08625 
L 581.29887 202.08625 
L 581.553308 190.26375 
L 582.062185 190.26375 
L 582.571061 166.61875 
L 584.097691 166.61875 
L 584.606567 142.97375 
L 584.861006 142.97375 
L 585.115444 131.15125 
L 586.133197 131.15125 
L 586.642073 154.79625 
L 588.168703 154.79625 
L 588.67758 178.44125 
L 588.932018 178.44125 
L 589.186456 190.26375 
L 589.440894 190.26375 
L 589.695333 202.08625 
L 609.795956 202.08625 
L 610.050395 190.26375 
L 613.866969 190.26375 
L 614.121407 202.08625 
L 666.79013 202.08625 
L 668.062321 142.97375 
L 668.571198 142.97375 
L 668.825636 131.15125 
L 669.334513 131.15125 
L 669.843389 107.50625 
L 671.624457 107.50625 
L 672.133334 131.15125 
L 673.405525 131.15125 
L 673.914402 154.79625 
L 674.932155 154.79625 
L 675.69547 190.26375 
L 676.967661 190.26375 
L 677.222099 178.44125 
L 677.730976 178.44125 
L 677.985414 166.61875 
L 678.748729 166.61875 
L 679.257606 142.97375 
L 680.275359 142.97375 
L 680.529797 131.15125 
L 680.784235 131.15125 
L 681.038673 142.97375 
L 681.801988 142.97375 
L 682.056427 154.79625 
L 682.819741 154.79625 
L 683.328618 178.44125 
L 683.583056 178.44125 
L 683.837494 166.61875 
L 684.346371 166.61875 
L 684.600809 178.44125 
L 685.109686 178.44125 
L 685.364124 190.26375 
L 685.618562 178.44125 
L 686.127439 178.44125 
L 686.381877 166.61875 
L 687.654069 166.61875 
L 687.908507 178.44125 
L 688.162945 166.61875 
L 689.435137 166.61875 
L 689.689575 178.44125 
L 690.198451 178.44125 
L 690.45289 190.26375 
L 690.961766 190.26375 
L 691.470643 166.61875 
L 691.979519 166.61875 
L 692.233958 178.44125 
L 694.015025 178.44125 
L 694.269464 166.61875 
L 695.287217 166.61875 
L 695.541655 178.44125 
L 695.796093 166.61875 
L 696.050532 166.61875 
L 696.30497 154.79625 
L 696.559408 154.79625 
L 696.813846 142.97375 
L 698.086038 142.97375 
L 698.340476 154.79625 
L 699.103791 154.79625 
L 699.358229 166.61875 
L 700.121544 166.61875 
L 700.375982 178.44125 
L 701.393735 178.44125 
L 701.902612 154.79625 
L 702.411489 154.79625 
L 702.665927 142.97375 
L 702.920365 142.97375 
L 703.174803 131.15125 
L 703.429242 131.15125 
L 703.68368 119.32875 
L 703.938118 131.15125 
L 704.701433 131.15125 
L 704.955871 142.97375 
L 705.464748 142.97375 
L 705.973624 166.61875 
L 706.228063 166.61875 
L 706.482501 154.79625 
L 706.736939 166.61875 
L 707.500254 166.61875 
L 707.754692 178.44125 
L 708.263569 178.44125 
L 708.518007 166.61875 
L 709.026884 166.61875 
L 709.281322 154.79625 
L 709.790199 154.79625 
L 710.044637 142.97375 
L 710.299075 142.97375 
L 710.553513 154.79625 
L 711.06239 131.15125 
L 711.316828 142.97375 
L 712.334581 142.97375 
L 712.58902 154.79625 
L 712.843458 142.97375 
L 713.097896 142.97375 
L 713.352334 154.79625 
L 713.861211 154.79625 
L 714.115649 166.61875 
L 714.370087 154.79625 
L 714.624526 154.79625 
L 715.133402 178.44125 
L 716.660032 178.44125 
L 716.91447 190.26375 
L 717.932223 190.26375 
L 718.186662 178.44125 
L 718.4411 190.26375 
L 720.222168 190.26375 
L 720.731044 166.61875 
L 720.985483 166.61875 
L 721.494359 142.97375 
L 722.003236 142.97375 
L 722.257674 154.79625 
L 724.29318 154.79625 
L 724.802057 178.44125 
L 725.056495 178.44125 
L 725.565372 202.08625 
L 731.926328 202.08625 
L 732.180767 190.26375 
L 732.435205 190.26375 
L 732.689643 178.44125 
L 732.944082 178.44125 
L 733.19852 166.61875 
L 733.961835 166.61875 
L 734.216273 154.79625 
L 734.470711 154.79625 
L 734.725149 142.97375 
L 734.979588 142.97375 
L 735.234026 131.15125 
L 735.488464 131.15125 
L 735.997341 107.50625 
L 736.251779 119.32875 
L 737.015094 119.32875 
L 737.269532 131.15125 
L 738.032847 131.15125 
L 738.287285 142.97375 
L 738.541724 142.97375 
L 738.796162 154.79625 
L 739.813915 154.79625 
L 740.068353 166.61875 
L 740.57723 166.61875 
L 740.831668 178.44125 
L 743.121613 178.44125 
L 743.376051 190.26375 
L 743.630489 190.26375 
L 743.884927 202.08625 
L 748.210378 202.08625 
L 748.719255 178.44125 
L 749.482569 178.44125 
L 749.737008 166.61875 
L 749.991446 166.61875 
L 750.245884 154.79625 
L 750.754761 154.79625 
L 751.263637 131.15125 
L 752.535829 131.15125 
L 752.790267 142.97375 
L 754.062458 142.97375 
L 754.316897 154.79625 
L 754.825773 154.79625 
L 755.33465 178.44125 
L 755.589088 166.61875 
L 756.352403 166.61875 
L 756.606841 178.44125 
L 757.624594 178.44125 
L 757.879032 190.26375 
L 759.405662 190.26375 
L 759.6601 202.08625 
L 768.311002 202.08625 
L 768.56544 190.26375 
L 768.819878 190.26375 
L 769.583193 154.79625 
L 769.837631 154.79625 
L 770.855384 107.50625 
L 771.364261 107.50625 
L 772.127576 72.03875 
L 772.382014 72.03875 
L 772.636452 83.86125 
L 774.671959 83.86125 
L 774.926397 95.68375 
L 775.435273 72.03875 
L 775.94415 95.68375 
L 776.198588 95.68375 
L 776.453027 83.86125 
L 776.707465 83.86125 
L 776.961903 72.03875 
L 777.216341 83.86125 
L 778.488533 83.86125 
L 778.742971 95.68375 
L 778.997409 95.68375 
L 779.506286 119.32875 
L 779.760724 107.50625 
L 780.524039 107.50625 
L 780.778477 95.68375 
L 781.032915 95.68375 
L 781.287354 83.86125 
L 781.541792 95.68375 
L 781.79623 95.68375 
L 782.050669 83.86125 
L 782.559545 107.50625 
L 783.068422 107.50625 
L 783.32286 95.68375 
L 784.340613 95.68375 
L 785.103928 131.15125 
L 785.612804 131.15125 
L 786.121681 154.79625 
L 786.376119 154.79625 
L 786.630558 142.97375 
L 787.393872 142.97375 
L 787.648311 131.15125 
L 787.902749 142.97375 
L 788.157187 142.97375 
L 788.411625 154.79625 
L 788.666064 154.79625 
L 789.17494 131.15125 
L 789.429379 142.97375 
L 790.192693 142.97375 
L 790.447132 131.15125 
L 790.70157 142.97375 
L 790.956008 131.15125 
L 791.210446 131.15125 
L 791.464885 142.97375 
L 792.482638 142.97375 
L 792.737076 131.15125 
L 792.991514 131.15125 
L 793.245953 142.97375 
L 793.754829 119.32875 
L 794.263706 119.32875 
L 794.518144 131.15125 
L 794.772582 131.15125 
L 795.027021 142.97375 
L 795.281459 142.97375 
L 795.535897 131.15125 
L 795.790335 142.97375 
L 796.55365 142.97375 
L 796.808089 154.79625 
L 797.316965 154.79625 
L 797.825842 178.44125 
L 798.334718 154.79625 
L 798.589156 154.79625 
L 798.843595 142.97375 
L 799.352471 142.97375 
L 799.60691 154.79625 
L 800.624663 107.50625 
L 800.879101 107.50625 
L 801.133539 119.32875 
L 801.642416 119.32875 
L 801.896854 107.50625 
L 802.405731 107.50625 
L 802.660169 95.68375 
L 802.914607 95.68375 
L 803.677922 60.21625 
L 804.695675 60.21625 
L 805.713428 12.92625 
L 820.470848 12.92625 
L 821.488601 60.21625 
L 821.743039 60.21625 
L 824.54186 190.26375 
L 825.559614 190.26375 
L 825.814052 202.08625 
L 826.831805 202.08625 
L 827.340682 178.44125 
L 827.849558 178.44125 
L 830.902817 36.57125 
L 831.411694 36.57125 
L 831.92057 12.92625 
L 836.500459 12.92625 
L 836.754898 24.74875 
L 838.027089 24.74875 
L 838.281527 36.57125 
L 840.571472 36.57125 
L 840.82591 24.74875 
L 842.098101 24.74875 
L 842.35254 12.92625 
L 853.038947 12.92625 
L 853.038947 12.92625 
" style="fill: none; stroke: #a6a6a6; stroke-width: 2; stroke-linecap: square"/>
   </g>
   <g id="line2d_51">
    <path d="M 580.281117 202.08625 
L 626.080006 202.08625 
L 630.151018 12.92625 
L 853.038947 12.92625 
L 853.038947 12.92625 
" style="fill: none; stroke: #ad78d7; stroke-width: 2; stroke-linecap: square"/>
   </g>
   <g id="line2d_52">
    <path d="M 592.494154 202.08625 
L 592.494154 12.92625 
" clip-path="url(#pcf84560c52)" style="fill: none; stroke-dasharray: 3.7,1.6; stroke-dashoffset: 0; stroke: #808080; stroke-opacity: 0.3"/>
   </g>
   <g id="line2d_53">
    <path d="M 608.778203 202.08625 
L 608.778203 12.92625 
" clip-path="url(#pcf84560c52)" style="fill: none; stroke-dasharray: 3.7,1.6; stroke-dashoffset: 0; stroke: #808080; stroke-opacity: 0.3"/>
   </g>
   <g id="line2d_54">
    <path d="M 625.062253 202.08625 
L 625.062253 12.92625 
" clip-path="url(#pcf84560c52)" style="fill: none; stroke-dasharray: 3.7,1.6; stroke-dashoffset: 0; stroke: #808080; stroke-opacity: 0.3"/>
   </g>
   <g id="line2d_55">
    <path d="M 641.346303 202.08625 
L 641.346303 12.92625 
" clip-path="url(#pcf84560c52)" style="fill: none; stroke-dasharray: 3.7,1.6; stroke-dashoffset: 0; stroke: #808080; stroke-opacity: 0.3"/>
   </g>
   <g id="line2d_56">
    <path d="M 657.630352 202.08625 
L 657.630352 12.92625 
" clip-path="url(#pcf84560c52)" style="fill: none; stroke-dasharray: 3.7,1.6; stroke-dashoffset: 0; stroke: #808080; stroke-opacity: 0.3"/>
   </g>
   <g id="line2d_57">
    <path d="M 673.914402 202.08625 
L 673.914402 12.92625 
" clip-path="url(#pcf84560c52)" style="fill: none; stroke-dasharray: 3.7,1.6; stroke-dashoffset: 0; stroke: #808080; stroke-opacity: 0.3"/>
   </g>
   <g id="line2d_58">
    <path d="M 690.198451 202.08625 
L 690.198451 12.92625 
" clip-path="url(#pcf84560c52)" style="fill: none; stroke-dasharray: 3.7,1.6; stroke-dashoffset: 0; stroke: #808080; stroke-opacity: 0.3"/>
   </g>
   <g id="line2d_59">
    <path d="M 706.482501 202.08625 
L 706.482501 12.92625 
" clip-path="url(#pcf84560c52)" style="fill: none; stroke-dasharray: 3.7,1.6; stroke-dashoffset: 0; stroke: #808080; stroke-opacity: 0.3"/>
   </g>
   <g id="line2d_60">
    <path d="M 722.766551 202.08625 
L 722.766551 12.92625 
" clip-path="url(#pcf84560c52)" style="fill: none; stroke-dasharray: 3.7,1.6; stroke-dashoffset: 0; stroke: #808080; stroke-opacity: 0.3"/>
   </g>
   <g id="line2d_61">
    <path d="M 739.0506 202.08625 
L 739.0506 12.92625 
" clip-path="url(#pcf84560c52)" style="fill: none; stroke-dasharray: 3.7,1.6; stroke-dashoffset: 0; stroke: #808080; stroke-opacity: 0.3"/>
   </g>
   <g id="line2d_62">
    <path d="M 755.33465 202.08625 
L 755.33465 12.92625 
" clip-path="url(#pcf84560c52)" style="fill: none; stroke-dasharray: 3.7,1.6; stroke-dashoffset: 0; stroke: #808080; stroke-opacity: 0.3"/>
   </g>
   <g id="line2d_63">
    <path d="M 771.618699 202.08625 
L 771.618699 12.92625 
" clip-path="url(#pcf84560c52)" style="fill: none; stroke-dasharray: 3.7,1.6; stroke-dashoffset: 0; stroke: #808080; stroke-opacity: 0.3"/>
   </g>
   <g id="line2d_64">
    <path d="M 787.902749 202.08625 
L 787.902749 12.92625 
" clip-path="url(#pcf84560c52)" style="fill: none; stroke-dasharray: 3.7,1.6; stroke-dashoffset: 0; stroke: #808080; stroke-opacity: 0.3"/>
   </g>
   <g id="line2d_65">
    <path d="M 804.186798 202.08625 
L 804.186798 12.92625 
" clip-path="url(#pcf84560c52)" style="fill: none; stroke-dasharray: 3.7,1.6; stroke-dashoffset: 0; stroke: #808080; stroke-opacity: 0.3"/>
   </g>
   <g id="line2d_66">
    <path d="M 820.470848 202.08625 
L 820.470848 12.92625 
" clip-path="url(#pcf84560c52)" style="fill: none; stroke-dasharray: 3.7,1.6; stroke-dashoffset: 0; stroke: #808080; stroke-opacity: 0.3"/>
   </g>
   <g id="line2d_67">
    <path d="M 836.754898 202.08625 
L 836.754898 12.92625 
" clip-path="url(#pcf84560c52)" style="fill: none; stroke-dasharray: 3.7,1.6; stroke-dashoffset: 0; stroke: #808080; stroke-opacity: 0.3"/>
   </g>
   <g id="line2d_68">
    <path d="M 853.038947 202.08625 
L 853.038947 12.92625 
" clip-path="url(#pcf84560c52)" style="fill: none; stroke-dasharray: 3.7,1.6; stroke-dashoffset: 0; stroke: #808080; stroke-opacity: 0.3"/>
   </g>
   <g id="patch_6">
    <path d="M 576.210104 202.08625 
L 576.210104 12.92625 
" style="fill: none; stroke: #000000; stroke-width: 2; stroke-linejoin: miter; stroke-linecap: square"/>
   </g>
   <g id="patch_7">
    <path d="M 576.210104 202.08625 
L 853.293386 202.08625 
" style="fill: none; stroke: #000000; stroke-width: 2; stroke-linejoin: miter; stroke-linecap: square"/>
   </g>
   <g id="text_29">
    <!-- S13 -->
    <g transform="translate(803.854846 188.65325) scale(0.2 -0.2)">
     <use xlink:href="#ArialMT-53"/>
     <use xlink:href="#ArialMT-31" x="66.699219"/>
     <use xlink:href="#ArialMT-33" x="122.314453"/>
    </g>
   </g>
  </g>
  <g id="axes_3">
   <g id="patch_8">
    <path d="M 899.396927 202.08625 
L 1176.480208 202.08625 
L 1176.480208 12.92625 
L 899.396927 12.92625 
L 899.396927 202.08625 
z
" style="fill: none"/>
   </g>
   <g id="matplotlib.axis_5">
    <g id="xtick_19">
     <g id="line2d_69">
      <g>
       <use xlink:href="#m7c2a0f4f67" x="899.396927" y="202.08625" style="stroke: #000000; stroke-width: 0.8"/>
      </g>
     </g>
     <g id="text_30">
      <!-- 0 -->
      <g transform="translate(894.948177 220.53875) scale(0.16 -0.16)">
       <use xlink:href="#ArialMT-30"/>
      </g>
     </g>
    </g>
    <g id="xtick_20">
     <g id="line2d_70">
      <g>
       <use xlink:href="#m7c2a0f4f67" x="931.965026" y="202.08625" style="stroke: #000000; stroke-width: 0.8"/>
      </g>
     </g>
     <g id="text_31">
      <!-- 128 -->
      <g transform="translate(918.618776 220.53875) scale(0.16 -0.16)">
       <use xlink:href="#ArialMT-31"/>
       <use xlink:href="#ArialMT-32" x="55.615234"/>
       <use xlink:href="#ArialMT-38" x="111.230469"/>
      </g>
     </g>
    </g>
    <g id="xtick_21">
     <g id="line2d_71">
      <g>
       <use xlink:href="#m7c2a0f4f67" x="964.533125" y="202.08625" style="stroke: #000000; stroke-width: 0.8"/>
      </g>
     </g>
     <g id="text_32">
      <!-- 256 -->
      <g transform="translate(951.186875 220.53875) scale(0.16 -0.16)">
       <use xlink:href="#ArialMT-32"/>
       <use xlink:href="#ArialMT-35" x="55.615234"/>
       <use xlink:href="#ArialMT-36" x="111.230469"/>
      </g>
     </g>
    </g>
    <g id="xtick_22">
     <g id="line2d_72">
      <g>
       <use xlink:href="#m7c2a0f4f67" x="997.101225" y="202.08625" style="stroke: #000000; stroke-width: 0.8"/>
      </g>
     </g>
     <g id="text_33">
      <!-- 384 -->
      <g transform="translate(983.754975 220.53875) scale(0.16 -0.16)">
       <use xlink:href="#ArialMT-33"/>
       <use xlink:href="#ArialMT-38" x="55.615234"/>
       <use xlink:href="#ArialMT-34" x="111.230469"/>
      </g>
     </g>
    </g>
    <g id="xtick_23">
     <g id="line2d_73">
      <g>
       <use xlink:href="#m7c2a0f4f67" x="1029.669324" y="202.08625" style="stroke: #000000; stroke-width: 0.8"/>
      </g>
     </g>
     <g id="text_34">
      <!-- 512 -->
      <g transform="translate(1016.323074 220.53875) scale(0.16 -0.16)">
       <use xlink:href="#ArialMT-35"/>
       <use xlink:href="#ArialMT-31" x="55.615234"/>
       <use xlink:href="#ArialMT-32" x="111.230469"/>
      </g>
     </g>
    </g>
    <g id="xtick_24">
     <g id="line2d_74">
      <g>
       <use xlink:href="#m7c2a0f4f67" x="1062.237423" y="202.08625" style="stroke: #000000; stroke-width: 0.8"/>
      </g>
     </g>
     <g id="text_35">
      <!-- 640 -->
      <g transform="translate(1048.891173 220.53875) scale(0.16 -0.16)">
       <use xlink:href="#ArialMT-36"/>
       <use xlink:href="#ArialMT-34" x="55.615234"/>
       <use xlink:href="#ArialMT-30" x="111.230469"/>
      </g>
     </g>
    </g>
    <g id="xtick_25">
     <g id="line2d_75">
      <g>
       <use xlink:href="#m7c2a0f4f67" x="1094.805522" y="202.08625" style="stroke: #000000; stroke-width: 0.8"/>
      </g>
     </g>
     <g id="text_36">
      <!-- 768 -->
      <g transform="translate(1081.459272 220.53875) scale(0.16 -0.16)">
       <use xlink:href="#ArialMT-37"/>
       <use xlink:href="#ArialMT-36" x="55.615234"/>
       <use xlink:href="#ArialMT-38" x="111.230469"/>
      </g>
     </g>
    </g>
    <g id="xtick_26">
     <g id="line2d_76">
      <g>
       <use xlink:href="#m7c2a0f4f67" x="1127.373621" y="202.08625" style="stroke: #000000; stroke-width: 0.8"/>
      </g>
     </g>
     <g id="text_37">
      <!-- 896 -->
      <g transform="translate(1114.027371 220.53875) scale(0.16 -0.16)">
       <use xlink:href="#ArialMT-38"/>
       <use xlink:href="#ArialMT-39" x="55.615234"/>
       <use xlink:href="#ArialMT-36" x="111.230469"/>
      </g>
     </g>
    </g>
    <g id="xtick_27">
     <g id="line2d_77">
      <g>
       <use xlink:href="#m7c2a0f4f67" x="1159.941721" y="202.08625" style="stroke: #000000; stroke-width: 0.8"/>
      </g>
     </g>
     <g id="text_38">
      <!-- 1024 -->
      <g transform="translate(1142.146721 220.53875) scale(0.16 -0.16)">
       <use xlink:href="#ArialMT-31"/>
       <use xlink:href="#ArialMT-30" x="55.615234"/>
       <use xlink:href="#ArialMT-32" x="111.230469"/>
       <use xlink:href="#ArialMT-34" x="166.845703"/>
      </g>
     </g>
    </g>
    <g id="text_39">
     <!-- Trial -->
     <g transform="translate(1019.82474 241.318594) scale(0.19 -0.19)">
      <use xlink:href="#ArialMT-54"/>
      <use xlink:href="#ArialMT-72" x="57.333984"/>
      <use xlink:href="#ArialMT-69" x="90.634766"/>
      <use xlink:href="#ArialMT-61" x="112.851562"/>
      <use xlink:href="#ArialMT-6c" x="168.466797"/>
     </g>
    </g>
   </g>
   <g id="matplotlib.axis_6">
    <g id="ytick_13">
     <g id="line2d_78">
      <g>
       <use xlink:href="#m3761b337f6" x="899.396927" y="202.08625" style="stroke: #000000; stroke-width: 0.8"/>
      </g>
     </g>
    </g>
    <g id="ytick_14">
     <g id="line2d_79">
      <g>
       <use xlink:href="#m3761b337f6" x="899.396927" y="164.25425" style="stroke: #000000; stroke-width: 0.8"/>
      </g>
     </g>
    </g>
    <g id="ytick_15">
     <g id="line2d_80">
      <g>
       <use xlink:href="#m3761b337f6" x="899.396927" y="126.42225" style="stroke: #000000; stroke-width: 0.8"/>
      </g>
     </g>
    </g>
    <g id="ytick_16">
     <g id="line2d_81">
      <g>
       <use xlink:href="#m3761b337f6" x="899.396927" y="88.59025" style="stroke: #000000; stroke-width: 0.8"/>
      </g>
     </g>
    </g>
    <g id="ytick_17">
     <g id="line2d_82">
      <g>
       <use xlink:href="#m3761b337f6" x="899.396927" y="50.75825" style="stroke: #000000; stroke-width: 0.8"/>
      </g>
     </g>
    </g>
    <g id="ytick_18">
     <g id="line2d_83">
      <g>
       <use xlink:href="#m3761b337f6" x="899.396927" y="12.92625" style="stroke: #000000; stroke-width: 0.8"/>
      </g>
     </g>
    </g>
   </g>
   <g id="line2d_84">
    <path d="M 903.46794 202.08625 
L 904.485693 202.08625 
L 904.740131 190.26375 
L 905.249007 190.26375 
L 905.757884 166.61875 
L 907.284514 166.61875 
L 907.79339 142.97375 
L 908.047828 142.97375 
L 908.302267 131.15125 
L 909.32002 131.15125 
L 909.828896 154.79625 
L 911.355526 154.79625 
L 911.864403 178.44125 
L 912.118841 178.44125 
L 912.373279 190.26375 
L 912.627717 190.26375 
L 912.882156 202.08625 
L 932.982779 202.08625 
L 933.237218 190.26375 
L 937.053792 190.26375 
L 937.30823 202.08625 
L 989.976953 202.08625 
L 991.249144 142.97375 
L 991.758021 142.97375 
L 992.012459 131.15125 
L 992.521336 131.15125 
L 993.030212 107.50625 
L 994.81128 107.50625 
L 995.320157 131.15125 
L 996.592348 131.15125 
L 997.101225 154.79625 
L 998.118978 154.79625 
L 998.882293 190.26375 
L 1000.154484 190.26375 
L 1000.408922 178.44125 
L 1000.917799 178.44125 
L 1001.172237 166.61875 
L 1001.935552 166.61875 
L 1002.444428 142.97375 
L 1003.462182 142.97375 
L 1003.71662 131.15125 
L 1003.971058 131.15125 
L 1004.225496 142.97375 
L 1004.988811 142.97375 
L 1005.243249 154.79625 
L 1006.006564 154.79625 
L 1006.515441 178.44125 
L 1006.769879 178.44125 
L 1007.024317 166.61875 
L 1007.533194 166.61875 
L 1007.787632 178.44125 
L 1008.296509 178.44125 
L 1008.550947 190.26375 
L 1008.805385 178.44125 
L 1009.314262 178.44125 
L 1009.5687 166.61875 
L 1010.840891 166.61875 
L 1011.09533 178.44125 
L 1011.349768 166.61875 
L 1012.621959 166.61875 
L 1012.876398 178.44125 
L 1013.385274 178.44125 
L 1013.639713 190.26375 
L 1014.148589 190.26375 
L 1014.657466 166.61875 
L 1015.166342 166.61875 
L 1015.42078 178.44125 
L 1017.201848 178.44125 
L 1017.456287 166.61875 
L 1018.47404 166.61875 
L 1018.728478 178.44125 
L 1018.982916 166.61875 
L 1019.237355 166.61875 
L 1019.491793 154.79625 
L 1019.746231 154.79625 
L 1020.000669 142.97375 
L 1021.272861 142.97375 
L 1021.527299 154.79625 
L 1022.290614 154.79625 
L 1022.545052 166.61875 
L 1023.308367 166.61875 
L 1023.562805 178.44125 
L 1024.580558 178.44125 
L 1025.089435 154.79625 
L 1025.598311 154.79625 
L 1025.85275 142.97375 
L 1026.107188 142.97375 
L 1026.361626 131.15125 
L 1026.616065 131.15125 
L 1026.870503 119.32875 
L 1027.124941 131.15125 
L 1027.888256 131.15125 
L 1028.142694 142.97375 
L 1028.651571 142.97375 
L 1029.160447 166.61875 
L 1029.414886 166.61875 
L 1029.669324 154.79625 
L 1029.923762 166.61875 
L 1030.687077 166.61875 
L 1030.941515 178.44125 
L 1031.450392 178.44125 
L 1031.70483 166.61875 
L 1032.213707 166.61875 
L 1032.468145 154.79625 
L 1032.977021 154.79625 
L 1033.23146 142.97375 
L 1033.485898 142.97375 
L 1033.740336 154.79625 
L 1034.249213 131.15125 
L 1034.503651 142.97375 
L 1035.521404 142.97375 
L 1035.775842 154.79625 
L 1036.030281 142.97375 
L 1036.284719 142.97375 
L 1036.539157 154.79625 
L 1037.048034 154.79625 
L 1037.302472 166.61875 
L 1037.55691 154.79625 
L 1037.811349 154.79625 
L 1038.320225 178.44125 
L 1039.846855 178.44125 
L 1040.101293 190.26375 
L 1041.119046 190.26375 
L 1041.373484 178.44125 
L 1041.627923 190.26375 
L 1043.408991 190.26375 
L 1043.917867 166.61875 
L 1044.172306 166.61875 
L 1044.681182 142.97375 
L 1045.190059 142.97375 
L 1045.444497 154.79625 
L 1047.480003 154.79625 
L 1047.98888 178.44125 
L 1048.243318 178.44125 
L 1048.752194 202.08625 
L 1055.113151 202.08625 
L 1055.36759 190.26375 
L 1055.622028 190.26375 
L 1055.876466 178.44125 
L 1056.130904 178.44125 
L 1056.385343 166.61875 
L 1057.148658 166.61875 
L 1057.403096 154.79625 
L 1057.657534 154.79625 
L 1057.911972 142.97375 
L 1058.166411 142.97375 
L 1058.420849 131.15125 
L 1058.675287 131.15125 
L 1059.184164 107.50625 
L 1059.438602 119.32875 
L 1060.201917 119.32875 
L 1060.456355 131.15125 
L 1061.21967 131.15125 
L 1061.474108 142.97375 
L 1061.728546 142.97375 
L 1061.982985 154.79625 
L 1063.000738 154.79625 
L 1063.255176 166.61875 
L 1063.764053 166.61875 
L 1064.018491 178.44125 
L 1066.308435 178.44125 
L 1066.562874 190.26375 
L 1066.817312 190.26375 
L 1067.07175 202.08625 
L 1071.397201 202.08625 
L 1071.906077 178.44125 
L 1072.669392 178.44125 
L 1072.923831 166.61875 
L 1073.178269 166.61875 
L 1073.432707 154.79625 
L 1073.941584 154.79625 
L 1074.45046 131.15125 
L 1075.722652 131.15125 
L 1075.97709 142.97375 
L 1077.249281 142.97375 
L 1077.50372 154.79625 
L 1078.012596 154.79625 
L 1078.521473 178.44125 
L 1078.775911 166.61875 
L 1079.539226 166.61875 
L 1079.793664 178.44125 
L 1080.811417 178.44125 
L 1081.065855 190.26375 
L 1082.592485 190.26375 
L 1082.846923 202.08625 
L 1091.497825 202.08625 
L 1091.752263 190.26375 
L 1092.006701 190.26375 
L 1092.770016 154.79625 
L 1093.024454 154.79625 
L 1094.042207 107.50625 
L 1094.551084 107.50625 
L 1095.314399 72.03875 
L 1095.568837 72.03875 
L 1095.823275 83.86125 
L 1097.858782 83.86125 
L 1098.11322 95.68375 
L 1098.622096 72.03875 
L 1099.130973 95.68375 
L 1099.385411 95.68375 
L 1099.639849 83.86125 
L 1099.894288 83.86125 
L 1100.148726 72.03875 
L 1100.403164 83.86125 
L 1101.675356 83.86125 
L 1101.929794 95.68375 
L 1102.184232 95.68375 
L 1102.693109 119.32875 
L 1102.947547 107.50625 
L 1103.710862 107.50625 
L 1103.9653 95.68375 
L 1104.219738 95.68375 
L 1104.474177 83.86125 
L 1104.728615 95.68375 
L 1104.983053 95.68375 
L 1105.237491 83.86125 
L 1105.746368 107.50625 
L 1106.255245 107.50625 
L 1106.509683 95.68375 
L 1107.527436 95.68375 
L 1108.290751 131.15125 
L 1108.799627 131.15125 
L 1109.308504 154.79625 
L 1109.562942 154.79625 
L 1109.81738 142.97375 
L 1110.580695 142.97375 
L 1110.835134 131.15125 
L 1111.089572 142.97375 
L 1111.34401 142.97375 
L 1111.598448 154.79625 
L 1111.852887 154.79625 
L 1112.361763 131.15125 
L 1112.616201 142.97375 
L 1113.379516 142.97375 
L 1113.633955 131.15125 
L 1113.888393 142.97375 
L 1114.142831 131.15125 
L 1114.397269 131.15125 
L 1114.651708 142.97375 
L 1115.669461 142.97375 
L 1115.923899 131.15125 
L 1116.178337 131.15125 
L 1116.432776 142.97375 
L 1116.941652 119.32875 
L 1117.450529 119.32875 
L 1117.704967 131.15125 
L 1117.959405 131.15125 
L 1118.213843 142.97375 
L 1118.468282 142.97375 
L 1118.72272 131.15125 
L 1118.977158 142.97375 
L 1119.740473 142.97375 
L 1119.994911 154.79625 
L 1120.503788 154.79625 
L 1121.012665 178.44125 
L 1121.521541 154.79625 
L 1121.775979 154.79625 
L 1122.030418 142.97375 
L 1122.539294 142.97375 
L 1122.793732 154.79625 
L 1123.811486 107.50625 
L 1124.065924 107.50625 
L 1124.320362 119.32875 
L 1124.829239 119.32875 
L 1125.083677 107.50625 
L 1125.592553 107.50625 
L 1125.846992 95.68375 
L 1126.10143 95.68375 
L 1126.864745 60.21625 
L 1127.882498 60.21625 
L 1128.900251 12.92625 
L 1143.657671 12.92625 
L 1144.675424 60.21625 
L 1144.929862 60.21625 
L 1147.728683 190.26375 
L 1148.746436 190.26375 
L 1149.000875 202.08625 
L 1150.018628 202.08625 
L 1150.527504 178.44125 
L 1151.036381 178.44125 
L 1154.08964 36.57125 
L 1154.598517 36.57125 
L 1155.107393 12.92625 
L 1159.687282 12.92625 
L 1159.941721 24.74875 
L 1161.213912 24.74875 
L 1161.46835 36.57125 
L 1163.758295 36.57125 
L 1164.012733 24.74875 
L 1165.284924 24.74875 
L 1165.539363 12.92625 
L 1176.22577 12.92625 
L 1176.22577 12.92625 
" style="fill: none; stroke: #a6a6a6; stroke-width: 2; stroke-linecap: square"/>
   </g>
   <g id="line2d_85">
    <path d="M 903.46794 185.112603 
L 903.722378 182.775087 
L 903.976816 178.727605 
L 904.485693 166.215474 
L 905.249007 144.238361 
L 906.521199 111.59511 
L 908.302267 64.118718 
L 908.811143 57.169817 
L 909.065582 55.194717 
L 909.574458 44.879948 
L 910.846649 26.387541 
L 911.609964 18.597851 
L 912.373279 14.879224 
L 913.136594 13.66515 
L 913.899909 13.156736 
L 914.408785 13.03644 
L 916.189853 12.933586 
L 927.385137 12.926552 
L 1176.22577 12.92625 
L 1176.22577 12.92625 
" style="fill: none; stroke: #404040; stroke-width: 2; stroke-linecap: square"/>
   </g>
   <g id="line2d_86">
    <path d="M 915.680977 202.08625 
L 915.680977 12.92625 
" clip-path="url(#p1fa0e824ec)" style="fill: none; stroke-dasharray: 3.7,1.6; stroke-dashoffset: 0; stroke: #808080; stroke-opacity: 0.3"/>
   </g>
   <g id="line2d_87">
    <path d="M 931.965026 202.08625 
L 931.965026 12.92625 
" clip-path="url(#p1fa0e824ec)" style="fill: none; stroke-dasharray: 3.7,1.6; stroke-dashoffset: 0; stroke: #808080; stroke-opacity: 0.3"/>
   </g>
   <g id="line2d_88">
    <path d="M 948.249076 202.08625 
L 948.249076 12.92625 
" clip-path="url(#p1fa0e824ec)" style="fill: none; stroke-dasharray: 3.7,1.6; stroke-dashoffset: 0; stroke: #808080; stroke-opacity: 0.3"/>
   </g>
   <g id="line2d_89">
    <path d="M 964.533125 202.08625 
L 964.533125 12.92625 
" clip-path="url(#p1fa0e824ec)" style="fill: none; stroke-dasharray: 3.7,1.6; stroke-dashoffset: 0; stroke: #808080; stroke-opacity: 0.3"/>
   </g>
   <g id="line2d_90">
    <path d="M 980.817175 202.08625 
L 980.817175 12.92625 
" clip-path="url(#p1fa0e824ec)" style="fill: none; stroke-dasharray: 3.7,1.6; stroke-dashoffset: 0; stroke: #808080; stroke-opacity: 0.3"/>
   </g>
   <g id="line2d_91">
    <path d="M 997.101225 202.08625 
L 997.101225 12.92625 
" clip-path="url(#p1fa0e824ec)" style="fill: none; stroke-dasharray: 3.7,1.6; stroke-dashoffset: 0; stroke: #808080; stroke-opacity: 0.3"/>
   </g>
   <g id="line2d_92">
    <path d="M 1013.385274 202.08625 
L 1013.385274 12.92625 
" clip-path="url(#p1fa0e824ec)" style="fill: none; stroke-dasharray: 3.7,1.6; stroke-dashoffset: 0; stroke: #808080; stroke-opacity: 0.3"/>
   </g>
   <g id="line2d_93">
    <path d="M 1029.669324 202.08625 
L 1029.669324 12.92625 
" clip-path="url(#p1fa0e824ec)" style="fill: none; stroke-dasharray: 3.7,1.6; stroke-dashoffset: 0; stroke: #808080; stroke-opacity: 0.3"/>
   </g>
   <g id="line2d_94">
    <path d="M 1045.953373 202.08625 
L 1045.953373 12.92625 
" clip-path="url(#p1fa0e824ec)" style="fill: none; stroke-dasharray: 3.7,1.6; stroke-dashoffset: 0; stroke: #808080; stroke-opacity: 0.3"/>
   </g>
   <g id="line2d_95">
    <path d="M 1062.237423 202.08625 
L 1062.237423 12.92625 
" clip-path="url(#p1fa0e824ec)" style="fill: none; stroke-dasharray: 3.7,1.6; stroke-dashoffset: 0; stroke: #808080; stroke-opacity: 0.3"/>
   </g>
   <g id="line2d_96">
    <path d="M 1078.521473 202.08625 
L 1078.521473 12.92625 
" clip-path="url(#p1fa0e824ec)" style="fill: none; stroke-dasharray: 3.7,1.6; stroke-dashoffset: 0; stroke: #808080; stroke-opacity: 0.3"/>
   </g>
   <g id="line2d_97">
    <path d="M 1094.805522 202.08625 
L 1094.805522 12.92625 
" clip-path="url(#p1fa0e824ec)" style="fill: none; stroke-dasharray: 3.7,1.6; stroke-dashoffset: 0; stroke: #808080; stroke-opacity: 0.3"/>
   </g>
   <g id="line2d_98">
    <path d="M 1111.089572 202.08625 
L 1111.089572 12.92625 
" clip-path="url(#p1fa0e824ec)" style="fill: none; stroke-dasharray: 3.7,1.6; stroke-dashoffset: 0; stroke: #808080; stroke-opacity: 0.3"/>
   </g>
   <g id="line2d_99">
    <path d="M 1127.373621 202.08625 
L 1127.373621 12.92625 
" clip-path="url(#p1fa0e824ec)" style="fill: none; stroke-dasharray: 3.7,1.6; stroke-dashoffset: 0; stroke: #808080; stroke-opacity: 0.3"/>
   </g>
   <g id="line2d_100">
    <path d="M 1143.657671 202.08625 
L 1143.657671 12.92625 
" clip-path="url(#p1fa0e824ec)" style="fill: none; stroke-dasharray: 3.7,1.6; stroke-dashoffset: 0; stroke: #808080; stroke-opacity: 0.3"/>
   </g>
   <g id="line2d_101">
    <path d="M 1159.941721 202.08625 
L 1159.941721 12.92625 
" clip-path="url(#p1fa0e824ec)" style="fill: none; stroke-dasharray: 3.7,1.6; stroke-dashoffset: 0; stroke: #808080; stroke-opacity: 0.3"/>
   </g>
   <g id="line2d_102">
    <path d="M 1176.22577 202.08625 
L 1176.22577 12.92625 
" clip-path="url(#p1fa0e824ec)" style="fill: none; stroke-dasharray: 3.7,1.6; stroke-dashoffset: 0; stroke: #808080; stroke-opacity: 0.3"/>
   </g>
   <g id="patch_9">
    <path d="M 899.396927 202.08625 
L 899.396927 12.92625 
" style="fill: none; stroke: #000000; stroke-width: 2; stroke-linejoin: miter; stroke-linecap: square"/>
   </g>
   <g id="patch_10">
    <path d="M 899.396927 202.08625 
L 1176.480208 202.08625 
" style="fill: none; stroke: #000000; stroke-width: 2; stroke-linejoin: miter; stroke-linecap: square"/>
   </g>
   <g id="text_40">
    <!-- S13 -->
    <g transform="translate(1127.041669 188.65325) scale(0.2 -0.2)">
     <use xlink:href="#ArialMT-53"/>
     <use xlink:href="#ArialMT-31" x="66.699219"/>
     <use xlink:href="#ArialMT-33" x="122.314453"/>
    </g>
   </g>
  </g>
 </g>
 <defs>
  <clipPath id="pfb3dd77548">
   <rect x="58.03875" y="12.92625" width="472.067813" height="189.16"/>
  </clipPath>
  <clipPath id="pcf84560c52">
   <rect x="576.210104" y="12.92625" width="277.083281" height="189.16"/>
  </clipPath>
  <clipPath id="p1fa0e824ec">
   <rect x="899.396927" y="12.92625" width="277.083281" height="189.16"/>
  </clipPath>
 </defs>
</svg>
