<?xml version="1.0" encoding="utf-8" standalone="no"?>
<!DOCTYPE svg PUBLIC "-//W3C//DTD SVG 1.1//EN"
  "http://www.w3.org/Graphics/SVG/1.1/DTD/svg11.dtd">
<svg xmlns:xlink="http://www.w3.org/1999/xlink" width="570.586094pt" height="281.128594pt" viewBox="0 0 570.586094 281.128594" xmlns="http://www.w3.org/2000/svg" version="1.1">
 <metadata>
  <rdf:RDF xmlns:dc="http://purl.org/dc/elements/1.1/" xmlns:cc="http://creativecommons.org/ns#" xmlns:rdf="http://www.w3.org/1999/02/22-rdf-syntax-ns#">
   <cc:Work>
    <dc:type rdf:resource="http://purl.org/dc/dcmitype/StillImage"/>
    <dc:date>2025-05-15T14:56:17.638698</dc:date>
    <dc:format>image/svg+xml</dc:format>
    <dc:creator>
     <cc:Agent>
      <dc:title>Matplotlib v3.8.4, https://matplotlib.org/</dc:title>
     </cc:Agent>
    </dc:creator>
   </cc:Work>
  </rdf:RDF>
 </metadata>
 <defs>
  <style type="text/css">*{stroke-linejoin: round; stroke-linecap: butt}</style>
 </defs>
 <g id="figure_1">
  <g id="patch_1">
   <path d="M 0 281.128594 
L 570.586094 281.128594 
L 570.586094 0 
L 0 0 
L 0 281.128594 
z
" style="fill: none"/>
  </g>
  <g id="axes_1">
   <g id="patch_2">
    <path d="M 44.473594 230.92 
L 502.223594 230.92 
L 502.223594 7.2 
L 44.473594 7.2 
L 44.473594 230.92 
z
" style="fill: none"/>
   </g>
   <g id="matplotlib.axis_1">
    <g id="xtick_1">
     <g id="line2d_1">
      <defs>
       <path id="me9dc501993" d="M 0 0 
L 0 3.5 
" style="stroke: #000000; stroke-width: 0.8"/>
      </defs>
      <g>
       <use xlink:href="#me9dc501993" x="44.473594" y="230.92" style="stroke: #000000; stroke-width: 0.8"/>
      </g>
     </g>
     <g id="text_1">
      <!-- 0 -->
      <g transform="translate(40.024844 249.3725) scale(0.16 -0.16)">
       <defs>
        <path id="ArialMT-30" d="M 266 2259 
Q 266 3072 433 3567 
Q 600 4063 929 4331 
Q 1259 4600 1759 4600 
Q 2128 4600 2406 4451 
Q 2684 4303 2865 4023 
Q 3047 3744 3150 3342 
Q 3253 2941 3253 2259 
Q 3253 1453 3087 958 
Q 2922 463 2592 192 
Q 2263 -78 1759 -78 
Q 1097 -78 719 397 
Q 266 969 266 2259 
z
M 844 2259 
Q 844 1131 1108 757 
Q 1372 384 1759 384 
Q 2147 384 2411 759 
Q 2675 1134 2675 2259 
Q 2675 3391 2411 3762 
Q 2147 4134 1753 4134 
Q 1366 4134 1134 3806 
Q 844 3388 844 2259 
z
" transform="scale(0.015625)"/>
       </defs>
       <use xlink:href="#ArialMT-30"/>
      </g>
     </g>
    </g>
    <g id="xtick_2">
     <g id="line2d_2">
      <g>
       <use xlink:href="#me9dc501993" x="136.023594" y="230.92" style="stroke: #000000; stroke-width: 0.8"/>
      </g>
     </g>
     <g id="text_2">
      <!-- 128 -->
      <g transform="translate(122.677344 249.3725) scale(0.16 -0.16)">
       <defs>
        <path id="ArialMT-31" d="M 2384 0 
L 1822 0 
L 1822 3584 
Q 1619 3391 1289 3197 
Q 959 3003 697 2906 
L 697 3450 
Q 1169 3672 1522 3987 
Q 1875 4303 2022 4600 
L 2384 4600 
L 2384 0 
z
" transform="scale(0.015625)"/>
        <path id="ArialMT-32" d="M 3222 541 
L 3222 0 
L 194 0 
Q 188 203 259 391 
Q 375 700 629 1000 
Q 884 1300 1366 1694 
Q 2113 2306 2375 2664 
Q 2638 3022 2638 3341 
Q 2638 3675 2398 3904 
Q 2159 4134 1775 4134 
Q 1369 4134 1125 3890 
Q 881 3647 878 3216 
L 300 3275 
Q 359 3922 746 4261 
Q 1134 4600 1788 4600 
Q 2447 4600 2831 4234 
Q 3216 3869 3216 3328 
Q 3216 3053 3103 2787 
Q 2991 2522 2730 2228 
Q 2469 1934 1863 1422 
Q 1356 997 1212 845 
Q 1069 694 975 541 
L 3222 541 
z
" transform="scale(0.015625)"/>
        <path id="ArialMT-38" d="M 1131 2484 
Q 781 2613 612 2850 
Q 444 3088 444 3419 
Q 444 3919 803 4259 
Q 1163 4600 1759 4600 
Q 2359 4600 2725 4251 
Q 3091 3903 3091 3403 
Q 3091 3084 2923 2848 
Q 2756 2613 2416 2484 
Q 2838 2347 3058 2040 
Q 3278 1734 3278 1309 
Q 3278 722 2862 322 
Q 2447 -78 1769 -78 
Q 1091 -78 675 323 
Q 259 725 259 1325 
Q 259 1772 486 2073 
Q 713 2375 1131 2484 
z
M 1019 3438 
Q 1019 3113 1228 2906 
Q 1438 2700 1772 2700 
Q 2097 2700 2305 2904 
Q 2513 3109 2513 3406 
Q 2513 3716 2298 3927 
Q 2084 4138 1766 4138 
Q 1444 4138 1231 3931 
Q 1019 3725 1019 3438 
z
M 838 1322 
Q 838 1081 952 856 
Q 1066 631 1291 507 
Q 1516 384 1775 384 
Q 2178 384 2440 643 
Q 2703 903 2703 1303 
Q 2703 1709 2433 1975 
Q 2163 2241 1756 2241 
Q 1359 2241 1098 1978 
Q 838 1716 838 1322 
z
" transform="scale(0.015625)"/>
       </defs>
       <use xlink:href="#ArialMT-31"/>
       <use xlink:href="#ArialMT-32" x="55.615234"/>
       <use xlink:href="#ArialMT-38" x="111.230469"/>
      </g>
     </g>
    </g>
    <g id="xtick_3">
     <g id="line2d_3">
      <g>
       <use xlink:href="#me9dc501993" x="227.573594" y="230.92" style="stroke: #000000; stroke-width: 0.8"/>
      </g>
     </g>
     <g id="text_3">
      <!-- 256 -->
      <g transform="translate(214.227344 249.3725) scale(0.16 -0.16)">
       <defs>
        <path id="ArialMT-35" d="M 266 1200 
L 856 1250 
Q 922 819 1161 601 
Q 1400 384 1738 384 
Q 2144 384 2425 690 
Q 2706 997 2706 1503 
Q 2706 1984 2436 2262 
Q 2166 2541 1728 2541 
Q 1456 2541 1237 2417 
Q 1019 2294 894 2097 
L 366 2166 
L 809 4519 
L 3088 4519 
L 3088 3981 
L 1259 3981 
L 1013 2750 
Q 1425 3038 1878 3038 
Q 2478 3038 2890 2622 
Q 3303 2206 3303 1553 
Q 3303 931 2941 478 
Q 2500 -78 1738 -78 
Q 1113 -78 717 272 
Q 322 622 266 1200 
z
" transform="scale(0.015625)"/>
        <path id="ArialMT-36" d="M 3184 3459 
L 2625 3416 
Q 2550 3747 2413 3897 
Q 2184 4138 1850 4138 
Q 1581 4138 1378 3988 
Q 1113 3794 959 3422 
Q 806 3050 800 2363 
Q 1003 2672 1297 2822 
Q 1591 2972 1913 2972 
Q 2475 2972 2870 2558 
Q 3266 2144 3266 1488 
Q 3266 1056 3080 686 
Q 2894 316 2569 119 
Q 2244 -78 1831 -78 
Q 1128 -78 684 439 
Q 241 956 241 2144 
Q 241 3472 731 4075 
Q 1159 4600 1884 4600 
Q 2425 4600 2770 4297 
Q 3116 3994 3184 3459 
z
M 888 1484 
Q 888 1194 1011 928 
Q 1134 663 1356 523 
Q 1578 384 1822 384 
Q 2178 384 2434 671 
Q 2691 959 2691 1453 
Q 2691 1928 2437 2201 
Q 2184 2475 1800 2475 
Q 1419 2475 1153 2201 
Q 888 1928 888 1484 
z
" transform="scale(0.015625)"/>
       </defs>
       <use xlink:href="#ArialMT-32"/>
       <use xlink:href="#ArialMT-35" x="55.615234"/>
       <use xlink:href="#ArialMT-36" x="111.230469"/>
      </g>
     </g>
    </g>
    <g id="xtick_4">
     <g id="line2d_4">
      <g>
       <use xlink:href="#me9dc501993" x="319.123594" y="230.92" style="stroke: #000000; stroke-width: 0.8"/>
      </g>
     </g>
     <g id="text_4">
      <!-- 384 -->
      <g transform="translate(305.777344 249.3725) scale(0.16 -0.16)">
       <defs>
        <path id="ArialMT-33" d="M 269 1209 
L 831 1284 
Q 928 806 1161 595 
Q 1394 384 1728 384 
Q 2125 384 2398 659 
Q 2672 934 2672 1341 
Q 2672 1728 2419 1979 
Q 2166 2231 1775 2231 
Q 1616 2231 1378 2169 
L 1441 2663 
Q 1497 2656 1531 2656 
Q 1891 2656 2178 2843 
Q 2466 3031 2466 3422 
Q 2466 3731 2256 3934 
Q 2047 4138 1716 4138 
Q 1388 4138 1169 3931 
Q 950 3725 888 3313 
L 325 3413 
Q 428 3978 793 4289 
Q 1159 4600 1703 4600 
Q 2078 4600 2393 4439 
Q 2709 4278 2876 4000 
Q 3044 3722 3044 3409 
Q 3044 3113 2884 2869 
Q 2725 2625 2413 2481 
Q 2819 2388 3044 2092 
Q 3269 1797 3269 1353 
Q 3269 753 2831 336 
Q 2394 -81 1725 -81 
Q 1122 -81 723 278 
Q 325 638 269 1209 
z
" transform="scale(0.015625)"/>
        <path id="ArialMT-34" d="M 2069 0 
L 2069 1097 
L 81 1097 
L 81 1613 
L 2172 4581 
L 2631 4581 
L 2631 1613 
L 3250 1613 
L 3250 1097 
L 2631 1097 
L 2631 0 
L 2069 0 
z
M 2069 1613 
L 2069 3678 
L 634 1613 
L 2069 1613 
z
" transform="scale(0.015625)"/>
       </defs>
       <use xlink:href="#ArialMT-33"/>
       <use xlink:href="#ArialMT-38" x="55.615234"/>
       <use xlink:href="#ArialMT-34" x="111.230469"/>
      </g>
     </g>
    </g>
    <g id="xtick_5">
     <g id="line2d_5">
      <g>
       <use xlink:href="#me9dc501993" x="410.673594" y="230.92" style="stroke: #000000; stroke-width: 0.8"/>
      </g>
     </g>
     <g id="text_5">
      <!-- 512 -->
      <g transform="translate(397.327344 249.3725) scale(0.16 -0.16)">
       <use xlink:href="#ArialMT-35"/>
       <use xlink:href="#ArialMT-31" x="55.615234"/>
       <use xlink:href="#ArialMT-32" x="111.230469"/>
      </g>
     </g>
    </g>
    <g id="xtick_6">
     <g id="line2d_6">
      <g>
       <use xlink:href="#me9dc501993" x="502.223594" y="230.92" style="stroke: #000000; stroke-width: 0.8"/>
      </g>
     </g>
     <g id="text_6">
      <!-- 640 -->
      <g transform="translate(488.877344 249.3725) scale(0.16 -0.16)">
       <use xlink:href="#ArialMT-36"/>
       <use xlink:href="#ArialMT-34" x="55.615234"/>
       <use xlink:href="#ArialMT-30" x="111.230469"/>
      </g>
     </g>
    </g>
    <g id="text_7">
     <!-- Trial -->
     <g transform="translate(255.234766 270.152344) scale(0.19 -0.19)">
      <defs>
       <path id="ArialMT-54" d="M 1659 0 
L 1659 4041 
L 150 4041 
L 150 4581 
L 3781 4581 
L 3781 4041 
L 2266 4041 
L 2266 0 
L 1659 0 
z
" transform="scale(0.015625)"/>
       <path id="ArialMT-72" d="M 416 0 
L 416 3319 
L 922 3319 
L 922 2816 
Q 1116 3169 1280 3281 
Q 1444 3394 1641 3394 
Q 1925 3394 2219 3213 
L 2025 2691 
Q 1819 2813 1613 2813 
Q 1428 2813 1281 2702 
Q 1134 2591 1072 2394 
Q 978 2094 978 1738 
L 978 0 
L 416 0 
z
" transform="scale(0.015625)"/>
       <path id="ArialMT-69" d="M 425 3934 
L 425 4581 
L 988 4581 
L 988 3934 
L 425 3934 
z
M 425 0 
L 425 3319 
L 988 3319 
L 988 0 
L 425 0 
z
" transform="scale(0.015625)"/>
       <path id="ArialMT-61" d="M 2588 409 
Q 2275 144 1986 34 
Q 1697 -75 1366 -75 
Q 819 -75 525 192 
Q 231 459 231 875 
Q 231 1119 342 1320 
Q 453 1522 633 1644 
Q 813 1766 1038 1828 
Q 1203 1872 1538 1913 
Q 2219 1994 2541 2106 
Q 2544 2222 2544 2253 
Q 2544 2597 2384 2738 
Q 2169 2928 1744 2928 
Q 1347 2928 1158 2789 
Q 969 2650 878 2297 
L 328 2372 
Q 403 2725 575 2942 
Q 747 3159 1072 3276 
Q 1397 3394 1825 3394 
Q 2250 3394 2515 3294 
Q 2781 3194 2906 3042 
Q 3031 2891 3081 2659 
Q 3109 2516 3109 2141 
L 3109 1391 
Q 3109 606 3145 398 
Q 3181 191 3288 0 
L 2700 0 
Q 2613 175 2588 409 
z
M 2541 1666 
Q 2234 1541 1622 1453 
Q 1275 1403 1131 1340 
Q 988 1278 909 1158 
Q 831 1038 831 891 
Q 831 666 1001 516 
Q 1172 366 1500 366 
Q 1825 366 2078 508 
Q 2331 650 2450 897 
Q 2541 1088 2541 1459 
L 2541 1666 
z
" transform="scale(0.015625)"/>
       <path id="ArialMT-6c" d="M 409 0 
L 409 4581 
L 972 4581 
L 972 0 
L 409 0 
z
" transform="scale(0.015625)"/>
      </defs>
      <use xlink:href="#ArialMT-54"/>
      <use xlink:href="#ArialMT-72" x="57.333984"/>
      <use xlink:href="#ArialMT-69" x="90.634766"/>
      <use xlink:href="#ArialMT-61" x="112.851562"/>
      <use xlink:href="#ArialMT-6c" x="168.466797"/>
     </g>
    </g>
   </g>
   <g id="matplotlib.axis_2">
    <g id="ytick_1">
     <g id="line2d_7">
      <defs>
       <path id="m732824471f" d="M 0 0 
L -3.5 0 
" style="stroke: #000000; stroke-width: 0.8"/>
      </defs>
      <g>
       <use xlink:href="#m732824471f" x="44.473594" y="220.750909" style="stroke: #000000; stroke-width: 0.8"/>
      </g>
     </g>
     <g id="text_8">
      <!-- 0 -->
      <g transform="translate(28.576094 226.477159) scale(0.16 -0.16)">
       <use xlink:href="#ArialMT-30"/>
      </g>
     </g>
    </g>
    <g id="ytick_2">
     <g id="line2d_8">
      <g>
       <use xlink:href="#m732824471f" x="44.473594" y="180.074545" style="stroke: #000000; stroke-width: 0.8"/>
      </g>
     </g>
     <g id="text_9">
      <!-- 1 -->
      <g transform="translate(28.576094 185.800795) scale(0.16 -0.16)">
       <use xlink:href="#ArialMT-31"/>
      </g>
     </g>
    </g>
    <g id="ytick_3">
     <g id="line2d_9">
      <g>
       <use xlink:href="#m732824471f" x="44.473594" y="139.398182" style="stroke: #000000; stroke-width: 0.8"/>
      </g>
     </g>
     <g id="text_10">
      <!-- 2 -->
      <g transform="translate(28.576094 145.124432) scale(0.16 -0.16)">
       <use xlink:href="#ArialMT-32"/>
      </g>
     </g>
    </g>
    <g id="ytick_4">
     <g id="line2d_10">
      <g>
       <use xlink:href="#m732824471f" x="44.473594" y="98.721818" style="stroke: #000000; stroke-width: 0.8"/>
      </g>
     </g>
     <g id="text_11">
      <!-- 3 -->
      <g transform="translate(28.576094 104.448068) scale(0.16 -0.16)">
       <use xlink:href="#ArialMT-33"/>
      </g>
     </g>
    </g>
    <g id="ytick_5">
     <g id="line2d_11">
      <g>
       <use xlink:href="#m732824471f" x="44.473594" y="58.045455" style="stroke: #000000; stroke-width: 0.8"/>
      </g>
     </g>
     <g id="text_12">
      <!-- 4 -->
      <g transform="translate(28.576094 63.771705) scale(0.16 -0.16)">
       <use xlink:href="#ArialMT-34"/>
      </g>
     </g>
    </g>
    <g id="ytick_6">
     <g id="line2d_12">
      <g>
       <use xlink:href="#m732824471f" x="44.473594" y="17.369091" style="stroke: #000000; stroke-width: 0.8"/>
      </g>
     </g>
     <g id="text_13">
      <!-- 5 -->
      <g transform="translate(28.576094 23.095341) scale(0.16 -0.16)">
       <use xlink:href="#ArialMT-35"/>
      </g>
     </g>
    </g>
    <g id="text_14">
     <!-- Amount -->
     <g transform="translate(20.799844 151.797891) rotate(-90) scale(0.19 -0.19)">
      <defs>
       <path id="ArialMT-41" d="M -9 0 
L 1750 4581 
L 2403 4581 
L 4278 0 
L 3588 0 
L 3053 1388 
L 1138 1388 
L 634 0 
L -9 0 
z
M 1313 1881 
L 2866 1881 
L 2388 3150 
Q 2169 3728 2063 4100 
Q 1975 3659 1816 3225 
L 1313 1881 
z
" transform="scale(0.015625)"/>
       <path id="ArialMT-6d" d="M 422 0 
L 422 3319 
L 925 3319 
L 925 2853 
Q 1081 3097 1340 3245 
Q 1600 3394 1931 3394 
Q 2300 3394 2536 3241 
Q 2772 3088 2869 2813 
Q 3263 3394 3894 3394 
Q 4388 3394 4653 3120 
Q 4919 2847 4919 2278 
L 4919 0 
L 4359 0 
L 4359 2091 
Q 4359 2428 4304 2576 
Q 4250 2725 4106 2815 
Q 3963 2906 3769 2906 
Q 3419 2906 3187 2673 
Q 2956 2441 2956 1928 
L 2956 0 
L 2394 0 
L 2394 2156 
Q 2394 2531 2256 2718 
Q 2119 2906 1806 2906 
Q 1569 2906 1367 2781 
Q 1166 2656 1075 2415 
Q 984 2175 984 1722 
L 984 0 
L 422 0 
z
" transform="scale(0.015625)"/>
       <path id="ArialMT-6f" d="M 213 1659 
Q 213 2581 725 3025 
Q 1153 3394 1769 3394 
Q 2453 3394 2887 2945 
Q 3322 2497 3322 1706 
Q 3322 1066 3130 698 
Q 2938 331 2570 128 
Q 2203 -75 1769 -75 
Q 1072 -75 642 372 
Q 213 819 213 1659 
z
M 791 1659 
Q 791 1022 1069 705 
Q 1347 388 1769 388 
Q 2188 388 2466 706 
Q 2744 1025 2744 1678 
Q 2744 2294 2464 2611 
Q 2184 2928 1769 2928 
Q 1347 2928 1069 2612 
Q 791 2297 791 1659 
z
" transform="scale(0.015625)"/>
       <path id="ArialMT-75" d="M 2597 0 
L 2597 488 
Q 2209 -75 1544 -75 
Q 1250 -75 995 37 
Q 741 150 617 320 
Q 494 491 444 738 
Q 409 903 409 1263 
L 409 3319 
L 972 3319 
L 972 1478 
Q 972 1038 1006 884 
Q 1059 663 1231 536 
Q 1403 409 1656 409 
Q 1909 409 2131 539 
Q 2353 669 2445 892 
Q 2538 1116 2538 1541 
L 2538 3319 
L 3100 3319 
L 3100 0 
L 2597 0 
z
" transform="scale(0.015625)"/>
       <path id="ArialMT-6e" d="M 422 0 
L 422 3319 
L 928 3319 
L 928 2847 
Q 1294 3394 1984 3394 
Q 2284 3394 2536 3286 
Q 2788 3178 2913 3003 
Q 3038 2828 3088 2588 
Q 3119 2431 3119 2041 
L 3119 0 
L 2556 0 
L 2556 2019 
Q 2556 2363 2490 2533 
Q 2425 2703 2258 2804 
Q 2091 2906 1866 2906 
Q 1506 2906 1245 2678 
Q 984 2450 984 1813 
L 984 0 
L 422 0 
z
" transform="scale(0.015625)"/>
       <path id="ArialMT-74" d="M 1650 503 
L 1731 6 
Q 1494 -44 1306 -44 
Q 1000 -44 831 53 
Q 663 150 594 308 
Q 525 466 525 972 
L 525 2881 
L 113 2881 
L 113 3319 
L 525 3319 
L 525 4141 
L 1084 4478 
L 1084 3319 
L 1650 3319 
L 1650 2881 
L 1084 2881 
L 1084 941 
Q 1084 700 1114 631 
Q 1144 563 1211 522 
Q 1278 481 1403 481 
Q 1497 481 1650 503 
z
" transform="scale(0.015625)"/>
      </defs>
      <use xlink:href="#ArialMT-41"/>
      <use xlink:href="#ArialMT-6d" x="66.699219"/>
      <use xlink:href="#ArialMT-6f" x="150"/>
      <use xlink:href="#ArialMT-75" x="205.615234"/>
      <use xlink:href="#ArialMT-6e" x="261.230469"/>
      <use xlink:href="#ArialMT-74" x="316.845703"/>
     </g>
    </g>
   </g>
   <g id="line2d_13">
    <path d="M 55.917344 192.785909 
L 57.347813 192.785909 
L 58.063047 195.328182 
L 60.923984 195.328182 
L 61.639219 205.497273 
L 63.069688 205.497273 
L 63.784922 202.955 
L 64.500156 202.955 
L 65.215391 210.581818 
L 65.930625 210.581818 
L 66.645859 218.208636 
L 68.076328 218.208636 
L 68.791562 210.581818 
L 69.506797 210.581818 
L 70.222031 208.039545 
L 70.937266 208.039545 
L 71.6525 202.955 
L 73.082969 202.955 
L 73.798203 192.785909 
L 74.513438 192.785909 
L 75.228672 195.328182 
L 76.659141 195.328182 
L 77.374375 192.785909 
L 78.089609 182.616818 
L 78.804844 180.074545 
L 79.520078 180.074545 
L 80.950547 174.99 
L 81.665781 177.532273 
L 82.381016 172.447727 
L 83.09625 177.532273 
L 83.811484 177.532273 
L 84.526719 169.905455 
L 85.241953 180.074545 
L 88.102891 180.074545 
L 88.818125 182.616818 
L 89.533359 192.785909 
L 90.248594 195.328182 
L 90.963828 195.328182 
L 91.679063 200.412727 
L 92.394297 202.955 
L 93.109531 197.870455 
L 93.824766 202.955 
L 95.255234 202.955 
L 95.970469 210.581818 
L 98.831406 210.581818 
L 99.546641 202.955 
L 100.261875 202.955 
L 101.692344 197.870455 
L 102.407578 197.870455 
L 103.122812 202.955 
L 103.838047 202.955 
L 104.553281 200.412727 
L 105.268516 190.243636 
L 105.98375 190.243636 
L 106.698984 182.616818 
L 108.129453 182.616818 
L 108.844687 180.074545 
L 110.275156 180.074545 
L 110.990391 187.701364 
L 111.705625 187.701364 
L 112.420859 190.243636 
L 113.136094 185.159091 
L 113.851328 185.159091 
L 114.566562 180.074545 
L 115.281797 180.074545 
L 115.997031 187.701364 
L 116.712266 197.870455 
L 117.4275 195.328182 
L 118.142734 202.955 
L 119.573203 202.955 
L 120.288437 205.497273 
L 123.864609 205.497273 
L 124.579844 213.124091 
L 125.295078 213.124091 
L 126.010312 218.208636 
L 126.725547 215.666364 
L 127.440781 205.497273 
L 128.156016 205.497273 
L 128.87125 208.039545 
L 129.586484 208.039545 
L 130.301719 200.412727 
L 132.447422 200.412727 
L 133.162656 190.243636 
L 134.593125 190.243636 
L 135.308359 185.159091 
L 136.023594 185.159091 
L 136.738828 182.616818 
L 137.454062 182.616818 
L 138.169297 172.447727 
L 138.884531 177.532273 
L 139.599766 177.532273 
L 141.030234 157.194091 
L 141.745469 159.736364 
L 142.460703 149.567273 
L 143.891172 139.398182 
L 144.606406 147.025 
L 145.321641 144.482727 
L 146.036875 139.398182 
L 146.752109 141.940455 
L 147.467344 136.855909 
L 148.897812 131.771364 
L 149.613047 139.398182 
L 150.328281 141.940455 
L 151.043516 139.398182 
L 151.75875 147.025 
L 152.473984 152.109545 
L 153.189219 152.109545 
L 153.904453 157.194091 
L 155.334922 157.194091 
L 156.050156 154.651818 
L 157.480625 154.651818 
L 158.911094 159.736364 
L 159.626328 164.820909 
L 160.341562 167.363182 
L 161.056797 172.447727 
L 161.772031 159.736364 
L 163.2025 164.820909 
L 163.917734 169.905455 
L 164.632969 169.905455 
L 165.348203 174.99 
L 166.063437 177.532273 
L 166.778672 182.616818 
L 167.493906 185.159091 
L 168.209141 177.532273 
L 168.924375 172.447727 
L 169.639609 172.447727 
L 170.354844 167.363182 
L 171.070078 164.820909 
L 171.785312 164.820909 
L 172.500547 154.651818 
L 173.215781 169.905455 
L 173.931016 169.905455 
L 175.361484 154.651818 
L 176.076719 154.651818 
L 176.791953 152.109545 
L 177.507187 154.651818 
L 178.222422 147.025 
L 178.937656 149.567273 
L 180.368125 169.905455 
L 181.083359 159.736364 
L 181.798594 167.363182 
L 182.513828 164.820909 
L 183.229062 164.820909 
L 183.944297 174.99 
L 184.659531 174.99 
L 185.374766 167.363182 
L 186.805234 182.616818 
L 187.520469 187.701364 
L 188.235703 190.243636 
L 188.950937 190.243636 
L 189.666172 197.870455 
L 190.381406 195.328182 
L 191.096641 187.701364 
L 191.811875 185.159091 
L 192.527109 187.701364 
L 193.242344 185.159091 
L 193.957578 190.243636 
L 195.388047 190.243636 
L 196.103281 182.616818 
L 196.818516 180.074545 
L 198.248984 180.074545 
L 198.964219 167.363182 
L 199.679453 162.278636 
L 200.394687 162.278636 
L 201.109922 159.736364 
L 201.825156 149.567273 
L 202.540391 157.194091 
L 203.255625 149.567273 
L 203.970859 152.109545 
L 204.686094 147.025 
L 205.401328 147.025 
L 206.116562 139.398182 
L 206.831797 129.229091 
L 207.547031 136.855909 
L 208.262266 147.025 
L 209.692734 147.025 
L 210.407969 159.736364 
L 211.123203 164.820909 
L 211.838437 164.820909 
L 213.268906 169.905455 
L 213.984141 169.905455 
L 215.414609 180.074545 
L 216.129844 187.701364 
L 216.845078 185.159091 
L 217.560312 192.785909 
L 218.275547 202.955 
L 218.990781 202.955 
L 219.706016 197.870455 
L 221.136484 197.870455 
L 221.851719 190.243636 
L 222.566953 187.701364 
L 223.997422 167.363182 
L 224.712656 159.736364 
L 225.427891 159.736364 
L 226.143125 157.194091 
L 226.858359 157.194091 
L 227.573594 154.651818 
L 228.288828 157.194091 
L 229.719297 141.940455 
L 230.434531 139.398182 
L 231.865 124.144545 
L 232.580234 121.602273 
L 233.295469 129.229091 
L 234.010703 131.771364 
L 234.725937 141.940455 
L 235.441172 141.940455 
L 236.156406 154.651818 
L 236.871641 141.940455 
L 238.302109 121.602273 
L 239.017344 124.144545 
L 239.732578 124.144545 
L 240.447812 121.602273 
L 241.163047 121.602273 
L 241.878281 124.144545 
L 242.593516 136.855909 
L 243.30875 136.855909 
L 244.739219 126.686818 
L 245.454453 126.686818 
L 246.169687 121.602273 
L 246.884922 126.686818 
L 247.600156 124.144545 
L 248.315391 131.771364 
L 249.030625 147.025 
L 249.745859 157.194091 
L 251.176328 157.194091 
L 251.891562 167.363182 
L 252.606797 172.447727 
L 254.037266 172.447727 
L 255.467734 187.701364 
L 256.182969 182.616818 
L 256.898203 167.363182 
L 257.613437 162.278636 
L 258.328672 167.363182 
L 259.043906 169.905455 
L 259.759141 174.99 
L 260.474375 172.447727 
L 263.335312 172.447727 
L 264.050547 174.99 
L 267.626719 174.99 
L 268.341953 180.074545 
L 269.057187 182.616818 
L 269.772422 182.616818 
L 270.487656 187.701364 
L 271.202891 185.159091 
L 272.633359 185.159091 
L 273.348594 177.532273 
L 274.779062 177.532273 
L 275.494297 167.363182 
L 276.209531 167.363182 
L 276.924766 162.278636 
L 277.64 162.278636 
L 278.355234 157.194091 
L 279.070469 159.736364 
L 280.500937 154.651818 
L 281.931406 124.144545 
L 282.646641 124.144545 
L 283.361875 116.517727 
L 284.077109 106.348636 
L 284.792344 98.721818 
L 286.222812 63.13 
L 286.938047 58.045455 
L 287.653281 50.418636 
L 288.368516 45.334091 
L 289.08375 37.707273 
L 289.798984 27.538182 
L 290.514219 30.080455 
L 291.229453 42.791818 
L 291.944687 47.876364 
L 292.659922 63.13 
L 293.375156 63.13 
L 294.090391 60.587727 
L 294.805625 68.214545 
L 295.520859 70.756818 
L 296.236094 78.383636 
L 297.666562 113.975455 
L 298.381797 121.602273 
L 299.097031 124.144545 
L 299.812266 134.313636 
L 300.5275 141.940455 
L 301.242734 157.194091 
L 301.957969 162.278636 
L 302.673203 157.194091 
L 303.388437 162.278636 
L 304.103672 162.278636 
L 304.818906 172.447727 
L 306.249375 182.616818 
L 307.679844 197.870455 
L 308.395078 192.785909 
L 309.110312 192.785909 
L 309.825547 200.412727 
L 311.97125 200.412727 
L 313.401719 169.905455 
L 314.116953 174.99 
L 314.832187 169.905455 
L 315.547422 167.363182 
L 317.693125 144.482727 
L 319.123594 144.482727 
L 319.838828 149.567273 
L 321.269297 149.567273 
L 321.984531 144.482727 
L 322.699766 129.229091 
L 323.415 116.517727 
L 324.130234 121.602273 
L 324.845469 121.602273 
L 326.991172 91.095 
L 327.706406 88.552727 
L 328.421641 96.179545 
L 329.136875 98.721818 
L 330.567344 88.552727 
L 331.282578 86.010455 
L 332.713047 75.841364 
L 333.428281 83.468182 
L 334.143516 96.179545 
L 335.573984 111.433182 
L 336.289219 126.686818 
L 337.004453 121.602273 
L 338.434922 131.771364 
L 339.150156 139.398182 
L 339.865391 131.771364 
L 341.295859 141.940455 
L 342.011094 139.398182 
L 343.441562 113.975455 
L 344.872031 98.721818 
L 345.587266 96.179545 
L 346.3025 101.264091 
L 347.017734 101.264091 
L 347.732969 96.179545 
L 348.448203 101.264091 
L 349.878672 106.348636 
L 350.593906 106.348636 
L 351.309141 103.806364 
L 352.024375 88.552727 
L 352.739609 78.383636 
L 353.454844 86.010455 
L 354.170078 101.264091 
L 354.885312 101.264091 
L 355.600547 106.348636 
L 356.315781 108.890909 
L 357.031016 113.975455 
L 358.461484 98.721818 
L 359.176719 93.637273 
L 359.891953 86.010455 
L 360.607187 91.095 
L 362.037656 96.179545 
L 362.752891 103.806364 
L 363.468125 116.517727 
L 364.183359 121.602273 
L 365.613828 111.433182 
L 366.329062 124.144545 
L 367.759531 129.229091 
L 368.474766 124.144545 
L 369.19 126.686818 
L 369.905234 131.771364 
L 370.620469 139.398182 
L 371.335703 154.651818 
L 372.050937 152.109545 
L 372.766172 136.855909 
L 374.196641 111.433182 
L 374.911875 101.264091 
L 375.627109 88.552727 
L 376.342344 83.468182 
L 377.057578 70.756818 
L 377.772812 60.587727 
L 378.488047 52.960909 
L 379.918516 42.791818 
L 380.63375 35.165 
L 381.348984 40.249545 
L 382.064219 35.165 
L 382.779453 19.911364 
L 383.494687 24.995909 
L 384.209922 32.622727 
L 384.925156 32.622727 
L 385.640391 37.707273 
L 386.355625 40.249545 
L 387.070859 45.334091 
L 387.786094 42.791818 
L 388.501328 50.418636 
L 389.216562 63.13 
L 390.647031 83.468182 
L 391.362266 88.552727 
L 392.792734 83.468182 
L 393.507969 83.468182 
L 394.223203 93.637273 
L 394.938437 93.637273 
L 396.368906 108.890909 
L 397.084141 103.806364 
L 397.799375 96.179545 
L 398.514609 98.721818 
L 399.229844 108.890909 
L 399.945078 108.890909 
L 401.375547 78.383636 
L 402.090781 73.299091 
L 402.806016 75.841364 
L 403.52125 88.552727 
L 404.236484 88.552727 
L 405.666953 93.637273 
L 406.382187 88.552727 
L 407.097422 80.925909 
L 407.812656 88.552727 
L 408.527891 98.721818 
L 409.243125 113.975455 
L 409.958359 119.06 
L 410.673594 116.517727 
L 411.388828 124.144545 
L 412.104062 139.398182 
L 412.819297 152.109545 
L 413.534531 154.651818 
L 414.965 154.651818 
L 415.680234 141.940455 
L 416.395469 136.855909 
L 417.110703 134.313636 
L 417.825937 129.229091 
L 418.541172 129.229091 
L 419.256406 124.144545 
L 420.686875 108.890909 
L 421.402109 113.975455 
L 422.117344 108.890909 
L 422.832578 93.637273 
L 424.263047 68.214545 
L 424.978281 63.13 
L 425.693516 47.876364 
L 426.40875 47.876364 
L 427.123984 60.587727 
L 428.554453 70.756818 
L 429.269687 78.383636 
L 430.700156 88.552727 
L 431.415391 96.179545 
L 432.130625 101.264091 
L 432.845859 96.179545 
L 433.561094 101.264091 
L 434.276328 116.517727 
L 434.991562 126.686818 
L 435.706797 141.940455 
L 436.422031 144.482727 
L 437.137266 144.482727 
L 438.567734 129.229091 
L 439.282969 129.229091 
L 439.998203 126.686818 
L 440.713437 121.602273 
L 441.428672 108.890909 
L 442.143906 98.721818 
L 442.859141 93.637273 
L 444.289609 93.637273 
L 445.004844 96.179545 
L 445.720078 93.637273 
L 446.435312 93.637273 
L 447.150547 91.095 
L 447.865781 93.637273 
L 448.581016 106.348636 
L 449.29625 111.433182 
L 450.011484 119.06 
L 451.441953 119.06 
L 452.157187 121.602273 
L 452.872422 136.855909 
L 453.587656 147.025 
L 454.302891 152.109545 
L 455.018125 154.651818 
L 459.309531 154.651818 
L 460.74 159.736364 
L 461.455234 159.736364 
L 462.170469 162.278636 
L 462.885703 162.278636 
L 463.600937 164.820909 
L 464.316172 164.820909 
L 465.031406 162.278636 
L 467.177109 162.278636 
L 467.892344 159.736364 
L 469.322812 164.820909 
L 471.468516 164.820909 
L 472.18375 162.278636 
L 473.614219 162.278636 
L 474.329453 164.820909 
L 475.759922 164.820909 
L 477.190391 169.905455 
L 478.620859 169.905455 
L 479.336094 172.447727 
L 480.051328 172.447727 
L 480.766562 169.905455 
L 481.481797 169.905455 
L 482.912266 164.820909 
L 483.6275 167.363182 
L 485.773203 167.363182 
L 486.488437 164.820909 
L 490.064609 164.820909 
L 491.495078 159.736364 
L 492.210312 159.736364 
L 492.925547 162.278636 
L 493.640781 162.278636 
L 494.356016 164.820909 
L 495.786484 159.736364 
L 496.501719 159.736364 
L 497.216953 157.194091 
L 497.932187 159.736364 
L 498.647422 159.736364 
L 499.362656 157.194091 
L 500.077891 157.194091 
L 500.793125 154.651818 
L 500.793125 154.651818 
" style="fill: none; stroke: #c9aae6; stroke-width: 2; stroke-linecap: square"/>
   </g>
   <g id="line2d_14">
    <path d="M 55.917344 19.911364 
L 58.778281 19.911364 
L 59.493516 17.369091 
L 98.116172 17.369091 
L 100.261875 24.995909 
L 100.977109 30.080455 
L 101.692344 32.622727 
L 108.129453 32.622727 
L 108.844687 35.165 
L 109.559922 35.165 
L 111.705625 27.538182 
L 112.420859 22.453636 
L 113.136094 19.911364 
L 113.851328 19.911364 
L 114.566562 22.453636 
L 119.573203 22.453636 
L 120.288437 19.911364 
L 125.295078 19.911364 
L 126.010312 17.369091 
L 130.301719 17.369091 
L 132.447422 24.995909 
L 133.877891 35.165 
L 136.023594 58.045455 
L 136.738828 63.13 
L 141.745469 116.517727 
L 143.175937 126.686818 
L 143.891172 134.313636 
L 145.321641 144.482727 
L 146.036875 147.025 
L 146.752109 152.109545 
L 147.467344 154.651818 
L 148.182578 162.278636 
L 154.619687 208.039545 
L 156.765391 215.666364 
L 157.480625 215.666364 
L 158.195859 213.124091 
L 158.911094 213.124091 
L 161.056797 197.870455 
L 163.917734 167.363182 
L 164.632969 157.194091 
L 166.778672 134.313636 
L 167.493906 124.144545 
L 168.209141 111.433182 
L 168.924375 103.806364 
L 169.639609 93.637273 
L 170.354844 86.010455 
L 171.070078 80.925909 
L 172.500547 75.841364 
L 175.361484 75.841364 
L 176.076719 80.925909 
L 176.791953 83.468182 
L 178.222422 83.468182 
L 178.937656 86.010455 
L 179.652891 91.095 
L 180.368125 93.637273 
L 181.083359 98.721818 
L 182.513828 103.806364 
L 183.229062 103.806364 
L 183.944297 101.264091 
L 185.374766 101.264091 
L 186.805234 96.179545 
L 188.235703 80.925909 
L 188.950937 75.841364 
L 191.096641 68.214545 
L 192.527109 68.214545 
L 193.957578 63.13 
L 194.672812 63.13 
L 195.388047 65.672273 
L 196.818516 65.672273 
L 198.248984 70.756818 
L 200.394687 86.010455 
L 202.540391 93.637273 
L 203.970859 93.637273 
L 205.401328 98.721818 
L 213.984141 98.721818 
L 214.699375 96.179545 
L 216.129844 96.179545 
L 216.845078 93.637273 
L 217.560312 88.552727 
L 219.706016 80.925909 
L 221.136484 70.756818 
L 221.851719 68.214545 
L 222.566953 63.13 
L 223.997422 58.045455 
L 225.427891 58.045455 
L 226.143125 60.587727 
L 227.573594 60.587727 
L 228.288828 63.13 
L 229.004062 70.756818 
L 230.434531 80.925909 
L 231.149766 83.468182 
L 232.580234 93.637273 
L 233.295469 96.179545 
L 234.010703 101.264091 
L 235.441172 106.348636 
L 239.732578 106.348636 
L 241.878281 98.721818 
L 244.023984 98.721818 
L 245.454453 93.637273 
L 246.169687 93.637273 
L 249.745859 80.925909 
L 252.606797 60.587727 
L 253.322031 58.045455 
L 255.467734 58.045455 
L 256.898203 68.214545 
L 257.613437 70.756818 
L 259.043906 80.925909 
L 261.189609 88.552727 
L 264.050547 108.890909 
L 264.765781 111.433182 
L 266.19625 111.433182 
L 266.911484 108.890909 
L 267.626719 103.806364 
L 269.057187 88.552727 
L 270.487656 78.383636 
L 274.063828 78.383636 
L 275.494297 73.299091 
L 277.64 73.299091 
L 279.070469 78.383636 
L 279.785703 86.010455 
L 280.500937 91.095 
L 281.216172 93.637273 
L 281.931406 98.721818 
L 282.646641 101.264091 
L 283.361875 101.264091 
L 285.507578 108.890909 
L 286.938047 119.06 
L 289.798984 129.229091 
L 290.514219 129.229091 
L 291.229453 126.686818 
L 291.944687 129.229091 
L 292.659922 129.229091 
L 294.090391 124.144545 
L 294.805625 124.144545 
L 296.236094 119.06 
L 296.951328 113.975455 
L 301.242734 68.214545 
L 302.673203 58.045455 
L 303.388437 50.418636 
L 307.679844 19.911364 
L 308.395078 17.369091 
L 309.110312 17.369091 
L 310.540781 22.453636 
L 314.116953 47.876364 
L 317.693125 86.010455 
L 320.554062 106.348636 
L 321.269297 108.890909 
L 321.984531 113.975455 
L 325.560703 126.686818 
L 327.706406 126.686818 
L 328.421641 129.229091 
L 329.136875 134.313636 
L 332.713047 172.447727 
L 334.85875 187.701364 
L 335.573984 190.243636 
L 339.150156 190.243636 
L 339.865391 185.159091 
L 343.441562 147.025 
L 344.156797 141.940455 
L 346.3025 119.06 
L 347.017734 113.975455 
L 349.163437 106.348636 
L 350.593906 96.179545 
L 354.170078 96.179545 
L 354.885312 93.637273 
L 355.600547 86.010455 
L 356.315781 83.468182 
L 357.74625 83.468182 
L 359.891953 91.095 
L 360.607187 96.179545 
L 362.037656 116.517727 
L 362.752891 124.144545 
L 363.468125 129.229091 
L 365.613828 152.109545 
L 366.329062 162.278636 
L 367.044297 174.99 
L 367.759531 185.159091 
L 369.19 200.412727 
L 369.905234 205.497273 
L 371.335703 210.581818 
L 372.050937 210.581818 
L 374.196641 195.328182 
L 374.911875 192.785909 
L 376.342344 182.616818 
L 377.057578 174.99 
L 381.348984 144.482727 
L 382.779453 139.398182 
L 383.494687 134.313636 
L 387.786094 134.313636 
L 388.501328 136.855909 
L 389.931797 136.855909 
L 392.792734 126.686818 
L 394.223203 126.686818 
L 394.938437 129.229091 
L 396.368906 129.229091 
L 398.514609 121.602273 
L 401.375547 121.602273 
L 402.806016 131.771364 
L 404.236484 147.025 
L 405.666953 157.194091 
L 406.382187 159.736364 
L 407.097422 159.736364 
L 407.812656 162.278636 
L 409.958359 185.159091 
L 412.819297 205.497273 
L 414.249766 210.581818 
L 414.965 208.039545 
L 416.395469 197.870455 
L 417.110703 190.243636 
L 417.825937 187.701364 
L 418.541172 187.701364 
L 419.256406 185.159091 
L 425.693516 139.398182 
L 426.40875 139.398182 
L 427.839219 149.567273 
L 428.554453 157.194091 
L 431.415391 177.532273 
L 436.422031 195.328182 
L 437.137266 195.328182 
L 437.8525 192.785909 
L 439.282969 177.532273 
L 442.859141 152.109545 
L 443.574375 152.109545 
L 447.865781 167.363182 
L 449.29625 177.532273 
L 450.726719 192.785909 
L 454.302891 218.208636 
L 455.018125 220.750909 
L 500.793125 220.750909 
L 500.793125 220.750909 
" style="fill: none; stroke: #7b3bb7; stroke-width: 2; stroke-linecap: square"/>
   </g>
   <g id="line2d_15">
    <path d="M 90.248594 230.92 
L 90.248594 7.2 
" clip-path="url(#p8a43e226fa)" style="fill: none; stroke-dasharray: 3.7,1.6; stroke-dashoffset: 0; stroke: #808080; stroke-opacity: 0.3"/>
   </g>
   <g id="line2d_16">
    <path d="M 136.023594 230.92 
L 136.023594 7.2 
" clip-path="url(#p8a43e226fa)" style="fill: none; stroke-dasharray: 3.7,1.6; stroke-dashoffset: 0; stroke: #808080; stroke-opacity: 0.3"/>
   </g>
   <g id="line2d_17">
    <path d="M 181.798594 230.92 
L 181.798594 7.2 
" clip-path="url(#p8a43e226fa)" style="fill: none; stroke-dasharray: 3.7,1.6; stroke-dashoffset: 0; stroke: #808080; stroke-opacity: 0.3"/>
   </g>
   <g id="line2d_18">
    <path d="M 227.573594 230.92 
L 227.573594 7.2 
" clip-path="url(#p8a43e226fa)" style="fill: none; stroke-dasharray: 3.7,1.6; stroke-dashoffset: 0; stroke: #808080; stroke-opacity: 0.3"/>
   </g>
   <g id="line2d_19">
    <path d="M 273.348594 230.92 
L 273.348594 7.2 
" clip-path="url(#p8a43e226fa)" style="fill: none; stroke-dasharray: 3.7,1.6; stroke-dashoffset: 0; stroke: #808080; stroke-opacity: 0.3"/>
   </g>
   <g id="line2d_20">
    <path d="M 319.123594 230.92 
L 319.123594 7.2 
" clip-path="url(#p8a43e226fa)" style="fill: none; stroke-dasharray: 3.7,1.6; stroke-dashoffset: 0; stroke: #808080; stroke-opacity: 0.3"/>
   </g>
   <g id="line2d_21">
    <path d="M 364.898594 230.92 
L 364.898594 7.2 
" clip-path="url(#p8a43e226fa)" style="fill: none; stroke-dasharray: 3.7,1.6; stroke-dashoffset: 0; stroke: #808080; stroke-opacity: 0.3"/>
   </g>
   <g id="line2d_22">
    <path d="M 410.673594 230.92 
L 410.673594 7.2 
" clip-path="url(#p8a43e226fa)" style="fill: none; stroke-dasharray: 3.7,1.6; stroke-dashoffset: 0; stroke: #808080; stroke-opacity: 0.3"/>
   </g>
   <g id="line2d_23">
    <path d="M 456.448594 230.92 
L 456.448594 7.2 
" clip-path="url(#p8a43e226fa)" style="fill: none; stroke-dasharray: 3.7,1.6; stroke-dashoffset: 0; stroke: #808080; stroke-opacity: 0.3"/>
   </g>
   <g id="patch_3">
    <path d="M 44.473594 230.92 
L 44.473594 7.2 
" style="fill: none; stroke: #000000; stroke-width: 2; stroke-linejoin: miter; stroke-linecap: square"/>
   </g>
   <g id="patch_4">
    <path d="M 44.473594 230.92 
L 502.223594 230.92 
" style="fill: none; stroke: #000000; stroke-width: 2; stroke-linejoin: miter; stroke-linecap: square"/>
   </g>
   <g id="legend_1">
    <g id="patch_5">
     <path d="M 434.840781 61.635937 
L 560.386094 61.635937 
Q 563.386094 61.635937 563.386094 58.635937 
L 563.386094 17.7 
Q 563.386094 14.7 560.386094 14.7 
L 434.840781 14.7 
Q 431.840781 14.7 431.840781 17.7 
L 431.840781 58.635937 
Q 431.840781 61.635937 434.840781 61.635937 
L 434.840781 61.635937 
z
" style="fill: none; opacity: 0"/>
    </g>
    <g id="line2d_24">
     <path d="M 437.840781 26.186719 
L 452.840781 26.186719 
L 467.840781 26.186719 
" style="fill: none; stroke: #c9aae6; stroke-width: 2; stroke-linecap: square"/>
    </g>
    <g id="text_15">
     <!-- Exploitation -->
     <g transform="translate(479.840781 31.436719) scale(0.15 -0.15)">
      <defs>
       <path id="ArialMT-45" d="M 506 0 
L 506 4581 
L 3819 4581 
L 3819 4041 
L 1113 4041 
L 1113 2638 
L 3647 2638 
L 3647 2100 
L 1113 2100 
L 1113 541 
L 3925 541 
L 3925 0 
L 506 0 
z
" transform="scale(0.015625)"/>
       <path id="ArialMT-78" d="M 47 0 
L 1259 1725 
L 138 3319 
L 841 3319 
L 1350 2541 
Q 1494 2319 1581 2169 
Q 1719 2375 1834 2534 
L 2394 3319 
L 3066 3319 
L 1919 1756 
L 3153 0 
L 2463 0 
L 1781 1031 
L 1600 1309 
L 728 0 
L 47 0 
z
" transform="scale(0.015625)"/>
       <path id="ArialMT-70" d="M 422 -1272 
L 422 3319 
L 934 3319 
L 934 2888 
Q 1116 3141 1344 3267 
Q 1572 3394 1897 3394 
Q 2322 3394 2647 3175 
Q 2972 2956 3137 2557 
Q 3303 2159 3303 1684 
Q 3303 1175 3120 767 
Q 2938 359 2589 142 
Q 2241 -75 1856 -75 
Q 1575 -75 1351 44 
Q 1128 163 984 344 
L 984 -1272 
L 422 -1272 
z
M 931 1641 
Q 931 1000 1190 694 
Q 1450 388 1819 388 
Q 2194 388 2461 705 
Q 2728 1022 2728 1688 
Q 2728 2322 2467 2637 
Q 2206 2953 1844 2953 
Q 1484 2953 1207 2617 
Q 931 2281 931 1641 
z
" transform="scale(0.015625)"/>
      </defs>
      <use xlink:href="#ArialMT-45"/>
      <use xlink:href="#ArialMT-78" x="66.699219"/>
      <use xlink:href="#ArialMT-70" x="116.699219"/>
      <use xlink:href="#ArialMT-6c" x="172.314453"/>
      <use xlink:href="#ArialMT-6f" x="194.53125"/>
      <use xlink:href="#ArialMT-69" x="250.146484"/>
      <use xlink:href="#ArialMT-74" x="272.363281"/>
      <use xlink:href="#ArialMT-61" x="300.146484"/>
      <use xlink:href="#ArialMT-74" x="355.761719"/>
      <use xlink:href="#ArialMT-69" x="383.544922"/>
      <use xlink:href="#ArialMT-6f" x="405.761719"/>
      <use xlink:href="#ArialMT-6e" x="461.376953"/>
     </g>
    </g>
    <g id="line2d_25">
     <path d="M 437.840781 47.404687 
L 452.840781 47.404687 
L 467.840781 47.404687 
" style="fill: none; stroke: #7b3bb7; stroke-width: 2; stroke-linecap: square"/>
    </g>
    <g id="text_16">
     <!-- Exploration -->
     <g transform="translate(479.840781 52.654687) scale(0.15 -0.15)">
      <use xlink:href="#ArialMT-45"/>
      <use xlink:href="#ArialMT-78" x="66.699219"/>
      <use xlink:href="#ArialMT-70" x="116.699219"/>
      <use xlink:href="#ArialMT-6c" x="172.314453"/>
      <use xlink:href="#ArialMT-6f" x="194.53125"/>
      <use xlink:href="#ArialMT-72" x="250.146484"/>
      <use xlink:href="#ArialMT-61" x="283.447266"/>
      <use xlink:href="#ArialMT-74" x="339.0625"/>
      <use xlink:href="#ArialMT-69" x="366.845703"/>
      <use xlink:href="#ArialMT-6f" x="389.0625"/>
      <use xlink:href="#ArialMT-6e" x="444.677734"/>
     </g>
    </g>
   </g>
  </g>
 </g>
 <defs>
  <clipPath id="p8a43e226fa">
   <rect x="44.473594" y="7.2" width="457.75" height="223.72"/>
  </clipPath>
 </defs>
</svg>
