<?xml version="1.0" encoding="utf-8" standalone="no"?>
<!DOCTYPE svg PUBLIC "-//W3C//DTD SVG 1.1//EN"
  "http://www.w3.org/Graphics/SVG/1.1/DTD/svg11.dtd">
<svg xmlns:xlink="http://www.w3.org/1999/xlink" width="827.792031pt" height="421.84875pt" viewBox="0 0 827.792031 421.84875" xmlns="http://www.w3.org/2000/svg" version="1.1">
 <metadata>
  <rdf:RDF xmlns:dc="http://purl.org/dc/elements/1.1/" xmlns:cc="http://creativecommons.org/ns#" xmlns:rdf="http://www.w3.org/1999/02/22-rdf-syntax-ns#">
   <cc:Work>
    <dc:type rdf:resource="http://purl.org/dc/dcmitype/StillImage"/>
    <dc:date>2025-05-19T19:35:09.614840</dc:date>
    <dc:format>image/svg+xml</dc:format>
    <dc:creator>
     <cc:Agent>
      <dc:title>Matplotlib v3.8.4, https://matplotlib.org/</dc:title>
     </cc:Agent>
    </dc:creator>
   </cc:Work>
  </rdf:RDF>
 </metadata>
 <defs>
  <style type="text/css">*{stroke-linejoin: round; stroke-linecap: butt}</style>
 </defs>
 <g id="figure_1">
  <g id="patch_1">
   <path d="M 0 421.84875 
L 827.792031 421.84875 
L 827.792031 0 
L 0 0 
L 0 421.84875 
z
" style="fill: none"/>
  </g>
  <g id="axes_1">
   <g id="patch_2">
    <path d="M 9.717031 131.92 
L 255.392031 131.92 
L 255.392031 3.6 
L 9.717031 3.6 
L 9.717031 131.92 
z
" style="fill: none"/>
   </g>
   <g id="matplotlib.axis_1">
    <g id="xtick_1">
     <g id="line2d_1">
      <defs>
       <path id="m538f284895" d="M 0 0 
L 0 3.5 
" style="stroke: #000000; stroke-width: 0.8"/>
      </defs>
      <g>
       <use xlink:href="#m538f284895" x="9.717031" y="131.92" style="stroke: #000000; stroke-width: 0.8"/>
      </g>
     </g>
    </g>
    <g id="xtick_2">
     <g id="line2d_2">
      <g>
       <use xlink:href="#m538f284895" x="54.385213" y="131.92" style="stroke: #000000; stroke-width: 0.8"/>
      </g>
     </g>
    </g>
    <g id="xtick_3">
     <g id="line2d_3">
      <g>
       <use xlink:href="#m538f284895" x="99.053395" y="131.92" style="stroke: #000000; stroke-width: 0.8"/>
      </g>
     </g>
    </g>
    <g id="xtick_4">
     <g id="line2d_4">
      <g>
       <use xlink:href="#m538f284895" x="143.721577" y="131.92" style="stroke: #000000; stroke-width: 0.8"/>
      </g>
     </g>
    </g>
    <g id="xtick_5">
     <g id="line2d_5">
      <g>
       <use xlink:href="#m538f284895" x="188.389759" y="131.92" style="stroke: #000000; stroke-width: 0.8"/>
      </g>
     </g>
    </g>
    <g id="xtick_6">
     <g id="line2d_6">
      <g>
       <use xlink:href="#m538f284895" x="233.05794" y="131.92" style="stroke: #000000; stroke-width: 0.8"/>
      </g>
     </g>
    </g>
   </g>
   <g id="matplotlib.axis_2">
    <g id="ytick_1">
     <g id="line2d_7">
      <defs>
       <path id="m752613172b" d="M 0 0 
L -3.5 0 
" style="stroke: #000000; stroke-width: 0.8"/>
      </defs>
      <g>
       <use xlink:href="#m752613172b" x="9.717031" y="131.92" style="stroke: #000000; stroke-width: 0.8"/>
      </g>
     </g>
    </g>
    <g id="ytick_2">
     <g id="line2d_8">
      <g>
       <use xlink:href="#m752613172b" x="9.717031" y="67.76" style="stroke: #000000; stroke-width: 0.8"/>
      </g>
     </g>
    </g>
    <g id="ytick_3">
     <g id="line2d_9">
      <g>
       <use xlink:href="#m752613172b" x="9.717031" y="3.6" style="stroke: #000000; stroke-width: 0.8"/>
      </g>
     </g>
    </g>
   </g>
   <g id="line2d_10">
    <path d="M 15.300554 67.76 
L 15.649524 63.75 
L 16.696435 63.75 
L 17.045405 67.76 
L 17.394375 67.76 
L 17.743345 71.77 
L 18.441286 71.77 
L 18.790256 67.76 
L 19.139226 59.74 
L 19.488196 55.73 
L 19.837166 55.73 
L 20.186136 51.72 
L 20.535107 59.74 
L 21.233047 59.74 
L 21.582017 63.75 
L 21.930987 59.74 
L 22.977898 59.74 
L 23.326868 55.73 
L 23.675838 55.73 
L 24.024808 51.72 
L 24.373778 51.72 
L 24.722749 55.73 
L 25.071719 55.73 
L 25.420689 51.72 
L 26.467599 51.72 
L 26.81657 47.71 
L 27.51451 47.71 
L 27.86348 51.72 
L 28.21245 47.71 
L 28.56142 51.72 
L 29.608331 51.72 
L 29.957301 55.73 
L 30.306271 51.72 
L 32.749063 51.72 
L 33.098033 59.74 
L 33.447003 55.73 
L 33.795973 59.74 
L 34.144943 51.72 
L 34.842884 51.72 
L 35.191854 47.71 
L 35.540824 39.69 
L 35.889794 39.69 
L 36.238764 43.7 
L 36.587734 39.69 
L 36.936705 39.69 
L 37.285675 35.68 
L 37.634645 43.7 
L 37.983615 47.71 
L 38.681555 39.69 
L 39.030526 47.71 
L 39.379496 47.71 
L 39.728466 55.73 
L 40.077436 59.74 
L 40.426406 67.76 
L 41.473317 67.76 
L 41.822287 59.74 
L 42.171257 59.74 
L 42.869197 51.72 
L 43.218168 43.7 
L 43.916108 43.7 
L 44.265078 39.69 
L 44.614048 39.69 
L 44.963018 43.7 
L 45.660959 43.7 
L 46.009929 35.68 
L 46.358899 35.68 
L 46.707869 43.7 
L 47.75478 43.7 
L 48.10375 47.71 
L 48.80169 63.75 
L 49.150661 59.74 
L 49.499631 63.75 
L 49.848601 71.77 
L 50.197571 67.76 
L 50.895511 51.72 
L 51.244482 47.71 
L 51.593452 47.71 
L 51.942422 55.73 
L 52.291392 55.73 
L 52.989332 71.77 
L 53.338303 71.77 
L 53.687273 75.78 
L 54.036243 67.76 
L 54.385213 63.75 
L 54.734183 63.75 
L 55.083153 59.74 
L 55.432124 51.72 
L 56.130064 51.72 
L 56.828004 67.76 
L 57.176974 67.76 
L 57.525945 63.75 
L 57.874915 63.75 
L 58.572855 47.71 
L 59.619766 47.71 
L 59.968736 51.72 
L 60.317706 51.72 
L 61.015646 67.76 
L 61.713587 67.76 
L 62.411527 51.72 
L 62.760497 51.72 
L 63.109467 47.71 
L 63.458438 39.69 
L 63.807408 43.7 
L 64.505348 59.74 
L 64.854318 55.73 
L 65.203288 63.75 
L 65.552259 63.75 
L 65.901229 71.77 
L 66.250199 71.77 
L 66.599169 63.75 
L 66.948139 63.75 
L 67.64608 79.79 
L 67.99505 79.79 
L 68.34402 87.81 
L 68.69299 91.82 
L 69.04196 91.82 
L 69.39093 95.83 
L 69.739901 87.81 
L 70.088871 87.81 
L 70.437841 91.82 
L 70.786811 87.81 
L 71.135781 87.81 
L 71.833722 79.79 
L 72.182692 83.8 
L 72.531662 83.8 
L 72.880632 79.79 
L 74.276513 79.79 
L 74.625483 83.8 
L 74.974453 83.8 
L 75.323423 87.81 
L 75.672393 79.79 
L 76.021364 79.79 
L 76.370334 83.8 
L 77.417244 83.8 
L 77.766214 79.79 
L 78.464155 87.81 
L 78.813125 79.79 
L 79.162095 83.8 
L 80.209006 83.8 
L 80.557976 79.79 
L 80.906946 79.79 
L 81.255916 87.81 
L 81.953857 87.81 
L 82.302827 79.79 
L 83.000767 79.79 
L 83.349737 87.81 
L 84.047678 87.81 
L 84.396648 91.82 
L 84.745618 87.81 
L 85.094588 87.81 
L 85.443558 83.8 
L 85.792528 87.81 
L 86.141499 87.81 
L 86.490469 83.8 
L 86.839439 83.8 
L 87.537379 75.78 
L 88.58429 87.81 
L 88.93326 83.8 
L 89.6312 67.76 
L 89.98017 71.77 
L 90.678111 71.77 
L 91.027081 79.79 
L 91.376051 71.77 
L 91.725021 67.76 
L 92.073991 71.77 
L 92.771932 71.77 
L 93.120902 75.78 
L 94.167812 63.75 
L 95.214723 63.75 
L 95.563693 55.73 
L 95.912663 59.74 
L 96.610604 51.72 
L 96.959574 59.74 
L 97.657514 59.74 
L 98.006484 55.73 
L 98.355455 59.74 
L 99.053395 59.74 
L 99.402365 55.73 
L 99.751335 55.73 
L 100.100305 51.72 
L 100.798246 59.74 
L 101.147216 59.74 
L 101.845156 51.72 
L 102.194126 51.72 
L 102.543097 43.7 
L 102.892067 43.7 
L 103.241037 47.71 
L 103.938977 39.69 
L 104.287947 31.67 
L 104.985888 31.67 
L 105.334858 27.66 
L 105.683828 31.67 
L 106.381768 31.67 
L 106.730739 35.68 
L 107.428679 51.72 
L 108.475589 51.72 
L 108.82456 43.7 
L 109.17353 47.71 
L 109.5225 43.7 
L 110.569411 67.76 
L 110.918381 71.77 
L 111.267351 71.77 
L 111.965291 79.79 
L 112.314261 75.78 
L 112.663232 75.78 
L 113.012202 67.76 
L 113.361172 71.77 
L 113.710142 71.77 
L 114.059112 75.78 
L 114.757053 75.78 
L 115.106023 79.79 
L 115.454993 75.78 
L 116.152933 75.78 
L 116.501903 71.77 
L 117.199844 71.77 
L 117.548814 63.75 
L 117.897784 63.75 
L 118.246754 59.74 
L 118.944695 59.74 
L 119.293665 67.76 
L 119.642635 63.75 
L 119.991605 67.76 
L 120.689545 67.76 
L 121.038516 71.77 
L 121.387486 67.76 
L 121.736456 59.74 
L 122.085426 67.76 
L 122.434396 71.77 
L 122.783366 67.76 
L 123.481307 67.76 
L 124.179247 75.78 
L 124.877187 67.76 
L 126.273068 67.76 
L 126.622038 63.75 
L 126.971009 63.75 
L 127.319979 67.76 
L 127.668949 59.74 
L 128.017919 55.73 
L 128.366889 55.73 
L 128.715859 63.75 
L 129.06483 67.76 
L 129.4138 59.74 
L 129.76277 55.73 
L 130.80968 67.76 
L 131.507621 59.74 
L 131.856591 59.74 
L 132.205561 55.73 
L 132.554531 55.73 
L 132.903501 51.72 
L 133.601442 51.72 
L 133.950412 47.71 
L 134.299382 39.69 
L 134.648352 35.68 
L 135.346293 35.68 
L 136.044233 19.64 
L 137.091143 19.64 
L 137.440114 15.63 
L 138.138054 15.63 
L 138.487024 23.65 
L 138.835994 27.66 
L 139.184964 23.65 
L 139.533935 27.66 
L 140.929815 27.66 
L 141.278786 31.67 
L 141.627756 31.67 
L 141.976726 27.66 
L 142.674666 27.66 
L 143.372607 35.68 
L 144.419517 23.65 
L 144.768487 23.65 
L 145.117457 19.64 
L 145.466428 23.65 
L 148.258189 23.65 
L 148.607159 19.64 
L 149.65407 19.64 
L 150.00304 27.66 
L 150.70098 35.68 
L 151.04995 31.67 
L 152.096861 31.67 
L 152.445831 27.66 
L 152.794801 27.66 
L 153.143771 31.67 
L 154.190682 31.67 
L 154.539652 27.66 
L 154.888622 27.66 
L 155.935533 15.63 
L 156.633473 15.63 
L 156.982443 19.64 
L 158.378324 19.64 
L 158.727294 15.63 
L 159.774205 27.66 
L 160.123175 27.66 
L 160.472145 31.67 
L 160.821115 31.67 
L 161.170085 27.66 
L 161.519055 27.66 
L 161.868026 23.65 
L 162.216996 27.66 
L 162.565966 23.65 
L 164.310817 23.65 
L 165.357727 11.62 
L 165.706697 11.62 
L 166.055668 7.61 
L 167.451548 7.61 
L 167.800518 3.6 
L 170.59228 3.6 
L 170.94125 7.61 
L 175.477862 7.61 
L 175.826832 15.63 
L 176.175803 15.63 
L 176.524773 11.62 
L 181.061385 11.62 
L 181.410355 3.6 
L 185.249027 3.6 
L 185.597997 7.61 
L 188.389759 7.61 
L 188.389759 7.61 
" style="fill: none; stroke: #875443; stroke-opacity: 0.6; stroke-width: 2; stroke-linecap: square"/>
   </g>
   <g id="line2d_11">
    <path d="M 32.051122 131.92 
L 32.051122 3.6 
" clip-path="url(#pef795c74a2)" style="fill: none; stroke-dasharray: 3.7,1.6; stroke-dashoffset: 0; stroke: #808080; stroke-opacity: 0.3"/>
   </g>
   <g id="line2d_12">
    <path d="M 54.385213 131.92 
L 54.385213 3.6 
" clip-path="url(#pef795c74a2)" style="fill: none; stroke-dasharray: 3.7,1.6; stroke-dashoffset: 0; stroke: #808080; stroke-opacity: 0.3"/>
   </g>
   <g id="line2d_13">
    <path d="M 76.719304 131.92 
L 76.719304 3.6 
" clip-path="url(#pef795c74a2)" style="fill: none; stroke-dasharray: 3.7,1.6; stroke-dashoffset: 0; stroke: #808080; stroke-opacity: 0.3"/>
   </g>
   <g id="line2d_14">
    <path d="M 99.053395 131.92 
L 99.053395 3.6 
" clip-path="url(#pef795c74a2)" style="fill: none; stroke-dasharray: 3.7,1.6; stroke-dashoffset: 0; stroke: #808080; stroke-opacity: 0.3"/>
   </g>
   <g id="line2d_15">
    <path d="M 121.387486 131.92 
L 121.387486 3.6 
" clip-path="url(#pef795c74a2)" style="fill: none; stroke-dasharray: 3.7,1.6; stroke-dashoffset: 0; stroke: #808080; stroke-opacity: 0.3"/>
   </g>
   <g id="line2d_16">
    <path d="M 143.721577 131.92 
L 143.721577 3.6 
" clip-path="url(#pef795c74a2)" style="fill: none; stroke-dasharray: 3.7,1.6; stroke-dashoffset: 0; stroke: #808080; stroke-opacity: 0.3"/>
   </g>
   <g id="line2d_17">
    <path d="M 166.055668 131.92 
L 166.055668 3.6 
" clip-path="url(#pef795c74a2)" style="fill: none; stroke-dasharray: 3.7,1.6; stroke-dashoffset: 0; stroke: #808080; stroke-opacity: 0.3"/>
   </g>
   <g id="line2d_18">
    <path d="M 188.389759 131.92 
L 188.389759 3.6 
" clip-path="url(#pef795c74a2)" style="fill: none; stroke-dasharray: 3.7,1.6; stroke-dashoffset: 0; stroke: #808080; stroke-opacity: 0.3"/>
   </g>
   <g id="line2d_19">
    <path d="M 210.723849 131.92 
L 210.723849 3.6 
" clip-path="url(#pef795c74a2)" style="fill: none; stroke-dasharray: 3.7,1.6; stroke-dashoffset: 0; stroke: #808080; stroke-opacity: 0.3"/>
   </g>
   <g id="line2d_20">
    <path d="M 233.05794 131.92 
L 233.05794 3.6 
" clip-path="url(#pef795c74a2)" style="fill: none; stroke-dasharray: 3.7,1.6; stroke-dashoffset: 0; stroke: #808080; stroke-opacity: 0.3"/>
   </g>
   <g id="line2d_21">
    <path d="M 255.392031 131.92 
L 255.392031 3.6 
" clip-path="url(#pef795c74a2)" style="fill: none; stroke-dasharray: 3.7,1.6; stroke-dashoffset: 0; stroke: #808080; stroke-opacity: 0.3"/>
   </g>
   <g id="patch_3">
    <path d="M 9.717031 131.92 
L 9.717031 3.6 
" style="fill: none; stroke: #000000; stroke-width: 2; stroke-linejoin: miter; stroke-linecap: square"/>
   </g>
   <g id="patch_4">
    <path d="M 9.717031 131.92 
L 255.392031 131.92 
" style="fill: none; stroke: #000000; stroke-width: 2; stroke-linejoin: miter; stroke-linecap: square"/>
   </g>
   <g id="text_1">
    <!-- S18 -->
    <g transform="translate(198.627812 120.53525) scale(0.25 -0.25)">
     <defs>
      <path id="ArialMT-53" d="M 288 1472 
L 859 1522 
Q 900 1178 1048 958 
Q 1197 738 1509 602 
Q 1822 466 2213 466 
Q 2559 466 2825 569 
Q 3091 672 3220 851 
Q 3350 1031 3350 1244 
Q 3350 1459 3225 1620 
Q 3100 1781 2813 1891 
Q 2628 1963 1997 2114 
Q 1366 2266 1113 2400 
Q 784 2572 623 2826 
Q 463 3081 463 3397 
Q 463 3744 659 4045 
Q 856 4347 1234 4503 
Q 1613 4659 2075 4659 
Q 2584 4659 2973 4495 
Q 3363 4331 3572 4012 
Q 3781 3694 3797 3291 
L 3216 3247 
Q 3169 3681 2898 3903 
Q 2628 4125 2100 4125 
Q 1550 4125 1298 3923 
Q 1047 3722 1047 3438 
Q 1047 3191 1225 3031 
Q 1400 2872 2139 2705 
Q 2878 2538 3153 2413 
Q 3553 2228 3743 1945 
Q 3934 1663 3934 1294 
Q 3934 928 3725 604 
Q 3516 281 3123 101 
Q 2731 -78 2241 -78 
Q 1619 -78 1198 103 
Q 778 284 539 648 
Q 300 1013 288 1472 
z
" transform="scale(0.015625)"/>
      <path id="ArialMT-31" d="M 2384 0 
L 1822 0 
L 1822 3584 
Q 1619 3391 1289 3197 
Q 959 3003 697 2906 
L 697 3450 
Q 1169 3672 1522 3987 
Q 1875 4303 2022 4600 
L 2384 4600 
L 2384 0 
z
" transform="scale(0.015625)"/>
      <path id="ArialMT-38" d="M 1131 2484 
Q 781 2613 612 2850 
Q 444 3088 444 3419 
Q 444 3919 803 4259 
Q 1163 4600 1759 4600 
Q 2359 4600 2725 4251 
Q 3091 3903 3091 3403 
Q 3091 3084 2923 2848 
Q 2756 2613 2416 2484 
Q 2838 2347 3058 2040 
Q 3278 1734 3278 1309 
Q 3278 722 2862 322 
Q 2447 -78 1769 -78 
Q 1091 -78 675 323 
Q 259 725 259 1325 
Q 259 1772 486 2073 
Q 713 2375 1131 2484 
z
M 1019 3438 
Q 1019 3113 1228 2906 
Q 1438 2700 1772 2700 
Q 2097 2700 2305 2904 
Q 2513 3109 2513 3406 
Q 2513 3716 2298 3927 
Q 2084 4138 1766 4138 
Q 1444 4138 1231 3931 
Q 1019 3725 1019 3438 
z
M 838 1322 
Q 838 1081 952 856 
Q 1066 631 1291 507 
Q 1516 384 1775 384 
Q 2178 384 2440 643 
Q 2703 903 2703 1303 
Q 2703 1709 2433 1975 
Q 2163 2241 1756 2241 
Q 1359 2241 1098 1978 
Q 838 1716 838 1322 
z
" transform="scale(0.015625)"/>
     </defs>
     <use xlink:href="#ArialMT-53"/>
     <use xlink:href="#ArialMT-31" x="66.699219"/>
     <use xlink:href="#ArialMT-38" x="122.314453"/>
    </g>
   </g>
  </g>
  <g id="axes_2">
   <g id="patch_5">
    <path d="M 294.117031 131.92 
L 539.792031 131.92 
L 539.792031 3.6 
L 294.117031 3.6 
L 294.117031 131.92 
z
" style="fill: none"/>
   </g>
   <g id="matplotlib.axis_3">
    <g id="xtick_7">
     <g id="line2d_22">
      <g>
       <use xlink:href="#m538f284895" x="294.117031" y="131.92" style="stroke: #000000; stroke-width: 0.8"/>
      </g>
     </g>
    </g>
    <g id="xtick_8">
     <g id="line2d_23">
      <g>
       <use xlink:href="#m538f284895" x="338.785213" y="131.92" style="stroke: #000000; stroke-width: 0.8"/>
      </g>
     </g>
    </g>
    <g id="xtick_9">
     <g id="line2d_24">
      <g>
       <use xlink:href="#m538f284895" x="383.453395" y="131.92" style="stroke: #000000; stroke-width: 0.8"/>
      </g>
     </g>
    </g>
    <g id="xtick_10">
     <g id="line2d_25">
      <g>
       <use xlink:href="#m538f284895" x="428.121577" y="131.92" style="stroke: #000000; stroke-width: 0.8"/>
      </g>
     </g>
    </g>
    <g id="xtick_11">
     <g id="line2d_26">
      <g>
       <use xlink:href="#m538f284895" x="472.789759" y="131.92" style="stroke: #000000; stroke-width: 0.8"/>
      </g>
     </g>
    </g>
    <g id="xtick_12">
     <g id="line2d_27">
      <g>
       <use xlink:href="#m538f284895" x="517.45794" y="131.92" style="stroke: #000000; stroke-width: 0.8"/>
      </g>
     </g>
    </g>
   </g>
   <g id="matplotlib.axis_4">
    <g id="ytick_4">
     <g id="line2d_28">
      <g>
       <use xlink:href="#m752613172b" x="294.117031" y="131.92" style="stroke: #000000; stroke-width: 0.8"/>
      </g>
     </g>
    </g>
    <g id="ytick_5">
     <g id="line2d_29">
      <g>
       <use xlink:href="#m752613172b" x="294.117031" y="67.76" style="stroke: #000000; stroke-width: 0.8"/>
      </g>
     </g>
    </g>
    <g id="ytick_6">
     <g id="line2d_30">
      <g>
       <use xlink:href="#m752613172b" x="294.117031" y="3.6" style="stroke: #000000; stroke-width: 0.8"/>
      </g>
     </g>
    </g>
   </g>
   <g id="line2d_31">
    <path d="M 299.700554 103.85 
L 300.049524 111.87 
L 300.398494 107.86 
L 300.747464 111.87 
L 301.096435 107.86 
L 301.445405 99.84 
L 302.143345 91.82 
L 302.492315 83.8 
L 302.841286 79.79 
L 303.190256 79.79 
L 303.539226 75.78 
L 303.888196 67.76 
L 304.237166 71.77 
L 304.586136 71.77 
L 304.935107 67.76 
L 305.284077 67.76 
L 305.633047 59.74 
L 305.982017 59.74 
L 306.679957 51.72 
L 307.028928 51.72 
L 307.377898 47.71 
L 308.075838 47.71 
L 308.424808 43.7 
L 308.773778 35.68 
L 310.518629 35.68 
L 310.867599 27.66 
L 311.56554 35.68 
L 311.91451 35.68 
L 312.61245 51.72 
L 313.659361 51.72 
L 314.008331 59.74 
L 315.404212 59.74 
L 315.753182 51.72 
L 316.102152 51.72 
L 316.451122 59.74 
L 316.800092 55.73 
L 317.149062 47.71 
L 317.498033 55.73 
L 318.195973 47.71 
L 318.544943 47.71 
L 319.242884 55.73 
L 319.591854 51.72 
L 319.940824 55.73 
L 320.638764 55.73 
L 321.685675 67.76 
L 322.383615 67.76 
L 322.732585 75.78 
L 323.081555 67.76 
L 323.430526 63.75 
L 323.779496 63.75 
L 324.128466 71.77 
L 324.477436 75.78 
L 324.826406 75.78 
L 325.524347 83.8 
L 325.873317 79.79 
L 326.222287 79.79 
L 326.571257 71.77 
L 326.920227 67.76 
L 327.269197 59.74 
L 327.967138 59.74 
L 328.316108 51.72 
L 328.665078 51.72 
L 329.014048 55.73 
L 329.711989 47.71 
L 330.060959 39.69 
L 330.409929 35.68 
L 331.107869 19.64 
L 331.456839 27.66 
L 331.80581 27.66 
L 332.15478 31.67 
L 332.50375 31.67 
L 332.85272 39.69 
L 333.20169 35.68 
L 333.550661 39.69 
L 333.899631 47.71 
L 334.248601 47.71 
L 335.295511 59.74 
L 335.993452 59.74 
L 336.342422 67.76 
L 337.738303 67.76 
L 338.087273 71.77 
L 338.785213 63.75 
L 339.134183 63.75 
L 339.483153 59.74 
L 339.832124 63.75 
L 340.181094 63.75 
L 340.530064 59.74 
L 340.879034 51.72 
L 341.576974 51.72 
L 341.925945 43.7 
L 342.274915 51.72 
L 343.321825 51.72 
L 343.670795 47.71 
L 344.019766 51.72 
L 344.368736 51.72 
L 345.415646 39.69 
L 345.764616 31.67 
L 346.113587 35.68 
L 347.160497 35.68 
L 347.509467 43.7 
L 348.207408 27.66 
L 348.556378 27.66 
L 348.905348 23.65 
L 349.254318 27.66 
L 349.603288 23.65 
L 349.952259 27.66 
L 350.301229 27.66 
L 351.348139 39.69 
L 352.04608 39.69 
L 352.39505 43.7 
L 352.74402 43.7 
L 353.09299 35.68 
L 353.79093 35.68 
L 354.488871 43.7 
L 354.837841 43.7 
L 355.535781 35.68 
L 355.884751 35.68 
L 356.582692 27.66 
L 357.280632 27.66 
L 357.629602 35.68 
L 357.978572 31.67 
L 358.327543 39.69 
L 358.676513 39.69 
L 359.025483 43.7 
L 359.374453 43.7 
L 360.421364 31.67 
L 360.770334 31.67 
L 361.468274 47.71 
L 362.166214 47.71 
L 362.515185 51.72 
L 362.864155 47.71 
L 363.213125 39.69 
L 363.562095 43.7 
L 363.911065 35.68 
L 364.609006 35.68 
L 364.957976 39.69 
L 365.655916 55.73 
L 366.353857 55.73 
L 367.051797 39.69 
L 367.749737 39.69 
L 368.098707 31.67 
L 368.447678 39.69 
L 368.796648 39.69 
L 369.145618 35.68 
L 370.192528 35.68 
L 370.890469 27.66 
L 371.239439 19.64 
L 372.63532 19.64 
L 373.68223 31.67 
L 374.0312 23.65 
L 374.38017 23.65 
L 374.729141 27.66 
L 375.427081 27.66 
L 375.776051 23.65 
L 376.822962 23.65 
L 377.171932 27.66 
L 378.218842 27.66 
L 378.567813 23.65 
L 378.916783 27.66 
L 379.614723 27.66 
L 380.312663 35.68 
L 380.661634 35.68 
L 381.010604 43.7 
L 382.057514 55.73 
L 382.406484 55.73 
L 382.755455 59.74 
L 383.104425 67.76 
L 384.151335 67.76 
L 384.500305 63.75 
L 384.849276 63.75 
L 385.198246 67.76 
L 385.896186 59.74 
L 386.245156 63.75 
L 386.594126 55.73 
L 387.292067 47.71 
L 387.641037 39.69 
L 387.990007 43.7 
L 388.338977 43.7 
L 388.687947 35.68 
L 389.734858 35.68 
L 390.432798 27.66 
L 391.130739 27.66 
L 391.828679 19.64 
L 392.177649 23.65 
L 392.526619 23.65 
L 392.875589 27.66 
L 393.22456 27.66 
L 393.57353 23.65 
L 393.9225 15.63 
L 395.667351 15.63 
L 396.016321 19.64 
L 397.412202 19.64 
L 397.761172 15.63 
L 398.110142 15.63 
L 398.459112 11.62 
L 399.854993 11.62 
L 400.203963 19.64 
L 401.250874 19.64 
L 401.599844 15.63 
L 401.948814 19.64 
L 402.646754 19.64 
L 402.995724 23.65 
L 405.438516 23.65 
L 405.787486 15.63 
L 407.183366 15.63 
L 407.532337 7.61 
L 407.881307 15.63 
L 408.230277 15.63 
L 408.579247 11.62 
L 408.928217 15.63 
L 409.626158 15.63 
L 410.324098 23.65 
L 411.022038 23.65 
L 411.371009 31.67 
L 413.115859 31.67 
L 413.46483 23.65 
L 414.51174 23.65 
L 414.86071 27.66 
L 415.20968 27.66 
L 415.558651 31.67 
L 415.907621 31.67 
L 416.605561 39.69 
L 416.954531 31.67 
L 417.303501 31.67 
L 418.350412 43.7 
L 419.746293 43.7 
L 420.444233 35.68 
L 420.793203 35.68 
L 421.142173 27.66 
L 422.189084 15.63 
L 422.538054 15.63 
L 422.887024 19.64 
L 423.235994 19.64 
L 423.933935 11.62 
L 424.631875 11.62 
L 425.678786 23.65 
L 426.376726 23.65 
L 428.121577 43.7 
L 428.470547 43.7 
L 428.819517 39.69 
L 429.168487 39.69 
L 429.517457 47.71 
L 430.215398 55.73 
L 430.913338 47.71 
L 431.611278 55.73 
L 432.309219 55.73 
L 432.658189 51.72 
L 433.007159 51.72 
L 433.356129 55.73 
L 433.705099 55.73 
L 434.05407 51.72 
L 434.75201 59.74 
L 435.10098 51.72 
L 435.44995 51.72 
L 435.79892 55.73 
L 436.496861 55.73 
L 436.845831 47.71 
L 437.194801 43.7 
L 437.543771 43.7 
L 437.892741 39.69 
L 438.241712 39.69 
L 438.590682 35.68 
L 438.939652 27.66 
L 439.637592 27.66 
L 440.335533 19.64 
L 441.033473 19.64 
L 441.382443 11.62 
L 441.731413 15.63 
L 442.429354 15.63 
L 442.778324 23.65 
L 443.825234 23.65 
L 444.174205 27.66 
L 444.523175 27.66 
L 444.872145 23.65 
L 446.616996 23.65 
L 446.965966 27.66 
L 447.314936 23.65 
L 449.757727 23.65 
L 450.455668 31.67 
L 450.804638 31.67 
L 451.153608 35.68 
L 451.851548 35.68 
L 452.200518 31.67 
L 452.549489 35.68 
L 453.247429 35.68 
L 453.596399 43.7 
L 453.945369 39.69 
L 454.99228 39.69 
L 455.69022 31.67 
L 456.03919 35.68 
L 456.388161 35.68 
L 456.737131 31.67 
L 457.086101 31.67 
L 457.435071 35.68 
L 457.784041 35.68 
L 458.133011 31.67 
L 458.830952 31.67 
L 459.179922 27.66 
L 460.575803 43.7 
L 461.273743 43.7 
L 461.622713 35.68 
L 462.320653 35.68 
L 462.669624 39.69 
L 463.018594 35.68 
L 463.367564 39.69 
L 463.716534 39.69 
L 464.065504 43.7 
L 464.763445 43.7 
L 466.159325 27.66 
L 467.904176 27.66 
L 468.253146 23.65 
L 468.602116 27.66 
L 469.300057 27.66 
L 469.649027 23.65 
L 469.997997 27.66 
L 470.346967 27.66 
L 470.695938 23.65 
L 471.393878 23.65 
L 471.742848 27.66 
L 473.138729 27.66 
L 473.836669 35.68 
L 474.534609 27.66 
L 474.88358 27.66 
L 475.23255 31.67 
L 475.58152 31.67 
L 475.93049 27.66 
L 476.977401 27.66 
L 477.326371 23.65 
L 478.024311 23.65 
L 478.722251 31.67 
L 479.071222 27.66 
L 479.420192 31.67 
L 479.769162 31.67 
L 480.467102 39.69 
L 480.816072 35.68 
L 481.165043 35.68 
L 481.514013 39.69 
L 481.862983 39.69 
L 482.211953 47.71 
L 483.258864 47.71 
L 483.607834 51.72 
L 483.956804 51.72 
L 484.305774 47.71 
L 484.654744 51.72 
L 485.003714 43.7 
L 485.352685 43.7 
L 486.050625 35.68 
L 486.399595 39.69 
L 487.097536 31.67 
L 487.446506 35.68 
L 488.144446 35.68 
L 488.493416 39.69 
L 488.842386 39.69 
L 489.191357 35.68 
L 489.540327 35.68 
L 489.889297 43.7 
L 490.238267 39.69 
L 490.936207 47.71 
L 491.285178 47.71 
L 491.983118 39.69 
L 493.030028 51.72 
L 493.378999 47.71 
L 494.425909 59.74 
L 494.774879 59.74 
L 495.123849 55.73 
L 495.82179 55.73 
L 496.17076 51.72 
L 496.51973 51.72 
L 496.8687 55.73 
L 497.915611 55.73 
L 498.264581 59.74 
L 498.613551 51.72 
L 499.311491 43.7 
L 499.660462 43.7 
L 500.009432 47.71 
L 501.754283 47.71 
L 502.452223 39.69 
L 503.150163 39.69 
L 503.499134 35.68 
L 503.848104 27.66 
L 504.895014 27.66 
L 505.592955 11.62 
L 506.290895 11.62 
L 506.639865 3.6 
L 506.988835 3.6 
L 507.337805 11.62 
L 510.129567 11.62 
L 510.478537 19.64 
L 512.223388 19.64 
L 512.572358 27.66 
L 512.921328 19.64 
L 514.317209 19.64 
L 514.666179 23.65 
L 517.806911 23.65 
L 518.155881 15.63 
L 518.504851 19.64 
L 519.900732 19.64 
L 520.249702 15.63 
L 521.296612 15.63 
L 521.645582 7.61 
L 523.739403 7.61 
L 524.088374 3.6 
L 525.484254 3.6 
L 525.833224 11.62 
L 531.067777 11.62 
L 531.416747 3.6 
L 539.443061 3.6 
L 539.792031 7.61 
L 539.792031 7.61 
" style="fill: none; stroke: #875443; stroke-opacity: 0.6; stroke-width: 2; stroke-linecap: square"/>
   </g>
   <g id="line2d_32">
    <path d="M 316.451122 131.92 
L 316.451122 3.6 
" clip-path="url(#p48cf06c97e)" style="fill: none; stroke-dasharray: 3.7,1.6; stroke-dashoffset: 0; stroke: #808080; stroke-opacity: 0.3"/>
   </g>
   <g id="line2d_33">
    <path d="M 338.785213 131.92 
L 338.785213 3.6 
" clip-path="url(#p48cf06c97e)" style="fill: none; stroke-dasharray: 3.7,1.6; stroke-dashoffset: 0; stroke: #808080; stroke-opacity: 0.3"/>
   </g>
   <g id="line2d_34">
    <path d="M 361.119304 131.92 
L 361.119304 3.6 
" clip-path="url(#p48cf06c97e)" style="fill: none; stroke-dasharray: 3.7,1.6; stroke-dashoffset: 0; stroke: #808080; stroke-opacity: 0.3"/>
   </g>
   <g id="line2d_35">
    <path d="M 383.453395 131.92 
L 383.453395 3.6 
" clip-path="url(#p48cf06c97e)" style="fill: none; stroke-dasharray: 3.7,1.6; stroke-dashoffset: 0; stroke: #808080; stroke-opacity: 0.3"/>
   </g>
   <g id="line2d_36">
    <path d="M 405.787486 131.92 
L 405.787486 3.6 
" clip-path="url(#p48cf06c97e)" style="fill: none; stroke-dasharray: 3.7,1.6; stroke-dashoffset: 0; stroke: #808080; stroke-opacity: 0.3"/>
   </g>
   <g id="line2d_37">
    <path d="M 428.121577 131.92 
L 428.121577 3.6 
" clip-path="url(#p48cf06c97e)" style="fill: none; stroke-dasharray: 3.7,1.6; stroke-dashoffset: 0; stroke: #808080; stroke-opacity: 0.3"/>
   </g>
   <g id="line2d_38">
    <path d="M 450.455668 131.92 
L 450.455668 3.6 
" clip-path="url(#p48cf06c97e)" style="fill: none; stroke-dasharray: 3.7,1.6; stroke-dashoffset: 0; stroke: #808080; stroke-opacity: 0.3"/>
   </g>
   <g id="line2d_39">
    <path d="M 472.789759 131.92 
L 472.789759 3.6 
" clip-path="url(#p48cf06c97e)" style="fill: none; stroke-dasharray: 3.7,1.6; stroke-dashoffset: 0; stroke: #808080; stroke-opacity: 0.3"/>
   </g>
   <g id="line2d_40">
    <path d="M 495.123849 131.92 
L 495.123849 3.6 
" clip-path="url(#p48cf06c97e)" style="fill: none; stroke-dasharray: 3.7,1.6; stroke-dashoffset: 0; stroke: #808080; stroke-opacity: 0.3"/>
   </g>
   <g id="line2d_41">
    <path d="M 517.45794 131.92 
L 517.45794 3.6 
" clip-path="url(#p48cf06c97e)" style="fill: none; stroke-dasharray: 3.7,1.6; stroke-dashoffset: 0; stroke: #808080; stroke-opacity: 0.3"/>
   </g>
   <g id="line2d_42">
    <path d="M 539.792031 131.92 
L 539.792031 3.6 
" clip-path="url(#p48cf06c97e)" style="fill: none; stroke-dasharray: 3.7,1.6; stroke-dashoffset: 0; stroke: #808080; stroke-opacity: 0.3"/>
   </g>
   <g id="patch_6">
    <path d="M 294.117031 131.92 
L 294.117031 3.6 
" style="fill: none; stroke: #000000; stroke-width: 2; stroke-linejoin: miter; stroke-linecap: square"/>
   </g>
   <g id="patch_7">
    <path d="M 294.117031 131.92 
L 539.792031 131.92 
" style="fill: none; stroke: #000000; stroke-width: 2; stroke-linejoin: miter; stroke-linecap: square"/>
   </g>
   <g id="text_2">
    <!-- S20 -->
    <g transform="translate(483.027812 120.53525) scale(0.25 -0.25)">
     <defs>
      <path id="ArialMT-32" d="M 3222 541 
L 3222 0 
L 194 0 
Q 188 203 259 391 
Q 375 700 629 1000 
Q 884 1300 1366 1694 
Q 2113 2306 2375 2664 
Q 2638 3022 2638 3341 
Q 2638 3675 2398 3904 
Q 2159 4134 1775 4134 
Q 1369 4134 1125 3890 
Q 881 3647 878 3216 
L 300 3275 
Q 359 3922 746 4261 
Q 1134 4600 1788 4600 
Q 2447 4600 2831 4234 
Q 3216 3869 3216 3328 
Q 3216 3053 3103 2787 
Q 2991 2522 2730 2228 
Q 2469 1934 1863 1422 
Q 1356 997 1212 845 
Q 1069 694 975 541 
L 3222 541 
z
" transform="scale(0.015625)"/>
      <path id="ArialMT-30" d="M 266 2259 
Q 266 3072 433 3567 
Q 600 4063 929 4331 
Q 1259 4600 1759 4600 
Q 2128 4600 2406 4451 
Q 2684 4303 2865 4023 
Q 3047 3744 3150 3342 
Q 3253 2941 3253 2259 
Q 3253 1453 3087 958 
Q 2922 463 2592 192 
Q 2263 -78 1759 -78 
Q 1097 -78 719 397 
Q 266 969 266 2259 
z
M 844 2259 
Q 844 1131 1108 757 
Q 1372 384 1759 384 
Q 2147 384 2411 759 
Q 2675 1134 2675 2259 
Q 2675 3391 2411 3762 
Q 2147 4134 1753 4134 
Q 1366 4134 1134 3806 
Q 844 3388 844 2259 
z
" transform="scale(0.015625)"/>
     </defs>
     <use xlink:href="#ArialMT-53"/>
     <use xlink:href="#ArialMT-32" x="66.699219"/>
     <use xlink:href="#ArialMT-30" x="122.314453"/>
    </g>
   </g>
  </g>
  <g id="axes_3">
   <g id="patch_8">
    <path d="M 578.517031 131.92 
L 824.192031 131.92 
L 824.192031 3.6 
L 578.517031 3.6 
L 578.517031 131.92 
z
" style="fill: none"/>
   </g>
   <g id="matplotlib.axis_5">
    <g id="xtick_13">
     <g id="line2d_43">
      <g>
       <use xlink:href="#m538f284895" x="578.517031" y="131.92" style="stroke: #000000; stroke-width: 0.8"/>
      </g>
     </g>
    </g>
    <g id="xtick_14">
     <g id="line2d_44">
      <g>
       <use xlink:href="#m538f284895" x="623.185213" y="131.92" style="stroke: #000000; stroke-width: 0.8"/>
      </g>
     </g>
    </g>
    <g id="xtick_15">
     <g id="line2d_45">
      <g>
       <use xlink:href="#m538f284895" x="667.853395" y="131.92" style="stroke: #000000; stroke-width: 0.8"/>
      </g>
     </g>
    </g>
    <g id="xtick_16">
     <g id="line2d_46">
      <g>
       <use xlink:href="#m538f284895" x="712.521577" y="131.92" style="stroke: #000000; stroke-width: 0.8"/>
      </g>
     </g>
    </g>
    <g id="xtick_17">
     <g id="line2d_47">
      <g>
       <use xlink:href="#m538f284895" x="757.189759" y="131.92" style="stroke: #000000; stroke-width: 0.8"/>
      </g>
     </g>
    </g>
    <g id="xtick_18">
     <g id="line2d_48">
      <g>
       <use xlink:href="#m538f284895" x="801.85794" y="131.92" style="stroke: #000000; stroke-width: 0.8"/>
      </g>
     </g>
    </g>
   </g>
   <g id="matplotlib.axis_6">
    <g id="ytick_7">
     <g id="line2d_49">
      <g>
       <use xlink:href="#m752613172b" x="578.517031" y="131.92" style="stroke: #000000; stroke-width: 0.8"/>
      </g>
     </g>
    </g>
    <g id="ytick_8">
     <g id="line2d_50">
      <g>
       <use xlink:href="#m752613172b" x="578.517031" y="67.76" style="stroke: #000000; stroke-width: 0.8"/>
      </g>
     </g>
    </g>
    <g id="ytick_9">
     <g id="line2d_51">
      <g>
       <use xlink:href="#m752613172b" x="578.517031" y="3.6" style="stroke: #000000; stroke-width: 0.8"/>
      </g>
     </g>
    </g>
   </g>
   <g id="line2d_52">
    <path d="M 584.100554 83.8 
L 584.449524 79.79 
L 585.147464 79.79 
L 585.496435 75.78 
L 585.845405 75.78 
L 586.194375 83.8 
L 586.543345 83.8 
L 586.892315 79.79 
L 587.241286 79.79 
L 587.939226 87.81 
L 588.288196 83.8 
L 588.637166 83.8 
L 588.986136 87.81 
L 589.335107 87.81 
L 589.684077 79.79 
L 590.033047 83.8 
L 591.777898 83.8 
L 592.126868 79.79 
L 592.824808 87.81 
L 593.173778 83.8 
L 593.871719 91.82 
L 594.220689 91.82 
L 594.569659 83.8 
L 594.918629 87.81 
L 595.267599 87.81 
L 595.96554 95.83 
L 596.31451 95.83 
L 596.66348 99.84 
L 597.01245 95.83 
L 597.36142 87.81 
L 597.710391 95.83 
L 598.059361 87.81 
L 598.757301 87.81 
L 599.106271 83.8 
L 599.455241 75.78 
L 599.804212 71.77 
L 600.153182 71.77 
L 600.502152 63.75 
L 600.851122 71.77 
L 601.200092 67.76 
L 601.549062 59.74 
L 601.898033 55.73 
L 602.247003 47.71 
L 602.595973 43.7 
L 603.991854 43.7 
L 604.689794 51.72 
L 605.736705 51.72 
L 606.085675 59.74 
L 606.434645 59.74 
L 607.132585 67.76 
L 607.481555 63.75 
L 608.528466 87.81 
L 608.877436 79.79 
L 609.226406 83.8 
L 609.924347 83.8 
L 610.273317 75.78 
L 610.622287 83.8 
L 610.971257 87.81 
L 611.320227 95.83 
L 611.669197 87.81 
L 612.018168 87.81 
L 612.367138 83.8 
L 612.716108 83.8 
L 613.065078 91.82 
L 613.414048 91.82 
L 613.763018 83.8 
L 614.111989 83.8 
L 614.460959 87.81 
L 615.158899 79.79 
L 615.507869 71.77 
L 615.856839 75.78 
L 616.20581 71.77 
L 616.55478 75.78 
L 616.90375 67.76 
L 617.25272 67.76 
L 617.60169 59.74 
L 617.950661 63.75 
L 618.648601 55.73 
L 618.997571 55.73 
L 619.346541 59.74 
L 619.695511 59.74 
L 620.044482 55.73 
L 620.393452 63.75 
L 620.742422 59.74 
L 621.091392 63.75 
L 621.440362 59.74 
L 621.789332 59.74 
L 622.138303 51.72 
L 622.487273 59.74 
L 622.836243 63.75 
L 623.185213 71.77 
L 623.534183 67.76 
L 623.883153 75.78 
L 624.581094 67.76 
L 624.930064 71.77 
L 625.279034 71.77 
L 625.628004 75.78 
L 625.976974 71.77 
L 626.674915 79.79 
L 627.023885 87.81 
L 627.721825 95.83 
L 628.070795 87.81 
L 628.419766 91.82 
L 628.768736 91.82 
L 629.117706 95.83 
L 629.466676 87.81 
L 629.815646 95.83 
L 630.513587 95.83 
L 630.862557 87.81 
L 631.211527 83.8 
L 631.560497 87.81 
L 632.258438 79.79 
L 632.607408 71.77 
L 633.305348 71.77 
L 633.654318 75.78 
L 634.003288 71.77 
L 634.701229 55.73 
L 635.050199 55.73 
L 635.399169 47.71 
L 635.748139 51.72 
L 636.097109 43.7 
L 636.44608 43.7 
L 636.79505 51.72 
L 637.14402 51.72 
L 637.49299 55.73 
L 637.84196 51.72 
L 638.19093 59.74 
L 638.539901 59.74 
L 638.888871 55.73 
L 639.237841 59.74 
L 639.586811 55.73 
L 639.935781 59.74 
L 640.982692 59.74 
L 641.331662 51.72 
L 641.680632 59.74 
L 642.029602 59.74 
L 642.727543 43.7 
L 643.425483 43.7 
L 644.123423 35.68 
L 644.472393 39.69 
L 644.821364 35.68 
L 645.519304 35.68 
L 645.868274 39.69 
L 646.915185 39.69 
L 647.264155 35.68 
L 647.962095 43.7 
L 648.311065 43.7 
L 648.660036 39.69 
L 649.009006 43.7 
L 649.706946 35.68 
L 650.055916 35.68 
L 650.404886 31.67 
L 650.753857 39.69 
L 651.451797 31.67 
L 652.149737 31.67 
L 652.498707 39.69 
L 653.545618 27.66 
L 653.894588 27.66 
L 654.243558 31.67 
L 654.592528 31.67 
L 654.941499 39.69 
L 655.988409 39.69 
L 656.337379 31.67 
L 656.686349 39.69 
L 657.73326 51.72 
L 658.08223 43.7 
L 658.4312 43.7 
L 658.78017 47.71 
L 659.129141 47.71 
L 659.478111 55.73 
L 659.827081 51.72 
L 660.176051 55.73 
L 660.525021 51.72 
L 660.873991 51.72 
L 661.222962 47.71 
L 661.571932 55.73 
L 662.269872 55.73 
L 662.618842 51.72 
L 662.967813 51.72 
L 663.316783 47.71 
L 663.665753 55.73 
L 664.363693 63.75 
L 664.712663 63.75 
L 665.061634 59.74 
L 665.410604 63.75 
L 666.108544 55.73 
L 666.457514 59.74 
L 666.806484 67.76 
L 667.155455 59.74 
L 667.853395 59.74 
L 668.202365 67.76 
L 668.551335 63.75 
L 668.900305 63.75 
L 669.249276 55.73 
L 669.947216 47.71 
L 670.296186 47.71 
L 670.645156 43.7 
L 670.994126 47.71 
L 671.343097 47.71 
L 671.692067 51.72 
L 672.041037 47.71 
L 672.390007 39.69 
L 672.738977 43.7 
L 673.087947 51.72 
L 673.785888 35.68 
L 674.134858 39.69 
L 674.483828 47.71 
L 675.181768 47.71 
L 675.879709 55.73 
L 676.228679 63.75 
L 676.577649 63.75 
L 677.275589 55.73 
L 678.3225 55.73 
L 678.67147 51.72 
L 679.369411 51.72 
L 679.718381 47.71 
L 680.067351 39.69 
L 680.416321 43.7 
L 681.463232 43.7 
L 681.812202 39.69 
L 682.161172 31.67 
L 682.510142 31.67 
L 683.557053 43.7 
L 683.906023 39.69 
L 684.254993 39.69 
L 685.301903 51.72 
L 685.650874 59.74 
L 685.999844 63.75 
L 686.348814 63.75 
L 686.697784 55.73 
L 687.395724 47.71 
L 687.744695 51.72 
L 688.093665 51.72 
L 688.442635 55.73 
L 689.140575 47.71 
L 689.489545 47.71 
L 689.838516 51.72 
L 690.187486 47.71 
L 690.536456 47.71 
L 690.885426 51.72 
L 691.932337 51.72 
L 692.630277 59.74 
L 692.979247 67.76 
L 693.328217 63.75 
L 693.677187 71.77 
L 694.026158 67.76 
L 694.375128 75.78 
L 694.724098 79.79 
L 695.073068 87.81 
L 695.422038 87.81 
L 695.771009 95.83 
L 696.119979 99.84 
L 696.468949 99.84 
L 697.166889 91.82 
L 697.515859 91.82 
L 698.2138 99.84 
L 699.26071 99.84 
L 699.60968 103.85 
L 699.958651 95.83 
L 700.307621 99.84 
L 700.656591 99.84 
L 701.005561 91.82 
L 701.354531 91.82 
L 701.703501 87.81 
L 702.052472 79.79 
L 702.401442 83.8 
L 702.750412 79.79 
L 703.448352 79.79 
L 703.797322 75.78 
L 704.146293 75.78 
L 704.495263 83.8 
L 704.844233 75.78 
L 705.193203 75.78 
L 705.542173 83.8 
L 705.891143 75.78 
L 706.240114 71.77 
L 706.589084 79.79 
L 707.984964 79.79 
L 708.333935 83.8 
L 708.682905 83.8 
L 709.031875 75.78 
L 709.380845 71.77 
L 709.729815 71.77 
L 710.078786 63.75 
L 710.427756 67.76 
L 711.125696 51.72 
L 711.474666 51.72 
L 711.823636 47.71 
L 712.172607 39.69 
L 712.870547 31.67 
L 713.568487 31.67 
L 713.917457 27.66 
L 714.615398 35.68 
L 714.964368 35.68 
L 715.313338 27.66 
L 715.662308 27.66 
L 716.011278 23.65 
L 716.360249 23.65 
L 716.709219 31.67 
L 718.80304 31.67 
L 719.15201 27.66 
L 719.50098 27.66 
L 720.19892 19.64 
L 720.547891 19.64 
L 720.896861 23.65 
L 721.943771 23.65 
L 722.292741 15.63 
L 722.990682 15.63 
L 723.339652 19.64 
L 723.688622 15.63 
L 724.037592 23.65 
L 724.386562 27.66 
L 724.735533 23.65 
L 725.782443 23.65 
L 726.131413 27.66 
L 726.480384 23.65 
L 728.574205 23.65 
L 728.923175 19.64 
L 729.272145 19.64 
L 729.621115 11.62 
L 729.970085 7.61 
L 731.365966 7.61 
L 731.714936 3.6 
L 732.063906 3.6 
L 732.761847 11.62 
L 736.251548 11.62 
L 736.600518 19.64 
L 737.996399 19.64 
L 738.345369 15.63 
L 739.04331 15.63 
L 739.39228 19.64 
L 740.788161 19.64 
L 741.137131 27.66 
L 741.835071 27.66 
L 742.184041 19.64 
L 742.533011 23.65 
L 742.881982 23.65 
L 743.230952 31.67 
L 743.579922 35.68 
L 744.626832 35.68 
L 744.975803 31.67 
L 746.371683 31.67 
L 746.720653 23.65 
L 747.767564 23.65 
L 748.465504 31.67 
L 749.163445 15.63 
L 753.351087 15.63 
L 753.700057 7.61 
L 754.049027 3.6 
L 754.746967 3.6 
L 755.095937 7.61 
L 757.887699 7.61 
L 758.236669 15.63 
L 763.471222 15.63 
L 763.820192 7.61 
L 764.169162 15.63 
L 765.565043 15.63 
L 765.914013 23.65 
L 766.262983 19.64 
L 766.611953 27.66 
L 769.403714 27.66 
L 769.752685 19.64 
L 771.148565 19.64 
L 771.497536 11.62 
L 771.846506 11.62 
L 772.195476 3.6 
L 775.685178 3.6 
L 776.034148 11.62 
L 776.732088 11.62 
L 777.081058 15.63 
L 780.57076 15.63 
L 780.91973 23.65 
L 781.2687 23.65 
L 781.61767 15.63 
L 782.315611 15.63 
L 782.664581 19.64 
L 783.013551 19.64 
L 783.362521 23.65 
L 786.154283 23.65 
L 786.503253 15.63 
L 787.550163 15.63 
L 787.899134 19.64 
L 788.248104 11.62 
L 788.597074 11.62 
L 788.946044 7.61 
L 790.690895 7.61 
L 791.039865 15.63 
L 793.133686 15.63 
L 793.482656 11.62 
L 796.274418 11.62 
L 796.623388 3.6 
L 797.321328 3.6 
L 797.670298 7.61 
L 799.764119 7.61 
L 800.113089 15.63 
L 801.85794 15.63 
L 801.85794 15.63 
" style="fill: none; stroke: #875443; stroke-opacity: 0.6; stroke-width: 2; stroke-linecap: square"/>
   </g>
   <g id="line2d_53">
    <path d="M 600.851122 131.92 
L 600.851122 3.6 
" clip-path="url(#pa77abb2141)" style="fill: none; stroke-dasharray: 3.7,1.6; stroke-dashoffset: 0; stroke: #808080; stroke-opacity: 0.3"/>
   </g>
   <g id="line2d_54">
    <path d="M 623.185213 131.92 
L 623.185213 3.6 
" clip-path="url(#pa77abb2141)" style="fill: none; stroke-dasharray: 3.7,1.6; stroke-dashoffset: 0; stroke: #808080; stroke-opacity: 0.3"/>
   </g>
   <g id="line2d_55">
    <path d="M 645.519304 131.92 
L 645.519304 3.6 
" clip-path="url(#pa77abb2141)" style="fill: none; stroke-dasharray: 3.7,1.6; stroke-dashoffset: 0; stroke: #808080; stroke-opacity: 0.3"/>
   </g>
   <g id="line2d_56">
    <path d="M 667.853395 131.92 
L 667.853395 3.6 
" clip-path="url(#pa77abb2141)" style="fill: none; stroke-dasharray: 3.7,1.6; stroke-dashoffset: 0; stroke: #808080; stroke-opacity: 0.3"/>
   </g>
   <g id="line2d_57">
    <path d="M 690.187486 131.92 
L 690.187486 3.6 
" clip-path="url(#pa77abb2141)" style="fill: none; stroke-dasharray: 3.7,1.6; stroke-dashoffset: 0; stroke: #808080; stroke-opacity: 0.3"/>
   </g>
   <g id="line2d_58">
    <path d="M 712.521577 131.92 
L 712.521577 3.6 
" clip-path="url(#pa77abb2141)" style="fill: none; stroke-dasharray: 3.7,1.6; stroke-dashoffset: 0; stroke: #808080; stroke-opacity: 0.3"/>
   </g>
   <g id="line2d_59">
    <path d="M 734.855668 131.92 
L 734.855668 3.6 
" clip-path="url(#pa77abb2141)" style="fill: none; stroke-dasharray: 3.7,1.6; stroke-dashoffset: 0; stroke: #808080; stroke-opacity: 0.3"/>
   </g>
   <g id="line2d_60">
    <path d="M 757.189759 131.92 
L 757.189759 3.6 
" clip-path="url(#pa77abb2141)" style="fill: none; stroke-dasharray: 3.7,1.6; stroke-dashoffset: 0; stroke: #808080; stroke-opacity: 0.3"/>
   </g>
   <g id="line2d_61">
    <path d="M 779.523849 131.92 
L 779.523849 3.6 
" clip-path="url(#pa77abb2141)" style="fill: none; stroke-dasharray: 3.7,1.6; stroke-dashoffset: 0; stroke: #808080; stroke-opacity: 0.3"/>
   </g>
   <g id="line2d_62">
    <path d="M 801.85794 131.92 
L 801.85794 3.6 
" clip-path="url(#pa77abb2141)" style="fill: none; stroke-dasharray: 3.7,1.6; stroke-dashoffset: 0; stroke: #808080; stroke-opacity: 0.3"/>
   </g>
   <g id="line2d_63">
    <path d="M 824.192031 131.92 
L 824.192031 3.6 
" clip-path="url(#pa77abb2141)" style="fill: none; stroke-dasharray: 3.7,1.6; stroke-dashoffset: 0; stroke: #808080; stroke-opacity: 0.3"/>
   </g>
   <g id="patch_9">
    <path d="M 578.517031 131.92 
L 578.517031 3.6 
" style="fill: none; stroke: #000000; stroke-width: 2; stroke-linejoin: miter; stroke-linecap: square"/>
   </g>
   <g id="patch_10">
    <path d="M 578.517031 131.92 
L 824.192031 131.92 
" style="fill: none; stroke: #000000; stroke-width: 2; stroke-linejoin: miter; stroke-linecap: square"/>
   </g>
   <g id="text_3">
    <!-- S23 -->
    <g transform="translate(767.427812 120.53525) scale(0.25 -0.25)">
     <defs>
      <path id="ArialMT-33" d="M 269 1209 
L 831 1284 
Q 928 806 1161 595 
Q 1394 384 1728 384 
Q 2125 384 2398 659 
Q 2672 934 2672 1341 
Q 2672 1728 2419 1979 
Q 2166 2231 1775 2231 
Q 1616 2231 1378 2169 
L 1441 2663 
Q 1497 2656 1531 2656 
Q 1891 2656 2178 2843 
Q 2466 3031 2466 3422 
Q 2466 3731 2256 3934 
Q 2047 4138 1716 4138 
Q 1388 4138 1169 3931 
Q 950 3725 888 3313 
L 325 3413 
Q 428 3978 793 4289 
Q 1159 4600 1703 4600 
Q 2078 4600 2393 4439 
Q 2709 4278 2876 4000 
Q 3044 3722 3044 3409 
Q 3044 3113 2884 2869 
Q 2725 2625 2413 2481 
Q 2819 2388 3044 2092 
Q 3269 1797 3269 1353 
Q 3269 753 2831 336 
Q 2394 -81 1725 -81 
Q 1122 -81 723 278 
Q 325 638 269 1209 
z
" transform="scale(0.015625)"/>
     </defs>
     <use xlink:href="#ArialMT-53"/>
     <use xlink:href="#ArialMT-32" x="66.699219"/>
     <use xlink:href="#ArialMT-33" x="122.314453"/>
    </g>
   </g>
  </g>
  <g id="axes_4">
   <g id="patch_11">
    <path d="M 9.717031 359.12 
L 255.392031 359.12 
L 255.392031 230.8 
L 9.717031 230.8 
L 9.717031 359.12 
z
" style="fill: none"/>
   </g>
   <g id="matplotlib.axis_7">
    <g id="xtick_19">
     <g id="line2d_64">
      <g>
       <use xlink:href="#m538f284895" x="9.717031" y="359.12" style="stroke: #000000; stroke-width: 0.8"/>
      </g>
     </g>
     <g id="text_4">
      <!-- 0 -->
      <g transform="translate(3.6 381.867187) scale(0.22 -0.22)">
       <use xlink:href="#ArialMT-30"/>
      </g>
     </g>
    </g>
    <g id="xtick_20">
     <g id="line2d_65">
      <g>
       <use xlink:href="#m538f284895" x="54.385213" y="359.12" style="stroke: #000000; stroke-width: 0.8"/>
      </g>
     </g>
     <g id="text_5">
      <!-- 128 -->
      <g transform="translate(36.034119 381.867187) scale(0.22 -0.22)">
       <use xlink:href="#ArialMT-31"/>
       <use xlink:href="#ArialMT-32" x="55.615234"/>
       <use xlink:href="#ArialMT-38" x="111.230469"/>
      </g>
     </g>
    </g>
    <g id="xtick_21">
     <g id="line2d_66">
      <g>
       <use xlink:href="#m538f284895" x="99.053395" y="359.12" style="stroke: #000000; stroke-width: 0.8"/>
      </g>
     </g>
     <g id="text_6">
      <!-- 256 -->
      <g transform="translate(80.702301 381.867187) scale(0.22 -0.22)">
       <defs>
        <path id="ArialMT-35" d="M 266 1200 
L 856 1250 
Q 922 819 1161 601 
Q 1400 384 1738 384 
Q 2144 384 2425 690 
Q 2706 997 2706 1503 
Q 2706 1984 2436 2262 
Q 2166 2541 1728 2541 
Q 1456 2541 1237 2417 
Q 1019 2294 894 2097 
L 366 2166 
L 809 4519 
L 3088 4519 
L 3088 3981 
L 1259 3981 
L 1013 2750 
Q 1425 3038 1878 3038 
Q 2478 3038 2890 2622 
Q 3303 2206 3303 1553 
Q 3303 931 2941 478 
Q 2500 -78 1738 -78 
Q 1113 -78 717 272 
Q 322 622 266 1200 
z
" transform="scale(0.015625)"/>
        <path id="ArialMT-36" d="M 3184 3459 
L 2625 3416 
Q 2550 3747 2413 3897 
Q 2184 4138 1850 4138 
Q 1581 4138 1378 3988 
Q 1113 3794 959 3422 
Q 806 3050 800 2363 
Q 1003 2672 1297 2822 
Q 1591 2972 1913 2972 
Q 2475 2972 2870 2558 
Q 3266 2144 3266 1488 
Q 3266 1056 3080 686 
Q 2894 316 2569 119 
Q 2244 -78 1831 -78 
Q 1128 -78 684 439 
Q 241 956 241 2144 
Q 241 3472 731 4075 
Q 1159 4600 1884 4600 
Q 2425 4600 2770 4297 
Q 3116 3994 3184 3459 
z
M 888 1484 
Q 888 1194 1011 928 
Q 1134 663 1356 523 
Q 1578 384 1822 384 
Q 2178 384 2434 671 
Q 2691 959 2691 1453 
Q 2691 1928 2437 2201 
Q 2184 2475 1800 2475 
Q 1419 2475 1153 2201 
Q 888 1928 888 1484 
z
" transform="scale(0.015625)"/>
       </defs>
       <use xlink:href="#ArialMT-32"/>
       <use xlink:href="#ArialMT-35" x="55.615234"/>
       <use xlink:href="#ArialMT-36" x="111.230469"/>
      </g>
     </g>
    </g>
    <g id="xtick_22">
     <g id="line2d_67">
      <g>
       <use xlink:href="#m538f284895" x="143.721577" y="359.12" style="stroke: #000000; stroke-width: 0.8"/>
      </g>
     </g>
     <g id="text_7">
      <!-- 384 -->
      <g transform="translate(125.370483 381.867187) scale(0.22 -0.22)">
       <defs>
        <path id="ArialMT-34" d="M 2069 0 
L 2069 1097 
L 81 1097 
L 81 1613 
L 2172 4581 
L 2631 4581 
L 2631 1613 
L 3250 1613 
L 3250 1097 
L 2631 1097 
L 2631 0 
L 2069 0 
z
M 2069 1613 
L 2069 3678 
L 634 1613 
L 2069 1613 
z
" transform="scale(0.015625)"/>
       </defs>
       <use xlink:href="#ArialMT-33"/>
       <use xlink:href="#ArialMT-38" x="55.615234"/>
       <use xlink:href="#ArialMT-34" x="111.230469"/>
      </g>
     </g>
    </g>
    <g id="xtick_23">
     <g id="line2d_68">
      <g>
       <use xlink:href="#m538f284895" x="188.389759" y="359.12" style="stroke: #000000; stroke-width: 0.8"/>
      </g>
     </g>
     <g id="text_8">
      <!-- 512 -->
      <g transform="translate(170.038665 381.867187) scale(0.22 -0.22)">
       <use xlink:href="#ArialMT-35"/>
       <use xlink:href="#ArialMT-31" x="55.615234"/>
       <use xlink:href="#ArialMT-32" x="111.230469"/>
      </g>
     </g>
    </g>
    <g id="xtick_24">
     <g id="line2d_69">
      <g>
       <use xlink:href="#m538f284895" x="233.05794" y="359.12" style="stroke: #000000; stroke-width: 0.8"/>
      </g>
     </g>
     <g id="text_9">
      <!-- 640 -->
      <g transform="translate(214.706847 381.867187) scale(0.22 -0.22)">
       <use xlink:href="#ArialMT-36"/>
       <use xlink:href="#ArialMT-34" x="55.615234"/>
       <use xlink:href="#ArialMT-30" x="111.230469"/>
      </g>
     </g>
    </g>
   </g>
   <g id="matplotlib.axis_8">
    <g id="ytick_10">
     <g id="line2d_70">
      <g>
       <use xlink:href="#m752613172b" x="9.717031" y="359.12" style="stroke: #000000; stroke-width: 0.8"/>
      </g>
     </g>
    </g>
    <g id="ytick_11">
     <g id="line2d_71">
      <g>
       <use xlink:href="#m752613172b" x="9.717031" y="294.96" style="stroke: #000000; stroke-width: 0.8"/>
      </g>
     </g>
    </g>
    <g id="ytick_12">
     <g id="line2d_72">
      <g>
       <use xlink:href="#m752613172b" x="9.717031" y="230.8" style="stroke: #000000; stroke-width: 0.8"/>
      </g>
     </g>
    </g>
   </g>
   <g id="line2d_73">
    <path d="M 15.300554 331.05 
L 15.649524 339.07 
L 15.998494 335.06 
L 16.347464 335.06 
L 16.696435 331.05 
L 17.394375 331.05 
L 17.743345 323.03 
L 18.790256 323.03 
L 19.139226 315.01 
L 19.837166 315.01 
L 20.186136 311 
L 20.884077 311 
L 21.233047 306.99 
L 21.930987 323.03 
L 22.279957 327.04 
L 22.628928 319.02 
L 24.024808 319.02 
L 24.373778 311 
L 24.722749 319.02 
L 25.420689 319.02 
L 25.769659 323.03 
L 26.118629 315.01 
L 26.467599 315.01 
L 26.81657 319.02 
L 27.51451 319.02 
L 27.86348 315.01 
L 28.21245 323.03 
L 28.56142 327.04 
L 28.910391 327.04 
L 29.608331 311 
L 29.957301 319.02 
L 30.306271 319.02 
L 30.655241 311 
L 31.004212 306.99 
L 31.353182 306.99 
L 31.702152 311 
L 32.400092 302.98 
L 32.749063 302.98 
L 33.098033 298.97 
L 34.493913 298.97 
L 34.842884 302.98 
L 35.191854 302.98 
L 35.889794 294.96 
L 36.587734 302.98 
L 36.936705 298.97 
L 37.285675 302.98 
L 37.634645 298.97 
L 37.983615 302.98 
L 38.681555 302.98 
L 39.030526 311 
L 40.077436 311 
L 40.426406 306.99 
L 40.775376 306.99 
L 41.473317 315.01 
L 42.171257 315.01 
L 42.520227 311 
L 43.567138 311 
L 43.916108 306.99 
L 44.963018 306.99 
L 45.311989 298.97 
L 45.660959 298.97 
L 46.009929 302.98 
L 46.358899 311 
L 47.056839 294.96 
L 47.40581 290.95 
L 47.75478 282.93 
L 48.10375 282.93 
L 48.45272 274.91 
L 48.80169 274.91 
L 49.150661 270.9 
L 49.848601 270.9 
L 50.197571 266.89 
L 50.546541 258.87 
L 50.895511 266.89 
L 51.244482 266.89 
L 51.593452 262.88 
L 51.942422 254.86 
L 52.640362 254.86 
L 52.989332 262.88 
L 53.338303 262.88 
L 53.687273 270.9 
L 54.036243 270.9 
L 54.385213 278.92 
L 54.734183 274.91 
L 55.083153 278.92 
L 55.432124 274.91 
L 56.130064 274.91 
L 56.479034 266.89 
L 57.176974 282.93 
L 57.874915 282.93 
L 58.223885 290.95 
L 58.572855 282.93 
L 58.921825 286.94 
L 59.270795 286.94 
L 59.619766 294.96 
L 59.968736 286.94 
L 60.317706 286.94 
L 60.666676 282.93 
L 61.015646 282.93 
L 61.364616 278.92 
L 61.713587 278.92 
L 62.062557 286.94 
L 62.760497 270.9 
L 63.458438 286.94 
L 64.156378 286.94 
L 64.505348 290.95 
L 64.854318 286.94 
L 65.203288 278.92 
L 65.552259 278.92 
L 65.901229 282.93 
L 66.250199 278.92 
L 66.948139 278.92 
L 67.297109 282.93 
L 67.64608 282.93 
L 67.99505 286.94 
L 68.34402 286.94 
L 69.04196 270.9 
L 71.135781 270.9 
L 71.484751 266.89 
L 71.833722 270.9 
L 72.531662 270.9 
L 72.880632 266.89 
L 73.229602 258.87 
L 75.323423 258.87 
L 75.672393 250.85 
L 76.370334 258.87 
L 76.719304 266.89 
L 77.068274 266.89 
L 77.417244 270.9 
L 78.464155 270.9 
L 78.813125 274.91 
L 79.162095 270.9 
L 80.209006 270.9 
L 80.557976 262.88 
L 81.255916 262.88 
L 81.604886 254.86 
L 81.953857 250.85 
L 82.302827 242.83 
L 82.651797 250.85 
L 83.000767 250.85 
L 83.349737 258.87 
L 83.698707 262.88 
L 84.047678 262.88 
L 84.396648 258.87 
L 87.886349 258.87 
L 88.58429 242.83 
L 88.93326 242.83 
L 89.28223 238.82 
L 90.329141 238.82 
L 90.678111 242.83 
L 91.376051 242.83 
L 91.725021 246.84 
L 92.073991 246.84 
L 92.422962 254.86 
L 94.167812 254.86 
L 94.516783 246.84 
L 95.563693 246.84 
L 95.912663 250.85 
L 96.261634 246.84 
L 96.959574 246.84 
L 97.308544 242.83 
L 97.657514 242.83 
L 98.006484 234.81 
L 98.355455 234.81 
L 98.704425 238.82 
L 99.053395 246.84 
L 101.147216 246.84 
L 101.845156 254.86 
L 102.194126 254.86 
L 102.543097 262.88 
L 102.892067 262.88 
L 103.241037 270.9 
L 103.590007 270.9 
L 103.938977 274.91 
L 104.287947 270.9 
L 104.636918 262.88 
L 106.730739 262.88 
L 107.079709 254.86 
L 107.428679 250.85 
L 107.777649 250.85 
L 108.126619 242.83 
L 108.475589 242.83 
L 108.82456 234.81 
L 109.17353 234.81 
L 109.5225 230.8 
L 109.87147 230.8 
L 110.22044 238.82 
L 110.918381 238.82 
L 111.267351 246.84 
L 115.454993 246.84 
L 115.803963 238.82 
L 116.501903 238.82 
L 116.850874 234.81 
L 117.548814 234.81 
L 118.246754 250.85 
L 121.038516 250.85 
L 121.387486 258.87 
L 122.085426 258.87 
L 122.434396 254.86 
L 123.132337 254.86 
L 123.830277 238.82 
L 124.179247 238.82 
L 124.528217 246.84 
L 124.877187 246.84 
L 125.226158 250.85 
L 126.622038 250.85 
L 126.971009 242.83 
L 127.319979 246.84 
L 129.06483 246.84 
L 129.4138 250.85 
L 129.76277 250.85 
L 130.11174 242.83 
L 130.46071 242.83 
L 130.80968 246.84 
L 131.507621 246.84 
L 131.856591 254.86 
L 132.554531 254.86 
L 132.903501 250.85 
L 133.252472 254.86 
L 133.950412 254.86 
L 134.299382 258.87 
L 134.648352 258.87 
L 134.997322 254.86 
L 136.044233 254.86 
L 136.393203 246.84 
L 136.742173 246.84 
L 137.091143 254.86 
L 137.440114 246.84 
L 137.789084 250.85 
L 138.487024 250.85 
L 138.835994 254.86 
L 139.184964 254.86 
L 139.533935 262.88 
L 139.882905 258.87 
L 140.231875 262.88 
L 141.627756 262.88 
L 141.976726 270.9 
L 142.325696 270.9 
L 142.674666 266.89 
L 143.023636 266.89 
L 143.372607 262.88 
L 143.721577 266.89 
L 144.070547 266.89 
L 144.419517 258.87 
L 144.768487 258.87 
L 145.117457 250.85 
L 145.466428 250.85 
L 145.815398 246.84 
L 146.164368 250.85 
L 147.211278 250.85 
L 147.560249 242.83 
L 147.909219 242.83 
L 148.258189 238.82 
L 151.04995 238.82 
L 151.39892 242.83 
L 151.747891 242.83 
L 152.096861 250.85 
L 152.794801 250.85 
L 153.143771 258.87 
L 156.633473 258.87 
L 157.331413 250.85 
L 157.680384 242.83 
L 158.378324 242.83 
L 158.727294 234.81 
L 159.076264 234.81 
L 159.425234 242.83 
L 160.123175 242.83 
L 160.472145 238.82 
L 160.821115 242.83 
L 163.961847 242.83 
L 164.310817 250.85 
L 164.659787 250.85 
L 165.008757 242.83 
L 165.357727 246.84 
L 166.055668 246.84 
L 166.404638 242.83 
L 167.102578 242.83 
L 167.451548 246.84 
L 169.545369 246.84 
L 169.894339 238.82 
L 170.59228 238.82 
L 170.94125 234.81 
L 172.686101 234.81 
L 173.035071 230.8 
L 176.175803 230.8 
L 176.524773 234.81 
L 181.759325 234.81 
L 182.108295 238.82 
L 185.946967 238.82 
L 186.295937 246.84 
L 186.644908 246.84 
L 186.993878 254.86 
L 187.342848 254.86 
L 187.691818 246.84 
L 188.389759 246.84 
L 188.389759 246.84 
" style="fill: none; stroke: #3f2219; stroke-opacity: 0.6; stroke-width: 2; stroke-linecap: square"/>
   </g>
   <g id="line2d_74">
    <path d="M 32.051122 359.12 
L 32.051122 230.8 
" clip-path="url(#p33b13205bc)" style="fill: none; stroke-dasharray: 3.7,1.6; stroke-dashoffset: 0; stroke: #808080; stroke-opacity: 0.3"/>
   </g>
   <g id="line2d_75">
    <path d="M 54.385213 359.12 
L 54.385213 230.8 
" clip-path="url(#p33b13205bc)" style="fill: none; stroke-dasharray: 3.7,1.6; stroke-dashoffset: 0; stroke: #808080; stroke-opacity: 0.3"/>
   </g>
   <g id="line2d_76">
    <path d="M 76.719304 359.12 
L 76.719304 230.8 
" clip-path="url(#p33b13205bc)" style="fill: none; stroke-dasharray: 3.7,1.6; stroke-dashoffset: 0; stroke: #808080; stroke-opacity: 0.3"/>
   </g>
   <g id="line2d_77">
    <path d="M 99.053395 359.12 
L 99.053395 230.8 
" clip-path="url(#p33b13205bc)" style="fill: none; stroke-dasharray: 3.7,1.6; stroke-dashoffset: 0; stroke: #808080; stroke-opacity: 0.3"/>
   </g>
   <g id="line2d_78">
    <path d="M 121.387486 359.12 
L 121.387486 230.8 
" clip-path="url(#p33b13205bc)" style="fill: none; stroke-dasharray: 3.7,1.6; stroke-dashoffset: 0; stroke: #808080; stroke-opacity: 0.3"/>
   </g>
   <g id="line2d_79">
    <path d="M 143.721577 359.12 
L 143.721577 230.8 
" clip-path="url(#p33b13205bc)" style="fill: none; stroke-dasharray: 3.7,1.6; stroke-dashoffset: 0; stroke: #808080; stroke-opacity: 0.3"/>
   </g>
   <g id="line2d_80">
    <path d="M 166.055668 359.12 
L 166.055668 230.8 
" clip-path="url(#p33b13205bc)" style="fill: none; stroke-dasharray: 3.7,1.6; stroke-dashoffset: 0; stroke: #808080; stroke-opacity: 0.3"/>
   </g>
   <g id="line2d_81">
    <path d="M 188.389759 359.12 
L 188.389759 230.8 
" clip-path="url(#p33b13205bc)" style="fill: none; stroke-dasharray: 3.7,1.6; stroke-dashoffset: 0; stroke: #808080; stroke-opacity: 0.3"/>
   </g>
   <g id="line2d_82">
    <path d="M 210.723849 359.12 
L 210.723849 230.8 
" clip-path="url(#p33b13205bc)" style="fill: none; stroke-dasharray: 3.7,1.6; stroke-dashoffset: 0; stroke: #808080; stroke-opacity: 0.3"/>
   </g>
   <g id="line2d_83">
    <path d="M 233.05794 359.12 
L 233.05794 230.8 
" clip-path="url(#p33b13205bc)" style="fill: none; stroke-dasharray: 3.7,1.6; stroke-dashoffset: 0; stroke: #808080; stroke-opacity: 0.3"/>
   </g>
   <g id="line2d_84">
    <path d="M 255.392031 359.12 
L 255.392031 230.8 
" clip-path="url(#p33b13205bc)" style="fill: none; stroke-dasharray: 3.7,1.6; stroke-dashoffset: 0; stroke: #808080; stroke-opacity: 0.3"/>
   </g>
   <g id="patch_12">
    <path d="M 9.717031 359.12 
L 9.717031 230.8 
" style="fill: none; stroke: #000000; stroke-width: 2; stroke-linejoin: miter; stroke-linecap: square"/>
   </g>
   <g id="patch_13">
    <path d="M 9.717031 359.12 
L 255.392031 359.12 
" style="fill: none; stroke: #000000; stroke-width: 2; stroke-linejoin: miter; stroke-linecap: square"/>
   </g>
   <g id="text_10">
    <!-- S17 -->
    <g transform="translate(198.627812 347.73525) scale(0.25 -0.25)">
     <defs>
      <path id="ArialMT-37" d="M 303 3981 
L 303 4522 
L 3269 4522 
L 3269 4084 
Q 2831 3619 2401 2847 
Q 1972 2075 1738 1259 
Q 1569 684 1522 0 
L 944 0 
Q 953 541 1156 1306 
Q 1359 2072 1739 2783 
Q 2119 3494 2547 3981 
L 303 3981 
z
" transform="scale(0.015625)"/>
     </defs>
     <use xlink:href="#ArialMT-53"/>
     <use xlink:href="#ArialMT-31" x="66.699219"/>
     <use xlink:href="#ArialMT-37" x="122.314453"/>
    </g>
   </g>
  </g>
  <g id="axes_5">
   <g id="patch_14">
    <path d="M 294.117031 359.12 
L 539.792031 359.12 
L 539.792031 230.8 
L 294.117031 230.8 
L 294.117031 359.12 
z
" style="fill: none"/>
   </g>
   <g id="matplotlib.axis_9">
    <g id="xtick_25">
     <g id="line2d_85">
      <g>
       <use xlink:href="#m538f284895" x="294.117031" y="359.12" style="stroke: #000000; stroke-width: 0.8"/>
      </g>
     </g>
     <g id="text_11">
      <!-- 0 -->
      <g transform="translate(288 381.867187) scale(0.22 -0.22)">
       <use xlink:href="#ArialMT-30"/>
      </g>
     </g>
    </g>
    <g id="xtick_26">
     <g id="line2d_86">
      <g>
       <use xlink:href="#m538f284895" x="338.785213" y="359.12" style="stroke: #000000; stroke-width: 0.8"/>
      </g>
     </g>
     <g id="text_12">
      <!-- 128 -->
      <g transform="translate(320.434119 381.867187) scale(0.22 -0.22)">
       <use xlink:href="#ArialMT-31"/>
       <use xlink:href="#ArialMT-32" x="55.615234"/>
       <use xlink:href="#ArialMT-38" x="111.230469"/>
      </g>
     </g>
    </g>
    <g id="xtick_27">
     <g id="line2d_87">
      <g>
       <use xlink:href="#m538f284895" x="383.453395" y="359.12" style="stroke: #000000; stroke-width: 0.8"/>
      </g>
     </g>
     <g id="text_13">
      <!-- 256 -->
      <g transform="translate(365.102301 381.867187) scale(0.22 -0.22)">
       <use xlink:href="#ArialMT-32"/>
       <use xlink:href="#ArialMT-35" x="55.615234"/>
       <use xlink:href="#ArialMT-36" x="111.230469"/>
      </g>
     </g>
    </g>
    <g id="xtick_28">
     <g id="line2d_88">
      <g>
       <use xlink:href="#m538f284895" x="428.121577" y="359.12" style="stroke: #000000; stroke-width: 0.8"/>
      </g>
     </g>
     <g id="text_14">
      <!-- 384 -->
      <g transform="translate(409.770483 381.867187) scale(0.22 -0.22)">
       <use xlink:href="#ArialMT-33"/>
       <use xlink:href="#ArialMT-38" x="55.615234"/>
       <use xlink:href="#ArialMT-34" x="111.230469"/>
      </g>
     </g>
    </g>
    <g id="xtick_29">
     <g id="line2d_89">
      <g>
       <use xlink:href="#m538f284895" x="472.789759" y="359.12" style="stroke: #000000; stroke-width: 0.8"/>
      </g>
     </g>
     <g id="text_15">
      <!-- 512 -->
      <g transform="translate(454.438665 381.867187) scale(0.22 -0.22)">
       <use xlink:href="#ArialMT-35"/>
       <use xlink:href="#ArialMT-31" x="55.615234"/>
       <use xlink:href="#ArialMT-32" x="111.230469"/>
      </g>
     </g>
    </g>
    <g id="xtick_30">
     <g id="line2d_90">
      <g>
       <use xlink:href="#m538f284895" x="517.45794" y="359.12" style="stroke: #000000; stroke-width: 0.8"/>
      </g>
     </g>
     <g id="text_16">
      <!-- 640 -->
      <g transform="translate(499.106847 381.867187) scale(0.22 -0.22)">
       <use xlink:href="#ArialMT-36"/>
       <use xlink:href="#ArialMT-34" x="55.615234"/>
       <use xlink:href="#ArialMT-30" x="111.230469"/>
      </g>
     </g>
    </g>
   </g>
   <g id="matplotlib.axis_10">
    <g id="ytick_13">
     <g id="line2d_91">
      <g>
       <use xlink:href="#m752613172b" x="294.117031" y="359.12" style="stroke: #000000; stroke-width: 0.8"/>
      </g>
     </g>
    </g>
    <g id="ytick_14">
     <g id="line2d_92">
      <g>
       <use xlink:href="#m752613172b" x="294.117031" y="294.96" style="stroke: #000000; stroke-width: 0.8"/>
      </g>
     </g>
    </g>
    <g id="ytick_15">
     <g id="line2d_93">
      <g>
       <use xlink:href="#m752613172b" x="294.117031" y="230.8" style="stroke: #000000; stroke-width: 0.8"/>
      </g>
     </g>
    </g>
   </g>
   <g id="line2d_94">
    <path d="M 299.700554 282.93 
L 300.049524 282.93 
L 300.398494 274.91 
L 300.747464 274.91 
L 301.445405 266.89 
L 301.794375 270.9 
L 302.143345 266.89 
L 302.841286 266.89 
L 303.190256 258.87 
L 303.539226 266.89 
L 304.586136 278.92 
L 304.935107 270.9 
L 305.284077 270.9 
L 305.633047 266.89 
L 305.982017 266.89 
L 306.330987 274.91 
L 306.679957 274.91 
L 307.028928 278.92 
L 307.377898 278.92 
L 307.726868 286.94 
L 308.773778 286.94 
L 309.471719 278.92 
L 309.820689 278.92 
L 310.169659 282.93 
L 310.518629 282.93 
L 311.21657 290.95 
L 311.56554 290.95 
L 311.91451 282.93 
L 312.26348 282.93 
L 312.61245 286.94 
L 312.96142 282.93 
L 313.310391 274.91 
L 313.659361 274.91 
L 314.008331 266.89 
L 314.357301 266.89 
L 314.706271 270.9 
L 315.055241 270.9 
L 315.404212 266.89 
L 316.102152 266.89 
L 316.800092 258.87 
L 317.149062 266.89 
L 317.498033 266.89 
L 317.847003 274.91 
L 318.195973 266.89 
L 318.893913 266.89 
L 319.591854 282.93 
L 319.940824 282.93 
L 320.289794 274.91 
L 320.638764 274.91 
L 320.987734 282.93 
L 321.336705 274.91 
L 321.685675 274.91 
L 322.034645 278.92 
L 322.383615 278.92 
L 322.732585 274.91 
L 323.081555 274.91 
L 323.430526 266.89 
L 324.128466 266.89 
L 324.477436 270.9 
L 325.175376 262.88 
L 325.524347 262.88 
L 325.873317 270.9 
L 327.269197 270.9 
L 327.618168 266.89 
L 327.967138 270.9 
L 328.316108 266.89 
L 329.014048 266.89 
L 329.711989 282.93 
L 330.060959 282.93 
L 330.409929 286.94 
L 330.758899 282.93 
L 331.456839 282.93 
L 331.80581 290.95 
L 333.20169 290.95 
L 333.550661 282.93 
L 333.899631 282.93 
L 334.248601 286.94 
L 334.597571 286.94 
L 334.946541 282.93 
L 335.295511 274.91 
L 335.644482 274.91 
L 335.993452 270.9 
L 336.342422 278.92 
L 336.691392 278.92 
L 337.389332 270.9 
L 337.738303 262.88 
L 338.087273 266.89 
L 338.785213 266.89 
L 339.134183 274.91 
L 339.483153 274.91 
L 339.832124 278.92 
L 340.181094 286.94 
L 340.530064 282.93 
L 340.879034 282.93 
L 341.925945 270.9 
L 342.623885 270.9 
L 342.972855 266.89 
L 343.321825 266.89 
L 343.670795 262.88 
L 344.019766 270.9 
L 344.368736 270.9 
L 344.717706 262.88 
L 345.066676 262.88 
L 345.415646 254.86 
L 346.113587 254.86 
L 346.811527 262.88 
L 347.160497 270.9 
L 347.509467 266.89 
L 347.858437 266.89 
L 348.207408 262.88 
L 348.556378 270.9 
L 348.905348 270.9 
L 349.254318 278.92 
L 349.603288 270.9 
L 349.952259 270.9 
L 350.650199 286.94 
L 350.999169 290.95 
L 351.348139 282.93 
L 351.697109 290.95 
L 352.39505 282.93 
L 353.79093 282.93 
L 354.139901 278.92 
L 354.488871 278.92 
L 354.837841 270.9 
L 355.186811 278.92 
L 355.884751 278.92 
L 356.233722 270.9 
L 356.582692 274.91 
L 356.931662 274.91 
L 357.280632 266.89 
L 357.978572 266.89 
L 358.327543 258.87 
L 359.025483 274.91 
L 359.374453 274.91 
L 359.723423 270.9 
L 360.421364 270.9 
L 360.770334 262.88 
L 361.119304 262.88 
L 361.468274 254.86 
L 361.817244 254.86 
L 362.166214 246.84 
L 363.911065 246.84 
L 364.260036 238.82 
L 364.957976 238.82 
L 365.306946 242.83 
L 365.655916 250.85 
L 366.004886 254.86 
L 367.400767 254.86 
L 368.447678 278.92 
L 369.843558 278.92 
L 370.192528 270.9 
L 370.541499 270.9 
L 370.890469 266.89 
L 371.239439 258.87 
L 371.588409 254.86 
L 372.98429 254.86 
L 374.0312 230.8 
L 374.38017 230.8 
L 374.729141 238.82 
L 376.822962 238.82 
L 377.171932 246.84 
L 377.520902 246.84 
L 377.869872 250.85 
L 378.218842 250.85 
L 378.567813 254.86 
L 379.963693 254.86 
L 380.312663 246.84 
L 380.661634 246.84 
L 381.010604 250.85 
L 381.359574 250.85 
L 381.708544 254.86 
L 383.104425 254.86 
L 383.453395 258.87 
L 383.802365 266.89 
L 384.151335 262.88 
L 384.500305 270.9 
L 386.245156 270.9 
L 386.594126 266.89 
L 386.943097 270.9 
L 387.292067 266.89 
L 387.990007 266.89 
L 388.338977 258.87 
L 388.687947 258.87 
L 389.036918 250.85 
L 389.734858 250.85 
L 390.083828 246.84 
L 392.177649 246.84 
L 392.526619 242.83 
L 394.62044 242.83 
L 394.969411 234.81 
L 395.667351 234.81 
L 396.016321 238.82 
L 398.110142 238.82 
L 398.459112 242.83 
L 400.901903 242.83 
L 401.599844 234.81 
L 402.297784 234.81 
L 402.646754 242.83 
L 402.995724 246.84 
L 403.693665 246.84 
L 404.042635 242.83 
L 407.881307 242.83 
L 408.230277 234.81 
L 408.579247 230.8 
L 412.766889 230.8 
L 413.115859 234.81 
L 417.303501 234.81 
L 417.652472 242.83 
L 418.350412 242.83 
L 418.699382 238.82 
L 422.887024 238.82 
L 423.235994 230.8 
L 427.074666 230.8 
L 427.423636 238.82 
L 428.121577 238.82 
L 428.121577 238.82 
" style="fill: none; stroke: #3f2219; stroke-opacity: 0.6; stroke-width: 2; stroke-linecap: square"/>
   </g>
   <g id="line2d_95">
    <path d="M 316.451122 359.12 
L 316.451122 230.8 
" clip-path="url(#paad29dc2af)" style="fill: none; stroke-dasharray: 3.7,1.6; stroke-dashoffset: 0; stroke: #808080; stroke-opacity: 0.3"/>
   </g>
   <g id="line2d_96">
    <path d="M 338.785213 359.12 
L 338.785213 230.8 
" clip-path="url(#paad29dc2af)" style="fill: none; stroke-dasharray: 3.7,1.6; stroke-dashoffset: 0; stroke: #808080; stroke-opacity: 0.3"/>
   </g>
   <g id="line2d_97">
    <path d="M 361.119304 359.12 
L 361.119304 230.8 
" clip-path="url(#paad29dc2af)" style="fill: none; stroke-dasharray: 3.7,1.6; stroke-dashoffset: 0; stroke: #808080; stroke-opacity: 0.3"/>
   </g>
   <g id="line2d_98">
    <path d="M 383.453395 359.12 
L 383.453395 230.8 
" clip-path="url(#paad29dc2af)" style="fill: none; stroke-dasharray: 3.7,1.6; stroke-dashoffset: 0; stroke: #808080; stroke-opacity: 0.3"/>
   </g>
   <g id="line2d_99">
    <path d="M 405.787486 359.12 
L 405.787486 230.8 
" clip-path="url(#paad29dc2af)" style="fill: none; stroke-dasharray: 3.7,1.6; stroke-dashoffset: 0; stroke: #808080; stroke-opacity: 0.3"/>
   </g>
   <g id="line2d_100">
    <path d="M 428.121577 359.12 
L 428.121577 230.8 
" clip-path="url(#paad29dc2af)" style="fill: none; stroke-dasharray: 3.7,1.6; stroke-dashoffset: 0; stroke: #808080; stroke-opacity: 0.3"/>
   </g>
   <g id="line2d_101">
    <path d="M 450.455668 359.12 
L 450.455668 230.8 
" clip-path="url(#paad29dc2af)" style="fill: none; stroke-dasharray: 3.7,1.6; stroke-dashoffset: 0; stroke: #808080; stroke-opacity: 0.3"/>
   </g>
   <g id="line2d_102">
    <path d="M 472.789759 359.12 
L 472.789759 230.8 
" clip-path="url(#paad29dc2af)" style="fill: none; stroke-dasharray: 3.7,1.6; stroke-dashoffset: 0; stroke: #808080; stroke-opacity: 0.3"/>
   </g>
   <g id="line2d_103">
    <path d="M 495.123849 359.12 
L 495.123849 230.8 
" clip-path="url(#paad29dc2af)" style="fill: none; stroke-dasharray: 3.7,1.6; stroke-dashoffset: 0; stroke: #808080; stroke-opacity: 0.3"/>
   </g>
   <g id="line2d_104">
    <path d="M 517.45794 359.12 
L 517.45794 230.8 
" clip-path="url(#paad29dc2af)" style="fill: none; stroke-dasharray: 3.7,1.6; stroke-dashoffset: 0; stroke: #808080; stroke-opacity: 0.3"/>
   </g>
   <g id="line2d_105">
    <path d="M 539.792031 359.12 
L 539.792031 230.8 
" clip-path="url(#paad29dc2af)" style="fill: none; stroke-dasharray: 3.7,1.6; stroke-dashoffset: 0; stroke: #808080; stroke-opacity: 0.3"/>
   </g>
   <g id="patch_15">
    <path d="M 294.117031 359.12 
L 294.117031 230.8 
" style="fill: none; stroke: #000000; stroke-width: 2; stroke-linejoin: miter; stroke-linecap: square"/>
   </g>
   <g id="patch_16">
    <path d="M 294.117031 359.12 
L 539.792031 359.12 
" style="fill: none; stroke: #000000; stroke-width: 2; stroke-linejoin: miter; stroke-linecap: square"/>
   </g>
   <g id="text_17">
    <!-- S21 -->
    <g transform="translate(483.027812 347.73525) scale(0.25 -0.25)">
     <use xlink:href="#ArialMT-53"/>
     <use xlink:href="#ArialMT-32" x="66.699219"/>
     <use xlink:href="#ArialMT-31" x="122.314453"/>
    </g>
   </g>
  </g>
  <g id="axes_6"/>
  <g id="text_18">
   <!-- Trial -->
   <g transform="translate(386.133047 413.28) scale(0.25 -0.25)">
    <defs>
     <path id="ArialMT-54" d="M 1659 0 
L 1659 4041 
L 150 4041 
L 150 4581 
L 3781 4581 
L 3781 4041 
L 2266 4041 
L 2266 0 
L 1659 0 
z
" transform="scale(0.015625)"/>
     <path id="ArialMT-72" d="M 416 0 
L 416 3319 
L 922 3319 
L 922 2816 
Q 1116 3169 1280 3281 
Q 1444 3394 1641 3394 
Q 1925 3394 2219 3213 
L 2025 2691 
Q 1819 2813 1613 2813 
Q 1428 2813 1281 2702 
Q 1134 2591 1072 2394 
Q 978 2094 978 1738 
L 978 0 
L 416 0 
z
" transform="scale(0.015625)"/>
     <path id="ArialMT-69" d="M 425 3934 
L 425 4581 
L 988 4581 
L 988 3934 
L 425 3934 
z
M 425 0 
L 425 3319 
L 988 3319 
L 988 0 
L 425 0 
z
" transform="scale(0.015625)"/>
     <path id="ArialMT-61" d="M 2588 409 
Q 2275 144 1986 34 
Q 1697 -75 1366 -75 
Q 819 -75 525 192 
Q 231 459 231 875 
Q 231 1119 342 1320 
Q 453 1522 633 1644 
Q 813 1766 1038 1828 
Q 1203 1872 1538 1913 
Q 2219 1994 2541 2106 
Q 2544 2222 2544 2253 
Q 2544 2597 2384 2738 
Q 2169 2928 1744 2928 
Q 1347 2928 1158 2789 
Q 969 2650 878 2297 
L 328 2372 
Q 403 2725 575 2942 
Q 747 3159 1072 3276 
Q 1397 3394 1825 3394 
Q 2250 3394 2515 3294 
Q 2781 3194 2906 3042 
Q 3031 2891 3081 2659 
Q 3109 2516 3109 2141 
L 3109 1391 
Q 3109 606 3145 398 
Q 3181 191 3288 0 
L 2700 0 
Q 2613 175 2588 409 
z
M 2541 1666 
Q 2234 1541 1622 1453 
Q 1275 1403 1131 1340 
Q 988 1278 909 1158 
Q 831 1038 831 891 
Q 831 666 1001 516 
Q 1172 366 1500 366 
Q 1825 366 2078 508 
Q 2331 650 2450 897 
Q 2541 1088 2541 1459 
L 2541 1666 
z
" transform="scale(0.015625)"/>
     <path id="ArialMT-6c" d="M 409 0 
L 409 4581 
L 972 4581 
L 972 0 
L 409 0 
z
" transform="scale(0.015625)"/>
    </defs>
    <use xlink:href="#ArialMT-54"/>
    <use xlink:href="#ArialMT-72" x="57.333984"/>
    <use xlink:href="#ArialMT-69" x="90.634766"/>
    <use xlink:href="#ArialMT-61" x="112.851562"/>
    <use xlink:href="#ArialMT-6c" x="168.466797"/>
   </g>
  </g>
 </g>
 <defs>
  <clipPath id="pef795c74a2">
   <rect x="9.717031" y="3.6" width="245.675" height="128.32"/>
  </clipPath>
  <clipPath id="p48cf06c97e">
   <rect x="294.117031" y="3.6" width="245.675" height="128.32"/>
  </clipPath>
  <clipPath id="pa77abb2141">
   <rect x="578.517031" y="3.6" width="245.675" height="128.32"/>
  </clipPath>
  <clipPath id="p33b13205bc">
   <rect x="9.717031" y="230.8" width="245.675" height="128.32"/>
  </clipPath>
  <clipPath id="paad29dc2af">
   <rect x="294.117031" y="230.8" width="245.675" height="128.32"/>
  </clipPath>
 </defs>
</svg>
