<?xml version="1.0" encoding="utf-8" standalone="no"?>
<!DOCTYPE svg PUBLIC "-//W3C//DTD SVG 1.1//EN"
  "http://www.w3.org/Graphics/SVG/1.1/DTD/svg11.dtd">
<svg xmlns:xlink="http://www.w3.org/1999/xlink" width="256.176094pt" height="429.722344pt" viewBox="0 0 256.176094 429.722344" xmlns="http://www.w3.org/2000/svg" version="1.1">
 <metadata>
  <rdf:RDF xmlns:dc="http://purl.org/dc/elements/1.1/" xmlns:cc="http://creativecommons.org/ns#" xmlns:rdf="http://www.w3.org/1999/02/22-rdf-syntax-ns#">
   <cc:Work>
    <dc:type rdf:resource="http://purl.org/dc/dcmitype/StillImage"/>
    <dc:date>2025-05-19T20:22:23.473330</dc:date>
    <dc:format>image/svg+xml</dc:format>
    <dc:creator>
     <cc:Agent>
      <dc:title>Matplotlib v3.8.4, https://matplotlib.org/</dc:title>
     </cc:Agent>
    </dc:creator>
   </cc:Work>
  </rdf:RDF>
 </metadata>
 <defs>
  <style type="text/css">*{stroke-linejoin: round; stroke-linecap: butt}</style>
 </defs>
 <g id="figure_1">
  <g id="patch_1">
   <path d="M 0 429.722344 
L 256.176094 429.722344 
L 256.176094 0 
L 0 0 
L 0 429.722344 
z
" style="fill: none"/>
  </g>
  <g id="axes_1">
   <g id="patch_2">
    <path d="M 67.75 135.793594 
L 234.225 135.793594 
L 234.225 11.473594 
L 67.75 11.473594 
L 67.75 135.793594 
z
" style="fill: none"/>
   </g>
   <g id="matplotlib.axis_1">
    <g id="xtick_1">
     <g id="line2d_1">
      <defs>
       <path id="mf9d52deba2" d="M 0 0 
L 0 3.5 
" style="stroke: #000000; stroke-width: 0.8"/>
      </defs>
      <g>
       <use xlink:href="#mf9d52deba2" x="67.75" y="135.793594" style="stroke: #000000; stroke-width: 0.8"/>
      </g>
     </g>
    </g>
    <g id="xtick_2">
     <g id="line2d_2">
      <g>
       <use xlink:href="#mf9d52deba2" x="150.9875" y="135.793594" style="stroke: #000000; stroke-width: 0.8"/>
      </g>
     </g>
    </g>
    <g id="xtick_3">
     <g id="line2d_3">
      <g>
       <use xlink:href="#mf9d52deba2" x="234.225" y="135.793594" style="stroke: #000000; stroke-width: 0.8"/>
      </g>
     </g>
    </g>
   </g>
   <g id="matplotlib.axis_2">
    <g id="ytick_1">
     <g id="line2d_4">
      <defs>
       <path id="m777c92d1d9" d="M 0 0 
L -3.5 0 
" style="stroke: #000000; stroke-width: 0.8"/>
      </defs>
      <g>
       <use xlink:href="#m777c92d1d9" x="67.75" y="135.793594" style="stroke: #000000; stroke-width: 0.8"/>
      </g>
     </g>
     <g id="text_1">
      <!-- 0 -->
      <g transform="translate(48.515937 143.667188) scale(0.22 -0.22)">
       <defs>
        <path id="ArialMT-30" d="M 266 2259 
Q 266 3072 433 3567 
Q 600 4063 929 4331 
Q 1259 4600 1759 4600 
Q 2128 4600 2406 4451 
Q 2684 4303 2865 4023 
Q 3047 3744 3150 3342 
Q 3253 2941 3253 2259 
Q 3253 1453 3087 958 
Q 2922 463 2592 192 
Q 2263 -78 1759 -78 
Q 1097 -78 719 397 
Q 266 969 266 2259 
z
M 844 2259 
Q 844 1131 1108 757 
Q 1372 384 1759 384 
Q 2147 384 2411 759 
Q 2675 1134 2675 2259 
Q 2675 3391 2411 3762 
Q 2147 4134 1753 4134 
Q 1366 4134 1134 3806 
Q 844 3388 844 2259 
z
" transform="scale(0.015625)"/>
       </defs>
       <use xlink:href="#ArialMT-30"/>
      </g>
     </g>
    </g>
    <g id="ytick_2">
     <g id="line2d_5">
      <g>
       <use xlink:href="#m777c92d1d9" x="67.75" y="73.633594" style="stroke: #000000; stroke-width: 0.8"/>
      </g>
     </g>
     <g id="text_2">
      <!-- 0.5 -->
      <g transform="translate(30.17 81.507187) scale(0.22 -0.22)">
       <defs>
        <path id="ArialMT-2e" d="M 581 0 
L 581 641 
L 1222 641 
L 1222 0 
L 581 0 
z
" transform="scale(0.015625)"/>
        <path id="ArialMT-35" d="M 266 1200 
L 856 1250 
Q 922 819 1161 601 
Q 1400 384 1738 384 
Q 2144 384 2425 690 
Q 2706 997 2706 1503 
Q 2706 1984 2436 2262 
Q 2166 2541 1728 2541 
Q 1456 2541 1237 2417 
Q 1019 2294 894 2097 
L 366 2166 
L 809 4519 
L 3088 4519 
L 3088 3981 
L 1259 3981 
L 1013 2750 
Q 1425 3038 1878 3038 
Q 2478 3038 2890 2622 
Q 3303 2206 3303 1553 
Q 3303 931 2941 478 
Q 2500 -78 1738 -78 
Q 1113 -78 717 272 
Q 322 622 266 1200 
z
" transform="scale(0.015625)"/>
       </defs>
       <use xlink:href="#ArialMT-30"/>
       <use xlink:href="#ArialMT-2e" x="55.615234"/>
       <use xlink:href="#ArialMT-35" x="83.398438"/>
      </g>
     </g>
    </g>
    <g id="ytick_3">
     <g id="line2d_6">
      <g>
       <use xlink:href="#m777c92d1d9" x="67.75" y="11.473594" style="stroke: #000000; stroke-width: 0.8"/>
      </g>
     </g>
     <g id="text_3">
      <!-- 1 -->
      <g transform="translate(48.515937 19.347187) scale(0.22 -0.22)">
       <defs>
        <path id="ArialMT-31" d="M 2384 0 
L 1822 0 
L 1822 3584 
Q 1619 3391 1289 3197 
Q 959 3003 697 2906 
L 697 3450 
Q 1169 3672 1522 3987 
Q 1875 4303 2022 4600 
L 2384 4600 
L 2384 0 
z
" transform="scale(0.015625)"/>
       </defs>
       <use xlink:href="#ArialMT-31"/>
      </g>
     </g>
    </g>
   </g>
   <g id="line2d_7">
    <path d="M 72.952344 112.483594 
L 74.25293 112.483594 
L 74.578076 120.253594 
L 75.228369 120.253594 
L 75.553516 128.023594 
L 78.154687 128.023594 
L 78.479834 120.253594 
L 79.455273 120.253594 
L 79.78042 112.483594 
L 80.105566 112.483594 
L 80.430713 104.713594 
L 81.081006 104.713594 
L 81.406152 112.483594 
L 83.031885 112.483594 
L 83.357031 104.713594 
L 84.007324 104.713594 
L 84.332471 96.943594 
L 84.657617 96.943594 
L 84.982764 104.713594 
L 87.583936 104.713594 
L 87.909082 96.943594 
L 88.234229 96.943594 
L 88.884521 112.483594 
L 89.209668 112.483594 
L 89.534814 120.253594 
L 90.185107 120.253594 
L 90.510254 112.483594 
L 90.8354 120.253594 
L 91.160547 120.253594 
L 91.81084 104.713594 
L 92.135986 104.713594 
L 92.786279 89.173594 
L 93.436572 89.173594 
L 94.086865 73.633594 
L 94.412012 73.633594 
L 95.387451 50.323594 
L 96.362891 50.323594 
L 96.688037 58.093594 
L 97.013184 58.093594 
L 97.33833 50.323594 
L 97.988623 65.863594 
L 98.638916 65.863594 
L 99.289209 81.403594 
L 99.614355 73.633594 
L 100.264648 89.173594 
L 100.589795 89.173594 
L 100.914941 96.943594 
L 101.240088 96.943594 
L 101.565234 89.173594 
L 102.215527 89.173594 
L 102.540674 96.943594 
L 103.190967 96.943594 
L 103.516113 104.713594 
L 103.84126 104.713594 
L 104.166406 96.943594 
L 104.491553 96.943594 
L 104.816699 104.713594 
L 105.466992 104.713594 
L 105.792139 112.483594 
L 106.117285 104.713594 
L 107.092725 104.713594 
L 107.417871 112.483594 
L 108.068164 112.483594 
L 108.718457 96.943594 
L 109.043604 96.943594 
L 109.36875 104.713594 
L 110.344189 104.713594 
L 110.669336 96.943594 
L 110.994482 96.943594 
L 111.319629 104.713594 
L 111.969922 104.713594 
L 112.295068 96.943594 
L 112.620215 96.943594 
L 112.945361 89.173594 
L 113.270508 89.173594 
L 113.920801 104.713594 
L 114.245947 104.713594 
L 114.89624 89.173594 
L 115.221387 89.173594 
L 115.546533 81.403594 
L 115.87168 89.173594 
L 117.172266 89.173594 
L 117.497412 96.943594 
L 117.822559 89.173594 
L 118.147705 96.943594 
L 118.472852 89.173594 
L 119.773437 89.173594 
L 120.098584 96.943594 
L 120.748877 96.943594 
L 121.074023 89.173594 
L 122.699756 89.173594 
L 123.024902 96.943594 
L 123.350049 89.173594 
L 123.675195 89.173594 
L 124.000342 81.403594 
L 124.325488 81.403594 
L 124.650635 73.633594 
L 124.975781 73.633594 
L 125.300928 65.863594 
L 125.626074 65.863594 
L 126.276367 81.403594 
L 127.251807 58.093594 
L 127.576953 65.863594 
L 127.9021 65.863594 
L 128.227246 58.093594 
L 129.202686 81.403594 
L 129.852979 81.403594 
L 130.503271 96.943594 
L 130.828418 89.173594 
L 131.803857 89.173594 
L 132.129004 96.943594 
L 132.45415 96.943594 
L 132.779297 89.173594 
L 133.104443 89.173594 
L 133.42959 96.943594 
L 134.730176 96.943594 
L 135.055322 104.713594 
L 135.705615 104.713594 
L 136.030762 112.483594 
L 136.355908 112.483594 
L 136.681055 104.713594 
L 137.006201 112.483594 
L 137.331348 104.713594 
L 137.656494 112.483594 
L 138.631934 112.483594 
L 139.282227 96.943594 
L 139.93252 96.943594 
L 140.257666 89.173594 
L 141.233105 89.173594 
L 141.558252 81.403594 
L 142.533691 81.403594 
L 142.858838 73.633594 
L 143.183984 81.403594 
L 143.509131 81.403594 
L 143.834277 73.633594 
L 144.159424 73.633594 
L 144.48457 81.403594 
L 144.809717 81.403594 
L 145.134863 73.633594 
L 145.46001 73.633594 
L 145.785156 65.863594 
L 146.110303 65.863594 
L 146.435449 58.093594 
L 147.410889 58.093594 
L 147.736035 65.863594 
L 148.061182 65.863594 
L 148.711475 50.323594 
L 149.361768 65.863594 
L 150.012061 65.863594 
L 150.662354 81.403594 
L 151.962939 81.403594 
L 152.288086 89.173594 
L 152.613232 89.173594 
L 152.938379 81.403594 
L 153.913818 104.713594 
L 154.564111 89.173594 
L 155.214404 89.173594 
L 155.864697 73.633594 
L 156.840137 73.633594 
L 157.165283 81.403594 
L 157.49043 81.403594 
L 157.815576 73.633594 
L 158.140723 73.633594 
L 159.116162 50.323594 
L 159.441309 50.323594 
L 159.766455 58.093594 
L 160.091602 58.093594 
L 160.416748 50.323594 
L 160.741895 58.093594 
L 162.04248 58.093594 
L 162.692773 42.553594 
L 163.668213 65.863594 
L 164.318506 65.863594 
L 164.643652 73.633594 
L 164.968799 65.863594 
L 165.619092 65.863594 
L 165.944238 58.093594 
L 166.594531 73.633594 
L 166.919678 65.863594 
L 167.569971 65.863594 
L 167.895117 73.633594 
L 168.220264 73.633594 
L 168.54541 65.863594 
L 168.870557 65.863594 
L 169.52085 81.403594 
L 169.845996 81.403594 
L 170.171143 89.173594 
L 170.496289 81.403594 
L 170.821436 89.173594 
L 171.146582 89.173594 
L 171.796875 73.633594 
L 172.122021 81.403594 
L 173.097461 81.403594 
L 173.422607 73.633594 
L 173.747754 81.403594 
L 174.0729 73.633594 
L 175.373486 73.633594 
L 175.698633 81.403594 
L 176.023779 73.633594 
L 176.348926 73.633594 
L 176.999219 89.173594 
L 177.324365 81.403594 
L 177.974658 81.403594 
L 178.299805 73.633594 
L 178.624951 73.633594 
L 178.950098 65.863594 
L 179.275244 73.633594 
L 179.600391 73.633594 
L 180.57583 50.323594 
L 180.900977 50.323594 
L 181.226123 58.093594 
L 181.55127 58.093594 
L 182.201562 42.553594 
L 182.851855 42.553594 
L 183.177002 50.323594 
L 184.152441 50.323594 
L 184.802734 34.783594 
L 186.428467 34.783594 
L 187.07876 50.323594 
L 188.054199 50.323594 
L 188.379346 42.553594 
L 190.005078 42.553594 
L 190.330225 50.323594 
L 190.980518 50.323594 
L 192.281104 19.243594 
L 193.581689 19.243594 
L 193.906836 27.013594 
L 195.207422 27.013594 
L 195.532568 19.243594 
L 198.784033 19.243594 
L 199.10918 11.473594 
L 200.734912 11.473594 
L 201.060059 19.243594 
L 205.937256 19.243594 
L 206.262402 11.473594 
L 213.415625 11.473594 
L 213.415625 11.473594 
" style="fill: none; stroke: #986e56; stroke-opacity: 0.6; stroke-width: 2; stroke-linecap: square"/>
   </g>
   <g id="line2d_8">
    <path d="M 88.559375 135.793594 
L 88.559375 11.473594 
" clip-path="url(#pa30baba1f8)" style="fill: none; stroke-dasharray: 3.7,1.6; stroke-dashoffset: 0; stroke: #808080; stroke-opacity: 0.3"/>
   </g>
   <g id="line2d_9">
    <path d="M 109.36875 135.793594 
L 109.36875 11.473594 
" clip-path="url(#pa30baba1f8)" style="fill: none; stroke-dasharray: 3.7,1.6; stroke-dashoffset: 0; stroke: #808080; stroke-opacity: 0.3"/>
   </g>
   <g id="line2d_10">
    <path d="M 130.178125 135.793594 
L 130.178125 11.473594 
" clip-path="url(#pa30baba1f8)" style="fill: none; stroke-dasharray: 3.7,1.6; stroke-dashoffset: 0; stroke: #808080; stroke-opacity: 0.3"/>
   </g>
   <g id="line2d_11">
    <path d="M 150.9875 135.793594 
L 150.9875 11.473594 
" clip-path="url(#pa30baba1f8)" style="fill: none; stroke-dasharray: 3.7,1.6; stroke-dashoffset: 0; stroke: #808080; stroke-opacity: 0.3"/>
   </g>
   <g id="line2d_12">
    <path d="M 171.796875 135.793594 
L 171.796875 11.473594 
" clip-path="url(#pa30baba1f8)" style="fill: none; stroke-dasharray: 3.7,1.6; stroke-dashoffset: 0; stroke: #808080; stroke-opacity: 0.3"/>
   </g>
   <g id="line2d_13">
    <path d="M 192.60625 135.793594 
L 192.60625 11.473594 
" clip-path="url(#pa30baba1f8)" style="fill: none; stroke-dasharray: 3.7,1.6; stroke-dashoffset: 0; stroke: #808080; stroke-opacity: 0.3"/>
   </g>
   <g id="line2d_14">
    <path d="M 213.415625 135.793594 
L 213.415625 11.473594 
" clip-path="url(#pa30baba1f8)" style="fill: none; stroke-dasharray: 3.7,1.6; stroke-dashoffset: 0; stroke: #808080; stroke-opacity: 0.3"/>
   </g>
   <g id="line2d_15">
    <path d="M 234.225 135.793594 
L 234.225 11.473594 
" clip-path="url(#pa30baba1f8)" style="fill: none; stroke-dasharray: 3.7,1.6; stroke-dashoffset: 0; stroke: #808080; stroke-opacity: 0.3"/>
   </g>
   <g id="patch_3">
    <path d="M 67.75 135.793594 
L 67.75 11.473594 
" style="fill: none; stroke: #000000; stroke-width: 2; stroke-linejoin: miter; stroke-linecap: square"/>
   </g>
   <g id="patch_4">
    <path d="M 67.75 135.793594 
L 234.225 135.793594 
" style="fill: none; stroke: #000000; stroke-width: 2; stroke-linejoin: miter; stroke-linecap: square"/>
   </g>
   <g id="text_4">
    <!-- S11 -->
    <g transform="translate(183.264531 124.608844) scale(0.25 -0.25)">
     <defs>
      <path id="ArialMT-53" d="M 288 1472 
L 859 1522 
Q 900 1178 1048 958 
Q 1197 738 1509 602 
Q 1822 466 2213 466 
Q 2559 466 2825 569 
Q 3091 672 3220 851 
Q 3350 1031 3350 1244 
Q 3350 1459 3225 1620 
Q 3100 1781 2813 1891 
Q 2628 1963 1997 2114 
Q 1366 2266 1113 2400 
Q 784 2572 623 2826 
Q 463 3081 463 3397 
Q 463 3744 659 4045 
Q 856 4347 1234 4503 
Q 1613 4659 2075 4659 
Q 2584 4659 2973 4495 
Q 3363 4331 3572 4012 
Q 3781 3694 3797 3291 
L 3216 3247 
Q 3169 3681 2898 3903 
Q 2628 4125 2100 4125 
Q 1550 4125 1298 3923 
Q 1047 3722 1047 3438 
Q 1047 3191 1225 3031 
Q 1400 2872 2139 2705 
Q 2878 2538 3153 2413 
Q 3553 2228 3743 1945 
Q 3934 1663 3934 1294 
Q 3934 928 3725 604 
Q 3516 281 3123 101 
Q 2731 -78 2241 -78 
Q 1619 -78 1198 103 
Q 778 284 539 648 
Q 300 1013 288 1472 
z
" transform="scale(0.015625)"/>
     </defs>
     <use xlink:href="#ArialMT-53"/>
     <use xlink:href="#ArialMT-31" x="66.699219"/>
     <use xlink:href="#ArialMT-31" x="114.939453"/>
    </g>
   </g>
  </g>
  <g id="axes_2">
   <g id="patch_5">
    <path d="M 67.75 366.993594 
L 234.225 366.993594 
L 234.225 242.673594 
L 67.75 242.673594 
L 67.75 366.993594 
z
" style="fill: none"/>
   </g>
   <g id="matplotlib.axis_3">
    <g id="xtick_4">
     <g id="line2d_16">
      <g>
       <use xlink:href="#mf9d52deba2" x="67.75" y="366.993594" style="stroke: #000000; stroke-width: 0.8"/>
      </g>
     </g>
     <g id="text_5">
      <!-- 0 -->
      <g transform="translate(61.632969 389.740781) scale(0.22 -0.22)">
       <use xlink:href="#ArialMT-30"/>
      </g>
     </g>
    </g>
    <g id="xtick_5">
     <g id="line2d_17">
      <g>
       <use xlink:href="#mf9d52deba2" x="150.9875" y="366.993594" style="stroke: #000000; stroke-width: 0.8"/>
      </g>
     </g>
     <g id="text_6">
      <!-- 256 -->
      <g transform="translate(132.636406 389.740781) scale(0.22 -0.22)">
       <defs>
        <path id="ArialMT-32" d="M 3222 541 
L 3222 0 
L 194 0 
Q 188 203 259 391 
Q 375 700 629 1000 
Q 884 1300 1366 1694 
Q 2113 2306 2375 2664 
Q 2638 3022 2638 3341 
Q 2638 3675 2398 3904 
Q 2159 4134 1775 4134 
Q 1369 4134 1125 3890 
Q 881 3647 878 3216 
L 300 3275 
Q 359 3922 746 4261 
Q 1134 4600 1788 4600 
Q 2447 4600 2831 4234 
Q 3216 3869 3216 3328 
Q 3216 3053 3103 2787 
Q 2991 2522 2730 2228 
Q 2469 1934 1863 1422 
Q 1356 997 1212 845 
Q 1069 694 975 541 
L 3222 541 
z
" transform="scale(0.015625)"/>
        <path id="ArialMT-36" d="M 3184 3459 
L 2625 3416 
Q 2550 3747 2413 3897 
Q 2184 4138 1850 4138 
Q 1581 4138 1378 3988 
Q 1113 3794 959 3422 
Q 806 3050 800 2363 
Q 1003 2672 1297 2822 
Q 1591 2972 1913 2972 
Q 2475 2972 2870 2558 
Q 3266 2144 3266 1488 
Q 3266 1056 3080 686 
Q 2894 316 2569 119 
Q 2244 -78 1831 -78 
Q 1128 -78 684 439 
Q 241 956 241 2144 
Q 241 3472 731 4075 
Q 1159 4600 1884 4600 
Q 2425 4600 2770 4297 
Q 3116 3994 3184 3459 
z
M 888 1484 
Q 888 1194 1011 928 
Q 1134 663 1356 523 
Q 1578 384 1822 384 
Q 2178 384 2434 671 
Q 2691 959 2691 1453 
Q 2691 1928 2437 2201 
Q 2184 2475 1800 2475 
Q 1419 2475 1153 2201 
Q 888 1928 888 1484 
z
" transform="scale(0.015625)"/>
       </defs>
       <use xlink:href="#ArialMT-32"/>
       <use xlink:href="#ArialMT-35" x="55.615234"/>
       <use xlink:href="#ArialMT-36" x="111.230469"/>
      </g>
     </g>
    </g>
    <g id="xtick_6">
     <g id="line2d_18">
      <g>
       <use xlink:href="#mf9d52deba2" x="234.225" y="366.993594" style="stroke: #000000; stroke-width: 0.8"/>
      </g>
     </g>
     <g id="text_7">
      <!-- 512 -->
      <g transform="translate(215.873906 389.740781) scale(0.22 -0.22)">
       <use xlink:href="#ArialMT-35"/>
       <use xlink:href="#ArialMT-31" x="55.615234"/>
       <use xlink:href="#ArialMT-32" x="111.230469"/>
      </g>
     </g>
    </g>
   </g>
   <g id="matplotlib.axis_4">
    <g id="ytick_4">
     <g id="line2d_19">
      <g>
       <use xlink:href="#m777c92d1d9" x="67.75" y="366.993594" style="stroke: #000000; stroke-width: 0.8"/>
      </g>
     </g>
     <g id="text_8">
      <!-- 0 -->
      <g transform="translate(48.515937 374.867188) scale(0.22 -0.22)">
       <use xlink:href="#ArialMT-30"/>
      </g>
     </g>
    </g>
    <g id="ytick_5">
     <g id="line2d_20">
      <g>
       <use xlink:href="#m777c92d1d9" x="67.75" y="304.833594" style="stroke: #000000; stroke-width: 0.8"/>
      </g>
     </g>
     <g id="text_9">
      <!-- 0.5 -->
      <g transform="translate(30.17 312.707187) scale(0.22 -0.22)">
       <use xlink:href="#ArialMT-30"/>
       <use xlink:href="#ArialMT-2e" x="55.615234"/>
       <use xlink:href="#ArialMT-35" x="83.398438"/>
      </g>
     </g>
    </g>
    <g id="ytick_6">
     <g id="line2d_21">
      <g>
       <use xlink:href="#m777c92d1d9" x="67.75" y="242.673594" style="stroke: #000000; stroke-width: 0.8"/>
      </g>
     </g>
     <g id="text_10">
      <!-- 1 -->
      <g transform="translate(48.515937 250.547187) scale(0.22 -0.22)">
       <use xlink:href="#ArialMT-31"/>
      </g>
     </g>
    </g>
   </g>
   <g id="line2d_22">
    <path d="M 72.952344 312.603594 
L 73.27749 320.373594 
L 73.602637 320.373594 
L 73.927783 312.603594 
L 74.578076 312.603594 
L 74.903223 320.373594 
L 76.528955 320.373594 
L 77.179248 335.913594 
L 77.829541 320.373594 
L 78.80498 320.373594 
L 79.78042 343.683594 
L 80.105566 343.683594 
L 80.430713 335.913594 
L 81.406152 335.913594 
L 82.381592 312.603594 
L 82.706738 312.603594 
L 83.031885 320.373594 
L 83.682178 304.833594 
L 84.007324 304.833594 
L 84.657617 289.293594 
L 85.30791 289.293594 
L 85.633057 297.063594 
L 86.933643 297.063594 
L 87.258789 304.833594 
L 87.909082 304.833594 
L 88.234229 297.063594 
L 88.559375 304.833594 
L 88.884521 304.833594 
L 89.209668 297.063594 
L 90.8354 297.063594 
L 91.485693 281.523594 
L 92.135986 281.523594 
L 92.461133 273.753594 
L 92.786279 281.523594 
L 93.761719 281.523594 
L 94.412012 297.063594 
L 96.688037 297.063594 
L 97.013184 304.833594 
L 97.663477 304.833594 
L 97.988623 297.063594 
L 99.289209 297.063594 
L 99.614355 289.293594 
L 100.914941 289.293594 
L 101.240088 281.523594 
L 101.565234 289.293594 
L 101.890381 289.293594 
L 102.215527 281.523594 
L 103.190967 304.833594 
L 103.516113 304.833594 
L 103.84126 312.603594 
L 105.141846 312.603594 
L 105.466992 320.373594 
L 106.117285 304.833594 
L 106.442432 312.603594 
L 106.767578 304.833594 
L 107.417871 320.373594 
L 108.393311 297.063594 
L 108.718457 304.833594 
L 109.043604 304.833594 
L 109.36875 297.063594 
L 110.019043 297.063594 
L 110.344189 304.833594 
L 110.669336 304.833594 
L 110.994482 312.603594 
L 111.319629 312.603594 
L 111.644775 304.833594 
L 111.969922 304.833594 
L 112.295068 297.063594 
L 112.620215 297.063594 
L 113.595654 320.373594 
L 114.245947 304.833594 
L 115.546533 304.833594 
L 116.196826 289.293594 
L 116.521973 297.063594 
L 116.847119 297.063594 
L 117.497412 312.603594 
L 118.797998 281.523594 
L 119.123145 281.523594 
L 119.448291 289.293594 
L 119.773437 289.293594 
L 120.098584 281.523594 
L 120.42373 289.293594 
L 120.748877 281.523594 
L 121.074023 289.293594 
L 124.000342 289.293594 
L 124.325488 297.063594 
L 124.650635 297.063594 
L 124.975781 304.833594 
L 125.300928 304.833594 
L 125.626074 297.063594 
L 125.951221 304.833594 
L 126.276367 297.063594 
L 126.601514 304.833594 
L 127.576953 304.833594 
L 127.9021 297.063594 
L 128.227246 304.833594 
L 128.552393 304.833594 
L 129.202686 320.373594 
L 129.527832 312.603594 
L 130.178125 312.603594 
L 130.828418 328.143594 
L 131.153564 320.373594 
L 131.478711 328.143594 
L 131.803857 328.143594 
L 132.129004 320.373594 
L 132.45415 328.143594 
L 132.779297 320.373594 
L 134.730176 320.373594 
L 135.055322 312.603594 
L 135.380469 312.603594 
L 136.030762 297.063594 
L 136.355908 304.833594 
L 137.006201 289.293594 
L 137.981641 289.293594 
L 138.306787 297.063594 
L 138.95708 297.063594 
L 139.607373 281.523594 
L 139.93252 281.523594 
L 140.257666 289.293594 
L 140.582812 289.293594 
L 140.907959 297.063594 
L 141.883398 297.063594 
L 142.533691 312.603594 
L 143.183984 312.603594 
L 143.834277 297.063594 
L 144.159424 297.063594 
L 144.48457 304.833594 
L 145.785156 304.833594 
L 146.110303 297.063594 
L 146.435449 304.833594 
L 146.760596 297.063594 
L 147.085742 297.063594 
L 147.736035 281.523594 
L 148.061182 281.523594 
L 148.386328 289.293594 
L 149.686914 289.293594 
L 150.012061 297.063594 
L 150.337207 297.063594 
L 150.662354 289.293594 
L 150.9875 289.293594 
L 151.312646 297.063594 
L 151.962939 297.063594 
L 152.613232 312.603594 
L 152.938379 312.603594 
L 153.588672 297.063594 
L 154.238965 312.603594 
L 154.564111 312.603594 
L 154.889258 304.833594 
L 156.51499 304.833594 
L 156.840137 297.063594 
L 157.165283 297.063594 
L 157.815576 281.523594 
L 158.791016 281.523594 
L 159.441309 265.983594 
L 161.717334 265.983594 
L 162.04248 273.753594 
L 162.367627 273.753594 
L 163.343066 297.063594 
L 165.619092 297.063594 
L 165.944238 304.833594 
L 166.919678 304.833594 
L 167.244824 297.063594 
L 168.870557 297.063594 
L 169.195703 304.833594 
L 169.845996 304.833594 
L 170.171143 312.603594 
L 170.496289 312.603594 
L 171.146582 297.063594 
L 171.471729 304.833594 
L 171.796875 304.833594 
L 172.122021 297.063594 
L 172.447168 297.063594 
L 172.772314 304.833594 
L 173.747754 281.523594 
L 174.0729 289.293594 
L 175.698633 289.293594 
L 176.023779 297.063594 
L 176.348926 297.063594 
L 176.999219 281.523594 
L 178.950098 281.523594 
L 179.600391 265.983594 
L 179.925537 273.753594 
L 180.250684 273.753594 
L 180.57583 265.983594 
L 180.900977 273.753594 
L 182.851855 273.753594 
L 183.177002 265.983594 
L 183.502148 273.753594 
L 184.152441 273.753594 
L 184.477588 281.523594 
L 184.802734 281.523594 
L 185.127881 273.753594 
L 185.453027 273.753594 
L 185.778174 281.523594 
L 186.428467 265.983594 
L 188.379346 265.983594 
L 188.704492 258.213594 
L 189.354785 273.753594 
L 189.679932 265.983594 
L 190.005078 273.753594 
L 190.655371 273.753594 
L 190.980518 265.983594 
L 193.906836 265.983594 
L 194.557129 250.443594 
L 194.882275 258.213594 
L 195.207422 250.443594 
L 197.808594 250.443594 
L 198.458887 265.983594 
L 199.434326 265.983594 
L 199.759473 273.753594 
L 200.084619 265.983594 
L 201.060059 265.983594 
L 201.385205 273.753594 
L 203.010937 273.753594 
L 203.66123 258.213594 
L 203.986377 258.213594 
L 204.311523 265.983594 
L 204.63667 265.983594 
L 204.961816 258.213594 
L 205.286963 258.213594 
L 205.612109 265.983594 
L 206.262402 265.983594 
L 206.587549 258.213594 
L 206.912695 258.213594 
L 207.237842 265.983594 
L 209.188721 265.983594 
L 209.513867 258.213594 
L 210.489307 258.213594 
L 210.814453 250.443594 
L 211.464746 250.443594 
L 211.789893 258.213594 
L 212.115039 258.213594 
L 212.440186 250.443594 
L 214.065918 250.443594 
L 214.391064 258.213594 
L 216.66709 258.213594 
L 216.992236 250.443594 
L 217.967676 250.443594 
L 218.292822 258.213594 
L 219.268262 258.213594 
L 219.593408 250.443594 
L 222.844873 250.443594 
L 223.17002 258.213594 
L 226.096338 258.213594 
L 226.421484 265.983594 
L 228.047217 265.983594 
L 228.69751 250.443594 
L 229.022656 250.443594 
L 229.347803 258.213594 
L 231.298682 258.213594 
L 231.623828 250.443594 
L 231.948975 258.213594 
L 231.948975 258.213594 
" style="fill: none; stroke: #986e56; stroke-opacity: 0.6; stroke-width: 2; stroke-linecap: square"/>
   </g>
   <g id="line2d_23">
    <path d="M 88.559375 366.993594 
L 88.559375 242.673594 
" clip-path="url(#pe3a8236fa6)" style="fill: none; stroke-dasharray: 3.7,1.6; stroke-dashoffset: 0; stroke: #808080; stroke-opacity: 0.3"/>
   </g>
   <g id="line2d_24">
    <path d="M 109.36875 366.993594 
L 109.36875 242.673594 
" clip-path="url(#pe3a8236fa6)" style="fill: none; stroke-dasharray: 3.7,1.6; stroke-dashoffset: 0; stroke: #808080; stroke-opacity: 0.3"/>
   </g>
   <g id="line2d_25">
    <path d="M 130.178125 366.993594 
L 130.178125 242.673594 
" clip-path="url(#pe3a8236fa6)" style="fill: none; stroke-dasharray: 3.7,1.6; stroke-dashoffset: 0; stroke: #808080; stroke-opacity: 0.3"/>
   </g>
   <g id="line2d_26">
    <path d="M 150.9875 366.993594 
L 150.9875 242.673594 
" clip-path="url(#pe3a8236fa6)" style="fill: none; stroke-dasharray: 3.7,1.6; stroke-dashoffset: 0; stroke: #808080; stroke-opacity: 0.3"/>
   </g>
   <g id="line2d_27">
    <path d="M 171.796875 366.993594 
L 171.796875 242.673594 
" clip-path="url(#pe3a8236fa6)" style="fill: none; stroke-dasharray: 3.7,1.6; stroke-dashoffset: 0; stroke: #808080; stroke-opacity: 0.3"/>
   </g>
   <g id="line2d_28">
    <path d="M 192.60625 366.993594 
L 192.60625 242.673594 
" clip-path="url(#pe3a8236fa6)" style="fill: none; stroke-dasharray: 3.7,1.6; stroke-dashoffset: 0; stroke: #808080; stroke-opacity: 0.3"/>
   </g>
   <g id="line2d_29">
    <path d="M 213.415625 366.993594 
L 213.415625 242.673594 
" clip-path="url(#pe3a8236fa6)" style="fill: none; stroke-dasharray: 3.7,1.6; stroke-dashoffset: 0; stroke: #808080; stroke-opacity: 0.3"/>
   </g>
   <g id="line2d_30">
    <path d="M 234.225 366.993594 
L 234.225 242.673594 
" clip-path="url(#pe3a8236fa6)" style="fill: none; stroke-dasharray: 3.7,1.6; stroke-dashoffset: 0; stroke: #808080; stroke-opacity: 0.3"/>
   </g>
   <g id="patch_6">
    <path d="M 67.75 366.993594 
L 67.75 242.673594 
" style="fill: none; stroke: #000000; stroke-width: 2; stroke-linejoin: miter; stroke-linecap: square"/>
   </g>
   <g id="patch_7">
    <path d="M 67.75 366.993594 
L 234.225 366.993594 
" style="fill: none; stroke: #000000; stroke-width: 2; stroke-linejoin: miter; stroke-linecap: square"/>
   </g>
   <g id="text_11">
    <!-- S16 -->
    <g transform="translate(181.420781 355.808844) scale(0.25 -0.25)">
     <use xlink:href="#ArialMT-53"/>
     <use xlink:href="#ArialMT-31" x="66.699219"/>
     <use xlink:href="#ArialMT-36" x="122.314453"/>
    </g>
   </g>
  </g>
  <g id="text_12">
   <!-- Trial -->
   <g transform="translate(120.166016 421.153594) scale(0.25 -0.25)">
    <defs>
     <path id="ArialMT-54" d="M 1659 0 
L 1659 4041 
L 150 4041 
L 150 4581 
L 3781 4581 
L 3781 4041 
L 2266 4041 
L 2266 0 
L 1659 0 
z
" transform="scale(0.015625)"/>
     <path id="ArialMT-72" d="M 416 0 
L 416 3319 
L 922 3319 
L 922 2816 
Q 1116 3169 1280 3281 
Q 1444 3394 1641 3394 
Q 1925 3394 2219 3213 
L 2025 2691 
Q 1819 2813 1613 2813 
Q 1428 2813 1281 2702 
Q 1134 2591 1072 2394 
Q 978 2094 978 1738 
L 978 0 
L 416 0 
z
" transform="scale(0.015625)"/>
     <path id="ArialMT-69" d="M 425 3934 
L 425 4581 
L 988 4581 
L 988 3934 
L 425 3934 
z
M 425 0 
L 425 3319 
L 988 3319 
L 988 0 
L 425 0 
z
" transform="scale(0.015625)"/>
     <path id="ArialMT-61" d="M 2588 409 
Q 2275 144 1986 34 
Q 1697 -75 1366 -75 
Q 819 -75 525 192 
Q 231 459 231 875 
Q 231 1119 342 1320 
Q 453 1522 633 1644 
Q 813 1766 1038 1828 
Q 1203 1872 1538 1913 
Q 2219 1994 2541 2106 
Q 2544 2222 2544 2253 
Q 2544 2597 2384 2738 
Q 2169 2928 1744 2928 
Q 1347 2928 1158 2789 
Q 969 2650 878 2297 
L 328 2372 
Q 403 2725 575 2942 
Q 747 3159 1072 3276 
Q 1397 3394 1825 3394 
Q 2250 3394 2515 3294 
Q 2781 3194 2906 3042 
Q 3031 2891 3081 2659 
Q 3109 2516 3109 2141 
L 3109 1391 
Q 3109 606 3145 398 
Q 3181 191 3288 0 
L 2700 0 
Q 2613 175 2588 409 
z
M 2541 1666 
Q 2234 1541 1622 1453 
Q 1275 1403 1131 1340 
Q 988 1278 909 1158 
Q 831 1038 831 891 
Q 831 666 1001 516 
Q 1172 366 1500 366 
Q 1825 366 2078 508 
Q 2331 650 2450 897 
Q 2541 1088 2541 1459 
L 2541 1666 
z
" transform="scale(0.015625)"/>
     <path id="ArialMT-6c" d="M 409 0 
L 409 4581 
L 972 4581 
L 972 0 
L 409 0 
z
" transform="scale(0.015625)"/>
    </defs>
    <use xlink:href="#ArialMT-54"/>
    <use xlink:href="#ArialMT-72" x="57.333984"/>
    <use xlink:href="#ArialMT-69" x="90.634766"/>
    <use xlink:href="#ArialMT-61" x="112.851562"/>
    <use xlink:href="#ArialMT-6c" x="168.466797"/>
   </g>
  </g>
  <g id="text_13">
   <!-- Accuracy -->
   <g transform="translate(21.494531 246.835938) rotate(-90) scale(0.25 -0.25)">
    <defs>
     <path id="ArialMT-41" d="M -9 0 
L 1750 4581 
L 2403 4581 
L 4278 0 
L 3588 0 
L 3053 1388 
L 1138 1388 
L 634 0 
L -9 0 
z
M 1313 1881 
L 2866 1881 
L 2388 3150 
Q 2169 3728 2063 4100 
Q 1975 3659 1816 3225 
L 1313 1881 
z
" transform="scale(0.015625)"/>
     <path id="ArialMT-63" d="M 2588 1216 
L 3141 1144 
Q 3050 572 2676 248 
Q 2303 -75 1759 -75 
Q 1078 -75 664 370 
Q 250 816 250 1647 
Q 250 2184 428 2587 
Q 606 2991 970 3192 
Q 1334 3394 1763 3394 
Q 2303 3394 2647 3120 
Q 2991 2847 3088 2344 
L 2541 2259 
Q 2463 2594 2264 2762 
Q 2066 2931 1784 2931 
Q 1359 2931 1093 2626 
Q 828 2322 828 1663 
Q 828 994 1084 691 
Q 1341 388 1753 388 
Q 2084 388 2306 591 
Q 2528 794 2588 1216 
z
" transform="scale(0.015625)"/>
     <path id="ArialMT-75" d="M 2597 0 
L 2597 488 
Q 2209 -75 1544 -75 
Q 1250 -75 995 37 
Q 741 150 617 320 
Q 494 491 444 738 
Q 409 903 409 1263 
L 409 3319 
L 972 3319 
L 972 1478 
Q 972 1038 1006 884 
Q 1059 663 1231 536 
Q 1403 409 1656 409 
Q 1909 409 2131 539 
Q 2353 669 2445 892 
Q 2538 1116 2538 1541 
L 2538 3319 
L 3100 3319 
L 3100 0 
L 2597 0 
z
" transform="scale(0.015625)"/>
     <path id="ArialMT-79" d="M 397 -1278 
L 334 -750 
Q 519 -800 656 -800 
Q 844 -800 956 -737 
Q 1069 -675 1141 -563 
Q 1194 -478 1313 -144 
Q 1328 -97 1363 -6 
L 103 3319 
L 709 3319 
L 1400 1397 
Q 1534 1031 1641 628 
Q 1738 1016 1872 1384 
L 2581 3319 
L 3144 3319 
L 1881 -56 
Q 1678 -603 1566 -809 
Q 1416 -1088 1222 -1217 
Q 1028 -1347 759 -1347 
Q 597 -1347 397 -1278 
z
" transform="scale(0.015625)"/>
    </defs>
    <use xlink:href="#ArialMT-41"/>
    <use xlink:href="#ArialMT-63" x="66.699219"/>
    <use xlink:href="#ArialMT-63" x="116.699219"/>
    <use xlink:href="#ArialMT-75" x="166.699219"/>
    <use xlink:href="#ArialMT-72" x="222.314453"/>
    <use xlink:href="#ArialMT-61" x="255.615234"/>
    <use xlink:href="#ArialMT-63" x="311.230469"/>
    <use xlink:href="#ArialMT-79" x="361.230469"/>
   </g>
  </g>
 </g>
 <defs>
  <clipPath id="pa30baba1f8">
   <rect x="67.75" y="11.473594" width="166.475" height="124.32"/>
  </clipPath>
  <clipPath id="pe3a8236fa6">
   <rect x="67.75" y="242.673594" width="166.475" height="124.32"/>
  </clipPath>
 </defs>
</svg>
