<?xml version="1.0" encoding="utf-8" standalone="no"?>
<!DOCTYPE svg PUBLIC "-//W3C//DTD SVG 1.1//EN"
  "http://www.w3.org/Graphics/SVG/1.1/DTD/svg11.dtd">
<svg xmlns:xlink="http://www.w3.org/1999/xlink" width="320.625pt" height="429.722344pt" viewBox="0 0 320.625 429.722344" xmlns="http://www.w3.org/2000/svg" version="1.1">
 <metadata>
  <rdf:RDF xmlns:dc="http://purl.org/dc/elements/1.1/" xmlns:cc="http://creativecommons.org/ns#" xmlns:rdf="http://www.w3.org/1999/02/22-rdf-syntax-ns#">
   <cc:Work>
    <dc:type rdf:resource="http://purl.org/dc/dcmitype/StillImage"/>
    <dc:date>2025-05-19T19:04:58.391365</dc:date>
    <dc:format>image/svg+xml</dc:format>
    <dc:creator>
     <cc:Agent>
      <dc:title>Matplotlib v3.8.4, https://matplotlib.org/</dc:title>
     </cc:Agent>
    </dc:creator>
   </cc:Work>
  </rdf:RDF>
 </metadata>
 <defs>
  <style type="text/css">*{stroke-linejoin: round; stroke-linecap: butt}</style>
 </defs>
 <g id="figure_1">
  <g id="patch_1">
   <path d="M 0 429.722344 
L 320.625 429.722344 
L 320.625 0 
L 0 0 
L 0 429.722344 
z
" style="fill: none"/>
  </g>
  <g id="axes_1">
   <g id="patch_2">
    <path d="M 78.55 135.793594 
L 178.425 135.793594 
L 178.425 11.473594 
L 78.55 11.473594 
L 78.55 135.793594 
z
" style="fill: none"/>
   </g>
   <g id="matplotlib.axis_1">
    <g id="xtick_1">
     <g id="line2d_1">
      <defs>
       <path id="mcc209f26b0" d="M 0 0 
L 0 3.5 
" style="stroke: #000000; stroke-width: 0.8"/>
      </defs>
      <g>
       <use xlink:href="#mcc209f26b0" x="78.55" y="135.793594" style="stroke: #000000; stroke-width: 0.8"/>
      </g>
     </g>
    </g>
    <g id="xtick_2">
     <g id="line2d_2">
      <g>
       <use xlink:href="#mcc209f26b0" x="128.4875" y="135.793594" style="stroke: #000000; stroke-width: 0.8"/>
      </g>
     </g>
    </g>
    <g id="xtick_3">
     <g id="line2d_3">
      <g>
       <use xlink:href="#mcc209f26b0" x="178.425" y="135.793594" style="stroke: #000000; stroke-width: 0.8"/>
      </g>
     </g>
    </g>
   </g>
   <g id="matplotlib.axis_2">
    <g id="ytick_1">
     <g id="line2d_4">
      <defs>
       <path id="m51ad98ad4f" d="M 0 0 
L -3.5 0 
" style="stroke: #000000; stroke-width: 0.8"/>
      </defs>
      <g>
       <use xlink:href="#m51ad98ad4f" x="78.55" y="135.793594" style="stroke: #000000; stroke-width: 0.8"/>
      </g>
     </g>
     <g id="text_1">
      <!-- 0 -->
      <g transform="translate(59.315937 143.667188) scale(0.22 -0.22)">
       <defs>
        <path id="ArialMT-30" d="M 266 2259 
Q 266 3072 433 3567 
Q 600 4063 929 4331 
Q 1259 4600 1759 4600 
Q 2128 4600 2406 4451 
Q 2684 4303 2865 4023 
Q 3047 3744 3150 3342 
Q 3253 2941 3253 2259 
Q 3253 1453 3087 958 
Q 2922 463 2592 192 
Q 2263 -78 1759 -78 
Q 1097 -78 719 397 
Q 266 969 266 2259 
z
M 844 2259 
Q 844 1131 1108 757 
Q 1372 384 1759 384 
Q 2147 384 2411 759 
Q 2675 1134 2675 2259 
Q 2675 3391 2411 3762 
Q 2147 4134 1753 4134 
Q 1366 4134 1134 3806 
Q 844 3388 844 2259 
z
" transform="scale(0.015625)"/>
       </defs>
       <use xlink:href="#ArialMT-30"/>
      </g>
     </g>
    </g>
    <g id="ytick_2">
     <g id="line2d_5">
      <g>
       <use xlink:href="#m51ad98ad4f" x="78.55" y="73.633594" style="stroke: #000000; stroke-width: 0.8"/>
      </g>
     </g>
     <g id="text_2">
      <!-- 0.5 -->
      <g transform="translate(40.97 81.507187) scale(0.22 -0.22)">
       <defs>
        <path id="ArialMT-2e" d="M 581 0 
L 581 641 
L 1222 641 
L 1222 0 
L 581 0 
z
" transform="scale(0.015625)"/>
        <path id="ArialMT-35" d="M 266 1200 
L 856 1250 
Q 922 819 1161 601 
Q 1400 384 1738 384 
Q 2144 384 2425 690 
Q 2706 997 2706 1503 
Q 2706 1984 2436 2262 
Q 2166 2541 1728 2541 
Q 1456 2541 1237 2417 
Q 1019 2294 894 2097 
L 366 2166 
L 809 4519 
L 3088 4519 
L 3088 3981 
L 1259 3981 
L 1013 2750 
Q 1425 3038 1878 3038 
Q 2478 3038 2890 2622 
Q 3303 2206 3303 1553 
Q 3303 931 2941 478 
Q 2500 -78 1738 -78 
Q 1113 -78 717 272 
Q 322 622 266 1200 
z
" transform="scale(0.015625)"/>
       </defs>
       <use xlink:href="#ArialMT-30"/>
       <use xlink:href="#ArialMT-2e" x="55.615234"/>
       <use xlink:href="#ArialMT-35" x="83.398438"/>
      </g>
     </g>
    </g>
    <g id="ytick_3">
     <g id="line2d_6">
      <g>
       <use xlink:href="#m51ad98ad4f" x="78.55" y="11.473594" style="stroke: #000000; stroke-width: 0.8"/>
      </g>
     </g>
     <g id="text_3">
      <!-- 1 -->
      <g transform="translate(59.315937 19.347187) scale(0.22 -0.22)">
       <defs>
        <path id="ArialMT-31" d="M 2384 0 
L 1822 0 
L 1822 3584 
Q 1619 3391 1289 3197 
Q 959 3003 697 2906 
L 697 3450 
Q 1169 3672 1522 3987 
Q 1875 4303 2022 4600 
L 2384 4600 
L 2384 0 
z
" transform="scale(0.015625)"/>
       </defs>
       <use xlink:href="#ArialMT-31"/>
      </g>
     </g>
    </g>
   </g>
   <g id="line2d_7">
    <path d="M 84.792187 54.208594 
L 85.182324 54.208594 
L 85.962598 46.438594 
L 86.352734 54.208594 
L 86.742871 58.093594 
L 87.133008 65.863594 
L 87.523145 65.863594 
L 87.913281 69.748594 
L 88.303418 77.518594 
L 88.693555 73.633594 
L 89.473828 58.093594 
L 90.644238 58.093594 
L 91.034375 61.978594 
L 91.814648 61.978594 
L 92.204785 65.863594 
L 92.985059 58.093594 
L 93.375195 50.323594 
L 93.765332 46.438594 
L 94.155469 38.668594 
L 94.545605 38.668594 
L 94.935742 42.553594 
L 95.325879 42.553594 
L 95.716016 50.323594 
L 96.496289 50.323594 
L 96.886426 42.553594 
L 97.276562 38.668594 
L 97.666699 46.438594 
L 98.056836 50.323594 
L 98.837109 42.553594 
L 99.617383 42.553594 
L 100.00752 50.323594 
L 100.397656 50.323594 
L 100.787793 42.553594 
L 101.17793 38.668594 
L 101.568066 38.668594 
L 101.958203 30.898594 
L 103.51875 30.898594 
L 103.908887 23.128594 
L 104.299023 19.243594 
L 105.85957 19.243594 
L 106.249707 11.473594 
L 108.200391 11.473594 
L 108.590527 19.243594 
L 114.442578 19.243594 
L 114.832715 11.473594 
L 115.222852 11.473594 
L 115.612988 15.358594 
L 119.124219 15.358594 
L 119.514355 23.128594 
L 121.465039 23.128594 
L 121.855176 19.243594 
L 122.245313 23.128594 
L 122.635449 23.128594 
L 123.025586 30.898594 
L 123.415723 30.898594 
L 123.805859 34.783594 
L 124.195996 34.783594 
L 124.586133 42.553594 
L 125.366406 42.553594 
L 125.756543 34.783594 
L 128.097363 34.783594 
L 128.4875 30.898594 
L 128.4875 30.898594 
" style="fill: none; stroke: #986e56; stroke-opacity: 0.6; stroke-width: 2; stroke-linecap: square"/>
   </g>
   <g id="line2d_8">
    <path d="M 103.51875 135.793594 
L 103.51875 11.473594 
" clip-path="url(#paf3f20084d)" style="fill: none; stroke-dasharray: 3.7,1.6; stroke-dashoffset: 0; stroke: #808080; stroke-opacity: 0.3"/>
   </g>
   <g id="line2d_9">
    <path d="M 128.4875 135.793594 
L 128.4875 11.473594 
" clip-path="url(#paf3f20084d)" style="fill: none; stroke-dasharray: 3.7,1.6; stroke-dashoffset: 0; stroke: #808080; stroke-opacity: 0.3"/>
   </g>
   <g id="line2d_10">
    <path d="M 153.45625 135.793594 
L 153.45625 11.473594 
" clip-path="url(#paf3f20084d)" style="fill: none; stroke-dasharray: 3.7,1.6; stroke-dashoffset: 0; stroke: #808080; stroke-opacity: 0.3"/>
   </g>
   <g id="line2d_11">
    <path d="M 178.425 135.793594 
L 178.425 11.473594 
" clip-path="url(#paf3f20084d)" style="fill: none; stroke-dasharray: 3.7,1.6; stroke-dashoffset: 0; stroke: #808080; stroke-opacity: 0.3"/>
   </g>
   <g id="patch_3">
    <path d="M 78.55 135.793594 
L 78.55 11.473594 
" style="fill: none; stroke: #000000; stroke-width: 2; stroke-linejoin: miter; stroke-linecap: square"/>
   </g>
   <g id="patch_4">
    <path d="M 78.55 135.793594 
L 178.425 135.793594 
" style="fill: none; stroke: #000000; stroke-width: 2; stroke-linejoin: miter; stroke-linecap: square"/>
   </g>
   <g id="text_4">
    <!-- S19 -->
    <g transform="translate(128.950781 124.608844) scale(0.25 -0.25)">
     <defs>
      <path id="ArialMT-53" d="M 288 1472 
L 859 1522 
Q 900 1178 1048 958 
Q 1197 738 1509 602 
Q 1822 466 2213 466 
Q 2559 466 2825 569 
Q 3091 672 3220 851 
Q 3350 1031 3350 1244 
Q 3350 1459 3225 1620 
Q 3100 1781 2813 1891 
Q 2628 1963 1997 2114 
Q 1366 2266 1113 2400 
Q 784 2572 623 2826 
Q 463 3081 463 3397 
Q 463 3744 659 4045 
Q 856 4347 1234 4503 
Q 1613 4659 2075 4659 
Q 2584 4659 2973 4495 
Q 3363 4331 3572 4012 
Q 3781 3694 3797 3291 
L 3216 3247 
Q 3169 3681 2898 3903 
Q 2628 4125 2100 4125 
Q 1550 4125 1298 3923 
Q 1047 3722 1047 3438 
Q 1047 3191 1225 3031 
Q 1400 2872 2139 2705 
Q 2878 2538 3153 2413 
Q 3553 2228 3743 1945 
Q 3934 1663 3934 1294 
Q 3934 928 3725 604 
Q 3516 281 3123 101 
Q 2731 -78 2241 -78 
Q 1619 -78 1198 103 
Q 778 284 539 648 
Q 300 1013 288 1472 
z
" transform="scale(0.015625)"/>
      <path id="ArialMT-39" d="M 350 1059 
L 891 1109 
Q 959 728 1153 556 
Q 1347 384 1650 384 
Q 1909 384 2104 503 
Q 2300 622 2425 820 
Q 2550 1019 2634 1356 
Q 2719 1694 2719 2044 
Q 2719 2081 2716 2156 
Q 2547 1888 2255 1720 
Q 1963 1553 1622 1553 
Q 1053 1553 659 1965 
Q 266 2378 266 3053 
Q 266 3750 677 4175 
Q 1088 4600 1706 4600 
Q 2153 4600 2523 4359 
Q 2894 4119 3086 3673 
Q 3278 3228 3278 2384 
Q 3278 1506 3087 986 
Q 2897 466 2520 194 
Q 2144 -78 1638 -78 
Q 1100 -78 759 220 
Q 419 519 350 1059 
z
M 2653 3081 
Q 2653 3566 2395 3850 
Q 2138 4134 1775 4134 
Q 1400 4134 1122 3828 
Q 844 3522 844 3034 
Q 844 2597 1108 2323 
Q 1372 2050 1759 2050 
Q 2150 2050 2401 2323 
Q 2653 2597 2653 3081 
z
" transform="scale(0.015625)"/>
     </defs>
     <use xlink:href="#ArialMT-53"/>
     <use xlink:href="#ArialMT-31" x="66.699219"/>
     <use xlink:href="#ArialMT-39" x="122.314453"/>
    </g>
   </g>
  </g>
  <g id="axes_2">
   <g id="patch_5">
    <path d="M 217.15 135.793594 
L 317.025 135.793594 
L 317.025 11.473594 
L 217.15 11.473594 
L 217.15 135.793594 
z
" style="fill: none"/>
   </g>
   <g id="matplotlib.axis_3">
    <g id="xtick_4">
     <g id="line2d_12">
      <g>
       <use xlink:href="#mcc209f26b0" x="217.15" y="135.793594" style="stroke: #000000; stroke-width: 0.8"/>
      </g>
     </g>
    </g>
    <g id="xtick_5">
     <g id="line2d_13">
      <g>
       <use xlink:href="#mcc209f26b0" x="267.0875" y="135.793594" style="stroke: #000000; stroke-width: 0.8"/>
      </g>
     </g>
    </g>
    <g id="xtick_6">
     <g id="line2d_14">
      <g>
       <use xlink:href="#mcc209f26b0" x="317.025" y="135.793594" style="stroke: #000000; stroke-width: 0.8"/>
      </g>
     </g>
    </g>
   </g>
   <g id="matplotlib.axis_4">
    <g id="ytick_4">
     <g id="line2d_15">
      <g>
       <use xlink:href="#m51ad98ad4f" x="217.15" y="135.793594" style="stroke: #000000; stroke-width: 0.8"/>
      </g>
     </g>
    </g>
    <g id="ytick_5">
     <g id="line2d_16">
      <g>
       <use xlink:href="#m51ad98ad4f" x="217.15" y="73.633594" style="stroke: #000000; stroke-width: 0.8"/>
      </g>
     </g>
    </g>
    <g id="ytick_6">
     <g id="line2d_17">
      <g>
       <use xlink:href="#m51ad98ad4f" x="217.15" y="11.473594" style="stroke: #000000; stroke-width: 0.8"/>
      </g>
     </g>
    </g>
   </g>
   <g id="line2d_18">
    <path d="M 223.392188 104.713594 
L 223.782324 96.943594 
L 224.172461 104.713594 
L 224.952734 96.943594 
L 225.342871 96.943594 
L 226.123145 89.173594 
L 226.513281 89.173594 
L 226.903418 96.943594 
L 227.293555 89.173594 
L 228.073828 89.173594 
L 228.854102 81.403594 
L 229.244238 73.633594 
L 230.024512 89.173594 
L 230.414648 81.403594 
L 230.804785 81.403594 
L 231.194922 85.288594 
L 231.585059 77.518594 
L 231.975195 77.518594 
L 232.365332 73.633594 
L 232.755469 73.633594 
L 233.145605 69.748594 
L 233.535742 77.518594 
L 235.486426 77.518594 
L 235.876563 73.633594 
L 236.266699 73.633594 
L 237.046973 81.403594 
L 237.437109 81.403594 
L 238.60752 93.058594 
L 238.997656 85.288594 
L 239.387793 81.403594 
L 239.77793 81.403594 
L 240.168066 85.288594 
L 241.338477 73.633594 
L 241.728613 77.518594 
L 242.508887 69.748594 
L 242.899023 69.748594 
L 244.069434 58.093594 
L 244.45957 50.323594 
L 245.62998 50.323594 
L 246.410254 42.553594 
L 247.580664 42.553594 
L 247.970801 38.668594 
L 248.360938 46.438594 
L 248.751074 42.553594 
L 249.921484 42.553594 
L 250.311621 46.438594 
L 250.701758 46.438594 
L 251.091895 42.553594 
L 252.652441 42.553594 
L 253.042578 38.668594 
L 254.212988 38.668594 
L 254.603125 34.783594 
L 255.383398 34.783594 
L 255.773535 30.898594 
L 256.163672 34.783594 
L 256.553809 30.898594 
L 256.943945 34.783594 
L 258.114355 34.783594 
L 258.894629 27.013594 
L 260.455176 27.013594 
L 260.845313 23.128594 
L 261.625586 23.128594 
L 262.015723 27.013594 
L 262.405859 23.128594 
L 262.795996 23.128594 
L 263.186133 19.243594 
L 267.477637 19.243594 
L 268.25791 11.473594 
L 269.038184 11.473594 
L 269.818457 19.243594 
L 270.208594 19.243594 
L 270.59873 27.013594 
L 271.379004 27.013594 
L 271.769141 30.898594 
L 275.280371 30.898594 
L 276.060645 23.128594 
L 276.450781 23.128594 
L 276.840918 19.243594 
L 277.231055 19.243594 
L 277.621191 23.128594 
L 278.011328 19.243594 
L 278.401465 19.243594 
L 278.791602 27.013594 
L 279.962012 27.013594 
L 280.352148 34.783594 
L 282.692969 34.783594 
L 283.083105 30.898594 
L 283.473242 38.668594 
L 283.863379 34.783594 
L 284.643652 34.783594 
L 285.033789 27.013594 
L 286.204199 27.013594 
L 286.594336 19.243594 
L 286.984473 27.013594 
L 289.325293 27.013594 
L 289.71543 19.243594 
L 292.836523 19.243594 
L 293.22666 11.473594 
L 306.101172 11.473594 
L 306.491309 19.243594 
L 308.441992 19.243594 
L 308.832129 23.128594 
L 312.343359 23.128594 
L 312.733496 15.358594 
L 314.68418 15.358594 
L 315.074316 11.473594 
L 317.025 11.473594 
L 317.025 11.473594 
" style="fill: none; stroke: #986e56; stroke-opacity: 0.6; stroke-width: 2; stroke-linecap: square"/>
   </g>
   <g id="line2d_19">
    <path d="M 242.11875 135.793594 
L 242.11875 11.473594 
" clip-path="url(#p07edcb3132)" style="fill: none; stroke-dasharray: 3.7,1.6; stroke-dashoffset: 0; stroke: #808080; stroke-opacity: 0.3"/>
   </g>
   <g id="line2d_20">
    <path d="M 267.0875 135.793594 
L 267.0875 11.473594 
" clip-path="url(#p07edcb3132)" style="fill: none; stroke-dasharray: 3.7,1.6; stroke-dashoffset: 0; stroke: #808080; stroke-opacity: 0.3"/>
   </g>
   <g id="line2d_21">
    <path d="M 292.05625 135.793594 
L 292.05625 11.473594 
" clip-path="url(#p07edcb3132)" style="fill: none; stroke-dasharray: 3.7,1.6; stroke-dashoffset: 0; stroke: #808080; stroke-opacity: 0.3"/>
   </g>
   <g id="line2d_22">
    <path d="M 317.025 135.793594 
L 317.025 11.473594 
" clip-path="url(#p07edcb3132)" style="fill: none; stroke-dasharray: 3.7,1.6; stroke-dashoffset: 0; stroke: #808080; stroke-opacity: 0.3"/>
   </g>
   <g id="patch_6">
    <path d="M 217.15 135.793594 
L 217.15 11.473594 
" style="fill: none; stroke: #000000; stroke-width: 2; stroke-linejoin: miter; stroke-linecap: square"/>
   </g>
   <g id="patch_7">
    <path d="M 217.15 135.793594 
L 317.025 135.793594 
" style="fill: none; stroke: #000000; stroke-width: 2; stroke-linejoin: miter; stroke-linecap: square"/>
   </g>
   <g id="text_5">
    <!-- S22 -->
    <g transform="translate(267.550781 124.608844) scale(0.25 -0.25)">
     <defs>
      <path id="ArialMT-32" d="M 3222 541 
L 3222 0 
L 194 0 
Q 188 203 259 391 
Q 375 700 629 1000 
Q 884 1300 1366 1694 
Q 2113 2306 2375 2664 
Q 2638 3022 2638 3341 
Q 2638 3675 2398 3904 
Q 2159 4134 1775 4134 
Q 1369 4134 1125 3890 
Q 881 3647 878 3216 
L 300 3275 
Q 359 3922 746 4261 
Q 1134 4600 1788 4600 
Q 2447 4600 2831 4234 
Q 3216 3869 3216 3328 
Q 3216 3053 3103 2787 
Q 2991 2522 2730 2228 
Q 2469 1934 1863 1422 
Q 1356 997 1212 845 
Q 1069 694 975 541 
L 3222 541 
z
" transform="scale(0.015625)"/>
     </defs>
     <use xlink:href="#ArialMT-53"/>
     <use xlink:href="#ArialMT-32" x="66.699219"/>
     <use xlink:href="#ArialMT-32" x="122.314453"/>
    </g>
   </g>
  </g>
  <g id="axes_3">
   <g id="patch_8">
    <path d="M 78.55 366.993594 
L 178.425 366.993594 
L 178.425 242.673594 
L 78.55 242.673594 
L 78.55 366.993594 
z
" style="fill: none"/>
   </g>
   <g id="matplotlib.axis_5">
    <g id="xtick_7">
     <g id="line2d_23">
      <g>
       <use xlink:href="#mcc209f26b0" x="78.55" y="366.993594" style="stroke: #000000; stroke-width: 0.8"/>
      </g>
     </g>
     <g id="text_6">
      <!-- 0 -->
      <g transform="translate(72.432969 389.740781) scale(0.22 -0.22)">
       <use xlink:href="#ArialMT-30"/>
      </g>
     </g>
    </g>
    <g id="xtick_8">
     <g id="line2d_24">
      <g>
       <use xlink:href="#mcc209f26b0" x="128.4875" y="366.993594" style="stroke: #000000; stroke-width: 0.8"/>
      </g>
     </g>
     <g id="text_7">
      <!-- 128 -->
      <g transform="translate(110.136406 389.740781) scale(0.22 -0.22)">
       <defs>
        <path id="ArialMT-38" d="M 1131 2484 
Q 781 2613 612 2850 
Q 444 3088 444 3419 
Q 444 3919 803 4259 
Q 1163 4600 1759 4600 
Q 2359 4600 2725 4251 
Q 3091 3903 3091 3403 
Q 3091 3084 2923 2848 
Q 2756 2613 2416 2484 
Q 2838 2347 3058 2040 
Q 3278 1734 3278 1309 
Q 3278 722 2862 322 
Q 2447 -78 1769 -78 
Q 1091 -78 675 323 
Q 259 725 259 1325 
Q 259 1772 486 2073 
Q 713 2375 1131 2484 
z
M 1019 3438 
Q 1019 3113 1228 2906 
Q 1438 2700 1772 2700 
Q 2097 2700 2305 2904 
Q 2513 3109 2513 3406 
Q 2513 3716 2298 3927 
Q 2084 4138 1766 4138 
Q 1444 4138 1231 3931 
Q 1019 3725 1019 3438 
z
M 838 1322 
Q 838 1081 952 856 
Q 1066 631 1291 507 
Q 1516 384 1775 384 
Q 2178 384 2440 643 
Q 2703 903 2703 1303 
Q 2703 1709 2433 1975 
Q 2163 2241 1756 2241 
Q 1359 2241 1098 1978 
Q 838 1716 838 1322 
z
" transform="scale(0.015625)"/>
       </defs>
       <use xlink:href="#ArialMT-31"/>
       <use xlink:href="#ArialMT-32" x="55.615234"/>
       <use xlink:href="#ArialMT-38" x="111.230469"/>
      </g>
     </g>
    </g>
    <g id="xtick_9">
     <g id="line2d_25">
      <g>
       <use xlink:href="#mcc209f26b0" x="178.425" y="366.993594" style="stroke: #000000; stroke-width: 0.8"/>
      </g>
     </g>
     <g id="text_8">
      <!-- 256 -->
      <g transform="translate(160.073906 389.740781) scale(0.22 -0.22)">
       <defs>
        <path id="ArialMT-36" d="M 3184 3459 
L 2625 3416 
Q 2550 3747 2413 3897 
Q 2184 4138 1850 4138 
Q 1581 4138 1378 3988 
Q 1113 3794 959 3422 
Q 806 3050 800 2363 
Q 1003 2672 1297 2822 
Q 1591 2972 1913 2972 
Q 2475 2972 2870 2558 
Q 3266 2144 3266 1488 
Q 3266 1056 3080 686 
Q 2894 316 2569 119 
Q 2244 -78 1831 -78 
Q 1128 -78 684 439 
Q 241 956 241 2144 
Q 241 3472 731 4075 
Q 1159 4600 1884 4600 
Q 2425 4600 2770 4297 
Q 3116 3994 3184 3459 
z
M 888 1484 
Q 888 1194 1011 928 
Q 1134 663 1356 523 
Q 1578 384 1822 384 
Q 2178 384 2434 671 
Q 2691 959 2691 1453 
Q 2691 1928 2437 2201 
Q 2184 2475 1800 2475 
Q 1419 2475 1153 2201 
Q 888 1928 888 1484 
z
" transform="scale(0.015625)"/>
       </defs>
       <use xlink:href="#ArialMT-32"/>
       <use xlink:href="#ArialMT-35" x="55.615234"/>
       <use xlink:href="#ArialMT-36" x="111.230469"/>
      </g>
     </g>
    </g>
   </g>
   <g id="matplotlib.axis_6">
    <g id="ytick_7">
     <g id="line2d_26">
      <g>
       <use xlink:href="#m51ad98ad4f" x="78.55" y="366.993594" style="stroke: #000000; stroke-width: 0.8"/>
      </g>
     </g>
     <g id="text_9">
      <!-- 0 -->
      <g transform="translate(59.315937 374.867188) scale(0.22 -0.22)">
       <use xlink:href="#ArialMT-30"/>
      </g>
     </g>
    </g>
    <g id="ytick_8">
     <g id="line2d_27">
      <g>
       <use xlink:href="#m51ad98ad4f" x="78.55" y="304.833594" style="stroke: #000000; stroke-width: 0.8"/>
      </g>
     </g>
     <g id="text_10">
      <!-- 0.5 -->
      <g transform="translate(40.97 312.707187) scale(0.22 -0.22)">
       <use xlink:href="#ArialMT-30"/>
       <use xlink:href="#ArialMT-2e" x="55.615234"/>
       <use xlink:href="#ArialMT-35" x="83.398438"/>
      </g>
     </g>
    </g>
    <g id="ytick_9">
     <g id="line2d_28">
      <g>
       <use xlink:href="#m51ad98ad4f" x="78.55" y="242.673594" style="stroke: #000000; stroke-width: 0.8"/>
      </g>
     </g>
     <g id="text_11">
      <!-- 1 -->
      <g transform="translate(59.315937 250.547187) scale(0.22 -0.22)">
       <use xlink:href="#ArialMT-31"/>
      </g>
     </g>
    </g>
   </g>
   <g id="line2d_29">
    <path d="M 84.792187 312.603594 
L 85.572461 320.373594 
L 86.352734 320.373594 
L 86.742871 324.258594 
L 87.133008 324.258594 
L 87.523145 332.028594 
L 87.913281 332.028594 
L 88.303418 335.913594 
L 88.693555 328.143594 
L 89.473828 328.143594 
L 89.863965 335.913594 
L 90.644238 328.143594 
L 91.034375 332.028594 
L 91.424512 324.258594 
L 91.814648 324.258594 
L 93.375195 293.178594 
L 93.765332 289.293594 
L 94.155469 281.523594 
L 94.935742 281.523594 
L 95.325879 277.638594 
L 95.716016 277.638594 
L 96.106152 273.753594 
L 96.496289 273.753594 
L 96.886426 277.638594 
L 97.276562 273.753594 
L 97.666699 277.638594 
L 99.617383 277.638594 
L 100.00752 281.523594 
L 100.397656 281.523594 
L 100.787793 273.753594 
L 101.958203 273.753594 
L 102.34834 277.638594 
L 103.128613 269.868594 
L 103.51875 269.868594 
L 103.908887 265.983594 
L 104.299023 258.213594 
L 105.85957 258.213594 
L 106.249707 250.443594 
L 108.200391 250.443594 
L 108.590527 242.673594 
L 109.760937 242.673594 
L 110.151074 246.558594 
L 116.003125 246.558594 
L 116.393262 242.673594 
L 125.366406 242.673594 
L 125.756543 250.443594 
L 127.707227 250.443594 
L 128.097363 254.328594 
L 128.4875 254.328594 
L 128.4875 254.328594 
" style="fill: none; stroke: #986e56; stroke-opacity: 0.6; stroke-width: 2; stroke-linecap: square"/>
   </g>
   <g id="line2d_30">
    <path d="M 103.51875 366.993594 
L 103.51875 242.673594 
" clip-path="url(#p9dcc71a0dc)" style="fill: none; stroke-dasharray: 3.7,1.6; stroke-dashoffset: 0; stroke: #808080; stroke-opacity: 0.3"/>
   </g>
   <g id="line2d_31">
    <path d="M 128.4875 366.993594 
L 128.4875 242.673594 
" clip-path="url(#p9dcc71a0dc)" style="fill: none; stroke-dasharray: 3.7,1.6; stroke-dashoffset: 0; stroke: #808080; stroke-opacity: 0.3"/>
   </g>
   <g id="line2d_32">
    <path d="M 153.45625 366.993594 
L 153.45625 242.673594 
" clip-path="url(#p9dcc71a0dc)" style="fill: none; stroke-dasharray: 3.7,1.6; stroke-dashoffset: 0; stroke: #808080; stroke-opacity: 0.3"/>
   </g>
   <g id="line2d_33">
    <path d="M 178.425 366.993594 
L 178.425 242.673594 
" clip-path="url(#p9dcc71a0dc)" style="fill: none; stroke-dasharray: 3.7,1.6; stroke-dashoffset: 0; stroke: #808080; stroke-opacity: 0.3"/>
   </g>
   <g id="patch_9">
    <path d="M 78.55 366.993594 
L 78.55 242.673594 
" style="fill: none; stroke: #000000; stroke-width: 2; stroke-linejoin: miter; stroke-linecap: square"/>
   </g>
   <g id="patch_10">
    <path d="M 78.55 366.993594 
L 178.425 366.993594 
" style="fill: none; stroke: #000000; stroke-width: 2; stroke-linejoin: miter; stroke-linecap: square"/>
   </g>
   <g id="text_12">
    <!-- S24 -->
    <g transform="translate(128.950781 355.808844) scale(0.25 -0.25)">
     <defs>
      <path id="ArialMT-34" d="M 2069 0 
L 2069 1097 
L 81 1097 
L 81 1613 
L 2172 4581 
L 2631 4581 
L 2631 1613 
L 3250 1613 
L 3250 1097 
L 2631 1097 
L 2631 0 
L 2069 0 
z
M 2069 1613 
L 2069 3678 
L 634 1613 
L 2069 1613 
z
" transform="scale(0.015625)"/>
     </defs>
     <use xlink:href="#ArialMT-53"/>
     <use xlink:href="#ArialMT-32" x="66.699219"/>
     <use xlink:href="#ArialMT-34" x="122.314453"/>
    </g>
   </g>
  </g>
  <g id="axes_4"/>
  <g id="text_13">
   <!-- Trial -->
   <g transform="translate(166.966016 421.153594) scale(0.25 -0.25)">
    <defs>
     <path id="ArialMT-54" d="M 1659 0 
L 1659 4041 
L 150 4041 
L 150 4581 
L 3781 4581 
L 3781 4041 
L 2266 4041 
L 2266 0 
L 1659 0 
z
" transform="scale(0.015625)"/>
     <path id="ArialMT-72" d="M 416 0 
L 416 3319 
L 922 3319 
L 922 2816 
Q 1116 3169 1280 3281 
Q 1444 3394 1641 3394 
Q 1925 3394 2219 3213 
L 2025 2691 
Q 1819 2813 1613 2813 
Q 1428 2813 1281 2702 
Q 1134 2591 1072 2394 
Q 978 2094 978 1738 
L 978 0 
L 416 0 
z
" transform="scale(0.015625)"/>
     <path id="ArialMT-69" d="M 425 3934 
L 425 4581 
L 988 4581 
L 988 3934 
L 425 3934 
z
M 425 0 
L 425 3319 
L 988 3319 
L 988 0 
L 425 0 
z
" transform="scale(0.015625)"/>
     <path id="ArialMT-61" d="M 2588 409 
Q 2275 144 1986 34 
Q 1697 -75 1366 -75 
Q 819 -75 525 192 
Q 231 459 231 875 
Q 231 1119 342 1320 
Q 453 1522 633 1644 
Q 813 1766 1038 1828 
Q 1203 1872 1538 1913 
Q 2219 1994 2541 2106 
Q 2544 2222 2544 2253 
Q 2544 2597 2384 2738 
Q 2169 2928 1744 2928 
Q 1347 2928 1158 2789 
Q 969 2650 878 2297 
L 328 2372 
Q 403 2725 575 2942 
Q 747 3159 1072 3276 
Q 1397 3394 1825 3394 
Q 2250 3394 2515 3294 
Q 2781 3194 2906 3042 
Q 3031 2891 3081 2659 
Q 3109 2516 3109 2141 
L 3109 1391 
Q 3109 606 3145 398 
Q 3181 191 3288 0 
L 2700 0 
Q 2613 175 2588 409 
z
M 2541 1666 
Q 2234 1541 1622 1453 
Q 1275 1403 1131 1340 
Q 988 1278 909 1158 
Q 831 1038 831 891 
Q 831 666 1001 516 
Q 1172 366 1500 366 
Q 1825 366 2078 508 
Q 2331 650 2450 897 
Q 2541 1088 2541 1459 
L 2541 1666 
z
" transform="scale(0.015625)"/>
     <path id="ArialMT-6c" d="M 409 0 
L 409 4581 
L 972 4581 
L 972 0 
L 409 0 
z
" transform="scale(0.015625)"/>
    </defs>
    <use xlink:href="#ArialMT-54"/>
    <use xlink:href="#ArialMT-72" x="57.333984"/>
    <use xlink:href="#ArialMT-69" x="90.634766"/>
    <use xlink:href="#ArialMT-61" x="112.851562"/>
    <use xlink:href="#ArialMT-6c" x="168.466797"/>
   </g>
  </g>
  <g id="text_14">
   <!-- Accuracy -->
   <g transform="translate(21.494531 246.835938) rotate(-90) scale(0.25 -0.25)">
    <defs>
     <path id="ArialMT-41" d="M -9 0 
L 1750 4581 
L 2403 4581 
L 4278 0 
L 3588 0 
L 3053 1388 
L 1138 1388 
L 634 0 
L -9 0 
z
M 1313 1881 
L 2866 1881 
L 2388 3150 
Q 2169 3728 2063 4100 
Q 1975 3659 1816 3225 
L 1313 1881 
z
" transform="scale(0.015625)"/>
     <path id="ArialMT-63" d="M 2588 1216 
L 3141 1144 
Q 3050 572 2676 248 
Q 2303 -75 1759 -75 
Q 1078 -75 664 370 
Q 250 816 250 1647 
Q 250 2184 428 2587 
Q 606 2991 970 3192 
Q 1334 3394 1763 3394 
Q 2303 3394 2647 3120 
Q 2991 2847 3088 2344 
L 2541 2259 
Q 2463 2594 2264 2762 
Q 2066 2931 1784 2931 
Q 1359 2931 1093 2626 
Q 828 2322 828 1663 
Q 828 994 1084 691 
Q 1341 388 1753 388 
Q 2084 388 2306 591 
Q 2528 794 2588 1216 
z
" transform="scale(0.015625)"/>
     <path id="ArialMT-75" d="M 2597 0 
L 2597 488 
Q 2209 -75 1544 -75 
Q 1250 -75 995 37 
Q 741 150 617 320 
Q 494 491 444 738 
Q 409 903 409 1263 
L 409 3319 
L 972 3319 
L 972 1478 
Q 972 1038 1006 884 
Q 1059 663 1231 536 
Q 1403 409 1656 409 
Q 1909 409 2131 539 
Q 2353 669 2445 892 
Q 2538 1116 2538 1541 
L 2538 3319 
L 3100 3319 
L 3100 0 
L 2597 0 
z
" transform="scale(0.015625)"/>
     <path id="ArialMT-79" d="M 397 -1278 
L 334 -750 
Q 519 -800 656 -800 
Q 844 -800 956 -737 
Q 1069 -675 1141 -563 
Q 1194 -478 1313 -144 
Q 1328 -97 1363 -6 
L 103 3319 
L 709 3319 
L 1400 1397 
Q 1534 1031 1641 628 
Q 1738 1016 1872 1384 
L 2581 3319 
L 3144 3319 
L 1881 -56 
Q 1678 -603 1566 -809 
Q 1416 -1088 1222 -1217 
Q 1028 -1347 759 -1347 
Q 597 -1347 397 -1278 
z
" transform="scale(0.015625)"/>
    </defs>
    <use xlink:href="#ArialMT-41"/>
    <use xlink:href="#ArialMT-63" x="66.699219"/>
    <use xlink:href="#ArialMT-63" x="116.699219"/>
    <use xlink:href="#ArialMT-75" x="166.699219"/>
    <use xlink:href="#ArialMT-72" x="222.314453"/>
    <use xlink:href="#ArialMT-61" x="255.615234"/>
    <use xlink:href="#ArialMT-63" x="311.230469"/>
    <use xlink:href="#ArialMT-79" x="361.230469"/>
   </g>
  </g>
 </g>
 <defs>
  <clipPath id="paf3f20084d">
   <rect x="78.55" y="11.473594" width="99.875" height="124.32"/>
  </clipPath>
  <clipPath id="p07edcb3132">
   <rect x="217.15" y="11.473594" width="99.875" height="124.32"/>
  </clipPath>
  <clipPath id="p9dcc71a0dc">
   <rect x="78.55" y="242.673594" width="99.875" height="124.32"/>
  </clipPath>
 </defs>
</svg>
